<?xml version="1.0" encoding="UTF-8" standalone="no"?>
<!DOCTYPE svg PUBLIC "-//W3C//DTD SVG 1.1//EN"
 "http://www.w3.org/Graphics/SVG/1.1/DTD/svg11.dtd">
<!-- Generated by graphviz version 2.40.1 (20161225.0304)
 -->
<!-- Title: G Pages: 1 -->
<svg width="835pt" height="779pt"
 viewBox="0.00 0.00 835.00 779.00" xmlns="http://www.w3.org/2000/svg" xmlns:xlink="http://www.w3.org/1999/xlink">
<g id="graph0" class="graph" transform="scale(1 1) rotate(0) translate(4 775)">
<title>G</title>
<polygon fill="#ffffff" stroke="transparent" points="-4,4 -4,-775 831,-775 831,4 -4,4"/>
<g id="clust1" class="cluster">
<title>cluster_api.bilibili.com</title>
<polygon fill="none" stroke="#000000" points="183.3595,-369.9731 183.3595,-601.9731 467.3595,-601.9731 467.3595,-369.9731 183.3595,-369.9731"/>
<text text-anchor="middle" x="325.3595" y="-586.7731" font-family="Times,serif" font-size="14.00" fill="#000000">api.bilibili.com</text>
</g>
<g id="clust2" class="cluster">
<title>cluster_api.live.bilibili.com</title>
<polygon fill="none" stroke="#000000" points="562.0828,-158.9398 562.0828,-340.9398 827.0828,-340.9398 827.0828,-158.9398 562.0828,-158.9398"/>
<text text-anchor="middle" x="694.5828" y="-325.7398" font-family="Times,serif" font-size="14.00" fill="#000000">api.live.bilibili.com</text>
</g>
<g id="clust3" class="cluster">
<title>cluster_data</title>
<polygon fill="none" stroke="#000000" points="-.1302,.1625 -.1302,-356.8375 547.8698,-356.8375 547.8698,.1625 -.1302,.1625"/>
<text text-anchor="middle" x="273.8698" y="-341.6375" font-family="Times,serif" font-size="14.00" fill="#000000">data</text>
</g>
<g id="clust4" class="cluster">
<title>cluster_input</title>
<polygon fill="none" stroke="#000000" points="581.6636,-349.2792 581.6636,-485.2792 729.6636,-485.2792 729.6636,-349.2792 581.6636,-349.2792"/>
<text text-anchor="middle" x="655.6636" y="-470.0792" font-family="Times,serif" font-size="14.00" fill="#000000">input</text>
</g>
<!-- stat -->
<g id="node1" class="node">
<title>stat</title>
<ellipse fill="none" stroke="#000000" cx="309.2346" cy="-553.5947" rx="27" ry="18"/>
<text text-anchor="middle" x="309.2346" y="-549.3947" font-family="Times,serif" font-size="14.00" fill="#000000">stat</text>
</g>
<!-- follower -->
<g id="node13" class="node">
<title>follower</title>
<ellipse fill="none" stroke="#000000" cx="126.1151" cy="-58.9566" rx="40.1317" ry="18"/>
<text text-anchor="middle" x="126.1151" y="-54.7566" font-family="Times,serif" font-size="14.00" fill="#000000">follower</text>
</g>
<!-- stat&#45;&gt;follower -->
<g id="edge9" class="edge">
<title>stat&#45;&gt;follower</title>
<path fill="none" stroke="#000000" d="M295.5624,-537.9227C278.557,-517.4746 250.0604,-479.8713 236.0488,-442.4344 215.3619,-387.1623 222.8043,-233.9063 200.5624,-179.2414 190.6104,-154.7818 179.8261,-153.4865 165.1363,-131.5429 161.1353,-125.5663 160.3215,-123.9439 156.8022,-117.6715 151.0018,-107.3335 144.8981,-95.8031 139.6754,-85.7159"/>
<polygon fill="#000000" stroke="#000000" points="142.6605,-83.8673 134.9766,-76.5729 136.4346,-87.067 142.6605,-83.8673"/>
</g>
<!-- upstat -->
<g id="node2" class="node">
<title>upstat</title>
<ellipse fill="none" stroke="#000000" cx="222.2251" cy="-507.2865" rx="31.4636" ry="18"/>
<text text-anchor="middle" x="222.2251" y="-503.0865" font-family="Times,serif" font-size="14.00" fill="#000000">upstat</text>
</g>
<!-- archiveView -->
<g id="node25" class="node">
<title>archiveView</title>
<ellipse fill="none" stroke="#000000" cx="65.1737" cy="-217.8378" rx="54.513" ry="18"/>
<text text-anchor="middle" x="65.1737" y="-213.6378" font-family="Times,serif" font-size="14.00" fill="#000000">archiveView</text>
</g>
<!-- upstat&#45;&gt;archiveView -->
<g id="edge24" class="edge">
<title>upstat&#45;&gt;archiveView</title>
<path fill="none" stroke="#000000" d="M212.8711,-490.047C186.5362,-441.5112 111.6192,-303.4379 79.7789,-244.7556"/>
<polygon fill="#000000" stroke="#000000" points="82.7231,-242.8426 74.8776,-235.7223 76.5704,-246.181 82.7231,-242.8426"/>
</g>
<!-- articleView -->
<g id="node26" class="node">
<title>articleView</title>
<ellipse fill="none" stroke="#000000" cx="227.2261" cy="-25.4294" rx="50.6536" ry="18"/>
<text text-anchor="middle" x="227.2261" y="-21.2294" font-family="Times,serif" font-size="14.00" fill="#000000">articleView</text>
</g>
<!-- upstat&#45;&gt;articleView -->
<g id="edge25" class="edge">
<title>upstat&#45;&gt;articleView</title>
<path fill="none" stroke="#000000" d="M221.8684,-489.2439C221.1582,-451.1207 219.6821,-359.5643 220.2431,-282.7785 220.6176,-231.5181 221.5736,-218.7145 222.9462,-167.4711 224.0006,-128.1077 225.4039,-82.614 226.3112,-53.9355"/>
<polygon fill="#000000" stroke="#000000" points="229.8133,-53.9215 226.6329,-43.8153 222.8169,-53.699 229.8133,-53.9215"/>
</g>
<!-- navnum -->
<g id="node3" class="node">
<title>navnum</title>
<ellipse fill="none" stroke="#000000" cx="276.2451" cy="-442.5981" rx="38.6955" ry="18"/>
<text text-anchor="middle" x="276.2451" y="-438.3981" font-family="Times,serif" font-size="14.00" fill="#000000">navnum</text>
</g>
<!-- video -->
<g id="node17" class="node">
<title>video</title>
<ellipse fill="none" stroke="#000000" cx="268.7187" cy="-108.3709" rx="29.5104" ry="18"/>
<text text-anchor="middle" x="268.7187" y="-104.1709" font-family="Times,serif" font-size="14.00" fill="#000000">video</text>
</g>
<!-- navnum&#45;&gt;video -->
<g id="edge13" class="edge">
<title>navnum&#45;&gt;video</title>
<path fill="none" stroke="#000000" d="M278.6984,-424.3109C279.9616,-415.6411 281.6339,-405.1589 283.526,-395.8132 291.3545,-357.1449 330.9499,-262.7957 326.609,-223.5825 322.8473,-189.6021 302.9698,-155.1605 287.5444,-132.9022"/>
<polygon fill="#000000" stroke="#000000" points="290.35,-130.8085 281.6849,-124.7119 284.6569,-134.8814 290.35,-130.8085"/>
</g>
<!-- info -->
<g id="node4" class="node">
<title>info</title>
<ellipse fill="none" stroke="#000000" cx="352.3912" cy="-469.1178" rx="27" ry="18"/>
<text text-anchor="middle" x="352.3912" y="-464.9178" font-family="Times,serif" font-size="14.00" fill="#000000">info</text>
</g>
<!-- uname -->
<g id="node14" class="node">
<title>uname</title>
<ellipse fill="none" stroke="#000000" cx="165.2831" cy="-179.2288" rx="33.8596" ry="18"/>
<text text-anchor="middle" x="165.2831" y="-175.0288" font-family="Times,serif" font-size="14.00" fill="#000000">uname</text>
</g>
<!-- info&#45;&gt;uname -->
<g id="edge10" class="edge">
<title>info&#45;&gt;uname</title>
<path fill="none" stroke="#000000" d="M335.6034,-454.7284C322.7887,-443.2683 305.1412,-426.4218 291.9024,-409.6726 239.1376,-342.9166 196.0816,-251.1987 176.5705,-206.2628"/>
<polygon fill="#000000" stroke="#000000" points="179.7132,-204.7107 172.5537,-196.901 173.2804,-207.4709 179.7132,-204.7107"/>
</g>
<!-- sign -->
<g id="node15" class="node">
<title>sign</title>
<ellipse fill="none" stroke="#000000" cx="248.8418" cy="-282.9649" rx="27" ry="18"/>
<text text-anchor="middle" x="248.8418" y="-278.7649" font-family="Times,serif" font-size="14.00" fill="#000000">sign</text>
</g>
<!-- info&#45;&gt;sign -->
<g id="edge11" class="edge">
<title>info&#45;&gt;sign</title>
<path fill="none" stroke="#000000" d="M335.6034,-454.7284C322.7887,-443.2683 305.1412,-426.4218 291.9024,-409.6726 269.0087,-380.7084 257.9452,-338.8811 252.8461,-311.3197"/>
<polygon fill="#000000" stroke="#000000" points="256.2455,-310.4324 251.1171,-301.1615 249.3448,-311.607 256.2455,-310.4324"/>
</g>
<!-- coins -->
<g id="node16" class="node">
<title>coins</title>
<ellipse fill="none" stroke="#000000" cx="340.7523" cy="-309.2343" rx="28.5497" ry="18"/>
<text text-anchor="middle" x="340.7523" y="-305.0343" font-family="Times,serif" font-size="14.00" fill="#000000">coins</text>
</g>
<!-- info&#45;&gt;coins -->
<g id="edge12" class="edge">
<title>info&#45;&gt;coins</title>
<path fill="none" stroke="#000000" d="M351.0787,-451.0879C349.0703,-423.4997 345.2168,-370.5642 342.8273,-337.739"/>
<polygon fill="#000000" stroke="#000000" points="346.2947,-337.1631 342.0778,-327.4436 339.3132,-337.6714 346.2947,-337.1631"/>
</g>
<!-- face -->
<g id="node27" class="node">
<title>face</title>
<ellipse fill="none" stroke="#000000" cx="251.5451" cy="-167.6458" rx="27" ry="18"/>
<text text-anchor="middle" x="251.5451" y="-163.4458" font-family="Times,serif" font-size="14.00" fill="#000000">face</text>
</g>
<!-- info&#45;&gt;face -->
<g id="edge26" class="edge">
<title>info&#45;&gt;face</title>
<path fill="none" stroke="#000000" d="M351.2876,-450.909C349.9517,-435.8058 347.0351,-413.9486 340.726,-395.8139 319.498,-334.7969 307.6042,-321.2298 269.2564,-269.238 252.9266,-247.098 232.1177,-250.6267 227.5511,-223.4976 225.7643,-212.8824 229.2105,-201.8596 234.0032,-192.4392"/>
<polygon fill="#000000" stroke="#000000" points="237.123,-194.0359 239.1009,-183.6273 231.0638,-190.5306 237.123,-194.0359"/>
</g>
<!-- view -->
<g id="node5" class="node">
<title>view</title>
<ellipse fill="none" stroke="#000000" cx="390.0567" cy="-417.1384" rx="27.0958" ry="18"/>
<text text-anchor="middle" x="390.0567" y="-412.9384" font-family="Times,serif" font-size="14.00" fill="#000000">view</text>
</g>
<!-- mid -->
<g id="node30" class="node">
<title>mid</title>
<ellipse fill="none" stroke="#000000" cx="628.5314" cy="-375.5446" rx="27" ry="18"/>
<text text-anchor="middle" x="628.5314" y="-371.3446" font-family="Times,serif" font-size="14.00" fill="#000000">mid</text>
</g>
<!-- view&#45;&gt;mid -->
<g id="edge30" class="edge">
<title>view&#45;&gt;mid</title>
<path fill="none" stroke="#000000" stroke-dasharray="5,2" d="M416.4888,-412.5282C459.308,-405.0598 543.9141,-390.3032 592.3075,-381.8626"/>
<polygon fill="#000000" stroke="#000000" points="593.0945,-385.2783 602.3444,-380.112 591.8917,-378.3824 593.0945,-385.2783"/>
</g>
<!-- cid -->
<g id="node31" class="node">
<title>cid</title>
<ellipse fill="none" stroke="#000000" cx="694.9853" cy="-391.2361" rx="27" ry="18"/>
<text text-anchor="middle" x="694.9853" y="-387.0361" font-family="Times,serif" font-size="14.00" fill="#000000">cid</text>
</g>
<!-- view&#45;&gt;cid -->
<g id="edge32" class="edge">
<title>view&#45;&gt;cid</title>
<path fill="none" stroke="#000000" d="M417.3854,-414.8169C472.2458,-410.1568 595.8282,-399.659 657.9132,-394.3852"/>
<polygon fill="#000000" stroke="#000000" points="658.3778,-397.8584 668.0456,-393.5245 657.7852,-390.8836 658.3778,-397.8584"/>
</g>
<!-- list -->
<g id="node6" class="node">
<title>list</title>
<ellipse fill="none" stroke="#000000" cx="312.126" cy="-395.8135" rx="27" ry="18"/>
<text text-anchor="middle" x="312.126" y="-391.6135" font-family="Times,serif" font-size="14.00" fill="#000000">list</text>
</g>
<!-- search -->
<g id="node7" class="node">
<title>search</title>
<ellipse fill="none" stroke="#000000" cx="426.512" cy="-482.3999" rx="32.8821" ry="18"/>
<text text-anchor="middle" x="426.512" y="-478.1999" font-family="Times,serif" font-size="14.00" fill="#000000">search</text>
</g>
<!-- search&#45;&gt;mid -->
<g id="edge31" class="edge">
<title>search&#45;&gt;mid</title>
<path fill="none" stroke="#000000" stroke-dasharray="5,2" d="M450.4796,-469.7226C487.3452,-450.2231 557.9198,-412.8936 598.2619,-391.5552"/>
<polygon fill="#000000" stroke="#000000" points="600.1455,-394.5184 607.3486,-386.7489 596.8725,-388.3307 600.1455,-394.5184"/>
</g>
<!-- _notice -->
<g id="node8" class="node">
<title>_notice</title>
<ellipse fill="none" stroke="#000000" cx="412.5158" cy="-528.9509" rx="36.2732" ry="18"/>
<text text-anchor="middle" x="412.5158" y="-524.7509" font-family="Times,serif" font-size="14.00" fill="#000000">_notice</text>
</g>
<!-- notice -->
<g id="node24" class="node">
<title>notice</title>
<ellipse fill="none" stroke="#000000" cx="174.1184" cy="-277.5001" rx="31.9306" ry="18"/>
<text text-anchor="middle" x="174.1184" y="-273.3001" font-family="Times,serif" font-size="14.00" fill="#000000">notice</text>
</g>
<!-- _notice&#45;&gt;notice -->
<g id="edge23" class="edge">
<title>_notice&#45;&gt;notice</title>
<path fill="none" stroke="#000000" d="M404.4106,-511.1671C395.5048,-492.1934 381.3205,-463.728 372.6822,-455.3051 343.1594,-426.5181 324.0027,-435.5542 291.9024,-409.6726 252.0037,-377.5033 214.1091,-331.164 192.5359,-302.7632"/>
<polygon fill="#000000" stroke="#000000" points="195.1823,-300.4584 186.3807,-294.5607 189.5833,-304.6599 195.1823,-300.4584"/>
</g>
<!-- getRoomInfoOld -->
<g id="node9" class="node">
<title>getRoomInfoOld</title>
<ellipse fill="none" stroke="#000000" cx="697.6899" cy="-184.9352" rx="70.56" ry="18"/>
<text text-anchor="middle" x="697.6899" y="-180.7352" font-family="Times,serif" font-size="14.00" fill="#000000">getRoomInfoOld</text>
</g>
<!-- roomStatus -->
<g id="node19" class="node">
<title>roomStatus</title>
<ellipse fill="none" stroke="#000000" cx="360.2484" cy="-150.6518" rx="50.2896" ry="18"/>
<text text-anchor="middle" x="360.2484" y="-146.4518" font-family="Times,serif" font-size="14.00" fill="#000000">roomStatus</text>
</g>
<!-- getRoomInfoOld&#45;&gt;roomStatus -->
<g id="edge15" class="edge">
<title>getRoomInfoOld&#45;&gt;roomStatus</title>
<path fill="none" stroke="#000000" d="M632.5031,-178.026C592.8225,-173.8478 541.1032,-168.4512 495.2142,-163.8199 470.3209,-161.3075 442.8364,-158.6118 419.202,-156.3179"/>
<polygon fill="#000000" stroke="#000000" points="419.2744,-152.8086 408.9835,-155.3278 418.5993,-159.7759 419.2744,-152.8086"/>
</g>
<!-- roundStatus -->
<g id="node20" class="node">
<title>roundStatus</title>
<ellipse fill="none" stroke="#000000" cx="60.1876" cy="-161.8129" rx="52.2192" ry="18"/>
<text text-anchor="middle" x="60.1876" y="-157.6129" font-family="Times,serif" font-size="14.00" fill="#000000">roundStatus</text>
</g>
<!-- getRoomInfoOld&#45;&gt;roundStatus -->
<g id="edge17" class="edge">
<title>getRoomInfoOld&#45;&gt;roundStatus</title>
<path fill="none" stroke="#000000" d="M636.2671,-176.0875C596.2086,-170.9217 542.7311,-165.1612 495.2142,-163.8199 434.9991,-162.1201 419.9755,-173.59 359.829,-170.2511 343.3627,-169.3371 339.3765,-167.5422 323.1872,-164.3988 291.2345,-158.1947 284.2536,-150.5416 251.7999,-148.0465 207.118,-144.6114 156.5532,-148.5748 118.5906,-153.1165"/>
<polygon fill="#000000" stroke="#000000" points="117.7232,-149.6974 108.2328,-154.4071 118.5888,-156.6437 117.7232,-149.6974"/>
</g>
<!-- liveStatus -->
<g id="node21" class="node">
<title>liveStatus</title>
<ellipse fill="none" stroke="#000000" cx="494.9244" cy="-183.4195" rx="44.9768" ry="18"/>
<text text-anchor="middle" x="494.9244" y="-179.2195" font-family="Times,serif" font-size="14.00" fill="#000000">liveStatus</text>
</g>
<!-- getRoomInfoOld&#45;&gt;liveStatus -->
<g id="edge19" class="edge">
<title>getRoomInfoOld&#45;&gt;liveStatus</title>
<path fill="none" stroke="#000000" d="M627.057,-184.4072C601.8684,-184.2189 573.8826,-184.0097 550.1747,-183.8325"/>
<polygon fill="#000000" stroke="#000000" points="549.9795,-180.331 539.9536,-183.7561 549.9272,-187.3309 549.9795,-180.331"/>
</g>
<!-- title -->
<g id="node22" class="node">
<title>title</title>
<ellipse fill="none" stroke="#000000" cx="185.4022" cy="-117.7129" rx="27" ry="18"/>
<text text-anchor="middle" x="185.4022" y="-113.5129" font-family="Times,serif" font-size="14.00" fill="#000000">title</text>
</g>
<!-- getRoomInfoOld&#45;&gt;title -->
<g id="edge20" class="edge">
<title>getRoomInfoOld&#45;&gt;title</title>
<path fill="none" stroke="#000000" d="M641.911,-173.8182C575.2946,-161.0527 460.3466,-140.6418 360.6677,-131.0524 319.8854,-127.129 309.3811,-131.1673 268.5354,-127.9706 253.2525,-126.7745 236.4599,-124.8242 221.9923,-122.9436"/>
<polygon fill="#000000" stroke="#000000" points="222.2988,-119.4535 211.9233,-121.5983 221.3717,-126.3919 222.2988,-119.4535"/>
</g>
<!-- roomid -->
<g id="node32" class="node">
<title>roomid</title>
<ellipse fill="none" stroke="#000000" cx="624.8962" cy="-437.2277" rx="35.806" ry="18"/>
<text text-anchor="middle" x="624.8962" y="-433.0277" font-family="Times,serif" font-size="14.00" fill="#000000">roomid</text>
</g>
<!-- getRoomInfoOld&#45;&gt;roomid -->
<g id="edge34" class="edge">
<title>getRoomInfoOld&#45;&gt;roomid</title>
<path fill="none" stroke="#000000" d="M711.6833,-202.6978C719.5474,-214.7386 727.2627,-231.2565 724.3915,-246.9344 720.8371,-266.3424 706.4902,-263.9688 693.521,-278.8385 688.3815,-284.7311 686.2814,-285.748 682.6577,-292.6766 664.7625,-326.8925 671.8274,-340.0143 657.1303,-375.7208 652.2325,-387.62 645.8155,-400.2887 639.9975,-411.0169"/>
<polygon fill="#000000" stroke="#000000" points="636.8738,-409.433 635.0921,-419.877 642.9978,-412.8236 636.8738,-409.433"/>
</g>
<!-- topList -->
<g id="node10" class="node">
<title>topList</title>
<ellipse fill="none" stroke="#000000" cx="719.4222" cy="-292.7484" rx="35.3303" ry="18"/>
<text text-anchor="middle" x="719.4222" y="-288.5484" font-family="Times,serif" font-size="14.00" fill="#000000">topList</text>
</g>
<!-- guardNum -->
<g id="node18" class="node">
<title>guardNum</title>
<ellipse fill="none" stroke="#000000" cx="277.08" cy="-223.54" rx="47.8582" ry="18"/>
<text text-anchor="middle" x="277.08" y="-219.34" font-family="Times,serif" font-size="14.00" fill="#000000">guardNum</text>
</g>
<!-- topList&#45;&gt;guardNum -->
<g id="edge14" class="edge">
<title>topList&#45;&gt;guardNum</title>
<path fill="none" stroke="#000000" d="M687.2719,-285.3002C618.2923,-269.471 457.8503,-233.5033 402.2522,-228.346 380.3864,-226.3177 356.2955,-225.1418 335.1367,-224.4614"/>
<polygon fill="#000000" stroke="#000000" points="335.1057,-220.9591 325.0078,-224.1656 334.9013,-227.9561 335.1057,-220.9591"/>
</g>
<!-- getAnchorInRoom -->
<g id="node11" class="node">
<title>getAnchorInRoom</title>
<ellipse fill="none" stroke="#000000" cx="646.3721" cy="-246.8655" rx="76.3398" ry="18"/>
<text text-anchor="middle" x="646.3721" y="-242.6655" font-family="Times,serif" font-size="14.00" fill="#000000">getAnchorInRoom</text>
</g>
<!-- anchorScore -->
<g id="node28" class="node">
<title>anchorScore</title>
<ellipse fill="none" stroke="#000000" cx="401.9202" cy="-247.9457" rx="54.1058" ry="18"/>
<text text-anchor="middle" x="401.9202" y="-243.7457" font-family="Times,serif" font-size="14.00" fill="#000000">anchorScore</text>
</g>
<!-- getAnchorInRoom&#45;&gt;anchorScore -->
<g id="edge27" class="edge">
<title>getAnchorInRoom&#45;&gt;anchorScore</title>
<path fill="none" stroke="#000000" d="M569.6967,-247.2043C536.4679,-247.3511 497.9976,-247.5211 466.2837,-247.6613"/>
<polygon fill="#000000" stroke="#000000" points="466.224,-244.1614 456.2396,-247.7056 466.255,-251.1613 466.224,-244.1614"/>
</g>
<!-- getAnchorInRoom&#45;&gt;mid -->
<g id="edge29" class="edge">
<title>getAnchorInRoom&#45;&gt;mid</title>
<path fill="none" stroke="#000000" stroke-dasharray="5,2" d="M643.8538,-265.0292C640.8786,-286.4881 635.8953,-322.4313 632.4225,-347.4795"/>
<polygon fill="#000000" stroke="#000000" points="628.9435,-347.0874 631.0369,-357.4733 635.8772,-348.0488 628.9435,-347.0874"/>
</g>
<!-- rankdb -->
<g id="node12" class="node">
<title>rankdb</title>
<ellipse fill="none" stroke="#000000" cx="784.451" cy="-236.1582" rx="34.8285" ry="18"/>
<text text-anchor="middle" x="784.451" y="-231.9582" font-family="Times,serif" font-size="14.00" fill="#000000">rankdb</text>
</g>
<!-- areaRank -->
<g id="node29" class="node">
<title>areaRank</title>
<ellipse fill="none" stroke="#000000" cx="381.0974" cy="-52.7253" rx="43.4887" ry="18"/>
<text text-anchor="middle" x="381.0974" y="-48.5253" font-family="Times,serif" font-size="14.00" fill="#000000">areaRank</text>
</g>
<!-- rankdb&#45;&gt;areaRank -->
<g id="edge28" class="edge">
<title>rankdb&#45;&gt;areaRank</title>
<path fill="none" stroke="#000000" d="M751.9169,-229.6375C723.4619,-223.3963 681.3265,-212.8405 646.305,-198.6901 622.6279,-189.1234 482.0361,-109.9484 415.7034,-72.3744"/>
<polygon fill="#000000" stroke="#000000" points="417.2819,-69.246 406.8563,-67.3602 413.8304,-75.3359 417.2819,-69.246"/>
</g>
<!-- uname&#45;&gt;search -->
<g id="edge7" class="edge">
<title>uname&#45;&gt;search</title>
<path fill="none" stroke="#000000" d="M185.6661,-193.9009C207.8899,-210.5369 243.6932,-239.2643 269.2564,-269.238 324.1223,-333.57 315.3206,-366.0146 369.5081,-430.9191 378.4769,-441.6617 389.6721,-452.2482 399.7609,-461.0011"/>
<polygon fill="#000000" stroke="#000000" points="397.6572,-463.806 407.5511,-467.5957 402.18,-458.4632 397.6572,-463.806"/>
</g>
<!-- roomStatus&#45;&gt;roundStatus -->
<g id="edge16" class="edge">
<title>roomStatus&#45;&gt;roundStatus</title>
<path fill="none" stroke="#000000" d="M310.0353,-148.4442C291.7079,-147.9027 270.8161,-147.5929 251.7999,-148.0465 207.9132,-149.0935 158.5013,-152.7032 120.8478,-155.9634"/>
<polygon fill="#000000" stroke="#000000" points="120.2076,-152.5062 110.5538,-156.8713 120.8227,-159.4792 120.2076,-152.5062"/>
</g>
<!-- roomStatus&#45;&gt;liveStatus -->
<g id="edge18" class="edge">
<title>roomStatus&#45;&gt;liveStatus</title>
<path fill="none" stroke="#000000" d="M402.1225,-160.8401C416.1757,-164.2593 431.9643,-168.1008 446.4787,-171.6323"/>
<polygon fill="#000000" stroke="#000000" points="445.7425,-175.0552 456.2865,-174.0186 447.3975,-168.2536 445.7425,-175.0552"/>
</g>
<!-- online -->
<g id="node23" class="node">
<title>online</title>
<ellipse fill="none" stroke="#000000" cx="453.6943" cy="-121.4433" rx="32.4237" ry="18"/>
<text text-anchor="middle" x="453.6943" y="-117.2433" font-family="Times,serif" font-size="14.00" fill="#000000">online</text>
</g>
<!-- liveStatus&#45;&gt;online -->
<g id="edge22" class="edge">
<title>liveStatus&#45;&gt;online</title>
<path fill="none" stroke="#000000" d="M483.2198,-165.8254C479.2915,-159.9206 474.8288,-153.2123 470.584,-146.8316"/>
<polygon fill="#000000" stroke="#000000" points="473.4545,-144.8274 465.0015,-138.44 467.6263,-148.7046 473.4545,-144.8274"/>
</g>
<!-- mid&#45;&gt;stat -->
<g id="edge1" class="edge">
<title>mid&#45;&gt;stat</title>
<path fill="none" stroke="#000000" d="M611.4859,-389.8683C581.052,-414.7876 514.5553,-466.3164 450.7135,-496.2852 423.6538,-508.9877 413.9292,-504.0466 386.0978,-514.955 370.1671,-521.1989 353.1017,-529.5926 339.1076,-536.9615"/>
<polygon fill="#000000" stroke="#000000" points="337.1242,-534.0533 329.9616,-541.8603 340.4293,-540.2239 337.1242,-534.0533"/>
</g>
<!-- mid&#45;&gt;upstat -->
<g id="edge2" class="edge">
<title>mid&#45;&gt;upstat</title>
<path fill="none" stroke="#000000" d="M603.1213,-381.7132C541.0589,-396.886 383.1219,-436.1686 332.236,-455.212 305.3427,-465.2764 276.0025,-479.3292 254.3909,-490.3002"/>
<polygon fill="#000000" stroke="#000000" points="252.6368,-487.2663 245.3372,-494.9453 255.8323,-493.4944 252.6368,-487.2663"/>
</g>
<!-- mid&#45;&gt;navnum -->
<g id="edge3" class="edge">
<title>mid&#45;&gt;navnum</title>
<path fill="none" stroke="#000000" d="M604.1314,-383.5302C561.3083,-397.1534 469.5954,-424.5888 389.8933,-436.738 368.8538,-439.9452 345.3976,-441.4908 325.2839,-442.2054"/>
<polygon fill="#000000" stroke="#000000" points="324.9926,-438.7124 315.1009,-442.5078 325.2004,-445.7093 324.9926,-438.7124"/>
</g>
<!-- mid&#45;&gt;info -->
<g id="edge4" class="edge">
<title>mid&#45;&gt;info</title>
<path fill="none" stroke="#000000" d="M604.0258,-383.8486C554.5916,-400.5999 442.8394,-438.4684 386.3868,-457.598"/>
<polygon fill="#000000" stroke="#000000" points="385.1896,-454.3081 376.8418,-460.8324 387.4362,-460.9378 385.1896,-454.3081"/>
</g>
<!-- mid&#45;&gt;_notice -->
<g id="edge8" class="edge">
<title>mid&#45;&gt;_notice</title>
<path fill="none" stroke="#000000" d="M609.7394,-388.89C571.938,-415.7351 486.4822,-476.4227 441.4811,-508.3808"/>
<polygon fill="#000000" stroke="#000000" points="439.4346,-505.5413 433.3079,-514.1851 443.4877,-511.2485 439.4346,-505.5413"/>
</g>
<!-- mid&#45;&gt;getRoomInfoOld -->
<g id="edge35" class="edge">
<title>mid&#45;&gt;getRoomInfoOld</title>
<path fill="none" stroke="#000000" d="M638.1618,-358.5556C649.9252,-338.4945 671.0505,-304.6017 693.521,-278.8385 706.4902,-263.9688 720.8371,-266.3424 724.3915,-246.9344 726.6122,-234.8085 722.5,-222.1801 716.8841,-211.5094"/>
<polygon fill="#000000" stroke="#000000" points="719.7805,-209.5307 711.6833,-202.6978 713.7522,-213.0887 719.7805,-209.5307"/>
</g>
<!-- mid&#45;&gt;topList -->
<g id="edge37" class="edge">
<title>mid&#45;&gt;topList</title>
<path fill="none" stroke="#000000" d="M644.7809,-360.7423C658.6472,-348.1109 678.8023,-329.7507 694.6743,-315.2924"/>
<polygon fill="#000000" stroke="#000000" points="697.0399,-317.8719 702.0756,-308.5502 692.326,-312.6971 697.0399,-317.8719"/>
</g>
<!-- mid&#45;&gt;rankdb -->
<g id="edge40" class="edge">
<title>mid&#45;&gt;rankdb</title>
<path fill="none" stroke="#000000" d="M651.234,-365.3184C676.0283,-353.4644 716.0982,-332.2432 745.3234,-306.6584 758.5023,-295.1212 768.1457,-278.0199 774.5613,-263.5497"/>
<polygon fill="#000000" stroke="#000000" points="777.9015,-264.6315 778.491,-254.0531 771.4334,-261.955 777.9015,-264.6315"/>
</g>
<!-- cid&#45;&gt;list -->
<g id="edge6" class="edge">
<title>cid&#45;&gt;list</title>
<path fill="none" stroke="#000000" d="M668.0596,-393.1599C655.9116,-393.9385 641.3781,-394.7464 628.2742,-395.1438 527.5622,-398.1977 408.721,-397.2161 349.5385,-396.4163"/>
<polygon fill="#000000" stroke="#000000" points="349.2485,-392.912 339.1999,-396.2701 349.1494,-399.9113 349.2485,-392.912"/>
</g>
<!-- roomid&#45;&gt;topList -->
<g id="edge36" class="edge">
<title>roomid&#45;&gt;topList</title>
<path fill="none" stroke="#000000" d="M636.1108,-420.0867C652.5976,-394.8872 683.4929,-347.6649 702.6744,-318.3469"/>
<polygon fill="#000000" stroke="#000000" points="705.6762,-320.1515 708.2222,-309.8672 699.8185,-316.3191 705.6762,-320.1515"/>
</g>
<!-- roomid&#45;&gt;getAnchorInRoom -->
<g id="edge39" class="edge">
<title>roomid&#45;&gt;getAnchorInRoom</title>
<path fill="none" stroke="#000000" d="M637.1922,-420.2063C644.8524,-408.3859 653.8536,-391.909 657.1303,-375.7208 664.0584,-341.4926 658.5936,-301.2808 653.2394,-274.9974"/>
<polygon fill="#000000" stroke="#000000" points="656.6065,-274.0091 651.0653,-264.9788 649.7657,-275.4936 656.6065,-274.0091"/>
</g>
<!-- roomid&#45;&gt;online -->
<g id="edge21" class="edge">
<title>roomid&#45;&gt;online</title>
<path fill="none" stroke="#000000" d="M607.5101,-421.2653C568.6664,-384.1637 476.0744,-287.3201 448.3369,-183.2976 445.4417,-172.4401 445.793,-160.168 447.2267,-149.434"/>
<polygon fill="#000000" stroke="#000000" points="450.7202,-149.7664 448.9411,-139.322 443.8187,-148.5962 450.7202,-149.7664"/>
</g>
<!-- aid -->
<g id="node33" class="node">
<title>aid</title>
<ellipse fill="none" stroke="#000000" cx="322.9398" cy="-753.3733" rx="27" ry="18"/>
<text text-anchor="middle" x="322.9398" y="-749.1733" font-family="Times,serif" font-size="14.00" fill="#000000">aid</text>
</g>
<!-- aid&#45;&gt;view -->
<g id="edge5" class="edge">
<title>aid&#45;&gt;view</title>
<path fill="none" stroke="#000000" d="M326.7886,-735.4541C336.3701,-690.6531 361.8947,-570.122 380.991,-469.1836 382.4444,-461.501 383.9352,-453.1636 385.2773,-445.4595"/>
<polygon fill="#000000" stroke="#000000" points="388.75,-445.9163 386.9977,-435.4674 381.8515,-444.7285 388.75,-445.9163"/>
</g>
<!-- p -->
<g id="node34" class="node">
<title>p</title>
<ellipse fill="none" stroke="#000000" cx="710.0806" cy="-597.3548" rx="27" ry="18"/>
<text text-anchor="middle" x="710.0806" y="-593.1548" font-family="Times,serif" font-size="14.00" fill="#000000">p</text>
</g>
<!-- p&#45;&gt;cid -->
<g id="edge33" class="edge">
<title>p&#45;&gt;cid</title>
<path fill="none" stroke="#000000" stroke-dasharray="1,5" d="M708.741,-579.0631C706.1002,-543.0044 700.2062,-462.5245 697.0592,-419.5536"/>
<polygon fill="#000000" stroke="#000000" points="700.5431,-419.2044 696.3219,-409.4868 693.5617,-419.7157 700.5431,-419.2044"/>
</g>
<!-- page -->
<g id="node35" class="node">
<title>page</title>
<ellipse fill="none" stroke="#000000" cx="769.173" cy="-129.2453" rx="27" ry="18"/>
<text text-anchor="middle" x="769.173" y="-125.0453" font-family="Times,serif" font-size="14.00" fill="#000000">page</text>
</g>
<!-- page&#45;&gt;topList -->
<g id="edge38" class="edge">
<title>page&#45;&gt;topList</title>
<path fill="none" stroke="#000000" stroke-dasharray="1,5" d="M771.4053,-147.3043C772.2721,-158.3394 772.504,-172.6697 769.8178,-185.0823 767.9942,-193.5094 747.0773,-236.8122 732.7713,-265.8681"/>
<polygon fill="#000000" stroke="#000000" points="729.4997,-264.5886 728.2103,-275.1047 735.7762,-267.688 729.4997,-264.5886"/>
</g>
</g>
</svg>
