<?xml version="1.0" encoding="UTF-8" standalone="no"?>
<!DOCTYPE svg PUBLIC "-//W3C//DTD SVG 1.1//EN"
 "http://www.w3.org/Graphics/SVG/1.1/DTD/svg11.dtd">
<!-- Generated by graphviz version 2.43.0 (0)
 -->
<!-- Title: G Pages: 1 -->
<svg width="1402pt" height="1623pt"
 viewBox="0.00 0.00 1402.00 1623.00" xmlns="http://www.w3.org/2000/svg" xmlns:xlink="http://www.w3.org/1999/xlink">
<g id="graph0" class="graph" transform="scale(1 1) rotate(0) translate(4 1619)">
<title>G</title>
<polygon fill="white" stroke="transparent" points="-4,4 -4,-1619 1398,-1619 1398,4 -4,4"/>
<g id="clust1" class="cluster">
<title>cluster_api.bilibili.com</title>
<polygon fill="none" stroke="black" points="619.17,-870.88 619.17,-1266.88 1166.17,-1266.88 1166.17,-870.88 619.17,-870.88"/>
<text text-anchor="middle" x="892.67" y="-1251.68" font-family="Times,serif" font-size="14.00">api.bilibili.com</text>
</g>
<g id="clust2" class="cluster">
<title>cluster_api.live.bilibili.com</title>
<polygon fill="none" stroke="black" points="699.27,-581.58 699.27,-834.58 1063.27,-834.58 1063.27,-581.58 699.27,-581.58"/>
<text text-anchor="middle" x="881.27" y="-819.38" font-family="Times,serif" font-size="14.00">api.live.bilibili.com</text>
</g>
<g id="clust3" class="cluster">
<title>cluster_data</title>
<polygon fill="none" stroke="black" points="633.32,-0.05 633.32,-569.05 1394.32,-569.05 1394.32,-0.05 633.32,-0.05"/>
<text text-anchor="middle" x="1013.82" y="-553.85" font-family="Times,serif" font-size="14.00">data</text>
</g>
<g id="clust4" class="cluster">
<title>cluster_input</title>
<polygon fill="none" stroke="black" points="230.27,-574.12 230.27,-772.12 480.27,-772.12 480.27,-574.12 230.27,-574.12"/>
<text text-anchor="middle" x="355.27" y="-756.92" font-family="Times,serif" font-size="14.00">input</text>
</g>
<!-- stat -->
<g id="node1" class="node">
<title>stat</title>
<ellipse fill="none" stroke="black" cx="925.68" cy="-1218.45" rx="27" ry="18"/>
<text text-anchor="middle" x="925.68" y="-1214.25" font-family="Times,serif" font-size="14.00">stat</text>
</g>
<!-- follower -->
<g id="node19" class="node">
<title>follower</title>
<ellipse fill="none" stroke="black" cx="720.84" cy="-398.21" rx="40.13" ry="18"/>
<text text-anchor="middle" x="720.84" y="-394.01" font-family="Times,serif" font-size="14.00">follower</text>
</g>
<!-- stat&#45;&gt;follower -->
<g id="edge19" class="edge">
<title>stat&#45;&gt;follower</title>
<path fill="none" stroke="black" d="M917.27,-1201.2C898.01,-1161.07 850.37,-1057.88 824.05,-966.96 822.12,-960.29 746.36,-539.91 725.89,-426.26"/>
<polygon fill="black" stroke="black" points="729.3,-425.47 724.08,-416.25 722.41,-426.71 729.3,-425.47"/>
</g>
<!-- archiveStat -->
<g id="node2" class="node">
<title>archiveStat</title>
<ellipse fill="none" stroke="black" cx="760.78" cy="-1191.07" rx="49.77" ry="18"/>
<text text-anchor="middle" x="760.78" y="-1186.87" font-family="Times,serif" font-size="14.00">archiveStat</text>
</g>
<!-- bvid -->
<g id="node48" class="node">
<title>bvid</title>
<ellipse fill="none" stroke="black" cx="296.68" cy="-600.61" rx="27" ry="18"/>
<text text-anchor="middle" x="296.68" y="-596.41" font-family="Times,serif" font-size="14.00">bvid</text>
</g>
<!-- archiveStat&#45;&gt;bvid -->
<g id="edge53" class="edge">
<title>archiveStat&#45;&gt;bvid</title>
<path fill="none" stroke="black" d="M747.14,-1173.72C680.87,-1089.4 392.51,-722.52 315.6,-624.67"/>
<polygon fill="black" stroke="black" points="318.15,-622.26 309.22,-616.56 312.65,-626.58 318.15,-622.26"/>
</g>
<!-- upstat -->
<g id="node3" class="node">
<title>upstat</title>
<ellipse fill="none" stroke="black" cx="929.17" cy="-1145.47" rx="31.46" ry="18"/>
<text text-anchor="middle" x="929.17" y="-1141.27" font-family="Times,serif" font-size="14.00">upstat</text>
</g>
<!-- archiveView -->
<g id="node38" class="node">
<title>archiveView</title>
<ellipse fill="none" stroke="black" cx="860.28" cy="-146" rx="54.51" ry="18"/>
<text text-anchor="middle" x="860.28" y="-141.8" font-family="Times,serif" font-size="14.00">archiveView</text>
</g>
<!-- upstat&#45;&gt;archiveView -->
<g id="edge41" class="edge">
<title>upstat&#45;&gt;archiveView</title>
<path fill="none" stroke="black" d="M928.77,-1127.41C928.29,-1101.85 927.69,-1053.64 928.96,-1012.59 932.06,-912.13 938.67,-887.3 943.26,-786.89 950.48,-629.01 956.32,-589.44 953.24,-431.42 951.91,-363.39 963.87,-343.42 942.97,-278.67 929.79,-237.83 901.34,-196.82 881.52,-171.44"/>
<polygon fill="black" stroke="black" points="884.13,-169.1 875.16,-163.45 878.65,-173.46 884.13,-169.1"/>
</g>
<!-- articleView -->
<g id="node39" class="node">
<title>articleView</title>
<ellipse fill="none" stroke="black" cx="900.81" cy="-431.36" rx="50.65" ry="18"/>
<text text-anchor="middle" x="900.81" y="-427.16" font-family="Times,serif" font-size="14.00">articleView</text>
</g>
<!-- upstat&#45;&gt;articleView -->
<g id="edge42" class="edge">
<title>upstat&#45;&gt;articleView</title>
<path fill="none" stroke="black" d="M928.77,-1127.41C928.29,-1101.85 927.69,-1053.64 928.96,-1012.59 934.51,-832.65 959.47,-786.4 938.16,-607.63 931.86,-554.71 917.4,-494.16 908.44,-459.57"/>
<polygon fill="black" stroke="black" points="911.77,-458.49 905.84,-449.7 905,-460.27 911.77,-458.49"/>
</g>
<!-- navnum -->
<g id="node4" class="node">
<title>navnum</title>
<ellipse fill="none" stroke="black" cx="754.36" cy="-1094.59" rx="38.7" ry="18"/>
<text text-anchor="middle" x="754.36" y="-1090.39" font-family="Times,serif" font-size="14.00">navnum</text>
</g>
<!-- video -->
<g id="node23" class="node">
<title>video</title>
<ellipse fill="none" stroke="black" cx="1044.19" cy="-452.36" rx="29.51" ry="18"/>
<text text-anchor="middle" x="1044.19" y="-448.16" font-family="Times,serif" font-size="14.00">video</text>
</g>
<!-- navnum&#45;&gt;video -->
<g id="edge23" class="edge">
<title>navnum&#45;&gt;video</title>
<path fill="none" stroke="black" d="M760.06,-1076.72C771.28,-1041.87 797.35,-962.49 822.62,-896.94 841.81,-847.15 843.73,-833.11 869.74,-786.52 895.98,-739.5 917.03,-736.43 939.64,-687.57 975.47,-610.15 943.33,-574.68 987.46,-501.68 994.49,-490.05 1005.19,-479.71 1015.41,-471.55"/>
<polygon fill="black" stroke="black" points="1017.57,-474.31 1023.43,-465.49 1013.34,-468.73 1017.57,-474.31"/>
</g>
<!-- info -->
<g id="node5" class="node">
<title>info</title>
<ellipse fill="none" stroke="black" cx="884.06" cy="-1037.38" rx="27" ry="18"/>
<text text-anchor="middle" x="884.06" y="-1033.18" font-family="Times,serif" font-size="14.00">info</text>
</g>
<!-- uname -->
<g id="node20" class="node">
<title>uname</title>
<ellipse fill="none" stroke="black" cx="675.05" cy="-260.82" rx="33.86" ry="18"/>
<text text-anchor="middle" x="675.05" y="-256.62" font-family="Times,serif" font-size="14.00">uname</text>
</g>
<!-- info&#45;&gt;uname -->
<g id="edge20" class="edge">
<title>info&#45;&gt;uname</title>
<path fill="none" stroke="black" d="M887.8,-1019.27C890.34,-1005.13 893.16,-984.98 892.63,-967.19 891.69,-935.5 888.64,-927.47 879.82,-897.02 813.33,-667.43 728.03,-632.02 679.17,-398.05 671.43,-360.97 671.71,-317.05 673.04,-289.06"/>
<polygon fill="black" stroke="black" points="676.55,-288.99 673.61,-278.81 669.56,-288.61 676.55,-288.99"/>
</g>
<!-- sign -->
<g id="node21" class="node">
<title>sign</title>
<ellipse fill="none" stroke="black" cx="1359.21" cy="-216.87" rx="27" ry="18"/>
<text text-anchor="middle" x="1359.21" y="-212.67" font-family="Times,serif" font-size="14.00">sign</text>
</g>
<!-- info&#45;&gt;sign -->
<g id="edge21" class="edge">
<title>info&#45;&gt;sign</title>
<path fill="none" stroke="black" d="M892.98,-1020.34C935.52,-939.3 1123.06,-585.27 1297.04,-307.12 1311.26,-284.39 1328.67,-259.33 1341.44,-241.4"/>
<polygon fill="black" stroke="black" points="1344.33,-243.38 1347.3,-233.21 1338.64,-239.3 1344.33,-243.38"/>
</g>
<!-- coins -->
<g id="node22" class="node">
<title>coins</title>
<ellipse fill="none" stroke="black" cx="1146.53" cy="-469.13" rx="28.55" ry="18"/>
<text text-anchor="middle" x="1146.53" y="-464.93" font-family="Times,serif" font-size="14.00">coins</text>
</g>
<!-- info&#45;&gt;coins -->
<g id="edge22" class="edge">
<title>info&#45;&gt;coins</title>
<path fill="none" stroke="black" d="M892.31,-1020.18C917.44,-967.73 995.14,-805.05 1057.37,-669.21 1085.65,-607.48 1117.85,-534.54 1134.75,-496.04"/>
<polygon fill="black" stroke="black" points="1138.09,-497.15 1138.9,-486.58 1131.67,-494.34 1138.09,-497.15"/>
</g>
<!-- face -->
<g id="node40" class="node">
<title>face</title>
<ellipse fill="none" stroke="black" cx="1131.17" cy="-146.09" rx="27" ry="18"/>
<text text-anchor="middle" x="1131.17" y="-141.89" font-family="Times,serif" font-size="14.00">face</text>
</g>
<!-- info&#45;&gt;face -->
<g id="edge43" class="edge">
<title>info&#45;&gt;face</title>
<path fill="none" stroke="black" d="M893.72,-1020.3C922.48,-968.84 1008.57,-810.06 1057.37,-669.21 1078.95,-606.91 1127.93,-445.97 1124.17,-380.14 1120.84,-321.9 1077.57,-314.73 1080.23,-256.45 1081.67,-224.72 1099.03,-192.16 1113.08,-170.7"/>
<polygon fill="black" stroke="black" points="1116.12,-172.46 1118.85,-162.22 1110.33,-168.52 1116.12,-172.46"/>
</g>
<!-- topPhoto -->
<g id="node41" class="node">
<title>topPhoto</title>
<ellipse fill="none" stroke="black" cx="970.58" cy="-160.43" rx="42.1" ry="18"/>
<text text-anchor="middle" x="970.58" y="-156.23" font-family="Times,serif" font-size="14.00">topPhoto</text>
</g>
<!-- info&#45;&gt;topPhoto -->
<g id="edge44" class="edge">
<title>info&#45;&gt;topPhoto</title>
<path fill="none" stroke="black" d="M889.57,-1019.69C901.91,-979.06 931.64,-875.73 943.26,-786.89 963.76,-630.18 948.87,-589.41 953.24,-431.42 955.83,-337.52 948.71,-313.52 958.98,-220.15 960.13,-209.63 962.16,-198.2 964.2,-188.18"/>
<polygon fill="black" stroke="black" points="967.64,-188.85 966.3,-178.34 960.79,-187.4 967.64,-188.85"/>
</g>
<!-- view -->
<g id="node6" class="node">
<title>view</title>
<ellipse fill="none" stroke="black" cx="1113.82" cy="-1018.57" rx="27.1" ry="18"/>
<text text-anchor="middle" x="1113.82" y="-1014.37" font-family="Times,serif" font-size="14.00">view</text>
</g>
<!-- cids -->
<g id="node44" class="node">
<title>cids</title>
<ellipse fill="none" stroke="black" cx="1255.7" cy="-230.13" rx="27" ry="18"/>
<text text-anchor="middle" x="1255.7" y="-225.93" font-family="Times,serif" font-size="14.00">cids</text>
</g>
<!-- view&#45;&gt;cids -->
<g id="edge47" class="edge">
<title>view&#45;&gt;cids</title>
<path fill="none" stroke="black" d="M1121.55,-1001.06C1128.15,-985.6 1137.55,-962.31 1143.83,-941.37 1184.96,-804.24 1284.63,-454.62 1279.47,-311.54 1278.8,-292.83 1272.93,-272.62 1267.19,-257.02"/>
<polygon fill="black" stroke="black" points="1270.38,-255.55 1263.5,-247.49 1263.85,-258.08 1270.38,-255.55"/>
</g>
<!-- mid -->
<g id="node46" class="node">
<title>mid</title>
<ellipse fill="none" stroke="black" cx="320.77" cy="-723.69" rx="27" ry="18"/>
<text text-anchor="middle" x="320.77" y="-719.49" font-family="Times,serif" font-size="14.00">mid</text>
</g>
<!-- view&#45;&gt;mid -->
<g id="edge50" class="edge">
<title>view&#45;&gt;mid</title>
<path fill="none" stroke="black" stroke-dasharray="5,2" d="M1089.65,-1009.58C975.05,-966.97 486.38,-785.27 353.97,-736.03"/>
<polygon fill="black" stroke="black" points="354.96,-732.67 344.36,-732.46 352.52,-739.23 354.96,-732.67"/>
</g>
<!-- cid -->
<g id="node49" class="node">
<title>cid</title>
<ellipse fill="none" stroke="black" cx="445.69" cy="-720.57" rx="27" ry="18"/>
<text text-anchor="middle" x="445.69" y="-716.37" font-family="Times,serif" font-size="14.00">cid</text>
</g>
<!-- view&#45;&gt;cid -->
<g id="edge54" class="edge">
<title>view&#45;&gt;cid</title>
<path fill="none" stroke="black" d="M1089.29,-1010.11C1039.84,-992.86 924.89,-951.78 830.96,-910.81 696.33,-852.09 540.89,-771.16 476.29,-736.92"/>
<polygon fill="black" stroke="black" points="477.55,-733.63 467.07,-732.03 474.26,-739.81 477.55,-733.63"/>
</g>
<!-- list -->
<g id="node7" class="node">
<title>list</title>
<ellipse fill="none" stroke="black" cx="851.22" cy="-896.98" rx="27" ry="18"/>
<text text-anchor="middle" x="851.22" y="-892.78" font-family="Times,serif" font-size="14.00">list</text>
</g>
<!-- getSubmitVideos -->
<g id="node8" class="node">
<title>getSubmitVideos</title>
<ellipse fill="none" stroke="black" cx="697.83" cy="-998.16" rx="70.98" ry="18"/>
<text text-anchor="middle" x="697.83" y="-993.96" font-family="Times,serif" font-size="14.00">getSubmitVideos</text>
</g>
<!-- getSubmitVideosPage -->
<g id="node26" class="node">
<title>getSubmitVideosPage</title>
<ellipse fill="none" stroke="black" cx="853.19" cy="-278.6" rx="88.37" ry="18"/>
<text text-anchor="middle" x="853.19" y="-274.4" font-family="Times,serif" font-size="14.00">getSubmitVideosPage</text>
</g>
<!-- getSubmitVideos&#45;&gt;getSubmitVideosPage -->
<g id="edge26" class="edge">
<title>getSubmitVideos&#45;&gt;getSubmitVideosPage</title>
<path fill="none" stroke="black" d="M703.9,-980.06C718.52,-935.89 756.15,-818.84 778.61,-718.87 798.17,-631.82 795.98,-608.7 810.67,-520.7 824.44,-438.26 827.82,-417.63 842.59,-335.36 844.25,-326.07 846.13,-315.94 847.83,-306.84"/>
<polygon fill="black" stroke="black" points="851.32,-307.21 849.73,-296.74 844.44,-305.92 851.32,-307.21"/>
</g>
<!-- getAllSubmitVideos -->
<g id="node9" class="node">
<title>getAllSubmitVideos</title>
<ellipse fill="none" stroke="black" cx="1076.31" cy="-1167.71" rx="82.09" ry="18"/>
<text text-anchor="middle" x="1076.31" y="-1163.51" font-family="Times,serif" font-size="14.00">getAllSubmitVideos</text>
</g>
<!-- allVideos -->
<g id="node28" class="node">
<title>allVideos</title>
<ellipse fill="none" stroke="black" cx="887.66" cy="-335.48" rx="43.45" ry="18"/>
<text text-anchor="middle" x="887.66" y="-331.28" font-family="Times,serif" font-size="14.00">allVideos</text>
</g>
<!-- getAllSubmitVideos&#45;&gt;allVideos -->
<g id="edge28" class="edge">
<title>getAllSubmitVideos&#45;&gt;allVideos</title>
<path fill="none" stroke="black" d="M1081.44,-1149.56C1086.31,-1129.5 1091.99,-1096.35 1085.37,-1068.63 1069.84,-1003.62 1029.78,-1003.49 1005.46,-941.23 960.69,-826.65 966.32,-791.61 954.62,-669.15 944.57,-563.97 984.73,-532.28 953.24,-431.42 944.84,-404.53 926.1,-378.43 910.79,-360.26"/>
<polygon fill="black" stroke="black" points="913.25,-357.75 904.05,-352.5 907.96,-362.34 913.25,-357.75"/>
</g>
<!-- getFollowers -->
<g id="node10" class="node">
<title>getFollowers</title>
<ellipse fill="none" stroke="black" cx="986.84" cy="-1012.66" rx="56.07" ry="18"/>
<text text-anchor="middle" x="986.84" y="-1008.46" font-family="Times,serif" font-size="14.00">getFollowers</text>
</g>
<!-- getFollowersPage -->
<g id="node29" class="node">
<title>getFollowersPage</title>
<ellipse fill="none" stroke="black" cx="1049.1" cy="-380.07" rx="73.45" ry="18"/>
<text text-anchor="middle" x="1049.1" y="-375.87" font-family="Times,serif" font-size="14.00">getFollowersPage</text>
</g>
<!-- getFollowers&#45;&gt;getFollowersPage -->
<g id="edge29" class="edge">
<title>getFollowers&#45;&gt;getFollowersPage</title>
<path fill="none" stroke="black" d="M991.13,-994.53C1011.14,-909.53 1094.26,-552.68 1091.45,-501.77 1089.57,-467.8 1074.98,-431.25 1063.44,-407.17"/>
<polygon fill="black" stroke="black" points="1066.46,-405.37 1058.89,-397.96 1060.19,-408.48 1066.46,-405.37"/>
</g>
<!-- getAllFollowers -->
<g id="node11" class="node">
<title>getAllFollowers</title>
<ellipse fill="none" stroke="black" cx="1074.64" cy="-941.3" rx="67.67" ry="18"/>
<text text-anchor="middle" x="1074.64" y="-937.1" font-family="Times,serif" font-size="14.00">getAllFollowers</text>
</g>
<!-- allFollowers -->
<g id="node30" class="node">
<title>allFollowers</title>
<ellipse fill="none" stroke="black" cx="1018.72" cy="-319.37" rx="54.14" ry="18"/>
<text text-anchor="middle" x="1018.72" y="-315.17" font-family="Times,serif" font-size="14.00">allFollowers</text>
</g>
<!-- getAllFollowers&#45;&gt;allFollowers -->
<g id="edge30" class="edge">
<title>getAllFollowers&#45;&gt;allFollowers</title>
<path fill="none" stroke="black" d="M1075.54,-923.17C1077.28,-879.04 1079.21,-762.78 1057.37,-669.21 1039.02,-590.64 1007.63,-579.8 987.46,-501.68 973.86,-448.99 959.89,-432.54 974.02,-379.99 977.56,-366.84 985.62,-354.35 993.93,-344.17"/>
<polygon fill="black" stroke="black" points="996.65,-346.37 1000.57,-336.52 991.37,-341.78 996.65,-346.37"/>
</g>
<!-- search -->
<g id="node12" class="node">
<title>search</title>
<ellipse fill="none" stroke="black" cx="858.34" cy="-967.07" rx="32.88" ry="18"/>
<text text-anchor="middle" x="858.34" y="-962.87" font-family="Times,serif" font-size="14.00">search</text>
</g>
<!-- search&#45;&gt;mid -->
<g id="edge51" class="edge">
<title>search&#45;&gt;mid</title>
<path fill="none" stroke="black" stroke-dasharray="5,2" d="M832.77,-955.5C744.11,-915.36 449.98,-782.19 352.48,-738.04"/>
<polygon fill="black" stroke="black" points="353.7,-734.75 343.15,-733.82 350.81,-741.13 353.7,-734.75"/>
</g>
<!-- _notice -->
<g id="node13" class="node">
<title>_notice</title>
<ellipse fill="none" stroke="black" cx="1047.63" cy="-1068.6" rx="36.27" ry="18"/>
<text text-anchor="middle" x="1047.63" y="-1064.4" font-family="Times,serif" font-size="14.00">_notice</text>
</g>
<!-- notice -->
<g id="node37" class="node">
<title>notice</title>
<ellipse fill="none" stroke="black" cx="1104.48" cy="-88.58" rx="31.93" ry="18"/>
<text text-anchor="middle" x="1104.48" y="-84.38" font-family="Times,serif" font-size="14.00">notice</text>
</g>
<!-- _notice&#45;&gt;notice -->
<g id="edge40" class="edge">
<title>_notice&#45;&gt;notice</title>
<path fill="none" stroke="black" d="M1048.72,-1050.4C1048.89,-1039.32 1048.2,-1024.97 1044.72,-1012.74 1034.81,-977.86 1010.76,-977.1 1005.46,-941.23 986.81,-815.16 1132.63,-507.31 1124.17,-380.14 1120.3,-321.93 1085.99,-314.51 1080.23,-256.45 1075.32,-207.01 1087.42,-149.81 1096.24,-116.56"/>
<polygon fill="black" stroke="black" points="1099.68,-117.22 1098.96,-106.65 1092.93,-115.37 1099.68,-117.22"/>
</g>
<!-- getRoomInfoOld -->
<g id="node14" class="node">
<title>getRoomInfoOld</title>
<ellipse fill="none" stroke="black" cx="867.51" cy="-687.55" rx="70.56" ry="18"/>
<text text-anchor="middle" x="867.51" y="-683.35" font-family="Times,serif" font-size="14.00">getRoomInfoOld</text>
</g>
<!-- roomStatus -->
<g id="node32" class="node">
<title>roomStatus</title>
<ellipse fill="none" stroke="black" cx="1039.45" cy="-501.72" rx="50.29" ry="18"/>
<text text-anchor="middle" x="1039.45" y="-497.52" font-family="Times,serif" font-size="14.00">roomStatus</text>
</g>
<!-- getRoomInfoOld&#45;&gt;roomStatus -->
<g id="edge32" class="edge">
<title>getRoomInfoOld&#45;&gt;roomStatus</title>
<path fill="none" stroke="black" d="M884,-669.74C914.84,-636.41 981.31,-564.57 1016.51,-526.53"/>
<polygon fill="black" stroke="black" points="1019.29,-528.66 1023.52,-518.95 1014.16,-523.91 1019.29,-528.66"/>
</g>
<!-- roundStatus -->
<g id="node33" class="node">
<title>roundStatus</title>
<ellipse fill="none" stroke="black" cx="1012.93" cy="-220.34" rx="52.22" ry="18"/>
<text text-anchor="middle" x="1012.93" y="-216.14" font-family="Times,serif" font-size="14.00">roundStatus</text>
</g>
<!-- getRoomInfoOld&#45;&gt;roundStatus -->
<g id="edge34" class="edge">
<title>getRoomInfoOld&#45;&gt;roundStatus</title>
<path fill="none" stroke="black" d="M888.86,-670.34C905.44,-655.6 927.37,-632.83 938.16,-607.63 963.49,-548.5 945.2,-381.07 962.8,-319.19 970.18,-293.26 984.49,-266.11 995.94,-246.84"/>
<polygon fill="black" stroke="black" points="999.08,-248.41 1001.29,-238.05 993.1,-244.77 999.08,-248.41"/>
</g>
<!-- liveStatus -->
<g id="node34" class="node">
<title>liveStatus</title>
<ellipse fill="none" stroke="black" cx="857.26" cy="-520.7" rx="44.98" ry="18"/>
<text text-anchor="middle" x="857.26" y="-516.5" font-family="Times,serif" font-size="14.00">liveStatus</text>
</g>
<!-- getRoomInfoOld&#45;&gt;liveStatus -->
<g id="edge36" class="edge">
<title>getRoomInfoOld&#45;&gt;liveStatus</title>
<path fill="none" stroke="black" d="M841.6,-670.58C823.15,-656.29 801.34,-633.95 799.8,-607.4 798.38,-583.08 814.42,-560.31 829.91,-544.22"/>
<polygon fill="black" stroke="black" points="832.7,-546.38 837.39,-536.88 827.8,-541.38 832.7,-546.38"/>
</g>
<!-- title -->
<g id="node35" class="node">
<title>title</title>
<ellipse fill="none" stroke="black" cx="1290.95" cy="-486.92" rx="27" ry="18"/>
<text text-anchor="middle" x="1290.95" y="-482.72" font-family="Times,serif" font-size="14.00">title</text>
</g>
<!-- getRoomInfoOld&#45;&gt;title -->
<g id="edge37" class="edge">
<title>getRoomInfoOld&#45;&gt;title</title>
<path fill="none" stroke="black" d="M901.09,-671.64C981,-633.78 1181.59,-538.73 1259.41,-501.86"/>
<polygon fill="black" stroke="black" points="1261.16,-504.91 1268.7,-497.46 1258.16,-498.58 1261.16,-504.91"/>
</g>
<!-- online -->
<g id="node36" class="node">
<title>online</title>
<ellipse fill="none" stroke="black" cx="965.79" cy="-90.67" rx="32.42" ry="18"/>
<text text-anchor="middle" x="965.79" y="-86.47" font-family="Times,serif" font-size="14.00">online</text>
</g>
<!-- getRoomInfoOld&#45;&gt;online -->
<g id="edge39" class="edge">
<title>getRoomInfoOld&#45;&gt;online</title>
<path fill="none" stroke="black" d="M888.86,-670.34C905.44,-655.6 927.37,-632.83 938.16,-607.63 995.73,-473.22 957.7,-424.15 942.97,-278.67 937.63,-225.87 917.07,-212.49 926.93,-160.35 929.96,-144.36 938.39,-128.37 946.63,-115.75"/>
<polygon fill="black" stroke="black" points="949.73,-117.43 952.51,-107.21 943.96,-113.46 949.73,-117.43"/>
</g>
<!-- roomid -->
<g id="node50" class="node">
<title>roomid</title>
<ellipse fill="none" stroke="black" cx="428.74" cy="-629.89" rx="35.81" ry="18"/>
<text text-anchor="middle" x="428.74" y="-625.69" font-family="Times,serif" font-size="14.00">roomid</text>
</g>
<!-- getRoomInfoOld&#45;&gt;roomid -->
<g id="edge56" class="edge">
<title>getRoomInfoOld&#45;&gt;roomid</title>
<path fill="none" stroke="black" d="M804.64,-679.29C714.84,-667.49 552.02,-646.09 473.49,-635.77"/>
<polygon fill="black" stroke="black" points="473.8,-632.28 463.43,-634.45 472.89,-639.22 473.8,-632.28"/>
</g>
<!-- topList -->
<g id="node15" class="node">
<title>topList</title>
<ellipse fill="none" stroke="black" cx="906.5" cy="-786.7" rx="35.33" ry="18"/>
<text text-anchor="middle" x="906.5" y="-782.5" font-family="Times,serif" font-size="14.00">topList</text>
</g>
<!-- guardNum -->
<g id="node24" class="node">
<title>guardNum</title>
<ellipse fill="none" stroke="black" cx="1069.58" cy="-25.63" rx="47.86" ry="18"/>
<text text-anchor="middle" x="1069.58" y="-21.43" font-family="Times,serif" font-size="14.00">guardNum</text>
</g>
<!-- topList&#45;&gt;guardNum -->
<g id="edge24" class="edge">
<title>topList&#45;&gt;guardNum</title>
<path fill="none" stroke="black" d="M914.11,-768.82C922.04,-749.27 934.08,-716.81 939.64,-687.57 960.93,-575.57 948.67,-545.33 953.24,-431.42 957,-337.56 923.51,-307.13 958.98,-220.15 972.62,-186.69 994.78,-190.97 1014.23,-160.52 1036.19,-126.13 1052.44,-81.56 1061.47,-53.27"/>
<polygon fill="black" stroke="black" points="1064.84,-54.22 1064.46,-43.64 1058.15,-52.15 1064.84,-54.22"/>
</g>
<!-- topListPage -->
<g id="node25" class="node">
<title>topListPage</title>
<ellipse fill="none" stroke="black" cx="1134.18" cy="-256.64" rx="52.21" ry="18"/>
<text text-anchor="middle" x="1134.18" y="-252.44" font-family="Times,serif" font-size="14.00">topListPage</text>
</g>
<!-- topList&#45;&gt;topListPage -->
<g id="edge25" class="edge">
<title>topList&#45;&gt;topListPage</title>
<path fill="none" stroke="black" d="M911.98,-768.8C919.64,-745.07 934.88,-702.31 954.62,-669.15 1003.77,-586.59 1047.59,-587.26 1091.45,-501.77 1117,-451.96 1114.6,-435.3 1124.17,-380.14 1129.78,-347.83 1132.26,-310.21 1133.34,-285.05"/>
<polygon fill="black" stroke="black" points="1136.85,-284.89 1133.74,-274.76 1129.86,-284.62 1136.85,-284.89"/>
</g>
<!-- fullTopList -->
<g id="node16" class="node">
<title>fullTopList</title>
<ellipse fill="none" stroke="black" cx="1006" cy="-669.18" rx="49.55" ry="18"/>
<text text-anchor="middle" x="1006" y="-664.98" font-family="Times,serif" font-size="14.00">fullTopList</text>
</g>
<!-- guards -->
<g id="node27" class="node">
<title>guards</title>
<ellipse fill="none" stroke="black" cx="1332.32" cy="-307.3" rx="33.87" ry="18"/>
<text text-anchor="middle" x="1332.32" y="-303.1" font-family="Times,serif" font-size="14.00">guards</text>
</g>
<!-- fullTopList&#45;&gt;guards -->
<g id="edge27" class="edge">
<title>fullTopList&#45;&gt;guards</title>
<path fill="none" stroke="black" d="M1021.73,-651.73C1075.08,-592.57 1249.09,-399.6 1310.57,-331.42"/>
<polygon fill="black" stroke="black" points="1313.39,-333.51 1317.49,-323.74 1308.19,-328.83 1313.39,-333.51"/>
</g>
<!-- getInfoByRoom -->
<g id="node17" class="node">
<title>getInfoByRoom</title>
<ellipse fill="none" stroke="black" cx="868.98" cy="-607.52" rx="67.67" ry="18"/>
<text text-anchor="middle" x="868.98" y="-603.32" font-family="Times,serif" font-size="14.00">getInfoByRoom</text>
</g>
<!-- anchorScore -->
<g id="node42" class="node">
<title>anchorScore</title>
<ellipse fill="none" stroke="black" cx="1280.93" cy="-134.97" rx="54.11" ry="18"/>
<text text-anchor="middle" x="1280.93" y="-130.77" font-family="Times,serif" font-size="14.00">anchorScore</text>
</g>
<!-- getInfoByRoom&#45;&gt;anchorScore -->
<g id="edge45" class="edge">
<title>getInfoByRoom&#45;&gt;anchorScore</title>
<path fill="none" stroke="black" d="M881.93,-589.72C906.48,-556.84 962.68,-485.66 1022.02,-438.5 1062.96,-405.97 1088.79,-418.64 1124.17,-380.14 1147.44,-354.83 1141.8,-340.8 1159.42,-311.28 1192.49,-255.91 1236.54,-194.61 1261.5,-160.85"/>
<polygon fill="black" stroke="black" points="1264.56,-162.6 1267.72,-152.48 1258.94,-158.42 1264.56,-162.6"/>
</g>
<!-- liveStartTime -->
<g id="node45" class="node">
<title>liveStartTime</title>
<ellipse fill="none" stroke="black" cx="1219.45" cy="-311.41" rx="58.35" ry="18"/>
<text text-anchor="middle" x="1219.45" y="-307.21" font-family="Times,serif" font-size="14.00">liveStartTime</text>
</g>
<!-- getInfoByRoom&#45;&gt;liveStartTime -->
<g id="edge48" class="edge">
<title>getInfoByRoom&#45;&gt;liveStartTime</title>
<path fill="none" stroke="black" d="M881.93,-589.72C906.48,-556.84 962.68,-485.66 1022.02,-438.5 1053.86,-413.19 1066.94,-414.64 1101.97,-393.98 1111.99,-388.07 1114.52,-386.62 1124.17,-380.14 1146.2,-365.36 1170.44,-347.85 1188.96,-334.21"/>
<polygon fill="black" stroke="black" points="1191.08,-336.99 1197.04,-328.23 1186.92,-331.37 1191.08,-336.99"/>
</g>
<!-- getInfoByRoom&#45;&gt;mid -->
<g id="edge49" class="edge">
<title>getInfoByRoom&#45;&gt;mid</title>
<path fill="none" stroke="black" stroke-dasharray="5,2" d="M815.92,-618.76C704.94,-642.28 450.8,-696.13 356.69,-716.08"/>
<polygon fill="black" stroke="black" points="355.85,-712.68 346.8,-718.17 357.31,-719.52 355.85,-712.68"/>
</g>
<!-- rankdb -->
<g id="node18" class="node">
<title>rankdb</title>
<ellipse fill="none" stroke="black" cx="742.35" cy="-718.82" rx="34.83" ry="18"/>
<text text-anchor="middle" x="742.35" y="-714.62" font-family="Times,serif" font-size="14.00">rankdb</text>
</g>
<!-- areaRank -->
<g id="node43" class="node">
<title>areaRank</title>
<ellipse fill="none" stroke="black" cx="1326.69" cy="-374.17" rx="43.49" ry="18"/>
<text text-anchor="middle" x="1326.69" y="-369.97" font-family="Times,serif" font-size="14.00">areaRank</text>
</g>
<!-- rankdb&#45;&gt;areaRank -->
<g id="edge46" class="edge">
<title>rankdb&#45;&gt;areaRank</title>
<path fill="none" stroke="black" d="M764.51,-704.79C779.13,-695.66 798.79,-683.65 816.54,-673.69 860.63,-648.92 873.02,-645.3 917.61,-621.46 1029.74,-561.5 1059.77,-549.82 1167.96,-483.02 1213.96,-454.62 1265.21,-418.64 1296.71,-396.01"/>
<polygon fill="black" stroke="black" points="1298.98,-398.68 1305.05,-390 1294.89,-393.01 1298.98,-398.68"/>
</g>
<!-- uname&#45;&gt;search -->
<g id="edge17" class="edge">
<title>uname&#45;&gt;search</title>
<path fill="none" stroke="black" d="M674.04,-279.17C672.93,-305.64 672.15,-355.96 679.17,-398.05 703.73,-545.29 738.59,-575.05 778.61,-718.87 800.47,-797.41 794.15,-820.55 822.62,-896.94 828.22,-911.98 836.21,-927.99 843.21,-940.91"/>
<polygon fill="black" stroke="black" points="840.17,-942.66 848.08,-949.71 846.3,-939.27 840.17,-942.66"/>
</g>
<!-- topListPage&#45;&gt;fullTopList -->
<g id="edge63" class="edge">
<title>topListPage&#45;&gt;fullTopList</title>
<path fill="none" stroke="black" d="M1133.74,-274.76C1132.92,-298.96 1130.61,-343.05 1124.17,-380.14 1114.6,-435.3 1111.55,-449.53 1091.45,-501.77 1071.61,-553.32 1040.64,-609.9 1021.94,-642.32"/>
<polygon fill="black" stroke="black" points="1018.78,-640.78 1016.78,-651.18 1024.83,-644.3 1018.78,-640.78"/>
</g>
<!-- getSubmitVideosPage&#45;&gt;getAllSubmitVideos -->
<g id="edge10" class="edge">
<title>getSubmitVideosPage&#45;&gt;getAllSubmitVideos</title>
<path fill="none" stroke="black" d="M848.75,-297.01C842.55,-326.26 833.6,-384.79 848.38,-431.3 862.55,-475.87 882.86,-478.92 903.85,-520.71 990.18,-692.52 934.2,-762.64 1005.46,-941.23 1030.23,-1003.31 1069.84,-1003.62 1085.37,-1068.63 1090.98,-1092.13 1087.76,-1119.52 1083.68,-1139.55"/>
<polygon fill="black" stroke="black" points="1080.21,-1139.04 1081.44,-1149.56 1087.04,-1140.56 1080.21,-1139.04"/>
</g>
<!-- guardLevel -->
<g id="node31" class="node">
<title>guardLevel</title>
<ellipse fill="none" stroke="black" cx="1279.37" cy="-74.6" rx="50.25" ry="18"/>
<text text-anchor="middle" x="1279.37" y="-70.4" font-family="Times,serif" font-size="14.00">guardLevel</text>
</g>
<!-- guards&#45;&gt;guardLevel -->
<g id="edge31" class="edge">
<title>guards&#45;&gt;guardLevel</title>
<path fill="none" stroke="black" d="M1331.48,-289.26C1330.74,-270.98 1329.89,-241.89 1330.61,-216.75 1331.65,-180.36 1349.04,-169.37 1336.83,-135.07 1331.67,-120.58 1320.9,-107.7 1310.06,-97.6"/>
<polygon fill="black" stroke="black" points="1312.07,-94.7 1302.24,-90.74 1307.46,-99.97 1312.07,-94.7"/>
</g>
<!-- getFollowersPage&#45;&gt;getAllFollowers -->
<g id="edge15" class="edge">
<title>getFollowersPage&#45;&gt;getAllFollowers</title>
<path fill="none" stroke="black" d="M1057.9,-398.06C1068.69,-421.33 1086.18,-463.43 1091.45,-501.77 1112.62,-655.8 1089.48,-842.85 1079.13,-912.96"/>
<polygon fill="black" stroke="black" points="1075.62,-912.78 1077.58,-923.19 1082.54,-913.82 1075.62,-912.78"/>
</g>
<!-- roomStatus&#45;&gt;roundStatus -->
<g id="edge33" class="edge">
<title>roomStatus&#45;&gt;roundStatus</title>
<path fill="none" stroke="black" d="M1024.93,-484.47C1000.21,-453.06 953.47,-383.82 962.8,-319.19 966.65,-292.55 981.25,-265.52 993.71,-246.47"/>
<polygon fill="black" stroke="black" points="996.71,-248.29 999.42,-238.05 990.91,-244.36 996.71,-248.29"/>
</g>
<!-- roomStatus&#45;&gt;liveStatus -->
<g id="edge35" class="edge">
<title>roomStatus&#45;&gt;liveStatus</title>
<path fill="none" stroke="black" d="M990.63,-506.81C966.08,-509.37 936.27,-512.47 911.06,-515.1"/>
<polygon fill="black" stroke="black" points="910.51,-511.64 900.93,-516.16 911.24,-518.6 910.51,-511.64"/>
</g>
<!-- liveStatus&#45;&gt;online -->
<g id="edge38" class="edge">
<title>liveStatus&#45;&gt;online</title>
<path fill="none" stroke="black" d="M851.32,-502.78C846.18,-484.4 840.68,-455.2 848.38,-431.3 865.77,-377.34 908.06,-386.64 932.73,-335.59 966.64,-265.43 912.45,-236.92 926.93,-160.35 929.96,-144.36 938.39,-128.37 946.63,-115.75"/>
<polygon fill="black" stroke="black" points="949.73,-117.43 952.51,-107.21 943.96,-113.46 949.73,-117.43"/>
</g>
<!-- mid&#45;&gt;stat -->
<g id="edge1" class="edge">
<title>mid&#45;&gt;stat</title>
<path fill="none" stroke="black" d="M334.35,-739.49C376.11,-787.2 508.2,-931.43 645.99,-1011.89 704.81,-1046.23 727.31,-1041.39 782.88,-1080.78 831.16,-1115 878.97,-1165.31 905.18,-1194.7"/>
<polygon fill="black" stroke="black" points="902.74,-1197.22 911.99,-1202.4 907.99,-1192.58 902.74,-1197.22"/>
</g>
<!-- mid&#45;&gt;upstat -->
<g id="edge3" class="edge">
<title>mid&#45;&gt;upstat</title>
<path fill="none" stroke="black" d="M342.57,-734.58C409.76,-768.65 618.3,-878.08 770.42,-998.36 821.77,-1038.96 876.76,-1092.44 906.65,-1122.46"/>
<polygon fill="black" stroke="black" points="904.16,-1124.93 913.69,-1129.57 909.13,-1120 904.16,-1124.93"/>
</g>
<!-- mid&#45;&gt;navnum -->
<g id="edge4" class="edge">
<title>mid&#45;&gt;navnum</title>
<path fill="none" stroke="black" d="M336.17,-738.48C380.12,-780.49 510.36,-903.57 625.24,-997.97 658.42,-1025.24 698.2,-1054.52 724.75,-1073.61"/>
<polygon fill="black" stroke="black" points="722.72,-1076.46 732.88,-1079.43 726.79,-1070.77 722.72,-1076.46"/>
</g>
<!-- mid&#45;&gt;info -->
<g id="edge5" class="edge">
<title>mid&#45;&gt;info</title>
<path fill="none" stroke="black" d="M341.83,-735.41C427.93,-783.36 753.45,-964.64 854.17,-1020.73"/>
<polygon fill="black" stroke="black" points="852.76,-1023.95 863.2,-1025.76 856.17,-1017.84 852.76,-1023.95"/>
</g>
<!-- mid&#45;&gt;getSubmitVideos -->
<g id="edge8" class="edge">
<title>mid&#45;&gt;getSubmitVideos</title>
<path fill="none" stroke="black" d="M339.21,-737.11C399.29,-780.85 589.89,-919.59 665.99,-974.99"/>
<polygon fill="black" stroke="black" points="664.12,-977.96 674.27,-981.01 668.24,-972.3 664.12,-977.96"/>
</g>
<!-- mid&#45;&gt;getAllSubmitVideos -->
<g id="edge11" class="edge">
<title>mid&#45;&gt;getAllSubmitVideos</title>
<path fill="none" stroke="black" d="M340.78,-735.91C425.8,-787.8 757.58,-990.08 863.73,-1051.16 923.04,-1085.28 992.75,-1123.07 1035.73,-1146.11"/>
<polygon fill="black" stroke="black" points="1034.28,-1149.3 1044.75,-1150.93 1037.58,-1143.13 1034.28,-1149.3"/>
</g>
<!-- mid&#45;&gt;getFollowers -->
<g id="edge12" class="edge">
<title>mid&#45;&gt;getFollowers</title>
<path fill="none" stroke="black" d="M344.81,-732.23C423.5,-760.45 679.94,-854.57 882.73,-953.29 906.41,-964.83 932.14,-979.47 952.09,-991.33"/>
<polygon fill="black" stroke="black" points="950.44,-994.43 960.82,-996.57 954.04,-988.42 950.44,-994.43"/>
</g>
<!-- mid&#45;&gt;getAllFollowers -->
<g id="edge14" class="edge">
<title>mid&#45;&gt;getAllFollowers</title>
<path fill="none" stroke="black" d="M345.85,-730.93C452.12,-761.6 866.71,-881.28 1018.53,-925.1"/>
<polygon fill="black" stroke="black" points="1018,-928.59 1028.58,-928 1019.94,-921.87 1018,-928.59"/>
</g>
<!-- mid&#45;&gt;_notice -->
<g id="edge18" class="edge">
<title>mid&#45;&gt;_notice</title>
<path fill="none" stroke="black" d="M342.01,-735.05C411.66,-772.16 639.85,-892.51 833.95,-980.85 894.4,-1008.36 966.06,-1037 1009.13,-1053.79"/>
<polygon fill="black" stroke="black" points="1008.07,-1057.14 1018.65,-1057.5 1010.6,-1050.61 1008.07,-1057.14"/>
</g>
<!-- mid&#45;&gt;getRoomInfoOld -->
<g id="edge57" class="edge">
<title>mid&#45;&gt;getRoomInfoOld</title>
<path fill="none" stroke="black" d="M346.47,-717.87C371.63,-712.44 411.12,-704.65 445.78,-700.97 563.9,-688.43 701.59,-686.4 786.67,-686.59"/>
<polygon fill="black" stroke="black" points="786.76,-690.09 796.78,-686.62 786.79,-683.09 786.76,-690.09"/>
</g>
<!-- mid&#45;&gt;topList -->
<g id="edge59" class="edge">
<title>mid&#45;&gt;topList</title>
<path fill="none" stroke="black" d="M347.53,-727.46C372.78,-730.97 411.72,-736.23 445.6,-740.17 598.05,-757.93 779.33,-775.07 861.75,-782.64"/>
<polygon fill="black" stroke="black" points="861.49,-786.14 871.77,-783.56 862.13,-779.17 861.49,-786.14"/>
</g>
<!-- mid&#45;&gt;fullTopList -->
<g id="edge62" class="edge">
<title>mid&#45;&gt;fullTopList</title>
<path fill="none" stroke="black" d="M346.51,-718.22C371.7,-713.06 411.22,-705.46 445.78,-700.97 632.25,-676.8 679.64,-674.47 867.56,-667.95 893.3,-667.06 921.76,-667.13 946.14,-667.52"/>
<polygon fill="black" stroke="black" points="946.26,-671.02 956.32,-667.7 946.39,-664.02 946.26,-671.02"/>
</g>
<!-- mid&#45;&gt;rankdb -->
<g id="edge65" class="edge">
<title>mid&#45;&gt;rankdb</title>
<path fill="none" stroke="black" d="M346.95,-728.72C372.12,-733.18 411.29,-739.15 445.6,-740.17 535.51,-742.85 640.43,-732 698.33,-724.8"/>
<polygon fill="black" stroke="black" points="699.09,-728.23 708.57,-723.5 698.21,-721.28 699.09,-728.23"/>
</g>
<!-- aid -->
<g id="node47" class="node">
<title>aid</title>
<ellipse fill="none" stroke="black" cx="265.51" cy="-657.65" rx="27" ry="18"/>
<text text-anchor="middle" x="265.51" y="-653.45" font-family="Times,serif" font-size="14.00">aid</text>
</g>
<!-- aid&#45;&gt;archiveStat -->
<g id="edge2" class="edge">
<title>aid&#45;&gt;archiveStat</title>
<path fill="none" stroke="black" d="M285.77,-669.71C301.61,-679.58 323.76,-694.4 341.14,-709.93 514.68,-864.98 685.84,-1089.35 741.79,-1165.03"/>
<polygon fill="black" stroke="black" points="739.28,-1167.53 748.03,-1173.51 744.92,-1163.38 739.28,-1167.53"/>
</g>
<!-- aid&#45;&gt;aid -->
<g id="edge52" class="edge">
<title>aid&#45;&gt;aid</title>
<path fill="none" stroke="black" d="M290.95,-664.34C301.54,-664.8 310.51,-662.57 310.51,-657.65 310.51,-654.42 306.65,-652.35 301,-651.44"/>
<polygon fill="black" stroke="black" points="301.11,-647.94 290.95,-650.96 300.78,-654.93 301.11,-647.94"/>
</g>
<!-- bvid&#45;&gt;view -->
<g id="edge6" class="edge">
<title>bvid&#45;&gt;view</title>
<path fill="none" stroke="black" d="M318.82,-610.97C395.81,-647.13 658.8,-771.55 871.48,-883.15 949.34,-924 1039.3,-975.4 1084.57,-1001.57"/>
<polygon fill="black" stroke="black" points="1082.87,-1004.62 1093.28,-1006.6 1086.37,-998.57 1082.87,-1004.62"/>
</g>
<!-- cid&#45;&gt;list -->
<g id="edge7" class="edge">
<title>cid&#45;&gt;list</title>
<path fill="none" stroke="black" d="M468.36,-730.44C536.5,-760.08 739.65,-848.45 818.98,-882.95"/>
<polygon fill="black" stroke="black" points="817.89,-886.3 828.46,-887.08 820.68,-879.88 817.89,-886.3"/>
</g>
<!-- roomid&#45;&gt;topList -->
<g id="edge58" class="edge">
<title>roomid&#45;&gt;topList</title>
<path fill="none" stroke="black" d="M457.54,-640.88C509.13,-660.4 620.88,-701.96 716.65,-732.65 767.43,-748.92 826.62,-765.38 865.23,-775.79"/>
<polygon fill="black" stroke="black" points="864.5,-779.22 875.07,-778.43 866.32,-772.46 864.5,-779.22"/>
</g>
<!-- roomid&#45;&gt;fullTopList -->
<g id="edge61" class="edge">
<title>roomid&#45;&gt;fullTopList</title>
<path fill="none" stroke="black" d="M464.41,-632.32C560.79,-638.88 827.15,-657.01 946.64,-665.14"/>
<polygon fill="black" stroke="black" points="946.49,-668.64 956.7,-665.83 946.96,-661.66 946.49,-668.64"/>
</g>
<!-- roomid&#45;&gt;getInfoByRoom -->
<g id="edge64" class="edge">
<title>roomid&#45;&gt;getInfoByRoom</title>
<path fill="none" stroke="black" d="M464.39,-628.08C535.4,-624.47 695.88,-616.32 792.02,-611.43"/>
<polygon fill="black" stroke="black" points="792.46,-614.91 802.27,-610.91 792.1,-607.92 792.46,-614.91"/>
</g>
<!-- page -->
<g id="node51" class="node">
<title>page</title>
<ellipse fill="none" stroke="black" cx="1276.91" cy="-755.37" rx="27" ry="18"/>
<text text-anchor="middle" x="1276.91" y="-751.17" font-family="Times,serif" font-size="14.00">page</text>
</g>
<!-- page&#45;&gt;getSubmitVideos -->
<g id="edge9" class="edge">
<title>page&#45;&gt;getSubmitVideos</title>
<path fill="none" stroke="black" stroke-dasharray="1,5" d="M1253.85,-765.03C1167.4,-801.28 861.53,-929.53 744.16,-978.74"/>
<polygon fill="black" stroke="black" points="742.58,-975.6 734.71,-982.7 745.29,-982.06 742.58,-975.6"/>
</g>
<!-- page&#45;&gt;getFollowers -->
<g id="edge13" class="edge">
<title>page&#45;&gt;getFollowers</title>
<path fill="none" stroke="black" stroke-dasharray="1,5" d="M1267.59,-772.28C1247.96,-806.88 1199.56,-887.05 1143.83,-941.37 1115.24,-969.23 1073.85,-987.41 1040.74,-998.43"/>
<polygon fill="black" stroke="black" points="1039.65,-995.11 1031.2,-1001.49 1041.79,-1001.77 1039.65,-995.11"/>
</g>
<!-- page&#45;&gt;topList -->
<g id="edge60" class="edge">
<title>page&#45;&gt;topList</title>
<path fill="none" stroke="black" stroke-dasharray="1,5" d="M1249.97,-757.64C1186.88,-762.98 1029,-776.34 951.23,-782.92"/>
<polygon fill="black" stroke="black" points="950.92,-779.43 941.25,-783.76 951.51,-786.41 950.92,-779.43"/>
</g>
<!-- SESSDATA -->
<g id="node52" class="node">
<title>SESSDATA</title>
<ellipse fill="none" stroke="black" cx="983.99" cy="-1597.01" rx="53.28" ry="18"/>
<text text-anchor="middle" x="983.99" y="-1592.81" font-family="Times,serif" font-size="14.00">SESSDATA</text>
</g>
<!-- SESSDATA&#45;&gt;getAllFollowers -->
<g id="edge16" class="edge">
<title>SESSDATA&#45;&gt;getAllFollowers</title>
<path fill="none" stroke="black" stroke-dasharray="1,5" d="M980.94,-1578.85C970.11,-1509.59 937.87,-1256.39 1009.9,-1068.57 1020.37,-1041.27 1031.29,-1038.72 1044.72,-1012.74 1052.01,-998.65 1058.93,-982.38 1064.28,-968.93"/>
<polygon fill="black" stroke="black" points="1067.67,-969.87 1068.04,-959.28 1061.15,-967.32 1067.67,-969.87"/>
</g>
<!-- p -->
<g id="node53" class="node">
<title>p</title>
<ellipse fill="none" stroke="black" cx="26.97" cy="-554.5" rx="27" ry="18"/>
<text text-anchor="middle" x="26.97" y="-550.3" font-family="Times,serif" font-size="14.00">p</text>
</g>
<!-- p&#45;&gt;cid -->
<g id="edge55" class="edge">
<title>p&#45;&gt;cid</title>
<path fill="none" stroke="black" stroke-dasharray="1,5" d="M51.59,-561.97C98.02,-576.26 201.44,-609.19 285.89,-643.9 331.8,-662.77 383.3,-688.3 415.12,-704.61"/>
<polygon fill="black" stroke="black" points="413.84,-707.89 424.33,-709.36 417.05,-701.67 413.84,-707.89"/>
</g>
</g>
</svg>
