<?xml version="1.0" encoding="UTF-8" standalone="no"?>
<!DOCTYPE svg PUBLIC "-//W3C//DTD SVG 1.1//EN"
 "http://www.w3.org/Graphics/SVG/1.1/DTD/svg11.dtd">
<!-- Generated by graphviz version 2.40.1 (20161225.0304)
 -->
<!-- Title: G Pages: 1 -->
<svg width="1205pt" height="1207pt"
 viewBox="0.00 0.00 1205.00 1207.00" xmlns="http://www.w3.org/2000/svg" xmlns:xlink="http://www.w3.org/1999/xlink">
<g id="graph0" class="graph" transform="scale(1 1) rotate(0) translate(4 1203)">
<title>G</title>
<polygon fill="#ffffff" stroke="transparent" points="-4,4 -4,-1203 1201,-1203 1201,4 -4,4"/>
<g id="clust1" class="cluster">
<title>cluster_api.bilibili.com</title>
<polygon fill="none" stroke="#000000" points="259.1104,-604.464 259.1104,-968.464 782.1104,-968.464 782.1104,-604.464 259.1104,-604.464"/>
<text text-anchor="middle" x="520.6104" y="-953.264" font-family="Times,serif" font-size="14.00" fill="#000000">api.bilibili.com</text>
</g>
<g id="clust2" class="cluster">
<title>cluster_api.live.bilibili.com</title>
<polygon fill="none" stroke="#000000" points="910.4464,-631.1699 910.4464,-865.1699 1197.4464,-865.1699 1197.4464,-631.1699 910.4464,-631.1699"/>
<text text-anchor="middle" x="1053.9464" y="-849.9699" font-family="Times,serif" font-size="14.00" fill="#000000">api.live.bilibili.com</text>
</g>
<g id="clust3" class="cluster">
<title>cluster_data</title>
<polygon fill="none" stroke="#000000" points="106.8971,.2261 106.8971,-590.7739 833.8971,-590.7739 833.8971,.2261 106.8971,.2261"/>
<text text-anchor="middle" x="470.3971" y="-575.5739" font-family="Times,serif" font-size="14.00" fill="#000000">data</text>
</g>
<g id="clust4" class="cluster">
<title>cluster_input</title>
<polygon fill="none" stroke="#000000" points="850.3343,-333.0181 850.3343,-496.0181 1018.3343,-496.0181 1018.3343,-333.0181 850.3343,-333.0181"/>
<text text-anchor="middle" x="934.3343" y="-480.8181" font-family="Times,serif" font-size="14.00" fill="#000000">input</text>
</g>
<!-- stat -->
<g id="node1" class="node">
<title>stat</title>
<ellipse fill="none" stroke="#000000" cx="372.2151" cy="-827.3728" rx="27" ry="18"/>
<text text-anchor="middle" x="372.2151" y="-823.1728" font-family="Times,serif" font-size="14.00" fill="#000000">stat</text>
</g>
<!-- follower -->
<g id="node18" class="node">
<title>follower</title>
<ellipse fill="none" stroke="#000000" cx="241.6868" cy="-296.6095" rx="40.1317" ry="18"/>
<text text-anchor="middle" x="241.6868" y="-292.4095" font-family="Times,serif" font-size="14.00" fill="#000000">follower</text>
</g>
<!-- stat&#45;&gt;follower -->
<g id="edge18" class="edge">
<title>stat&#45;&gt;follower</title>
<path fill="none" stroke="#000000" d="M376.3133,-809.3814C380.2845,-789.4486 385.1835,-756.3815 381.3182,-728.0825 362.7002,-591.7747 310.06,-570.7429 271.4293,-438.7047 260.0706,-399.8809 251.2639,-353.8866 246.274,-324.9725"/>
<polygon fill="#000000" stroke="#000000" points="249.6686,-324.0547 244.551,-314.7777 242.7664,-325.2212 249.6686,-324.0547"/>
</g>
<!-- upstat -->
<g id="node2" class="node">
<title>upstat</title>
<ellipse fill="none" stroke="#000000" cx="632.6639" cy="-793.1058" rx="31.4636" ry="18"/>
<text text-anchor="middle" x="632.6639" y="-788.9058" font-family="Times,serif" font-size="14.00" fill="#000000">upstat</text>
</g>
<!-- archiveView -->
<g id="node37" class="node">
<title>archiveView</title>
<ellipse fill="none" stroke="#000000" cx="468.1891" cy="-26.1335" rx="54.513" ry="18"/>
<text text-anchor="middle" x="468.1891" y="-21.9335" font-family="Times,serif" font-size="14.00" fill="#000000">archiveView</text>
</g>
<!-- upstat&#45;&gt;archiveView -->
<g id="edge40" class="edge">
<title>upstat&#45;&gt;archiveView</title>
<path fill="none" stroke="#000000" d="M624.1324,-775.5278C617.9015,-761.9571 609.7512,-742.548 605.0464,-724.7205 604.8555,-723.997 576.7891,-511.8457 576.6356,-511.1134 547.8066,-373.5598 527.2014,-342.5304 488.9551,-207.2924 476.6659,-163.8381 466.201,-154.3201 461.8278,-109.3737 460.0602,-91.2066 461.5712,-70.7691 463.5628,-54.6916"/>
<polygon fill="#000000" stroke="#000000" points="467.0913,-54.7221 464.984,-44.339 460.1564,-53.77 467.0913,-54.7221"/>
</g>
<!-- articleView -->
<g id="node38" class="node">
<title>articleView</title>
<ellipse fill="none" stroke="#000000" cx="368.7019" cy="-233.5014" rx="50.6536" ry="18"/>
<text text-anchor="middle" x="368.7019" y="-229.3014" font-family="Times,serif" font-size="14.00" fill="#000000">articleView</text>
</g>
<!-- upstat&#45;&gt;articleView -->
<g id="edge41" class="edge">
<title>upstat&#45;&gt;articleView</title>
<path fill="none" stroke="#000000" d="M624.1324,-775.5278C617.9015,-761.9571 609.7512,-742.548 605.0464,-724.7205 604.2827,-721.8267 577.6216,-513.9392 576.6356,-511.1134 554.418,-447.4385 539.8374,-434.362 498.725,-380.9029 464.8893,-336.9058 447.5752,-333.6974 411.6151,-291.4189 403.0003,-281.2905 394.1444,-269.5927 386.7314,-259.373"/>
<polygon fill="#000000" stroke="#000000" points="389.5486,-257.2956 380.8808,-251.203 383.8574,-261.3711 389.5486,-257.2956"/>
</g>
<!-- navnum -->
<g id="node3" class="node">
<title>navnum</title>
<ellipse fill="none" stroke="#000000" cx="708.5131" cy="-740.0879" rx="38.6955" ry="18"/>
<text text-anchor="middle" x="708.5131" y="-735.8879" font-family="Times,serif" font-size="14.00" fill="#000000">navnum</text>
</g>
<!-- video -->
<g id="node22" class="node">
<title>video</title>
<ellipse fill="none" stroke="#000000" cx="631.4916" cy="-171.8052" rx="29.5104" ry="18"/>
<text text-anchor="middle" x="631.4916" y="-167.6052" font-family="Times,serif" font-size="14.00" fill="#000000">video</text>
</g>
<!-- navnum&#45;&gt;video -->
<g id="edge22" class="edge">
<title>navnum&#45;&gt;video</title>
<path fill="none" stroke="#000000" d="M709.9505,-721.8222C713.1993,-676.1872 719.8156,-553.6121 706.2227,-452.7581 693.4144,-357.7264 658.458,-249.0088 641.2815,-199.2588"/>
<polygon fill="#000000" stroke="#000000" points="644.4982,-197.8536 637.9005,-189.5638 637.8886,-200.1587 644.4982,-197.8536"/>
</g>
<!-- info -->
<g id="node4" class="node">
<title>info</title>
<ellipse fill="none" stroke="#000000" cx="649.9611" cy="-874.2414" rx="27" ry="18"/>
<text text-anchor="middle" x="649.9611" y="-870.0414" font-family="Times,serif" font-size="14.00" fill="#000000">info</text>
</g>
<!-- uname -->
<g id="node19" class="node">
<title>uname</title>
<ellipse fill="none" stroke="#000000" cx="524.2333" cy="-207.4505" rx="33.8596" ry="18"/>
<text text-anchor="middle" x="524.2333" y="-203.2505" font-family="Times,serif" font-size="14.00" fill="#000000">uname</text>
</g>
<!-- info&#45;&gt;uname -->
<g id="edge19" class="edge">
<title>info&#45;&gt;uname</title>
<path fill="none" stroke="#000000" d="M636.5037,-858.4099C624.2629,-842.9003 607.0425,-818.014 599.8333,-793.0167 585.7107,-744.0476 602.4254,-729.1889 598.8442,-678.35 593.5756,-603.5554 587.9483,-585.2349 576.6356,-511.1134 561.1174,-409.4373 539.3528,-289.2136 529.476,-235.6454"/>
<polygon fill="#000000" stroke="#000000" points="532.8695,-234.748 527.6099,-225.5509 525.9861,-236.0205 532.8695,-234.748"/>
</g>
<!-- sign -->
<g id="node20" class="node">
<title>sign</title>
<ellipse fill="none" stroke="#000000" cx="329.1037" cy="-330.3197" rx="27" ry="18"/>
<text text-anchor="middle" x="329.1037" y="-326.1197" font-family="Times,serif" font-size="14.00" fill="#000000">sign</text>
</g>
<!-- info&#45;&gt;sign -->
<g id="edge20" class="edge">
<title>info&#45;&gt;sign</title>
<path fill="none" stroke="#000000" d="M634.4449,-859.4038C615.5458,-841.41 582.5593,-810.2558 553.6402,-784.2235 500.0548,-735.9871 470.0303,-738.6251 431.0675,-677.9617 363.4101,-572.6221 339.3214,-420.9224 331.9521,-358.6399"/>
<polygon fill="#000000" stroke="#000000" points="335.398,-357.9627 330.7997,-348.4177 328.442,-358.7469 335.398,-357.9627"/>
</g>
<!-- coins -->
<g id="node21" class="node">
<title>coins</title>
<ellipse fill="none" stroke="#000000" cx="433.2259" cy="-277.6461" rx="28.5497" ry="18"/>
<text text-anchor="middle" x="433.2259" y="-273.4461" font-family="Times,serif" font-size="14.00" fill="#000000">coins</text>
</g>
<!-- info&#45;&gt;coins -->
<g id="edge21" class="edge">
<title>info&#45;&gt;coins</title>
<path fill="none" stroke="#000000" d="M636.5037,-858.4099C624.2629,-842.9003 607.0425,-818.014 599.8333,-793.0167 585.7107,-744.0476 602.4254,-729.1889 598.8442,-678.35 593.5756,-603.5554 601.3301,-581.91 576.6356,-511.1134 554.4245,-447.4362 534.1036,-438.3177 498.725,-380.9029 482.2332,-354.1389 462.904,-323.7873 449.5385,-302.9543"/>
<polygon fill="#000000" stroke="#000000" points="452.3754,-300.8947 444.0253,-294.3734 446.4862,-304.6785 452.3754,-300.8947"/>
</g>
<!-- face -->
<g id="node39" class="node">
<title>face</title>
<ellipse fill="none" stroke="#000000" cx="490.4277" cy="-109.4319" rx="27" ry="18"/>
<text text-anchor="middle" x="490.4277" y="-105.2319" font-family="Times,serif" font-size="14.00" fill="#000000">face</text>
</g>
<!-- info&#45;&gt;face -->
<g id="edge42" class="edge">
<title>info&#45;&gt;face</title>
<path fill="none" stroke="#000000" d="M636.5037,-858.4099C624.2629,-842.9003 607.0425,-818.014 599.8333,-793.0167 585.7107,-744.0476 602.4254,-729.1889 598.8442,-678.35 593.5756,-603.5554 592.0085,-584.5004 576.6356,-511.1134 547.8206,-373.5568 507.5861,-346.5942 488.9551,-207.2924 485.8382,-183.9878 486.5211,-157.2848 487.8067,-137.6662"/>
<polygon fill="#000000" stroke="#000000" points="491.3067,-137.7957 488.5625,-127.5624 484.3262,-137.2734 491.3067,-137.7957"/>
</g>
<!-- topPhoto -->
<g id="node40" class="node">
<title>topPhoto</title>
<ellipse fill="none" stroke="#000000" cx="202.4043" cy="-372.5575" rx="42.0956" ry="18"/>
<text text-anchor="middle" x="202.4043" y="-368.3575" font-family="Times,serif" font-size="14.00" fill="#000000">topPhoto</text>
</g>
<!-- info&#45;&gt;topPhoto -->
<g id="edge43" class="edge">
<title>info&#45;&gt;topPhoto</title>
<path fill="none" stroke="#000000" d="M634.4449,-859.4038C615.5458,-841.41 582.5593,-810.2558 553.6402,-784.2235 500.0548,-735.9871 480.1924,-730.7338 431.0675,-677.9617 342.1457,-582.4379 254.6494,-453.0434 219.0586,-398.5007"/>
<polygon fill="#000000" stroke="#000000" points="221.9884,-396.5857 213.6059,-390.1062 216.1181,-400.3989 221.9884,-396.5857"/>
</g>
<!-- view -->
<g id="node5" class="node">
<title>view</title>
<ellipse fill="none" stroke="#000000" cx="746.9079" cy="-839.4452" rx="27.0958" ry="18"/>
<text text-anchor="middle" x="746.9079" y="-835.2452" font-family="Times,serif" font-size="14.00" fill="#000000">view</text>
</g>
<!-- cids -->
<g id="node43" class="node">
<title>cids</title>
<ellipse fill="none" stroke="#000000" cx="409.267" cy="-172.3126" rx="27" ry="18"/>
<text text-anchor="middle" x="409.267" y="-168.1126" font-family="Times,serif" font-size="14.00" fill="#000000">cids</text>
</g>
<!-- view&#45;&gt;cids -->
<g id="edge46" class="edge">
<title>view&#45;&gt;cids</title>
<path fill="none" stroke="#000000" d="M732.2989,-823.9361C715.2241,-805.1898 686.9383,-772.1357 668.3169,-739.9242 664.6755,-733.6254 665.4879,-731.2348 662.2464,-724.7212 659.0397,-718.2776 657.6847,-716.965 653.87,-710.8618 631.1727,-674.5475 617.875,-669.5327 601.5828,-629.929 581.0545,-580.0281 594.071,-562.1772 576.6356,-511.1134 539.3996,-402.0586 515.1116,-380.8502 463.5993,-277.768 450.027,-250.6084 434.0686,-219.7581 422.9731,-198.4745"/>
<polygon fill="#000000" stroke="#000000" points="425.9745,-196.6607 418.2434,-189.4163 419.7694,-199.9007 425.9745,-196.6607"/>
</g>
<!-- mid -->
<g id="node44" class="node">
<title>mid</title>
<ellipse fill="none" stroke="#000000" cx="885.4693" cy="-398.9269" rx="27" ry="18"/>
<text text-anchor="middle" x="885.4693" y="-394.7269" font-family="Times,serif" font-size="14.00" fill="#000000">mid</text>
</g>
<!-- view&#45;&gt;mid -->
<g id="edge48" class="edge">
<title>view&#45;&gt;mid</title>
<path fill="none" stroke="#000000" stroke-dasharray="5,2" d="M752.5113,-821.6308C773.9234,-753.5568 850.6768,-509.5402 876.7387,-426.6835"/>
<polygon fill="#000000" stroke="#000000" points="880.1344,-427.5524 879.7962,-416.963 873.4569,-425.452 880.1344,-427.5524"/>
</g>
<!-- cid -->
<g id="node45" class="node">
<title>cid</title>
<ellipse fill="none" stroke="#000000" cx="957.799" cy="-448.3006" rx="27" ry="18"/>
<text text-anchor="middle" x="957.799" y="-444.1006" font-family="Times,serif" font-size="14.00" fill="#000000">cid</text>
</g>
<!-- view&#45;&gt;cid -->
<g id="edge50" class="edge">
<title>view&#45;&gt;cid</title>
<path fill="none" stroke="#000000" d="M756.1052,-822.3867C789.3371,-760.7509 903.347,-549.2939 943.5925,-474.6497"/>
<polygon fill="#000000" stroke="#000000" points="946.8882,-475.9121 948.5533,-465.4489 940.7267,-472.59 946.8882,-475.9121"/>
</g>
<!-- list -->
<g id="node6" class="node">
<title>list</title>
<ellipse fill="none" stroke="#000000" cx="633.6464" cy="-724.7208" rx="27" ry="18"/>
<text text-anchor="middle" x="633.6464" y="-720.5208" font-family="Times,serif" font-size="14.00" fill="#000000">list</text>
</g>
<!-- getSubmitVideos -->
<g id="node7" class="node">
<title>getSubmitVideos</title>
<ellipse fill="none" stroke="#000000" cx="698.4333" cy="-920.6778" rx="70.984" ry="18"/>
<text text-anchor="middle" x="698.4333" y="-916.4778" font-family="Times,serif" font-size="14.00" fill="#000000">getSubmitVideos</text>
</g>
<!-- getSubmitVideosPage -->
<g id="node25" class="node">
<title>getSubmitVideosPage</title>
<ellipse fill="none" stroke="#000000" cx="486.8571" cy="-510.9306" rx="88.3651" ry="18"/>
<text text-anchor="middle" x="486.8571" y="-506.7306" font-family="Times,serif" font-size="14.00" fill="#000000">getSubmitVideosPage</text>
</g>
<!-- getSubmitVideos&#45;&gt;getSubmitVideosPage -->
<g id="edge25" class="edge">
<title>getSubmitVideos&#45;&gt;getSubmitVideosPage</title>
<path fill="none" stroke="#000000" d="M695.743,-902.2729C691.5757,-876.8702 682.2398,-830.0281 665.4945,-793.1949 651.6144,-762.664 634.3939,-764.7525 613.4228,-738.5799 608.9223,-732.9631 607.4351,-731.5099 605.0464,-724.7205 598.1456,-705.1063 606.1934,-697.8005 598.8442,-678.35 577.9679,-623.0977 535.889,-567.8737 509.674,-536.6933"/>
<polygon fill="#000000" stroke="#000000" points="512.2041,-534.2661 503.0526,-528.9274 506.8774,-538.8078 512.2041,-534.2661"/>
</g>
<!-- getAllSubmitVideos -->
<g id="node8" class="node">
<title>getAllSubmitVideos</title>
<ellipse fill="none" stroke="#000000" cx="514.9559" cy="-678.1558" rx="82.0855" ry="18"/>
<text text-anchor="middle" x="514.9559" y="-673.9558" font-family="Times,serif" font-size="14.00" fill="#000000">getAllSubmitVideos</text>
</g>
<!-- allVideos -->
<g id="node27" class="node">
<title>allVideos</title>
<ellipse fill="none" stroke="#000000" cx="589.2711" cy="-287.6955" rx="43.4456" ry="18"/>
<text text-anchor="middle" x="589.2711" y="-283.4955" font-family="Times,serif" font-size="14.00" fill="#000000">allVideos</text>
</g>
<!-- getAllSubmitVideos&#45;&gt;allVideos -->
<g id="edge27" class="edge">
<title>getAllSubmitVideos&#45;&gt;allVideos</title>
<path fill="none" stroke="#000000" d="M525.229,-659.8668C541.2313,-629.9105 570.879,-568.0143 576.6356,-511.1134 582.3004,-455.1205 552.9258,-442.0437 557.4544,-385.9475 559.457,-361.1409 568.6416,-334.35 576.6313,-315.0195"/>
<polygon fill="#000000" stroke="#000000" points="579.9287,-316.2107 580.6561,-305.6409 573.496,-313.4501 579.9287,-316.2107"/>
</g>
<!-- getFollowers -->
<g id="node9" class="node">
<title>getFollowers</title>
<ellipse fill="none" stroke="#000000" cx="323.4352" cy="-727.9354" rx="56.07" ry="18"/>
<text text-anchor="middle" x="323.4352" y="-723.7354" font-family="Times,serif" font-size="14.00" fill="#000000">getFollowers</text>
</g>
<!-- getFollowersPage -->
<g id="node28" class="node">
<title>getFollowersPage</title>
<ellipse fill="none" stroke="#000000" cx="188.8599" cy="-140.5152" rx="73.4498" ry="18"/>
<text text-anchor="middle" x="188.8599" y="-136.3152" font-family="Times,serif" font-size="14.00" fill="#000000">getFollowersPage</text>
</g>
<!-- getFollowers&#45;&gt;getFollowersPage -->
<g id="edge28" class="edge">
<title>getFollowers&#45;&gt;getFollowersPage</title>
<path fill="none" stroke="#000000" d="M321.5903,-709.5745C315.7573,-655.9907 295.1182,-495.8243 246.0511,-372.6843 231.417,-335.9579 211.9927,-334.2454 200.0211,-296.567 186.4099,-253.7282 185.7322,-201.0633 186.9545,-169.1779"/>
<polygon fill="#000000" stroke="#000000" points="190.4682,-168.9716 187.448,-158.8164 183.4761,-168.6385 190.4682,-168.9716"/>
</g>
<!-- getAllFollowers -->
<g id="node10" class="node">
<title>getAllFollowers</title>
<ellipse fill="none" stroke="#000000" cx="484.4556" cy="-784.1517" rx="67.6702" ry="18"/>
<text text-anchor="middle" x="484.4556" y="-779.9517" font-family="Times,serif" font-size="14.00" fill="#000000">getAllFollowers</text>
</g>
<!-- allFollowers -->
<g id="node29" class="node">
<title>allFollowers</title>
<ellipse fill="none" stroke="#000000" cx="767.813" cy="-340.825" rx="54.1403" ry="18"/>
<text text-anchor="middle" x="767.813" y="-336.625" font-family="Times,serif" font-size="14.00" fill="#000000">allFollowers</text>
</g>
<!-- getAllFollowers&#45;&gt;allFollowers -->
<g id="edge29" class="edge">
<title>getAllFollowers&#45;&gt;allFollowers</title>
<path fill="none" stroke="#000000" d="M512.0953,-767.6994C539.5684,-749.6333 580.2185,-717.8687 598.8442,-678.35 608.0338,-658.8522 595.3161,-650.5527 601.5828,-629.929 628.1707,-542.4284 660.9207,-532.1999 706.2227,-452.7581 722.6627,-423.9288 740.925,-390.5621 753.2634,-367.8103"/>
<polygon fill="#000000" stroke="#000000" points="756.4834,-369.214 758.166,-358.7536 750.3275,-365.8816 756.4834,-369.214"/>
</g>
<!-- search -->
<g id="node11" class="node">
<title>search</title>
<ellipse fill="none" stroke="#000000" cx="635.8731" cy="-629.9978" rx="32.8821" ry="18"/>
<text text-anchor="middle" x="635.8731" y="-625.7978" font-family="Times,serif" font-size="14.00" fill="#000000">search</text>
</g>
<!-- search&#45;&gt;mid -->
<g id="edge49" class="edge">
<title>search&#45;&gt;mid</title>
<path fill="none" stroke="#000000" stroke-dasharray="5,2" d="M651.517,-613.8467C668.9235,-596.007 698.0207,-566.5729 723.9769,-542.1494 771.3275,-497.5949 828.6713,-447.6487 860.7148,-420.083"/>
<polygon fill="#000000" stroke="#000000" points="863.367,-422.4189 868.6739,-413.249 858.8069,-417.108 863.367,-422.4189"/>
</g>
<!-- _notice -->
<g id="node12" class="node">
<title>_notice</title>
<ellipse fill="none" stroke="#000000" cx="509.8171" cy="-918.7479" rx="36.2732" ry="18"/>
<text text-anchor="middle" x="509.8171" y="-914.5479" font-family="Times,serif" font-size="14.00" fill="#000000">_notice</text>
</g>
<!-- notice -->
<g id="node36" class="node">
<title>notice</title>
<ellipse fill="none" stroke="#000000" cx="322.5975" cy="-77.2807" rx="31.9306" ry="18"/>
<text text-anchor="middle" x="322.5975" y="-73.0807" font-family="Times,serif" font-size="14.00" fill="#000000">notice</text>
</g>
<!-- _notice&#45;&gt;notice -->
<g id="edge39" class="edge">
<title>_notice&#45;&gt;notice</title>
<path fill="none" stroke="#000000" d="M494.3097,-902.4702C472.5945,-878.6081 433.7217,-831.7692 415.2711,-784.0799 341.9234,-594.4986 410.9296,-526.5307 357.7037,-330.3472 345.4298,-285.1073 317.7412,-280.2067 316.2769,-233.3543 315.2443,-200.3154 339.0386,-196.2539 341.1615,-163.2671 342.4368,-143.4519 337.6284,-121.585 332.5868,-104.8615"/>
<polygon fill="#000000" stroke="#000000" points="335.8656,-103.6244 329.4699,-95.1777 329.2022,-105.7691 335.8656,-103.6244"/>
</g>
<!-- getRoomInfoOld -->
<g id="node13" class="node">
<title>getRoomInfoOld</title>
<ellipse fill="none" stroke="#000000" cx="1009.0047" cy="-656.7469" rx="70.56" ry="18"/>
<text text-anchor="middle" x="1009.0047" y="-652.5469" font-family="Times,serif" font-size="14.00" fill="#000000">getRoomInfoOld</text>
</g>
<!-- roomStatus -->
<g id="node31" class="node">
<title>roomStatus</title>
<ellipse fill="none" stroke="#000000" cx="202.5679" cy="-94.274" rx="50.2896" ry="18"/>
<text text-anchor="middle" x="202.5679" y="-90.074" font-family="Times,serif" font-size="14.00" fill="#000000">roomStatus</text>
</g>
<!-- getRoomInfoOld&#45;&gt;roomStatus -->
<g id="edge31" class="edge">
<title>getRoomInfoOld&#45;&gt;roomStatus</title>
<path fill="none" stroke="#000000" d="M986.6017,-639.4498C877.4351,-555.2343 403.5449,-190.5071 331.285,-149.4015 304.5853,-134.2131 272.8839,-120.5878 247.6232,-110.6828"/>
<polygon fill="#000000" stroke="#000000" points="248.8703,-107.4125 238.2809,-107.0732 246.3475,-113.9421 248.8703,-107.4125"/>
</g>
<!-- roundStatus -->
<g id="node32" class="node">
<title>roundStatus</title>
<ellipse fill="none" stroke="#000000" cx="723.5891" cy="-118.9847" rx="52.2192" ry="18"/>
<text text-anchor="middle" x="723.5891" y="-114.7847" font-family="Times,serif" font-size="14.00" fill="#000000">roundStatus</text>
</g>
<!-- getRoomInfoOld&#45;&gt;roundStatus -->
<g id="edge33" class="edge">
<title>getRoomInfoOld&#45;&gt;roundStatus</title>
<path fill="none" stroke="#000000" d="M997.7483,-638.9243C971.7353,-597.4747 905.926,-491.0995 856.8696,-398.8412 808.5499,-307.9683 758.0409,-196.6804 735.5816,-146.1979"/>
<polygon fill="#000000" stroke="#000000" points="738.7273,-144.6577 731.4727,-136.9362 732.3288,-147.4964 738.7273,-144.6577"/>
</g>
<!-- liveStatus -->
<g id="node33" class="node">
<title>liveStatus</title>
<ellipse fill="none" stroke="#000000" cx="604.0406" cy="-386.1361" rx="44.9768" ry="18"/>
<text text-anchor="middle" x="604.0406" y="-381.9361" font-family="Times,serif" font-size="14.00" fill="#000000">liveStatus</text>
</g>
<!-- getRoomInfoOld&#45;&gt;liveStatus -->
<g id="edge35" class="edge">
<title>getRoomInfoOld&#45;&gt;liveStatus</title>
<path fill="none" stroke="#000000" d="M985.0565,-639.5744C932.588,-602.1133 803.2618,-510.6622 691.7183,-438.8985 674.322,-427.7062 654.6123,-415.7801 638.2925,-406.103"/>
<polygon fill="#000000" stroke="#000000" points="640.0015,-403.0475 629.6109,-400.9771 636.4426,-409.0753 640.0015,-403.0475"/>
</g>
<!-- title -->
<g id="node34" class="node">
<title>title</title>
<ellipse fill="none" stroke="#000000" cx="683.5914" cy="-238.8284" rx="27" ry="18"/>
<text text-anchor="middle" x="683.5914" y="-234.6284" font-family="Times,serif" font-size="14.00" fill="#000000">title</text>
</g>
<!-- getRoomInfoOld&#45;&gt;title -->
<g id="edge36" class="edge">
<title>getRoomInfoOld&#45;&gt;title</title>
<path fill="none" stroke="#000000" d="M986.5364,-639.4989C931.1763,-595.7919 787.2518,-474.6102 711.8936,-340.748 698.8694,-317.6126 691.5293,-288.1026 687.6071,-266.7967"/>
<polygon fill="#000000" stroke="#000000" points="691.029,-266.0417 685.9008,-256.7707 684.1282,-267.2162 691.029,-266.0417"/>
</g>
<!-- roomid -->
<g id="node46" class="node">
<title>roomid</title>
<ellipse fill="none" stroke="#000000" cx="974.5224" cy="-359.2457" rx="35.806" ry="18"/>
<text text-anchor="middle" x="974.5224" y="-355.0457" font-family="Times,serif" font-size="14.00" fill="#000000">roomid</text>
</g>
<!-- getRoomInfoOld&#45;&gt;roomid -->
<g id="edge52" class="edge">
<title>getRoomInfoOld&#45;&gt;roomid</title>
<path fill="none" stroke="#000000" d="M1007.187,-638.618C1003.5256,-602.4303 994.8856,-518.6752 986.3984,-448.43 983.9313,-428.0113 980.8603,-405.0034 978.4593,-387.4716"/>
<polygon fill="#000000" stroke="#000000" points="981.8949,-386.7637 977.0623,-377.3353 974.9604,-387.7195 981.8949,-386.7637"/>
</g>
<!-- topList -->
<g id="node14" class="node">
<title>topList</title>
<ellipse fill="none" stroke="#000000" cx="1027.8195" cy="-817.4799" rx="35.3303" ry="18"/>
<text text-anchor="middle" x="1027.8195" y="-813.2799" font-family="Times,serif" font-size="14.00" fill="#000000">topList</text>
</g>
<!-- guardNum -->
<g id="node23" class="node">
<title>guardNum</title>
<ellipse fill="none" stroke="#000000" cx="656.6936" cy="-452.7568" rx="47.8582" ry="18"/>
<text text-anchor="middle" x="656.6936" y="-448.5568" font-family="Times,serif" font-size="14.00" fill="#000000">guardNum</text>
</g>
<!-- topList&#45;&gt;guardNum -->
<g id="edge23" class="edge">
<title>topList&#45;&gt;guardNum</title>
<path fill="none" stroke="#000000" d="M1006.7335,-803.0498C983.9363,-787.1442 946.8665,-760.3862 917.0829,-734.6275 825.4283,-655.3594 803.5253,-633.5609 723.9769,-542.1494 706.2247,-521.7497 687.882,-497.1004 674.8412,-478.8566"/>
<polygon fill="#000000" stroke="#000000" points="677.5292,-476.5964 668.891,-470.4618 671.8183,-480.6443 677.5292,-476.5964"/>
</g>
<!-- topListPage -->
<g id="node24" class="node">
<title>topListPage</title>
<ellipse fill="none" stroke="#000000" cx="459.11" cy="-444.8676" rx="52.2106" ry="18"/>
<text text-anchor="middle" x="459.11" y="-440.6676" font-family="Times,serif" font-size="14.00" fill="#000000">topListPage</text>
</g>
<!-- topList&#45;&gt;topListPage -->
<g id="edge24" class="edge">
<title>topList&#45;&gt;topListPage</title>
<path fill="none" stroke="#000000" d="M1007.0889,-802.4903C943.7688,-756.906 746.8415,-616.6173 576.6356,-511.1134 550.2736,-494.7726 519.7378,-477.6116 496.3999,-464.8513"/>
<polygon fill="#000000" stroke="#000000" points="497.9697,-461.7209 487.5132,-460.0146 494.6234,-467.8693 497.9697,-461.7209"/>
</g>
<!-- fullTopList -->
<g id="node15" class="node">
<title>fullTopList</title>
<ellipse fill="none" stroke="#000000" cx="1139.215" cy="-689.1564" rx="49.5468" ry="18"/>
<text text-anchor="middle" x="1139.215" y="-684.9564" font-family="Times,serif" font-size="14.00" fill="#000000">fullTopList</text>
</g>
<!-- guards -->
<g id="node26" class="node">
<title>guards</title>
<ellipse fill="none" stroke="#000000" cx="306.7128" cy="-438.7714" rx="33.8683" ry="18"/>
<text text-anchor="middle" x="306.7128" y="-434.5714" font-family="Times,serif" font-size="14.00" fill="#000000">guards</text>
</g>
<!-- fullTopList&#45;&gt;guards -->
<g id="edge26" class="edge">
<title>fullTopList&#45;&gt;guards</title>
<path fill="none" stroke="#000000" d="M1115.8276,-673.2666C1100.5071,-663.4268 1079.746,-651.1408 1060.0758,-642.906 923.6625,-585.7979 880.8382,-597.4661 738.8684,-556.0597 654.8415,-531.5528 635.3082,-520.4777 550.9322,-497.2011 480.1127,-477.6643 396.7073,-458.5303 347.9717,-447.7341"/>
<polygon fill="#000000" stroke="#000000" points="348.6345,-444.2962 338.1153,-445.5597 347.1265,-451.1318 348.6345,-444.2962"/>
</g>
<!-- getAnchorInRoom -->
<g id="node16" class="node">
<title>getAnchorInRoom</title>
<ellipse fill="none" stroke="#000000" cx="995.1027" cy="-734.6576" rx="76.3398" ry="18"/>
<text text-anchor="middle" x="995.1027" y="-730.4576" font-family="Times,serif" font-size="14.00" fill="#000000">getAnchorInRoom</text>
</g>
<!-- anchorScore -->
<g id="node41" class="node">
<title>anchorScore</title>
<ellipse fill="none" stroke="#000000" cx="442.8229" cy="-380.8193" rx="54.1058" ry="18"/>
<text text-anchor="middle" x="442.8229" y="-376.6193" font-family="Times,serif" font-size="14.00" fill="#000000">anchorScore</text>
</g>
<!-- getAnchorInRoom&#45;&gt;anchorScore -->
<g id="edge44" class="edge">
<title>getAnchorInRoom&#45;&gt;anchorScore</title>
<path fill="none" stroke="#000000" d="M968.4651,-717.5913C877.273,-659.1657 577.6756,-467.2176 476.5253,-402.4119"/>
<polygon fill="#000000" stroke="#000000" points="478.2285,-399.3464 467.9203,-396.8988 474.4522,-405.2405 478.2285,-399.3464"/>
</g>
<!-- getAnchorInRoom&#45;&gt;mid -->
<g id="edge47" class="edge">
<title>getAnchorInRoom&#45;&gt;mid</title>
<path fill="none" stroke="#000000" stroke-dasharray="5,2" d="M978.1898,-716.9392C964.9217,-702.0344 947.0502,-679.5534 936.8747,-656.721 901.9009,-578.2444 890.5659,-475.7733 887.016,-427.0396"/>
<polygon fill="#000000" stroke="#000000" points="890.4999,-426.6809 886.3373,-416.9381 883.5156,-427.1502 890.4999,-426.6809"/>
</g>
<!-- rankdb -->
<g id="node17" class="node">
<title>rankdb</title>
<ellipse fill="none" stroke="#000000" cx="1141.1691" cy="-755.0776" rx="34.8285" ry="18"/>
<text text-anchor="middle" x="1141.1691" y="-750.8776" font-family="Times,serif" font-size="14.00" fill="#000000">rankdb</text>
</g>
<!-- areaRank -->
<g id="node42" class="node">
<title>areaRank</title>
<ellipse fill="none" stroke="#000000" cx="619.3066" cy="-28.0151" rx="43.4887" ry="18"/>
<text text-anchor="middle" x="619.3066" y="-23.8151" font-family="Times,serif" font-size="14.00" fill="#000000">areaRank</text>
</g>
<!-- rankdb&#45;&gt;areaRank -->
<g id="edge45" class="edge">
<title>rankdb&#45;&gt;areaRank</title>
<path fill="none" stroke="#000000" d="M1124.6966,-739.2094C1112.6659,-726.6797 1096.9292,-708.1618 1087.8444,-688.97 1081.5904,-675.7582 1087.6887,-669.8384 1081.1346,-656.7729 1016.1904,-527.3085 950.6441,-529.6481 865.1579,-412.7255 843.4084,-382.9779 843.4067,-372.061 823.7324,-340.902 759.6148,-239.3559 733.0336,-220.9332 669.6298,-118.9399 656.4894,-97.8019 642.8978,-73.0418 633.1571,-54.7017"/>
<polygon fill="#000000" stroke="#000000" points="636.1971,-52.9628 628.4372,-45.7493 630.005,-56.2275 636.1971,-52.9628"/>
</g>
<!-- uname&#45;&gt;search -->
<g id="edge16" class="edge">
<title>uname&#45;&gt;search</title>
<path fill="none" stroke="#000000" d="M526.832,-225.6032C531.6498,-258.0529 542.8236,-328.0343 557.4544,-385.9475 577.6295,-465.8067 609.6217,-557.7579 625.7984,-602.5741"/>
<polygon fill="#000000" stroke="#000000" points="622.5761,-603.9549 629.2777,-612.1609 629.1561,-601.5668 622.5761,-603.9549"/>
</g>
<!-- topListPage&#45;&gt;fullTopList -->
<g id="edge59" class="edge">
<title>topListPage&#45;&gt;fullTopList</title>
<path fill="none" stroke="#000000" d="M491.3963,-459.1021C543.0169,-481.5405 647.6189,-525.7004 738.8684,-556.0597 879.1906,-602.7459 923.6625,-585.7979 1060.0758,-642.906 1076.2115,-649.6611 1093.0813,-659.1423 1107.0798,-667.7631"/>
<polygon fill="#000000" stroke="#000000" points="1105.4996,-670.9039 1115.8276,-673.2666 1109.2272,-664.979 1105.4996,-670.9039"/>
</g>
<!-- getSubmitVideosPage&#45;&gt;getAllSubmitVideos -->
<g id="edge9" class="edge">
<title>getSubmitVideosPage&#45;&gt;getAllSubmitVideos</title>
<path fill="none" stroke="#000000" d="M489.9177,-529.1449C494.816,-558.2965 504.4523,-615.6456 510.237,-650.0723"/>
<polygon fill="#000000" stroke="#000000" points="506.7904,-650.6822 511.8991,-659.9639 513.6936,-649.5222 506.7904,-650.6822"/>
</g>
<!-- guardLevel -->
<g id="node30" class="node">
<title>guardLevel</title>
<ellipse fill="none" stroke="#000000" cx="775.9479" cy="-542.3256" rx="50.2465" ry="18"/>
<text text-anchor="middle" x="775.9479" y="-538.1256" font-family="Times,serif" font-size="14.00" fill="#000000">guardLevel</text>
</g>
<!-- guards&#45;&gt;guardLevel -->
<g id="edge30" class="edge">
<title>guards&#45;&gt;guardLevel</title>
<path fill="none" stroke="#000000" d="M337.864,-445.6461C416.6452,-463.0321 624.5361,-508.911 722.9111,-530.6211"/>
<polygon fill="#000000" stroke="#000000" points="722.414,-534.0955 732.9333,-532.8329 723.9225,-527.26 722.414,-534.0955"/>
</g>
<!-- getFollowersPage&#45;&gt;getAllFollowers -->
<g id="edge14" class="edge">
<title>getFollowersPage&#45;&gt;getAllFollowers</title>
<path fill="none" stroke="#000000" d="M201.1517,-158.7374C220.158,-187.3488 257.2114,-244.8962 283.3525,-296.6519 365.2897,-458.8764 358.4213,-511.3693 431.0675,-677.9617 443.0124,-705.3537 458.5281,-735.7372 469.7519,-756.9616"/>
<polygon fill="#000000" stroke="#000000" points="466.7888,-758.8438 474.5785,-766.0252 472.9674,-755.5536 466.7888,-758.8438"/>
</g>
<!-- roomStatus&#45;&gt;roundStatus -->
<g id="edge32" class="edge">
<title>roomStatus&#45;&gt;roundStatus</title>
<path fill="none" stroke="#000000" d="M252.957,-96.0825C274.3398,-96.6653 299.5366,-97.1089 322.303,-96.8799 397.1246,-96.1274 415.7509,-86.7442 490.5126,-89.8319 551.0586,-92.3326 619.8463,-101.7526 666.9081,-109.2167"/>
<polygon fill="#000000" stroke="#000000" points="666.4759,-112.6921 676.9048,-110.8246 667.5876,-105.7809 666.4759,-112.6921"/>
</g>
<!-- roomStatus&#45;&gt;liveStatus -->
<g id="edge34" class="edge">
<title>roomStatus&#45;&gt;liveStatus</title>
<path fill="none" stroke="#000000" d="M239.5711,-106.635C266.1411,-116.3267 302.2387,-131.2017 331.285,-149.4015 433.7496,-213.6033 536.6183,-315.4154 581.1383,-361.7428"/>
<polygon fill="#000000" stroke="#000000" points="578.83,-364.3934 588.2677,-369.208 583.8923,-359.5588 578.83,-364.3934"/>
</g>
<!-- online -->
<g id="node35" class="node">
<title>online</title>
<ellipse fill="none" stroke="#000000" cx="307.3504" cy="-163.2454" rx="32.4237" ry="18"/>
<text text-anchor="middle" x="307.3504" y="-159.0454" font-family="Times,serif" font-size="14.00" fill="#000000">online</text>
</g>
<!-- liveStatus&#45;&gt;online -->
<g id="edge38" class="edge">
<title>liveStatus&#45;&gt;online</title>
<path fill="none" stroke="#000000" d="M586.3589,-369.3896C552.7645,-338.0124 476.7396,-269.09 406.0503,-219.7466 384.9455,-205.0147 359.7424,-190.6359 340.0868,-180.0703"/>
<polygon fill="#000000" stroke="#000000" points="341.6772,-176.9519 331.204,-175.3511 338.393,-183.1337 341.6772,-176.9519"/>
</g>
<!-- mid&#45;&gt;stat -->
<g id="edge1" class="edge">
<title>mid&#45;&gt;stat</title>
<path fill="none" stroke="#000000" d="M868.8328,-413.6742C841.7373,-437.6941 786.3908,-486.7634 739.5294,-528.3423 732.6155,-534.4768 729.9104,-535.0621 723.9769,-542.1494 689.6894,-583.1041 699.9804,-608.4476 660.0348,-643.9057 574.4622,-719.8649 533.0223,-710.0457 435.7139,-770.2417 426.3833,-776.0137 423.7217,-777.0825 415.2711,-784.0799 407.8769,-790.2025 400.326,-797.4112 393.6546,-804.1713"/>
<polygon fill="#000000" stroke="#000000" points="390.7113,-802.1813 386.289,-811.8091 395.75,-807.0405 390.7113,-802.1813"/>
</g>
<!-- mid&#45;&gt;upstat -->
<g id="edge2" class="edge">
<title>mid&#45;&gt;upstat</title>
<path fill="none" stroke="#000000" d="M880.1652,-416.9526C871.509,-444.9607 852.7855,-500.1145 827.9189,-542.5019 770.8267,-639.8211 735.265,-649.103 668.3169,-739.9242 661.7872,-748.7823 654.9759,-758.7425 649.0773,-767.6278"/>
<polygon fill="#000000" stroke="#000000" points="646.0938,-765.7948 643.5271,-776.0741 651.9438,-769.639 646.0938,-765.7948"/>
</g>
<!-- mid&#45;&gt;navnum -->
<g id="edge3" class="edge">
<title>mid&#45;&gt;navnum</title>
<path fill="none" stroke="#000000" d="M879.4472,-416.5636C869.8303,-444.0513 849.842,-498.5199 827.9189,-542.5019 796.0237,-606.49 750.6017,-677.2394 725.9905,-714.2586"/>
<polygon fill="#000000" stroke="#000000" points="722.8493,-712.6599 720.2027,-722.9189 728.6692,-716.5495 722.8493,-712.6599"/>
</g>
<!-- mid&#45;&gt;info -->
<g id="edge4" class="edge">
<title>mid&#45;&gt;info</title>
<path fill="none" stroke="#000000" d="M880.1269,-416.6832C864.1761,-468.4788 813.9315,-623.1287 748.7093,-740.2515 725.6207,-781.7128 691.5169,-825.12 670.0324,-850.9137"/>
<polygon fill="#000000" stroke="#000000" points="667.2884,-848.7386 663.5303,-858.6445 672.6456,-853.2443 667.2884,-848.7386"/>
</g>
<!-- mid&#45;&gt;getSubmitVideos -->
<g id="edge7" class="edge">
<title>mid&#45;&gt;getSubmitVideos</title>
<path fill="none" stroke="#000000" d="M878.4316,-416.5296C850.1087,-487.5051 744.7032,-752.976 718.0112,-839.3344 712.6441,-856.6988 707.8465,-876.5214 704.3439,-892.2509"/>
<polygon fill="#000000" stroke="#000000" points="700.8404,-891.8907 702.1347,-902.4062 707.6805,-893.3787 700.8404,-891.8907"/>
</g>
<!-- mid&#45;&gt;getAllSubmitVideos -->
<g id="edge10" class="edge">
<title>mid&#45;&gt;getAllSubmitVideos</title>
<path fill="none" stroke="#000000" d="M867.3479,-412.5837C808.3113,-457.0753 621.0264,-598.2182 546.2416,-654.5781"/>
<polygon fill="#000000" stroke="#000000" points="543.9898,-651.8924 538.1102,-660.7061 548.2028,-657.4827 543.9898,-651.8924"/>
</g>
<!-- mid&#45;&gt;getFollowers -->
<g id="edge11" class="edge">
<title>mid&#45;&gt;getFollowers</title>
<path fill="none" stroke="#000000" d="M865.1342,-410.8308C781.951,-459.5253 466.9273,-643.9367 359.5459,-706.7966"/>
<polygon fill="#000000" stroke="#000000" points="357.5587,-703.9042 350.6968,-711.9767 361.0951,-709.9453 357.5587,-703.9042"/>
</g>
<!-- mid&#45;&gt;getAllFollowers -->
<g id="edge13" class="edge">
<title>mid&#45;&gt;getAllFollowers</title>
<path fill="none" stroke="#000000" d="M868.8328,-413.6742C841.7373,-437.6941 786.3908,-486.7634 739.5294,-528.3423 732.6155,-534.4768 729.9104,-535.0621 723.9769,-542.1494 689.6894,-583.1041 696.9984,-605.349 660.0348,-643.9057 615.2943,-690.5744 554.9044,-735.5906 517.873,-761.5382"/>
<polygon fill="#000000" stroke="#000000" points="515.6506,-758.8204 509.4373,-767.4021 519.6461,-764.5682 515.6506,-758.8204"/>
</g>
<!-- mid&#45;&gt;_notice -->
<g id="edge17" class="edge">
<title>mid&#45;&gt;_notice</title>
<path fill="none" stroke="#000000" d="M880.5377,-416.6353C872.2621,-444.688 853.8968,-500.4703 827.9189,-542.5019 766.6561,-641.6238 735.6133,-655.537 653.8693,-738.5804 635.1301,-757.6174 627.2643,-759.1854 609.5547,-779.1837 576.9516,-816.0001 544.911,-863.3892 526.2724,-892.3934"/>
<polygon fill="#000000" stroke="#000000" points="523.1292,-890.8131 520.708,-901.1276 529.033,-894.5742 523.1292,-890.8131"/>
</g>
<!-- mid&#45;&gt;getRoomInfoOld -->
<g id="edge53" class="edge">
<title>mid&#45;&gt;getRoomInfoOld</title>
<path fill="none" stroke="#000000" d="M893.7667,-416.2435C914.8509,-460.2467 970.6104,-576.6175 996.0372,-629.6836"/>
<polygon fill="#000000" stroke="#000000" points="992.9392,-631.318 1000.4167,-638.8238 999.252,-628.2932 992.9392,-631.318"/>
</g>
<!-- mid&#45;&gt;topList -->
<g id="edge55" class="edge">
<title>mid&#45;&gt;topList</title>
<path fill="none" stroke="#000000" d="M882.3395,-417.1631C874.1974,-470.1988 856.9442,-627.4095 917.0829,-734.6275 933.9255,-764.6554 966.6422,-787.0385 992.1662,-800.92"/>
<polygon fill="#000000" stroke="#000000" points="990.7185,-804.1127 1001.2015,-805.648 993.964,-797.9105 990.7185,-804.1127"/>
</g>
<!-- mid&#45;&gt;fullTopList -->
<g id="edge58" class="edge">
<title>mid&#45;&gt;fullTopList</title>
<path fill="none" stroke="#000000" d="M898.3344,-414.8934C908.7535,-427.7421 923.8769,-446.2072 937.4427,-462.0681 1001.3677,-536.8083 1079.2276,-623.1603 1116.8003,-664.5476"/>
<polygon fill="#000000" stroke="#000000" points="1114.2331,-666.9268 1123.5483,-671.9743 1119.4139,-662.2194 1114.2331,-666.9268"/>
</g>
<!-- mid&#45;&gt;rankdb -->
<g id="edge61" class="edge">
<title>mid&#45;&gt;rankdb</title>
<path fill="none" stroke="#000000" d="M898.2436,-414.896C939.7168,-466.8577 1068.6465,-629.348 1081.1346,-656.7729 1087.1922,-670.0759 1081.5904,-675.7582 1087.8444,-688.97 1095.2258,-704.5633 1106.9985,-719.7118 1117.6067,-731.5649"/>
<polygon fill="#000000" stroke="#000000" points="1115.3303,-734.2574 1124.6966,-739.2094 1120.4627,-729.4973 1115.3303,-734.2574"/>
</g>
<!-- cid&#45;&gt;list -->
<g id="edge6" class="edge">
<title>cid&#45;&gt;list</title>
<path fill="none" stroke="#000000" d="M940.8276,-462.773C887.2195,-508.4871 721.3404,-649.94 658.2997,-703.6978"/>
<polygon fill="#000000" stroke="#000000" points="655.7879,-701.2399 650.4498,-710.3917 660.33,-706.5663 655.7879,-701.2399"/>
</g>
<!-- roomid&#45;&gt;topList -->
<g id="edge54" class="edge">
<title>roomid&#45;&gt;topList</title>
<path fill="none" stroke="#000000" d="M983.9162,-376.6706C1007.3685,-421.4923 1067.5794,-545.109 1081.1346,-656.7729 1085.3296,-691.3306 1083.4623,-701.4474 1073.1224,-734.6877 1066.8166,-754.9594 1055.2887,-775.9197 1045.4401,-791.6786"/>
<polygon fill="#000000" stroke="#000000" points="1042.3534,-790.0076 1039.8877,-800.3115 1048.2409,-793.7942 1042.3534,-790.0076"/>
</g>
<!-- roomid&#45;&gt;fullTopList -->
<g id="edge57" class="edge">
<title>roomid&#45;&gt;fullTopList</title>
<path fill="none" stroke="#000000" d="M983.3769,-376.9832C1010.5767,-431.4694 1093.0456,-596.6704 1125.6963,-662.0759"/>
<polygon fill="#000000" stroke="#000000" points="1122.7186,-663.9474 1130.3166,-671.3312 1128.9816,-660.8208 1122.7186,-663.9474"/>
</g>
<!-- roomid&#45;&gt;getAnchorInRoom -->
<g id="edge60" class="edge">
<title>roomid&#45;&gt;getAnchorInRoom</title>
<path fill="none" stroke="#000000" d="M978.8856,-377.2717C982.7676,-395.2296 987.6526,-423.6258 986.3984,-448.43 981.5931,-543.463 917.587,-563.5418 936.8747,-656.721 941.0922,-677.0954 954.7337,-695.908 967.7529,-709.9441"/>
<polygon fill="#000000" stroke="#000000" points="965.3706,-712.5143 974.858,-717.2301 970.3822,-707.6271 965.3706,-712.5143"/>
</g>
<!-- roomid&#45;&gt;online -->
<g id="edge37" class="edge">
<title>roomid&#45;&gt;online</title>
<path fill="none" stroke="#000000" d="M943.337,-350.3184C867.3088,-328.5261 666.3764,-270.7648 499.0867,-221.1976 445.8306,-205.418 384.3896,-186.7689 345.7095,-174.9739"/>
<polygon fill="#000000" stroke="#000000" points="346.4934,-171.5539 335.9073,-171.983 344.4505,-178.2491 346.4934,-171.5539"/>
</g>
<!-- aid -->
<g id="node47" class="node">
<title>aid</title>
<ellipse fill="none" stroke="#000000" cx="702.717" cy="-1181.1545" rx="27" ry="18"/>
<text text-anchor="middle" x="702.717" y="-1176.9545" font-family="Times,serif" font-size="14.00" fill="#000000">aid</text>
</g>
<!-- aid&#45;&gt;view -->
<g id="edge5" class="edge">
<title>aid&#45;&gt;view</title>
<path fill="none" stroke="#000000" d="M710.7543,-1163.8812C729.1321,-1122.6997 772.5349,-1015.1266 771.0252,-920.7146 770.726,-902.004 764.7747,-881.8316 758.8595,-866.2651"/>
<polygon fill="#000000" stroke="#000000" points="762.0163,-864.7341 755.0374,-856.7625 755.5219,-867.3463 762.0163,-864.7341"/>
</g>
<!-- page -->
<g id="node48" class="node">
<title>page</title>
<ellipse fill="none" stroke="#000000" cx="889.299" cy="-969.64" rx="27" ry="18"/>
<text text-anchor="middle" x="889.299" y="-965.44" font-family="Times,serif" font-size="14.00" fill="#000000">page</text>
</g>
<!-- page&#45;&gt;getSubmitVideos -->
<g id="edge8" class="edge">
<title>page&#45;&gt;getSubmitVideos</title>
<path fill="none" stroke="#000000" stroke-dasharray="1,5" d="M863.9535,-963.1382C837.166,-956.2665 793.9589,-945.1827 758.4062,-936.0625"/>
<polygon fill="#000000" stroke="#000000" points="759.1576,-932.642 748.6015,-933.5473 757.4182,-939.4224 759.1576,-932.642"/>
</g>
<!-- page&#45;&gt;getFollowers -->
<g id="edge12" class="edge">
<title>page&#45;&gt;getFollowers</title>
<path fill="none" stroke="#000000" stroke-dasharray="1,5" d="M868.7357,-957.7813C830.6001,-936.1566 745.8988,-889.8387 670.2522,-860.4288 569.5667,-821.2841 534.49,-840.8815 435.3556,-797.9601 406.017,-785.2577 375.4232,-765.6089 353.6518,-750.3543"/>
<polygon fill="#000000" stroke="#000000" points="355.6498,-747.4805 345.4717,-744.5383 351.5936,-753.1855 355.6498,-747.4805"/>
</g>
<!-- page&#45;&gt;topList -->
<g id="edge56" class="edge">
<title>page&#45;&gt;topList</title>
<path fill="none" stroke="#000000" stroke-dasharray="1,5" d="M903.3433,-954.2127C927.5651,-927.606 977.3538,-872.9147 1006.0806,-841.3593"/>
<polygon fill="#000000" stroke="#000000" points="1008.7581,-843.6173 1012.9019,-833.8664 1003.5818,-838.905 1008.7581,-843.6173"/>
</g>
<!-- SESSDATA -->
<g id="node49" class="node">
<title>SESSDATA</title>
<ellipse fill="none" stroke="#000000" cx="52.8011" cy="-694.0759" rx="53.2824" ry="18"/>
<text text-anchor="middle" x="52.8011" y="-689.8759" font-family="Times,serif" font-size="14.00" fill="#000000">SESSDATA</text>
</g>
<!-- SESSDATA&#45;&gt;getAllFollowers -->
<g id="edge15" class="edge">
<title>SESSDATA&#45;&gt;getAllFollowers</title>
<path fill="none" stroke="#000000" stroke-dasharray="1,5" d="M98.1798,-703.5453C175.505,-719.6812 332.9716,-752.5406 421.1042,-770.9318"/>
<polygon fill="#000000" stroke="#000000" points="420.4723,-774.3752 430.9764,-772.9919 421.9023,-767.5229 420.4723,-774.3752"/>
</g>
<!-- p -->
<g id="node50" class="node">
<title>p</title>
<ellipse fill="none" stroke="#000000" cx="1082.6991" cy="-246.3464" rx="27" ry="18"/>
<text text-anchor="middle" x="1082.6991" y="-242.1464" font-family="Times,serif" font-size="14.00" fill="#000000">p</text>
</g>
<!-- p&#45;&gt;cid -->
<g id="edge51" class="edge">
<title>p&#45;&gt;cid</title>
<path fill="none" stroke="#000000" stroke-dasharray="1,5" d="M1072.265,-263.2175C1050.307,-298.722 999.2257,-381.3166 973.3766,-423.1128"/>
<polygon fill="#000000" stroke="#000000" points="970.3988,-421.2736 968.1156,-431.6195 976.3522,-424.9556 970.3988,-421.2736"/>
</g>
</g>
</svg>
