<?xml version="1.0" encoding="UTF-8" standalone="no"?>
<!DOCTYPE svg PUBLIC "-//W3C//DTD SVG 1.1//EN"
 "http://www.w3.org/Graphics/SVG/1.1/DTD/svg11.dtd">
<!-- Generated by graphviz version 2.40.1 (20161225.0304)
 -->
<!-- Title: G Pages: 1 -->
<svg width="1082pt" height="912pt"
 viewBox="0.00 0.00 1082.00 912.00" xmlns="http://www.w3.org/2000/svg" xmlns:xlink="http://www.w3.org/1999/xlink">
<g id="graph0" class="graph" transform="scale(1 1) rotate(0) translate(4 908)">
<title>G</title>
<polygon fill="#ffffff" stroke="transparent" points="-4,4 -4,-908 1078,-908 1078,4 -4,4"/>
<g id="clust1" class="cluster">
<title>cluster_api.bilibili.com</title>
<polygon fill="none" stroke="#000000" points="98.5184,-435.602 98.5184,-702.602 413.5184,-702.602 413.5184,-435.602 98.5184,-435.602"/>
<text text-anchor="middle" x="256.0184" y="-687.402" font-family="Times,serif" font-size="14.00" fill="#000000">api.bilibili.com</text>
</g>
<g id="clust2" class="cluster">
<title>cluster_api.live.bilibili.com</title>
<polygon fill="none" stroke="#000000" points="695.3681,-190.974 695.3681,-406.974 1074.3681,-406.974 1074.3681,-190.974 695.3681,-190.974"/>
<text text-anchor="middle" x="884.8681" y="-391.774" font-family="Times,serif" font-size="14.00" fill="#000000">api.live.bilibili.com</text>
</g>
<g id="clust3" class="cluster">
<title>cluster_data</title>
<polygon fill="none" stroke="#000000" points=".0189,-.388 .0189,-422.388 663.0189,-422.388 663.0189,-.388 .0189,-.388"/>
<text text-anchor="middle" x="331.5189" y="-407.188" font-family="Times,serif" font-size="14.00" fill="#000000">data</text>
</g>
<g id="clust4" class="cluster">
<title>cluster_input</title>
<polygon fill="none" stroke="#000000" points="462.8078,-443.8168 462.8078,-603.8168 632.8078,-603.8168 632.8078,-443.8168 462.8078,-443.8168"/>
<text text-anchor="middle" x="547.8078" y="-588.6168" font-family="Times,serif" font-size="14.00" fill="#000000">input</text>
</g>
<!-- stat -->
<g id="node1" class="node">
<title>stat</title>
<ellipse fill="none" stroke="#000000" cx="168.4748" cy="-506.3817" rx="27" ry="18"/>
<text text-anchor="middle" x="168.4748" y="-502.1817" font-family="Times,serif" font-size="14.00" fill="#000000">stat</text>
</g>
<!-- follower -->
<g id="node14" class="node">
<title>follower</title>
<ellipse fill="none" stroke="#000000" cx="290.8901" cy="-26.2095" rx="40.1317" ry="18"/>
<text text-anchor="middle" x="290.8901" y="-22.0095" font-family="Times,serif" font-size="14.00" fill="#000000">follower</text>
</g>
<!-- stat&#45;&gt;follower -->
<g id="edge9" class="edge">
<title>stat&#45;&gt;follower</title>
<path fill="none" stroke="#000000" d="M165.6967,-488.4234C159.2545,-441.4047 146.8863,-311.7817 189.1141,-217.0107 200.897,-190.5665 216.3513,-192.7588 234.0214,-169.8263 261.1084,-134.6724 276.9397,-84.9532 284.7483,-54.19"/>
<polygon fill="#000000" stroke="#000000" points="288.2266,-54.6974 287.1811,-44.1542 281.4237,-53.0482 288.2266,-54.6974"/>
</g>
<!-- upstat -->
<g id="node2" class="node">
<title>upstat</title>
<ellipse fill="none" stroke="#000000" cx="274.7703" cy="-483.0193" rx="31.4636" ry="18"/>
<text text-anchor="middle" x="274.7703" y="-478.8193" font-family="Times,serif" font-size="14.00" fill="#000000">upstat</text>
</g>
<!-- archiveView -->
<g id="node29" class="node">
<title>archiveView</title>
<ellipse fill="none" stroke="#000000" cx="513.2909" cy="-290.1164" rx="54.513" ry="18"/>
<text text-anchor="middle" x="513.2909" y="-285.9164" font-family="Times,serif" font-size="14.00" fill="#000000">archiveView</text>
</g>
<!-- upstat&#45;&gt;archiveView -->
<g id="edge27" class="edge">
<title>upstat&#45;&gt;archiveView</title>
<path fill="none" stroke="#000000" d="M290.4405,-467.1808C317.7858,-439.9408 376.5573,-383.1422 431.5075,-341.556 445.7958,-330.7427 462.4007,-319.9965 476.9006,-311.1445"/>
<polygon fill="#000000" stroke="#000000" points="478.8572,-314.0519 485.6173,-305.894 475.2453,-308.0557 478.8572,-314.0519"/>
</g>
<!-- articleView -->
<g id="node30" class="node">
<title>articleView</title>
<ellipse fill="none" stroke="#000000" cx="234.2894" cy="-310.3405" rx="50.6536" ry="18"/>
<text text-anchor="middle" x="234.2894" y="-306.1405" font-family="Times,serif" font-size="14.00" fill="#000000">articleView</text>
</g>
<!-- upstat&#45;&gt;articleView -->
<g id="edge28" class="edge">
<title>upstat&#45;&gt;articleView</title>
<path fill="none" stroke="#000000" d="M272.6688,-464.8292C269.9498,-443.1703 264.5969,-406.0044 256.6374,-374.8133 253.5201,-362.5974 249.1326,-349.3962 245.0695,-338.14"/>
<polygon fill="#000000" stroke="#000000" points="248.23,-336.5957 241.4752,-328.4335 241.6656,-339.0266 248.23,-336.5957"/>
</g>
<!-- navnum -->
<g id="node3" class="node">
<title>navnum</title>
<ellipse fill="none" stroke="#000000" cx="145.2539" cy="-592.9432" rx="38.6955" ry="18"/>
<text text-anchor="middle" x="145.2539" y="-588.7432" font-family="Times,serif" font-size="14.00" fill="#000000">navnum</text>
</g>
<!-- video -->
<g id="node18" class="node">
<title>video</title>
<ellipse fill="none" stroke="#000000" cx="225.2833" cy="-374.7708" rx="29.5104" ry="18"/>
<text text-anchor="middle" x="225.2833" y="-370.5708" font-family="Times,serif" font-size="14.00" fill="#000000">video</text>
</g>
<!-- navnum&#45;&gt;video -->
<g id="edge13" class="edge">
<title>navnum&#45;&gt;video</title>
<path fill="none" stroke="#000000" d="M157.9875,-575.6001C169.7887,-558.7307 186.9958,-531.9729 197.0748,-506.3898 210.6113,-472.031 218.1846,-429.9389 221.9987,-402.7526"/>
<polygon fill="#000000" stroke="#000000" points="225.4778,-403.1406 223.3241,-392.767 218.5387,-402.2196 225.4778,-403.1406"/>
</g>
<!-- info -->
<g id="node4" class="node">
<title>info</title>
<ellipse fill="none" stroke="#000000" cx="214.0789" cy="-654.7672" rx="27" ry="18"/>
<text text-anchor="middle" x="214.0789" y="-650.5672" font-family="Times,serif" font-size="14.00" fill="#000000">info</text>
</g>
<!-- uname -->
<g id="node15" class="node">
<title>uname</title>
<ellipse fill="none" stroke="#000000" cx="381.8188" cy="-309.4214" rx="33.8596" ry="18"/>
<text text-anchor="middle" x="381.8188" y="-305.2214" font-family="Times,serif" font-size="14.00" fill="#000000">uname</text>
</g>
<!-- info&#45;&gt;uname -->
<g id="edge10" class="edge">
<title>info&#45;&gt;uname</title>
<path fill="none" stroke="#000000" d="M222.1067,-637.5649C228.6624,-623.7263 238.2995,-603.8491 247.4059,-586.8151 272.5315,-539.8161 280.9824,-529.2783 307.6009,-483.1084 316.8121,-467.1316 318.2304,-462.5748 328.5519,-447.2918 351.0133,-414.0332 370.5003,-412.9221 381.9131,-374.4462 385.4034,-362.6797 385.9121,-349.1796 385.3422,-337.5407"/>
<polygon fill="#000000" stroke="#000000" points="388.825,-337.1811 384.5703,-327.4781 381.8455,-337.7166 388.825,-337.1811"/>
</g>
<!-- sign -->
<g id="node16" class="node">
<title>sign</title>
<ellipse fill="none" stroke="#000000" cx="128.3296" cy="-314.5011" rx="27" ry="18"/>
<text text-anchor="middle" x="128.3296" y="-310.3011" font-family="Times,serif" font-size="14.00" fill="#000000">sign</text>
</g>
<!-- info&#45;&gt;sign -->
<g id="edge11" class="edge">
<title>info&#45;&gt;sign</title>
<path fill="none" stroke="#000000" d="M213.3476,-636.7252C211.9084,-608.565 207.8486,-552.5998 197.0748,-506.3898 182.9367,-445.7496 155.7567,-377.8162 140.1423,-341.2633"/>
<polygon fill="#000000" stroke="#000000" points="143.2418,-339.612 136.0654,-331.8178 136.8149,-342.3861 143.2418,-339.612"/>
</g>
<!-- coins -->
<g id="node17" class="node">
<title>coins</title>
<ellipse fill="none" stroke="#000000" cx="351.5397" cy="-374.3317" rx="28.5497" ry="18"/>
<text text-anchor="middle" x="351.5397" y="-370.1317" font-family="Times,serif" font-size="14.00" fill="#000000">coins</text>
</g>
<!-- info&#45;&gt;coins -->
<g id="edge12" class="edge">
<title>info&#45;&gt;coins</title>
<path fill="none" stroke="#000000" d="M222.1067,-637.5649C228.6624,-623.7263 238.2995,-603.8491 247.4059,-586.8151 272.5315,-539.8161 284.1851,-530.9822 307.6009,-483.1084 320.8711,-455.9774 333.5107,-423.7794 341.7976,-401.488"/>
<polygon fill="#000000" stroke="#000000" points="345.1213,-402.5905 345.2855,-391.9969 338.5509,-400.1759 345.1213,-402.5905"/>
</g>
<!-- face -->
<g id="node31" class="node">
<title>face</title>
<ellipse fill="none" stroke="#000000" cx="213.9392" cy="-155.8711" rx="27" ry="18"/>
<text text-anchor="middle" x="213.9392" y="-151.6711" font-family="Times,serif" font-size="14.00" fill="#000000">face</text>
</g>
<!-- info&#45;&gt;face -->
<g id="edge29" class="edge">
<title>info&#45;&gt;face</title>
<path fill="none" stroke="#000000" d="M211.953,-636.4829C204.8517,-574.8425 182.3684,-374.9068 181.865,-310.1642 181.5422,-268.6388 179.5789,-257.4279 189.1141,-217.0107 191.865,-205.3502 196.5111,-193.0136 201.045,-182.4991"/>
<polygon fill="#000000" stroke="#000000" points="204.3814,-183.6138 205.292,-173.0582 197.9976,-180.742 204.3814,-183.6138"/>
</g>
<!-- topPhoto -->
<g id="node32" class="node">
<title>topPhoto</title>
<ellipse fill="none" stroke="#000000" cx="463.4896" cy="-152.4769" rx="42.0956" ry="18"/>
<text text-anchor="middle" x="463.4896" y="-148.2769" font-family="Times,serif" font-size="14.00" fill="#000000">topPhoto</text>
</g>
<!-- info&#45;&gt;topPhoto -->
<g id="edge30" class="edge">
<title>info&#45;&gt;topPhoto</title>
<path fill="none" stroke="#000000" d="M222.1067,-637.5649C228.6624,-623.7263 238.2995,-603.8491 247.4059,-586.8151 272.5315,-539.8161 290.5876,-533.6134 307.6009,-483.1084 323.1702,-436.8901 309.1897,-421.4939 321.1663,-374.2171 340.583,-297.5709 349.7292,-276.3897 397.9852,-213.7558 408.8223,-199.6898 423.0007,-185.9971 435.3941,-175.1356"/>
<polygon fill="#000000" stroke="#000000" points="437.9057,-177.5928 443.2274,-168.4315 433.3542,-172.2746 437.9057,-177.5928"/>
</g>
<!-- view -->
<g id="node5" class="node">
<title>view</title>
<ellipse fill="none" stroke="#000000" cx="377.9917" cy="-543.3647" rx="27.0958" ry="18"/>
<text text-anchor="middle" x="377.9917" y="-539.1647" font-family="Times,serif" font-size="14.00" fill="#000000">view</text>
</g>
<!-- mid -->
<g id="node35" class="node">
<title>mid</title>
<ellipse fill="none" stroke="#000000" cx="497.7987" cy="-555.6607" rx="27" ry="18"/>
<text text-anchor="middle" x="497.7987" y="-551.4607" font-family="Times,serif" font-size="14.00" fill="#000000">mid</text>
</g>
<!-- view&#45;&gt;mid -->
<g id="edge34" class="edge">
<title>view&#45;&gt;mid</title>
<path fill="none" stroke="#000000" stroke-dasharray="5,2" d="M405.1778,-546.1549C421.5681,-547.837 442.6723,-550.003 460.595,-551.8424"/>
<polygon fill="#000000" stroke="#000000" points="460.4151,-555.3422 470.7202,-552.8816 461.1298,-548.3788 460.4151,-555.3422"/>
</g>
<!-- cid -->
<g id="node36" class="node">
<title>cid</title>
<ellipse fill="none" stroke="#000000" cx="527.0299" cy="-469.7231" rx="27" ry="18"/>
<text text-anchor="middle" x="527.0299" y="-465.5231" font-family="Times,serif" font-size="14.00" fill="#000000">cid</text>
</g>
<!-- view&#45;&gt;cid -->
<g id="edge36" class="edge">
<title>view&#45;&gt;cid</title>
<path fill="none" stroke="#000000" d="M399.9828,-532.4987C425.2991,-519.9896 467.0723,-499.3489 495.7629,-485.1725"/>
<polygon fill="#000000" stroke="#000000" points="497.5337,-488.2016 504.9486,-480.6338 494.4328,-481.9259 497.5337,-488.2016"/>
</g>
<!-- list -->
<g id="node6" class="node">
<title>list</title>
<ellipse fill="none" stroke="#000000" cx="348.7748" cy="-461.1513" rx="27" ry="18"/>
<text text-anchor="middle" x="348.7748" y="-456.9513" font-family="Times,serif" font-size="14.00" fill="#000000">list</text>
</g>
<!-- search -->
<g id="node7" class="node">
<title>search</title>
<ellipse fill="none" stroke="#000000" cx="372.1523" cy="-644.1985" rx="32.8821" ry="18"/>
<text text-anchor="middle" x="372.1523" y="-639.9985" font-family="Times,serif" font-size="14.00" fill="#000000">search</text>
</g>
<!-- search&#45;&gt;mid -->
<g id="edge35" class="edge">
<title>search&#45;&gt;mid</title>
<path fill="none" stroke="#000000" stroke-dasharray="5,2" d="M392.3396,-629.9733C413.5928,-614.9971 447.1722,-591.335 470.7161,-574.7446"/>
<polygon fill="#000000" stroke="#000000" points="472.7363,-577.6028 478.8947,-568.9815 468.7042,-571.8807 472.7363,-577.6028"/>
</g>
<!-- _notice -->
<g id="node8" class="node">
<title>_notice</title>
<ellipse fill="none" stroke="#000000" cx="285.1403" cy="-587.0092" rx="36.2732" ry="18"/>
<text text-anchor="middle" x="285.1403" y="-582.8092" font-family="Times,serif" font-size="14.00" fill="#000000">_notice</text>
</g>
<!-- notice -->
<g id="node28" class="node">
<title>notice</title>
<ellipse fill="none" stroke="#000000" cx="363.4864" cy="-162.0614" rx="31.9306" ry="18"/>
<text text-anchor="middle" x="363.4864" y="-157.8614" font-family="Times,serif" font-size="14.00" fill="#000000">notice</text>
</g>
<!-- _notice&#45;&gt;notice -->
<g id="edge26" class="edge">
<title>_notice&#45;&gt;notice</title>
<path fill="none" stroke="#000000" d="M289.5236,-569.0841C294.4507,-548.4499 302.4348,-513.4922 307.6009,-483.1084 315.7759,-435.0282 313.3763,-422.3612 321.1663,-374.2171 331.9049,-307.8495 348.3174,-230.566 357.2186,-190.081"/>
<polygon fill="#000000" stroke="#000000" points="360.6744,-190.663 359.4156,-180.1433 353.8394,-189.152 360.6744,-190.663"/>
</g>
<!-- getRoomInfoOld -->
<g id="node9" class="node">
<title>getRoomInfoOld</title>
<ellipse fill="none" stroke="#000000" cx="873.4934" cy="-217.1695" rx="70.56" ry="18"/>
<text text-anchor="middle" x="873.4934" y="-212.9695" font-family="Times,serif" font-size="14.00" fill="#000000">getRoomInfoOld</text>
</g>
<!-- roomStatus -->
<g id="node23" class="node">
<title>roomStatus</title>
<ellipse fill="none" stroke="#000000" cx="468.2708" cy="-355.4162" rx="50.2896" ry="18"/>
<text text-anchor="middle" x="468.2708" y="-351.2162" font-family="Times,serif" font-size="14.00" fill="#000000">roomStatus</text>
</g>
<!-- getRoomInfoOld&#45;&gt;roomStatus -->
<g id="edge18" class="edge">
<title>getRoomInfoOld&#45;&gt;roomStatus</title>
<path fill="none" stroke="#000000" d="M820.4517,-229.0338C763.4345,-242.4636 670.5719,-266.3023 593.2845,-295.388 562.9138,-306.8174 529.8701,-322.8512 505.3865,-335.4729"/>
<polygon fill="#000000" stroke="#000000" points="503.7,-332.4049 496.4455,-340.1265 506.9319,-338.6143 503.7,-332.4049"/>
</g>
<!-- roundStatus -->
<g id="node24" class="node">
<title>roundStatus</title>
<ellipse fill="none" stroke="#000000" cx="602.1856" cy="-183.2752" rx="52.2192" ry="18"/>
<text text-anchor="middle" x="602.1856" y="-179.0752" font-family="Times,serif" font-size="14.00" fill="#000000">roundStatus</text>
</g>
<!-- getRoomInfoOld&#45;&gt;roundStatus -->
<g id="edge20" class="edge">
<title>getRoomInfoOld&#45;&gt;roundStatus</title>
<path fill="none" stroke="#000000" d="M809.8838,-209.2228C764.985,-203.6136 705.2527,-196.1513 661.3728,-190.6694"/>
<polygon fill="#000000" stroke="#000000" points="661.7786,-187.193 651.4218,-189.4262 660.9108,-194.139 661.7786,-187.193"/>
</g>
<!-- liveStatus -->
<g id="node25" class="node">
<title>liveStatus</title>
<ellipse fill="none" stroke="#000000" cx="235.7005" cy="-217.1935" rx="44.9768" ry="18"/>
<text text-anchor="middle" x="235.7005" y="-212.9935" font-family="Times,serif" font-size="14.00" fill="#000000">liveStatus</text>
</g>
<!-- getRoomInfoOld&#45;&gt;liveStatus -->
<g id="edge22" class="edge">
<title>getRoomInfoOld&#45;&gt;liveStatus</title>
<path fill="none" stroke="#000000" d="M805.6044,-222.1462C722.3031,-227.7062 576.7412,-235.6514 451.8645,-233.3833 396.4773,-232.3774 333.3165,-227.1756 289.634,-222.9357"/>
<polygon fill="#000000" stroke="#000000" points="289.8131,-219.4364 279.5177,-221.9372 289.1255,-226.4026 289.8131,-219.4364"/>
</g>
<!-- title -->
<g id="node26" class="node">
<title>title</title>
<ellipse fill="none" stroke="#000000" cx="510.425" cy="-93.5603" rx="27" ry="18"/>
<text text-anchor="middle" x="510.425" y="-89.3603" font-family="Times,serif" font-size="14.00" fill="#000000">title</text>
</g>
<!-- getRoomInfoOld&#45;&gt;title -->
<g id="edge23" class="edge">
<title>getRoomInfoOld&#45;&gt;title</title>
<path fill="none" stroke="#000000" d="M831.1343,-202.7481C758.3635,-177.9727 611.0232,-127.8097 544.4455,-105.1428"/>
<polygon fill="#000000" stroke="#000000" points="545.4462,-101.7863 534.8517,-101.8766 543.1901,-108.4128 545.4462,-101.7863"/>
</g>
<!-- roomid -->
<g id="node37" class="node">
<title>roomid</title>
<ellipse fill="none" stroke="#000000" cx="588.9938" cy="-540.4426" rx="35.806" ry="18"/>
<text text-anchor="middle" x="588.9938" y="-536.2426" font-family="Times,serif" font-size="14.00" fill="#000000">roomid</text>
</g>
<!-- getRoomInfoOld&#45;&gt;roomid -->
<g id="edge38" class="edge">
<title>getRoomInfoOld&#45;&gt;roomid</title>
<path fill="none" stroke="#000000" d="M870.8637,-235.2044C868.5974,-246.8256 864.5477,-261.9287 857.5557,-273.8174 823.7676,-331.2686 674.8468,-465.128 614.5113,-518.1959"/>
<polygon fill="#000000" stroke="#000000" points="612.1465,-515.6145 606.9386,-524.841 616.7635,-520.876 612.1465,-515.6145"/>
</g>
<!-- topList -->
<g id="node10" class="node">
<title>topList</title>
<ellipse fill="none" stroke="#000000" cx="999.9649" cy="-359.1889" rx="35.3303" ry="18"/>
<text text-anchor="middle" x="999.9649" y="-354.9889" font-family="Times,serif" font-size="14.00" fill="#000000">topList</text>
</g>
<!-- guardNum -->
<g id="node19" class="node">
<title>guardNum</title>
<ellipse fill="none" stroke="#000000" cx="366.7158" cy="-100.115" rx="47.8582" ry="18"/>
<text text-anchor="middle" x="366.7158" y="-95.915" font-family="Times,serif" font-size="14.00" fill="#000000">guardNum</text>
</g>
<!-- topList&#45;&gt;guardNum -->
<g id="edge14" class="edge">
<title>topList&#45;&gt;guardNum</title>
<path fill="none" stroke="#000000" d="M977.9889,-344.9348C946.7765,-324.9288 887.5531,-287.845 835.0209,-259.9254 750.8542,-215.1927 730.3635,-201.4355 640.5588,-169.4956 565.5192,-142.807 475.4887,-122.0596 419.6817,-110.4553"/>
<polygon fill="#000000" stroke="#000000" points="420.1711,-106.9827 409.6709,-108.3955 418.7604,-113.8391 420.1711,-106.9827"/>
</g>
<!-- topListPage -->
<g id="node20" class="node">
<title>topListPage</title>
<ellipse fill="none" stroke="#000000" cx="451.9403" cy="-213.7834" rx="52.2106" ry="18"/>
<text text-anchor="middle" x="451.9403" y="-209.5834" font-family="Times,serif" font-size="14.00" fill="#000000">topListPage</text>
</g>
<!-- topList&#45;&gt;topListPage -->
<g id="edge15" class="edge">
<title>topList&#45;&gt;topListPage</title>
<path fill="none" stroke="#000000" d="M974.6038,-346.5201C955.0259,-337.2213 927.028,-324.9536 901.3227,-317.4542 824.6161,-295.0755 802.1011,-304.6093 724.0534,-287.4846 645.2936,-270.2037 555.2101,-244.6418 500.9953,-228.614"/>
<polygon fill="#000000" stroke="#000000" points="501.883,-225.2266 491.3004,-225.7363 499.891,-231.9372 501.883,-225.2266"/>
</g>
<!-- fullTopList -->
<g id="node11" class="node">
<title>fullTopList</title>
<ellipse fill="none" stroke="#000000" cx="864.8692" cy="-331.2648" rx="49.5468" ry="18"/>
<text text-anchor="middle" x="864.8692" y="-327.0648" font-family="Times,serif" font-size="14.00" fill="#000000">fullTopList</text>
</g>
<!-- guards -->
<g id="node21" class="node">
<title>guards</title>
<ellipse fill="none" stroke="#000000" cx="461.8261" cy="-39.1869" rx="33.8683" ry="18"/>
<text text-anchor="middle" x="461.8261" y="-34.9869" font-family="Times,serif" font-size="14.00" fill="#000000">guards</text>
</g>
<!-- fullTopList&#45;&gt;guards -->
<g id="edge16" class="edge">
<title>fullTopList&#45;&gt;guards</title>
<path fill="none" stroke="#000000" d="M823.1931,-321.2595C794.6192,-313.6932 756.2122,-302.1142 724.0534,-287.4846 713.3438,-282.6126 709.4712,-282.2637 701.5186,-273.5926 671.1852,-240.5189 683.4609,-218.9934 656.1441,-183.3875 638.8718,-160.8741 720.6376,-212.0897 530.717,-79.7483 519.3056,-71.7966 506.2719,-63.8549 494.6345,-57.1339"/>
<polygon fill="#000000" stroke="#000000" points="496.0814,-53.9303 485.6586,-52.0286 492.6205,-60.015 496.0814,-53.9303"/>
</g>
<!-- getAnchorInRoom -->
<g id="node12" class="node">
<title>getAnchorInRoom</title>
<ellipse fill="none" stroke="#000000" cx="779.5372" cy="-273.705" rx="76.3398" ry="18"/>
<text text-anchor="middle" x="779.5372" y="-269.505" font-family="Times,serif" font-size="14.00" fill="#000000">getAnchorInRoom</text>
</g>
<!-- anchorScore -->
<g id="node33" class="node">
<title>anchorScore</title>
<ellipse fill="none" stroke="#000000" cx="62.1243" cy="-145.4335" rx="54.1058" ry="18"/>
<text text-anchor="middle" x="62.1243" y="-141.2335" font-family="Times,serif" font-size="14.00" fill="#000000">anchorScore</text>
</g>
<!-- getAnchorInRoom&#45;&gt;anchorScore -->
<g id="edge31" class="edge">
<title>getAnchorInRoom&#45;&gt;anchorScore</title>
<path fill="none" stroke="#000000" d="M710.743,-265.7968C644.39,-258.0376 541.1605,-245.62 451.8645,-233.3833 328.9624,-216.5415 187.5734,-180.309 113.506,-159.9972"/>
<polygon fill="#000000" stroke="#000000" points="114.0812,-156.5252 103.5106,-157.2405 112.2201,-163.2733 114.0812,-156.5252"/>
</g>
<!-- getAnchorInRoom&#45;&gt;mid -->
<g id="edge33" class="edge">
<title>getAnchorInRoom&#45;&gt;mid</title>
<path fill="none" stroke="#000000" stroke-dasharray="5,2" d="M761.9131,-291.3426C712.7842,-340.5094 574.3537,-479.0466 520.0522,-533.39"/>
<polygon fill="#000000" stroke="#000000" points="517.559,-530.9335 512.9664,-540.4812 522.5106,-535.8813 517.559,-530.9335"/>
</g>
<!-- rankdb -->
<g id="node13" class="node">
<title>rankdb</title>
<ellipse fill="none" stroke="#000000" cx="1031.3287" cy="-264.4407" rx="34.8285" ry="18"/>
<text text-anchor="middle" x="1031.3287" y="-260.2407" font-family="Times,serif" font-size="14.00" fill="#000000">rankdb</text>
</g>
<!-- areaRank -->
<g id="node34" class="node">
<title>areaRank</title>
<ellipse fill="none" stroke="#000000" cx="92.3095" cy="-229.3144" rx="43.4887" ry="18"/>
<text text-anchor="middle" x="92.3095" y="-225.1144" font-family="Times,serif" font-size="14.00" fill="#000000">areaRank</text>
</g>
<!-- rankdb&#45;&gt;areaRank -->
<g id="edge32" class="edge">
<title>rankdb&#45;&gt;areaRank</title>
<path fill="none" stroke="#000000" d="M996.7748,-262.9178C948.3273,-260.8058 857.4526,-256.9291 779.9845,-254.1053 537.9259,-245.2821 477.2715,-246.9672 235.2659,-236.7926 205.5417,-235.543 172.3578,-233.8268 145.4491,-232.3537"/>
<polygon fill="#000000" stroke="#000000" points="145.6413,-228.8591 135.4636,-231.8025 145.2554,-235.8485 145.6413,-228.8591"/>
</g>
<!-- uname&#45;&gt;search -->
<g id="edge7" class="edge">
<title>uname&#45;&gt;search</title>
<path fill="none" stroke="#000000" d="M386.4256,-327.3412C395.9139,-366.5453 416.0111,-462.8695 406.8884,-543.4756 403.9522,-569.4193 393.6936,-597.3749 385.08,-617.2364"/>
<polygon fill="#000000" stroke="#000000" points="381.7966,-616.0047 380.8984,-626.5614 388.1838,-618.869 381.7966,-616.0047"/>
</g>
<!-- topListPage&#45;&gt;fullTopList -->
<g id="edge45" class="edge">
<title>topListPage&#45;&gt;fullTopList</title>
<path fill="none" stroke="#000000" d="M492.2855,-225.2619C568.5342,-246.9552 733.5188,-293.8946 815.9416,-317.3445"/>
<polygon fill="#000000" stroke="#000000" points="814.9962,-320.7144 825.5723,-320.0845 816.9118,-313.9816 814.9962,-320.7144"/>
</g>
<!-- guardLevel -->
<g id="node22" class="node">
<title>guardLevel</title>
<ellipse fill="none" stroke="#000000" cx="175.0698" cy="-25.9398" rx="50.2465" ry="18"/>
<text text-anchor="middle" x="175.0698" y="-21.7398" font-family="Times,serif" font-size="14.00" fill="#000000">guardLevel</text>
</g>
<!-- guards&#45;&gt;guardLevel -->
<g id="edge17" class="edge">
<title>guards&#45;&gt;guardLevel</title>
<path fill="none" stroke="#000000" d="M428.7046,-42.5136C394.2434,-45.4958 338.731,-48.9547 290.8634,-45.8095 270.1518,-44.4487 247.6095,-41.0301 227.9645,-37.4047"/>
<polygon fill="#000000" stroke="#000000" points="228.4594,-33.936 217.9807,-35.4998 227.1475,-40.812 228.4594,-33.936"/>
</g>
<!-- roomStatus&#45;&gt;roundStatus -->
<g id="edge19" class="edge">
<title>roomStatus&#45;&gt;roundStatus</title>
<path fill="none" stroke="#000000" d="M502.841,-341.9494C525.4502,-331.3196 553.6598,-314.2456 569.6464,-290.1934 585.594,-266.1997 593.9887,-234.0701 598.227,-211.3145"/>
<polygon fill="#000000" stroke="#000000" points="601.7076,-211.7245 599.9414,-201.2779 594.8075,-210.5458 601.7076,-211.7245"/>
</g>
<!-- roomStatus&#45;&gt;liveStatus -->
<g id="edge21" class="edge">
<title>roomStatus&#45;&gt;liveStatus</title>
<path fill="none" stroke="#000000" d="M453.4794,-338.0722C441.8224,-325.1768 424.6413,-307.7928 407.0011,-295.6946 366.9286,-268.2115 315.6891,-246.1932 279.7315,-232.5504"/>
<polygon fill="#000000" stroke="#000000" points="280.6095,-229.1424 270.0169,-228.927 278.1632,-235.7011 280.6095,-229.1424"/>
</g>
<!-- online -->
<g id="node27" class="node">
<title>online</title>
<ellipse fill="none" stroke="#000000" cx="616.9786" cy="-309.3702" rx="32.4237" ry="18"/>
<text text-anchor="middle" x="616.9786" y="-305.1702" font-family="Times,serif" font-size="14.00" fill="#000000">online</text>
</g>
<!-- liveStatus&#45;&gt;online -->
<g id="edge25" class="edge">
<title>liveStatus&#45;&gt;online</title>
<path fill="none" stroke="#000000" d="M279.6327,-221.2385C341.8998,-227.8902 458.7654,-243.781 553.2968,-276.3116 564.3892,-280.1288 575.9381,-285.6111 586.1067,-291.0169"/>
<polygon fill="#000000" stroke="#000000" points="584.5555,-294.1581 595.0045,-295.91 587.9286,-288.0244 584.5555,-294.1581"/>
</g>
<!-- mid&#45;&gt;stat -->
<g id="edge1" class="edge">
<title>mid&#45;&gt;stat</title>
<path fill="none" stroke="#000000" d="M473.3358,-547.767C449.3523,-540.3558 411.6212,-529.5656 378.1551,-523.765 318.2665,-513.3847 247.6441,-509.1544 205.5442,-507.4647"/>
<polygon fill="#000000" stroke="#000000" points="205.6033,-503.9645 195.4792,-507.0877 205.3412,-510.9596 205.6033,-503.9645"/>
</g>
<!-- mid&#45;&gt;upstat -->
<g id="edge2" class="edge">
<title>mid&#45;&gt;upstat</title>
<path fill="none" stroke="#000000" d="M473.5062,-547.7485C434.4841,-535.0388 357.5784,-509.9903 311.7211,-495.0544"/>
<polygon fill="#000000" stroke="#000000" points="312.7478,-491.7079 302.1555,-491.9388 310.5799,-498.3637 312.7478,-491.7079"/>
</g>
<!-- mid&#45;&gt;navnum -->
<g id="edge3" class="edge">
<title>mid&#45;&gt;navnum</title>
<path fill="none" stroke="#000000" d="M470.6455,-557.4122C446.3334,-558.9571 409.7071,-561.2265 377.8283,-562.9644 336.8131,-565.2005 326.3231,-562.7338 285.5141,-567.4102 253.4616,-571.0832 217.6864,-577.6354 190.2892,-583.1825"/>
<polygon fill="#000000" stroke="#000000" points="189.315,-579.8095 180.2244,-585.2512 190.7243,-586.6662 189.315,-579.8095"/>
</g>
<!-- mid&#45;&gt;info -->
<g id="edge4" class="edge">
<title>mid&#45;&gt;info</title>
<path fill="none" stroke="#000000" d="M473.6089,-564.1104C423.0423,-581.7739 306.0424,-622.6433 247.9979,-642.9189"/>
<polygon fill="#000000" stroke="#000000" points="246.4938,-639.7369 238.2074,-646.3388 248.8023,-646.3453 246.4938,-639.7369"/>
</g>
<!-- mid&#45;&gt;_notice -->
<g id="edge8" class="edge">
<title>mid&#45;&gt;_notice</title>
<path fill="none" stroke="#000000" d="M471.2953,-559.5676C436.0142,-564.7685 373.101,-574.0427 330.2719,-580.3563"/>
<polygon fill="#000000" stroke="#000000" points="329.4968,-576.9326 320.1141,-581.8536 330.5177,-583.8578 329.4968,-576.9326"/>
</g>
<!-- mid&#45;&gt;getRoomInfoOld -->
<g id="edge39" class="edge">
<title>mid&#45;&gt;getRoomInfoOld</title>
<path fill="none" stroke="#000000" d="M519.9384,-544.8109C583.0134,-512.7396 765.0414,-411.9153 857.5557,-273.8174 863.2348,-265.3401 866.9085,-254.8552 869.2771,-245.2195"/>
<polygon fill="#000000" stroke="#000000" points="872.7445,-245.7373 871.3683,-235.2323 865.8931,-244.3027 872.7445,-245.7373"/>
</g>
<!-- mid&#45;&gt;topList -->
<g id="edge41" class="edge">
<title>mid&#45;&gt;topList</title>
<path fill="none" stroke="#000000" d="M520.1853,-545.2511C532.6274,-539.5596 548.4311,-532.4845 562.683,-526.5671 708.5357,-466.0092 884.8551,-400.9686 961.3991,-373.1259"/>
<polygon fill="#000000" stroke="#000000" points="962.8898,-376.3082 971.094,-369.6043 960.4999,-369.7288 962.8898,-376.3082"/>
</g>
<!-- mid&#45;&gt;fullTopList -->
<g id="edge44" class="edge">
<title>mid&#45;&gt;fullTopList</title>
<path fill="none" stroke="#000000" d="M517.7947,-543.4368C577.6006,-506.8765 755.5909,-398.0683 830.7609,-352.1157"/>
<polygon fill="#000000" stroke="#000000" points="832.6969,-355.0344 839.4034,-346.8324 829.0458,-349.062 832.6969,-355.0344"/>
</g>
<!-- mid&#45;&gt;rankdb -->
<g id="edge47" class="edge">
<title>mid&#45;&gt;rankdb</title>
<path fill="none" stroke="#000000" d="M519.9616,-544.8133C581.3261,-514.6257 758.3448,-426.5009 901.0675,-345.1727 935.807,-325.3769 974.6493,-301.0017 1000.8058,-284.2454"/>
<polygon fill="#000000" stroke="#000000" points="1002.9815,-287.0076 1009.5011,-278.6563 999.1965,-281.1192 1002.9815,-287.0076"/>
</g>
<!-- cid&#45;&gt;list -->
<g id="edge6" class="edge">
<title>cid&#45;&gt;list</title>
<path fill="none" stroke="#000000" d="M499.9568,-468.4213C469.5056,-466.9569 419.8688,-464.57 385.8334,-462.9334"/>
<polygon fill="#000000" stroke="#000000" points="385.9667,-459.4358 375.8101,-462.4514 385.6304,-466.4277 385.9667,-459.4358"/>
</g>
<!-- roomid&#45;&gt;topList -->
<g id="edge40" class="edge">
<title>roomid&#45;&gt;topList</title>
<path fill="none" stroke="#000000" d="M615.9588,-528.55C687.6013,-496.953 882.746,-410.8869 963.8579,-375.1134"/>
<polygon fill="#000000" stroke="#000000" points="965.4311,-378.245 973.1684,-371.0072 962.6063,-371.8402 965.4311,-378.245"/>
</g>
<!-- roomid&#45;&gt;fullTopList -->
<g id="edge43" class="edge">
<title>roomid&#45;&gt;fullTopList</title>
<path fill="none" stroke="#000000" d="M608.8341,-525.399C656.6622,-489.1342 778.5388,-396.7233 835.1434,-353.8039"/>
<polygon fill="#000000" stroke="#000000" points="837.4721,-356.4305 843.3259,-347.5996 833.2428,-350.8526 837.4721,-356.4305"/>
</g>
<!-- roomid&#45;&gt;getAnchorInRoom -->
<g id="edge46" class="edge">
<title>roomid&#45;&gt;getAnchorInRoom</title>
<path fill="none" stroke="#000000" d="M601.203,-523.3512C633.5707,-478.0403 721.7537,-354.5948 760.6616,-300.1284"/>
<polygon fill="#000000" stroke="#000000" points="763.7186,-301.8703 766.6834,-291.6987 758.0226,-297.8014 763.7186,-301.8703"/>
</g>
<!-- roomid&#45;&gt;online -->
<g id="edge24" class="edge">
<title>roomid&#45;&gt;online</title>
<path fill="none" stroke="#000000" d="M591.1897,-522.3107C596.0533,-482.1524 607.7617,-385.475 613.5795,-337.4371"/>
<polygon fill="#000000" stroke="#000000" points="617.0651,-337.7661 614.7929,-327.4178 610.1159,-336.9245 617.0651,-337.7661"/>
</g>
<!-- aid -->
<g id="node38" class="node">
<title>aid</title>
<ellipse fill="none" stroke="#000000" cx="266.7772" cy="-886.3003" rx="27" ry="18"/>
<text text-anchor="middle" x="266.7772" y="-882.1003" font-family="Times,serif" font-size="14.00" fill="#000000">aid</text>
</g>
<!-- aid&#45;&gt;view -->
<g id="edge5" class="edge">
<title>aid&#45;&gt;view</title>
<path fill="none" stroke="#000000" d="M271.3911,-868.5004C281.9725,-828.1907 309.2842,-726.9945 337.8619,-644.1617 346.5854,-618.8766 357.9792,-590.6272 366.3964,-570.4828"/>
<polygon fill="#000000" stroke="#000000" points="369.7258,-571.5947 370.3805,-561.0201 363.2743,-568.8783 369.7258,-571.5947"/>
</g>
<!-- p -->
<g id="node39" class="node">
<title>p</title>
<ellipse fill="none" stroke="#000000" cx="574.1972" cy="-735.4286" rx="27" ry="18"/>
<text text-anchor="middle" x="574.1972" y="-731.2286" font-family="Times,serif" font-size="14.00" fill="#000000">p</text>
</g>
<!-- p&#45;&gt;cid -->
<g id="edge37" class="edge">
<title>p&#45;&gt;cid</title>
<path fill="none" stroke="#000000" stroke-dasharray="1,5" d="M570.9552,-717.1656C562.8575,-671.5492 541.7027,-552.379 532.0105,-497.7804"/>
<polygon fill="#000000" stroke="#000000" points="535.4262,-496.9969 530.2322,-487.7626 528.534,-498.2205 535.4262,-496.9969"/>
</g>
<!-- page -->
<g id="node40" class="node">
<title>page</title>
<ellipse fill="none" stroke="#000000" cx="991.5007" cy="-154.3593" rx="27" ry="18"/>
<text text-anchor="middle" x="991.5007" y="-150.1593" font-family="Times,serif" font-size="14.00" fill="#000000">page</text>
</g>
<!-- page&#45;&gt;topList -->
<g id="edge42" class="edge">
<title>page&#45;&gt;topList</title>
<path fill="none" stroke="#000000" stroke-dasharray="1,5" d="M991.9857,-172.6681C992.5893,-194.5123 993.7079,-232.1357 995.0649,-264.4147 996.0064,-286.8111 997.3312,-312.171 998.3659,-331.0186"/>
<polygon fill="#000000" stroke="#000000" points="994.8724,-331.2344 998.9216,-341.0249 1001.8617,-330.8462 994.8724,-331.2344"/>
</g>
</g>
</svg>
