<?xml version="1.0" encoding="UTF-8" standalone="no"?>
<!DOCTYPE svg PUBLIC "-//W3C//DTD SVG 1.1//EN"
 "http://www.w3.org/Graphics/SVG/1.1/DTD/svg11.dtd">
<!-- Generated by graphviz version 2.43.0 (0)
 -->
<!-- Title: G Pages: 1 -->
<svg width="1397pt" height="1066pt"
 viewBox="0.00 0.00 1397.00 1066.00" xmlns="http://www.w3.org/2000/svg" xmlns:xlink="http://www.w3.org/1999/xlink">
<g id="graph0" class="graph" transform="scale(1 1) rotate(0) translate(4 1062)">
<title>G</title>
<polygon fill="white" stroke="transparent" points="-4,4 -4,-1062 1393,-1062 1393,4 -4,4"/>
<g id="clust1" class="cluster">
<title>cluster_api.bilibili.com</title>
<polygon fill="none" stroke="black" points="325.88,-610.29 325.88,-993.29 801.88,-993.29 801.88,-610.29 325.88,-610.29"/>
<text text-anchor="middle" x="563.88" y="-978.09" font-family="Times,serif" font-size="14.00">api.bilibili.com</text>
</g>
<g id="clust2" class="cluster">
<title>cluster_api.live.bilibili.com</title>
<polygon fill="none" stroke="black" points="722.89,-277.37 722.89,-486.37 1004.89,-486.37 1004.89,-277.37 722.89,-277.37"/>
<text text-anchor="middle" x="863.89" y="-471.17" font-family="Times,serif" font-size="14.00">api.live.bilibili.com</text>
</g>
<g id="clust3" class="cluster">
<title>cluster_data</title>
<polygon fill="none" stroke="black" points="0.41,-0.36 0.41,-591.36 710.41,-591.36 710.41,-0.36 0.41,-0.36"/>
<text text-anchor="middle" x="355.41" y="-576.16" font-family="Times,serif" font-size="14.00">data</text>
</g>
<g id="clust4" class="cluster">
<title>cluster_input</title>
<polygon fill="none" stroke="black" points="838.91,-690.09 838.91,-894.09 1021.91,-894.09 1021.91,-690.09 838.91,-690.09"/>
<text text-anchor="middle" x="930.41" y="-878.89" font-family="Times,serif" font-size="14.00">input</text>
</g>
<!-- stat -->
<g id="node1" class="node">
<title>stat</title>
<ellipse fill="none" stroke="black" cx="731.22" cy="-721.94" rx="27" ry="18"/>
<text text-anchor="middle" x="731.22" y="-717.74" font-family="Times,serif" font-size="14.00">stat</text>
</g>
<!-- follower -->
<g id="node18" class="node">
<title>follower</title>
<ellipse fill="none" stroke="black" cx="428.61" cy="-135.08" rx="40.13" ry="18"/>
<text text-anchor="middle" x="428.61" y="-130.88" font-family="Times,serif" font-size="14.00">follower</text>
</g>
<!-- stat&#45;&gt;follower -->
<g id="edge18" class="edge">
<title>stat&#45;&gt;follower</title>
<path fill="none" stroke="black" d="M725.83,-704.01C712.75,-662.1 676.68,-555.31 626.33,-476.77 598.97,-434.1 570.86,-441.94 541.29,-400.77 484.01,-321.05 487.6,-290.28 451.21,-199.11 446.5,-187.29 441.74,-174.06 437.81,-162.7"/>
<polygon fill="black" stroke="black" points="441,-161.22 434.46,-152.89 434.38,-163.48 441,-161.22"/>
</g>
<!-- archiveStat -->
<g id="node2" class="node">
<title>archiveStat</title>
<ellipse fill="none" stroke="black" cx="531" cy="-929.45" rx="49.77" ry="18"/>
<text text-anchor="middle" x="531" y="-925.25" font-family="Times,serif" font-size="14.00">archiveStat</text>
</g>
<!-- bvid -->
<g id="node47" class="node">
<title>bvid</title>
<ellipse fill="none" stroke="black" cx="982.34" cy="-846.5" rx="27" ry="18"/>
<text text-anchor="middle" x="982.34" y="-842.3" font-family="Times,serif" font-size="14.00">bvid</text>
</g>
<!-- archiveStat&#45;&gt;bvid -->
<g id="edge52" class="edge">
<title>archiveStat&#45;&gt;bvid</title>
<path fill="none" stroke="black" d="M576.75,-921.86C624.34,-913.89 701,-900.84 767.05,-888.67 830.2,-877.03 903.55,-862.43 946.28,-853.82"/>
<polygon fill="black" stroke="black" points="947.09,-857.23 956.2,-851.82 945.7,-850.37 947.09,-857.23"/>
</g>
<!-- upstat -->
<g id="node3" class="node">
<title>upstat</title>
<ellipse fill="none" stroke="black" cx="648.35" cy="-776.94" rx="31.46" ry="18"/>
<text text-anchor="middle" x="648.35" y="-772.74" font-family="Times,serif" font-size="14.00">upstat</text>
</g>
<!-- archiveView -->
<g id="node37" class="node">
<title>archiveView</title>
<ellipse fill="none" stroke="black" cx="317.3" cy="-60.04" rx="54.51" ry="18"/>
<text text-anchor="middle" x="317.3" y="-55.84" font-family="Times,serif" font-size="14.00">archiveView</text>
</g>
<!-- upstat&#45;&gt;archiveView -->
<g id="edge40" class="edge">
<title>upstat&#45;&gt;archiveView</title>
<path fill="none" stroke="black" d="M650.07,-758.67C652.02,-731.34 653.37,-678.54 639.81,-636.44 614.07,-556.47 574.81,-552.53 539.04,-476.52 509.49,-413.74 520.18,-390.82 490.29,-328.2 445.03,-233.35 371.86,-131.83 336.99,-85.6"/>
<polygon fill="black" stroke="black" points="339.78,-83.48 330.94,-77.63 334.2,-87.71 339.78,-83.48"/>
</g>
<!-- articleView -->
<g id="node38" class="node">
<title>articleView</title>
<ellipse fill="none" stroke="black" cx="593.71" cy="-400.92" rx="50.65" ry="18"/>
<text text-anchor="middle" x="593.71" y="-396.72" font-family="Times,serif" font-size="14.00">articleView</text>
</g>
<!-- upstat&#45;&gt;articleView -->
<g id="edge41" class="edge">
<title>upstat&#45;&gt;articleView</title>
<path fill="none" stroke="black" d="M649.16,-758.66C650.8,-711.29 652.39,-580.94 626.33,-476.77 622.12,-459.94 614.59,-442.06 607.83,-427.9"/>
<polygon fill="black" stroke="black" points="610.88,-426.16 603.33,-418.74 604.6,-429.26 610.88,-426.16"/>
</g>
<!-- info -->
<g id="node4" class="node">
<title>info</title>
<ellipse fill="none" stroke="black" cx="767.15" cy="-869.07" rx="27" ry="18"/>
<text text-anchor="middle" x="767.15" y="-864.87" font-family="Times,serif" font-size="14.00">info</text>
</g>
<!-- uname -->
<g id="node19" class="node">
<title>uname</title>
<ellipse fill="none" stroke="black" cx="365.78" cy="-204.48" rx="33.86" ry="18"/>
<text text-anchor="middle" x="365.78" y="-200.28" font-family="Times,serif" font-size="14.00">uname</text>
</g>
<!-- info&#45;&gt;uname -->
<g id="edge19" class="edge">
<title>info&#45;&gt;uname</title>
<path fill="none" stroke="black" d="M765.37,-850.92C763.68,-837.83 760.52,-819.9 754.81,-804.98 752.23,-798.26 750.3,-797.19 746.46,-791.09 701.84,-720.24 575.47,-551.91 539.04,-476.52 508.84,-414.05 521.07,-390.39 490.29,-328.2 468.52,-284.2 424.84,-246.59 395.45,-224.74"/>
<polygon fill="black" stroke="black" points="397.35,-221.79 387.2,-218.74 393.23,-227.45 397.35,-221.79"/>
</g>
<!-- sign -->
<g id="node20" class="node">
<title>sign</title>
<ellipse fill="none" stroke="black" cx="35.35" cy="-289.82" rx="27" ry="18"/>
<text text-anchor="middle" x="35.35" y="-285.62" font-family="Times,serif" font-size="14.00">sign</text>
</g>
<!-- info&#45;&gt;sign -->
<g id="edge20" class="edge">
<title>info&#45;&gt;sign</title>
<path fill="none" stroke="black" d="M748.12,-856.22C735.09,-846.81 717.96,-833.2 705.36,-818.65 700.64,-813.21 700.66,-810.97 697.01,-804.76 689.84,-792.54 688.67,-789.12 681.18,-777.1 656.84,-738.08 651.36,-726.5 617,-695.94 588.73,-670.78 576.09,-672.04 545.16,-650.23 441.7,-577.31 418.06,-555.84 320.6,-475.08 243.02,-410.8 236.43,-376.86 148.73,-327.26 124.37,-313.49 94.16,-303.83 71.06,-297.77"/>
<polygon fill="black" stroke="black" points="71.86,-294.36 61.31,-295.32 70.15,-301.15 71.86,-294.36"/>
</g>
<!-- coins -->
<g id="node21" class="node">
<title>coins</title>
<ellipse fill="none" stroke="black" cx="411.32" cy="-54.28" rx="28.55" ry="18"/>
<text text-anchor="middle" x="411.32" y="-50.08" font-family="Times,serif" font-size="14.00">coins</text>
</g>
<!-- info&#45;&gt;coins -->
<g id="edge21" class="edge">
<title>info&#45;&gt;coins</title>
<path fill="none" stroke="black" d="M765.37,-850.92C763.68,-837.83 760.52,-819.9 754.81,-804.98 752.23,-798.26 750.3,-797.19 746.46,-791.09 701.84,-720.24 575.06,-552.11 539.04,-476.52 535.56,-469.22 451.28,-207.2 451.21,-199.11 450.96,-169.44 475.3,-164.37 470.27,-135.12 466.31,-112.09 450.23,-90.94 435.86,-76.05"/>
<polygon fill="black" stroke="black" points="438.15,-73.39 428.58,-68.86 433.23,-78.38 438.15,-73.39"/>
</g>
<!-- face -->
<g id="node39" class="node">
<title>face</title>
<ellipse fill="none" stroke="black" cx="596.39" cy="-145.63" rx="27" ry="18"/>
<text text-anchor="middle" x="596.39" y="-141.43" font-family="Times,serif" font-size="14.00">face</text>
</g>
<!-- info&#45;&gt;face -->
<g id="edge42" class="edge">
<title>info&#45;&gt;face</title>
<path fill="none" stroke="black" d="M767.72,-850.78C768.26,-822.79 768.02,-767.76 759.82,-721.95 741.67,-620.44 667.3,-371.26 620.83,-279.2 608.19,-254.15 590.23,-255.48 583.6,-228.21 579.18,-210.05 582.45,-189.27 586.78,-173.09"/>
<polygon fill="black" stroke="black" points="590.23,-173.78 589.72,-163.2 583.52,-171.79 590.23,-173.78"/>
</g>
<!-- topPhoto -->
<g id="node40" class="node">
<title>topPhoto</title>
<ellipse fill="none" stroke="black" cx="582.68" cy="-476.65" rx="42.1" ry="18"/>
<text text-anchor="middle" x="582.68" y="-472.45" font-family="Times,serif" font-size="14.00">topPhoto</text>
</g>
<!-- info&#45;&gt;topPhoto -->
<g id="edge43" class="edge">
<title>info&#45;&gt;topPhoto</title>
<path fill="none" stroke="black" d="M765.37,-850.92C763.68,-837.83 760.52,-819.9 754.81,-804.98 752.23,-798.26 750.26,-797.21 746.46,-791.09 731.06,-766.29 726.42,-760.58 710.99,-735.79 660.84,-655.21 614.79,-552.32 594.13,-504.01"/>
<polygon fill="black" stroke="black" points="597.24,-502.4 590.11,-494.56 590.8,-505.13 597.24,-502.4"/>
</g>
<!-- view -->
<g id="node5" class="node">
<title>view</title>
<ellipse fill="none" stroke="black" cx="725.91" cy="-804.87" rx="27.1" ry="18"/>
<text text-anchor="middle" x="725.91" y="-800.67" font-family="Times,serif" font-size="14.00">view</text>
</g>
<!-- cids -->
<g id="node43" class="node">
<title>cids</title>
<ellipse fill="none" stroke="black" cx="485.31" cy="-516.28" rx="27" ry="18"/>
<text text-anchor="middle" x="485.31" y="-512.08" font-family="Times,serif" font-size="14.00">cids</text>
</g>
<!-- view&#45;&gt;cids -->
<g id="edge46" class="edge">
<title>view&#45;&gt;cids</title>
<path fill="none" stroke="black" d="M719.58,-787.34C707.44,-755.22 678.61,-685.72 639.81,-636.44 604.56,-591.65 549.18,-553.97 515.18,-533.31"/>
<polygon fill="black" stroke="black" points="516.57,-530.07 506.19,-527.95 512.98,-536.08 516.57,-530.07"/>
</g>
<!-- mid -->
<g id="node45" class="node">
<title>mid</title>
<ellipse fill="none" stroke="black" cx="986.87" cy="-768.05" rx="27" ry="18"/>
<text text-anchor="middle" x="986.87" y="-763.85" font-family="Times,serif" font-size="14.00">mid</text>
</g>
<!-- view&#45;&gt;mid -->
<g id="edge49" class="edge">
<title>view&#45;&gt;mid</title>
<path fill="none" stroke="black" stroke-dasharray="5,2" d="M749.67,-795.93C780.04,-785.14 834.5,-767.92 882.93,-763.76 905.05,-761.86 929.89,-762.77 949.73,-764.24"/>
<polygon fill="black" stroke="black" points="949.65,-767.74 959.91,-765.07 950.22,-760.77 949.65,-767.74"/>
</g>
<!-- cid -->
<g id="node48" class="node">
<title>cid</title>
<ellipse fill="none" stroke="black" cx="938.72" cy="-715.89" rx="27" ry="18"/>
<text text-anchor="middle" x="938.72" y="-711.69" font-family="Times,serif" font-size="14.00">cid</text>
</g>
<!-- view&#45;&gt;cid -->
<g id="edge53" class="edge">
<title>view&#45;&gt;cid</title>
<path fill="none" stroke="black" d="M749.09,-795.18C787.15,-779.27 862.97,-747.56 906.32,-729.44"/>
<polygon fill="black" stroke="black" points="907.69,-732.66 915.57,-725.57 904.99,-726.2 907.69,-732.66"/>
</g>
<!-- list -->
<g id="node6" class="node">
<title>list</title>
<ellipse fill="none" stroke="black" cx="689.35" cy="-945.77" rx="27" ry="18"/>
<text text-anchor="middle" x="689.35" y="-941.57" font-family="Times,serif" font-size="14.00">list</text>
</g>
<!-- spaceSearch -->
<g id="node7" class="node">
<title>spaceSearch</title>
<ellipse fill="none" stroke="black" cx="584.41" cy="-636.4" rx="53.61" ry="18"/>
<text text-anchor="middle" x="584.41" y="-632.2" font-family="Times,serif" font-size="14.00">spaceSearch</text>
</g>
<!-- video -->
<g id="node22" class="node">
<title>video</title>
<ellipse fill="none" stroke="black" cx="252.73" cy="-335.52" rx="29.51" ry="18"/>
<text text-anchor="middle" x="252.73" y="-331.32" font-family="Times,serif" font-size="14.00">video</text>
</g>
<!-- spaceSearch&#45;&gt;video -->
<g id="edge22" class="edge">
<title>spaceSearch&#45;&gt;video</title>
<path fill="none" stroke="black" d="M561.87,-619.73C536.38,-600.16 494.58,-565.8 465.03,-530.1 448.02,-509.55 454.47,-498.07 440.65,-475.25 418.74,-439.1 410.85,-429.81 376.83,-404.71 347.84,-383.32 311.53,-363.81 285.69,-351.01"/>
<polygon fill="black" stroke="black" points="287.2,-347.85 276.68,-346.6 284.12,-354.14 287.2,-347.85"/>
</g>
<!-- getSubmitVideosPage -->
<g id="node25" class="node">
<title>getSubmitVideosPage</title>
<ellipse fill="none" stroke="black" cx="346.09" cy="-263.98" rx="88.37" ry="18"/>
<text text-anchor="middle" x="346.09" y="-259.78" font-family="Times,serif" font-size="14.00">getSubmitVideosPage</text>
</g>
<!-- spaceSearch&#45;&gt;getSubmitVideosPage -->
<g id="edge25" class="edge">
<title>spaceSearch&#45;&gt;getSubmitVideosPage</title>
<path fill="none" stroke="black" d="M573.95,-618.47C560.22,-594.98 535.37,-552.52 513.91,-516.34 510.25,-510.16 509.45,-508.54 505.6,-502.47 456.1,-424.32 394.48,-334.06 364.37,-290.38"/>
<polygon fill="black" stroke="black" points="367.17,-288.27 358.61,-282.03 361.41,-292.25 367.17,-288.27"/>
</g>
<!-- getAllSubmitVideos -->
<g id="node8" class="node">
<title>getAllSubmitVideos</title>
<ellipse fill="none" stroke="black" cx="533.11" cy="-695.74" rx="82.09" ry="18"/>
<text text-anchor="middle" x="533.11" y="-691.54" font-family="Times,serif" font-size="14.00">getAllSubmitVideos</text>
</g>
<!-- allVideos -->
<g id="node27" class="node">
<title>allVideos</title>
<ellipse fill="none" stroke="black" cx="116.58" cy="-341" rx="43.45" ry="18"/>
<text text-anchor="middle" x="116.58" y="-336.8" font-family="Times,serif" font-size="14.00">allVideos</text>
</g>
<!-- getAllSubmitVideos&#45;&gt;allVideos -->
<g id="edge27" class="edge">
<title>getAllSubmitVideos&#45;&gt;allVideos</title>
<path fill="none" stroke="black" d="M517.25,-677.8C475.27,-630.87 356.7,-501.88 243.09,-411.35 234.14,-404.22 231.28,-403.26 221.42,-397.46 199.02,-384.27 173.33,-370.42 152.98,-359.73"/>
<polygon fill="black" stroke="black" points="154.53,-356.59 144.05,-355.06 151.29,-362.8 154.53,-356.59"/>
</g>
<!-- getFollowers -->
<g id="node9" class="node">
<title>getFollowers</title>
<ellipse fill="none" stroke="black" cx="390.3" cy="-743.52" rx="56.07" ry="18"/>
<text text-anchor="middle" x="390.3" y="-739.32" font-family="Times,serif" font-size="14.00">getFollowers</text>
</g>
<!-- getFollowersPage -->
<g id="node28" class="node">
<title>getFollowersPage</title>
<ellipse fill="none" stroke="black" cx="168.02" cy="-411.24" rx="73.45" ry="18"/>
<text text-anchor="middle" x="168.02" y="-407.04" font-family="Times,serif" font-size="14.00">getFollowersPage</text>
</g>
<!-- getFollowers&#45;&gt;getFollowersPage -->
<g id="edge28" class="edge">
<title>getFollowers&#45;&gt;getFollowersPage</title>
<path fill="none" stroke="black" d="M378.35,-725.65C341.49,-670.55 229.42,-503.02 185.73,-437.7"/>
<polygon fill="black" stroke="black" points="188.5,-435.55 180.03,-429.19 182.68,-439.45 188.5,-435.55"/>
</g>
<!-- getAllFollowers -->
<g id="node10" class="node">
<title>getAllFollowers</title>
<ellipse fill="none" stroke="black" cx="621.58" cy="-870.35" rx="67.67" ry="18"/>
<text text-anchor="middle" x="621.58" y="-866.15" font-family="Times,serif" font-size="14.00">getAllFollowers</text>
</g>
<!-- allFollowers -->
<g id="node29" class="node">
<title>allFollowers</title>
<ellipse fill="none" stroke="black" cx="564.83" cy="-26.09" rx="54.14" ry="18"/>
<text text-anchor="middle" x="564.83" y="-21.89" font-family="Times,serif" font-size="14.00">allFollowers</text>
</g>
<!-- getAllFollowers&#45;&gt;allFollowers -->
<g id="edge29" class="edge">
<title>getAllFollowers&#45;&gt;allFollowers</title>
<path fill="none" stroke="black" d="M619.12,-852.07C616.88,-833.21 614.12,-802.95 615.52,-776.77 618.89,-713.56 633.55,-699.43 639.81,-636.44 655.55,-478.22 685.33,-424.53 620.83,-279.2 609.45,-253.55 594.78,-253.95 583.6,-228.21 558.51,-170.47 559.3,-94.91 562.07,-54.5"/>
<polygon fill="black" stroke="black" points="565.57,-54.55 562.86,-44.31 558.59,-54.01 565.57,-54.55"/>
</g>
<!-- search -->
<g id="node11" class="node">
<title>search</title>
<ellipse fill="none" stroke="black" cx="537.94" cy="-784.64" rx="32.88" ry="18"/>
<text text-anchor="middle" x="537.94" y="-780.44" font-family="Times,serif" font-size="14.00">search</text>
</g>
<!-- search&#45;&gt;mid -->
<g id="edge50" class="edge">
<title>search&#45;&gt;mid</title>
<path fill="none" stroke="black" stroke-dasharray="5,2" d="M569.18,-790.12C591.17,-793.47 621.35,-797.02 648.07,-796.54 683.09,-795.91 691.39,-790.15 726.07,-785.27 795.75,-775.46 812.64,-767.11 882.93,-763.76 905.11,-762.71 929.94,-763.65 949.78,-764.92"/>
<polygon fill="black" stroke="black" points="949.73,-768.43 959.94,-765.63 950.21,-761.44 949.73,-768.43"/>
</g>
<!-- _notice -->
<g id="node12" class="node">
<title>_notice</title>
<ellipse fill="none" stroke="black" cx="389.84" cy="-862.55" rx="36.27" ry="18"/>
<text text-anchor="middle" x="389.84" y="-858.35" font-family="Times,serif" font-size="14.00">_notice</text>
</g>
<!-- notice -->
<g id="node36" class="node">
<title>notice</title>
<ellipse fill="none" stroke="black" cx="456.98" cy="-328.03" rx="31.93" ry="18"/>
<text text-anchor="middle" x="456.98" y="-323.83" font-family="Times,serif" font-size="14.00">notice</text>
</g>
<!-- _notice&#45;&gt;notice -->
<g id="edge39" class="edge">
<title>_notice&#45;&gt;notice</title>
<path fill="none" stroke="black" d="M401.29,-845.35C415.44,-823.02 438.78,-782.31 448.18,-743.67 448.25,-743.37 454.42,-449.78 456.39,-356.28"/>
<polygon fill="black" stroke="black" points="459.89,-356.21 456.6,-346.14 452.89,-356.06 459.89,-356.21"/>
</g>
<!-- getRoomInfoOld -->
<g id="node13" class="node">
<title>getRoomInfoOld</title>
<ellipse fill="none" stroke="black" cx="926.35" cy="-438.86" rx="70.56" ry="18"/>
<text text-anchor="middle" x="926.35" y="-434.66" font-family="Times,serif" font-size="14.00">getRoomInfoOld</text>
</g>
<!-- roomStatus -->
<g id="node31" class="node">
<title>roomStatus</title>
<ellipse fill="none" stroke="black" cx="157.42" cy="-94.67" rx="50.29" ry="18"/>
<text text-anchor="middle" x="157.42" y="-90.47" font-family="Times,serif" font-size="14.00">roomStatus</text>
</g>
<!-- getRoomInfoOld&#45;&gt;roomStatus -->
<g id="edge31" class="edge">
<title>getRoomInfoOld&#45;&gt;roomStatus</title>
<path fill="none" stroke="black" d="M886.63,-423.96C804.96,-393.16 620.84,-322.91 560.52,-292.95 481.7,-253.8 472.06,-224.83 390.93,-190.73 341.24,-169.85 323.49,-180.54 273.51,-160.34 243.94,-148.39 212.59,-130.3 189.93,-116.12"/>
<polygon fill="black" stroke="black" points="191.71,-113.11 181.39,-110.71 187.96,-119.02 191.71,-113.11"/>
</g>
<!-- roundStatus -->
<g id="node32" class="node">
<title>roundStatus</title>
<ellipse fill="none" stroke="black" cx="176.9" cy="-265.34" rx="52.22" ry="18"/>
<text text-anchor="middle" x="176.9" y="-261.14" font-family="Times,serif" font-size="14.00">roundStatus</text>
</g>
<!-- getRoomInfoOld&#45;&gt;roundStatus -->
<g id="edge33" class="edge">
<title>getRoomInfoOld&#45;&gt;roundStatus</title>
<path fill="none" stroke="black" d="M886.86,-423.89C866.35,-416.36 840.78,-407.36 817.59,-400.31 659.48,-352.21 619.29,-341.04 457.27,-308.43 381.6,-293.2 293.48,-280.46 236.53,-272.88"/>
<polygon fill="black" stroke="black" points="236.64,-269.36 226.27,-271.53 235.72,-276.3 236.64,-269.36"/>
</g>
<!-- liveStatus -->
<g id="node33" class="node">
<title>liveStatus</title>
<ellipse fill="none" stroke="black" cx="137.52" cy="-151.41" rx="44.98" ry="18"/>
<text text-anchor="middle" x="137.52" y="-147.21" font-family="Times,serif" font-size="14.00">liveStatus</text>
</g>
<!-- getRoomInfoOld&#45;&gt;liveStatus -->
<g id="edge35" class="edge">
<title>getRoomInfoOld&#45;&gt;liveStatus</title>
<path fill="none" stroke="black" d="M885.29,-424.08C769.93,-382.44 444.6,-264.24 340.64,-218.23 312.95,-205.97 308.18,-198.27 280.01,-187.18 250.52,-175.58 216.09,-166.81 188.46,-160.86"/>
<polygon fill="black" stroke="black" points="189.12,-157.42 178.62,-158.8 187.68,-164.27 189.12,-157.42"/>
</g>
<!-- title -->
<g id="node34" class="node">
<title>title</title>
<ellipse fill="none" stroke="black" cx="259.78" cy="-201.04" rx="27" ry="18"/>
<text text-anchor="middle" x="259.78" y="-196.84" font-family="Times,serif" font-size="14.00">title</text>
</g>
<!-- getRoomInfoOld&#45;&gt;title -->
<g id="edge36" class="edge">
<title>getRoomInfoOld&#45;&gt;title</title>
<path fill="none" stroke="black" d="M886.69,-423.84C800.37,-391.28 588.91,-312.14 410.17,-250.25 370.52,-236.53 324.65,-221.66 294.09,-211.9"/>
<polygon fill="black" stroke="black" points="294.94,-208.5 284.35,-208.8 292.82,-215.17 294.94,-208.5"/>
</g>
<!-- online -->
<g id="node35" class="node">
<title>online</title>
<ellipse fill="none" stroke="black" cx="670.2" cy="-298.67" rx="32.42" ry="18"/>
<text text-anchor="middle" x="670.2" y="-294.47" font-family="Times,serif" font-size="14.00">online</text>
</g>
<!-- getRoomInfoOld&#45;&gt;online -->
<g id="edge38" class="edge">
<title>getRoomInfoOld&#45;&gt;online</title>
<path fill="none" stroke="black" d="M885.23,-424.21C849.69,-410.79 797.54,-389.25 755.29,-364.27 733.96,-351.66 711.86,-334.47 695.52,-320.85"/>
<polygon fill="black" stroke="black" points="697.44,-317.89 687.54,-314.1 692.91,-323.23 697.44,-317.89"/>
</g>
<!-- roomid -->
<g id="node49" class="node">
<title>roomid</title>
<ellipse fill="none" stroke="black" cx="882.82" cy="-783.36" rx="35.81" ry="18"/>
<text text-anchor="middle" x="882.82" y="-779.16" font-family="Times,serif" font-size="14.00">roomid</text>
</g>
<!-- getRoomInfoOld&#45;&gt;roomid -->
<g id="edge55" class="edge">
<title>getRoomInfoOld&#45;&gt;roomid</title>
<path fill="none" stroke="black" d="M924.07,-456.9C916.95,-513.27 895.06,-686.48 886.4,-755.02"/>
<polygon fill="black" stroke="black" points="882.91,-754.73 885.12,-765.09 889.85,-755.61 882.91,-754.73"/>
</g>
<!-- topList -->
<g id="node14" class="node">
<title>topList</title>
<ellipse fill="none" stroke="black" cx="935.5" cy="-386.4" rx="35.33" ry="18"/>
<text text-anchor="middle" x="935.5" y="-382.2" font-family="Times,serif" font-size="14.00">topList</text>
</g>
<!-- guardNum -->
<g id="node23" class="node">
<title>guardNum</title>
<ellipse fill="none" stroke="black" cx="341.8" cy="-418.57" rx="47.86" ry="18"/>
<text text-anchor="middle" x="341.8" y="-414.37" font-family="Times,serif" font-size="14.00">guardNum</text>
</g>
<!-- topList&#45;&gt;guardNum -->
<g id="edge23" class="edge">
<title>topList&#45;&gt;guardNum</title>
<path fill="none" stroke="black" d="M900.25,-387.38C868.97,-388.45 822.08,-390.56 781.41,-394.44 697.39,-402.44 677.54,-415.04 593.32,-420.52 527.07,-424.83 450.81,-423.34 399.79,-421.41"/>
<polygon fill="black" stroke="black" points="399.74,-417.9 389.61,-421 399.47,-424.9 399.74,-417.9"/>
</g>
<!-- topListPage -->
<g id="node24" class="node">
<title>topListPage</title>
<ellipse fill="none" stroke="black" cx="505.17" cy="-199.23" rx="52.21" ry="18"/>
<text text-anchor="middle" x="505.17" y="-195.03" font-family="Times,serif" font-size="14.00">topListPage</text>
</g>
<!-- topList&#45;&gt;topListPage -->
<g id="edge24" class="edge">
<title>topList&#45;&gt;topListPage</title>
<path fill="none" stroke="black" d="M908.01,-374.79C850.6,-350.51 713.84,-292.43 599.8,-242.09 582.15,-234.3 562.72,-225.53 546.08,-217.97"/>
<polygon fill="black" stroke="black" points="547.2,-214.63 536.64,-213.67 544.29,-221 547.2,-214.63"/>
</g>
<!-- fullTopList -->
<g id="node15" class="node">
<title>fullTopList</title>
<ellipse fill="none" stroke="black" cx="780.92" cy="-414.03" rx="49.55" ry="18"/>
<text text-anchor="middle" x="780.92" y="-409.83" font-family="Times,serif" font-size="14.00">fullTopList</text>
</g>
<!-- guards -->
<g id="node26" class="node">
<title>guards</title>
<ellipse fill="none" stroke="black" cx="585.55" cy="-279.14" rx="33.87" ry="18"/>
<text text-anchor="middle" x="585.55" y="-274.94" font-family="Times,serif" font-size="14.00">guards</text>
</g>
<!-- fullTopList&#45;&gt;guards -->
<g id="edge26" class="edge">
<title>fullTopList&#45;&gt;guards</title>
<path fill="none" stroke="black" d="M757.74,-398.03C722.03,-373.37 653.62,-326.14 614.64,-299.22"/>
<polygon fill="black" stroke="black" points="616.54,-296.28 606.33,-293.48 612.57,-302.04 616.54,-296.28"/>
</g>
<!-- getInfoByRoom -->
<g id="node16" class="node">
<title>getInfoByRoom</title>
<ellipse fill="none" stroke="black" cx="909.35" cy="-303.86" rx="67.67" ry="18"/>
<text text-anchor="middle" x="909.35" y="-299.66" font-family="Times,serif" font-size="14.00">getInfoByRoom</text>
</g>
<!-- anchorScore -->
<g id="node41" class="node">
<title>anchorScore</title>
<ellipse fill="none" stroke="black" cx="639.5" cy="-228.29" rx="54.11" ry="18"/>
<text text-anchor="middle" x="639.5" y="-224.09" font-family="Times,serif" font-size="14.00">anchorScore</text>
</g>
<!-- getInfoByRoom&#45;&gt;anchorScore -->
<g id="edge44" class="edge">
<title>getInfoByRoom&#45;&gt;anchorScore</title>
<path fill="none" stroke="black" d="M862.66,-290.79C814.81,-277.39 740.62,-256.61 691.07,-242.73"/>
<polygon fill="black" stroke="black" points="691.77,-239.3 681.2,-239.97 689.89,-246.04 691.77,-239.3"/>
</g>
<!-- liveStartTime -->
<g id="node44" class="node">
<title>liveStartTime</title>
<ellipse fill="none" stroke="black" cx="380.62" cy="-475.17" rx="58.35" ry="18"/>
<text text-anchor="middle" x="380.62" y="-470.97" font-family="Times,serif" font-size="14.00">liveStartTime</text>
</g>
<!-- getInfoByRoom&#45;&gt;liveStartTime -->
<g id="edge47" class="edge">
<title>getInfoByRoom&#45;&gt;liveStartTime</title>
<path fill="none" stroke="black" d="M856.06,-315C833.05,-319.84 805.84,-325.6 781.3,-330.9 680.82,-352.56 653.26,-351.11 556.92,-386.96 506.57,-405.69 451.68,-434.62 416.75,-454.19"/>
<polygon fill="black" stroke="black" points="414.87,-451.24 407.88,-459.2 418.31,-457.33 414.87,-451.24"/>
</g>
<!-- getInfoByRoom&#45;&gt;mid -->
<g id="edge48" class="edge">
<title>getInfoByRoom&#45;&gt;mid</title>
<path fill="none" stroke="black" stroke-dasharray="5,2" d="M927.34,-321.44C950.22,-345.39 988.04,-390.85 998.48,-438.89 1022.21,-548.07 1002.95,-682.36 992.5,-739.81"/>
<polygon fill="black" stroke="black" points="989,-739.46 990.6,-749.93 995.88,-740.75 989,-739.46"/>
</g>
<!-- rankdb -->
<g id="node17" class="node">
<title>rankdb</title>
<ellipse fill="none" stroke="black" cx="781.08" cy="-350.49" rx="34.83" ry="18"/>
<text text-anchor="middle" x="781.08" y="-346.29" font-family="Times,serif" font-size="14.00">rankdb</text>
</g>
<!-- areaRank -->
<g id="node42" class="node">
<title>areaRank</title>
<ellipse fill="none" stroke="black" cx="305.56" cy="-146.55" rx="43.49" ry="18"/>
<text text-anchor="middle" x="305.56" y="-142.35" font-family="Times,serif" font-size="14.00">areaRank</text>
</g>
<!-- rankdb&#45;&gt;areaRank -->
<g id="edge45" class="edge">
<title>rankdb&#45;&gt;areaRank</title>
<path fill="none" stroke="black" d="M763.97,-334.74C747.25,-320.06 720.53,-298.45 694.13,-284.83 599.97,-236.23 566.39,-249.19 466.8,-213.01 424.76,-197.73 377.55,-177.96 345.13,-163.96"/>
<polygon fill="black" stroke="black" points="346.14,-160.59 335.57,-159.82 343.35,-167.01 346.14,-160.59"/>
</g>
<!-- uname&#45;&gt;search -->
<g id="edge16" class="edge">
<title>uname&#45;&gt;search</title>
<path fill="none" stroke="black" d="M390.62,-216.71C407.6,-226.73 428.34,-242.76 435.87,-264.17 445.43,-291.36 424.74,-299.05 423.67,-327.85 421.21,-393.75 435.59,-409.5 440.65,-475.25 448.17,-572.95 410.07,-605.73 449.23,-695.55 461.72,-724.21 488.02,-748.7 508.75,-764.7"/>
<polygon fill="black" stroke="black" points="506.85,-767.65 516.95,-770.82 511.03,-762.04 506.85,-767.65"/>
</g>
<!-- topListPage&#45;&gt;fullTopList -->
<g id="edge62" class="edge">
<title>topListPage&#45;&gt;fullTopList</title>
<path fill="none" stroke="black" d="M535.34,-214.29C557.58,-226.28 587.81,-244.45 610.58,-265.32 629.97,-283.09 627.66,-293.94 646.26,-312.52 677.62,-343.83 718.96,-373.6 747.53,-392.71"/>
<polygon fill="black" stroke="black" points="745.68,-395.68 755.96,-398.28 749.55,-389.85 745.68,-395.68"/>
</g>
<!-- getSubmitVideosPage&#45;&gt;getAllSubmitVideos -->
<g id="edge9" class="edge">
<title>getSubmitVideosPage&#45;&gt;getAllSubmitVideos</title>
<path fill="none" stroke="black" d="M354.48,-281.95C371.34,-318.24 410.33,-403 440.65,-475.25 448.22,-493.29 449.32,-498.12 456.72,-516.22 478.82,-570.3 505.82,-633 521.08,-668.15"/>
<polygon fill="black" stroke="black" points="518.05,-669.95 525.24,-677.72 524.47,-667.16 518.05,-669.95"/>
</g>
<!-- guardLevel -->
<g id="node30" class="node">
<title>guardLevel</title>
<ellipse fill="none" stroke="black" cx="199.46" cy="-542.91" rx="50.25" ry="18"/>
<text text-anchor="middle" x="199.46" y="-538.71" font-family="Times,serif" font-size="14.00">guardLevel</text>
</g>
<!-- guards&#45;&gt;guardLevel -->
<g id="edge30" class="edge">
<title>guards&#45;&gt;guardLevel</title>
<path fill="none" stroke="black" d="M566.34,-294.01C529.97,-322 448.3,-384.02 376.82,-432.43 328.37,-465.25 270.55,-500.58 234.41,-522.22"/>
<polygon fill="black" stroke="black" points="232.5,-519.29 225.71,-527.42 236.09,-525.3 232.5,-519.29"/>
</g>
<!-- getFollowersPage&#45;&gt;getAllFollowers -->
<g id="edge14" class="edge">
<title>getFollowersPage&#45;&gt;getAllFollowers</title>
<path fill="none" stroke="black" d="M181.42,-429.28C225,-487.26 368.33,-672.35 513.61,-798.45 535.43,-817.4 562.51,-835.41 584.08,-848.67"/>
<polygon fill="black" stroke="black" points="582.29,-851.68 592.66,-853.88 585.92,-845.7 582.29,-851.68"/>
</g>
<!-- roomStatus&#45;&gt;roundStatus -->
<g id="edge32" class="edge">
<title>roomStatus&#45;&gt;roundStatus</title>
<path fill="none" stroke="black" d="M168.53,-112.34C174.62,-123.2 181.46,-137.66 184.1,-151.6 189.57,-180.42 186.29,-214.02 182.55,-237.19"/>
<polygon fill="black" stroke="black" points="179.11,-236.59 180.84,-247.04 186,-237.79 179.11,-236.59"/>
</g>
<!-- roomStatus&#45;&gt;liveStatus -->
<g id="edge34" class="edge">
<title>roomStatus&#45;&gt;liveStatus</title>
<path fill="none" stroke="black" d="M151.12,-112.63C149.89,-116.14 148.57,-119.91 147.25,-123.66"/>
<polygon fill="black" stroke="black" points="143.85,-122.78 143.84,-133.38 150.45,-125.1 143.85,-122.78"/>
</g>
<!-- liveStatus&#45;&gt;online -->
<g id="edge37" class="edge">
<title>liveStatus&#45;&gt;online</title>
<path fill="none" stroke="black" d="M180.67,-156.61C226.76,-162.42 301.86,-172.64 366.07,-184.88 377.22,-187 380.02,-187.6 390.93,-190.73 440.48,-204.94 563.49,-244.36 610.58,-265.32 620.25,-269.63 630.43,-274.98 639.58,-280.13"/>
<polygon fill="black" stroke="black" points="637.92,-283.22 648.33,-285.17 641.41,-277.15 637.92,-283.22"/>
</g>
<!-- mid&#45;&gt;stat -->
<g id="edge1" class="edge">
<title>mid&#45;&gt;stat</title>
<path fill="none" stroke="black" d="M960.47,-763.29C914.52,-755 819.77,-737.91 767.62,-728.5"/>
<polygon fill="black" stroke="black" points="767.94,-725.01 757.48,-726.68 766.7,-731.89 767.94,-725.01"/>
</g>
<!-- mid&#45;&gt;upstat -->
<g id="edge3" class="edge">
<title>mid&#45;&gt;upstat</title>
<path fill="none" stroke="black" d="M959.96,-766.22C938.98,-764.97 909.12,-763.57 882.93,-763.76 815.05,-764.27 736.3,-769.68 689.49,-773.41"/>
<polygon fill="black" stroke="black" points="689.12,-769.93 679.43,-774.23 689.68,-776.91 689.12,-769.93"/>
</g>
<!-- mid&#45;&gt;info -->
<g id="edge4" class="edge">
<title>mid&#45;&gt;info</title>
<path fill="none" stroke="black" d="M964.59,-778.29C925.36,-796.33 843.83,-833.81 798.78,-854.52"/>
<polygon fill="black" stroke="black" points="797.11,-851.44 789.49,-858.8 800.03,-857.8 797.11,-851.44"/>
</g>
<!-- mid&#45;&gt;spaceSearch -->
<g id="edge7" class="edge">
<title>mid&#45;&gt;spaceSearch</title>
<path fill="none" stroke="black" d="M962.6,-760.11C897.71,-738.89 719.31,-680.53 632.76,-652.22"/>
<polygon fill="black" stroke="black" points="633.77,-648.86 623.17,-649.08 631.59,-655.52 633.77,-648.86"/>
</g>
<!-- mid&#45;&gt;getAllSubmitVideos -->
<g id="edge10" class="edge">
<title>mid&#45;&gt;getAllSubmitVideos</title>
<path fill="none" stroke="black" d="M959.85,-766.35C913.05,-763.17 813.96,-755.34 731.21,-741.54 685.35,-733.89 634.23,-721.99 595.41,-712.23"/>
<polygon fill="black" stroke="black" points="595.87,-708.74 585.31,-709.67 594.15,-715.52 595.87,-708.74"/>
</g>
<!-- mid&#45;&gt;getFollowers -->
<g id="edge11" class="edge">
<title>mid&#45;&gt;getFollowers</title>
<path fill="none" stroke="black" d="M959.51,-766.92C938.55,-766.05 908.92,-764.83 882.93,-763.76 730.27,-757.48 551,-750.11 456.44,-746.23"/>
<polygon fill="black" stroke="black" points="456.58,-742.74 446.45,-745.82 456.3,-749.73 456.58,-742.74"/>
</g>
<!-- mid&#45;&gt;getAllFollowers -->
<g id="edge13" class="edge">
<title>mid&#45;&gt;getAllFollowers</title>
<path fill="none" stroke="black" d="M963.61,-777.55C948.27,-783.63 927.66,-791.43 909.07,-797.27 832.43,-821.32 742.46,-843.19 683.85,-856.62"/>
<polygon fill="black" stroke="black" points="682.97,-853.23 674,-858.86 684.53,-860.05 682.97,-853.23"/>
</g>
<!-- mid&#45;&gt;_notice -->
<g id="edge17" class="edge">
<title>mid&#45;&gt;_notice</title>
<path fill="none" stroke="black" d="M963.68,-777.78C948.37,-783.95 927.76,-791.77 909.07,-797.27 897.57,-800.65 894.51,-800.88 882.7,-802.96 719.36,-831.75 523.11,-850.93 435.71,-858.68"/>
<polygon fill="black" stroke="black" points="435.25,-855.2 425.6,-859.57 435.87,-862.18 435.25,-855.2"/>
</g>
<!-- mid&#45;&gt;getRoomInfoOld -->
<g id="edge56" class="edge">
<title>mid&#45;&gt;getRoomInfoOld</title>
<path fill="none" stroke="black" d="M983.53,-749.88C973.5,-695.36 943.63,-532.87 931.53,-467.03"/>
<polygon fill="black" stroke="black" points="934.93,-466.17 929.68,-456.97 928.05,-467.44 934.93,-466.17"/>
</g>
<!-- mid&#45;&gt;topList -->
<g id="edge58" class="edge">
<title>mid&#45;&gt;topList</title>
<path fill="none" stroke="black" d="M992.71,-750.24C1008.46,-699.06 1047.37,-548.25 998.48,-438.89 992.31,-425.08 980.42,-413.7 968.62,-405.1"/>
<polygon fill="black" stroke="black" points="970.36,-402.06 960.12,-399.34 966.43,-407.85 970.36,-402.06"/>
</g>
<!-- mid&#45;&gt;fullTopList -->
<g id="edge61" class="edge">
<title>mid&#45;&gt;fullTopList</title>
<path fill="none" stroke="black" d="M981.09,-750.4C977.54,-740.18 972.65,-727.18 967.32,-716.05 964.22,-709.57 962.82,-708.29 959.11,-702.14 900.54,-605.24 829.29,-491.15 797.55,-440.52"/>
<polygon fill="black" stroke="black" points="800.38,-438.44 792.1,-431.83 794.45,-442.16 800.38,-438.44"/>
</g>
<!-- mid&#45;&gt;rankdb -->
<g id="edge64" class="edge">
<title>mid&#45;&gt;rankdb</title>
<path fill="none" stroke="black" d="M981.06,-750.28C963.24,-697.01 906.07,-534.89 832.29,-414.22 823.83,-400.38 812.72,-386.2 803.01,-374.74"/>
<polygon fill="black" stroke="black" points="805.44,-372.2 796.25,-366.92 800.14,-376.78 805.44,-372.2"/>
</g>
<!-- dynamicsRaw -->
<g id="node53" class="node">
<title>dynamicsRaw</title>
<ellipse fill="none" stroke="black" cx="1196.67" cy="-699.78" rx="60.42" ry="18"/>
<text text-anchor="middle" x="1196.67" y="-695.58" font-family="Times,serif" font-size="14.00">dynamicsRaw</text>
</g>
<!-- mid&#45;&gt;dynamicsRaw -->
<g id="edge65" class="edge">
<title>mid&#45;&gt;dynamicsRaw</title>
<path fill="none" stroke="black" d="M1011.34,-760.08C1044.24,-749.38 1103.49,-730.1 1146.16,-716.21"/>
<polygon fill="black" stroke="black" points="1147.38,-719.5 1155.81,-713.07 1145.21,-712.84 1147.38,-719.5"/>
</g>
<!-- aid -->
<g id="node46" class="node">
<title>aid</title>
<ellipse fill="none" stroke="black" cx="899.51" cy="-837.95" rx="27" ry="18"/>
<text text-anchor="middle" x="899.51" y="-833.75" font-family="Times,serif" font-size="14.00">aid</text>
</g>
<!-- aid&#45;&gt;archiveStat -->
<g id="edge2" class="edge">
<title>aid&#45;&gt;archiveStat</title>
<path fill="none" stroke="black" d="M876.57,-848C854.08,-857.65 818.7,-872.29 787.3,-882.97 721.68,-905.3 642.75,-917.55 589.98,-923.79"/>
<polygon fill="black" stroke="black" points="589.32,-920.34 579.79,-924.96 590.12,-927.3 589.32,-920.34"/>
</g>
<!-- aid&#45;&gt;aid -->
<g id="edge51" class="edge">
<title>aid&#45;&gt;aid</title>
<path fill="none" stroke="black" d="M924.95,-844.64C935.54,-845.1 944.51,-842.87 944.51,-837.95 944.51,-834.72 940.65,-832.65 935,-831.73"/>
<polygon fill="black" stroke="black" points="935.11,-828.24 924.95,-831.26 934.78,-835.23 935.11,-828.24"/>
</g>
<!-- bvid&#45;&gt;view -->
<g id="edge5" class="edge">
<title>bvid&#45;&gt;view</title>
<path fill="none" stroke="black" d="M958.73,-837.68C947.09,-833.43 932.81,-828.36 919.87,-824.19 911,-821.32 908.89,-820.01 899.71,-818.35 853.29,-809.92 798.97,-806.76 763.57,-805.58"/>
<polygon fill="black" stroke="black" points="763.32,-802.07 753.22,-805.27 763.11,-809.06 763.32,-802.07"/>
</g>
<!-- cid&#45;&gt;list -->
<g id="edge6" class="edge">
<title>cid&#45;&gt;list</title>
<path fill="none" stroke="black" d="M917.53,-727.34C879.69,-748.59 799.52,-797.27 746.99,-855.16 729.2,-874.77 713.41,-900.51 702.88,-919.54"/>
<polygon fill="black" stroke="black" points="699.68,-918.09 698,-928.55 705.84,-921.42 699.68,-918.09"/>
</g>
<!-- roomid&#45;&gt;topList -->
<g id="edge57" class="edge">
<title>roomid&#45;&gt;topList</title>
<path fill="none" stroke="black" d="M875.32,-765.72C854.1,-712.89 798.62,-552.62 854.22,-438.83 862.81,-421.27 880.4,-408.83 897.02,-400.5"/>
<polygon fill="black" stroke="black" points="898.51,-403.67 906.1,-396.28 895.56,-397.32 898.51,-403.67"/>
</g>
<!-- roomid&#45;&gt;fullTopList -->
<g id="edge60" class="edge">
<title>roomid&#45;&gt;fullTopList</title>
<path fill="none" stroke="black" d="M877.83,-765.3C861.34,-705.53 808.47,-513.89 788.58,-441.8"/>
<polygon fill="black" stroke="black" points="791.93,-440.77 785.89,-432.06 785.18,-442.63 791.93,-440.77"/>
</g>
<!-- roomid&#45;&gt;getInfoByRoom -->
<g id="edge63" class="edge">
<title>roomid&#45;&gt;getInfoByRoom</title>
<path fill="none" stroke="black" d="M878.35,-765.32C866.28,-713.99 835.17,-562.82 854.22,-438.83 860.28,-399.4 879.78,-357.35 893.87,-330.86"/>
<polygon fill="black" stroke="black" points="897.08,-332.3 898.79,-321.84 890.93,-328.95 897.08,-332.3"/>
</g>
<!-- page -->
<g id="node50" class="node">
<title>page</title>
<ellipse fill="none" stroke="black" cx="747.97" cy="-526.09" rx="27" ry="18"/>
<text text-anchor="middle" x="747.97" y="-521.89" font-family="Times,serif" font-size="14.00">page</text>
</g>
<!-- page&#45;&gt;spaceSearch -->
<g id="edge8" class="edge">
<title>page&#45;&gt;spaceSearch</title>
<path fill="none" stroke="black" stroke-dasharray="1,5" d="M728.89,-538.96C701.42,-557.48 650.39,-591.9 616.92,-614.48"/>
<polygon fill="black" stroke="black" points="614.73,-611.73 608.39,-620.22 618.64,-617.53 614.73,-611.73"/>
</g>
<!-- page&#45;&gt;getFollowers -->
<g id="edge12" class="edge">
<title>page&#45;&gt;getFollowers</title>
<path fill="none" stroke="black" stroke-dasharray="1,5" d="M724.68,-535.32C686.14,-551 607.2,-584.82 545.3,-622.51 499.49,-650.41 491.38,-662.38 449.23,-695.55 439.1,-703.51 428.13,-712.38 418.42,-720.31"/>
<polygon fill="black" stroke="black" points="416.14,-717.66 410.62,-726.7 420.57,-723.07 416.14,-717.66"/>
</g>
<!-- page&#45;&gt;topList -->
<g id="edge59" class="edge">
<title>page&#45;&gt;topList</title>
<path fill="none" stroke="black" stroke-dasharray="1,5" d="M764.45,-511.61C784.96,-493.81 821.32,-462.99 854.22,-438.83 863.29,-432.18 865.97,-431.1 875.42,-424.98 884.96,-418.8 895.37,-412.1 904.81,-406.04"/>
<polygon fill="black" stroke="black" points="906.97,-408.81 913.5,-400.47 903.19,-402.92 906.97,-408.81"/>
</g>
<!-- SESSDATA -->
<g id="node51" class="node">
<title>SESSDATA</title>
<ellipse fill="none" stroke="black" cx="307.14" cy="-1037.09" rx="53.28" ry="18"/>
<text text-anchor="middle" x="307.14" y="-1032.89" font-family="Times,serif" font-size="14.00">SESSDATA</text>
</g>
<!-- SESSDATA&#45;&gt;getAllFollowers -->
<g id="edge15" class="edge">
<title>SESSDATA&#45;&gt;getAllFollowers</title>
<path fill="none" stroke="black" stroke-dasharray="1,5" d="M328.95,-1020.53C362.94,-995.31 431.25,-946.88 494.76,-915.53 517.4,-904.35 543.51,-894.57 566.13,-886.99"/>
<polygon fill="black" stroke="black" points="567.52,-890.22 575.93,-883.77 565.33,-883.57 567.52,-890.22"/>
</g>
<!-- p -->
<g id="node52" class="node">
<title>p</title>
<ellipse fill="none" stroke="black" cx="893.13" cy="-1039.74" rx="27" ry="18"/>
<text text-anchor="middle" x="893.13" y="-1035.54" font-family="Times,serif" font-size="14.00">p</text>
</g>
<!-- p&#45;&gt;cid -->
<g id="edge54" class="edge">
<title>p&#45;&gt;cid</title>
<path fill="none" stroke="black" stroke-dasharray="1,5" d="M896.78,-1021.74C903.8,-986.59 919.25,-906.27 928.11,-838.08 932.27,-806.08 935.22,-769.14 936.94,-744.32"/>
<polygon fill="black" stroke="black" points="940.44,-744.37 937.62,-734.16 933.46,-743.9 940.44,-744.37"/>
</g>
<!-- dynamics -->
<g id="node55" class="node">
<title>dynamics</title>
<ellipse fill="none" stroke="black" cx="1344.84" cy="-801.57" rx="44" ry="18"/>
<text text-anchor="middle" x="1344.84" y="-797.37" font-family="Times,serif" font-size="14.00">dynamics</text>
</g>
<!-- dynamicsRaw&#45;&gt;dynamics -->
<g id="edge67" class="edge">
<title>dynamicsRaw&#45;&gt;dynamics</title>
<path fill="none" stroke="black" d="M1220.81,-716.36C1246.11,-733.74 1285.97,-761.13 1313.65,-780.14"/>
<polygon fill="black" stroke="black" points="1311.95,-783.22 1322.17,-786 1315.91,-777.45 1311.95,-783.22"/>
</g>
<!-- dynamicOffset -->
<g id="node54" class="node">
<title>dynamicOffset</title>
<ellipse fill="none" stroke="black" cx="1288.98" cy="-517.82" rx="62.51" ry="18"/>
<text text-anchor="middle" x="1288.98" y="-513.62" font-family="Times,serif" font-size="14.00">dynamicOffset</text>
</g>
<!-- dynamicOffset&#45;&gt;dynamicsRaw -->
<g id="edge66" class="edge">
<title>dynamicOffset&#45;&gt;dynamicsRaw</title>
<path fill="none" stroke="black" d="M1279.79,-535.93C1263.55,-567.95 1229.68,-634.71 1210.57,-672.38"/>
<polygon fill="black" stroke="black" points="1207.22,-671.24 1205.82,-681.74 1213.47,-674.4 1207.22,-671.24"/>
</g>
</g>
</svg>
