<?xml version="1.0" encoding="UTF-8" standalone="no"?>
<!DOCTYPE svg PUBLIC "-//W3C//DTD SVG 1.1//EN"
 "http://www.w3.org/Graphics/SVG/1.1/DTD/svg11.dtd">
<!-- Generated by graphviz version 2.43.0 (0)
 -->
<!-- Title: G Pages: 1 -->
<svg width="1347pt" height="1572pt"
 viewBox="0.00 0.00 1347.00 1572.00" xmlns="http://www.w3.org/2000/svg" xmlns:xlink="http://www.w3.org/1999/xlink">
<g id="graph0" class="graph" transform="scale(1 1) rotate(0) translate(4 1568)">
<title>G</title>
<polygon fill="white" stroke="transparent" points="-4,4 -4,-1568 1343,-1568 1343,4 -4,4"/>
<g id="clust1" class="cluster">
<title>cluster_api.bilibili.com</title>
<polygon fill="none" stroke="black" points="594.96,-825.72 594.96,-1221.72 1141.96,-1221.72 1141.96,-825.72 594.96,-825.72"/>
<text text-anchor="middle" x="868.46" y="-1206.52" font-family="Times,serif" font-size="14.00">api.bilibili.com</text>
</g>
<g id="clust2" class="cluster">
<title>cluster_api.live.bilibili.com</title>
<polygon fill="none" stroke="black" points="714.54,-601.29 714.54,-803.29 1129.54,-803.29 1129.54,-601.29 714.54,-601.29"/>
<text text-anchor="middle" x="922.04" y="-788.09" font-family="Times,serif" font-size="14.00">api.live.bilibili.com</text>
</g>
<g id="clust3" class="cluster">
<title>cluster_data</title>
<polygon fill="none" stroke="black" points="522.86,0.03 522.86,-579.97 1236.86,-579.97 1236.86,0.03 522.86,0.03"/>
<text text-anchor="middle" x="879.86" y="-564.77" font-family="Times,serif" font-size="14.00">data</text>
</g>
<g id="clust4" class="cluster">
<title>cluster_input</title>
<polygon fill="none" stroke="black" points="239.53,-518.91 239.53,-716.91 489.53,-716.91 489.53,-518.91 239.53,-518.91"/>
<text text-anchor="middle" x="364.53" y="-701.71" font-family="Times,serif" font-size="14.00">input</text>
</g>
<!-- stat -->
<g id="node1" class="node">
<title>stat</title>
<ellipse fill="none" stroke="black" cx="901.47" cy="-1173.28" rx="27" ry="18"/>
<text text-anchor="middle" x="901.47" y="-1169.08" font-family="Times,serif" font-size="14.00">stat</text>
</g>
<!-- follower -->
<g id="node19" class="node">
<title>follower</title>
<ellipse fill="none" stroke="black" cx="675.46" cy="-240.57" rx="40.13" ry="18"/>
<text text-anchor="middle" x="675.46" y="-236.37" font-family="Times,serif" font-size="14.00">follower</text>
</g>
<!-- stat&#45;&gt;follower -->
<g id="edge19" class="edge">
<title>stat&#45;&gt;follower</title>
<path fill="none" stroke="black" d="M894.13,-1155.67C877.15,-1114.77 833.94,-1010.09 799.84,-921.79 710.74,-691.13 667.86,-624.17 684.72,-377.48 687.02,-343.79 705.96,-337.42 703.13,-303.77 702.06,-291.03 697.07,-277.93 691.62,-266.98"/>
<polygon fill="black" stroke="black" points="694.6,-265.13 686.79,-257.97 688.43,-268.44 694.6,-265.13"/>
</g>
<!-- archiveStat -->
<g id="node2" class="node">
<title>archiveStat</title>
<ellipse fill="none" stroke="black" cx="736.57" cy="-1145.9" rx="49.77" ry="18"/>
<text text-anchor="middle" x="736.57" y="-1141.7" font-family="Times,serif" font-size="14.00">archiveStat</text>
</g>
<!-- bvid -->
<g id="node47" class="node">
<title>bvid</title>
<ellipse fill="none" stroke="black" cx="305.95" cy="-545.39" rx="27" ry="18"/>
<text text-anchor="middle" x="305.95" y="-541.19" font-family="Times,serif" font-size="14.00">bvid</text>
</g>
<!-- archiveStat&#45;&gt;bvid -->
<g id="edge52" class="edge">
<title>archiveStat&#45;&gt;bvid</title>
<path fill="none" stroke="black" d="M723.91,-1128.25C662.49,-1042.6 395.44,-670.2 323.73,-570.19"/>
<polygon fill="black" stroke="black" points="326.45,-567.98 317.78,-561.9 320.76,-572.06 326.45,-567.98"/>
</g>
<!-- upstat -->
<g id="node3" class="node">
<title>upstat</title>
<ellipse fill="none" stroke="black" cx="904.96" cy="-1100.3" rx="31.46" ry="18"/>
<text text-anchor="middle" x="904.96" y="-1096.1" font-family="Times,serif" font-size="14.00">upstat</text>
</g>
<!-- archiveView -->
<g id="node38" class="node">
<title>archiveView</title>
<ellipse fill="none" stroke="black" cx="871.14" cy="-411.67" rx="54.51" ry="18"/>
<text text-anchor="middle" x="871.14" y="-407.47" font-family="Times,serif" font-size="14.00">archiveView</text>
</g>
<!-- upstat&#45;&gt;archiveView -->
<g id="edge41" class="edge">
<title>upstat&#45;&gt;archiveView</title>
<path fill="none" stroke="black" d="M904.89,-1082C904.44,-1014.2 901.13,-777.59 876.59,-706.92 862.48,-666.31 830.22,-669.14 822.25,-626.89 809.38,-558.71 839.18,-479.31 857.72,-438.66"/>
<polygon fill="black" stroke="black" points="860.98,-439.97 862.05,-429.43 854.64,-437 860.98,-439.97"/>
</g>
<!-- articleView -->
<g id="node39" class="node">
<title>articleView</title>
<ellipse fill="none" stroke="black" cx="779.17" cy="-77.37" rx="50.65" ry="18"/>
<text text-anchor="middle" x="779.17" y="-73.17" font-family="Times,serif" font-size="14.00">articleView</text>
</g>
<!-- upstat&#45;&gt;articleView -->
<g id="edge42" class="edge">
<title>upstat&#45;&gt;articleView</title>
<path fill="none" stroke="black" d="M892.77,-1083.51C879.35,-1064.83 857.3,-1033.65 839.51,-1005.99 817.14,-971.2 815.44,-960.11 799.84,-921.79 706.59,-692.78 652.86,-622.69 684.72,-377.48 698.64,-270.31 746.99,-255.66 771.92,-150.51 775.36,-136.01 777.17,-119.52 778.12,-105.87"/>
<polygon fill="black" stroke="black" points="781.63,-105.81 778.72,-95.63 774.64,-105.41 781.63,-105.81"/>
</g>
<!-- navnum -->
<g id="node4" class="node">
<title>navnum</title>
<ellipse fill="none" stroke="black" cx="730.15" cy="-1049.42" rx="38.7" ry="18"/>
<text text-anchor="middle" x="730.15" y="-1045.22" font-family="Times,serif" font-size="14.00">navnum</text>
</g>
<!-- video -->
<g id="node23" class="node">
<title>video</title>
<ellipse fill="none" stroke="black" cx="664.48" cy="-47.54" rx="29.51" ry="18"/>
<text text-anchor="middle" x="664.48" y="-43.34" font-family="Times,serif" font-size="14.00">video</text>
</g>
<!-- navnum&#45;&gt;video -->
<g id="edge23" class="edge">
<title>navnum&#45;&gt;video</title>
<path fill="none" stroke="black" d="M734.64,-1031.48C739.1,-1012.26 745.39,-980.79 746.21,-953.19 750,-824.58 675.82,-505.83 684.72,-377.48 687.05,-343.79 695.38,-336.63 703.13,-303.77 709.72,-275.83 715.17,-269.36 717.12,-240.72 719.13,-211.21 716.1,-135.93 706.16,-108.07 701.49,-94.98 693.26,-82.08 685.33,-71.57"/>
<polygon fill="black" stroke="black" points="688.06,-69.37 679.11,-63.69 682.56,-73.71 688.06,-69.37"/>
</g>
<!-- info -->
<g id="node5" class="node">
<title>info</title>
<ellipse fill="none" stroke="black" cx="859.85" cy="-992.21" rx="27" ry="18"/>
<text text-anchor="middle" x="859.85" y="-988.01" font-family="Times,serif" font-size="14.00">info</text>
</g>
<!-- uname -->
<g id="node20" class="node">
<title>uname</title>
<ellipse fill="none" stroke="black" cx="1031.59" cy="-267.34" rx="33.86" ry="18"/>
<text text-anchor="middle" x="1031.59" y="-263.14" font-family="Times,serif" font-size="14.00">uname</text>
</g>
<!-- info&#45;&gt;uname -->
<g id="edge20" class="edge">
<title>info&#45;&gt;uname</title>
<path fill="none" stroke="black" d="M862.07,-974.06C868.75,-919.49 888.35,-760.29 890.08,-755.08 898.64,-729.39 906.35,-725.39 920.14,-702.09 940.13,-668.31 951.44,-663.17 966.51,-626.92 1013.74,-513.26 1016.17,-479.79 1031,-357.61 1033.52,-336.9 1033.57,-313.32 1033.05,-295.45"/>
<polygon fill="black" stroke="black" points="1036.55,-295.26 1032.68,-285.4 1029.55,-295.52 1036.55,-295.26"/>
</g>
<!-- sign -->
<g id="node21" class="node">
<title>sign</title>
<ellipse fill="none" stroke="black" cx="807.62" cy="-172.64" rx="27" ry="18"/>
<text text-anchor="middle" x="807.62" y="-168.44" font-family="Times,serif" font-size="14.00">sign</text>
</g>
<!-- info&#45;&gt;sign -->
<g id="edge21" class="edge">
<title>info&#45;&gt;sign</title>
<path fill="none" stroke="black" d="M843.83,-977.48C830.26,-964.16 811.25,-943.38 799.84,-921.79 684.28,-703.19 644.62,-621.48 684.72,-377.48 696.97,-302.91 754.05,-230.71 785.93,-195.29"/>
<polygon fill="black" stroke="black" points="788.53,-197.64 792.7,-187.9 783.37,-192.91 788.53,-197.64"/>
</g>
<!-- coins -->
<g id="node22" class="node">
<title>coins</title>
<ellipse fill="none" stroke="black" cx="559.74" cy="-293.02" rx="28.55" ry="18"/>
<text text-anchor="middle" x="559.74" y="-288.82" font-family="Times,serif" font-size="14.00">coins</text>
</g>
<!-- info&#45;&gt;coins -->
<g id="edge22" class="edge">
<title>info&#45;&gt;coins</title>
<path fill="none" stroke="black" d="M843.83,-977.48C830.26,-964.16 811.25,-943.38 799.84,-921.79 678.87,-692.94 728.65,-601.88 613.91,-369.84 604.6,-351.01 590.95,-331.69 579.69,-317.14"/>
<polygon fill="black" stroke="black" points="582.33,-314.83 573.38,-309.16 576.83,-319.17 582.33,-314.83"/>
</g>
<!-- face -->
<g id="node40" class="node">
<title>face</title>
<ellipse fill="none" stroke="black" cx="743.32" cy="-150.39" rx="27" ry="18"/>
<text text-anchor="middle" x="743.32" y="-146.19" font-family="Times,serif" font-size="14.00">face</text>
</g>
<!-- info&#45;&gt;face -->
<g id="edge43" class="edge">
<title>info&#45;&gt;face</title>
<path fill="none" stroke="black" d="M843.83,-977.48C830.26,-964.16 811.25,-943.38 799.84,-921.79 684.28,-703.19 666.91,-624.11 684.72,-377.48 685.08,-372.42 720.31,-237.94 735.97,-178.35"/>
<polygon fill="black" stroke="black" points="739.41,-179.03 738.56,-168.47 732.64,-177.25 739.41,-179.03"/>
</g>
<!-- topPhoto -->
<g id="node41" class="node">
<title>topPhoto</title>
<ellipse fill="none" stroke="black" cx="927.36" cy="-25.57" rx="42.1" ry="18"/>
<text text-anchor="middle" x="927.36" y="-21.37" font-family="Times,serif" font-size="14.00">topPhoto</text>
</g>
<!-- info&#45;&gt;topPhoto -->
<g id="edge44" class="edge">
<title>info&#45;&gt;topPhoto</title>
<path fill="none" stroke="black" d="M862.07,-974.06C868.75,-919.49 888.35,-760.29 890.08,-755.08 898.64,-729.39 906.35,-725.39 920.14,-702.09 940.13,-668.31 957.61,-665.15 966.51,-626.92 993.79,-509.76 945.14,-477.7 940.81,-357.49 937.26,-258.94 953.03,-234.02 945.93,-135.66 943.91,-107.59 938.2,-75.93 933.64,-53.8"/>
<polygon fill="black" stroke="black" points="937.01,-52.82 931.52,-43.76 930.17,-54.26 937.01,-52.82"/>
</g>
<!-- view -->
<g id="node6" class="node">
<title>view</title>
<ellipse fill="none" stroke="black" cx="1089.61" cy="-973.4" rx="27.1" ry="18"/>
<text text-anchor="middle" x="1089.61" y="-969.2" font-family="Times,serif" font-size="14.00">view</text>
</g>
<!-- cids -->
<g id="node44" class="node">
<title>cids</title>
<ellipse fill="none" stroke="black" cx="1057.34" cy="-438" rx="27" ry="18"/>
<text text-anchor="middle" x="1057.34" y="-433.8" font-family="Times,serif" font-size="14.00">cids</text>
</g>
<!-- view&#45;&gt;cids -->
<g id="edge47" class="edge">
<title>view&#45;&gt;cids</title>
<path fill="none" stroke="black" d="M1098.35,-956.15C1105.6,-940.84 1115.38,-917.65 1119.62,-896.2 1151.61,-734.05 1091.87,-536.37 1067.25,-465.17"/>
<polygon fill="black" stroke="black" points="1070.51,-463.87 1063.89,-455.6 1063.9,-466.2 1070.51,-463.87"/>
</g>
<!-- mid -->
<g id="node45" class="node">
<title>mid</title>
<ellipse fill="none" stroke="black" cx="330.03" cy="-668.47" rx="27" ry="18"/>
<text text-anchor="middle" x="330.03" y="-664.27" font-family="Times,serif" font-size="14.00">mid</text>
</g>
<!-- view&#45;&gt;mid -->
<g id="edge49" class="edge">
<title>view&#45;&gt;mid</title>
<path fill="none" stroke="black" stroke-dasharray="5,2" d="M1065.68,-964.55C1016.84,-946.41 902.23,-903.57 806.75,-865.65 639.06,-799.04 440.08,-715.16 362.9,-682.44"/>
<polygon fill="black" stroke="black" points="363.83,-679.03 353.25,-678.35 361.09,-685.48 363.83,-679.03"/>
</g>
<!-- cid -->
<g id="node48" class="node">
<title>cid</title>
<ellipse fill="none" stroke="black" cx="454.95" cy="-665.36" rx="27" ry="18"/>
<text text-anchor="middle" x="454.95" y="-661.16" font-family="Times,serif" font-size="14.00">cid</text>
</g>
<!-- view&#45;&gt;cid -->
<g id="edge53" class="edge">
<title>view&#45;&gt;cid</title>
<path fill="none" stroke="black" d="M1069.22,-961.14C1027.97,-936.52 931.4,-879.87 847.27,-837.98 716.48,-772.85 555.54,-706.08 487.63,-678.5"/>
<polygon fill="black" stroke="black" points="488.88,-675.23 478.3,-674.72 486.25,-681.72 488.88,-675.23"/>
</g>
<!-- list -->
<g id="node7" class="node">
<title>list</title>
<ellipse fill="none" stroke="black" cx="827.01" cy="-851.81" rx="27" ry="18"/>
<text text-anchor="middle" x="827.01" y="-847.61" font-family="Times,serif" font-size="14.00">list</text>
</g>
<!-- getSubmitVideos -->
<g id="node8" class="node">
<title>getSubmitVideos</title>
<ellipse fill="none" stroke="black" cx="673.62" cy="-953" rx="70.98" ry="18"/>
<text text-anchor="middle" x="673.62" y="-948.8" font-family="Times,serif" font-size="14.00">getSubmitVideos</text>
</g>
<!-- getSubmitVideosPage -->
<g id="node26" class="node">
<title>getSubmitVideosPage</title>
<ellipse fill="none" stroke="black" cx="805.81" cy="-310" rx="88.37" ry="18"/>
<text text-anchor="middle" x="805.81" y="-305.8" font-family="Times,serif" font-size="14.00">getSubmitVideosPage</text>
</g>
<!-- getSubmitVideos&#45;&gt;getSubmitVideosPage -->
<g id="edge26" class="edge">
<title>getSubmitVideos&#45;&gt;getSubmitVideosPage</title>
<path fill="none" stroke="black" d="M673.08,-934.74C671.81,-872.27 672.01,-662.03 725.6,-500.11 745.36,-440.41 776.1,-437.15 796.52,-377.67 800.81,-365.18 803.13,-350.75 804.37,-338.43"/>
<polygon fill="black" stroke="black" points="807.88,-338.51 805.22,-328.25 800.9,-337.93 807.88,-338.51"/>
</g>
<!-- getAllSubmitVideos -->
<g id="node9" class="node">
<title>getAllSubmitVideos</title>
<ellipse fill="none" stroke="black" cx="1052.1" cy="-1122.55" rx="82.09" ry="18"/>
<text text-anchor="middle" x="1052.1" y="-1118.35" font-family="Times,serif" font-size="14.00">getAllSubmitVideos</text>
</g>
<!-- allVideos -->
<g id="node28" class="node">
<title>allVideos</title>
<ellipse fill="none" stroke="black" cx="770.67" cy="-500.23" rx="43.45" ry="18"/>
<text text-anchor="middle" x="770.67" y="-496.03" font-family="Times,serif" font-size="14.00">allVideos</text>
</g>
<!-- getAllSubmitVideos&#45;&gt;allVideos -->
<g id="edge28" class="edge">
<title>getAllSubmitVideos&#45;&gt;allVideos</title>
<path fill="none" stroke="black" d="M1057.27,-1104.39C1062.17,-1084.31 1067.88,-1051.16 1061.16,-1023.46 1059.07,-1014.87 893.69,-763.15 890.08,-755.08 881.01,-734.78 885.95,-727.08 876.59,-706.92 858.48,-667.93 842.54,-664.79 822.25,-626.89 804.74,-594.18 789.39,-554.22 780.08,-528.03"/>
<polygon fill="black" stroke="black" points="783.31,-526.67 776.71,-518.39 776.71,-528.98 783.31,-526.67"/>
</g>
<!-- getFollowers -->
<g id="node10" class="node">
<title>getFollowers</title>
<ellipse fill="none" stroke="black" cx="962.63" cy="-967.5" rx="56.07" ry="18"/>
<text text-anchor="middle" x="962.63" y="-963.3" font-family="Times,serif" font-size="14.00">getFollowers</text>
</g>
<!-- getFollowersPage -->
<g id="node29" class="node">
<title>getFollowersPage</title>
<ellipse fill="none" stroke="black" cx="1039.16" cy="-183.96" rx="73.45" ry="18"/>
<text text-anchor="middle" x="1039.16" y="-179.76" font-family="Times,serif" font-size="14.00">getFollowersPage</text>
</g>
<!-- getFollowers&#45;&gt;getFollowersPage -->
<g id="edge29" class="edge">
<title>getFollowers&#45;&gt;getFollowersPage</title>
<path fill="none" stroke="black" d="M967.27,-949.28C980.33,-897.7 1016.83,-751.27 1022.89,-702.16 1037.27,-585.57 1014.56,-554.52 1028.75,-437.91 1038.12,-360.81 1070.78,-344.94 1066.87,-267.37 1065.89,-247.93 1059.01,-227.16 1052.35,-211.21"/>
<polygon fill="black" stroke="black" points="1055.51,-209.7 1048.29,-201.95 1049.1,-212.52 1055.51,-209.7"/>
</g>
<!-- getAllFollowers -->
<g id="node11" class="node">
<title>getAllFollowers</title>
<ellipse fill="none" stroke="black" cx="1050.43" cy="-896.13" rx="67.67" ry="18"/>
<text text-anchor="middle" x="1050.43" y="-891.93" font-family="Times,serif" font-size="14.00">getAllFollowers</text>
</g>
<!-- allFollowers -->
<g id="node30" class="node">
<title>allFollowers</title>
<ellipse fill="none" stroke="black" cx="1159.84" cy="-232.5" rx="54.14" ry="18"/>
<text text-anchor="middle" x="1159.84" y="-228.3" font-family="Times,serif" font-size="14.00">allFollowers</text>
</g>
<!-- getAllFollowers&#45;&gt;allFollowers -->
<g id="edge30" class="edge">
<title>getAllFollowers&#45;&gt;allFollowers</title>
<path fill="none" stroke="black" d="M1059.87,-878.06C1076.45,-845.23 1110.27,-773.13 1123.17,-707.8 1138.37,-630.86 1117.4,-609.22 1126.94,-531.38 1136.47,-453.58 1159.02,-437.45 1165.87,-359.36 1168.84,-325.54 1166.06,-286.5 1163.36,-260.76"/>
<polygon fill="black" stroke="black" points="1166.82,-260.15 1162.23,-250.59 1159.86,-260.92 1166.82,-260.15"/>
</g>
<!-- search -->
<g id="node12" class="node">
<title>search</title>
<ellipse fill="none" stroke="black" cx="834.13" cy="-921.91" rx="32.88" ry="18"/>
<text text-anchor="middle" x="834.13" y="-917.71" font-family="Times,serif" font-size="14.00">search</text>
</g>
<!-- search&#45;&gt;mid -->
<g id="edge50" class="edge">
<title>search&#45;&gt;mid</title>
<path fill="none" stroke="black" stroke-dasharray="5,2" d="M809.81,-909.68C726.62,-867.86 453.38,-730.48 360.93,-684.01"/>
<polygon fill="black" stroke="black" points="362.31,-680.79 351.81,-679.42 359.17,-687.04 362.31,-680.79"/>
</g>
<!-- _notice -->
<g id="node13" class="node">
<title>_notice</title>
<ellipse fill="none" stroke="black" cx="1023.42" cy="-1023.43" rx="36.27" ry="18"/>
<text text-anchor="middle" x="1023.42" y="-1019.23" font-family="Times,serif" font-size="14.00">_notice</text>
</g>
<!-- notice -->
<g id="node37" class="node">
<title>notice</title>
<ellipse fill="none" stroke="black" cx="580.59" cy="-369.82" rx="31.93" ry="18"/>
<text text-anchor="middle" x="580.59" y="-365.62" font-family="Times,serif" font-size="14.00">notice</text>
</g>
<!-- _notice&#45;&gt;notice -->
<g id="edge40" class="edge">
<title>_notice&#45;&gt;notice</title>
<path fill="none" stroke="black" d="M1024.71,-1005.43C1024.97,-994.28 1024.32,-979.81 1020.51,-967.57 1012.29,-941.11 901.17,-780.46 890.08,-755.08 881.19,-734.71 887.18,-726.46 876.59,-706.92 837.88,-635.54 665.84,-456.78 603.37,-392.93"/>
<polygon fill="black" stroke="black" points="605.81,-390.42 596.31,-385.73 600.81,-395.32 605.81,-390.42"/>
</g>
<!-- getRoomInfoOld -->
<g id="node14" class="node">
<title>getRoomInfoOld</title>
<ellipse fill="none" stroke="black" cx="894.38" cy="-626.9" rx="70.56" ry="18"/>
<text text-anchor="middle" x="894.38" y="-622.7" font-family="Times,serif" font-size="14.00">getRoomInfoOld</text>
</g>
<!-- roomStatus -->
<g id="node32" class="node">
<title>roomStatus</title>
<ellipse fill="none" stroke="black" cx="1074.66" cy="-98.87" rx="50.29" ry="18"/>
<text text-anchor="middle" x="1074.66" y="-94.67" font-family="Times,serif" font-size="14.00">roomStatus</text>
</g>
<!-- getRoomInfoOld&#45;&gt;roomStatus -->
<g id="edge32" class="edge">
<title>getRoomInfoOld&#45;&gt;roomStatus</title>
<path fill="none" stroke="black" d="M897.18,-608.82C910.02,-525.92 962.69,-186.23 964.09,-183.88 980.99,-155.41 1011.37,-133.11 1036.02,-118.5"/>
<polygon fill="black" stroke="black" points="1037.86,-121.48 1044.8,-113.47 1034.39,-115.4 1037.86,-121.48"/>
</g>
<!-- roundStatus -->
<g id="node33" class="node">
<title>roundStatus</title>
<ellipse fill="none" stroke="black" cx="1078.69" cy="-54.78" rx="52.22" ry="18"/>
<text text-anchor="middle" x="1078.69" y="-50.58" font-family="Times,serif" font-size="14.00">roundStatus</text>
</g>
<!-- getRoomInfoOld&#45;&gt;roundStatus -->
<g id="edge34" class="edge">
<title>getRoomInfoOld&#45;&gt;roundStatus</title>
<path fill="none" stroke="black" d="M897.19,-608.66C909.98,-525.83 962.07,-188.95 964.09,-183.88 984.42,-132.92 995.55,-119.77 1037.98,-84.98 1041.11,-82.42 1044.42,-79.81 1047.76,-77.24"/>
<polygon fill="black" stroke="black" points="1050.13,-79.84 1056,-71.02 1045.91,-74.25 1050.13,-79.84"/>
</g>
<!-- liveStatus -->
<g id="node34" class="node">
<title>liveStatus</title>
<ellipse fill="none" stroke="black" cx="656.54" cy="-303.77" rx="44.98" ry="18"/>
<text text-anchor="middle" x="656.54" y="-299.57" font-family="Times,serif" font-size="14.00">liveStatus</text>
</g>
<!-- getRoomInfoOld&#45;&gt;liveStatus -->
<g id="edge36" class="edge">
<title>getRoomInfoOld&#45;&gt;liveStatus</title>
<path fill="none" stroke="black" d="M884.73,-608.99C870.84,-583.8 843.77,-536.88 815.74,-500.35 767.16,-437 729.47,-443.58 684.72,-377.48 675.32,-363.6 668.47,-346.16 663.88,-331.73"/>
<polygon fill="black" stroke="black" points="667.15,-330.42 660.94,-321.84 660.44,-332.42 667.15,-330.42"/>
</g>
<!-- title -->
<g id="node35" class="node">
<title>title</title>
<ellipse fill="none" stroke="black" cx="917.33" cy="-135.64" rx="27" ry="18"/>
<text text-anchor="middle" x="917.33" y="-131.44" font-family="Times,serif" font-size="14.00">title</text>
</g>
<!-- getRoomInfoOld&#45;&gt;title -->
<g id="edge37" class="edge">
<title>getRoomInfoOld&#45;&gt;title</title>
<path fill="none" stroke="black" d="M898.34,-608.9C906.16,-572.11 923.22,-485.55 927.5,-411.81 932.76,-321.23 924.7,-213.76 920.13,-163.79"/>
<polygon fill="black" stroke="black" points="923.6,-163.38 919.18,-153.75 916.63,-164.03 923.6,-163.38"/>
</g>
<!-- online -->
<g id="node36" class="node">
<title>online</title>
<ellipse fill="none" stroke="black" cx="672.35" cy="-107.89" rx="32.42" ry="18"/>
<text text-anchor="middle" x="672.35" y="-103.69" font-family="Times,serif" font-size="14.00">online</text>
</g>
<!-- getRoomInfoOld&#45;&gt;online -->
<g id="edge39" class="edge">
<title>getRoomInfoOld&#45;&gt;online</title>
<path fill="none" stroke="black" d="M887.83,-608.75C868.26,-554.75 810.76,-397.71 796.52,-377.67 769.44,-339.56 735.48,-352.45 716.03,-309.94 703.24,-281.96 721.86,-271.12 717.12,-240.72 711.21,-202.77 695.57,-161.13 684.44,-134.77"/>
<polygon fill="black" stroke="black" points="687.6,-133.25 680.43,-125.45 681.17,-136.02 687.6,-133.25"/>
</g>
<!-- roomid -->
<g id="node49" class="node">
<title>roomid</title>
<ellipse fill="none" stroke="black" cx="438" cy="-574.68" rx="35.81" ry="18"/>
<text text-anchor="middle" x="438" y="-570.48" font-family="Times,serif" font-size="14.00">roomid</text>
</g>
<!-- getRoomInfoOld&#45;&gt;roomid -->
<g id="edge55" class="edge">
<title>getRoomInfoOld&#45;&gt;roomid</title>
<path fill="none" stroke="black" d="M829.96,-619.53C736.25,-608.81 564.67,-589.17 483.22,-579.85"/>
<polygon fill="black" stroke="black" points="483.15,-576.32 472.81,-578.66 482.35,-583.28 483.15,-576.32"/>
</g>
<!-- topList -->
<g id="node15" class="node">
<title>topList</title>
<ellipse fill="none" stroke="black" cx="926.85" cy="-755.26" rx="35.33" ry="18"/>
<text text-anchor="middle" x="926.85" y="-751.06" font-family="Times,serif" font-size="14.00">topList</text>
</g>
<!-- guardNum -->
<g id="node24" class="node">
<title>guardNum</title>
<ellipse fill="none" stroke="black" cx="1116.35" cy="-359.25" rx="47.86" ry="18"/>
<text text-anchor="middle" x="1116.35" y="-355.05" font-family="Times,serif" font-size="14.00">guardNum</text>
</g>
<!-- topList&#45;&gt;guardNum -->
<g id="edge24" class="edge">
<title>topList&#45;&gt;guardNum</title>
<path fill="none" stroke="black" d="M921.56,-737.4C919.24,-727.01 917.57,-713.72 920.14,-702.09 921.03,-698.09 1075.32,-455.4 1077.48,-451.92 1081.28,-445.79 1082.75,-444.55 1085.94,-438.08 1094.15,-421.47 1101.66,-402.05 1107.16,-386.65"/>
<polygon fill="black" stroke="black" points="1110.48,-387.77 1110.48,-377.18 1103.87,-385.46 1110.48,-387.77"/>
</g>
<!-- topListPage -->
<g id="node25" class="node">
<title>topListPage</title>
<ellipse fill="none" stroke="black" cx="857.1" cy="-229.36" rx="52.21" ry="18"/>
<text text-anchor="middle" x="857.1" y="-225.16" font-family="Times,serif" font-size="14.00">topListPage</text>
</g>
<!-- topList&#45;&gt;topListPage -->
<g id="edge25" class="edge">
<title>topList&#45;&gt;topListPage</title>
<path fill="none" stroke="black" d="M921.6,-737.41C919.29,-727.02 917.62,-713.73 920.14,-702.09 928.46,-663.73 959.23,-665.49 966.51,-626.92 993.29,-485.07 910,-320.02 873.42,-256.33"/>
<polygon fill="black" stroke="black" points="876.24,-254.21 868.18,-247.34 870.19,-257.74 876.24,-254.21"/>
</g>
<!-- fullTopList -->
<g id="node16" class="node">
<title>fullTopList</title>
<ellipse fill="none" stroke="black" cx="971.51" cy="-702.12" rx="49.55" ry="18"/>
<text text-anchor="middle" x="971.51" y="-697.92" font-family="Times,serif" font-size="14.00">fullTopList</text>
</g>
<!-- guards -->
<g id="node27" class="node">
<title>guards</title>
<ellipse fill="none" stroke="black" cx="657.41" cy="-185.92" rx="33.87" ry="18"/>
<text text-anchor="middle" x="657.41" y="-181.72" font-family="Times,serif" font-size="14.00">guards</text>
</g>
<!-- fullTopList&#45;&gt;guards -->
<g id="edge27" class="edge">
<title>fullTopList&#45;&gt;guards</title>
<path fill="none" stroke="black" d="M973,-683.95C973.66,-668.36 973.1,-645.55 966.51,-626.92 927.45,-516.52 876.42,-511.08 814.79,-411.52 805.79,-396.98 807.24,-390.98 796.52,-377.67 767.19,-341.26 735.48,-352.45 716.03,-309.94 703.24,-281.96 727.6,-269.65 717.12,-240.72 711.92,-226.35 700.38,-214.31 688.82,-205.21"/>
<polygon fill="black" stroke="black" points="690.62,-202.19 680.49,-199.11 686.49,-207.84 690.62,-202.19"/>
</g>
<!-- getAnchorInRoom -->
<g id="node17" class="node">
<title>getAnchorInRoom</title>
<ellipse fill="none" stroke="black" cx="798.57" cy="-706.81" rx="76.34" ry="18"/>
<text text-anchor="middle" x="798.57" y="-702.61" font-family="Times,serif" font-size="14.00">getAnchorInRoom</text>
</g>
<!-- anchorScore -->
<g id="node42" class="node">
<title>anchorScore</title>
<ellipse fill="none" stroke="black" cx="740.62" cy="-377.58" rx="54.11" ry="18"/>
<text text-anchor="middle" x="740.62" y="-373.38" font-family="Times,serif" font-size="14.00">anchorScore</text>
</g>
<!-- getAnchorInRoom&#45;&gt;anchorScore -->
<g id="edge45" class="edge">
<title>getAnchorInRoom&#45;&gt;anchorScore</title>
<path fill="none" stroke="black" d="M788.94,-688.68C771,-653.53 733.57,-573.13 725.6,-500.11 722.06,-467.67 728.04,-430.48 733.47,-405.66"/>
<polygon fill="black" stroke="black" points="736.9,-406.36 735.74,-395.83 730.08,-404.79 736.9,-406.36"/>
</g>
<!-- getAnchorInRoom&#45;&gt;mid -->
<g id="edge48" class="edge">
<title>getAnchorInRoom&#45;&gt;mid</title>
<path fill="none" stroke="black" stroke-dasharray="5,2" d="M723.33,-703.5C653.58,-700.09 546.99,-693.98 454.72,-684.96 425.05,-682.06 391.58,-677.57 366.78,-674"/>
<polygon fill="black" stroke="black" points="367.13,-670.52 356.73,-672.54 366.12,-677.44 367.13,-670.52"/>
</g>
<!-- rankdb -->
<g id="node18" class="node">
<title>rankdb</title>
<ellipse fill="none" stroke="black" cx="1086.91" cy="-707.75" rx="34.83" ry="18"/>
<text text-anchor="middle" x="1086.91" y="-703.55" font-family="Times,serif" font-size="14.00">rankdb</text>
</g>
<!-- areaRank -->
<g id="node43" class="node">
<title>areaRank</title>
<ellipse fill="none" stroke="black" cx="985.91" cy="-357.55" rx="43.49" ry="18"/>
<text text-anchor="middle" x="985.91" y="-353.35" font-family="Times,serif" font-size="14.00">areaRank</text>
</g>
<!-- rankdb&#45;&gt;areaRank -->
<g id="edge46" class="edge">
<title>rankdb&#45;&gt;areaRank</title>
<path fill="none" stroke="black" d="M1081.76,-689.9C1065.32,-632.9 1013.98,-454.88 993.99,-385.56"/>
<polygon fill="black" stroke="black" points="997.3,-384.42 991.17,-375.78 990.57,-386.36 997.3,-384.42"/>
</g>
<!-- uname&#45;&gt;search -->
<g id="edge17" class="edge">
<title>uname&#45;&gt;search</title>
<path fill="none" stroke="black" d="M1032.68,-285.4C1033.5,-303.68 1034.02,-332.72 1031,-357.61 1016.17,-479.79 1013.74,-513.26 966.51,-626.92 951.44,-663.17 940.13,-668.31 920.14,-702.09 906.35,-725.39 901.12,-730.35 890.08,-755.08 878.77,-780.42 855.33,-853.82 842.68,-894.3"/>
<polygon fill="black" stroke="black" points="839.26,-893.48 839.63,-904.07 845.95,-895.56 839.26,-893.48"/>
</g>
<!-- topListPage&#45;&gt;fullTopList -->
<g id="edge62" class="edge">
<title>topListPage&#45;&gt;fullTopList</title>
<path fill="none" stroke="black" d="M866.56,-247.31C874.85,-263.45 886.91,-287.96 895.6,-310.07 948.38,-444.37 948.82,-483.7 966.51,-626.92 968.41,-642.34 969.63,-659.63 970.38,-673.75"/>
<polygon fill="black" stroke="black" points="966.89,-674.02 970.87,-683.83 973.88,-673.68 966.89,-674.02"/>
</g>
<!-- getSubmitVideosPage&#45;&gt;getAllSubmitVideos -->
<g id="edge10" class="edge">
<title>getSubmitVideosPage&#45;&gt;getAllSubmitVideos</title>
<path fill="none" stroke="black" d="M806.76,-328.11C808.54,-361.95 812.47,-437.06 815.74,-500.35 818.66,-556.59 804.32,-573.5 822.25,-626.89 835.93,-667.65 858.48,-667.93 876.59,-706.92 885.95,-727.08 881.01,-734.78 890.08,-755.08 893.69,-763.15 1059.07,-1014.87 1061.16,-1023.46 1066.86,-1046.94 1063.62,-1074.34 1059.52,-1094.37"/>
<polygon fill="black" stroke="black" points="1056.04,-1093.86 1057.27,-1104.39 1062.87,-1095.4 1056.04,-1093.86"/>
</g>
<!-- guardLevel -->
<g id="node31" class="node">
<title>guardLevel</title>
<ellipse fill="none" stroke="black" cx="1178.91" cy="-531.52" rx="50.25" ry="18"/>
<text text-anchor="middle" x="1178.91" y="-527.32" font-family="Times,serif" font-size="14.00">guardLevel</text>
</g>
<!-- guards&#45;&gt;guardLevel -->
<g id="edge31" class="edge">
<title>guards&#45;&gt;guardLevel</title>
<path fill="none" stroke="black" d="M681.95,-198.58C721.49,-219 801.75,-260.54 869.51,-296.19 881.14,-302.3 885.14,-302.13 895.6,-310.07 897.47,-311.49 952.27,-369.69 953.92,-371.36 990.12,-407.86 995.82,-421.08 1037.03,-451.8 1069.33,-475.87 1109.66,-497.85 1139.05,-512.61"/>
<polygon fill="black" stroke="black" points="1137.68,-515.83 1148.19,-517.14 1140.79,-509.56 1137.68,-515.83"/>
</g>
<!-- getFollowersPage&#45;&gt;getAllFollowers -->
<g id="edge15" class="edge">
<title>getFollowersPage&#45;&gt;getAllFollowers</title>
<path fill="none" stroke="black" d="M1047.07,-202.08C1053.86,-218.7 1063.12,-244.17 1066.87,-267.37 1073.37,-307.63 1061.99,-318.64 1066.82,-359.14 1071.09,-394.99 1084,-402.03 1085.94,-438.08 1092.44,-558.77 1058.58,-587.11 1050.65,-707.71 1046.92,-764.46 1048.15,-831.02 1049.33,-867.9"/>
<polygon fill="black" stroke="black" points="1045.83,-868.04 1049.67,-877.92 1052.83,-867.81 1045.83,-868.04"/>
</g>
<!-- roomStatus&#45;&gt;roundStatus -->
<g id="edge33" class="edge">
<title>roomStatus&#45;&gt;roundStatus</title>
<path fill="none" stroke="black" d="M1076.32,-80.69C1076.34,-80.53 1076.35,-80.37 1076.37,-80.21"/>
<polygon fill="black" stroke="black" points="1079.61,-83.21 1077.03,-72.93 1072.64,-82.57 1079.61,-83.21"/>
</g>
<!-- roomStatus&#45;&gt;liveStatus -->
<g id="edge35" class="edge">
<title>roomStatus&#45;&gt;liveStatus</title>
<path fill="none" stroke="black" d="M1042.07,-112.87C993.2,-134.06 898.22,-176 819.3,-215.37 774.46,-237.74 723.9,-265.64 691.2,-284.04"/>
<polygon fill="black" stroke="black" points="689.45,-281 682.47,-288.96 692.89,-287.1 689.45,-281"/>
</g>
<!-- liveStatus&#45;&gt;online -->
<g id="edge38" class="edge">
<title>liveStatus&#45;&gt;online</title>
<path fill="none" stroke="black" d="M645.94,-286.05C633.53,-263.2 615.47,-222.07 622.13,-185.75 625.84,-165.51 638.38,-146.06 650,-131.67"/>
<polygon fill="black" stroke="black" points="652.87,-133.7 656.66,-123.81 647.52,-129.17 652.87,-133.7"/>
</g>
<!-- mid&#45;&gt;stat -->
<g id="edge1" class="edge">
<title>mid&#45;&gt;stat</title>
<path fill="none" stroke="black" d="M341.18,-685.02C376.12,-735.57 489.17,-889.29 621.78,-966.72 680.6,-1001.06 703.1,-996.22 758.66,-1035.61 806.94,-1069.84 854.75,-1120.15 880.97,-1149.53"/>
<polygon fill="black" stroke="black" points="878.53,-1152.05 887.77,-1157.23 883.78,-1147.42 878.53,-1152.05"/>
</g>
<!-- mid&#45;&gt;upstat -->
<g id="edge3" class="edge">
<title>mid&#45;&gt;upstat</title>
<path fill="none" stroke="black" d="M350.27,-680.82C411.84,-718.7 601.5,-837.68 746.21,-953.19 797.15,-993.86 851.96,-1046.98 881.99,-1076.99"/>
<polygon fill="black" stroke="black" points="879.89,-1079.84 889.43,-1084.45 884.85,-1074.9 879.89,-1079.84"/>
</g>
<!-- mid&#45;&gt;navnum -->
<g id="edge4" class="edge">
<title>mid&#45;&gt;navnum</title>
<path fill="none" stroke="black" d="M343.58,-684.46C381.81,-729.17 494.69,-858.42 601.03,-952.8 632.96,-981.15 672.67,-1010.01 699.55,-1028.71"/>
<polygon fill="black" stroke="black" points="697.59,-1031.61 707.81,-1034.41 701.57,-1025.85 697.59,-1031.61"/>
</g>
<!-- mid&#45;&gt;info -->
<g id="edge5" class="edge">
<title>mid&#45;&gt;info</title>
<path fill="none" stroke="black" d="M350.16,-680.77C431.46,-730.45 735.88,-916.46 831.16,-974.68"/>
<polygon fill="black" stroke="black" points="829.35,-977.67 839.71,-979.9 833,-971.7 829.35,-977.67"/>
</g>
<!-- mid&#45;&gt;getSubmitVideos -->
<g id="edge8" class="edge">
<title>mid&#45;&gt;getSubmitVideos</title>
<path fill="none" stroke="black" d="M347.07,-682.58C402.11,-728.16 575.57,-871.81 644.74,-929.08"/>
<polygon fill="black" stroke="black" points="642.7,-931.94 652.64,-935.63 647.17,-926.55 642.7,-931.94"/>
</g>
<!-- mid&#45;&gt;getAllSubmitVideos -->
<g id="edge11" class="edge">
<title>mid&#45;&gt;getAllSubmitVideos</title>
<path fill="none" stroke="black" d="M348.64,-681.62C414.45,-727.95 642.89,-887.24 839.51,-1005.99 897.75,-1041.16 967.2,-1078.39 1010.48,-1101.05"/>
<polygon fill="black" stroke="black" points="1009.09,-1104.27 1019.57,-1105.8 1012.33,-1098.06 1009.09,-1104.27"/>
</g>
<!-- mid&#45;&gt;getFollowers -->
<g id="edge12" class="edge">
<title>mid&#45;&gt;getFollowers</title>
<path fill="none" stroke="black" d="M353.06,-678.01C427.33,-708.97 666.94,-810.33 858.51,-908.13 881.82,-920.02 907.35,-934.56 927.29,-946.27"/>
<polygon fill="black" stroke="black" points="925.65,-949.36 936.04,-951.43 929.2,-943.33 925.65,-949.36"/>
</g>
<!-- mid&#45;&gt;getAllFollowers -->
<g id="edge14" class="edge">
<title>mid&#45;&gt;getAllFollowers</title>
<path fill="none" stroke="black" d="M354.83,-676.31C457.74,-708.83 852.52,-833.59 997.03,-879.26"/>
<polygon fill="black" stroke="black" points="996,-882.6 1006.59,-882.28 998.11,-875.93 996,-882.6"/>
</g>
<!-- mid&#45;&gt;_notice -->
<g id="edge18" class="edge">
<title>mid&#45;&gt;_notice</title>
<path fill="none" stroke="black" d="M350.15,-680.82C415.21,-720.5 626.38,-847.35 809.74,-935.69 869.57,-964.51 941.41,-992.76 984.69,-1009.12"/>
<polygon fill="black" stroke="black" points="983.67,-1012.48 994.26,-1012.72 986.13,-1005.92 983.67,-1012.48"/>
</g>
<!-- mid&#45;&gt;getRoomInfoOld -->
<g id="edge56" class="edge">
<title>mid&#45;&gt;getRoomInfoOld</title>
<path fill="none" stroke="black" d="M355.77,-662.74C380.96,-657.38 420.51,-649.63 455.18,-645.76 579.76,-631.85 725.27,-628.03 813.58,-627.07"/>
<polygon fill="black" stroke="black" points="813.82,-630.57 823.79,-626.97 813.76,-623.57 813.82,-630.57"/>
</g>
<!-- mid&#45;&gt;topList -->
<g id="edge58" class="edge">
<title>mid&#45;&gt;topList</title>
<path fill="none" stroke="black" d="M356.45,-672.32C449.95,-685.91 765.89,-731.86 882.83,-748.86"/>
<polygon fill="black" stroke="black" points="882.47,-752.35 892.87,-750.32 883.48,-745.42 882.47,-752.35"/>
</g>
<!-- mid&#45;&gt;fullTopList -->
<g id="edge61" class="edge">
<title>mid&#45;&gt;fullTopList</title>
<path fill="none" stroke="black" d="M356.21,-672.9C381.37,-676.93 420.52,-682.6 454.72,-684.96 607.38,-695.51 646.16,-680.11 799.03,-687.21 837.26,-688.98 880.13,-692.68 913.57,-695.95"/>
<polygon fill="black" stroke="black" points="913.33,-699.45 923.62,-696.95 914.02,-692.48 913.33,-699.45"/>
</g>
<!-- mid&#45;&gt;rankdb -->
<g id="edge64" class="edge">
<title>mid&#45;&gt;rankdb</title>
<path fill="none" stroke="black" d="M356.2,-672.99C381.36,-677.08 420.5,-682.79 454.72,-684.96 683.98,-699.51 742.54,-665 971.59,-682.52 996.82,-684.45 1024.53,-690.39 1046.47,-696.02"/>
<polygon fill="black" stroke="black" points="1045.86,-699.48 1056.42,-698.65 1047.65,-692.71 1045.86,-699.48"/>
</g>
<!-- aid -->
<g id="node46" class="node">
<title>aid</title>
<ellipse fill="none" stroke="black" cx="274.77" cy="-602.44" rx="27" ry="18"/>
<text text-anchor="middle" x="274.77" y="-598.24" font-family="Times,serif" font-size="14.00">aid</text>
</g>
<!-- aid&#45;&gt;archiveStat -->
<g id="edge2" class="edge">
<title>aid&#45;&gt;archiveStat</title>
<path fill="none" stroke="black" d="M295.26,-614.26C311.21,-623.99 333.42,-638.75 350.39,-654.71 435.95,-735.16 653.07,-1030.95 717.97,-1120.22"/>
<polygon fill="black" stroke="black" points="715.23,-1122.4 723.93,-1128.44 720.89,-1118.29 715.23,-1122.4"/>
</g>
<!-- aid&#45;&gt;aid -->
<g id="edge51" class="edge">
<title>aid&#45;&gt;aid</title>
<path fill="none" stroke="black" d="M300.22,-609.13C310.8,-609.59 319.77,-607.36 319.77,-602.44 319.77,-599.21 315.91,-597.14 310.26,-596.23"/>
<polygon fill="black" stroke="black" points="310.37,-592.73 300.22,-595.75 310.04,-599.72 310.37,-592.73"/>
</g>
<!-- bvid&#45;&gt;view -->
<g id="edge6" class="edge">
<title>bvid&#45;&gt;view</title>
<path fill="none" stroke="black" d="M327.16,-556.72C399.84,-595.56 645.52,-727.09 847.27,-837.98 924.13,-880.22 1014.16,-930.83 1059.81,-956.57"/>
<polygon fill="black" stroke="black" points="1058.17,-959.66 1068.59,-961.53 1061.6,-953.57 1058.17,-959.66"/>
</g>
<!-- cid&#45;&gt;list -->
<g id="edge7" class="edge">
<title>cid&#45;&gt;list</title>
<path fill="none" stroke="black" d="M476.56,-676.19C539.49,-707.73 722.8,-799.59 796.14,-836.34"/>
<polygon fill="black" stroke="black" points="794.83,-839.6 805.34,-840.95 797.96,-833.34 794.83,-839.6"/>
</g>
<!-- roomid&#45;&gt;topList -->
<g id="edge57" class="edge">
<title>roomid&#45;&gt;topList</title>
<path fill="none" stroke="black" d="M461.25,-588.4C511.14,-617.26 632.88,-684.52 743.08,-720.58 789.34,-735.72 844.43,-745.02 882.15,-750.13"/>
<polygon fill="black" stroke="black" points="881.94,-753.63 892.31,-751.46 882.85,-746.69 881.94,-753.63"/>
</g>
<!-- roomid&#45;&gt;fullTopList -->
<g id="edge60" class="edge">
<title>roomid&#45;&gt;fullTopList</title>
<path fill="none" stroke="black" d="M470.57,-582.46C560.19,-603.87 811,-663.78 919.93,-689.8"/>
<polygon fill="black" stroke="black" points="919.17,-693.22 929.71,-692.14 920.79,-686.41 919.17,-693.22"/>
</g>
<!-- roomid&#45;&gt;getAnchorInRoom -->
<g id="edge63" class="edge">
<title>roomid&#45;&gt;getAnchorInRoom</title>
<path fill="none" stroke="black" d="M466.9,-585.27C527.96,-607.64 670.78,-659.98 747.57,-688.12"/>
<polygon fill="black" stroke="black" points="746.45,-691.44 757.05,-691.59 748.86,-684.86 746.45,-691.44"/>
</g>
<!-- page -->
<g id="node50" class="node">
<title>page</title>
<ellipse fill="none" stroke="black" cx="1311.94" cy="-782.33" rx="27" ry="18"/>
<text text-anchor="middle" x="1311.94" y="-778.13" font-family="Times,serif" font-size="14.00">page</text>
</g>
<!-- page&#45;&gt;getSubmitVideos -->
<g id="edge9" class="edge">
<title>page&#45;&gt;getSubmitVideos</title>
<path fill="none" stroke="black" stroke-dasharray="1,5" d="M1286.17,-788.07C1211.83,-804.8 990.77,-855.59 810.02,-907.97 781.79,-916.15 750.64,-926.34 725.25,-934.96"/>
<polygon fill="black" stroke="black" points="723.79,-931.76 715.46,-938.3 726.05,-938.38 723.79,-931.76"/>
</g>
<!-- page&#45;&gt;getFollowers -->
<g id="edge13" class="edge">
<title>page&#45;&gt;getFollowers</title>
<path fill="none" stroke="black" stroke-dasharray="1,5" d="M1292.81,-795.08C1256.17,-819.22 1173.14,-872.53 1099.18,-910.04 1069.76,-924.97 1035.55,-939.36 1008.73,-950"/>
<polygon fill="black" stroke="black" points="1007.23,-946.83 999.2,-953.75 1009.79,-953.35 1007.23,-946.83"/>
</g>
<!-- page&#45;&gt;topList -->
<g id="edge59" class="edge">
<title>page&#45;&gt;topList</title>
<path fill="none" stroke="black" stroke-dasharray="1,5" d="M1284.86,-780.43C1219.57,-775.84 1052.9,-764.12 972.11,-758.44"/>
<polygon fill="black" stroke="black" points="971.99,-754.93 961.77,-757.72 971.5,-761.91 971.99,-754.93"/>
</g>
<!-- SESSDATA -->
<g id="node51" class="node">
<title>SESSDATA</title>
<ellipse fill="none" stroke="black" cx="917.48" cy="-1545.77" rx="53.28" ry="18"/>
<text text-anchor="middle" x="917.48" y="-1541.57" font-family="Times,serif" font-size="14.00">SESSDATA</text>
</g>
<!-- SESSDATA&#45;&gt;getAllFollowers -->
<g id="edge16" class="edge">
<title>SESSDATA&#45;&gt;getAllFollowers</title>
<path fill="none" stroke="black" stroke-dasharray="1,5" d="M916.83,-1527.44C915.03,-1458.61 914.13,-1209.99 985.68,-1023.41 996.16,-996.1 1007.08,-993.55 1020.51,-967.57 1027.79,-953.48 1034.72,-937.21 1040.07,-923.76"/>
<polygon fill="black" stroke="black" points="1043.46,-924.7 1043.83,-914.11 1036.94,-922.16 1043.46,-924.7"/>
</g>
<!-- p -->
<g id="node52" class="node">
<title>p</title>
<ellipse fill="none" stroke="black" cx="27.08" cy="-518.81" rx="27" ry="18"/>
<text text-anchor="middle" x="27.08" y="-514.61" font-family="Times,serif" font-size="14.00">p</text>
</g>
<!-- p&#45;&gt;cid -->
<g id="edge54" class="edge">
<title>p&#45;&gt;cid</title>
<path fill="none" stroke="black" stroke-dasharray="1,5" d="M48.56,-530.14C90.65,-551.8 187.48,-598.99 274.57,-622.04 324.44,-635.24 382.53,-648.88 419.02,-657.25"/>
<polygon fill="black" stroke="black" points="418.64,-660.75 429.17,-659.56 420.2,-653.92 418.64,-660.75"/>
</g>
</g>
</svg>
