<?xml version="1.0" encoding="UTF-8" standalone="no"?>
<!DOCTYPE svg PUBLIC "-//W3C//DTD SVG 1.1//EN"
 "http://www.w3.org/Graphics/SVG/1.1/DTD/svg11.dtd">
<!-- Generated by graphviz version 2.40.1 (20161225.0304)
 -->
<!-- Title: G Pages: 1 -->
<svg width="1297pt" height="791pt"
 viewBox="0.00 0.00 1297.00 791.00" xmlns="http://www.w3.org/2000/svg" xmlns:xlink="http://www.w3.org/1999/xlink">
<g id="graph0" class="graph" transform="scale(1 1) rotate(0) translate(4 787)">
<title>G</title>
<polygon fill="#ffffff" stroke="transparent" points="-4,4 -4,-787 1293,-787 1293,4 -4,4"/>
<g id="clust1" class="cluster">
<title>cluster_api.bilibili.com</title>
<polygon fill="none" stroke="#000000" points="745.9778,-196.3875 745.9778,-509.3875 1203.9778,-509.3875 1203.9778,-196.3875 745.9778,-196.3875"/>
<text text-anchor="middle" x="974.9778" y="-494.1875" font-family="Times,serif" font-size="14.00" fill="#000000">api.bilibili.com</text>
</g>
<g id="clust2" class="cluster">
<title>cluster_api.live.bilibili.com</title>
<polygon fill="none" stroke="#000000" points="628.8674,-549.6733 628.8674,-782.6733 943.8674,-782.6733 943.8674,-549.6733 628.8674,-549.6733"/>
<text text-anchor="middle" x="786.3674" y="-767.4733" font-family="Times,serif" font-size="14.00" fill="#000000">api.live.bilibili.com</text>
</g>
<g id="clust3" class="cluster">
<title>cluster_data</title>
<polygon fill="none" stroke="#000000" points=".4764,.36 .4764,-528.64 737.4764,-528.64 737.4764,.36 .4764,.36"/>
<text text-anchor="middle" x="368.9764" y="-513.44" font-family="Times,serif" font-size="14.00" fill="#000000">data</text>
</g>
<g id="clust4" class="cluster">
<title>cluster_input</title>
<polygon fill="none" stroke="#000000" points="449.3877,-547.1742 449.3877,-700.1742 619.3877,-700.1742 619.3877,-547.1742 449.3877,-547.1742"/>
<text text-anchor="middle" x="534.3877" y="-684.9742" font-family="Times,serif" font-size="14.00" fill="#000000">input</text>
</g>
<!-- stat -->
<g id="node1" class="node">
<title>stat</title>
<ellipse fill="none" stroke="#000000" cx="916.3668" cy="-233.4094" rx="27" ry="18"/>
<text text-anchor="middle" x="916.3668" y="-229.2094" font-family="Times,serif" font-size="14.00" fill="#000000">stat</text>
</g>
<!-- follower -->
<g id="node16" class="node">
<title>follower</title>
<ellipse fill="none" stroke="#000000" cx="493.2867" cy="-214.5814" rx="40.1317" ry="18"/>
<text text-anchor="middle" x="493.2867" y="-210.3814" font-family="Times,serif" font-size="14.00" fill="#000000">follower</text>
</g>
<!-- stat&#45;&gt;follower -->
<g id="edge13" class="edge">
<title>stat&#45;&gt;follower</title>
<path fill="none" stroke="#000000" d="M889.2576,-232.203C819.6106,-229.1035 633.5764,-220.8246 543.5169,-216.8167"/>
<polygon fill="#000000" stroke="#000000" points="543.4298,-213.3095 533.284,-216.3613 543.1185,-220.3025 543.4298,-213.3095"/>
</g>
<!-- upstat -->
<g id="node2" class="node">
<title>upstat</title>
<ellipse fill="none" stroke="#000000" cx="881.9841" cy="-289.7181" rx="31.4636" ry="18"/>
<text text-anchor="middle" x="881.9841" y="-285.5181" font-family="Times,serif" font-size="14.00" fill="#000000">upstat</text>
</g>
<!-- archiveView -->
<g id="node33" class="node">
<title>archiveView</title>
<ellipse fill="none" stroke="#000000" cx="405.9061" cy="-152.1985" rx="54.513" ry="18"/>
<text text-anchor="middle" x="405.9061" y="-147.9985" font-family="Times,serif" font-size="14.00" fill="#000000">archiveView</text>
</g>
<!-- upstat&#45;&gt;archiveView -->
<g id="edge33" class="edge">
<title>upstat&#45;&gt;archiveView</title>
<path fill="none" stroke="#000000" d="M853.6614,-281.5964C801.3157,-266.5798 685.8918,-233.439 588.6665,-205.3214 544.1301,-192.4415 493.513,-177.7224 456.859,-167.0491"/>
<polygon fill="#000000" stroke="#000000" points="457.4874,-163.5867 446.9076,-164.1508 455.53,-170.3075 457.4874,-163.5867"/>
</g>
<!-- articleView -->
<g id="node34" class="node">
<title>articleView</title>
<ellipse fill="none" stroke="#000000" cx="269.3236" cy="-315.779" rx="50.6536" ry="18"/>
<text text-anchor="middle" x="269.3236" y="-311.579" font-family="Times,serif" font-size="14.00" fill="#000000">articleView</text>
</g>
<!-- upstat&#45;&gt;articleView -->
<g id="edge34" class="edge">
<title>upstat&#45;&gt;articleView</title>
<path fill="none" stroke="#000000" d="M851.422,-293.6715C792.4026,-300.8875 658.5975,-315.2125 545.6912,-312.482 485.6322,-311.0296 471.501,-296.3484 411.4264,-296.8446 382.4243,-297.0841 350.381,-301.0289 324.0747,-305.2561"/>
<polygon fill="#000000" stroke="#000000" points="323.2119,-301.8515 313.9225,-306.9464 324.3616,-308.7564 323.2119,-301.8515"/>
</g>
<!-- navnum -->
<g id="node3" class="node">
<title>navnum</title>
<ellipse fill="none" stroke="#000000" cx="1157.1534" cy="-389.048" rx="38.6955" ry="18"/>
<text text-anchor="middle" x="1157.1534" y="-384.848" font-family="Times,serif" font-size="14.00" fill="#000000">navnum</text>
</g>
<!-- video -->
<g id="node20" class="node">
<title>video</title>
<ellipse fill="none" stroke="#000000" cx="440.7286" cy="-480.271" rx="29.5104" ry="18"/>
<text text-anchor="middle" x="440.7286" y="-476.071" font-family="Times,serif" font-size="14.00" fill="#000000">video</text>
</g>
<!-- navnum&#45;&gt;video -->
<g id="edge17" class="edge">
<title>navnum&#45;&gt;video</title>
<path fill="none" stroke="#000000" d="M1121.5923,-396.4548C1072.1848,-406.5538 979.894,-424.7255 900.578,-436.4483 746.0688,-459.2846 560.5059,-472.7378 480.5628,-477.8677"/>
<polygon fill="#000000" stroke="#000000" points="480.2048,-474.3833 470.446,-478.5085 480.6473,-481.3693 480.2048,-474.3833"/>
</g>
<!-- info -->
<g id="node4" class="node">
<title>info</title>
<ellipse fill="none" stroke="#000000" cx="1077.3788" cy="-296.3159" rx="27" ry="18"/>
<text text-anchor="middle" x="1077.3788" y="-292.1159" font-family="Times,serif" font-size="14.00" fill="#000000">info</text>
</g>
<!-- uname -->
<g id="node17" class="node">
<title>uname</title>
<ellipse fill="none" stroke="#000000" cx="411.2201" cy="-316.4442" rx="33.8596" ry="18"/>
<text text-anchor="middle" x="411.2201" y="-312.2442" font-family="Times,serif" font-size="14.00" fill="#000000">uname</text>
</g>
<!-- info&#45;&gt;uname -->
<g id="edge14" class="edge">
<title>info&#45;&gt;uname</title>
<path fill="none" stroke="#000000" d="M1053.4069,-304.7487C1034.306,-310.9486 1006.7314,-318.7508 981.838,-321.4862 786.0686,-342.9984 550.2475,-328.0594 454.635,-320.3092"/>
<polygon fill="#000000" stroke="#000000" points="454.7371,-316.8058 444.4828,-319.4702 454.1605,-323.782 454.7371,-316.8058"/>
</g>
<!-- sign -->
<g id="node18" class="node">
<title>sign</title>
<ellipse fill="none" stroke="#000000" cx="403.4298" cy="-401.3298" rx="27" ry="18"/>
<text text-anchor="middle" x="403.4298" y="-397.1298" font-family="Times,serif" font-size="14.00" fill="#000000">sign</text>
</g>
<!-- info&#45;&gt;sign -->
<g id="edge15" class="edge">
<title>info&#45;&gt;sign</title>
<path fill="none" stroke="#000000" d="M1052.3533,-303.2747C1038.711,-307.0443 1021.5215,-311.7553 1006.1597,-315.8497 906.4174,-342.434 883.1751,-357.3253 781.3135,-374.0429 657.7831,-394.3168 509.0729,-399.5274 440.8958,-400.8665"/>
<polygon fill="#000000" stroke="#000000" points="440.5971,-397.3712 430.6615,-401.0499 440.7226,-404.3701 440.5971,-397.3712"/>
</g>
<!-- coins -->
<g id="node19" class="node">
<title>coins</title>
<ellipse fill="none" stroke="#000000" cx="165.0825" cy="-171.9794" rx="28.5497" ry="18"/>
<text text-anchor="middle" x="165.0825" y="-167.7794" font-family="Times,serif" font-size="14.00" fill="#000000">coins</text>
</g>
<!-- info&#45;&gt;coins -->
<g id="edge16" class="edge">
<title>info&#45;&gt;coins</title>
<path fill="none" stroke="#000000" d="M1050.7803,-292.2021C1031.7417,-289.3033 1005.4913,-285.3995 982.3527,-282.2873 937.884,-276.3061 926.7482,-274.8873 882.1333,-270.1183 709.531,-251.6685 665.1162,-258.3592 493.2227,-234.1813 387.1091,-219.2558 263.1932,-193.4633 202.4796,-180.2723"/>
<polygon fill="#000000" stroke="#000000" points="203.1092,-176.8274 192.5928,-178.114 201.6162,-183.6663 203.1092,-176.8274"/>
</g>
<!-- face -->
<g id="node35" class="node">
<title>face</title>
<ellipse fill="none" stroke="#000000" cx="702.7724" cy="-278.7922" rx="27" ry="18"/>
<text text-anchor="middle" x="702.7724" y="-274.5922" font-family="Times,serif" font-size="14.00" fill="#000000">face</text>
</g>
<!-- info&#45;&gt;face -->
<g id="edge35" class="edge">
<title>info&#45;&gt;face</title>
<path fill="none" stroke="#000000" d="M1050.7803,-292.2021C1031.7417,-289.3033 1005.4913,-285.3995 982.3527,-282.2873 937.884,-276.3061 926.9729,-271.7447 882.1333,-270.1183 832.7941,-268.3287 775.8594,-272.0727 739.6084,-275.1888"/>
<polygon fill="#000000" stroke="#000000" points="739.1556,-271.7152 729.5049,-276.0873 739.7757,-278.6876 739.1556,-271.7152"/>
</g>
<!-- topPhoto -->
<g id="node36" class="node">
<title>topPhoto</title>
<ellipse fill="none" stroke="#000000" cx="248.6293" cy="-83.8286" rx="42.0956" ry="18"/>
<text text-anchor="middle" x="248.6293" y="-79.6286" font-family="Times,serif" font-size="14.00" fill="#000000">topPhoto</text>
</g>
<!-- info&#45;&gt;topPhoto -->
<g id="edge36" class="edge">
<title>info&#45;&gt;topPhoto</title>
<path fill="none" stroke="#000000" d="M1052.2764,-289.5656C1020.598,-281.0469 964.4377,-265.9438 916.3549,-253.0094 792.1126,-219.588 761.4259,-209.8114 636.8139,-177.7962 626.249,-175.0818 623.5738,-174.5386 612.9752,-171.9593 498.7654,-144.1643 364.3495,-111.7203 295.0911,-95.0232"/>
<polygon fill="#000000" stroke="#000000" points="295.8974,-91.6173 285.3556,-92.6763 294.2569,-98.4224 295.8974,-91.6173"/>
</g>
<!-- view -->
<g id="node5" class="node">
<title>view</title>
<ellipse fill="none" stroke="#000000" cx="781.477" cy="-354.4432" rx="27.0958" ry="18"/>
<text text-anchor="middle" x="781.477" y="-350.2432" font-family="Times,serif" font-size="14.00" fill="#000000">view</text>
</g>
<!-- cids -->
<g id="node39" class="node">
<title>cids</title>
<ellipse fill="none" stroke="#000000" cx="170.3405" cy="-372.4296" rx="27" ry="18"/>
<text text-anchor="middle" x="170.3405" y="-368.2296" font-family="Times,serif" font-size="14.00" fill="#000000">cids</text>
</g>
<!-- view&#45;&gt;cids -->
<g id="edge39" class="edge">
<title>view&#45;&gt;cids</title>
<path fill="none" stroke="#000000" d="M755.2,-359.9036C730.3674,-364.7623 692.005,-371.4918 658.3321,-374.1049 613.979,-377.5468 313.9152,-374.2131 207.5954,-372.9051"/>
<polygon fill="#000000" stroke="#000000" points="207.3877,-369.4023 197.345,-372.7778 207.3007,-376.4018 207.3877,-369.4023"/>
</g>
<!-- mid -->
<g id="node40" class="node">
<title>mid</title>
<ellipse fill="none" stroke="#000000" cx="584.0283" cy="-652.1835" rx="27" ry="18"/>
<text text-anchor="middle" x="584.0283" y="-647.9835" font-family="Times,serif" font-size="14.00" fill="#000000">mid</text>
</g>
<!-- view&#45;&gt;mid -->
<g id="edge41" class="edge">
<title>view&#45;&gt;mid</title>
<path fill="none" stroke="#000000" stroke-dasharray="5,2" d="M770.2955,-371.3041C737.2393,-421.1508 639.8417,-568.0205 600.6466,-627.1242"/>
<polygon fill="#000000" stroke="#000000" points="597.697,-625.2392 595.0871,-635.5075 603.5308,-629.1079 597.697,-625.2392"/>
</g>
<!-- cid -->
<g id="node41" class="node">
<title>cid</title>
<ellipse fill="none" stroke="#000000" cx="566.7324" cy="-573.1347" rx="27" ry="18"/>
<text text-anchor="middle" x="566.7324" y="-568.9347" font-family="Times,serif" font-size="14.00" fill="#000000">cid</text>
</g>
<!-- view&#45;&gt;cid -->
<g id="edge43" class="edge">
<title>view&#45;&gt;cid</title>
<path fill="none" stroke="#000000" d="M766.3765,-369.8212C729.0136,-407.8708 632.1236,-506.5416 588.5384,-550.9279"/>
<polygon fill="#000000" stroke="#000000" points="586.0401,-548.4766 581.531,-558.0641 591.0347,-553.3811 586.0401,-548.4766"/>
</g>
<!-- list -->
<g id="node6" class="node">
<title>list</title>
<ellipse fill="none" stroke="#000000" cx="1032.6954" cy="-222.158" rx="27" ry="18"/>
<text text-anchor="middle" x="1032.6954" y="-217.958" font-family="Times,serif" font-size="14.00" fill="#000000">list</text>
</g>
<!-- getSubmitVideos -->
<g id="node7" class="node">
<title>getSubmitVideos</title>
<ellipse fill="none" stroke="#000000" cx="849.3441" cy="-422.563" rx="70.984" ry="18"/>
<text text-anchor="middle" x="849.3441" y="-418.363" font-family="Times,serif" font-size="14.00" fill="#000000">getSubmitVideos</text>
</g>
<!-- getSubmitVideosPage -->
<g id="node23" class="node">
<title>getSubmitVideosPage</title>
<ellipse fill="none" stroke="#000000" cx="96.189" cy="-292.0107" rx="88.3651" ry="18"/>
<text text-anchor="middle" x="96.189" y="-287.8107" font-family="Times,serif" font-size="14.00" fill="#000000">getSubmitVideosPage</text>
</g>
<!-- getSubmitVideos&#45;&gt;getSubmitVideosPage -->
<g id="edge20" class="edge">
<title>getSubmitVideos&#45;&gt;getSubmitVideosPage</title>
<path fill="none" stroke="#000000" d="M787.9473,-413.4271C682.0726,-397.6521 458.3155,-364.2218 269.3173,-335.379 252.8364,-332.8639 248.5474,-333.1404 232.248,-329.6366 206.6612,-324.1363 178.7461,-316.6777 154.8973,-309.8517"/>
<polygon fill="#000000" stroke="#000000" points="155.8668,-306.4887 145.2881,-307.0731 153.9222,-313.2132 155.8668,-306.4887"/>
</g>
<!-- getAllSubmitVideos -->
<g id="node8" class="node">
<title>getAllSubmitVideos</title>
<ellipse fill="none" stroke="#000000" cx="966.6152" cy="-378.5055" rx="82.0855" ry="18"/>
<text text-anchor="middle" x="966.6152" y="-374.3055" font-family="Times,serif" font-size="14.00" fill="#000000">getAllSubmitVideos</text>
</g>
<!-- allVideos -->
<g id="node25" class="node">
<title>allVideos</title>
<ellipse fill="none" stroke="#000000" cx="471.7935" cy="-56.7558" rx="43.4456" ry="18"/>
<text text-anchor="middle" x="471.7935" y="-52.5558" font-family="Times,serif" font-size="14.00" fill="#000000">allVideos</text>
</g>
<!-- getAllSubmitVideos&#45;&gt;allVideos -->
<g id="edge22" class="edge">
<title>getAllSubmitVideos&#45;&gt;allVideos</title>
<path fill="none" stroke="#000000" d="M939.6326,-361.2016C883.8258,-325.6104 751.3492,-242.1419 636.8139,-177.7962 594.949,-154.2765 580.7182,-154.9281 540.8315,-128.1908 521.9745,-115.5505 504.2576,-97.0238 491.4935,-82.0055"/>
<polygon fill="#000000" stroke="#000000" points="494.0084,-79.5547 484.9361,-74.0826 488.6158,-84.0179 494.0084,-79.5547"/>
</g>
<!-- search -->
<g id="node9" class="node">
<title>search</title>
<ellipse fill="none" stroke="#000000" cx="982.0953" cy="-301.8868" rx="32.8821" ry="18"/>
<text text-anchor="middle" x="982.0953" y="-297.6868" font-family="Times,serif" font-size="14.00" fill="#000000">search</text>
</g>
<!-- search&#45;&gt;mid -->
<g id="edge42" class="edge">
<title>search&#45;&gt;mid</title>
<path fill="none" stroke="#000000" stroke-dasharray="5,2" d="M958.9334,-314.8449C923.8415,-334.5864 855.2369,-373.6076 798.1102,-408.6778 788.4688,-414.5966 785.2281,-415.0331 776.7522,-422.5263 702.6921,-487.9991 632.4498,-582.7218 601.12,-627.2624"/>
<polygon fill="#000000" stroke="#000000" points="598.0648,-625.5245 595.2104,-635.7276 603.8045,-629.5315 598.0648,-625.5245"/>
</g>
<!-- _notice -->
<g id="node10" class="node">
<title>_notice</title>
<ellipse fill="none" stroke="#000000" cx="979.7302" cy="-461.6102" rx="36.2732" ry="18"/>
<text text-anchor="middle" x="979.7302" y="-457.4102" font-family="Times,serif" font-size="14.00" fill="#000000">_notice</text>
</g>
<!-- notice -->
<g id="node32" class="node">
<title>notice</title>
<ellipse fill="none" stroke="#000000" cx="401.6442" cy="-246.2198" rx="31.9306" ry="18"/>
<text text-anchor="middle" x="401.6442" y="-242.0198" font-family="Times,serif" font-size="14.00" fill="#000000">notice</text>
</g>
<!-- _notice&#45;&gt;notice -->
<g id="edge32" class="edge">
<title>_notice&#45;&gt;notice</title>
<path fill="none" stroke="#000000" d="M943.7006,-459.156C906.6574,-456.0438 847.5395,-449.4318 797.9176,-436.3963 652.3012,-398.1434 495.763,-305.8947 431.6286,-265.5993"/>
<polygon fill="#000000" stroke="#000000" points="433.1708,-262.4333 422.8489,-260.0436 429.4277,-268.3485 433.1708,-262.4333"/>
</g>
<!-- getRoomInfoOld -->
<g id="node11" class="node">
<title>getRoomInfoOld</title>
<ellipse fill="none" stroke="#000000" cx="707.7198" cy="-734.3358" rx="70.56" ry="18"/>
<text text-anchor="middle" x="707.7198" y="-730.1358" font-family="Times,serif" font-size="14.00" fill="#000000">getRoomInfoOld</text>
</g>
<!-- roomStatus -->
<g id="node27" class="node">
<title>roomStatus</title>
<ellipse fill="none" stroke="#000000" cx="285.8397" cy="-227.6329" rx="50.2896" ry="18"/>
<text text-anchor="middle" x="285.8397" y="-223.4329" font-family="Times,serif" font-size="14.00" fill="#000000">roomStatus</text>
</g>
<!-- getRoomInfoOld&#45;&gt;roomStatus -->
<g id="edge24" class="edge">
<title>getRoomInfoOld&#45;&gt;roomStatus</title>
<path fill="none" stroke="#000000" d="M690.4261,-716.8845C677.0431,-702.7949 658.6003,-682.0467 645.2415,-661.7856 616.4155,-618.0653 618.2222,-601.4082 587.0417,-559.3346 539.0868,-494.6264 371.6256,-317.5585 309.3776,-252.251"/>
<polygon fill="#000000" stroke="#000000" points="311.7581,-249.6757 302.3231,-244.8557 306.693,-254.5074 311.7581,-249.6757"/>
</g>
<!-- roundStatus -->
<g id="node28" class="node">
<title>roundStatus</title>
<ellipse fill="none" stroke="#000000" cx="296.1934" cy="-394.4522" rx="52.2192" ry="18"/>
<text text-anchor="middle" x="296.1934" y="-390.2522" font-family="Times,serif" font-size="14.00" fill="#000000">roundStatus</text>
</g>
<!-- getRoomInfoOld&#45;&gt;roundStatus -->
<g id="edge26" class="edge">
<title>getRoomInfoOld&#45;&gt;roundStatus</title>
<path fill="none" stroke="#000000" d="M689.8665,-716.8596C669.6072,-697.2439 635.3504,-664.7216 604.3819,-638.4141 524.6804,-570.7083 500.3728,-559.208 418.5267,-494.1108 385.9739,-468.2196 349.0016,-437.9833 324.3037,-417.664"/>
<polygon fill="#000000" stroke="#000000" points="326.3669,-414.8291 316.4225,-411.1739 321.917,-420.2327 326.3669,-414.8291"/>
</g>
<!-- liveStatus -->
<g id="node29" class="node">
<title>liveStatus</title>
<ellipse fill="none" stroke="#000000" cx="658.5151" cy="-354.5051" rx="44.9768" ry="18"/>
<text text-anchor="middle" x="658.5151" y="-350.3051" font-family="Times,serif" font-size="14.00" fill="#000000">liveStatus</text>
</g>
<!-- getRoomInfoOld&#45;&gt;liveStatus -->
<g id="edge28" class="edge">
<title>getRoomInfoOld&#45;&gt;liveStatus</title>
<path fill="none" stroke="#000000" d="M713.9313,-716.1403C718.1132,-701.4755 722.2773,-680.3502 718.7698,-662.0103 710.3626,-618.0513 680.5296,-618.0396 667.9017,-575.1024 648.301,-508.4564 651.7474,-425.62 655.433,-382.9145"/>
<polygon fill="#000000" stroke="#000000" points="658.9407,-382.9937 656.3859,-372.7115 651.9711,-382.3427 658.9407,-382.9937"/>
</g>
<!-- title -->
<g id="node30" class="node">
<title>title</title>
<ellipse fill="none" stroke="#000000" cx="543.6837" cy="-420.6277" rx="27" ry="18"/>
<text text-anchor="middle" x="543.6837" y="-416.4277" font-family="Times,serif" font-size="14.00" fill="#000000">title</text>
</g>
<!-- getRoomInfoOld&#45;&gt;title -->
<g id="edge29" class="edge">
<title>getRoomInfoOld&#45;&gt;title</title>
<path fill="none" stroke="#000000" d="M689.2038,-716.7162C675.5187,-702.858 657.2514,-682.4907 645.2415,-661.7856 602.6475,-588.3532 568.1237,-493.6293 552.5837,-447.8241"/>
<polygon fill="#000000" stroke="#000000" points="555.8877,-446.6682 549.3883,-438.3012 549.2513,-448.8951 555.8877,-446.6682"/>
</g>
<!-- roomid -->
<g id="node42" class="node">
<title>roomid</title>
<ellipse fill="none" stroke="#000000" cx="492.8312" cy="-609.5511" rx="35.806" ry="18"/>
<text text-anchor="middle" x="492.8312" y="-605.3511" font-family="Times,serif" font-size="14.00" fill="#000000">roomid</text>
</g>
<!-- getRoomInfoOld&#45;&gt;roomid -->
<g id="edge45" class="edge">
<title>getRoomInfoOld&#45;&gt;roomid</title>
<path fill="none" stroke="#000000" d="M669.7826,-719.159C639.9946,-706.5802 597.9651,-687.3467 563.6747,-665.9529 547.6586,-655.9604 531.0809,-642.9329 517.9922,-631.916"/>
<polygon fill="#000000" stroke="#000000" points="520.2039,-629.202 510.3297,-625.3613 515.6536,-634.5214 520.2039,-629.202"/>
</g>
<!-- topList -->
<g id="node12" class="node">
<title>topList</title>
<ellipse fill="none" stroke="#000000" cx="682.0057" cy="-661.8979" rx="35.3303" ry="18"/>
<text text-anchor="middle" x="682.0057" y="-657.6979" font-family="Times,serif" font-size="14.00" fill="#000000">topList</text>
</g>
<!-- guardNum -->
<g id="node21" class="node">
<title>guardNum</title>
<ellipse fill="none" stroke="#000000" cx="318.0837" cy="-25.6891" rx="47.8582" ry="18"/>
<text text-anchor="middle" x="318.0837" y="-21.4891" font-family="Times,serif" font-size="14.00" fill="#000000">guardNum</text>
</g>
<!-- topList&#45;&gt;guardNum -->
<g id="edge18" class="edge">
<title>topList&#45;&gt;guardNum</title>
<path fill="none" stroke="#000000" d="M669.3973,-644.7939C641.9134,-607.3048 574.931,-514.8155 523.2794,-434.3617 469.3743,-350.3981 488.22,-309.7942 425.255,-232.3922 394.2864,-194.3229 373.0712,-195.082 349.5527,-152.0099 332.6077,-120.9766 324.6209,-80.6972 320.9717,-54.0623"/>
<polygon fill="#000000" stroke="#000000" points="324.4134,-53.3779 319.6982,-43.8901 317.4676,-54.2475 324.4134,-53.3779"/>
</g>
<!-- topListPage -->
<g id="node22" class="node">
<title>topListPage</title>
<ellipse fill="none" stroke="#000000" cx="545.805" cy="-292.8821" rx="52.2106" ry="18"/>
<text text-anchor="middle" x="545.805" y="-288.6821" font-family="Times,serif" font-size="14.00" fill="#000000">topListPage</text>
</g>
<!-- topList&#45;&gt;topListPage -->
<g id="edge19" class="edge">
<title>topList&#45;&gt;topListPage</title>
<path fill="none" stroke="#000000" d="M675.4364,-644.0995C653.5062,-584.6829 582.7042,-392.8552 556.0665,-320.6841"/>
<polygon fill="#000000" stroke="#000000" points="559.214,-319.1037 552.4679,-310.9342 552.6471,-321.5275 559.214,-319.1037"/>
</g>
<!-- fullTopList -->
<g id="node13" class="node">
<title>fullTopList</title>
<ellipse fill="none" stroke="#000000" cx="886.0841" cy="-677.274" rx="49.5468" ry="18"/>
<text text-anchor="middle" x="886.0841" y="-673.074" font-family="Times,serif" font-size="14.00" fill="#000000">fullTopList</text>
</g>
<!-- guards -->
<g id="node24" class="node">
<title>guards</title>
<ellipse fill="none" stroke="#000000" cx="180.0201" cy="-239.981" rx="33.8683" ry="18"/>
<text text-anchor="middle" x="180.0201" y="-235.781" font-family="Times,serif" font-size="14.00" fill="#000000">guards</text>
</g>
<!-- fullTopList&#45;&gt;guards -->
<g id="edge21" class="edge">
<title>fullTopList&#45;&gt;guards</title>
<path fill="none" stroke="#000000" d="M853.3736,-663.6317C827.3643,-651.6901 791.0901,-632.4927 764.7104,-608.3811 751.294,-596.1182 751.2561,-590.0726 740.4261,-575.4751 735.8297,-569.2798 735.7462,-566.7628 730.049,-561.5618 727.5006,-559.2354 309.4228,-303.584 306.3992,-301.9214 276.2127,-285.3217 240.9437,-268.219 215.3464,-256.2022"/>
<polygon fill="#000000" stroke="#000000" points="216.582,-252.9164 206.0402,-251.8572 213.6206,-259.2592 216.582,-252.9164"/>
</g>
<!-- getAnchorInRoom -->
<g id="node14" class="node">
<title>getAnchorInRoom</title>
<ellipse fill="none" stroke="#000000" cx="842.7302" cy="-608.3936" rx="76.3398" ry="18"/>
<text text-anchor="middle" x="842.7302" y="-604.1936" font-family="Times,serif" font-size="14.00" fill="#000000">getAnchorInRoom</text>
</g>
<!-- anchorScore -->
<g id="node37" class="node">
<title>anchorScore</title>
<ellipse fill="none" stroke="#000000" cx="580.4067" cy="-114.3477" rx="54.1058" ry="18"/>
<text text-anchor="middle" x="580.4067" y="-110.1477" font-family="Times,serif" font-size="14.00" fill="#000000">anchorScore</text>
</g>
<!-- getAnchorInRoom&#45;&gt;anchorScore -->
<g id="edge37" class="edge">
<title>getAnchorInRoom&#45;&gt;anchorScore</title>
<path fill="none" stroke="#000000" d="M832.1269,-590.3134C803.7405,-541.395 724.748,-401.8309 674.1724,-278.7705 658.7388,-241.2176 664.5435,-228.091 646.5505,-191.695 636.7725,-171.9161 620.7953,-153.029 606.9935,-138.87"/>
<polygon fill="#000000" stroke="#000000" points="609.1597,-136.0879 599.6028,-131.5146 604.2219,-141.0496 609.1597,-136.0879"/>
</g>
<!-- getAnchorInRoom&#45;&gt;mid -->
<g id="edge40" class="edge">
<title>getAnchorInRoom&#45;&gt;mid</title>
<path fill="none" stroke="#000000" stroke-dasharray="5,2" d="M780.4354,-618.9381C730.403,-627.407 661.87,-639.0074 620.3934,-646.0281"/>
<polygon fill="#000000" stroke="#000000" points="619.7347,-642.5897 610.4592,-647.7096 620.9031,-649.4915 619.7347,-642.5897"/>
</g>
<!-- rankdb -->
<g id="node15" class="node">
<title>rankdb</title>
<ellipse fill="none" stroke="#000000" cx="704.1639" cy="-575.2887" rx="34.8285" ry="18"/>
<text text-anchor="middle" x="704.1639" y="-571.0887" font-family="Times,serif" font-size="14.00" fill="#000000">rankdb</text>
</g>
<!-- areaRank -->
<g id="node38" class="node">
<title>areaRank</title>
<ellipse fill="none" stroke="#000000" cx="288.8474" cy="-141.5022" rx="43.4887" ry="18"/>
<text text-anchor="middle" x="288.8474" y="-137.3022" font-family="Times,serif" font-size="14.00" fill="#000000">areaRank</text>
</g>
<!-- rankdb&#45;&gt;areaRank -->
<g id="edge38" class="edge">
<title>rankdb&#45;&gt;areaRank</title>
<path fill="none" stroke="#000000" d="M691.639,-558.1184C668.2679,-526.587 615.6933,-458.0054 564.088,-406.8936 512.0184,-355.3218 494.3046,-347.4737 436.3118,-302.6662 410.9195,-283.0471 400.8769,-282.5829 378.0335,-260.0474 349.1307,-231.5342 322.0052,-193.1858 305.4278,-167.9269"/>
<polygon fill="#000000" stroke="#000000" points="308.1866,-165.7478 299.8138,-159.2556 302.3105,-169.5521 308.1866,-165.7478"/>
</g>
<!-- uname&#45;&gt;search -->
<g id="edge11" class="edge">
<title>uname&#45;&gt;search</title>
<path fill="none" stroke="#000000" d="M444.909,-316.6137C522.189,-316.8538 718.1623,-316.6163 881.8349,-309.3179 900.7837,-308.4729 921.7119,-307.0062 939.5244,-305.598"/>
<polygon fill="#000000" stroke="#000000" points="939.9289,-309.0767 949.6136,-304.7807 939.3637,-302.0996 939.9289,-309.0767"/>
</g>
<!-- topListPage&#45;&gt;fullTopList -->
<g id="edge52" class="edge">
<title>topListPage&#45;&gt;fullTopList</title>
<path fill="none" stroke="#000000" d="M558.0937,-310.8067C603.2979,-376.7155 758.0806,-602.1413 764.7104,-608.3811 787.709,-630.0268 818.7539,-647.4906 843.6887,-659.4194"/>
<polygon fill="#000000" stroke="#000000" points="842.3738,-662.6679 852.9165,-663.7173 845.3293,-656.3224 842.3738,-662.6679"/>
</g>
<!-- getSubmitVideosPage&#45;&gt;getAllSubmitVideos -->
<g id="edge9" class="edge">
<title>getSubmitVideosPage&#45;&gt;getAllSubmitVideos</title>
<path fill="none" stroke="#000000" d="M184.2695,-290.9935C247.5408,-290.8404 334.8257,-291.8093 411.4264,-296.8446 471.3736,-300.7851 485.9468,-306.1726 545.6912,-312.482 650.4449,-323.5448 677.7029,-317.7346 781.6404,-334.8435 823.3045,-341.7018 869.5358,-352.6136 905.3573,-361.8127"/>
<polygon fill="#000000" stroke="#000000" points="904.614,-365.2357 915.1723,-364.3571 906.3706,-358.4596 904.614,-365.2357"/>
</g>
<!-- guardLevel -->
<g id="node26" class="node">
<title>guardLevel</title>
<ellipse fill="none" stroke="#000000" cx="656.5273" cy="-25.1917" rx="50.2465" ry="18"/>
<text text-anchor="middle" x="656.5273" y="-20.9917" font-family="Times,serif" font-size="14.00" fill="#000000">guardLevel</text>
</g>
<!-- guards&#45;&gt;guardLevel -->
<g id="edge23" class="edge">
<title>guards&#45;&gt;guardLevel</title>
<path fill="none" stroke="#000000" d="M202.4936,-226.4839C237.0432,-206.018 305.5985,-166.5247 366.4418,-138.2065 450.7475,-98.9682 552.7572,-61.4262 610.5969,-41.023"/>
<polygon fill="#000000" stroke="#000000" points="611.9048,-44.2733 620.1798,-37.657 609.5849,-37.6689 611.9048,-44.2733"/>
</g>
<!-- roomStatus&#45;&gt;roundStatus -->
<g id="edge25" class="edge">
<title>roomStatus&#45;&gt;roundStatus</title>
<path fill="none" stroke="#000000" d="M297.374,-245.3529C307.5139,-262.5748 320.8066,-289.8547 321.7501,-315.7814 322.3971,-333.5578 316.4347,-352.5499 310.1074,-367.4195"/>
<polygon fill="#000000" stroke="#000000" points="306.913,-365.9893 305.9627,-376.5415 313.286,-368.8851 306.913,-365.9893"/>
</g>
<!-- roomStatus&#45;&gt;liveStatus -->
<g id="edge27" class="edge">
<title>roomStatus&#45;&gt;liveStatus</title>
<path fill="none" stroke="#000000" d="M321.0342,-240.6256C364.6531,-256.6263 441.3345,-284.422 507.5726,-306.7121 542.7988,-318.5662 582.9227,-331.2312 612.9434,-340.5435"/>
<polygon fill="#000000" stroke="#000000" points="612.1275,-343.9547 622.7153,-343.567 614.1967,-337.2675 612.1275,-343.9547"/>
</g>
<!-- online -->
<g id="node31" class="node">
<title>online</title>
<ellipse fill="none" stroke="#000000" cx="612.7402" cy="-191.5588" rx="32.4237" ry="18"/>
<text text-anchor="middle" x="612.7402" y="-187.3588" font-family="Times,serif" font-size="14.00" fill="#000000">online</text>
</g>
<!-- liveStatus&#45;&gt;online -->
<g id="edge31" class="edge">
<title>liveStatus&#45;&gt;online</title>
<path fill="none" stroke="#000000" d="M653.4415,-336.4444C645.4675,-308.0592 629.9438,-252.799 620.5425,-219.3328"/>
<polygon fill="#000000" stroke="#000000" points="623.9107,-218.3811 617.8365,-209.7004 617.1715,-220.2743 623.9107,-218.3811"/>
</g>
<!-- mid&#45;&gt;stat -->
<g id="edge1" class="edge">
<title>mid&#45;&gt;stat</title>
<path fill="none" stroke="#000000" d="M597.7796,-636.5721C635.1258,-593.6876 740.3243,-469.6091 810.3737,-354.5541 827.8525,-325.8453 830.8603,-317.8259 849.1535,-289.629 853.2433,-283.3251 853.6221,-281.1694 858.8749,-275.796 867.5907,-266.8798 878.3288,-258.4289 888.1562,-251.4532"/>
<polygon fill="#000000" stroke="#000000" points="890.2263,-254.2774 896.4842,-245.7281 886.2608,-248.5089 890.2263,-254.2774"/>
</g>
<!-- mid&#45;&gt;upstat -->
<g id="edge2" class="edge">
<title>mid&#45;&gt;upstat</title>
<path fill="none" stroke="#000000" d="M597.2156,-636.1411C644.5097,-578.6075 805.7851,-382.4148 862.2583,-313.7146"/>
<polygon fill="#000000" stroke="#000000" points="864.9647,-315.934 868.6111,-305.9865 859.5572,-311.4889 864.9647,-315.934"/>
</g>
<!-- mid&#45;&gt;navnum -->
<g id="edge3" class="edge">
<title>mid&#45;&gt;navnum</title>
<path fill="none" stroke="#000000" d="M607.8329,-643.4205C672.8465,-619.2339 858.4369,-548.4889 1006.3159,-475.5202 1048.3872,-454.7608 1094.9714,-427.3353 1125.0817,-408.9896"/>
<polygon fill="#000000" stroke="#000000" points="1127.1741,-411.8124 1133.8742,-403.6051 1123.5183,-405.8429 1127.1741,-411.8124"/>
</g>
<!-- mid&#45;&gt;info -->
<g id="edge4" class="edge">
<title>mid&#45;&gt;info</title>
<path fill="none" stroke="#000000" d="M595.2104,-635.7276C622.7894,-595.9122 697.5899,-492.5098 776.7522,-422.5263 818.4868,-385.6307 973.7478,-330.8652 1043.3011,-307.5165"/>
<polygon fill="#000000" stroke="#000000" points="1044.5408,-310.7926 1052.9174,-304.3054 1042.3237,-304.1529 1044.5408,-310.7926"/>
</g>
<!-- mid&#45;&gt;getSubmitVideos -->
<g id="edge7" class="edge">
<title>mid&#45;&gt;getSubmitVideos</title>
<path fill="none" stroke="#000000" d="M599.0896,-636.9912C617.4812,-618.6155 649.7318,-586.9559 678.7665,-561.2983 726.3634,-519.2375 784.1526,-473.2407 818.7749,-446.195"/>
<polygon fill="#000000" stroke="#000000" points="821.3207,-448.6484 827.0577,-439.7412 817.0183,-443.1266 821.3207,-448.6484"/>
</g>
<!-- mid&#45;&gt;getAllSubmitVideos -->
<g id="edge10" class="edge">
<title>mid&#45;&gt;getAllSubmitVideos</title>
<path fill="none" stroke="#000000" d="M598.0761,-636.4624C615.7156,-617.2782 647.4736,-584.5319 678.7665,-561.2983 769.5955,-493.8617 803.7794,-494.9943 900.578,-436.4483 910.2583,-430.5934 913.118,-429.6873 921.936,-422.5998 929.0182,-416.9074 936.2265,-410.2457 942.7274,-403.85"/>
<polygon fill="#000000" stroke="#000000" points="945.4241,-406.1014 949.9841,-396.5381 940.4556,-401.1704 945.4241,-406.1014"/>
</g>
<!-- mid&#45;&gt;_notice -->
<g id="edge12" class="edge">
<title>mid&#45;&gt;_notice</title>
<path fill="none" stroke="#000000" d="M607.1687,-642.7184C636.0508,-630.7821 686.8503,-609.3831 729.5613,-589.2792 808.1464,-552.2896 898.4888,-504.9653 946.181,-479.5962"/>
<polygon fill="#000000" stroke="#000000" points="947.9556,-482.6165 955.1346,-474.8246 944.6635,-476.4389 947.9556,-482.6165"/>
</g>
<!-- mid&#45;&gt;getRoomInfoOld -->
<g id="edge46" class="edge">
<title>mid&#45;&gt;getRoomInfoOld</title>
<path fill="none" stroke="#000000" d="M603.3551,-665.0198C622.1527,-677.5046 651.1075,-696.7356 673.7544,-711.777"/>
<polygon fill="#000000" stroke="#000000" points="671.8243,-714.6967 682.0909,-717.3138 675.6972,-708.8656 671.8243,-714.6967"/>
</g>
<!-- mid&#45;&gt;topList -->
<g id="edge48" class="edge">
<title>mid&#45;&gt;topList</title>
<path fill="none" stroke="#000000" d="M610.8011,-654.838C618.952,-655.6462 628.1438,-656.5576 637.1483,-657.4503"/>
<polygon fill="#000000" stroke="#000000" points="636.8728,-660.9401 647.1694,-658.4439 637.5635,-653.9743 636.8728,-660.9401"/>
</g>
<!-- mid&#45;&gt;fullTopList -->
<g id="edge51" class="edge">
<title>mid&#45;&gt;fullTopList</title>
<path fill="none" stroke="#000000" d="M610.2202,-647.6077C629.9635,-644.6305 657.7315,-641.4462 682.2164,-642.2983 734.9334,-644.1327 794.273,-655.377 835.2794,-664.6288"/>
<polygon fill="#000000" stroke="#000000" points="834.5049,-668.042 845.0348,-666.8702 836.0725,-661.2197 834.5049,-668.042"/>
</g>
<!-- mid&#45;&gt;rankdb -->
<g id="edge54" class="edge">
<title>mid&#45;&gt;rankdb</title>
<path fill="none" stroke="#000000" d="M603.5976,-639.6579C622.531,-627.5392 651.5127,-608.989 673.5084,-594.9103"/>
<polygon fill="#000000" stroke="#000000" points="675.622,-597.7131 682.1576,-589.3742 671.8483,-591.8173 675.622,-597.7131"/>
</g>
<!-- cid&#45;&gt;list -->
<g id="edge6" class="edge">
<title>cid&#45;&gt;list</title>
<path fill="none" stroke="#000000" d="M584.7132,-559.591C656.4267,-505.5743 922.2073,-305.3808 1006.7177,-241.7251"/>
<polygon fill="#000000" stroke="#000000" points="1008.8864,-244.4734 1014.7682,-235.6612 1004.6748,-238.8821 1008.8864,-244.4734"/>
</g>
<!-- roomid&#45;&gt;topList -->
<g id="edge47" class="edge">
<title>roomid&#45;&gt;topList</title>
<path fill="none" stroke="#000000" d="M525.0429,-617.3822C542.5772,-621.7174 564.6292,-627.2869 584.2133,-632.5839 593.2205,-635.0201 595.4343,-635.7675 604.3819,-638.4141 616.6175,-642.0333 629.9179,-646.033 641.9959,-649.6903"/>
<polygon fill="#000000" stroke="#000000" points="641.2182,-653.1119 651.8037,-652.6661 643.2506,-646.4134 641.2182,-653.1119"/>
</g>
<!-- roomid&#45;&gt;fullTopList -->
<g id="edge50" class="edge">
<title>roomid&#45;&gt;fullTopList</title>
<path fill="none" stroke="#000000" d="M526.7001,-615.3837C594.6619,-627.0876 748.2107,-653.5306 830.8916,-667.7692"/>
<polygon fill="#000000" stroke="#000000" points="830.4071,-671.2372 840.8561,-669.4852 831.5952,-664.3388 830.4071,-671.2372"/>
</g>
<!-- roomid&#45;&gt;getAnchorInRoom -->
<g id="edge53" class="edge">
<title>roomid&#45;&gt;getAnchorInRoom</title>
<path fill="none" stroke="#000000" d="M528.6322,-609.4327C581.698,-609.2571 682.8297,-608.9226 756.0329,-608.6804"/>
<polygon fill="#000000" stroke="#000000" points="756.1806,-612.1801 766.169,-608.6469 756.1574,-605.1801 756.1806,-612.1801"/>
</g>
<!-- roomid&#45;&gt;online -->
<g id="edge30" class="edge">
<title>roomid&#45;&gt;online</title>
<path fill="none" stroke="#000000" d="M501.5264,-592.0111C517.5198,-559.1465 551.8346,-485.7456 572.2825,-420.8039 589.7416,-365.3546 589.9532,-350.2232 599.76,-292.9234 603.9714,-268.3166 607.4747,-240.1362 609.776,-219.7447"/>
<polygon fill="#000000" stroke="#000000" points="613.2807,-219.8943 610.8975,-209.571 606.3228,-219.1273 613.2807,-219.8943"/>
</g>
<!-- aid -->
<g id="node43" class="node">
<title>aid</title>
<ellipse fill="none" stroke="#000000" cx="1262.4428" cy="-72.3259" rx="27" ry="18"/>
<text text-anchor="middle" x="1262.4428" y="-68.1259" font-family="Times,serif" font-size="14.00" fill="#000000">aid</text>
</g>
<!-- aid&#45;&gt;view -->
<g id="edge5" class="edge">
<title>aid&#45;&gt;view</title>
<path fill="none" stroke="#000000" d="M1239.7106,-82.5378C1194.5506,-103.2805 1091.1129,-153.0844 1012.4725,-208.2984 960.2399,-244.9714 959.2336,-269.847 905.0933,-303.6402 876.9432,-321.211 841.6654,-335.0051 816.0093,-343.7586"/>
<polygon fill="#000000" stroke="#000000" points="814.724,-340.4975 806.34,-346.975 816.9336,-347.1396 814.724,-340.4975"/>
</g>
<!-- page -->
<g id="node44" class="node">
<title>page</title>
<ellipse fill="none" stroke="#000000" cx="1061.8476" cy="-540.697" rx="27" ry="18"/>
<text text-anchor="middle" x="1061.8476" y="-536.497" font-family="Times,serif" font-size="14.00" fill="#000000">page</text>
</g>
<!-- page&#45;&gt;getSubmitVideos -->
<g id="edge8" class="edge">
<title>page&#45;&gt;getSubmitVideos</title>
<path fill="none" stroke="#000000" stroke-dasharray="1,5" d="M1041.085,-529.1548C1005.618,-509.4381 932.8441,-468.982 887.8574,-443.9732"/>
<polygon fill="#000000" stroke="#000000" points="889.4174,-440.836 878.9765,-439.0362 886.0161,-446.9541 889.4174,-440.836"/>
</g>
<!-- page&#45;&gt;topList -->
<g id="edge49" class="edge">
<title>page&#45;&gt;topList</title>
<path fill="none" stroke="#000000" stroke-dasharray="1,5" d="M1041.9295,-552.9135C1011.8312,-570.8298 952.4651,-604.0716 897.8632,-622.2618 840.4695,-641.3821 771.2376,-652.0316 726.9281,-657.3628"/>
<polygon fill="#000000" stroke="#000000" points="726.2995,-653.9122 716.7708,-658.5441 727.1082,-660.8654 726.2995,-653.9122"/>
</g>
<!-- p -->
<g id="node45" class="node">
<title>p</title>
<ellipse fill="none" stroke="#000000" cx="339.477" cy="-747.0499" rx="27" ry="18"/>
<text text-anchor="middle" x="339.477" y="-742.8499" font-family="Times,serif" font-size="14.00" fill="#000000">p</text>
</g>
<!-- p&#45;&gt;cid -->
<g id="edge44" class="edge">
<title>p&#45;&gt;cid</title>
<path fill="none" stroke="#000000" stroke-dasharray="1,5" d="M359.8592,-734.983C394.2392,-714.2109 465.2637,-669.4782 519.0405,-623.4796 528.6643,-615.2478 538.4313,-605.281 546.599,-596.3948"/>
<polygon fill="#000000" stroke="#000000" points="549.2272,-598.7065 553.3212,-588.9346 544.0269,-594.0206 549.2272,-598.7065"/>
</g>
</g>
</svg>
