<?xml version="1.0" encoding="UTF-8" standalone="no"?>
<!DOCTYPE svg PUBLIC "-//W3C//DTD SVG 1.1//EN"
 "http://www.w3.org/Graphics/SVG/1.1/DTD/svg11.dtd">
<!-- Generated by graphviz version 2.47.3 (20210619.1520)
 -->
<!-- Title: G Pages: 1 -->
<svg width="1779pt" height="1472pt"
 viewBox="0.00 0.00 1779.00 1472.00" xmlns="http://www.w3.org/2000/svg" xmlns:xlink="http://www.w3.org/1999/xlink">
<g id="graph0" class="graph" transform="scale(1 1) rotate(0) translate(4 1468)">
<title>G</title>
<polygon fill="white" stroke="transparent" points="-4,4 -4,-1468 1775,-1468 1775,4 -4,4"/>
<g id="clust1" class="cluster">
<title>cluster_api.bilibili.com</title>
<polygon fill="none" stroke="black" points="292.99,-569.01 292.99,-941.01 872.99,-941.01 872.99,-569.01 292.99,-569.01"/>
<text text-anchor="middle" x="582.99" y="-925.81" font-family="Times,serif" font-size="14.00">api.bilibili.com</text>
</g>
<g id="clust3" class="cluster">
<title>cluster_data</title>
<polygon fill="none" stroke="black" points="480.47,-952.15 480.47,-1464.15 1190.47,-1464.15 1190.47,-952.15 480.47,-952.15"/>
<text text-anchor="middle" x="835.47" y="-1448.95" font-family="Times,serif" font-size="14.00">data</text>
</g>
<g id="clust4" class="cluster">
<title>cluster_input</title>
<polygon fill="none" stroke="black" points="1036.07,-375.1 1036.07,-597.1 1282.07,-597.1 1282.07,-375.1 1036.07,-375.1"/>
<text text-anchor="middle" x="1159.07" y="-581.9" font-family="Times,serif" font-size="14.00">input</text>
</g>
<g id="clust2" class="cluster">
<title>cluster_api.live.bilibili.com</title>
<polygon fill="none" stroke="black" points="1221.87,-816.82 1221.87,-983.82 1502.87,-983.82 1502.87,-816.82 1221.87,-816.82"/>
<text text-anchor="middle" x="1362.37" y="-968.62" font-family="Times,serif" font-size="14.00">api.live.bilibili.com</text>
</g>
<!-- stat -->
<g id="node1" class="node">
<title>stat</title>
<ellipse fill="none" stroke="black" cx="450" cy="-642" rx="27" ry="18"/>
<text text-anchor="middle" x="450" y="-638.3" font-family="Times,serif" font-size="14.00">stat</text>
</g>
<!-- follower -->
<g id="node17" class="node">
<title>follower</title>
<ellipse fill="none" stroke="black" cx="678.03" cy="-1121.88" rx="41.69" ry="18"/>
<text text-anchor="middle" x="678.03" y="-1118.18" font-family="Times,serif" font-size="14.00">follower</text>
</g>
<!-- stat&#45;&gt;follower -->
<g id="edge18" class="edge">
<title>stat&#45;&gt;follower</title>
<path fill="none" stroke="black" d="M456.35,-659.73C477.12,-716.89 546.17,-900.8 624.71,-1042.39 635.09,-1061.1 648.51,-1081.1 659.3,-1096.35"/>
<polygon fill="black" stroke="black" points="656.63,-1098.64 665.3,-1104.74 662.33,-1094.57 656.63,-1098.64"/>
</g>
<!-- archiveStat -->
<g id="node2" class="node">
<title>archiveStat</title>
<ellipse fill="none" stroke="black" cx="377.31" cy="-703.14" rx="51.19" ry="18"/>
<text text-anchor="middle" x="377.31" y="-699.44" font-family="Times,serif" font-size="14.00">archiveStat</text>
</g>
<!-- bvid -->
<g id="node47" class="node">
<title>bvid</title>
<ellipse fill="none" stroke="black" cx="1246.85" cy="-428.11" rx="27" ry="18"/>
<text text-anchor="middle" x="1246.85" y="-424.41" font-family="Times,serif" font-size="14.00">bvid</text>
</g>
<!-- archiveStat&#45;&gt;bvid -->
<g id="edge53" class="edge">
<title>archiveStat&#45;&gt;bvid</title>
<path fill="none" stroke="black" d="M415.51,-691.06C560.37,-645.24 1074.54,-482.61 1212.55,-438.96"/>
<polygon fill="black" stroke="black" points="1213.71,-442.26 1222.19,-435.91 1211.6,-435.58 1213.71,-442.26"/>
</g>
<!-- upstat -->
<g id="node3" class="node">
<title>upstat</title>
<ellipse fill="none" stroke="black" cx="577.12" cy="-786.37" rx="32.49" ry="18"/>
<text text-anchor="middle" x="577.12" y="-782.67" font-family="Times,serif" font-size="14.00">upstat</text>
</g>
<!-- archiveView -->
<g id="node37" class="node">
<title>archiveView</title>
<ellipse fill="none" stroke="black" cx="544.64" cy="-1191.81" rx="56.59" ry="18"/>
<text text-anchor="middle" x="544.64" y="-1188.11" font-family="Times,serif" font-size="14.00">archiveView</text>
</g>
<!-- upstat&#45;&gt;archiveView -->
<g id="edge41" class="edge">
<title>upstat&#45;&gt;archiveView</title>
<path fill="none" stroke="black" d="M569.06,-804.05C561.87,-820.84 551.86,-847 547.7,-870.88 529.17,-977.41 536.98,-1106.85 541.84,-1163.25"/>
<polygon fill="black" stroke="black" points="538.38,-1163.88 542.76,-1173.53 545.35,-1163.26 538.38,-1163.88"/>
</g>
<!-- articleView -->
<g id="node38" class="node">
<title>articleView</title>
<ellipse fill="none" stroke="black" cx="783.01" cy="-1141.94" rx="52.79" ry="18"/>
<text text-anchor="middle" x="783.01" y="-1138.24" font-family="Times,serif" font-size="14.00">articleView</text>
</g>
<!-- upstat&#45;&gt;articleView -->
<g id="edge42" class="edge">
<title>upstat&#45;&gt;articleView</title>
<path fill="none" stroke="black" d="M601.35,-798.63C626.92,-812.76 666.69,-838.3 689.99,-871.03 734.1,-932.98 717.19,-962.16 742.24,-1033.97 751.87,-1061.57 763.76,-1092.78 772.21,-1114.52"/>
<polygon fill="black" stroke="black" points="769.05,-1116.04 775.95,-1124.09 775.57,-1113.5 769.05,-1116.04"/>
</g>
<!-- info -->
<g id="node4" class="node">
<title>info</title>
<ellipse fill="none" stroke="black" cx="783.64" cy="-808.86" rx="27" ry="18"/>
<text text-anchor="middle" x="783.64" y="-805.16" font-family="Times,serif" font-size="14.00">info</text>
</g>
<!-- uname -->
<g id="node18" class="node">
<title>uname</title>
<ellipse fill="none" stroke="black" cx="891.92" cy="-1045.15" rx="35.19" ry="18"/>
<text text-anchor="middle" x="891.92" y="-1041.45" font-family="Times,serif" font-size="14.00">uname</text>
</g>
<!-- info&#45;&gt;uname -->
<g id="edge19" class="edge">
<title>info&#45;&gt;uname</title>
<path fill="none" stroke="black" d="M785.12,-827.1C788.81,-862.3 801.14,-940.6 840.29,-991.56 848.41,-1002.12 858.37,-1012.87 867.36,-1021.94"/>
<polygon fill="black" stroke="black" points="865.06,-1024.59 874.63,-1029.13 869.98,-1019.61 865.06,-1024.59"/>
</g>
<!-- sign -->
<g id="node19" class="node">
<title>sign</title>
<ellipse fill="none" stroke="black" cx="761.56" cy="-977.71" rx="27" ry="18"/>
<text text-anchor="middle" x="761.56" y="-974.01" font-family="Times,serif" font-size="14.00">sign</text>
</g>
<!-- info&#45;&gt;sign -->
<g id="edge20" class="edge">
<title>info&#45;&gt;sign</title>
<path fill="none" stroke="black" d="M781.27,-826.93C777.42,-856.38 769.77,-914.94 765.21,-949.78"/>
<polygon fill="black" stroke="black" points="761.73,-949.4 763.91,-959.77 768.67,-950.31 761.73,-949.4"/>
</g>
<!-- coins -->
<g id="node20" class="node">
<title>coins</title>
<ellipse fill="none" stroke="black" cx="976.58" cy="-1290.75" rx="29.8" ry="18"/>
<text text-anchor="middle" x="976.58" y="-1287.05" font-family="Times,serif" font-size="14.00">coins</text>
</g>
<!-- info&#45;&gt;coins -->
<g id="edge21" class="edge">
<title>info&#45;&gt;coins</title>
<path fill="none" stroke="black" d="M784.13,-827.07C786.33,-882.33 798.24,-1051.77 862.49,-1172.23 883.96,-1212.48 923.05,-1248.64 949.41,-1270.15"/>
<polygon fill="black" stroke="black" points="947.49,-1273.09 957.49,-1276.6 951.86,-1267.62 947.49,-1273.09"/>
</g>
<!-- liveRoom -->
<g id="node30" class="node">
<title>liveRoom</title>
<ellipse fill="none" stroke="black" cx="865.41" cy="-1339.61" rx="46.59" ry="18"/>
<text text-anchor="middle" x="865.41" y="-1335.91" font-family="Times,serif" font-size="14.00">liveRoom</text>
</g>
<!-- info&#45;&gt;liveRoom -->
<g id="edge31" class="edge">
<title>info&#45;&gt;liveRoom</title>
<path fill="none" stroke="black" d="M786.2,-826.99C794.07,-880.67 819.98,-1043.17 862.49,-1172.23 874.07,-1207.37 894.91,-1211.19 896.64,-1248.15 897.7,-1270.78 888.96,-1294.97 880.46,-1312.79"/>
<polygon fill="black" stroke="black" points="877.2,-1311.48 875.83,-1321.98 883.45,-1314.63 877.2,-1311.48"/>
</g>
<!-- face -->
<g id="node39" class="node">
<title>face</title>
<ellipse fill="none" stroke="black" cx="582.41" cy="-1086.66" rx="27" ry="18"/>
<text text-anchor="middle" x="582.41" y="-1082.96" font-family="Times,serif" font-size="14.00">face</text>
</g>
<!-- info&#45;&gt;face -->
<g id="edge43" class="edge">
<title>info&#45;&gt;face</title>
<path fill="none" stroke="black" d="M777.14,-826.53C764.87,-858.58 736.13,-927.64 698.91,-977.89 689.5,-990.61 655.26,-1013.48 638.48,-1028.56 626.4,-1039.42 613.77,-1052.35 603.56,-1063.25"/>
<polygon fill="black" stroke="black" points="600.82,-1061.06 596.6,-1070.78 605.96,-1065.82 600.82,-1061.06"/>
</g>
<!-- topPhoto -->
<g id="node40" class="node">
<title>topPhoto</title>
<ellipse fill="none" stroke="black" cx="851.5" cy="-1248.03" rx="43.59" ry="18"/>
<text text-anchor="middle" x="851.5" y="-1244.33" font-family="Times,serif" font-size="14.00">topPhoto</text>
</g>
<!-- info&#45;&gt;topPhoto -->
<g id="edge44" class="edge">
<title>info&#45;&gt;topPhoto</title>
<path fill="none" stroke="black" d="M786.71,-826.9C795.18,-876.89 819.45,-1021.52 837.25,-1142.09 841.15,-1168.47 845.16,-1198.62 847.93,-1219.99"/>
<polygon fill="black" stroke="black" points="844.47,-1220.54 849.22,-1230.01 851.41,-1219.65 844.47,-1220.54"/>
</g>
<!-- view -->
<g id="node5" class="node">
<title>view</title>
<ellipse fill="none" stroke="black" cx="434.42" cy="-892.28" rx="28.7" ry="18"/>
<text text-anchor="middle" x="434.42" y="-888.58" font-family="Times,serif" font-size="14.00">view</text>
</g>
<!-- cids -->
<g id="node43" class="node">
<title>cids</title>
<ellipse fill="none" stroke="black" cx="770.84" cy="-1034.03" rx="27" ry="18"/>
<text text-anchor="middle" x="770.84" y="-1030.33" font-family="Times,serif" font-size="14.00">cids</text>
</g>
<!-- view&#45;&gt;cids -->
<g id="edge47" class="edge">
<title>view&#45;&gt;cids</title>
<path fill="none" stroke="black" d="M454.62,-905.35C487.36,-926.06 554.54,-966.59 615.97,-991.43 655.51,-1007.41 703.09,-1019.5 734.98,-1026.65"/>
<polygon fill="black" stroke="black" points="734.23,-1030.07 744.75,-1028.79 735.74,-1023.23 734.23,-1030.07"/>
</g>
<!-- mid -->
<g id="node45" class="node">
<title>mid</title>
<ellipse fill="none" stroke="black" cx="1122.92" cy="-492.07" rx="27" ry="18"/>
<text text-anchor="middle" x="1122.92" y="-488.37" font-family="Times,serif" font-size="14.00">mid</text>
</g>
<!-- view&#45;&gt;mid -->
<g id="edge50" class="edge">
<title>view&#45;&gt;mid</title>
<path fill="none" stroke="black" stroke-dasharray="5,2" d="M456.44,-880.56C488.51,-863.41 549.81,-830.23 601.03,-800.34 803.85,-681.96 842.44,-631.35 1050.82,-523.07 1063.32,-516.57 1077.48,-510.27 1089.92,-505.06"/>
<polygon fill="black" stroke="black" points="1091.55,-508.18 1099.47,-501.14 1088.89,-501.7 1091.55,-508.18"/>
</g>
<!-- cid -->
<g id="node48" class="node">
<title>cid</title>
<ellipse fill="none" stroke="black" cx="1238.94" cy="-548.51" rx="27" ry="18"/>
<text text-anchor="middle" x="1238.94" y="-544.81" font-family="Times,serif" font-size="14.00">cid</text>
</g>
<!-- view&#45;&gt;cid -->
<g id="edge54" class="edge">
<title>view&#45;&gt;cid</title>
<path fill="none" stroke="black" d="M456.84,-881C513.65,-852.58 668.11,-776.22 799.97,-719.46 949.2,-655.22 1131.16,-587.74 1205.19,-560.73"/>
<polygon fill="black" stroke="black" points="1206.71,-563.9 1214.91,-557.19 1204.32,-557.32 1206.71,-563.9"/>
</g>
<!-- list -->
<g id="node6" class="node">
<title>list</title>
<ellipse fill="none" stroke="black" cx="566.94" cy="-702.05" rx="27" ry="18"/>
<text text-anchor="middle" x="566.94" y="-698.35" font-family="Times,serif" font-size="14.00">list</text>
</g>
<!-- spaceSearch -->
<g id="node7" class="node">
<title>spaceSearch</title>
<ellipse fill="none" stroke="black" cx="658.38" cy="-723.64" rx="55.79" ry="18"/>
<text text-anchor="middle" x="658.38" y="-719.94" font-family="Times,serif" font-size="14.00">spaceSearch</text>
</g>
<!-- video -->
<g id="node21" class="node">
<title>video</title>
<ellipse fill="none" stroke="black" cx="942.81" cy="-1089.63" rx="31.4" ry="18"/>
<text text-anchor="middle" x="942.81" y="-1085.93" font-family="Times,serif" font-size="14.00">video</text>
</g>
<!-- spaceSearch&#45;&gt;video -->
<g id="edge22" class="edge">
<title>spaceSearch&#45;&gt;video</title>
<path fill="none" stroke="black" d="M676.73,-740.91C716.58,-778.94 812.91,-873.71 880.75,-963.84 885.07,-969.59 885.44,-971.52 889.12,-977.7 906.88,-1007.57 914.47,-1013.45 928.62,-1045.19 930.97,-1050.46 933.11,-1056.24 934.98,-1061.84"/>
<polygon fill="black" stroke="black" points="931.69,-1063.07 938.02,-1071.56 938.37,-1060.97 931.69,-1063.07"/>
</g>
<!-- getSubmitVideosPage -->
<g id="node24" class="node">
<title>getSubmitVideosPage</title>
<ellipse fill="none" stroke="black" cx="955.08" cy="-1172.34" rx="90.98" ry="18"/>
<text text-anchor="middle" x="955.08" y="-1168.64" font-family="Times,serif" font-size="14.00">getSubmitVideosPage</text>
</g>
<!-- spaceSearch&#45;&gt;getSubmitVideosPage -->
<g id="edge25" class="edge">
<title>spaceSearch&#45;&gt;getSubmitVideosPage</title>
<path fill="none" stroke="black" d="M668.41,-741.48C696.33,-790.85 778.02,-933 855.23,-1045.1 859.64,-1051.52 861.13,-1052.83 865.92,-1058.98 889.35,-1089.07 916.46,-1123.48 934.58,-1146.42"/>
<polygon fill="black" stroke="black" points="931.88,-1148.65 940.82,-1154.32 937.37,-1144.31 931.88,-1148.65"/>
</g>
<!-- getAllSubmitVideos -->
<g id="node8" class="node">
<title>getAllSubmitVideos</title>
<ellipse fill="none" stroke="black" cx="386.26" cy="-827.62" rx="85.29" ry="18"/>
<text text-anchor="middle" x="386.26" y="-823.92" font-family="Times,serif" font-size="14.00">getAllSubmitVideos</text>
</g>
<!-- allVideos -->
<g id="node26" class="node">
<title>allVideos</title>
<ellipse fill="none" stroke="black" cx="1029.45" cy="-1106.63" rx="44.69" ry="18"/>
<text text-anchor="middle" x="1029.45" y="-1102.93" font-family="Times,serif" font-size="14.00">allVideos</text>
</g>
<!-- getAllSubmitVideos&#45;&gt;allVideos -->
<g id="edge27" class="edge">
<title>getAllSubmitVideos&#45;&gt;allVideos</title>
<path fill="none" stroke="black" d="M435.44,-842.33C511.01,-865.44 659.77,-912.9 781.95,-963.96 797.5,-970.46 903.35,-1022.84 917.93,-1031.32 946.45,-1047.91 977.45,-1069.12 999.51,-1084.8"/>
<polygon fill="black" stroke="black" points="997.62,-1087.76 1007.79,-1090.73 1001.7,-1082.06 997.62,-1087.76"/>
</g>
<!-- getFollowers -->
<g id="node9" class="node">
<title>getFollowers</title>
<ellipse fill="none" stroke="black" cx="649.98" cy="-650.76" rx="58.49" ry="18"/>
<text text-anchor="middle" x="649.98" y="-647.06" font-family="Times,serif" font-size="14.00">getFollowers</text>
</g>
<!-- getFollowersPage -->
<g id="node27" class="node">
<title>getFollowersPage</title>
<ellipse fill="none" stroke="black" cx="677.68" cy="-1375.7" rx="76.09" ry="18"/>
<text text-anchor="middle" x="677.68" y="-1372" font-family="Times,serif" font-size="14.00">getFollowersPage</text>
</g>
<!-- getFollowers&#45;&gt;getFollowersPage -->
<g id="edge28" class="edge">
<title>getFollowers&#45;&gt;getFollowersPage</title>
<path fill="none" stroke="black" d="M632.7,-668.07C620.52,-681.78 605.58,-702.15 600.89,-723.6 594.84,-751.29 617.85,-758.98 611.22,-786.53 600.22,-832.15 556.15,-824.72 547.7,-870.88 529.71,-969.22 589.83,-989.02 611.01,-1086.72 633.65,-1191.13 607.73,-1224.55 644.97,-1324.69 648.13,-1333.19 652.88,-1341.76 657.78,-1349.38"/>
<polygon fill="black" stroke="black" points="655,-1351.52 663.52,-1357.82 660.79,-1347.58 655,-1351.52"/>
</g>
<!-- getAllFollowers -->
<g id="node10" class="node">
<title>getAllFollowers</title>
<ellipse fill="none" stroke="black" cx="618.85" cy="-870.95" rx="69.59" ry="18"/>
<text text-anchor="middle" x="618.85" y="-867.25" font-family="Times,serif" font-size="14.00">getAllFollowers</text>
</g>
<!-- allFollowers -->
<g id="node28" class="node">
<title>allFollowers</title>
<ellipse fill="none" stroke="black" cx="562.75" cy="-1241.83" rx="55.79" ry="18"/>
<text text-anchor="middle" x="562.75" y="-1238.13" font-family="Times,serif" font-size="14.00">allFollowers</text>
</g>
<!-- getAllFollowers&#45;&gt;allFollowers -->
<g id="edge29" class="edge">
<title>getAllFollowers&#45;&gt;allFollowers</title>
<path fill="none" stroke="black" d="M614.69,-888.93C610.13,-910.01 603.3,-946.07 602.13,-977.51 598.58,-1072.7 637.83,-1103.26 602.79,-1191.84 599.24,-1200.8 593.51,-1209.42 587.48,-1216.91"/>
<polygon fill="black" stroke="black" points="584.77,-1214.68 580.9,-1224.55 590.08,-1219.25 584.77,-1214.68"/>
</g>
<!-- search -->
<g id="node11" class="node">
<title>search</title>
<ellipse fill="none" stroke="black" cx="570.77" cy="-595.11" rx="33.6" ry="18"/>
<text text-anchor="middle" x="570.77" y="-591.41" font-family="Times,serif" font-size="14.00">search</text>
</g>
<!-- search&#45;&gt;mid -->
<g id="edge51" class="edge">
<title>search&#45;&gt;mid</title>
<path fill="none" stroke="black" stroke-dasharray="5,2" d="M602.84,-589.13C699.09,-571.16 985.09,-517.79 1086.64,-498.84"/>
<polygon fill="black" stroke="black" points="1087.53,-502.24 1096.72,-496.96 1086.24,-495.35 1087.53,-502.24"/>
</g>
<!-- _notice -->
<g id="node12" class="node">
<title>_notice</title>
<ellipse fill="none" stroke="black" cx="827.6" cy="-733.4" rx="37.89" ry="18"/>
<text text-anchor="middle" x="827.6" y="-729.7" font-family="Times,serif" font-size="14.00">_notice</text>
</g>
<!-- notice -->
<g id="node36" class="node">
<title>notice</title>
<ellipse fill="none" stroke="black" cx="1149.1" cy="-1145.61" rx="33.29" ry="18"/>
<text text-anchor="middle" x="1149.1" y="-1141.91" font-family="Times,serif" font-size="14.00">notice</text>
</g>
<!-- _notice&#45;&gt;notice -->
<g id="edge40" class="edge">
<title>_notice&#45;&gt;notice</title>
<path fill="none" stroke="black" d="M840.8,-750.33C890.98,-814.66 1069.99,-1044.17 1129.62,-1120.63"/>
<polygon fill="black" stroke="black" points="1127.06,-1123.03 1135.97,-1128.77 1132.58,-1118.73 1127.06,-1123.03"/>
</g>
<!-- topList -->
<g id="node13" class="node">
<title>topList</title>
<ellipse fill="none" stroke="black" cx="1422.58" cy="-843.09" rx="36.29" ry="18"/>
<text text-anchor="middle" x="1422.58" y="-839.39" font-family="Times,serif" font-size="14.00">topList</text>
</g>
<!-- guardNum -->
<g id="node22" class="node">
<title>guardNum</title>
<ellipse fill="none" stroke="black" cx="692.75" cy="-1224.67" rx="49.29" ry="18"/>
<text text-anchor="middle" x="692.75" y="-1220.97" font-family="Times,serif" font-size="14.00">guardNum</text>
</g>
<!-- topList&#45;&gt;guardNum -->
<g id="edge23" class="edge">
<title>topList&#45;&gt;guardNum</title>
<path fill="none" stroke="black" d="M1392.25,-853.34C1355.68,-866.37 1293.05,-890.87 1244.28,-921.25 1189.69,-955.26 1186.99,-978.58 1133.71,-1014.59 1063.75,-1061.87 1041.8,-1066.66 965.86,-1103.57 885.11,-1142.82 788.69,-1184.36 734.71,-1207.15"/>
<polygon fill="black" stroke="black" points="733.32,-1203.94 725.46,-1211.05 736.04,-1210.39 733.32,-1203.94"/>
</g>
<!-- topListPage -->
<g id="node23" class="node">
<title>topListPage</title>
<ellipse fill="none" stroke="black" cx="700.51" cy="-1324.69" rx="53.89" ry="18"/>
<text text-anchor="middle" x="700.51" y="-1320.99" font-family="Times,serif" font-size="14.00">topListPage</text>
</g>
<!-- topList&#45;&gt;topListPage -->
<g id="edge24" class="edge">
<title>topList&#45;&gt;topListPage</title>
<path fill="none" stroke="black" d="M1392.25,-853.34C1355.68,-866.37 1293.05,-890.87 1244.28,-921.25 1189.69,-955.26 1186.43,-977.77 1133.71,-1014.59 1019.41,-1094.43 973.91,-1088.42 862.49,-1172.23 809.01,-1212.47 753.7,-1268.1 723.55,-1299.84"/>
<polygon fill="black" stroke="black" points="720.77,-1297.7 716.45,-1307.37 725.86,-1302.5 720.77,-1297.7"/>
</g>
<!-- fullTopList -->
<g id="node14" class="node">
<title>fullTopList</title>
<ellipse fill="none" stroke="black" cx="1281.69" cy="-935.12" rx="51.19" ry="18"/>
<text text-anchor="middle" x="1281.69" y="-931.42" font-family="Times,serif" font-size="14.00">fullTopList</text>
</g>
<!-- guards -->
<g id="node25" class="node">
<title>guards</title>
<ellipse fill="none" stroke="black" cx="973.16" cy="-985.67" rx="35.19" ry="18"/>
<text text-anchor="middle" x="973.16" y="-981.97" font-family="Times,serif" font-size="14.00">guards</text>
</g>
<!-- fullTopList&#45;&gt;guards -->
<g id="edge26" class="edge">
<title>fullTopList&#45;&gt;guards</title>
<path fill="none" stroke="black" d="M1235.17,-942.74C1175.93,-952.45 1074.36,-969.09 1016.63,-978.54"/>
<polygon fill="black" stroke="black" points="1016.02,-975.1 1006.72,-980.17 1017.15,-982 1016.02,-975.1"/>
</g>
<!-- getInfoByRoom -->
<g id="node15" class="node">
<title>getInfoByRoom</title>
<ellipse fill="none" stroke="black" cx="1425.71" cy="-887.1" rx="69.59" ry="18"/>
<text text-anchor="middle" x="1425.71" y="-883.4" font-family="Times,serif" font-size="14.00">getInfoByRoom</text>
</g>
<!-- anchorScore -->
<g id="node41" class="node">
<title>anchorScore</title>
<ellipse fill="none" stroke="black" cx="1076.66" cy="-1294.75" rx="55.79" ry="18"/>
<text text-anchor="middle" x="1076.66" y="-1291.05" font-family="Times,serif" font-size="14.00">anchorScore</text>
</g>
<!-- getInfoByRoom&#45;&gt;anchorScore -->
<g id="edge45" class="edge">
<title>getInfoByRoom&#45;&gt;anchorScore</title>
<path fill="none" stroke="black" d="M1410.49,-904.88C1354.91,-969.79 1162.82,-1194.13 1098.13,-1269.69"/>
<polygon fill="black" stroke="black" points="1095.42,-1267.46 1091.57,-1277.34 1100.74,-1272.02 1095.42,-1267.46"/>
</g>
<!-- liveStartTime -->
<g id="node44" class="node">
<title>liveStartTime</title>
<ellipse fill="none" stroke="black" cx="1024.76" cy="-1345.76" rx="60.39" ry="18"/>
<text text-anchor="middle" x="1024.76" y="-1342.06" font-family="Times,serif" font-size="14.00">liveStartTime</text>
</g>
<!-- getInfoByRoom&#45;&gt;liveStartTime -->
<g id="edge48" class="edge">
<title>getInfoByRoom&#45;&gt;liveStartTime</title>
<path fill="none" stroke="black" d="M1415.29,-905.05C1380.29,-964.48 1262,-1158.82 1134.16,-1294.83 1119.24,-1310.71 1098.39,-1322.09 1078.89,-1330.01"/>
<polygon fill="black" stroke="black" points="1077.54,-1326.77 1069.46,-1333.62 1080.05,-1333.31 1077.54,-1326.77"/>
</g>
<!-- getInfoByRoom&#45;&gt;mid -->
<g id="edge49" class="edge">
<title>getInfoByRoom&#45;&gt;mid</title>
<path fill="none" stroke="black" stroke-dasharray="5,2" d="M1407.6,-869.54C1403.59,-865.48 1399.42,-861.12 1395.68,-856.93 1390.42,-851.04 1389.41,-849.31 1384.59,-843.06 1290.9,-721.76 1182.45,-573.78 1140.63,-516.41"/>
<polygon fill="black" stroke="black" points="1143.44,-514.33 1134.73,-508.31 1137.79,-518.45 1143.44,-514.33"/>
</g>
<!-- rankdb -->
<g id="node16" class="node">
<title>rankdb</title>
<ellipse fill="none" stroke="black" cx="1285.96" cy="-846.09" rx="36" ry="18"/>
<text text-anchor="middle" x="1285.96" y="-842.39" font-family="Times,serif" font-size="14.00">rankdb</text>
</g>
<!-- areaRank -->
<g id="node42" class="node">
<title>areaRank</title>
<ellipse fill="none" stroke="black" cx="671.16" cy="-1042.49" rx="44.69" ry="18"/>
<text text-anchor="middle" x="671.16" y="-1038.79" font-family="Times,serif" font-size="14.00">areaRank</text>
</g>
<!-- rankdb&#45;&gt;areaRank -->
<g id="edge46" class="edge">
<title>rankdb&#45;&gt;areaRank</title>
<path fill="none" stroke="black" d="M1253.89,-854.32C1182.89,-872.56 1007.13,-918 860.52,-958.1 851.51,-960.57 849.04,-960.55 840.3,-963.84 813.28,-974 807.77,-979.46 781.62,-991.68 758.07,-1002.68 731.62,-1014.86 710.5,-1024.53"/>
<polygon fill="black" stroke="black" points="708.84,-1021.44 701.21,-1028.79 711.76,-1027.81 708.84,-1021.44"/>
</g>
<!-- uname&#45;&gt;search -->
<g id="edge16" class="edge">
<title>uname&#45;&gt;search</title>
<path fill="none" stroke="black" d="M872.31,-1029.82C819.42,-987.37 673,-862.2 600.89,-723.6 600.3,-722.47 585.86,-660.31 577.19,-622.87"/>
<polygon fill="black" stroke="black" points="580.58,-622 574.91,-613.04 573.76,-623.57 580.58,-622"/>
</g>
<!-- topListPage&#45;&gt;fullTopList -->
<g id="edge62" class="edge">
<title>topListPage&#45;&gt;fullTopList</title>
<path fill="none" stroke="black" d="M716.45,-1307.37C744.31,-1277.64 804.48,-1215.88 862.49,-1172.23 917.9,-1130.55 936.55,-1127.17 996.72,-1092.72 1085.07,-1042.13 1190.14,-984.73 1244.68,-955.13"/>
<polygon fill="black" stroke="black" points="1246.51,-958.13 1253.63,-950.28 1243.17,-951.97 1246.51,-958.13"/>
</g>
<!-- getSubmitVideosPage&#45;&gt;getAllSubmitVideos -->
<g id="edge9" class="edge">
<title>getSubmitVideosPage&#45;&gt;getAllSubmitVideos</title>
<path fill="none" stroke="black" d="M927.46,-1155.07C881.87,-1126.89 787.6,-1070.03 704.16,-1028.7 666.03,-1009.81 653.12,-1012.19 615.97,-991.43 595.44,-979.95 476.43,-893.5 418.25,-851.03"/>
<polygon fill="black" stroke="black" points="420.27,-848.17 410.13,-845.09 416.14,-853.82 420.27,-848.17"/>
</g>
<!-- guardLevel -->
<g id="node29" class="node">
<title>guardLevel</title>
<ellipse fill="none" stroke="black" cx="1092.52" cy="-1414.7" rx="51.99" ry="18"/>
<text text-anchor="middle" x="1092.52" y="-1411" font-family="Times,serif" font-size="14.00">guardLevel</text>
</g>
<!-- guards&#45;&gt;guardLevel -->
<g id="edge30" class="edge">
<title>guards&#45;&gt;guardLevel</title>
<path fill="none" stroke="black" d="M990.53,-1001.65C1013.2,-1023.38 1052.68,-1064.41 1075.89,-1106.69 1118.02,-1183.43 1135.65,-1207.31 1134.16,-1294.83 1133.59,-1328.13 1119.17,-1363.9 1107.46,-1387.61"/>
<polygon fill="black" stroke="black" points="1104.26,-1386.19 1102.82,-1396.69 1110.49,-1389.38 1104.26,-1386.19"/>
</g>
<!-- getFollowersPage&#45;&gt;getAllFollowers -->
<g id="edge14" class="edge">
<title>getFollowersPage&#45;&gt;getAllFollowers</title>
<path fill="none" stroke="black" d="M663.42,-1357.86C656.71,-1348.51 649.26,-1336.56 644.97,-1324.69 631.77,-1288.13 601.49,-1016.37 602.13,-977.51 602.57,-950.6 607.78,-920.32 612.27,-898.94"/>
<polygon fill="black" stroke="black" points="615.75,-899.44 614.46,-888.92 608.91,-897.94 615.75,-899.44"/>
</g>
<!-- roomStatus -->
<g id="node31" class="node">
<title>roomStatus</title>
<ellipse fill="none" stroke="black" cx="954.52" cy="-1414.7" rx="51.99" ry="18"/>
<text text-anchor="middle" x="954.52" y="-1411" font-family="Times,serif" font-size="14.00">roomStatus</text>
</g>
<!-- liveRoom&#45;&gt;roomStatus -->
<g id="edge32" class="edge">
<title>liveRoom&#45;&gt;roomStatus</title>
<path fill="none" stroke="black" d="M885.19,-1356.27C897.33,-1366.51 913.08,-1379.78 926.49,-1391.08"/>
<polygon fill="black" stroke="black" points="924.59,-1394.05 934.49,-1397.82 929.1,-1388.7 924.59,-1394.05"/>
</g>
<!-- roundStatus -->
<g id="node32" class="node">
<title>roundStatus</title>
<ellipse fill="none" stroke="black" cx="1094.52" cy="-1000.7" rx="53.89" ry="18"/>
<text text-anchor="middle" x="1094.52" y="-997" font-family="Times,serif" font-size="14.00">roundStatus</text>
</g>
<!-- liveRoom&#45;&gt;roundStatus -->
<g id="edge34" class="edge">
<title>liveRoom&#45;&gt;roundStatus</title>
<path fill="none" stroke="black" d="M888.18,-1323.78C925.79,-1296.63 1001.35,-1237.77 1047.68,-1172.46 1078.71,-1128.71 1089.2,-1065.34 1092.73,-1029.06"/>
<polygon fill="black" stroke="black" points="1096.25,-1028.99 1093.62,-1018.72 1089.28,-1028.39 1096.25,-1028.99"/>
</g>
<!-- liveStatus -->
<g id="node33" class="node">
<title>liveStatus</title>
<ellipse fill="none" stroke="black" cx="650.52" cy="-977.7" rx="46.59" ry="18"/>
<text text-anchor="middle" x="650.52" y="-974" font-family="Times,serif" font-size="14.00">liveStatus</text>
</g>
<!-- liveRoom&#45;&gt;liveStatus -->
<g id="edge36" class="edge">
<title>liveRoom&#45;&gt;liveStatus</title>
<path fill="none" stroke="black" d="M849.1,-1322.52C819.35,-1290.21 756.79,-1216.65 728.77,-1141.8 713.21,-1100.24 736.52,-1082.72 717.6,-1042.59 709.71,-1025.84 695.49,-1011.11 682.17,-999.94"/>
<polygon fill="black" stroke="black" points="684.06,-996.97 674.06,-993.46 679.69,-1002.44 684.06,-996.97"/>
</g>
<!-- title -->
<g id="node34" class="node">
<title>title</title>
<ellipse fill="none" stroke="black" cx="860.52" cy="-977.7" rx="27" ry="18"/>
<text text-anchor="middle" x="860.52" y="-974" font-family="Times,serif" font-size="14.00">title</text>
</g>
<!-- liveRoom&#45;&gt;title -->
<g id="edge37" class="edge">
<title>liveRoom&#45;&gt;title</title>
<path fill="none" stroke="black" d="M875.83,-1321.98C885.39,-1303.99 897.9,-1274.97 896.64,-1248.15 894.91,-1211.19 871.29,-1208.17 862.49,-1172.23 849.05,-1117.26 854.62,-1101.69 855.23,-1045.1 855.36,-1032.12 856.37,-1017.78 857.47,-1005.67"/>
<polygon fill="black" stroke="black" points="860.96,-1005.99 858.44,-995.69 853.99,-1005.31 860.96,-1005.99"/>
</g>
<!-- online -->
<g id="node35" class="node">
<title>online</title>
<ellipse fill="none" stroke="black" cx="820.52" cy="-1414.7" rx="33.29" ry="18"/>
<text text-anchor="middle" x="820.52" y="-1411" font-family="Times,serif" font-size="14.00">online</text>
</g>
<!-- liveRoom&#45;&gt;online -->
<g id="edge39" class="edge">
<title>liveRoom&#45;&gt;online</title>
<path fill="none" stroke="black" d="M854.77,-1357.4C849.16,-1366.8 842.17,-1378.49 835.96,-1388.87"/>
<polygon fill="black" stroke="black" points="832.9,-1387.17 830.77,-1397.55 838.91,-1390.76 832.9,-1387.17"/>
</g>
<!-- roomid -->
<g id="node49" class="node">
<title>roomid</title>
<ellipse fill="none" stroke="black" cx="1102.64" cy="-400.98" rx="37.09" ry="18"/>
<text text-anchor="middle" x="1102.64" y="-397.28" font-family="Times,serif" font-size="14.00">roomid</text>
</g>
<!-- liveRoom&#45;&gt;roomid -->
<g id="edge56" class="edge">
<title>liveRoom&#45;&gt;roomid</title>
<path fill="none" stroke="black" d="M875.83,-1321.98C885.39,-1303.99 897.9,-1274.97 896.64,-1248.15 894.91,-1211.19 861.44,-1209.22 862.49,-1172.23 864.32,-1108.6 909.49,-1105.9 928.62,-1045.19 936.66,-1019.66 931.64,-1011.81 936.46,-985.48 973.37,-783.98 976.95,-731.03 1042.31,-536.89 1055.44,-497.88 1075.61,-454.75 1088.96,-427.76"/>
<polygon fill="black" stroke="black" points="1092.21,-429.09 1093.55,-418.58 1085.95,-425.97 1092.21,-429.09"/>
</g>
<!-- roomStatus&#45;&gt;roundStatus -->
<g id="edge33" class="edge">
<title>roomStatus&#45;&gt;roundStatus</title>
<path fill="none" stroke="black" d="M953.78,-1396.63C953.86,-1382.23 955.49,-1361.87 962.72,-1345.68 975.62,-1316.77 993.71,-1318.98 1008.08,-1290.78 1047.65,-1213.08 1053.19,-1190.88 1075.89,-1106.69 1082.89,-1080.77 1087.9,-1050.55 1090.95,-1029.02"/>
<polygon fill="black" stroke="black" points="1094.44,-1029.3 1092.33,-1018.92 1087.51,-1028.36 1094.44,-1029.3"/>
</g>
<!-- roomStatus&#45;&gt;liveStatus -->
<g id="edge35" class="edge">
<title>roomStatus&#45;&gt;liveStatus</title>
<path fill="none" stroke="black" d="M949.36,-1396.55C940.28,-1365.51 920.18,-1300.5 896.64,-1248.15 874.49,-1198.88 871.08,-1184.21 837.25,-1142.09 790.36,-1083.7 721.33,-1029 681.66,-999.77"/>
<polygon fill="black" stroke="black" points="683.32,-996.65 673.18,-993.58 679.2,-1002.31 683.32,-996.65"/>
</g>
<!-- liveStatus&#45;&gt;online -->
<g id="edge38" class="edge">
<title>liveStatus&#45;&gt;online</title>
<path fill="none" stroke="black" d="M674.06,-993.46C689.32,-1005.09 708.07,-1022.36 717.6,-1042.59 736.52,-1082.72 719.16,-1098.48 728.77,-1141.8 749.22,-1234.05 789.5,-1338.88 809.17,-1387.4"/>
<polygon fill="black" stroke="black" points="806.02,-1388.94 813.04,-1396.87 812.5,-1386.29 806.02,-1388.94"/>
</g>
<!-- mid&#45;&gt;stat -->
<g id="edge1" class="edge">
<title>mid&#45;&gt;stat</title>
<path fill="none" stroke="black" d="M1096.96,-497.86C992.87,-521.05 605.68,-607.31 485.69,-634.05"/>
<polygon fill="black" stroke="black" points="484.89,-630.64 475.89,-636.23 486.41,-637.47 484.89,-630.64"/>
</g>
<!-- mid&#45;&gt;upstat -->
<g id="edge3" class="edge">
<title>mid&#45;&gt;upstat</title>
<path fill="none" stroke="black" d="M1099.48,-501.17C1085.19,-506.95 1066.68,-514.88 1050.82,-523.07 888.1,-607.1 862.72,-655.52 698.96,-737.53 671.38,-751.34 638.91,-764.2 614.42,-773.25"/>
<polygon fill="black" stroke="black" points="612.98,-770.05 604.79,-776.77 615.38,-776.63 612.98,-770.05"/>
</g>
<!-- mid&#45;&gt;info -->
<g id="edge4" class="edge">
<title>mid&#45;&gt;info</title>
<path fill="none" stroke="black" d="M1115.87,-509.54C1110.31,-521.96 1101.71,-538.57 1090.99,-550.98 1001.51,-654.54 868.32,-751.05 811.24,-790.32"/>
<polygon fill="black" stroke="black" points="809.03,-787.6 802.75,-796.13 812.98,-793.37 809.03,-787.6"/>
</g>
<!-- mid&#45;&gt;spaceSearch -->
<g id="edge7" class="edge">
<title>mid&#45;&gt;spaceSearch</title>
<path fill="none" stroke="black" d="M1099.69,-501.6C1085.48,-507.54 1066.98,-515.48 1050.82,-523.07 918.61,-585.2 765.32,-666.22 695.93,-703.39"/>
<polygon fill="black" stroke="black" points="694.26,-700.32 687.1,-708.13 697.57,-706.49 694.26,-700.32"/>
</g>
<!-- mid&#45;&gt;getAllSubmitVideos -->
<g id="edge10" class="edge">
<title>mid&#45;&gt;getAllSubmitVideos</title>
<path fill="none" stroke="black" d="M1099.78,-501.42C1027.74,-530.68 801.27,-623.62 617.8,-709.76 550,-741.59 472.73,-781.72 426.81,-805.99"/>
<polygon fill="black" stroke="black" points="424.98,-802.99 417.78,-810.77 428.25,-809.18 424.98,-802.99"/>
</g>
<!-- mid&#45;&gt;getFollowers -->
<g id="edge11" class="edge">
<title>mid&#45;&gt;getFollowers</title>
<path fill="none" stroke="black" d="M1098.49,-500.27C1024.17,-525.21 799.78,-600.5 699.42,-634.17"/>
<polygon fill="black" stroke="black" points="698.18,-630.9 689.82,-637.39 700.41,-637.53 698.18,-630.9"/>
</g>
<!-- mid&#45;&gt;getAllFollowers -->
<g id="edge13" class="edge">
<title>mid&#45;&gt;getAllFollowers</title>
<path fill="none" stroke="black" d="M1098.79,-500.64C1084.41,-506.18 1066.06,-514.04 1050.82,-523.07 881.69,-623.34 707.53,-784.99 643.97,-846.3"/>
<polygon fill="black" stroke="black" points="641.53,-843.8 636.78,-853.27 646.4,-848.83 641.53,-843.8"/>
</g>
<!-- mid&#45;&gt;_notice -->
<g id="edge17" class="edge">
<title>mid&#45;&gt;_notice</title>
<path fill="none" stroke="black" d="M1098.48,-500.14C1083.99,-505.51 1065.63,-513.35 1050.82,-523.07 966.77,-578.24 885.26,-666.46 848.28,-708.95"/>
<polygon fill="black" stroke="black" points="845.58,-706.72 841.69,-716.58 850.88,-711.3 845.58,-706.72"/>
</g>
<!-- mid&#45;&gt;topList -->
<g id="edge58" class="edge">
<title>mid&#45;&gt;topList</title>
<path fill="none" stroke="black" d="M1136.58,-508.06C1184.33,-564 1344.05,-751.09 1401.65,-818.56"/>
<polygon fill="black" stroke="black" points="1399,-820.85 1408.15,-826.18 1404.32,-816.3 1399,-820.85"/>
</g>
<!-- mid&#45;&gt;fullTopList -->
<g id="edge61" class="edge">
<title>mid&#45;&gt;fullTopList</title>
<path fill="none" stroke="black" d="M1129.11,-509.78C1147.23,-561.6 1201.86,-717.34 1248.62,-846.06 1256.1,-866.67 1264.73,-889.88 1271.3,-907.44"/>
<polygon fill="black" stroke="black" points="1268.12,-908.93 1274.9,-917.07 1274.67,-906.48 1268.12,-908.93"/>
</g>
<!-- mid&#45;&gt;rankdb -->
<g id="edge64" class="edge">
<title>mid&#45;&gt;rankdb</title>
<path fill="none" stroke="black" d="M1131.01,-509.63C1157.46,-567.07 1241.58,-749.73 1273.51,-819.05"/>
<polygon fill="black" stroke="black" points="1270.47,-820.81 1277.83,-828.43 1276.83,-817.88 1270.47,-820.81"/>
</g>
<!-- dynamicsRaw -->
<g id="node53" class="node">
<title>dynamicsRaw</title>
<ellipse fill="none" stroke="black" cx="1462.03" cy="-241.62" rx="62.29" ry="18"/>
<text text-anchor="middle" x="1462.03" y="-237.92" font-family="Times,serif" font-size="14.00">dynamicsRaw</text>
</g>
<!-- mid&#45;&gt;dynamicsRaw -->
<g id="edge65" class="edge">
<title>mid&#45;&gt;dynamicsRaw</title>
<path fill="none" stroke="black" d="M1140.89,-478.49C1161.56,-462.9 1196.55,-436.57 1226.78,-414.14 1299.58,-360.14 1385.56,-297.33 1430.72,-264.42"/>
<polygon fill="black" stroke="black" points="1432.91,-267.15 1438.93,-258.44 1428.78,-261.5 1432.91,-267.15"/>
</g>
<!-- aid -->
<g id="node46" class="node">
<title>aid</title>
<ellipse fill="none" stroke="black" cx="1070.91" cy="-537.02" rx="27" ry="18"/>
<text text-anchor="middle" x="1070.91" y="-533.32" font-family="Times,serif" font-size="14.00">aid</text>
</g>
<!-- aid&#45;&gt;archiveStat -->
<g id="edge2" class="edge">
<title>aid&#45;&gt;archiveStat</title>
<path fill="none" stroke="black" d="M1044.9,-541.98C974.28,-555.58 773.12,-595.25 607.81,-636.8 544.41,-652.73 472.09,-674.07 425.63,-688.2"/>
<polygon fill="black" stroke="black" points="424.38,-684.92 415.83,-691.18 426.42,-691.61 424.38,-684.92"/>
</g>
<!-- aid&#45;&gt;aid -->
<g id="edge52" class="edge">
<title>aid&#45;&gt;aid</title>
<path fill="none" stroke="black" d="M1096.35,-543.72C1106.93,-544.18 1115.91,-541.95 1115.91,-537.02 1115.91,-533.79 1112.04,-531.72 1106.39,-530.81"/>
<polygon fill="black" stroke="black" points="1106.5,-527.31 1096.35,-530.33 1106.17,-534.31 1106.5,-527.31"/>
</g>
<!-- bvid&#45;&gt;view -->
<g id="edge5" class="edge">
<title>bvid&#45;&gt;view</title>
<path fill="none" stroke="black" d="M1230.34,-442.84C1202.71,-467.1 1144.82,-516.21 1090.99,-550.98 863.54,-697.89 565.58,-834.23 467.38,-877.84"/>
<polygon fill="black" stroke="black" points="465.71,-874.75 457.98,-882 468.54,-881.15 465.71,-874.75"/>
</g>
<!-- cid&#45;&gt;list -->
<g id="edge6" class="edge">
<title>cid&#45;&gt;list</title>
<path fill="none" stroke="black" d="M1213.01,-554.43C1109.06,-578.18 722.4,-666.53 602.57,-693.91"/>
<polygon fill="black" stroke="black" points="601.76,-690.51 592.79,-696.14 603.32,-697.33 601.76,-690.51"/>
</g>
<!-- roomid&#45;&gt;topList -->
<g id="edge57" class="edge">
<title>roomid&#45;&gt;topList</title>
<path fill="none" stroke="black" d="M1115.13,-418.42C1136.34,-448.03 1180.79,-509.99 1218.55,-562.25 1286.81,-656.72 1368.38,-768.72 1404.19,-817.86"/>
<polygon fill="black" stroke="black" points="1401.41,-819.99 1410.13,-826.01 1407.07,-815.87 1401.41,-819.99"/>
</g>
<!-- roomid&#45;&gt;fullTopList -->
<g id="edge60" class="edge">
<title>roomid&#45;&gt;fullTopList</title>
<path fill="none" stroke="black" d="M1113.4,-418.24C1124.22,-436.18 1140.79,-465.33 1151.52,-492.2 1212,-643.66 1198.6,-690.84 1248.62,-846.06 1255.34,-866.93 1264,-890.13 1270.77,-907.63"/>
<polygon fill="black" stroke="black" points="1267.61,-909.16 1274.51,-917.2 1274.13,-906.61 1267.61,-909.16"/>
</g>
<!-- roomid&#45;&gt;getInfoByRoom -->
<g id="edge63" class="edge">
<title>roomid&#45;&gt;getInfoByRoom</title>
<path fill="none" stroke="black" d="M1113,-418.7C1148.66,-479.32 1270.41,-683.54 1384.59,-843.06 1389.3,-849.64 1394.91,-856.26 1400.46,-862.3"/>
<polygon fill="black" stroke="black" points="1397.96,-864.75 1407.38,-869.6 1403.04,-859.93 1397.96,-864.75"/>
</g>
<!-- page -->
<g id="node50" class="node">
<title>page</title>
<ellipse fill="none" stroke="black" cx="1071.77" cy="-923.27" rx="27.9" ry="18"/>
<text text-anchor="middle" x="1071.77" y="-919.57" font-family="Times,serif" font-size="14.00">page</text>
</g>
<!-- page&#45;&gt;spaceSearch -->
<g id="edge8" class="edge">
<title>page&#45;&gt;spaceSearch</title>
<path fill="none" stroke="black" stroke-dasharray="1,5" d="M1049.25,-912.4C982.42,-880.12 784.57,-784.58 698.8,-743.16"/>
<polygon fill="black" stroke="black" points="700.16,-739.93 689.64,-738.73 697.12,-746.23 700.16,-739.93"/>
</g>
<!-- page&#45;&gt;getFollowers -->
<g id="edge12" class="edge">
<title>page&#45;&gt;getFollowers</title>
<path fill="none" stroke="black" stroke-dasharray="1,5" d="M1051.99,-910.49C985.29,-867.4 768.12,-727.09 683.84,-672.64"/>
<polygon fill="black" stroke="black" points="685.7,-669.68 675.4,-667.19 681.9,-675.55 685.7,-669.68"/>
</g>
<!-- page&#45;&gt;topList -->
<g id="edge59" class="edge">
<title>page&#45;&gt;topList</title>
<path fill="none" stroke="black" stroke-dasharray="1,5" d="M1098.14,-917.24C1158.25,-903.5 1305.92,-869.75 1379.49,-852.94"/>
<polygon fill="black" stroke="black" points="1380.39,-856.32 1389.36,-850.68 1378.83,-849.5 1380.39,-856.32"/>
</g>
<!-- SESSDATA -->
<g id="node51" class="node">
<title>SESSDATA</title>
<ellipse fill="none" stroke="black" cx="55.5" cy="-826.83" rx="55.49" ry="18"/>
<text text-anchor="middle" x="55.5" y="-823.13" font-family="Times,serif" font-size="14.00">SESSDATA</text>
</g>
<!-- SESSDATA&#45;&gt;getAllFollowers -->
<g id="edge15" class="edge">
<title>SESSDATA&#45;&gt;getAllFollowers</title>
<path fill="none" stroke="black" stroke-dasharray="1,5" d="M109.26,-831.04C209.64,-838.9 425.86,-855.84 541.76,-864.92"/>
<polygon fill="black" stroke="black" points="541.73,-868.42 551.97,-865.72 542.27,-861.45 541.73,-868.42"/>
</g>
<!-- p -->
<g id="node52" class="node">
<title>p</title>
<ellipse fill="none" stroke="black" cx="942.18" cy="-240.14" rx="27" ry="18"/>
<text text-anchor="middle" x="942.18" y="-236.44" font-family="Times,serif" font-size="14.00">p</text>
</g>
<!-- p&#45;&gt;cid -->
<g id="edge55" class="edge">
<title>p&#45;&gt;cid</title>
<path fill="none" stroke="black" stroke-dasharray="1,5" d="M952.79,-256.94C973.8,-289.49 1023.18,-362.53 1075.22,-414.8 1119.67,-459.44 1178.12,-504.33 1211.81,-529.07"/>
<polygon fill="black" stroke="black" points="1210.08,-532.14 1220.22,-535.2 1214.21,-526.48 1210.08,-532.14"/>
</g>
<!-- dynamics -->
<g id="node55" class="node">
<title>dynamics</title>
<ellipse fill="none" stroke="black" cx="1490.67" cy="-18.27" rx="45.49" ry="18"/>
<text text-anchor="middle" x="1490.67" y="-14.57" font-family="Times,serif" font-size="14.00">dynamics</text>
</g>
<!-- dynamicsRaw&#45;&gt;dynamics -->
<g id="edge67" class="edge">
<title>dynamicsRaw&#45;&gt;dynamics</title>
<path fill="none" stroke="black" d="M1464.37,-223.35C1469.37,-184.39 1481.09,-92.98 1487.05,-46.49"/>
<polygon fill="black" stroke="black" points="1490.53,-46.85 1488.33,-36.49 1483.59,-45.96 1490.53,-46.85"/>
</g>
<!-- dynamicOffset -->
<g id="node54" class="node">
<title>dynamicOffset</title>
<ellipse fill="none" stroke="black" cx="1706.26" cy="-230.44" rx="64.19" ry="18"/>
<text text-anchor="middle" x="1706.26" y="-226.74" font-family="Times,serif" font-size="14.00">dynamicOffset</text>
</g>
<!-- dynamicOffset&#45;&gt;dynamicsRaw -->
<g id="edge66" class="edge">
<title>dynamicOffset&#45;&gt;dynamicsRaw</title>
<path fill="none" stroke="black" d="M1642.73,-233.35C1609.41,-234.87 1568.47,-236.75 1533.99,-238.33"/>
<polygon fill="black" stroke="black" points="1533.81,-234.83 1523.98,-238.79 1534.13,-241.83 1533.81,-234.83"/>
</g>
</g>
</svg>
