<?xml version="1.0" encoding="UTF-8" standalone="no"?>
<!DOCTYPE svg PUBLIC "-//W3C//DTD SVG 1.1//EN"
 "http://www.w3.org/Graphics/SVG/1.1/DTD/svg11.dtd">
<!-- Generated by graphviz version 2.43.0 (0)
 -->
<!-- Title: G Pages: 1 -->
<svg width="1616pt" height="1092pt"
 viewBox="0.00 0.00 1616.00 1092.00" xmlns="http://www.w3.org/2000/svg" xmlns:xlink="http://www.w3.org/1999/xlink">
<g id="graph0" class="graph" transform="scale(1 1) rotate(0) translate(4 1088)">
<title>G</title>
<polygon fill="white" stroke="transparent" points="-4,4 -4,-1088 1612,-1088 1612,4 -4,4"/>
<g id="clust1" class="cluster">
<title>cluster_api.bilibili.com</title>
<polygon fill="none" stroke="black" points="153.83,-593.62 153.83,-963.62 699.83,-963.62 699.83,-593.62 153.83,-593.62"/>
<text text-anchor="middle" x="426.83" y="-948.42" font-family="Times,serif" font-size="14.00">api.bilibili.com</text>
</g>
<g id="clust2" class="cluster">
<title>cluster_api.live.bilibili.com</title>
<polygon fill="none" stroke="black" points="735.12,-291.46 735.12,-500.46 1017.12,-500.46 1017.12,-291.46 735.12,-291.46"/>
<text text-anchor="middle" x="876.12" y="-485.26" font-family="Times,serif" font-size="14.00">api.live.bilibili.com</text>
</g>
<g id="clust3" class="cluster">
<title>cluster_data</title>
<polygon fill="none" stroke="black" points="0.48,0.06 0.48,-577.94 706.48,-577.94 706.48,0.06 0.48,0.06"/>
<text text-anchor="middle" x="353.48" y="-562.74" font-family="Times,serif" font-size="14.00">data</text>
</g>
<g id="clust4" class="cluster">
<title>cluster_input</title>
<polygon fill="none" stroke="black" points="942.58,-661.42 942.58,-916.42 1176.58,-916.42 1176.58,-661.42 942.58,-661.42"/>
<text text-anchor="middle" x="1059.58" y="-901.22" font-family="Times,serif" font-size="14.00">input</text>
</g>
<!-- stat -->
<g id="node1" class="node">
<title>stat</title>
<ellipse fill="none" stroke="black" cx="431.22" cy="-805.52" rx="27" ry="18"/>
<text text-anchor="middle" x="431.22" y="-801.32" font-family="Times,serif" font-size="14.00">stat</text>
</g>
<!-- follower -->
<g id="node19" class="node">
<title>follower</title>
<ellipse fill="none" stroke="black" cx="201.47" cy="-52.72" rx="40.13" ry="18"/>
<text text-anchor="middle" x="201.47" y="-48.52" font-family="Times,serif" font-size="14.00">follower</text>
</g>
<!-- stat&#45;&gt;follower -->
<g id="edge19" class="edge">
<title>stat&#45;&gt;follower</title>
<path fill="none" stroke="black" d="M412.8,-792.08C400.56,-782.65 384.52,-769.35 372.21,-755.72 342.16,-722.49 335.96,-712.28 315.27,-672.54 276.16,-597.43 268.76,-576.36 248.16,-494.22 237.95,-453.49 247.06,-441.01 235.78,-400.57 227.52,-370.92 214.68,-367.17 208.03,-337.12 187.71,-245.28 194,-132.68 198.54,-81.04"/>
<polygon fill="black" stroke="black" points="202.04,-81.26 199.48,-70.98 195.07,-80.61 202.04,-81.26"/>
</g>
<!-- archiveStat -->
<g id="node2" class="node">
<title>archiveStat</title>
<ellipse fill="none" stroke="black" cx="495.44" cy="-619.64" rx="49.77" ry="18"/>
<text text-anchor="middle" x="495.44" y="-615.44" font-family="Times,serif" font-size="14.00">archiveStat</text>
</g>
<!-- bvid -->
<g id="node48" class="node">
<title>bvid</title>
<ellipse fill="none" stroke="black" cx="1046.56" cy="-790.68" rx="27" ry="18"/>
<text text-anchor="middle" x="1046.56" y="-786.48" font-family="Times,serif" font-size="14.00">bvid</text>
</g>
<!-- archiveStat&#45;&gt;bvid -->
<g id="edge53" class="edge">
<title>archiveStat&#45;&gt;bvid</title>
<path fill="none" stroke="black" d="M540.19,-627.81C563.12,-632.21 591.42,-637.96 616.55,-644.01 788.87,-685.5 837.21,-685.58 998.18,-759.79 1005.27,-763.06 1012.56,-767.22 1019.25,-771.43"/>
<polygon fill="black" stroke="black" points="1017.65,-774.56 1027.94,-777.1 1021.48,-768.7 1017.65,-774.56"/>
</g>
<!-- upstat -->
<g id="node3" class="node">
<title>upstat</title>
<ellipse fill="none" stroke="black" cx="234.05" cy="-668.57" rx="31.46" ry="18"/>
<text text-anchor="middle" x="234.05" y="-664.37" font-family="Times,serif" font-size="14.00">upstat</text>
</g>
<!-- archiveView -->
<g id="node38" class="node">
<title>archiveView</title>
<ellipse fill="none" stroke="black" cx="583.42" cy="-431.2" rx="54.51" ry="18"/>
<text text-anchor="middle" x="583.42" y="-427" font-family="Times,serif" font-size="14.00">archiveView</text>
</g>
<!-- upstat&#45;&gt;archiveView -->
<g id="edge41" class="edge">
<title>upstat&#45;&gt;archiveView</title>
<path fill="none" stroke="black" d="M253.15,-654.21C290.09,-626.59 374.16,-564.44 447.29,-515.62 480.85,-493.22 520.1,-469.09 547.8,-452.39"/>
<polygon fill="black" stroke="black" points="549.96,-455.18 556.73,-447.03 546.36,-449.18 549.96,-455.18"/>
</g>
<!-- articleView -->
<g id="node39" class="node">
<title>articleView</title>
<ellipse fill="none" stroke="black" cx="423.71" cy="-241.95" rx="50.65" ry="18"/>
<text text-anchor="middle" x="423.71" y="-237.75" font-family="Times,serif" font-size="14.00">articleView</text>
</g>
<!-- upstat&#45;&gt;articleView -->
<g id="edge42" class="edge">
<title>upstat&#45;&gt;articleView</title>
<path fill="none" stroke="black" d="M233.24,-650.35C232.32,-618.17 232.6,-549.47 248.16,-494.22 275.19,-398.24 356.3,-307.97 398.14,-266.21"/>
<polygon fill="black" stroke="black" points="400.8,-268.49 405.47,-258.98 395.89,-263.51 400.8,-268.49"/>
</g>
<!-- navnum -->
<g id="node4" class="node">
<title>navnum</title>
<ellipse fill="none" stroke="black" cx="200.19" cy="-823.8" rx="38.7" ry="18"/>
<text text-anchor="middle" x="200.19" y="-819.6" font-family="Times,serif" font-size="14.00">navnum</text>
</g>
<!-- video -->
<g id="node23" class="node">
<title>video</title>
<ellipse fill="none" stroke="black" cx="668.23" cy="-363.55" rx="29.51" ry="18"/>
<text text-anchor="middle" x="668.23" y="-359.35" font-family="Times,serif" font-size="14.00">video</text>
</g>
<!-- navnum&#45;&gt;video -->
<g id="edge23" class="edge">
<title>navnum&#45;&gt;video</title>
<path fill="none" stroke="black" d="M206.94,-805.67C210.42,-797.2 215.02,-787.14 220.24,-778.68 328.46,-603.31 375.1,-570.24 527.06,-431.06 534.19,-424.52 535.61,-422.28 543.87,-417.24 559.58,-407.65 602.59,-389.71 633.62,-377.22"/>
<polygon fill="black" stroke="black" points="635.25,-380.34 643.23,-373.37 632.65,-373.84 635.25,-380.34"/>
</g>
<!-- info -->
<g id="node5" class="node">
<title>info</title>
<ellipse fill="none" stroke="black" cx="664.67" cy="-774.74" rx="27" ry="18"/>
<text text-anchor="middle" x="664.67" y="-770.54" font-family="Times,serif" font-size="14.00">info</text>
</g>
<!-- uname -->
<g id="node20" class="node">
<title>uname</title>
<ellipse fill="none" stroke="black" cx="81.42" cy="-304.93" rx="33.86" ry="18"/>
<text text-anchor="middle" x="81.42" y="-300.73" font-family="Times,serif" font-size="14.00">uname</text>
</g>
<!-- info&#45;&gt;uname -->
<g id="edge20" class="edge">
<title>info&#45;&gt;uname</title>
<path fill="none" stroke="black" d="M653.55,-758.13C633.66,-728.9 590.01,-666.88 546.92,-619.72 540.82,-613.04 539.05,-611.54 532.01,-605.84 499.06,-579.15 255.24,-409.67 219.61,-386.68 184.04,-363.73 142.06,-339.25 113.77,-323.12"/>
<polygon fill="black" stroke="black" points="115.16,-319.88 104.74,-317.99 111.7,-325.97 115.16,-319.88"/>
</g>
<!-- sign -->
<g id="node21" class="node">
<title>sign</title>
<ellipse fill="none" stroke="black" cx="423.21" cy="-26.24" rx="27" ry="18"/>
<text text-anchor="middle" x="423.21" y="-22.04" font-family="Times,serif" font-size="14.00">sign</text>
</g>
<!-- info&#45;&gt;sign -->
<g id="edge21" class="edge">
<title>info&#45;&gt;sign</title>
<path fill="none" stroke="black" d="M663.21,-756.63C661.04,-734.29 656.01,-695.38 645.45,-663.61 601.67,-531.98 542.17,-518.35 505.78,-384.49 479.42,-287.52 508.65,-256.66 482.72,-159.57 472.29,-120.53 451.77,-78.4 437.78,-52.18"/>
<polygon fill="black" stroke="black" points="440.79,-50.39 432.95,-43.27 434.64,-53.73 440.79,-50.39"/>
</g>
<!-- coins -->
<g id="node22" class="node">
<title>coins</title>
<ellipse fill="none" stroke="black" cx="405.24" cy="-449.62" rx="28.55" ry="18"/>
<text text-anchor="middle" x="405.24" y="-445.42" font-family="Times,serif" font-size="14.00">coins</text>
</g>
<!-- info&#45;&gt;coins -->
<g id="edge22" class="edge">
<title>info&#45;&gt;coins</title>
<path fill="none" stroke="black" d="M652.9,-758.49C643.85,-746.06 631,-728.53 619.51,-713.32 587.79,-671.31 582.44,-658.59 546.92,-619.72 502.77,-571.4 466.51,-584.13 430.56,-529.43 420.27,-513.78 413.93,-493.68 410.17,-477.57"/>
<polygon fill="black" stroke="black" points="413.56,-476.69 408.05,-467.64 406.71,-478.15 413.56,-476.69"/>
</g>
<!-- face -->
<g id="node40" class="node">
<title>face</title>
<ellipse fill="none" stroke="black" cx="613.52" cy="-184.54" rx="27" ry="18"/>
<text text-anchor="middle" x="613.52" y="-180.34" font-family="Times,serif" font-size="14.00">face</text>
</g>
<!-- info&#45;&gt;face -->
<g id="edge43" class="edge">
<title>info&#45;&gt;face</title>
<path fill="none" stroke="black" d="M663.56,-756.48C660.41,-705.2 650.87,-555.48 639.77,-431.35 632.68,-352.08 622.16,-258.72 616.84,-212.87"/>
<polygon fill="black" stroke="black" points="620.3,-212.31 615.67,-202.79 613.35,-213.12 620.3,-212.31"/>
</g>
<!-- topPhoto -->
<g id="node41" class="node">
<title>topPhoto</title>
<ellipse fill="none" stroke="black" cx="251.68" cy="-337.2" rx="42.1" ry="18"/>
<text text-anchor="middle" x="251.68" y="-333" font-family="Times,serif" font-size="14.00">topPhoto</text>
</g>
<!-- info&#45;&gt;topPhoto -->
<g id="edge44" class="edge">
<title>info&#45;&gt;topPhoto</title>
<path fill="none" stroke="black" d="M653.55,-758.13C633.66,-728.9 590.01,-666.88 546.92,-619.72 517.31,-587.32 453.7,-549.02 446.58,-543.34 375.08,-486.31 304.75,-403.54 271.52,-362.39"/>
<polygon fill="black" stroke="black" points="274.18,-360.12 265.19,-354.5 268.72,-364.5 274.18,-360.12"/>
</g>
<!-- view -->
<g id="node6" class="node">
<title>view</title>
<ellipse fill="none" stroke="black" cx="616.55" cy="-663.61" rx="27.1" ry="18"/>
<text text-anchor="middle" x="616.55" y="-659.41" font-family="Times,serif" font-size="14.00">view</text>
</g>
<!-- cids -->
<g id="node44" class="node">
<title>cids</title>
<ellipse fill="none" stroke="black" cx="466.15" cy="-325.97" rx="27" ry="18"/>
<text text-anchor="middle" x="466.15" y="-321.77" font-family="Times,serif" font-size="14.00">cids</text>
</g>
<!-- view&#45;&gt;cids -->
<g id="edge47" class="edge">
<title>view&#45;&gt;cids</title>
<path fill="none" stroke="black" d="M608.68,-645.93C583.96,-590.44 507.78,-419.43 478.13,-352.87"/>
<polygon fill="black" stroke="black" points="481.21,-351.19 473.94,-343.48 474.82,-354.04 481.21,-351.19"/>
</g>
<!-- mid -->
<g id="node46" class="node">
<title>mid</title>
<ellipse fill="none" stroke="black" cx="977.81" cy="-773.55" rx="27" ry="18"/>
<text text-anchor="middle" x="977.81" y="-769.35" font-family="Times,serif" font-size="14.00">mid</text>
</g>
<!-- view&#45;&gt;mid -->
<g id="edge50" class="edge">
<title>view&#45;&gt;mid</title>
<path fill="none" stroke="black" stroke-dasharray="5,2" d="M641.38,-671.17C704.41,-690.35 870.74,-740.97 943.22,-763.02"/>
<polygon fill="black" stroke="black" points="942.22,-766.38 952.81,-765.94 944.26,-759.68 942.22,-766.38"/>
</g>
<!-- cid -->
<g id="node49" class="node">
<title>cid</title>
<ellipse fill="none" stroke="black" cx="1003.02" cy="-868.71" rx="27" ry="18"/>
<text text-anchor="middle" x="1003.02" y="-864.51" font-family="Times,serif" font-size="14.00">cid</text>
</g>
<!-- view&#45;&gt;cid -->
<g id="edge54" class="edge">
<title>view&#45;&gt;cid</title>
<path fill="none" stroke="black" d="M637.88,-674.93C702.68,-709.32 897.39,-812.65 972.76,-852.65"/>
<polygon fill="black" stroke="black" points="971.29,-855.83 981.76,-857.42 974.57,-849.64 971.29,-855.83"/>
</g>
<!-- list -->
<g id="node7" class="node">
<title>list</title>
<ellipse fill="none" stroke="black" cx="599.25" cy="-727.15" rx="27" ry="18"/>
<text text-anchor="middle" x="599.25" y="-722.95" font-family="Times,serif" font-size="14.00">list</text>
</g>
<!-- spaceSearch -->
<g id="node8" class="node">
<title>spaceSearch</title>
<ellipse fill="none" stroke="black" cx="275.65" cy="-778.88" rx="53.61" ry="18"/>
<text text-anchor="middle" x="275.65" y="-774.68" font-family="Times,serif" font-size="14.00">spaceSearch</text>
</g>
<!-- getSubmitVideosPage -->
<g id="node26" class="node">
<title>getSubmitVideosPage</title>
<ellipse fill="none" stroke="black" cx="122.73" cy="-494.13" rx="88.37" ry="18"/>
<text text-anchor="middle" x="122.73" y="-489.93" font-family="Times,serif" font-size="14.00">getSubmitVideosPage</text>
</g>
<!-- spaceSearch&#45;&gt;getSubmitVideosPage -->
<g id="edge26" class="edge">
<title>spaceSearch&#45;&gt;getSubmitVideosPage</title>
<path fill="none" stroke="black" d="M262.29,-761.11C246.58,-739.76 220.23,-702.56 201.22,-668.41 173.37,-618.41 147.42,-556.68 133.45,-521.72"/>
<polygon fill="black" stroke="black" points="136.61,-520.19 129.67,-512.18 130.1,-522.77 136.61,-520.19"/>
</g>
<!-- getAllSubmitVideos -->
<g id="node9" class="node">
<title>getAllSubmitVideos</title>
<ellipse fill="none" stroke="black" cx="378.22" cy="-915.96" rx="82.09" ry="18"/>
<text text-anchor="middle" x="378.22" y="-911.76" font-family="Times,serif" font-size="14.00">getAllSubmitVideos</text>
</g>
<!-- allVideos -->
<g id="node28" class="node">
<title>allVideos</title>
<ellipse fill="none" stroke="black" cx="51.88" cy="-228.52" rx="43.45" ry="18"/>
<text text-anchor="middle" x="51.88" y="-224.32" font-family="Times,serif" font-size="14.00">allVideos</text>
</g>
<!-- getAllSubmitVideos&#45;&gt;allVideos -->
<g id="edge28" class="edge">
<title>getAllSubmitVideos&#45;&gt;allVideos</title>
<path fill="none" stroke="black" d="M372.33,-897.68C363.73,-871.3 347.03,-821.13 331.05,-779.07 282.35,-650.88 287.12,-609.26 212.51,-494.2 181.31,-446.1 144.75,-453.81 123.98,-400.37 116.36,-380.79 126.24,-374.05 124.68,-353.1 123.06,-331.47 125.18,-324.92 116.7,-304.96 108.15,-284.82 92.37,-266.03 78.51,-252.12"/>
<polygon fill="black" stroke="black" points="80.69,-249.36 71.08,-244.91 75.82,-254.38 80.69,-249.36"/>
</g>
<!-- getFollowers -->
<g id="node10" class="node">
<title>getFollowers</title>
<ellipse fill="none" stroke="black" cx="373.16" cy="-672.61" rx="56.07" ry="18"/>
<text text-anchor="middle" x="373.16" y="-668.41" font-family="Times,serif" font-size="14.00">getFollowers</text>
</g>
<!-- getFollowersPage -->
<g id="node29" class="node">
<title>getFollowersPage</title>
<ellipse fill="none" stroke="black" cx="383.24" cy="-375.68" rx="73.45" ry="18"/>
<text text-anchor="middle" x="383.24" y="-371.48" font-family="Times,serif" font-size="14.00">getFollowersPage</text>
</g>
<!-- getFollowers&#45;&gt;getFollowersPage -->
<g id="edge29" class="edge">
<title>getFollowers&#45;&gt;getFollowersPage</title>
<path fill="none" stroke="black" d="M358.75,-654.79C353.2,-646.58 347.73,-636.38 345.84,-626.06 335.16,-567.71 359.51,-553.16 368.21,-494.48 372.78,-463.63 377.16,-428.14 380,-404.04"/>
<polygon fill="black" stroke="black" points="383.51,-404.17 381.19,-393.83 376.55,-403.35 383.51,-404.17"/>
</g>
<!-- getAllFollowers -->
<g id="node11" class="node">
<title>getAllFollowers</title>
<ellipse fill="none" stroke="black" cx="441.39" cy="-755.79" rx="67.67" ry="18"/>
<text text-anchor="middle" x="441.39" y="-751.59" font-family="Times,serif" font-size="14.00">getAllFollowers</text>
</g>
<!-- allFollowers -->
<g id="node30" class="node">
<title>allFollowers</title>
<ellipse fill="none" stroke="black" cx="486.47" cy="-529.6" rx="54.14" ry="18"/>
<text text-anchor="middle" x="486.47" y="-525.4" font-family="Times,serif" font-size="14.00">allFollowers</text>
</g>
<!-- getAllFollowers&#45;&gt;allFollowers -->
<g id="edge30" class="edge">
<title>getAllFollowers&#45;&gt;allFollowers</title>
<path fill="none" stroke="black" d="M439.33,-737.42C436.89,-710.96 434.29,-660.78 443.96,-619.55 449.21,-597.13 460.52,-573.67 470.16,-556.33"/>
<polygon fill="black" stroke="black" points="473.35,-557.79 475.29,-547.37 467.28,-554.31 473.35,-557.79"/>
</g>
<!-- search -->
<g id="node12" class="node">
<title>search</title>
<ellipse fill="none" stroke="black" cx="558.56" cy="-870.64" rx="32.88" ry="18"/>
<text text-anchor="middle" x="558.56" y="-866.44" font-family="Times,serif" font-size="14.00">search</text>
</g>
<!-- search&#45;&gt;mid -->
<g id="edge51" class="edge">
<title>search&#45;&gt;mid</title>
<path fill="none" stroke="black" stroke-dasharray="5,2" d="M588.71,-863.66C664.18,-846.18 860.97,-800.61 942.07,-781.83"/>
<polygon fill="black" stroke="black" points="943.32,-785.13 952.28,-779.46 941.74,-778.31 943.32,-785.13"/>
</g>
<!-- _notice -->
<g id="node13" class="node">
<title>_notice</title>
<ellipse fill="none" stroke="black" cx="383.58" cy="-626.09" rx="36.27" ry="18"/>
<text text-anchor="middle" x="383.58" y="-621.89" font-family="Times,serif" font-size="14.00">_notice</text>
</g>
<!-- notice -->
<g id="node37" class="node">
<title>notice</title>
<ellipse fill="none" stroke="black" cx="264.26" cy="-247.46" rx="31.93" ry="18"/>
<text text-anchor="middle" x="264.26" y="-243.26" font-family="Times,serif" font-size="14.00">notice</text>
</g>
<!-- _notice&#45;&gt;notice -->
<g id="edge40" class="edge">
<title>_notice&#45;&gt;notice</title>
<path fill="none" stroke="black" d="M383.45,-607.8C382.82,-582 380,-533.69 368.21,-494.48 351.17,-437.79 330.97,-430.22 308.17,-375.61 301.25,-359.03 301.11,-354.29 295.32,-337.29 288.21,-316.4 280.05,-292.81 273.88,-275.06"/>
<polygon fill="black" stroke="black" points="277.09,-273.63 270.5,-265.34 270.48,-275.93 277.09,-273.63"/>
</g>
<!-- getRoomInfoOld -->
<g id="node14" class="node">
<title>getRoomInfoOld</title>
<ellipse fill="none" stroke="black" cx="938.58" cy="-452.95" rx="70.56" ry="18"/>
<text text-anchor="middle" x="938.58" y="-448.75" font-family="Times,serif" font-size="14.00">getRoomInfoOld</text>
</g>
<!-- roomStatus -->
<g id="node32" class="node">
<title>roomStatus</title>
<ellipse fill="none" stroke="black" cx="533.57" cy="-104.41" rx="50.29" ry="18"/>
<text text-anchor="middle" x="533.57" y="-100.21" font-family="Times,serif" font-size="14.00">roomStatus</text>
</g>
<!-- getRoomInfoOld&#45;&gt;roomStatus -->
<g id="edge32" class="edge">
<title>getRoomInfoOld&#45;&gt;roomStatus</title>
<path fill="none" stroke="black" d="M921.62,-435.36C876.81,-389.32 750.68,-262.51 633.87,-170.77 612.94,-154.33 587.98,-137.81 568.2,-125.36"/>
<polygon fill="black" stroke="black" points="569.85,-122.26 559.51,-119.94 566.15,-128.2 569.85,-122.26"/>
</g>
<!-- roundStatus -->
<g id="node33" class="node">
<title>roundStatus</title>
<ellipse fill="none" stroke="black" cx="356.07" cy="-97.69" rx="52.22" ry="18"/>
<text text-anchor="middle" x="356.07" y="-93.49" font-family="Times,serif" font-size="14.00">roundStatus</text>
</g>
<!-- getRoomInfoOld&#45;&gt;roundStatus -->
<g id="edge34" class="edge">
<title>getRoomInfoOld&#45;&gt;roundStatus</title>
<path fill="none" stroke="black" d="M919.95,-435.25C897.11,-413.97 856.77,-377.77 819.01,-350.75 673.65,-246.72 633.03,-225.37 473.03,-145.66 449.93,-134.15 423.37,-123.09 401.41,-114.5"/>
<polygon fill="black" stroke="black" points="402.57,-111.2 391.98,-110.85 400.05,-117.73 402.57,-111.2"/>
</g>
<!-- liveStatus -->
<g id="node34" class="node">
<title>liveStatus</title>
<ellipse fill="none" stroke="black" cx="274.13" cy="-179.59" rx="44.98" ry="18"/>
<text text-anchor="middle" x="274.13" y="-175.39" font-family="Times,serif" font-size="14.00">liveStatus</text>
</g>
<!-- getRoomInfoOld&#45;&gt;liveStatus -->
<g id="edge36" class="edge">
<title>getRoomInfoOld&#45;&gt;liveStatus</title>
<path fill="none" stroke="black" d="M901.69,-437.43C866.92,-422.66 813.46,-399.62 767.62,-378.41 763.31,-376.42 465.34,-229.78 460.89,-228.13 415.77,-211.41 362.47,-198.17 324.39,-189.77"/>
<polygon fill="black" stroke="black" points="325.08,-186.33 314.56,-187.63 323.59,-193.17 325.08,-186.33"/>
</g>
<!-- title -->
<g id="node35" class="node">
<title>title</title>
<ellipse fill="none" stroke="black" cx="162.31" cy="-284.22" rx="27" ry="18"/>
<text text-anchor="middle" x="162.31" y="-280.02" font-family="Times,serif" font-size="14.00">title</text>
</g>
<!-- getRoomInfoOld&#45;&gt;title -->
<g id="edge37" class="edge">
<title>getRoomInfoOld&#45;&gt;title</title>
<path fill="none" stroke="black" d="M900.43,-437.8C879.7,-429.98 853.48,-420.75 829.53,-414.29 809.69,-408.93 486.19,-349.52 466.02,-345.57 369.11,-326.63 255.01,-303.3 198.21,-291.62"/>
<polygon fill="black" stroke="black" points="198.79,-288.17 188.29,-289.58 197.38,-295.03 198.79,-288.17"/>
</g>
<!-- online -->
<g id="node36" class="node">
<title>online</title>
<ellipse fill="none" stroke="black" cx="448.91" cy="-159.4" rx="32.42" ry="18"/>
<text text-anchor="middle" x="448.91" y="-155.2" font-family="Times,serif" font-size="14.00">online</text>
</g>
<!-- getRoomInfoOld&#45;&gt;online -->
<g id="edge39" class="edge">
<title>getRoomInfoOld&#45;&gt;online</title>
<path fill="none" stroke="black" d="M920.61,-435.25C898.09,-413.66 857.76,-376.82 819.01,-350.75 703.18,-272.83 551.63,-203.63 484.07,-174.3"/>
<polygon fill="black" stroke="black" points="485.29,-171.01 474.72,-170.26 482.51,-177.44 485.29,-171.01"/>
</g>
<!-- roomid -->
<g id="node50" class="node">
<title>roomid</title>
<ellipse fill="none" stroke="black" cx="1132.5" cy="-760.13" rx="35.81" ry="18"/>
<text text-anchor="middle" x="1132.5" y="-755.93" font-family="Times,serif" font-size="14.00">roomid</text>
</g>
<!-- getRoomInfoOld&#45;&gt;roomid -->
<g id="edge56" class="edge">
<title>getRoomInfoOld&#45;&gt;roomid</title>
<path fill="none" stroke="black" d="M949.85,-470.79C982.52,-522.56 1077.46,-672.95 1115.98,-733.96"/>
<polygon fill="black" stroke="black" points="1113.15,-736.03 1121.45,-742.62 1119.07,-732.3 1113.15,-736.03"/>
</g>
<!-- topList -->
<g id="node15" class="node">
<title>topList</title>
<ellipse fill="none" stroke="black" cx="947.73" cy="-400.49" rx="35.33" ry="18"/>
<text text-anchor="middle" x="947.73" y="-396.29" font-family="Times,serif" font-size="14.00">topList</text>
</g>
<!-- guardNum -->
<g id="node24" class="node">
<title>guardNum</title>
<ellipse fill="none" stroke="black" cx="75.15" cy="-352.99" rx="47.86" ry="18"/>
<text text-anchor="middle" x="75.15" y="-348.79" font-family="Times,serif" font-size="14.00">guardNum</text>
</g>
<!-- topList&#45;&gt;guardNum -->
<g id="edge24" class="edge">
<title>topList&#45;&gt;guardNum</title>
<path fill="none" stroke="black" d="M912.35,-399.34C859.21,-397.37 755.71,-392.63 668.23,-383.15 615.82,-377.47 603.45,-370.4 551.02,-364.96 476.87,-357.26 458.06,-357.85 383.54,-356.08 324.87,-354.69 310.18,-357.28 251.49,-356.8 212.09,-356.49 167.74,-355.52 133.37,-354.64"/>
<polygon fill="black" stroke="black" points="133.13,-351.14 123.04,-354.37 132.95,-358.13 133.13,-351.14"/>
</g>
<!-- topListPage -->
<g id="node25" class="node">
<title>topListPage</title>
<ellipse fill="none" stroke="black" cx="114.83" cy="-163.45" rx="52.21" ry="18"/>
<text text-anchor="middle" x="114.83" y="-159.25" font-family="Times,serif" font-size="14.00">topListPage</text>
</g>
<!-- topList&#45;&gt;topListPage -->
<g id="edge25" class="edge">
<title>topList&#45;&gt;topListPage</title>
<path fill="none" stroke="black" d="M920.52,-388.63C894.75,-377.72 854.77,-361.63 819.01,-350.75 807.85,-347.36 804.79,-347.52 793.4,-344.98 612.68,-304.82 564.87,-305.45 386.53,-255.77 305.43,-233.17 213.02,-200.18 159.56,-180.37"/>
<polygon fill="black" stroke="black" points="160.63,-177.03 150.04,-176.82 158.19,-183.59 160.63,-177.03"/>
</g>
<!-- fullTopList -->
<g id="node16" class="node">
<title>fullTopList</title>
<ellipse fill="none" stroke="black" cx="793.15" cy="-428.12" rx="49.55" ry="18"/>
<text text-anchor="middle" x="793.15" y="-423.92" font-family="Times,serif" font-size="14.00">fullTopList</text>
</g>
<!-- guards -->
<g id="node27" class="node">
<title>guards</title>
<ellipse fill="none" stroke="black" cx="560.46" cy="-250.56" rx="33.87" ry="18"/>
<text text-anchor="middle" x="560.46" y="-246.36" font-family="Times,serif" font-size="14.00">guards</text>
</g>
<!-- fullTopList&#45;&gt;guards -->
<g id="edge27" class="edge">
<title>fullTopList&#45;&gt;guards</title>
<path fill="none" stroke="black" d="M771.5,-411.6C750.71,-395.72 718.41,-371.07 690.4,-349.69 654.98,-322.66 614.13,-291.5 587.84,-271.44"/>
<polygon fill="black" stroke="black" points="589.91,-268.62 579.84,-265.34 585.66,-274.18 589.91,-268.62"/>
</g>
<!-- getInfoByRoom -->
<g id="node17" class="node">
<title>getInfoByRoom</title>
<ellipse fill="none" stroke="black" cx="921.58" cy="-317.95" rx="67.67" ry="18"/>
<text text-anchor="middle" x="921.58" y="-313.75" font-family="Times,serif" font-size="14.00">getInfoByRoom</text>
</g>
<!-- anchorScore -->
<g id="node42" class="node">
<title>anchorScore</title>
<ellipse fill="none" stroke="black" cx="179.88" cy="-400.47" rx="54.11" ry="18"/>
<text text-anchor="middle" x="179.88" y="-396.27" font-family="Times,serif" font-size="14.00">anchorScore</text>
</g>
<!-- getInfoByRoom&#45;&gt;anchorScore -->
<g id="edge45" class="edge">
<title>getInfoByRoom&#45;&gt;anchorScore</title>
<path fill="none" stroke="black" d="M856.86,-323.25C805.57,-327.77 732.16,-334.96 668.23,-343.95 601.55,-353.33 585.07,-357.22 519.09,-370.65 482.02,-378.2 473.43,-383.36 436.12,-389.6 412.68,-393.51 406.66,-393.71 382.95,-395.28 336.66,-398.34 284.32,-399.63 244.37,-400.15"/>
<polygon fill="black" stroke="black" points="244.19,-396.65 234.23,-400.27 244.27,-403.65 244.19,-396.65"/>
</g>
<!-- liveStartTime -->
<g id="node45" class="node">
<title>liveStartTime</title>
<ellipse fill="none" stroke="black" cx="308.19" cy="-494.35" rx="58.35" ry="18"/>
<text text-anchor="middle" x="308.19" y="-490.15" font-family="Times,serif" font-size="14.00">liveStartTime</text>
</g>
<!-- getInfoByRoom&#45;&gt;liveStartTime -->
<g id="edge48" class="edge">
<title>getInfoByRoom&#45;&gt;liveStartTime</title>
<path fill="none" stroke="black" d="M868.23,-329.06C845.2,-333.9 817.96,-339.66 793.4,-344.98 781.97,-347.46 778.97,-347.51 767.73,-350.69 732.74,-360.6 725.15,-366.7 690.4,-377.41 625.9,-397.29 607.91,-395.96 543.87,-417.24 490.72,-434.89 479.87,-446.01 426.68,-463.51 406.81,-470.05 384.72,-476.12 365.04,-481.11"/>
<polygon fill="black" stroke="black" points="364.15,-477.72 355.29,-483.54 365.84,-484.51 364.15,-477.72"/>
</g>
<!-- getInfoByRoom&#45;&gt;mid -->
<g id="edge49" class="edge">
<title>getInfoByRoom&#45;&gt;mid</title>
<path fill="none" stroke="black" stroke-dasharray="5,2" d="M940.05,-335.43C963.46,-359.28 1001.85,-404.62 1010.71,-452.96 1030.37,-560.24 1001.01,-690.03 985.89,-745.84"/>
<polygon fill="black" stroke="black" points="982.46,-745.11 983.16,-755.69 989.21,-746.99 982.46,-745.11"/>
</g>
<!-- rankdb -->
<g id="node18" class="node">
<title>rankdb</title>
<ellipse fill="none" stroke="black" cx="793.32" cy="-364.58" rx="34.83" ry="18"/>
<text text-anchor="middle" x="793.32" y="-360.38" font-family="Times,serif" font-size="14.00">rankdb</text>
</g>
<!-- areaRank -->
<g id="node43" class="node">
<title>areaRank</title>
<ellipse fill="none" stroke="black" cx="550.87" cy="-384.56" rx="43.49" ry="18"/>
<text text-anchor="middle" x="550.87" y="-380.36" font-family="Times,serif" font-size="14.00">areaRank</text>
</g>
<!-- rankdb&#45;&gt;areaRank -->
<g id="edge46" class="edge">
<title>rankdb&#45;&gt;areaRank</title>
<path fill="none" stroke="black" d="M760.53,-370.69C735.38,-375.07 699.74,-380.63 668.23,-383.15 647.47,-384.81 624.59,-385.36 604.58,-385.44"/>
<polygon fill="black" stroke="black" points="604.41,-381.94 594.41,-385.43 604.41,-388.94 604.41,-381.94"/>
</g>
<!-- uname&#45;&gt;search -->
<g id="edge17" class="edge">
<title>uname&#45;&gt;search</title>
<path fill="none" stroke="black" d="M108.08,-316.12C163.62,-340.66 292.79,-404.28 368.21,-494.48 410.64,-545.22 481.96,-696.23 510.58,-755.86 524.72,-785.34 538.91,-820.09 548.16,-843.57"/>
<polygon fill="black" stroke="black" points="544.9,-844.85 551.8,-852.89 551.42,-842.31 544.9,-844.85"/>
</g>
<!-- topListPage&#45;&gt;fullTopList -->
<g id="edge63" class="edge">
<title>topListPage&#45;&gt;fullTopList</title>
<path fill="none" stroke="black" d="M149.19,-177.1C214.8,-203.2 362.44,-262.02 486.46,-312.18 557.5,-340.91 574.34,-350.41 646.06,-377.41 679.44,-389.98 717.53,-403.07 746.59,-412.81"/>
<polygon fill="black" stroke="black" points="745.48,-416.13 756.07,-415.98 747.69,-409.49 745.48,-416.13"/>
</g>
<!-- getSubmitVideosPage&#45;&gt;getAllSubmitVideos -->
<g id="edge10" class="edge">
<title>getSubmitVideosPage&#45;&gt;getAllSubmitVideos</title>
<path fill="none" stroke="black" d="M140.44,-512.27C169.5,-542.71 227.97,-606.84 266.88,-668.74 297.06,-716.77 307.44,-727.49 331.05,-779.07 347.75,-815.55 361.96,-859.76 370.3,-887.87"/>
<polygon fill="black" stroke="black" points="367.04,-889.19 373.2,-897.81 373.76,-887.23 367.04,-889.19"/>
</g>
<!-- guardLevel -->
<g id="node31" class="node">
<title>guardLevel</title>
<ellipse fill="none" stroke="black" cx="575.53" cy="-25.49" rx="50.25" ry="18"/>
<text text-anchor="middle" x="575.53" y="-21.29" font-family="Times,serif" font-size="14.00">guardLevel</text>
</g>
<!-- guards&#45;&gt;guardLevel -->
<g id="edge31" class="edge">
<title>guards&#45;&gt;guardLevel</title>
<path fill="none" stroke="black" d="M565.29,-232.73C572.29,-205.37 584.54,-151.28 585.57,-104.45 585.94,-87.55 583.66,-68.78 581.19,-53.78"/>
<polygon fill="black" stroke="black" points="584.57,-52.84 579.38,-43.6 577.68,-54.06 584.57,-52.84"/>
</g>
<!-- getFollowersPage&#45;&gt;getAllFollowers -->
<g id="edge15" class="edge">
<title>getFollowersPage&#45;&gt;getAllFollowers</title>
<path fill="none" stroke="black" d="M379.29,-393.87C376.5,-408.8 373.49,-430.52 374.87,-449.58 380.73,-530.5 402.7,-547.15 421.32,-626.11 426.17,-646.69 427.57,-651.83 431.04,-672.68 434.05,-690.75 436.6,-711.15 438.42,-727.22"/>
<polygon fill="black" stroke="black" points="434.99,-728.01 439.56,-737.57 441.94,-727.25 434.99,-728.01"/>
</g>
<!-- roomStatus&#45;&gt;roundStatus -->
<g id="edge33" class="edge">
<title>roomStatus&#45;&gt;roundStatus</title>
<path fill="none" stroke="black" d="M483.18,-102.5C463.01,-101.74 439.57,-100.85 418.35,-100.05"/>
<polygon fill="black" stroke="black" points="418.26,-96.54 408.13,-99.66 417.99,-103.53 418.26,-96.54"/>
</g>
<!-- roomStatus&#45;&gt;liveStatus -->
<g id="edge35" class="edge">
<title>roomStatus&#45;&gt;liveStatus</title>
<path fill="none" stroke="black" d="M494.17,-115.83C447.62,-129.32 370.27,-151.73 320.78,-166.07"/>
<polygon fill="black" stroke="black" points="319.59,-162.77 310.96,-168.92 321.54,-169.5 319.59,-162.77"/>
</g>
<!-- liveStatus&#45;&gt;online -->
<g id="edge38" class="edge">
<title>liveStatus&#45;&gt;online</title>
<path fill="none" stroke="black" d="M317.79,-174.55C345.1,-171.39 380.09,-167.35 407.06,-164.23"/>
<polygon fill="black" stroke="black" points="407.8,-167.67 417.34,-163.04 407,-160.72 407.8,-167.67"/>
</g>
<!-- mid&#45;&gt;stat -->
<g id="edge1" class="edge">
<title>mid&#45;&gt;stat</title>
<path fill="none" stroke="black" d="M950.58,-775.53C896.22,-779.43 770.36,-788.29 664.51,-794.34 595.22,-798.3 514.29,-801.96 468.27,-803.96"/>
<polygon fill="black" stroke="black" points="468.01,-800.47 458.17,-804.39 468.31,-807.46 468.01,-800.47"/>
</g>
<!-- mid&#45;&gt;upstat -->
<g id="edge3" class="edge">
<title>mid&#45;&gt;upstat</title>
<path fill="none" stroke="black" d="M951.8,-768.04C890.62,-755.3 732.75,-723.67 599.31,-707.55 499.2,-695.47 473.23,-702.7 372.95,-692.21 339.18,-688.68 301.21,-682.03 273.51,-676.68"/>
<polygon fill="black" stroke="black" points="273.92,-673.2 263.43,-674.71 272.57,-680.07 273.92,-673.2"/>
</g>
<!-- mid&#45;&gt;navnum -->
<g id="edge4" class="edge">
<title>mid&#45;&gt;navnum</title>
<path fill="none" stroke="black" d="M951.15,-777.02C872.03,-787.1 631.66,-816.26 431.21,-825.12 368.44,-827.9 295.98,-826.78 249.2,-825.49"/>
<polygon fill="black" stroke="black" points="249.14,-821.99 239.04,-825.2 248.94,-828.99 249.14,-821.99"/>
</g>
<!-- mid&#45;&gt;info -->
<g id="edge5" class="edge">
<title>mid&#45;&gt;info</title>
<path fill="none" stroke="black" d="M950.57,-773.65C894.47,-773.87 765.97,-774.36 702.11,-774.6"/>
<polygon fill="black" stroke="black" points="702.06,-771.1 692.07,-774.64 702.08,-778.1 702.06,-771.1"/>
</g>
<!-- mid&#45;&gt;spaceSearch -->
<g id="edge8" class="edge">
<title>mid&#45;&gt;spaceSearch</title>
<path fill="none" stroke="black" d="M951.03,-776.29C896.95,-781.61 770.8,-792.93 664.51,-794.34 633.03,-794.76 441.33,-786.37 339.35,-781.78"/>
<polygon fill="black" stroke="black" points="339.32,-778.28 329.17,-781.32 339,-785.27 339.32,-778.28"/>
</g>
<!-- mid&#45;&gt;getAllSubmitVideos -->
<g id="edge11" class="edge">
<title>mid&#45;&gt;getAllSubmitVideos</title>
<path fill="none" stroke="black" d="M953.57,-781.88C889.75,-803.47 711.41,-861.55 558.37,-890.24 526.56,-896.21 491.37,-901.51 460.6,-905.74"/>
<polygon fill="black" stroke="black" points="459.78,-902.32 450.34,-907.13 460.72,-909.25 459.78,-902.32"/>
</g>
<!-- mid&#45;&gt;getFollowers -->
<g id="edge12" class="edge">
<title>mid&#45;&gt;getFollowers</title>
<path fill="none" stroke="black" d="M951.69,-768.82C890.28,-757.73 731.93,-729.36 599.31,-707.55 543.55,-698.39 479.93,-688.62 434.41,-681.75"/>
<polygon fill="black" stroke="black" points="434.81,-678.27 424.4,-680.24 433.77,-685.19 434.81,-678.27"/>
</g>
<!-- mid&#45;&gt;getAllFollowers -->
<g id="edge14" class="edge">
<title>mid&#45;&gt;getAllFollowers</title>
<path fill="none" stroke="black" d="M950.62,-771.39C896.34,-767.19 770.66,-758.1 664.83,-755.14 616.37,-753.79 561.97,-753.91 518.98,-754.39"/>
<polygon fill="black" stroke="black" points="518.83,-750.89 508.87,-754.51 518.91,-757.89 518.83,-750.89"/>
</g>
<!-- mid&#45;&gt;_notice -->
<g id="edge18" class="edge">
<title>mid&#45;&gt;_notice</title>
<path fill="none" stroke="black" d="M952.28,-767.21C859.77,-744.26 541.53,-665.28 425.96,-636.6"/>
<polygon fill="black" stroke="black" points="426.6,-633.16 416.06,-634.15 424.92,-639.95 426.6,-633.16"/>
</g>
<!-- mid&#45;&gt;getRoomInfoOld -->
<g id="edge57" class="edge">
<title>mid&#45;&gt;getRoomInfoOld</title>
<path fill="none" stroke="black" d="M975.59,-755.39C969.08,-702.18 950,-546.25 942.09,-481.58"/>
<polygon fill="black" stroke="black" points="945.52,-480.8 940.83,-471.3 938.57,-481.66 945.52,-480.8"/>
</g>
<!-- mid&#45;&gt;topList -->
<g id="edge59" class="edge">
<title>mid&#45;&gt;topList</title>
<path fill="none" stroke="black" d="M985.19,-756.05C1004.99,-706.4 1054.84,-561.25 1010.71,-452.96 1005.01,-438.96 993.2,-427.55 981.33,-418.98"/>
<polygon fill="black" stroke="black" points="983.02,-415.9 972.76,-413.25 979.12,-421.72 983.02,-415.9"/>
</g>
<!-- mid&#45;&gt;fullTopList -->
<g id="edge62" class="edge">
<title>mid&#45;&gt;fullTopList</title>
<path fill="none" stroke="black" d="M968.66,-756.42C938.77,-700.51 843.91,-523.07 807.54,-455.03"/>
<polygon fill="black" stroke="black" points="810.61,-453.35 802.81,-446.18 804.44,-456.65 810.61,-453.35"/>
</g>
<!-- mid&#45;&gt;rankdb -->
<g id="edge65" class="edge">
<title>mid&#45;&gt;rankdb</title>
<path fill="none" stroke="black" d="M973.08,-755.8C958.67,-703.34 912.13,-545.35 844.53,-428.15 836.43,-414.13 825.36,-399.96 815.59,-388.57"/>
<polygon fill="black" stroke="black" points="817.99,-386 808.75,-380.8 812.73,-390.62 817.99,-386"/>
</g>
<!-- dynamicsRaw -->
<g id="node54" class="node">
<title>dynamicsRaw</title>
<ellipse fill="none" stroke="black" cx="1386.27" cy="-769.16" rx="60.42" ry="18"/>
<text text-anchor="middle" x="1386.27" y="-764.96" font-family="Times,serif" font-size="14.00">dynamicsRaw</text>
</g>
<!-- mid&#45;&gt;dynamicsRaw -->
<g id="edge66" class="edge">
<title>mid&#45;&gt;dynamicsRaw</title>
<path fill="none" stroke="black" d="M1005,-771.72C1017.7,-771.08 1033.02,-770.63 1046.79,-771.08 1084.9,-772.32 1094.03,-778.6 1132.13,-779.73 1195,-781.6 1266.59,-778.12 1317.72,-774.66"/>
<polygon fill="black" stroke="black" points="1318.26,-778.13 1327.99,-773.95 1317.77,-771.15 1318.26,-778.13"/>
</g>
<!-- aid -->
<g id="node47" class="node">
<title>aid</title>
<ellipse fill="none" stroke="black" cx="1041.93" cy="-687.68" rx="27" ry="18"/>
<text text-anchor="middle" x="1041.93" y="-683.48" font-family="Times,serif" font-size="14.00">aid</text>
</g>
<!-- aid&#45;&gt;archiveStat -->
<g id="edge2" class="edge">
<title>aid&#45;&gt;archiveStat</title>
<path fill="none" stroke="black" d="M1015.2,-684.35C930.95,-673.86 669.64,-641.33 552.85,-626.78"/>
<polygon fill="black" stroke="black" points="553.04,-623.28 542.68,-625.52 552.17,-630.23 553.04,-623.28"/>
</g>
<!-- aid&#45;&gt;aid -->
<g id="edge52" class="edge">
<title>aid&#45;&gt;aid</title>
<path fill="none" stroke="black" d="M1067.37,-694.37C1077.96,-694.83 1086.93,-692.6 1086.93,-687.68 1086.93,-684.45 1083.06,-682.38 1077.42,-681.47"/>
<polygon fill="black" stroke="black" points="1077.53,-677.97 1067.37,-680.99 1077.19,-684.96 1077.53,-677.97"/>
</g>
<!-- bvid&#45;&gt;view -->
<g id="edge6" class="edge">
<title>bvid&#45;&gt;view</title>
<path fill="none" stroke="black" d="M1027.97,-777.03C1019.25,-771.11 1008.53,-764.47 998.18,-759.79 989.68,-755.94 987.02,-756.38 978.01,-753.95 859.15,-721.9 717.24,-687.58 652.25,-672.07"/>
<polygon fill="black" stroke="black" points="653.03,-668.66 642.5,-669.75 651.41,-675.47 653.03,-668.66"/>
</g>
<!-- cid&#45;&gt;list -->
<g id="edge7" class="edge">
<title>cid&#45;&gt;list</title>
<path fill="none" stroke="black" d="M978.98,-860.28C910.11,-836.13 712.01,-766.68 632.68,-738.87"/>
<polygon fill="black" stroke="black" points="633.77,-735.55 623.18,-735.54 631.45,-742.15 633.77,-735.55"/>
</g>
<!-- roomid&#45;&gt;topList -->
<g id="edge58" class="edge">
<title>roomid&#45;&gt;topList</title>
<path fill="none" stroke="black" d="M1128.64,-741.97C1117.36,-691.98 1080.7,-549.6 1010.71,-452.96 1001.78,-440.63 989.31,-429.43 977.82,-420.58"/>
<polygon fill="black" stroke="black" points="979.81,-417.71 969.69,-414.57 975.65,-423.33 979.81,-417.71"/>
</g>
<!-- roomid&#45;&gt;fullTopList -->
<g id="edge61" class="edge">
<title>roomid&#45;&gt;fullTopList</title>
<path fill="none" stroke="black" d="M1119.74,-742.99C1106.18,-725.14 1083.78,-696.65 1062.31,-673.93 979.76,-586.57 871.55,-493.54 821.19,-451.34"/>
<polygon fill="black" stroke="black" points="823.25,-448.5 813.33,-444.77 818.76,-453.87 823.25,-448.5"/>
</g>
<!-- roomid&#45;&gt;getInfoByRoom -->
<g id="edge64" class="edge">
<title>roomid&#45;&gt;getInfoByRoom</title>
<path fill="none" stroke="black" d="M1127.35,-741.92C1111.47,-687.38 1059.67,-521.62 984.5,-400.67 972.01,-380.58 955.8,-359.36 942.97,-343.45"/>
<polygon fill="black" stroke="black" points="945.64,-341.18 936.6,-335.65 940.21,-345.61 945.64,-341.18"/>
</g>
<!-- page -->
<g id="node51" class="node">
<title>page</title>
<ellipse fill="none" stroke="black" cx="748.35" cy="-596.63" rx="27" ry="18"/>
<text text-anchor="middle" x="748.35" y="-592.43" font-family="Times,serif" font-size="14.00">page</text>
</g>
<!-- page&#45;&gt;spaceSearch -->
<g id="edge9" class="edge">
<title>page&#45;&gt;spaceSearch</title>
<path fill="none" stroke="black" stroke-dasharray="1,5" d="M723.97,-604.74C693.8,-614.87 640.93,-632.92 596.12,-649.75 495.91,-687.4 379.69,-735.3 318.47,-760.87"/>
<polygon fill="black" stroke="black" points="317,-757.69 309.12,-764.78 319.7,-764.15 317,-757.69"/>
</g>
<!-- page&#45;&gt;getFollowers -->
<g id="edge13" class="edge">
<title>page&#45;&gt;getFollowers</title>
<path fill="none" stroke="black" stroke-dasharray="1,5" d="M722.27,-601.91C662.28,-614.06 513.37,-644.22 430.73,-660.95"/>
<polygon fill="black" stroke="black" points="429.85,-657.56 420.74,-662.98 431.24,-664.42 429.85,-657.56"/>
</g>
<!-- page&#45;&gt;topList -->
<g id="edge60" class="edge">
<title>page&#45;&gt;topList</title>
<path fill="none" stroke="black" stroke-dasharray="1,5" d="M759.36,-580.18C778.75,-551.97 821.27,-493.48 866.45,-452.94 874.82,-445.43 878.18,-445.2 887.61,-439.08 897.16,-432.89 907.58,-426.19 917.02,-420.13"/>
<polygon fill="black" stroke="black" points="919.19,-422.9 925.72,-414.56 915.41,-417 919.19,-422.9"/>
</g>
<!-- SESSDATA -->
<g id="node52" class="node">
<title>SESSDATA</title>
<ellipse fill="none" stroke="black" cx="182.83" cy="-994.17" rx="53.28" ry="18"/>
<text text-anchor="middle" x="182.83" y="-989.97" font-family="Times,serif" font-size="14.00">SESSDATA</text>
</g>
<!-- SESSDATA&#45;&gt;getAllFollowers -->
<g id="edge16" class="edge">
<title>SESSDATA&#45;&gt;getAllFollowers</title>
<path fill="none" stroke="black" stroke-dasharray="1,5" d="M201.43,-977.02C246.69,-935.29 362.73,-828.31 415.08,-780.05"/>
<polygon fill="black" stroke="black" points="417.64,-782.45 422.62,-773.1 412.89,-777.3 417.64,-782.45"/>
</g>
<!-- p -->
<g id="node53" class="node">
<title>p</title>
<ellipse fill="none" stroke="black" cx="1041.77" cy="-1066.33" rx="27" ry="18"/>
<text text-anchor="middle" x="1041.77" y="-1062.13" font-family="Times,serif" font-size="14.00">p</text>
</g>
<!-- p&#45;&gt;cid -->
<g id="edge55" class="edge">
<title>p&#45;&gt;cid</title>
<path fill="none" stroke="black" stroke-dasharray="1,5" d="M1038.26,-1048.44C1031.49,-1013.92 1016.58,-937.87 1008.5,-896.62"/>
<polygon fill="black" stroke="black" points="1011.91,-895.83 1006.55,-886.7 1005.04,-897.18 1011.91,-895.83"/>
</g>
<!-- dynamics -->
<g id="node56" class="node">
<title>dynamics</title>
<ellipse fill="none" stroke="black" cx="1545.95" cy="-866.63" rx="44" ry="18"/>
<text text-anchor="middle" x="1545.95" y="-862.43" font-family="Times,serif" font-size="14.00">dynamics</text>
</g>
<!-- dynamicsRaw&#45;&gt;dynamics -->
<g id="edge68" class="edge">
<title>dynamicsRaw&#45;&gt;dynamics</title>
<path fill="none" stroke="black" d="M1413,-785.48C1440.35,-802.18 1482.94,-828.17 1512.51,-846.22"/>
<polygon fill="black" stroke="black" points="1510.88,-849.32 1521.24,-851.54 1514.53,-843.35 1510.88,-849.32"/>
</g>
<!-- dynamicOffset -->
<g id="node55" class="node">
<title>dynamicOffset</title>
<ellipse fill="none" stroke="black" cx="1545.78" cy="-640.09" rx="62.51" ry="18"/>
<text text-anchor="middle" x="1545.78" y="-635.89" font-family="Times,serif" font-size="14.00">dynamicOffset</text>
</g>
<!-- dynamicOffset&#45;&gt;dynamicsRaw -->
<g id="edge67" class="edge">
<title>dynamicOffset&#45;&gt;dynamicsRaw</title>
<path fill="none" stroke="black" d="M1524.6,-657.23C1496.52,-679.95 1446.84,-720.15 1415.28,-745.69"/>
<polygon fill="black" stroke="black" points="1412.86,-743.15 1407.29,-752.16 1417.26,-748.59 1412.86,-743.15"/>
</g>
</g>
</svg>
