<?xml version="1.0" encoding="UTF-8" standalone="no"?>
<!DOCTYPE svg PUBLIC "-//W3C//DTD SVG 1.1//EN"
 "http://www.w3.org/Graphics/SVG/1.1/DTD/svg11.dtd">
<!-- Generated by graphviz version 2.40.1 (20161225.0304)
 -->
<!-- Title: G Pages: 1 -->
<svg width="928pt" height="803pt"
 viewBox="0.00 0.00 928.00 803.00" xmlns="http://www.w3.org/2000/svg" xmlns:xlink="http://www.w3.org/1999/xlink">
<g id="graph0" class="graph" transform="scale(1 1) rotate(0) translate(4 799)">
<title>G</title>
<polygon fill="#ffffff" stroke="transparent" points="-4,4 -4,-799 924,-799 924,4 -4,4"/>
<g id="clust1" class="cluster">
<title>cluster_api.bilibili.com</title>
<polygon fill="none" stroke="#000000" points="335.7098,-425.4651 335.7098,-638.4651 576.7098,-638.4651 576.7098,-425.4651 335.7098,-425.4651"/>
<text text-anchor="middle" x="456.2098" y="-623.2651" font-family="Times,serif" font-size="14.00" fill="#000000">api.bilibili.com</text>
</g>
<g id="clust2" class="cluster">
<title>cluster_api.live.bilibili.com</title>
<polygon fill="none" stroke="#000000" points="588.7606,-195.6739 588.7606,-401.6739 919.7606,-401.6739 919.7606,-195.6739 588.7606,-195.6739"/>
<text text-anchor="middle" x="754.2606" y="-386.4739" font-family="Times,serif" font-size="14.00" fill="#000000">api.live.bilibili.com</text>
</g>
<g id="clust3" class="cluster">
<title>cluster_data</title>
<polygon fill="none" stroke="#000000" points=".1652,-.1671 .1652,-411.1671 572.1652,-411.1671 572.1652,-.1671 .1652,-.1671"/>
<text text-anchor="middle" x="286.1652" y="-395.9671" font-family="Times,serif" font-size="14.00" fill="#000000">data</text>
</g>
<g id="clust4" class="cluster">
<title>cluster_input</title>
<polygon fill="none" stroke="#000000" points="588.1893,-410.4236 588.1893,-556.4236 737.1893,-556.4236 737.1893,-410.4236 588.1893,-410.4236"/>
<text text-anchor="middle" x="662.6893" y="-541.2236" font-family="Times,serif" font-size="14.00" fill="#000000">input</text>
</g>
<!-- stat -->
<g id="node1" class="node">
<title>stat</title>
<ellipse fill="none" stroke="#000000" cx="541.3673" cy="-497.3741" rx="27" ry="18"/>
<text text-anchor="middle" x="541.3673" y="-493.1741" font-family="Times,serif" font-size="14.00" fill="#000000">stat</text>
</g>
<!-- follower -->
<g id="node14" class="node">
<title>follower</title>
<ellipse fill="none" stroke="#000000" cx="443.0921" cy="-326.3811" rx="40.1317" ry="18"/>
<text text-anchor="middle" x="443.0921" y="-322.1811" font-family="Times,serif" font-size="14.00" fill="#000000">follower</text>
</g>
<!-- stat&#45;&gt;follower -->
<g id="edge9" class="edge">
<title>stat&#45;&gt;follower</title>
<path fill="none" stroke="#000000" d="M547.0382,-479.7344C548.9685,-471.1249 550.0534,-460.6891 547.4362,-451.5988 535.0902,-408.7189 498.3639,-371.1547 471.9765,-348.6269"/>
<polygon fill="#000000" stroke="#000000" points="474.0855,-345.8287 464.1577,-342.129 469.6115,-351.2123 474.0855,-345.8287"/>
</g>
<!-- upstat -->
<g id="node2" class="node">
<title>upstat</title>
<ellipse fill="none" stroke="#000000" cx="375.2986" cy="-583.764" rx="31.4636" ry="18"/>
<text text-anchor="middle" x="375.2986" y="-579.564" font-family="Times,serif" font-size="14.00" fill="#000000">upstat</text>
</g>
<!-- archiveView -->
<g id="node29" class="node">
<title>archiveView</title>
<ellipse fill="none" stroke="#000000" cx="429.942" cy="-136.0286" rx="54.513" ry="18"/>
<text text-anchor="middle" x="429.942" y="-131.8286" font-family="Times,serif" font-size="14.00" fill="#000000">archiveView</text>
</g>
<!-- upstat&#45;&gt;archiveView -->
<g id="edge27" class="edge">
<title>upstat&#45;&gt;archiveView</title>
<path fill="none" stroke="#000000" d="M361.8841,-567.3688C355.8956,-558.7291 349.7831,-547.6075 347.9901,-536.3502 343.5082,-508.2102 354.1294,-501.2187 361.1459,-473.6012 374.1158,-422.5505 383.5164,-411.4421 395.1405,-360.0682 399.3943,-341.2681 417.5127,-220.0757 425.7887,-164.1863"/>
<polygon fill="#000000" stroke="#000000" points="429.2591,-164.6434 427.2598,-154.2389 422.3344,-163.6192 429.2591,-164.6434"/>
</g>
<!-- articleView -->
<g id="node30" class="node">
<title>articleView</title>
<ellipse fill="none" stroke="#000000" cx="188.5995" cy="-26.2596" rx="50.6536" ry="18"/>
<text text-anchor="middle" x="188.5995" y="-22.0596" font-family="Times,serif" font-size="14.00" fill="#000000">articleView</text>
</g>
<!-- upstat&#45;&gt;articleView -->
<g id="edge28" class="edge">
<title>upstat&#45;&gt;articleView</title>
<path fill="none" stroke="#000000" d="M363.9549,-566.7968C358.4943,-558.0114 352.229,-546.9319 347.9901,-536.3502 302.0648,-421.7027 280.9999,-388.8523 286.0722,-265.4526 286.9425,-244.2816 301.7489,-240.6587 299.2075,-219.6228 291.048,-152.0867 241.8821,-86.0703 211.9133,-51.3697"/>
<polygon fill="#000000" stroke="#000000" points="214.3433,-48.8333 205.1067,-43.6432 209.0907,-53.4605 214.3433,-48.8333"/>
</g>
<!-- navnum -->
<g id="node3" class="node">
<title>navnum</title>
<ellipse fill="none" stroke="#000000" cx="507.2399" cy="-451.4352" rx="38.6955" ry="18"/>
<text text-anchor="middle" x="507.2399" y="-447.2352" font-family="Times,serif" font-size="14.00" fill="#000000">navnum</text>
</g>
<!-- video -->
<g id="node18" class="node">
<title>video</title>
<ellipse fill="none" stroke="#000000" cx="233.8846" cy="-165.2871" rx="29.5104" ry="18"/>
<text text-anchor="middle" x="233.8846" y="-161.0871" font-family="Times,serif" font-size="14.00" fill="#000000">video</text>
</g>
<!-- navnum&#45;&gt;video -->
<g id="edge13" class="edge">
<title>navnum&#45;&gt;video</title>
<path fill="none" stroke="#000000" d="M490.0698,-435.1059C467.1659,-412.5281 426.5881,-369.6422 401.4263,-326.3685 387.02,-301.5923 394.4137,-290.1351 379.245,-265.8182 374.7115,-258.5506 372.4942,-257.3819 365.9074,-251.906 333.5213,-224.982 292.4583,-199.1776 264.7969,-182.8457"/>
<polygon fill="#000000" stroke="#000000" points="266.3614,-179.7062 255.9617,-177.6823 262.8294,-185.7498 266.3614,-179.7062"/>
</g>
<!-- info -->
<g id="node4" class="node">
<title>info</title>
<ellipse fill="none" stroke="#000000" cx="519.3209" cy="-578.3286" rx="27" ry="18"/>
<text text-anchor="middle" x="519.3209" y="-574.1286" font-family="Times,serif" font-size="14.00" fill="#000000">info</text>
</g>
<!-- uname -->
<g id="node15" class="node">
<title>uname</title>
<ellipse fill="none" stroke="#000000" cx="142.1558" cy="-263.7079" rx="33.8596" ry="18"/>
<text text-anchor="middle" x="142.1558" y="-259.5079" font-family="Times,serif" font-size="14.00" fill="#000000">uname</text>
</g>
<!-- info&#45;&gt;uname -->
<g id="edge10" class="edge">
<title>info&#45;&gt;uname</title>
<path fill="none" stroke="#000000" d="M495.7599,-569.4259C479.3789,-562.8027 457.3304,-553.0076 439.2683,-541.8526 320.0041,-468.1959 207.1577,-341.6612 162.4057,-288.438"/>
<polygon fill="#000000" stroke="#000000" points="164.9124,-285.9791 155.8174,-280.5448 159.5384,-290.4647 164.9124,-285.9791"/>
</g>
<!-- sign -->
<g id="node16" class="node">
<title>sign</title>
<ellipse fill="none" stroke="#000000" cx="72.2181" cy="-226.1447" rx="27" ry="18"/>
<text text-anchor="middle" x="72.2181" y="-221.9447" font-family="Times,serif" font-size="14.00" fill="#000000">sign</text>
</g>
<!-- info&#45;&gt;sign -->
<g id="edge11" class="edge">
<title>info&#45;&gt;sign</title>
<path fill="none" stroke="#000000" d="M495.7599,-569.4259C479.3789,-562.8027 457.3304,-553.0076 439.2683,-541.8526 411.9641,-524.9897 217.4467,-375.1068 116.9735,-277.4348 108.2798,-268.9836 99.3663,-259.0686 91.8053,-250.2205"/>
<polygon fill="#000000" stroke="#000000" points="94.4011,-247.8692 85.2869,-242.4671 89.0431,-252.3738 94.4011,-247.8692"/>
</g>
<!-- coins -->
<g id="node17" class="node">
<title>coins</title>
<ellipse fill="none" stroke="#000000" cx="167.0793" cy="-169.9291" rx="28.5497" ry="18"/>
<text text-anchor="middle" x="167.0793" y="-165.7291" font-family="Times,serif" font-size="14.00" fill="#000000">coins</text>
</g>
<!-- info&#45;&gt;coins -->
<g id="edge12" class="edge">
<title>info&#45;&gt;coins</title>
<path fill="none" stroke="#000000" d="M510.4385,-561.2846C503.1422,-547.9435 492.1255,-529.2133 480.3655,-514.2912 459.2097,-487.4467 451.3272,-482.8319 425.8269,-460.074 380.1017,-419.2664 363.3219,-415.3489 318.1558,-373.9234 311.8857,-368.1727 309.9733,-366.9313 304.9518,-360.0634 292.8242,-343.4766 293.76,-336.858 282.7259,-319.5245 278.615,-313.0668 277.2711,-311.6535 272.547,-305.6298 241.6473,-266.2293 230.2164,-259.3486 200.1526,-219.3067 194.3913,-211.6332 188.4512,-203.0185 183.2224,-195.1591"/>
<polygon fill="#000000" stroke="#000000" points="186.0818,-193.1369 177.6688,-186.6969 180.2295,-196.9776 186.0818,-193.1369"/>
</g>
<!-- face -->
<g id="node31" class="node">
<title>face</title>
<ellipse fill="none" stroke="#000000" cx="175.8433" cy="-363.4576" rx="27" ry="18"/>
<text text-anchor="middle" x="175.8433" y="-359.2576" font-family="Times,serif" font-size="14.00" fill="#000000">face</text>
</g>
<!-- info&#45;&gt;face -->
<g id="edge29" class="edge">
<title>info&#45;&gt;face</title>
<path fill="none" stroke="#000000" d="M496.0424,-568.9463C479.7911,-562.103 457.7813,-552.2422 439.2683,-541.8526 348.3144,-490.8087 248.2147,-418.0055 201.9476,-383.315"/>
<polygon fill="#000000" stroke="#000000" points="203.784,-380.3166 193.6897,-377.0987 199.5741,-385.9091 203.784,-380.3166"/>
</g>
<!-- topPhoto -->
<g id="node32" class="node">
<title>topPhoto</title>
<ellipse fill="none" stroke="#000000" cx="50.6318" cy="-303.1464" rx="42.0956" ry="18"/>
<text text-anchor="middle" x="50.6318" y="-298.9464" font-family="Times,serif" font-size="14.00" fill="#000000">topPhoto</text>
</g>
<!-- info&#45;&gt;topPhoto -->
<g id="edge30" class="edge">
<title>info&#45;&gt;topPhoto</title>
<path fill="none" stroke="#000000" d="M496.2619,-568.5388C480.1112,-561.5086 458.1316,-551.5918 439.2683,-541.8526 309.7032,-474.9569 278.2129,-455.9525 155.48,-377.2203 129.4296,-360.5091 100.7895,-340.1315 80.0346,-324.9825"/>
<polygon fill="#000000" stroke="#000000" points="82.0665,-322.1323 71.9324,-319.0419 77.9274,-327.7775 82.0665,-322.1323"/>
</g>
<!-- view -->
<g id="node5" class="node">
<title>view</title>
<ellipse fill="none" stroke="#000000" cx="459.8169" cy="-528.0719" rx="27.0958" ry="18"/>
<text text-anchor="middle" x="459.8169" y="-523.8719" font-family="Times,serif" font-size="14.00" fill="#000000">view</text>
</g>
<!-- mid -->
<g id="node35" class="node">
<title>mid</title>
<ellipse fill="none" stroke="#000000" cx="702.3707" cy="-508.5669" rx="27" ry="18"/>
<text text-anchor="middle" x="702.3707" y="-504.3669" font-family="Times,serif" font-size="14.00" fill="#000000">mid</text>
</g>
<!-- view&#45;&gt;mid -->
<g id="edge34" class="edge">
<title>view&#45;&gt;mid</title>
<path fill="none" stroke="#000000" stroke-dasharray="5,2" d="M487.1694,-525.8723C530.8001,-522.3637 616.2202,-515.4947 665.3019,-511.5478"/>
<polygon fill="#000000" stroke="#000000" points="665.8011,-515.019 675.4883,-510.7286 665.2399,-508.0415 665.8011,-515.019"/>
</g>
<!-- cid -->
<g id="node36" class="node">
<title>cid</title>
<ellipse fill="none" stroke="#000000" cx="623.6351" cy="-484.069" rx="27" ry="18"/>
<text text-anchor="middle" x="623.6351" y="-479.869" font-family="Times,serif" font-size="14.00" fill="#000000">cid</text>
</g>
<!-- view&#45;&gt;cid -->
<g id="edge36" class="edge">
<title>view&#45;&gt;cid</title>
<path fill="none" stroke="#000000" d="M487.2713,-526.2261C508.145,-524.1853 537.3102,-519.9479 561.5821,-511.2391 571.7107,-507.605 582.5263,-503.0977 592.2437,-498.8056"/>
<polygon fill="#000000" stroke="#000000" points="593.8472,-501.9222 601.5291,-494.6257 590.9737,-495.5391 593.8472,-501.9222"/>
</g>
<!-- list -->
<g id="node6" class="node">
<title>list</title>
<ellipse fill="none" stroke="#000000" cx="376.5901" cy="-536.3506" rx="27" ry="18"/>
<text text-anchor="middle" x="376.5901" y="-532.1506" font-family="Times,serif" font-size="14.00" fill="#000000">list</text>
</g>
<!-- search -->
<g id="node7" class="node">
<title>search</title>
<ellipse fill="none" stroke="#000000" cx="450.7879" cy="-590.4658" rx="32.8821" ry="18"/>
<text text-anchor="middle" x="450.7879" y="-586.2658" font-family="Times,serif" font-size="14.00" fill="#000000">search</text>
</g>
<!-- search&#45;&gt;mid -->
<g id="edge35" class="edge">
<title>search&#45;&gt;mid</title>
<path fill="none" stroke="#000000" stroke-dasharray="5,2" d="M472.9348,-577.2203C481.0052,-572.7515 490.3217,-567.996 499.1657,-564.4228 555.926,-541.4907 625.2962,-524.6743 666.5456,-515.7755"/>
<polygon fill="#000000" stroke="#000000" points="667.346,-519.1837 676.402,-513.6848 665.8934,-512.336 667.346,-519.1837"/>
</g>
<!-- _notice -->
<g id="node8" class="node">
<title>_notice</title>
<ellipse fill="none" stroke="#000000" cx="398.8803" cy="-473.7954" rx="36.2732" ry="18"/>
<text text-anchor="middle" x="398.8803" y="-469.5954" font-family="Times,serif" font-size="14.00" fill="#000000">_notice</text>
</g>
<!-- notice -->
<g id="node28" class="node">
<title>notice</title>
<ellipse fill="none" stroke="#000000" cx="516.2919" cy="-255.0788" rx="31.9306" ry="18"/>
<text text-anchor="middle" x="516.2919" y="-250.8788" font-family="Times,serif" font-size="14.00" fill="#000000">notice</text>
</g>
<!-- _notice&#45;&gt;notice -->
<g id="edge26" class="edge">
<title>_notice&#45;&gt;notice</title>
<path fill="none" stroke="#000000" d="M409.8364,-456.4498C426.8222,-429.2478 460.1185,-374.6683 484.7578,-326.3937 492.1367,-311.9367 499.5209,-295.3784 505.2868,-281.8583"/>
<polygon fill="#000000" stroke="#000000" points="508.52,-283.1985 509.1761,-272.624 502.0689,-280.4814 508.52,-283.1985"/>
</g>
<!-- getRoomInfoOld -->
<g id="node9" class="node">
<title>getRoomInfoOld</title>
<ellipse fill="none" stroke="#000000" cx="690.9368" cy="-221.447" rx="70.56" ry="18"/>
<text text-anchor="middle" x="690.9368" y="-217.247" font-family="Times,serif" font-size="14.00" fill="#000000">getRoomInfoOld</text>
</g>
<!-- roomStatus -->
<g id="node23" class="node">
<title>roomStatus</title>
<ellipse fill="none" stroke="#000000" cx="483.0137" cy="-195.1086" rx="50.2896" ry="18"/>
<text text-anchor="middle" x="483.0137" y="-190.9086" font-family="Times,serif" font-size="14.00" fill="#000000">roomStatus</text>
</g>
<!-- getRoomInfoOld&#45;&gt;roomStatus -->
<g id="edge18" class="edge">
<title>getRoomInfoOld&#45;&gt;roomStatus</title>
<path fill="none" stroke="#000000" d="M627.7062,-213.4373C600.0552,-209.9347 567.8381,-205.8536 540.8324,-202.4327"/>
<polygon fill="#000000" stroke="#000000" points="541.1184,-198.9411 530.7578,-201.1565 540.2386,-205.8856 541.1184,-198.9411"/>
</g>
<!-- roundStatus -->
<g id="node24" class="node">
<title>roundStatus</title>
<ellipse fill="none" stroke="#000000" cx="364.7013" cy="-197.0195" rx="52.2192" ry="18"/>
<text text-anchor="middle" x="364.7013" y="-192.8195" font-family="Times,serif" font-size="14.00" fill="#000000">roundStatus</text>
</g>
<!-- getRoomInfoOld&#45;&gt;roundStatus -->
<g id="edge20" class="edge">
<title>getRoomInfoOld&#45;&gt;roundStatus</title>
<path fill="none" stroke="#000000" d="M620.077,-221.1852C579.8158,-220.5272 528.5121,-218.8335 483.0103,-214.7086 462.8433,-212.8804 440.876,-209.8787 421.4052,-206.8627"/>
<polygon fill="#000000" stroke="#000000" points="421.8979,-203.3972 411.4736,-205.2904 420.8032,-210.3111 421.8979,-203.3972"/>
</g>
<!-- liveStatus -->
<g id="node25" class="node">
<title>liveStatus</title>
<ellipse fill="none" stroke="#000000" cx="332.6586" cy="-265.6354" rx="44.9768" ry="18"/>
<text text-anchor="middle" x="332.6586" y="-261.4354" font-family="Times,serif" font-size="14.00" fill="#000000">liveStatus</text>
</g>
<!-- getRoomInfoOld&#45;&gt;liveStatus -->
<g id="edge22" class="edge">
<title>getRoomInfoOld&#45;&gt;liveStatus</title>
<path fill="none" stroke="#000000" d="M622.0362,-225.6763C589.8993,-227.9851 551.1738,-231.2466 516.4897,-235.4791 471.299,-240.9938 420.2242,-249.5616 383.3997,-256.1576"/>
<polygon fill="#000000" stroke="#000000" points="382.627,-252.7404 373.4079,-257.9615 383.8707,-259.6291 382.627,-252.7404"/>
</g>
<!-- title -->
<g id="node26" class="node">
<title>title</title>
<ellipse fill="none" stroke="#000000" cx="315.8455" cy="-148.6026" rx="27" ry="18"/>
<text text-anchor="middle" x="315.8455" y="-144.4026" font-family="Times,serif" font-size="14.00" fill="#000000">title</text>
</g>
<!-- getRoomInfoOld&#45;&gt;title -->
<g id="edge23" class="edge">
<title>getRoomInfoOld&#45;&gt;title</title>
<path fill="none" stroke="#000000" d="M640.965,-208.7095C606.9409,-200.284 560.8081,-189.3409 519.7819,-181.2502 461.5306,-169.7627 393.3134,-159.4769 352.3935,-153.6443"/>
<polygon fill="#000000" stroke="#000000" points="352.7441,-150.1592 342.3526,-152.2246 351.764,-157.0902 352.7441,-150.1592"/>
</g>
<!-- roomid -->
<g id="node37" class="node">
<title>roomid</title>
<ellipse fill="none" stroke="#000000" cx="693.5366" cy="-436.6896" rx="35.806" ry="18"/>
<text text-anchor="middle" x="693.5366" y="-432.4896" font-family="Times,serif" font-size="14.00" fill="#000000">roomid</text>
</g>
<!-- getRoomInfoOld&#45;&gt;roomid -->
<g id="edge38" class="edge">
<title>getRoomInfoOld&#45;&gt;roomid</title>
<path fill="none" stroke="#000000" d="M699.6812,-239.5239C710.9517,-264.7121 728.8299,-312.0246 726.3482,-354.16 725.1845,-373.9174 716.9388,-394.6103 709.0055,-410.3335"/>
<polygon fill="#000000" stroke="#000000" points="705.7743,-408.9554 704.1723,-419.4284 711.9558,-412.2403 705.7743,-408.9554"/>
</g>
<!-- topList -->
<g id="node10" class="node">
<title>topList</title>
<ellipse fill="none" stroke="#000000" cx="799.3145" cy="-338.4727" rx="35.3303" ry="18"/>
<text text-anchor="middle" x="799.3145" y="-334.2727" font-family="Times,serif" font-size="14.00" fill="#000000">topList</text>
</g>
<!-- guardNum -->
<g id="node19" class="node">
<title>guardNum</title>
<ellipse fill="none" stroke="#000000" cx="249.68" cy="-219.4647" rx="47.8582" ry="18"/>
<text text-anchor="middle" x="249.68" y="-215.2647" font-family="Times,serif" font-size="14.00" fill="#000000">guardNum</text>
</g>
<!-- topList&#45;&gt;guardNum -->
<g id="edge14" class="edge">
<title>topList&#45;&gt;guardNum</title>
<path fill="none" stroke="#000000" d="M766.5784,-331.3847C674.5815,-311.4653 413.1802,-254.8661 301.4043,-230.6642"/>
<polygon fill="#000000" stroke="#000000" points="301.8973,-227.1899 291.383,-228.4944 300.4159,-234.0314 301.8973,-227.1899"/>
</g>
<!-- topListPage -->
<g id="node20" class="node">
<title>topListPage</title>
<ellipse fill="none" stroke="#000000" cx="68.8138" cy="-121.5399" rx="52.2106" ry="18"/>
<text text-anchor="middle" x="68.8138" y="-117.3399" font-family="Times,serif" font-size="14.00" fill="#000000">topListPage</text>
</g>
<!-- topList&#45;&gt;topListPage -->
<g id="edge15" class="edge">
<title>topList&#45;&gt;topListPage</title>
<path fill="none" stroke="#000000" d="M766.5541,-331.3318C713.7528,-319.7689 606.5897,-296.0801 516.094,-274.6784 505.6232,-272.2021 502.9478,-271.7881 492.5954,-268.8555 476.8316,-264.3899 225.6586,-187.6395 211.6658,-179.1163 199.3332,-171.6044 201.1191,-163.4891 188.6821,-156.1511 169.604,-144.8947 146.6397,-137.1083 125.9386,-131.8159"/>
<polygon fill="#000000" stroke="#000000" points="126.527,-128.3575 115.985,-129.4138 124.8849,-135.1621 126.527,-128.3575"/>
</g>
<!-- fullTopList -->
<g id="node11" class="node">
<title>fullTopList</title>
<ellipse fill="none" stroke="#000000" cx="646.944" cy="-279.0933" rx="49.5468" ry="18"/>
<text text-anchor="middle" x="646.944" y="-274.8933" font-family="Times,serif" font-size="14.00" fill="#000000">fullTopList</text>
</g>
<!-- guards -->
<g id="node21" class="node">
<title>guards</title>
<ellipse fill="none" stroke="#000000" cx="247.443" cy="-319.4026" rx="33.8683" ry="18"/>
<text text-anchor="middle" x="247.443" y="-315.2026" font-family="Times,serif" font-size="14.00" fill="#000000">guards</text>
</g>
<!-- fullTopList&#45;&gt;guards -->
<g id="edge16" class="edge">
<title>fullTopList&#45;&gt;guards</title>
<path fill="none" stroke="#000000" d="M598.7549,-283.9555C520.2649,-291.8751 366.0354,-307.4367 290.7924,-315.0287"/>
<polygon fill="#000000" stroke="#000000" points="290.3136,-311.5591 280.7156,-316.0454 291.0164,-318.5238 290.3136,-311.5591"/>
</g>
<!-- getAnchorInRoom -->
<g id="node12" class="node">
<title>getAnchorInRoom</title>
<ellipse fill="none" stroke="#000000" cx="835.0793" cy="-274.1783" rx="76.3398" ry="18"/>
<text text-anchor="middle" x="835.0793" y="-269.9783" font-family="Times,serif" font-size="14.00" fill="#000000">getAnchorInRoom</text>
</g>
<!-- anchorScore -->
<g id="node33" class="node">
<title>anchorScore</title>
<ellipse fill="none" stroke="#000000" cx="337.3431" cy="-68.7096" rx="54.1058" ry="18"/>
<text text-anchor="middle" x="337.3431" y="-64.5096" font-family="Times,serif" font-size="14.00" fill="#000000">anchorScore</text>
</g>
<!-- getAnchorInRoom&#45;&gt;anchorScore -->
<g id="edge31" class="edge">
<title>getAnchorInRoom&#45;&gt;anchorScore</title>
<path fill="none" stroke="#000000" d="M814.9493,-256.8019C796.9426,-242.0056 769.3005,-221.0761 742.3217,-207.6921 621.948,-147.9754 469.6439,-103.295 390.5235,-82.1915"/>
<polygon fill="#000000" stroke="#000000" points="391.3441,-78.7883 380.7815,-79.6138 389.5535,-85.5554 391.3441,-78.7883"/>
</g>
<!-- getAnchorInRoom&#45;&gt;mid -->
<g id="edge33" class="edge">
<title>getAnchorInRoom&#45;&gt;mid</title>
<path fill="none" stroke="#000000" stroke-dasharray="5,2" d="M811.4912,-291.4709C799.543,-300.71 785.126,-312.6193 773.4133,-324.5628 736.078,-362.6338 748.8004,-386.5235 730.7893,-436.7125 725.4453,-451.6039 718.9937,-468.0248 713.5892,-481.4054"/>
<polygon fill="#000000" stroke="#000000" points="710.2247,-480.3877 709.6961,-490.9694 716.7081,-483.0269 710.2247,-480.3877"/>
</g>
<!-- rankdb -->
<g id="node13" class="node">
<title>rankdb</title>
<ellipse fill="none" stroke="#000000" cx="690.0844" cy="-354.134" rx="34.8285" ry="18"/>
<text text-anchor="middle" x="690.0844" y="-349.934" font-family="Times,serif" font-size="14.00" fill="#000000">rankdb</text>
</g>
<!-- areaRank -->
<g id="node34" class="node">
<title>areaRank</title>
<ellipse fill="none" stroke="#000000" cx="350.0461" cy="-360.0658" rx="43.4887" ry="18"/>
<text text-anchor="middle" x="350.0461" y="-355.8658" font-family="Times,serif" font-size="14.00" fill="#000000">areaRank</text>
</g>
<!-- rankdb&#45;&gt;areaRank -->
<g id="edge32" class="edge">
<title>rankdb&#45;&gt;areaRank</title>
<path fill="none" stroke="#000000" d="M655.2923,-354.7409C595.7609,-355.7794 473.9829,-357.9038 403.5656,-359.1322"/>
<polygon fill="#000000" stroke="#000000" points="403.4998,-355.6327 393.5624,-359.3067 403.6219,-362.6316 403.4998,-355.6327"/>
</g>
<!-- uname&#45;&gt;search -->
<g id="edge7" class="edge">
<title>uname&#45;&gt;search</title>
<path fill="none" stroke="#000000" d="M158.8631,-279.4807C200.4924,-319.0342 311.6173,-426.1784 396.8138,-522.4915 409.0169,-536.287 421.8711,-552.4044 431.9728,-565.4817"/>
<polygon fill="#000000" stroke="#000000" points="429.3187,-567.7725 438.1791,-573.5815 434.8751,-563.515 429.3187,-567.7725"/>
</g>
<!-- topListPage&#45;&gt;fullTopList -->
<g id="edge45" class="edge">
<title>topListPage&#45;&gt;fullTopList</title>
<path fill="none" stroke="#000000" d="M118.5586,-127.3684C151.4645,-131.5784 195.4744,-137.8863 233.9525,-145.6871 270.9064,-153.179 278.9687,-159.8964 315.7482,-168.2025 354.1636,-176.878 366.1332,-169.5886 403.0745,-183.2398 424.0255,-190.9821 425.9878,-199.5587 446.2455,-208.967 486.2173,-227.5311 498.379,-226.775 539.9883,-241.302 560.2548,-248.3777 582.6531,-256.2791 601.6937,-263.0204"/>
<polygon fill="#000000" stroke="#000000" points="600.7208,-266.3888 611.3156,-266.4294 603.0586,-259.7907 600.7208,-266.3888"/>
</g>
<!-- guardLevel -->
<g id="node22" class="node">
<title>guardLevel</title>
<ellipse fill="none" stroke="#000000" cx="513.562" cy="-26.2353" rx="50.2465" ry="18"/>
<text text-anchor="middle" x="513.562" y="-22.0353" font-family="Times,serif" font-size="14.00" fill="#000000">guardLevel</text>
</g>
<!-- guards&#45;&gt;guardLevel -->
<g id="edge17" class="edge">
<title>guards&#45;&gt;guardLevel</title>
<path fill="none" stroke="#000000" d="M256.653,-301.7629C267.0405,-281.8418 284.4143,-248.4433 299.2075,-219.6228 304.3781,-209.5493 304.0238,-206.0212 310.7428,-196.9071 358.3891,-132.2762 435.3023,-76.4637 479.4552,-47.4718"/>
<polygon fill="#000000" stroke="#000000" points="481.6095,-50.2462 488.0939,-41.8675 477.7998,-44.3737 481.6095,-50.2462"/>
</g>
<!-- roomStatus&#45;&gt;roundStatus -->
<g id="edge19" class="edge">
<title>roomStatus&#45;&gt;roundStatus</title>
<path fill="none" stroke="#000000" d="M432.4954,-195.9245C430.9252,-195.9499 429.3468,-195.9754 427.7646,-196.0009"/>
<polygon fill="#000000" stroke="#000000" points="427.2583,-192.5086 417.3162,-196.1697 427.3714,-199.5076 427.2583,-192.5086"/>
</g>
<!-- roomStatus&#45;&gt;liveStatus -->
<g id="edge21" class="edge">
<title>roomStatus&#45;&gt;liveStatus</title>
<path fill="none" stroke="#000000" d="M452.2243,-209.551C428.7602,-220.5572 396.3079,-235.7796 371.1327,-247.5884"/>
<polygon fill="#000000" stroke="#000000" points="369.4414,-244.5158 361.8743,-251.9313 372.4142,-250.8532 369.4414,-244.5158"/>
</g>
<!-- online -->
<g id="node27" class="node">
<title>online</title>
<ellipse fill="none" stroke="#000000" cx="197.607" cy="-112.6079" rx="32.4237" ry="18"/>
<text text-anchor="middle" x="197.607" y="-108.4079" font-family="Times,serif" font-size="14.00" fill="#000000">online</text>
</g>
<!-- liveStatus&#45;&gt;online -->
<g id="edge25" class="edge">
<title>liveStatus&#45;&gt;online</title>
<path fill="none" stroke="#000000" d="M323.6235,-247.8362C310.8916,-223.947 285.8697,-181.0938 256.1033,-151.4579 248.2467,-143.6358 238.5906,-136.4686 229.4047,-130.4781"/>
<polygon fill="#000000" stroke="#000000" points="231.1512,-127.4424 220.8157,-125.1122 227.4422,-133.3791 231.1512,-127.4424"/>
</g>
<!-- mid&#45;&gt;stat -->
<g id="edge1" class="edge">
<title>mid&#45;&gt;stat</title>
<path fill="none" stroke="#000000" d="M675.3117,-506.9871C660.0574,-506.0718 640.6526,-504.8664 623.3822,-503.6682 608.7374,-502.6522 592.6296,-501.4373 578.595,-500.347"/>
<polygon fill="#000000" stroke="#000000" points="578.5681,-496.8343 568.3254,-499.5429 578.0217,-503.8129 578.5681,-496.8343"/>
</g>
<!-- mid&#45;&gt;upstat -->
<g id="edge2" class="edge">
<title>mid&#45;&gt;upstat</title>
<path fill="none" stroke="#000000" d="M676.7059,-514.4675C619.6961,-527.5746 482.2134,-559.1832 414.4261,-574.7682"/>
<polygon fill="#000000" stroke="#000000" points="413.5194,-571.3853 404.5579,-577.037 415.0879,-578.2073 413.5194,-571.3853"/>
</g>
<!-- mid&#45;&gt;navnum -->
<g id="edge3" class="edge">
<title>mid&#45;&gt;navnum</title>
<path fill="none" stroke="#000000" d="M675.1449,-508.3597C659.8384,-507.8738 640.4371,-506.6407 623.3822,-503.6682 593.3276,-498.4301 561.929,-483.6631 539.3673,-471.1615"/>
<polygon fill="#000000" stroke="#000000" points="540.9937,-468.06 530.5717,-466.1541 537.5304,-474.1433 540.9937,-468.06"/>
</g>
<!-- mid&#45;&gt;info -->
<g id="edge4" class="edge">
<title>mid&#45;&gt;info</title>
<path fill="none" stroke="#000000" d="M678.8149,-517.5442C646.6875,-529.7882 588.9622,-551.7878 552.4754,-565.6932"/>
<polygon fill="#000000" stroke="#000000" points="550.8843,-562.5539 542.7863,-569.3858 553.3772,-569.095 550.8843,-562.5539"/>
</g>
<!-- mid&#45;&gt;_notice -->
<g id="edge8" class="edge">
<title>mid&#45;&gt;_notice</title>
<path fill="none" stroke="#000000" d="M675.1449,-508.3597C659.8384,-507.8738 640.4371,-506.6407 623.3822,-503.6682 585.7302,-497.1059 579.1558,-483.5765 541.3792,-477.7741 509.6018,-472.8931 473.382,-471.9413 445.4107,-472.1877"/>
<polygon fill="#000000" stroke="#000000" points="445.0696,-468.6922 435.1208,-472.3352 445.1699,-475.6914 445.0696,-468.6922"/>
</g>
<!-- mid&#45;&gt;getRoomInfoOld -->
<g id="edge39" class="edge">
<title>mid&#45;&gt;getRoomInfoOld</title>
<path fill="none" stroke="#000000" d="M711.5729,-491.4546C718.5983,-477.2624 727.598,-456.3084 730.7893,-436.7125 741.7998,-369.1035 717.5552,-289.9973 702.2383,-249.0912"/>
<polygon fill="#000000" stroke="#000000" points="705.4222,-247.6197 698.5634,-239.5446 698.8895,-250.1344 705.4222,-247.6197"/>
</g>
<!-- mid&#45;&gt;topList -->
<g id="edge41" class="edge">
<title>mid&#45;&gt;topList</title>
<path fill="none" stroke="#000000" d="M712.0205,-491.6357C728.9904,-461.8609 764.2814,-399.9407 784.407,-364.629"/>
<polygon fill="#000000" stroke="#000000" points="787.5043,-366.2629 789.4152,-355.8418 781.4227,-362.7967 787.5043,-366.2629"/>
</g>
<!-- mid&#45;&gt;fullTopList -->
<g id="edge44" class="edge">
<title>mid&#45;&gt;fullTopList</title>
<path fill="none" stroke="#000000" d="M688.7495,-492.6716C677.8058,-478.8654 663.1661,-457.8154 656.284,-436.6667 642.1129,-393.1189 642.4629,-339.281 644.4145,-307.1433"/>
<polygon fill="#000000" stroke="#000000" points="647.909,-307.3434 645.1191,-297.1225 640.9263,-306.8524 647.909,-307.3434"/>
</g>
<!-- mid&#45;&gt;rankdb -->
<g id="edge47" class="edge">
<title>mid&#45;&gt;rankdb</title>
<path fill="none" stroke="#000000" d="M713.5406,-491.8689C721.8416,-477.749 731.6021,-456.6842 730.7893,-436.7125 729.9472,-416.0196 719.5301,-395.1192 709.4461,-379.5223"/>
<polygon fill="#000000" stroke="#000000" points="712.1519,-377.2781 703.6223,-370.9935 706.3711,-381.2256 712.1519,-377.2781"/>
</g>
<!-- cid&#45;&gt;list -->
<g id="edge6" class="edge">
<title>cid&#45;&gt;list</title>
<path fill="none" stroke="#000000" d="M597.3056,-479.6931C581.1494,-477.5941 560.0477,-475.9019 541.3792,-477.7741 492.5076,-482.6752 439.6004,-504.7715 407.2719,-520.3749"/>
<polygon fill="#000000" stroke="#000000" points="405.348,-517.4211 397.9268,-524.9826 408.4436,-523.6994 405.348,-517.4211"/>
</g>
<!-- roomid&#45;&gt;topList -->
<g id="edge40" class="edge">
<title>roomid&#45;&gt;topList</title>
<path fill="none" stroke="#000000" d="M711.0037,-420.4711C728.4095,-404.3095 755.2881,-379.3521 774.8214,-361.2151"/>
<polygon fill="#000000" stroke="#000000" points="777.2258,-363.7587 782.1725,-354.3895 772.4628,-358.629 777.2258,-363.7587"/>
</g>
<!-- roomid&#45;&gt;fullTopList -->
<g id="edge43" class="edge">
<title>roomid&#45;&gt;fullTopList</title>
<path fill="none" stroke="#000000" d="M682.9383,-419.3678C673.5672,-403.1351 660.3942,-377.8746 653.8206,-354.108 649.6533,-339.0414 647.8784,-321.6904 647.1703,-307.4729"/>
<polygon fill="#000000" stroke="#000000" points="650.662,-307.1729 646.8148,-297.3013 643.6663,-307.4174 650.662,-307.1729"/>
</g>
<!-- roomid&#45;&gt;getAnchorInRoom -->
<g id="edge46" class="edge">
<title>roomid&#45;&gt;getAnchorInRoom</title>
<path fill="none" stroke="#000000" d="M703.6706,-419.0861C717.5545,-395.8573 744.1275,-354.4257 773.4133,-324.5628 782.5639,-315.2319 793.365,-305.9219 803.3499,-297.8898"/>
<polygon fill="#000000" stroke="#000000" points="805.8054,-300.4108 811.4912,-291.4709 801.4714,-294.9139 805.8054,-300.4108"/>
</g>
<!-- roomid&#45;&gt;online -->
<g id="edge24" class="edge">
<title>roomid&#45;&gt;online</title>
<path fill="none" stroke="#000000" d="M669.1075,-423.3537C608.9746,-390.1705 449.7131,-300.109 326.3281,-210.7991 293.2274,-186.8397 288.7826,-175.9889 256.1033,-151.4579 247.0891,-144.6913 236.9564,-137.7451 227.6887,-131.6316"/>
<polygon fill="#000000" stroke="#000000" points="229.4224,-128.5839 219.133,-126.0584 225.6017,-134.4492 229.4224,-128.5839"/>
</g>
<!-- aid -->
<g id="node38" class="node">
<title>aid</title>
<ellipse fill="none" stroke="#000000" cx="470.4327" cy="-777.2668" rx="27" ry="18"/>
<text text-anchor="middle" x="470.4327" y="-773.0668" font-family="Times,serif" font-size="14.00" fill="#000000">aid</text>
</g>
<!-- aid&#45;&gt;view -->
<g id="edge5" class="edge">
<title>aid&#45;&gt;view</title>
<path fill="none" stroke="#000000" d="M474.5624,-759.396C481.6698,-726.0287 494.5778,-652.0571 485.0783,-590.5026 483.1805,-578.2049 478.495,-565.3428 473.6675,-554.5108"/>
<polygon fill="#000000" stroke="#000000" points="476.7081,-552.7532 469.2701,-545.2082 470.3795,-555.7448 476.7081,-552.7532"/>
</g>
<!-- p -->
<g id="node39" class="node">
<title>p</title>
<ellipse fill="none" stroke="#000000" cx="714.119" cy="-660.5626" rx="27" ry="18"/>
<text text-anchor="middle" x="714.119" y="-656.3626" font-family="Times,serif" font-size="14.00" fill="#000000">p</text>
</g>
<!-- p&#45;&gt;cid -->
<g id="edge37" class="edge">
<title>p&#45;&gt;cid</title>
<path fill="none" stroke="#000000" stroke-dasharray="1,5" d="M705.2782,-643.3183C689.358,-612.2651 655.7841,-546.7773 637.0284,-510.1934"/>
<polygon fill="#000000" stroke="#000000" points="640.0552,-508.4254 632.3785,-501.1235 633.8261,-511.6189 640.0552,-508.4254"/>
</g>
<!-- page -->
<g id="node40" class="node">
<title>page</title>
<ellipse fill="none" stroke="#000000" cx="784.5116" cy="-162.1331" rx="27" ry="18"/>
<text text-anchor="middle" x="784.5116" y="-157.9331" font-family="Times,serif" font-size="14.00" fill="#000000">page</text>
</g>
<!-- page&#45;&gt;topList -->
<g id="edge42" class="edge">
<title>page&#45;&gt;topList</title>
<path fill="none" stroke="#000000" stroke-dasharray="1,5" d="M778.3323,-179.8458C769.3211,-206.5775 753.9623,-256.0221 757.0607,-274.0659 759.6037,-288.8753 768.0541,-303.092 776.7364,-314.3835"/>
<polygon fill="#000000" stroke="#000000" points="774.2759,-316.9022 783.3271,-322.4093 779.6856,-312.4598 774.2759,-316.9022"/>
</g>
</g>
</svg>
