<?xml version="1.0" encoding="UTF-8" standalone="no"?>
<!DOCTYPE svg PUBLIC "-//W3C//DTD SVG 1.1//EN"
 "http://www.w3.org/Graphics/SVG/1.1/DTD/svg11.dtd">
<!-- Generated by graphviz version 8.0.1 (20230327.1645)
 -->
<!-- Title: G Pages: 1 -->
<svg width="1690pt" height="1098pt"
 viewBox="0.00 0.00 1690.00 1098.00" xmlns="http://www.w3.org/2000/svg" xmlns:xlink="http://www.w3.org/1999/xlink">
<g id="graph0" class="graph" transform="scale(1 1) rotate(0) translate(4 1094)">
<title>G</title>
<polygon fill="white" stroke="none" points="-4,4 -4,-1094 1686,-1094 1686,4 -4,4"/>
<g id="clust2" class="cluster">
<title>cluster_api.live.bilibili.com</title>
<polygon fill="none" stroke="black" points="634.87,-702.57 634.87,-901.57 868.87,-901.57 868.87,-702.57 634.87,-702.57"/>
<text text-anchor="middle" x="751.87" y="-886.37" font-family="Times,serif" font-size="14.00">api.live.bilibili.com</text>
</g>
<g id="clust1" class="cluster">
<title>cluster_api.bilibili.com</title>
<polygon fill="none" stroke="black" points="888.24,-697.42 888.24,-1090.42 1452.24,-1090.42 1452.24,-697.42 888.24,-697.42"/>
<text text-anchor="middle" x="1170.24" y="-1075.22" font-family="Times,serif" font-size="14.00">api.bilibili.com</text>
</g>
<g id="clust3" class="cluster">
<title>cluster_data</title>
<polygon fill="none" stroke="black" points="-0.33,-125.35 -0.33,-694.35 754.67,-694.35 754.67,-125.35 -0.33,-125.35"/>
<text text-anchor="middle" x="377.17" y="-679.15" font-family="Times,serif" font-size="14.00">data</text>
</g>
<g id="clust4" class="cluster">
<title>cluster_input</title>
<polygon fill="none" stroke="black" points="779.39,-285.45 779.39,-516.45 982.39,-516.45 982.39,-285.45 779.39,-285.45"/>
<text text-anchor="middle" x="880.89" y="-501.25" font-family="Times,serif" font-size="14.00">input</text>
</g>
<!-- stat -->
<g id="node1" class="node">
<title>stat</title>
<ellipse fill="none" stroke="black" cx="1206.14" cy="-889.72" rx="27" ry="18"/>
<text text-anchor="middle" x="1206.14" y="-886.02" font-family="Times,serif" font-size="14.00">stat</text>
</g>
<!-- follower -->
<g id="node17" class="node">
<title>follower</title>
<ellipse fill="none" stroke="black" cx="335.32" cy="-482.37" rx="40.09" ry="18"/>
<text text-anchor="middle" x="335.32" y="-478.67" font-family="Times,serif" font-size="14.00">follower</text>
</g>
<!-- stat&#45;&gt;follower -->
<g id="edge18" class="edge">
<title>stat&#45;&gt;follower</title>
<path fill="none" stroke="black" d="M1184.05,-878.77C1169.78,-871.7 1150.8,-862.31 1134,-854.04 931.93,-754.57 882.71,-727 678.94,-631.04 629.81,-607.9 615.57,-606.15 567.6,-580.7 542.87,-567.59 539.13,-559.93 513.94,-547.74 469.57,-526.26 416.22,-507.61 379.44,-495.79"/>
<polygon fill="black" stroke="black" points="380.65,-492.18 370.06,-492.49 378.53,-498.85 380.65,-492.18"/>
</g>
<!-- archiveStat -->
<g id="node2" class="node">
<title>archiveStat</title>
<ellipse fill="none" stroke="black" cx="1120.22" cy="-1041.32" rx="50.09" ry="18"/>
<text text-anchor="middle" x="1120.22" y="-1037.62" font-family="Times,serif" font-size="14.00">archiveStat</text>
</g>
<!-- bvid -->
<g id="node47" class="node">
<title>bvid</title>
<ellipse fill="none" stroke="black" cx="947.67" cy="-358.07" rx="27" ry="18"/>
<text text-anchor="middle" x="947.67" y="-354.37" font-family="Times,serif" font-size="14.00">bvid</text>
</g>
<!-- archiveStat&#45;&gt;bvid -->
<g id="edge52" class="edge">
<title>archiveStat&#45;&gt;bvid</title>
<path fill="none" stroke="black" d="M1111.7,-1023.11C1090.9,-978.64 1039.19,-868.09 1039.1,-867.84 981.1,-690.25 957.02,-465.12 950.01,-386.61"/>
<polygon fill="black" stroke="black" points="953.45,-386.77 949.09,-377.11 946.47,-387.38 953.45,-386.77"/>
</g>
<!-- upstat -->
<g id="node3" class="node">
<title>upstat</title>
<ellipse fill="none" stroke="black" cx="928.31" cy="-839.82" rx="31.7" ry="18"/>
<text text-anchor="middle" x="928.31" y="-836.12" font-family="Times,serif" font-size="14.00">upstat</text>
</g>
<!-- archiveView -->
<g id="node36" class="node">
<title>archiveView</title>
<ellipse fill="none" stroke="black" cx="166.11" cy="-210.92" rx="55.79" ry="18"/>
<text text-anchor="middle" x="166.11" y="-207.22" font-family="Times,serif" font-size="14.00">archiveView</text>
</g>
<!-- upstat&#45;&gt;archiveView -->
<g id="edge39" class="edge">
<title>upstat&#45;&gt;archiveView</title>
<path fill="none" stroke="black" d="M914,-823.6C873.62,-778.23 754.35,-647.25 641.84,-553.09 557.71,-482.68 527.98,-475.79 445.74,-403.19 439.24,-397.45 437.45,-396.07 432.06,-389.28 418.17,-371.77 419.38,-364.03 405.17,-346.77 399.47,-339.84 397.75,-338.19 390.5,-332.9 331.76,-290.06 256.21,-252.06 209.48,-230.27"/>
<polygon fill="black" stroke="black" points="211.23,-226.75 200.68,-225.74 208.29,-233.11 211.23,-226.75"/>
</g>
<!-- articleView -->
<g id="node37" class="node">
<title>articleView</title>
<ellipse fill="none" stroke="black" cx="100.64" cy="-283.75" rx="51.99" ry="18"/>
<text text-anchor="middle" x="100.64" y="-280.05" font-family="Times,serif" font-size="14.00">articleView</text>
</g>
<!-- upstat&#45;&gt;articleView -->
<g id="edge40" class="edge">
<title>upstat&#45;&gt;articleView</title>
<path fill="none" stroke="black" d="M912.64,-823.89C875.1,-786.38 775.88,-691.13 678.94,-631.04 632.78,-602.42 615.45,-606.38 567.6,-580.7 558.05,-575.58 411.15,-483.35 402.34,-477.04 312.2,-412.41 306.17,-372.64 208.87,-319.38 191.97,-310.13 172.27,-302.76 154.34,-297.18"/>
<polygon fill="black" stroke="black" points="155.61,-293.61 145.02,-294.1 153.6,-300.31 155.61,-293.61"/>
</g>
<!-- info -->
<g id="node4" class="node">
<title>info</title>
<ellipse fill="none" stroke="black" cx="938.08" cy="-923.07" rx="27" ry="18"/>
<text text-anchor="middle" x="938.08" y="-919.37" font-family="Times,serif" font-size="14.00">info</text>
</g>
<!-- uname -->
<g id="node18" class="node">
<title>uname</title>
<ellipse fill="none" stroke="black" cx="252.58" cy="-424.38" rx="34.39" ry="18"/>
<text text-anchor="middle" x="252.58" y="-420.68" font-family="Times,serif" font-size="14.00">uname</text>
</g>
<!-- info&#45;&gt;uname -->
<g id="edge19" class="edge">
<title>info&#45;&gt;uname</title>
<path fill="none" stroke="black" d="M918.26,-910.27C882.82,-887.33 806.3,-837.57 742.53,-794.4 612.61,-706.46 579.93,-682.93 465.66,-575.43 452.26,-562.81 450.43,-558.17 437.9,-544.69 406.04,-510.41 403.98,-494.67 365.12,-468.6 343.39,-454.02 316.15,-443.16 293.92,-435.85"/>
<polygon fill="black" stroke="black" points="295.04,-432.22 284.45,-432.55 292.93,-438.89 295.04,-432.22"/>
</g>
<!-- sign -->
<g id="node19" class="node">
<title>sign</title>
<ellipse fill="none" stroke="black" cx="243.7" cy="-277.13" rx="27" ry="18"/>
<text text-anchor="middle" x="243.7" y="-273.43" font-family="Times,serif" font-size="14.00">sign</text>
</g>
<!-- info&#45;&gt;sign -->
<g id="edge20" class="edge">
<title>info&#45;&gt;sign</title>
<path fill="none" stroke="black" d="M918.26,-910.27C882.82,-887.33 806.3,-837.57 742.53,-794.4 733.57,-788.33 730.51,-787.81 722.54,-780.49 652.2,-715.82 518.58,-514 448.09,-449.49 396.74,-402.49 373.26,-404.37 319.15,-360.56 297.63,-343.14 276.8,-319.42 262.5,-301.73"/>
<polygon fill="black" stroke="black" points="264.99,-300.23 256.03,-294.58 259.51,-304.58 264.99,-300.23"/>
</g>
<!-- coins -->
<g id="node20" class="node">
<title>coins</title>
<ellipse fill="none" stroke="black" cx="206.49" cy="-589.27" rx="29.5" ry="18"/>
<text text-anchor="middle" x="206.49" y="-585.57" font-family="Times,serif" font-size="14.00">coins</text>
</g>
<!-- info&#45;&gt;coins -->
<g id="edge21" class="edge">
<title>info&#45;&gt;coins</title>
<path fill="none" stroke="black" d="M918.74,-910.03C879.55,-883.96 787.48,-824.44 704.94,-784.04 617.88,-741.44 341.63,-638.9 242.41,-602.42"/>
<polygon fill="black" stroke="black" points="243.88,-598.87 233.29,-598.7 241.47,-605.44 243.88,-598.87"/>
</g>
<!-- liveRoom -->
<g id="node30" class="node">
<title>liveRoom</title>
<ellipse fill="none" stroke="black" cx="479.8" cy="-389.46" rx="46.29" ry="18"/>
<text text-anchor="middle" x="479.8" y="-385.76" font-family="Times,serif" font-size="14.00">liveRoom</text>
</g>
<!-- info&#45;&gt;liveRoom -->
<g id="edge31" class="edge">
<title>info&#45;&gt;liveRoom</title>
<path fill="none" stroke="black" d="M929.14,-905.67C910.87,-870.22 870.31,-792.02 862.22,-780.86 779.54,-666.82 748.55,-645.04 641.84,-553.09 612.18,-527.53 601.54,-524.84 573.41,-497.59 546.17,-471.21 518.12,-437.82 499.91,-415.17"/>
<polygon fill="black" stroke="black" points="502.18,-413.4 493.21,-407.76 496.71,-417.77 502.18,-413.4"/>
</g>
<!-- face -->
<g id="node38" class="node">
<title>face</title>
<ellipse fill="none" stroke="black" cx="196.46" cy="-473.72" rx="27" ry="18"/>
<text text-anchor="middle" x="196.46" y="-470.02" font-family="Times,serif" font-size="14.00">face</text>
</g>
<!-- info&#45;&gt;face -->
<g id="edge41" class="edge">
<title>info&#45;&gt;face</title>
<path fill="none" stroke="black" d="M918,-910.9C848.13,-868.56 609.07,-723.8 411.16,-605.07 376.44,-584.24 367.5,-579.45 332.9,-558.4 295.62,-535.72 252.91,-509.11 225.35,-491.86"/>
<polygon fill="black" stroke="black" points="227.61,-488.51 217.27,-486.17 223.89,-494.44 227.61,-488.51"/>
</g>
<!-- topPhoto -->
<g id="node39" class="node">
<title>topPhoto</title>
<ellipse fill="none" stroke="black" cx="504.69" cy="-261.75" rx="42.49" ry="18"/>
<text text-anchor="middle" x="504.69" y="-258.05" font-family="Times,serif" font-size="14.00">topPhoto</text>
</g>
<!-- info&#45;&gt;topPhoto -->
<g id="edge42" class="edge">
<title>info&#45;&gt;topPhoto</title>
<path fill="none" stroke="black" d="M929.04,-905.74C910.58,-870.42 869.67,-792.45 862.22,-780.86 768.27,-634.66 741.12,-599.31 624.87,-470.14 589.39,-430.72 565.26,-433.74 538.18,-388.15 520.11,-357.75 511.64,-317.55 507.76,-290.73"/>
<polygon fill="black" stroke="black" points="511.14,-290.58 506.37,-281.12 504.2,-291.5 511.14,-290.58"/>
</g>
<!-- view -->
<g id="node5" class="node">
<title>view</title>
<ellipse fill="none" stroke="black" cx="1092.43" cy="-723.43" rx="27.9" ry="18"/>
<text text-anchor="middle" x="1092.43" y="-719.73" font-family="Times,serif" font-size="14.00">view</text>
</g>
<!-- cids -->
<g id="node43" class="node">
<title>cids</title>
<ellipse fill="none" stroke="black" cx="361.68" cy="-191.81" rx="27" ry="18"/>
<text text-anchor="middle" x="361.68" y="-188.11" font-family="Times,serif" font-size="14.00">cids</text>
</g>
<!-- view&#45;&gt;cids -->
<g id="edge46" class="edge">
<title>view&#45;&gt;cids</title>
<path fill="none" stroke="black" d="M1076.62,-708.28C1015.99,-650.3 797.76,-443.09 719.46,-388.37 620.91,-319.51 577.16,-336.63 473.59,-275.57 441.99,-256.93 408.69,-231.1 386.71,-213.07"/>
<polygon fill="black" stroke="black" points="389.24,-209.79 379.31,-206.1 384.77,-215.18 389.24,-209.79"/>
</g>
<!-- mid -->
<g id="node45" class="node">
<title>mid</title>
<ellipse fill="none" stroke="black" cx="814.18" cy="-412.02" rx="27" ry="18"/>
<text text-anchor="middle" x="814.18" y="-408.32" font-family="Times,serif" font-size="14.00">mid</text>
</g>
<!-- view&#45;&gt;mid -->
<g id="edge49" class="edge">
<title>view&#45;&gt;mid</title>
<path fill="none" stroke="black" stroke-dasharray="5,2" d="M1081.46,-706.49C1051.91,-661.67 966.66,-537.63 875.32,-453.46 865.86,-444.74 854.43,-436.5 844.02,-429.69"/>
<polygon fill="black" stroke="black" points="846.16,-426.26 835.84,-423.87 842.41,-432.18 846.16,-426.26"/>
</g>
<!-- cid -->
<g id="node48" class="node">
<title>cid</title>
<ellipse fill="none" stroke="black" cx="922.45" cy="-432.95" rx="27" ry="18"/>
<text text-anchor="middle" x="922.45" y="-429.25" font-family="Times,serif" font-size="14.00">cid</text>
</g>
<!-- view&#45;&gt;cid -->
<g id="edge53" class="edge">
<title>view&#45;&gt;cid</title>
<path fill="none" stroke="black" d="M1082.56,-706.56C1054.16,-658.02 972.1,-517.8 937.8,-459.19"/>
<polygon fill="black" stroke="black" points="940.42,-457.73 932.35,-450.87 934.38,-461.27 940.42,-457.73"/>
</g>
<!-- list -->
<g id="node6" class="node">
<title>list</title>
<ellipse fill="none" stroke="black" cx="1145.06" cy="-938.42" rx="27" ry="18"/>
<text text-anchor="middle" x="1145.06" y="-934.72" font-family="Times,serif" font-size="14.00">list</text>
</g>
<!-- spaceSearch -->
<g id="node7" class="node">
<title>spaceSearch</title>
<ellipse fill="none" stroke="black" cx="1094.65" cy="-867.88" rx="53.89" ry="18"/>
<text text-anchor="middle" x="1094.65" y="-864.18" font-family="Times,serif" font-size="14.00">spaceSearch</text>
</g>
<!-- video -->
<g id="node21" class="node">
<title>video</title>
<ellipse fill="none" stroke="black" cx="425.22" cy="-463.26" rx="30.59" ry="18"/>
<text text-anchor="middle" x="425.22" y="-459.56" font-family="Times,serif" font-size="14.00">video</text>
</g>
<!-- spaceSearch&#45;&gt;video -->
<g id="edge22" class="edge">
<title>spaceSearch&#45;&gt;video</title>
<path fill="none" stroke="black" d="M1068.37,-851.76C1003.4,-812.17 829.55,-707.78 678.94,-631.04 630.55,-606.38 613.69,-609.42 567.6,-580.7 522.49,-552.6 476.07,-511.63 448.97,-486.25"/>
<polygon fill="black" stroke="black" points="451.88,-484.23 442.21,-479.9 447.07,-489.32 451.88,-484.23"/>
</g>
<!-- getSubmitVideosPage -->
<g id="node24" class="node">
<title>getSubmitVideosPage</title>
<ellipse fill="none" stroke="black" cx="628.82" cy="-388.26" rx="89.08" ry="18"/>
<text text-anchor="middle" x="628.82" y="-384.56" font-family="Times,serif" font-size="14.00">getSubmitVideosPage</text>
</g>
<!-- spaceSearch&#45;&gt;getSubmitVideosPage -->
<g id="edge25" class="edge">
<title>spaceSearch&#45;&gt;getSubmitVideosPage</title>
<path fill="none" stroke="black" d="M1077.79,-850.52C1007.56,-778.21 737.88,-500.55 653.92,-414.11"/>
<polygon fill="black" stroke="black" points="656.87,-412.09 647.39,-407.35 651.84,-416.96 656.87,-412.09"/>
</g>
<!-- getAllSubmitVideos -->
<g id="node8" class="node">
<title>getAllSubmitVideos</title>
<ellipse fill="none" stroke="black" cx="1283.21" cy="-963.42" rx="83.39" ry="18"/>
<text text-anchor="middle" x="1283.21" y="-959.72" font-family="Times,serif" font-size="14.00">getAllSubmitVideos</text>
</g>
<!-- allVideos -->
<g id="node26" class="node">
<title>allVideos</title>
<ellipse fill="none" stroke="black" cx="176.38" cy="-333.19" rx="44.39" ry="18"/>
<text text-anchor="middle" x="176.38" y="-329.49" font-family="Times,serif" font-size="14.00">allVideos</text>
</g>
<!-- getAllSubmitVideos&#45;&gt;allVideos -->
<g id="edge27" class="edge">
<title>getAllSubmitVideos&#45;&gt;allVideos</title>
<path fill="none" stroke="black" d="M1251.31,-946.31C1231.69,-935.19 1206.46,-919.79 1185.91,-903.57 1160.88,-883.82 1160.64,-871.57 1134,-854.04 1086.96,-823.1 729.89,-655.03 678.94,-631.04 629.81,-607.9 615.45,-606.38 567.6,-580.7 558.05,-575.58 411.51,-482.83 402.34,-477.04 333.67,-433.64 253.51,-382.49 209.51,-354.37"/>
<polygon fill="black" stroke="black" points="211.74,-351.01 201.42,-348.57 207.97,-356.9 211.74,-351.01"/>
</g>
<!-- getFollowers -->
<g id="node9" class="node">
<title>getFollowers</title>
<ellipse fill="none" stroke="black" cx="1081.88" cy="-789.76" rx="56.59" ry="18"/>
<text text-anchor="middle" x="1081.88" y="-786.06" font-family="Times,serif" font-size="14.00">getFollowers</text>
</g>
<!-- getFollowersPage -->
<g id="node27" class="node">
<title>getFollowersPage</title>
<ellipse fill="none" stroke="black" cx="673.46" cy="-293.23" rx="73.39" ry="18"/>
<text text-anchor="middle" x="673.46" y="-289.53" font-family="Times,serif" font-size="14.00">getFollowersPage</text>
</g>
<!-- getFollowers&#45;&gt;getFollowersPage -->
<g id="edge28" class="edge">
<title>getFollowers&#45;&gt;getFollowersPage</title>
<path fill="none" stroke="black" d="M1067.34,-772.09C1006.07,-697.6 768.64,-408.94 695.22,-319.68"/>
<polygon fill="black" stroke="black" points="697.3,-317.71 688.25,-312.21 691.9,-322.16 697.3,-317.71"/>
</g>
<!-- getAllFollowers -->
<g id="node10" class="node">
<title>getAllFollowers</title>
<ellipse fill="none" stroke="black" cx="1376.24" cy="-892.14" rx="67.69" ry="18"/>
<text text-anchor="middle" x="1376.24" y="-888.44" font-family="Times,serif" font-size="14.00">getAllFollowers</text>
</g>
<!-- allFollowers -->
<g id="node28" class="node">
<title>allFollowers</title>
<ellipse fill="none" stroke="black" cx="62.75" cy="-376.41" rx="54.69" ry="18"/>
<text text-anchor="middle" x="62.75" y="-372.71" font-family="Times,serif" font-size="14.00">allFollowers</text>
</g>
<!-- getAllFollowers&#45;&gt;allFollowers -->
<g id="edge29" class="edge">
<title>getAllFollowers&#45;&gt;allFollowers</title>
<path fill="none" stroke="black" d="M1342.42,-876.2C1207.86,-812.81 714.25,-580.72 641.84,-553.09 521.69,-507.26 489.53,-501.13 365.12,-468.6 304.32,-452.7 287.22,-456.26 227.03,-438.21 185.68,-425.81 139.79,-408.21 107.04,-394.96"/>
<polygon fill="black" stroke="black" points="108.48,-391.36 97.89,-390.82 105.83,-397.84 108.48,-391.36"/>
</g>
<!-- search -->
<g id="node11" class="node">
<title>search</title>
<ellipse fill="none" stroke="black" cx="1046.27" cy="-957.44" rx="33.29" ry="18"/>
<text text-anchor="middle" x="1046.27" y="-953.74" font-family="Times,serif" font-size="14.00">search</text>
</g>
<!-- search&#45;&gt;mid -->
<g id="edge50" class="edge">
<title>search&#45;&gt;mid</title>
<path fill="none" stroke="black" stroke-dasharray="5,2" d="M1036.71,-939.72C1003.23,-876.97 889.83,-658.85 826.36,-467.08 823.58,-458.68 821.24,-449.35 819.38,-440.79"/>
<polygon fill="black" stroke="black" points="822.64,-440.23 817.22,-431.12 815.78,-441.62 822.64,-440.23"/>
</g>
<!-- _notice -->
<g id="node12" class="node">
<title>_notice</title>
<ellipse fill="none" stroke="black" cx="1261.21" cy="-810.47" rx="36.29" ry="18"/>
<text text-anchor="middle" x="1261.21" y="-806.77" font-family="Times,serif" font-size="14.00">_notice</text>
</g>
<!-- notice -->
<g id="node35" class="node">
<title>notice</title>
<ellipse fill="none" stroke="black" cx="489.8" cy="-561.58" rx="32.49" ry="18"/>
<text text-anchor="middle" x="489.8" y="-557.88" font-family="Times,serif" font-size="14.00">notice</text>
</g>
<!-- _notice&#45;&gt;notice -->
<g id="edge38" class="edge">
<title>_notice&#45;&gt;notice</title>
<path fill="none" stroke="black" d="M1230.5,-800.56C1109.09,-761.39 662.75,-617.38 528.35,-574.02"/>
<polygon fill="black" stroke="black" points="529.72,-570.46 519.13,-570.72 527.57,-577.12 529.72,-570.46"/>
</g>
<!-- topList -->
<g id="node13" class="node">
<title>topList</title>
<ellipse fill="none" stroke="black" cx="678.5" cy="-797.88" rx="36" ry="18"/>
<text text-anchor="middle" x="678.5" y="-794.18" font-family="Times,serif" font-size="14.00">topList</text>
</g>
<!-- guardNum -->
<g id="node22" class="node">
<title>guardNum</title>
<ellipse fill="none" stroke="black" cx="354.83" cy="-346.73" rx="48.99" ry="18"/>
<text text-anchor="middle" x="354.83" y="-343.03" font-family="Times,serif" font-size="14.00">guardNum</text>
</g>
<!-- topList&#45;&gt;guardNum -->
<g id="edge23" class="edge">
<title>topList&#45;&gt;guardNum</title>
<path fill="none" stroke="black" d="M668.18,-780.16C637.39,-727.72 542.37,-569.54 448.09,-449.49 426.25,-421.68 398.79,-391.98 379.34,-371.7"/>
<polygon fill="black" stroke="black" points="382.26,-369.65 372.8,-364.88 377.22,-374.51 382.26,-369.65"/>
</g>
<!-- topListPage -->
<g id="node23" class="node">
<title>topListPage</title>
<ellipse fill="none" stroke="black" cx="473.67" cy="-151.2" rx="52.79" ry="18"/>
<text text-anchor="middle" x="473.67" y="-147.5" font-family="Times,serif" font-size="14.00">topListPage</text>
</g>
<!-- topList&#45;&gt;topListPage -->
<g id="edge24" class="edge">
<title>topList&#45;&gt;topListPage</title>
<path fill="none" stroke="black" d="M666.2,-780.62C640.42,-743.51 580.77,-652.51 552.42,-566.82 527.45,-491.32 548.39,-466.37 527.55,-389.63 521.07,-365.79 517.41,-360.34 506.36,-338.24 488.65,-302.84 469.11,-300.4 460.84,-261.69 454.98,-234.23 459.92,-202.31 465.27,-179.86"/>
<polygon fill="black" stroke="black" points="468.87,-180.92 467.98,-170.36 462.09,-179.17 468.87,-180.92"/>
</g>
<!-- fullTopList -->
<g id="node14" class="node">
<title>fullTopList</title>
<ellipse fill="none" stroke="black" cx="738.93" cy="-728.46" rx="50.89" ry="18"/>
<text text-anchor="middle" x="738.93" y="-724.76" font-family="Times,serif" font-size="14.00">fullTopList</text>
</g>
<!-- guards -->
<g id="node25" class="node">
<title>guards</title>
<ellipse fill="none" stroke="black" cx="599.14" cy="-483.87" rx="34.39" ry="18"/>
<text text-anchor="middle" x="599.14" y="-480.17" font-family="Times,serif" font-size="14.00">guards</text>
</g>
<!-- fullTopList&#45;&gt;guards -->
<g id="edge26" class="edge">
<title>fullTopList&#45;&gt;guards</title>
<path fill="none" stroke="black" d="M730.86,-710.58C716.98,-680.34 687.18,-617.43 657.01,-566.97 645.17,-547.17 630.26,-525.83 618.54,-509.73"/>
<polygon fill="black" stroke="black" points="620.8,-507.89 612.06,-501.91 615.16,-512.04 620.8,-507.89"/>
</g>
<!-- getInfoByRoom -->
<g id="node15" class="node">
<title>getInfoByRoom</title>
<ellipse fill="none" stroke="black" cx="792.38" cy="-780.67" rx="68.49" ry="18"/>
<text text-anchor="middle" x="792.38" y="-776.97" font-family="Times,serif" font-size="14.00">getInfoByRoom</text>
</g>
<!-- anchorScore -->
<g id="node40" class="node">
<title>anchorScore</title>
<ellipse fill="none" stroke="black" cx="353.82" cy="-238.53" rx="54.69" ry="18"/>
<text text-anchor="middle" x="353.82" y="-234.83" font-family="Times,serif" font-size="14.00">anchorScore</text>
</g>
<!-- getInfoByRoom&#45;&gt;anchorScore -->
<g id="edge43" class="edge">
<title>getInfoByRoom&#45;&gt;anchorScore</title>
<path fill="none" stroke="black" d="M750.39,-766.26C734.6,-759.98 716.87,-751.86 701.92,-742.31 694.19,-737.36 692.98,-735.07 686.63,-728.44 556.28,-592.31 528.51,-551.21 432.06,-389.28 407.11,-347.4 381.76,-296.75 366.93,-266.11"/>
<polygon fill="black" stroke="black" points="369.81,-265.02 362.32,-257.53 363.5,-268.06 369.81,-265.02"/>
</g>
<!-- fansclub -->
<g id="node41" class="node">
<title>fansclub</title>
<ellipse fill="none" stroke="black" cx="105.78" cy="-442.81" rx="40.09" ry="18"/>
<text text-anchor="middle" x="105.78" y="-439.11" font-family="Times,serif" font-size="14.00">fansclub</text>
</g>
<!-- getInfoByRoom&#45;&gt;fansclub -->
<g id="edge44" class="edge">
<title>getInfoByRoom&#45;&gt;fansclub</title>
<path fill="none" stroke="black" d="M754.79,-765.22C738.46,-758.39 719.17,-750.13 701.92,-742.31 642.81,-715.46 232.79,-519.09 176.08,-487.47 163.13,-480.25 149.27,-471.64 137.31,-463.92"/>
<polygon fill="black" stroke="black" points="139.46,-460.5 129.17,-457.97 135.64,-466.36 139.46,-460.5"/>
</g>
<!-- liveStartTime -->
<g id="node44" class="node">
<title>liveStartTime</title>
<ellipse fill="none" stroke="black" cx="376.5" cy="-544.6" rx="59.59" ry="18"/>
<text text-anchor="middle" x="376.5" y="-540.9" font-family="Times,serif" font-size="14.00">liveStartTime</text>
</g>
<!-- getInfoByRoom&#45;&gt;liveStartTime -->
<g id="edge47" class="edge">
<title>getInfoByRoom&#45;&gt;liveStartTime</title>
<path fill="none" stroke="black" d="M753.53,-765.64C737.33,-759 718.47,-750.79 701.92,-742.31 591.58,-685.76 468.25,-605.95 410.19,-567.32"/>
<polygon fill="black" stroke="black" points="412.37,-563.9 402.11,-561.26 408.48,-569.72 412.37,-563.9"/>
</g>
<!-- getInfoByRoom&#45;&gt;mid -->
<g id="edge48" class="edge">
<title>getInfoByRoom&#45;&gt;mid</title>
<path fill="none" stroke="black" stroke-dasharray="5,2" d="M793.46,-762.39C796.99,-702.81 808.15,-513.92 812.46,-441.07"/>
<polygon fill="black" stroke="black" points="815.99,-441.6 813.09,-431.41 809.01,-441.18 815.99,-441.6"/>
</g>
<!-- rankdb -->
<g id="node16" class="node">
<title>rankdb</title>
<ellipse fill="none" stroke="black" cx="764.26" cy="-852.38" rx="35.19" ry="18"/>
<text text-anchor="middle" x="764.26" y="-848.68" font-family="Times,serif" font-size="14.00">rankdb</text>
</g>
<!-- areaRank -->
<g id="node42" class="node">
<title>areaRank</title>
<ellipse fill="none" stroke="black" cx="460.56" cy="-338.15" rx="44.39" ry="18"/>
<text text-anchor="middle" x="460.56" y="-334.45" font-family="Times,serif" font-size="14.00">areaRank</text>
</g>
<!-- rankdb&#45;&gt;areaRank -->
<g id="edge45" class="edge">
<title>rankdb&#45;&gt;areaRank</title>
<path fill="none" stroke="black" d="M750.14,-835.71C706.84,-784.21 577.29,-627.51 552.42,-566.82 522.27,-493.24 562.73,-460.95 527.55,-389.63 521.2,-376.76 509.92,-366.21 498.4,-358.08"/>
<polygon fill="black" stroke="black" points="500.5,-354.62 490.21,-352.09 496.67,-360.48 500.5,-354.62"/>
</g>
<!-- uname&#45;&gt;search -->
<g id="edge16" class="edge">
<title>uname&#45;&gt;search</title>
<path fill="none" stroke="black" d="M283.45,-432.55C307.09,-439.7 339.84,-451.64 365.12,-468.6 403.98,-494.67 406.04,-510.41 437.9,-544.69 450.43,-558.17 452.26,-562.81 465.66,-575.43 579.93,-682.93 608.66,-712.59 742.53,-794.4 835.25,-851.07 862.76,-857.62 958.37,-909.26 976.68,-919.15 997.05,-930.3 1013.57,-939.39"/>
<polygon fill="black" stroke="black" points="1011.36,-942.72 1021.81,-944.48 1014.74,-936.59 1011.36,-942.72"/>
</g>
<!-- topListPage&#45;&gt;fullTopList -->
<g id="edge61" class="edge">
<title>topListPage&#45;&gt;fullTopList</title>
<path fill="none" stroke="black" d="M467.91,-169.38C461.76,-191.43 453.79,-229.63 460.84,-261.69 461.73,-265.71 535.58,-384.95 538.18,-388.15 576.35,-435.25 605.07,-431.43 635.19,-484.05 677.69,-558.31 713.1,-653.37 729.35,-700.03"/>
<polygon fill="black" stroke="black" points="726.32,-700.97 732.89,-709.28 732.94,-698.69 726.32,-700.97"/>
</g>
<!-- getSubmitVideosPage&#45;&gt;getAllSubmitVideos -->
<g id="edge9" class="edge">
<title>getSubmitVideosPage&#45;&gt;getAllSubmitVideos</title>
<path fill="none" stroke="black" d="M650.77,-405.89C715.02,-457.42 908.44,-612.06 1071.42,-737.21 1101.91,-760.63 1111.59,-764.03 1140.02,-789.91 1180.07,-826.36 1192.25,-833.82 1226.38,-875.87 1241.79,-894.86 1256.76,-918.17 1267.46,-935.96"/>
<polygon fill="black" stroke="black" points="1264.83,-937.4 1272.94,-944.22 1270.85,-933.83 1264.83,-937.4"/>
</g>
<!-- guardLevel -->
<g id="node29" class="node">
<title>guardLevel</title>
<ellipse fill="none" stroke="black" cx="604.72" cy="-566.9" rx="50.89" ry="18"/>
<text text-anchor="middle" x="604.72" y="-563.2" font-family="Times,serif" font-size="14.00">guardLevel</text>
</g>
<!-- guards&#45;&gt;guardLevel -->
<g id="edge30" class="edge">
<title>guards&#45;&gt;guardLevel</title>
<path fill="none" stroke="black" d="M600.38,-502.29C601.08,-512.72 601.97,-526 602.76,-537.8"/>
<polygon fill="black" stroke="black" points="599.32,-537.78 603.48,-547.52 606.31,-537.31 599.32,-537.78"/>
</g>
<!-- getFollowersPage&#45;&gt;getAllFollowers -->
<g id="edge14" class="edge">
<title>getFollowersPage&#45;&gt;getAllFollowers</title>
<path fill="none" stroke="black" d="M702.22,-310.26C735.11,-330.12 790.13,-364.54 834.53,-398.25 1048.3,-560.49 1096.19,-609.24 1288.23,-796.69 1311.42,-819.32 1336.31,-846.63 1353.69,-866.23"/>
<polygon fill="black" stroke="black" points="1350.64,-868.19 1359.88,-873.38 1355.89,-863.56 1350.64,-868.19"/>
</g>
<!-- roomStatus -->
<g id="node31" class="node">
<title>roomStatus</title>
<ellipse fill="none" stroke="black" cx="630.72" cy="-176.9" rx="51.19" ry="18"/>
<text text-anchor="middle" x="630.72" y="-173.2" font-family="Times,serif" font-size="14.00">roomStatus</text>
</g>
<!-- liveRoom&#45;&gt;roomStatus -->
<g id="edge32" class="edge">
<title>liveRoom&#45;&gt;roomStatus</title>
<path fill="none" stroke="black" d="M492.41,-371.7C518.93,-334.35 580.61,-247.47 611.86,-203.46"/>
<polygon fill="black" stroke="black" points="615.11,-205.93 618.04,-195.75 609.4,-201.88 615.11,-205.93"/>
</g>
<!-- roundStatus -->
<g id="node32" class="node">
<title>roundStatus</title>
<ellipse fill="none" stroke="black" cx="372.72" cy="-618.9" rx="52.79" ry="18"/>
<text text-anchor="middle" x="372.72" y="-615.2" font-family="Times,serif" font-size="14.00">roundStatus</text>
</g>
<!-- liveRoom&#45;&gt;roundStatus -->
<g id="edge34" class="edge">
<title>liveRoom&#45;&gt;roundStatus</title>
<path fill="none" stroke="black" d="M477.62,-407.67C473.44,-437.72 462.43,-498.93 437.9,-544.69 428.01,-563.13 412.73,-580.86 399.46,-594.36"/>
<polygon fill="black" stroke="black" points="397.59,-591.27 392.93,-600.79 402.5,-596.26 397.59,-591.27"/>
</g>
<!-- liveStatus -->
<g id="node33" class="node">
<title>liveStatus</title>
<ellipse fill="none" stroke="black" cx="182.72" cy="-150.9" rx="45.49" ry="18"/>
<text text-anchor="middle" x="182.72" y="-147.2" font-family="Times,serif" font-size="14.00">liveStatus</text>
</g>
<!-- liveRoom&#45;&gt;liveStatus -->
<g id="edge36" class="edge">
<title>liveRoom&#45;&gt;liveStatus</title>
<path fill="none" stroke="black" d="M457.16,-373.49C448.02,-366.93 437.43,-359.19 428.02,-351.94 347.48,-289.84 255.48,-212.71 210.47,-174.55"/>
<polygon fill="black" stroke="black" points="213,-171.26 203.11,-167.46 208.47,-176.6 213,-171.26"/>
</g>
<!-- title -->
<g id="node34" class="node">
<title>title</title>
<ellipse fill="none" stroke="black" cx="658.72" cy="-644.9" rx="27" ry="18"/>
<text text-anchor="middle" x="658.72" y="-641.2" font-family="Times,serif" font-size="14.00">title</text>
</g>
<!-- liveRoom&#45;&gt;title -->
<g id="edge37" class="edge">
<title>liveRoom&#45;&gt;title</title>
<path fill="none" stroke="black" d="M484.37,-407.61C493.41,-441.24 515.96,-514.56 552.42,-566.82 571.54,-594.22 603.39,-615.75 627.25,-629.2"/>
<polygon fill="black" stroke="black" points="625.15,-632.58 635.61,-634.29 628.5,-626.43 625.15,-632.58"/>
</g>
<!-- roomid -->
<g id="node49" class="node">
<title>roomid</title>
<ellipse fill="none" stroke="black" cx="831.4" cy="-311.92" rx="36.29" ry="18"/>
<text text-anchor="middle" x="831.4" y="-308.22" font-family="Times,serif" font-size="14.00">roomid</text>
</g>
<!-- liveRoom&#45;&gt;roomid -->
<g id="edge55" class="edge">
<title>liveRoom&#45;&gt;roomid</title>
<path fill="none" stroke="black" d="M520.48,-380.49C587.05,-365.8 718.73,-336.76 787.4,-321.62"/>
<polygon fill="black" stroke="black" points="787.85,-324.89 796.86,-319.31 786.34,-318.05 787.85,-324.89"/>
</g>
<!-- roomStatus&#45;&gt;roundStatus -->
<g id="edge33" class="edge">
<title>roomStatus&#45;&gt;roundStatus</title>
<path fill="none" stroke="black" d="M623.32,-195.14C600.42,-250.58 526.8,-420.8 437.9,-544.69 425.53,-561.92 409.89,-579.83 397.04,-593.74"/>
<polygon fill="black" stroke="black" points="395.11,-590.74 390.83,-600.43 400.22,-595.52 395.11,-590.74"/>
</g>
<!-- roomStatus&#45;&gt;liveStatus -->
<g id="edge35" class="edge">
<title>roomStatus&#45;&gt;liveStatus</title>
<path fill="none" stroke="black" d="M579.42,-175.29C548.73,-174.23 508.95,-172.69 473.66,-170.8 391.73,-166.41 296.94,-159.6 238.41,-155.2"/>
<polygon fill="black" stroke="black" points="238.79,-151.64 228.55,-154.38 238.26,-158.62 238.79,-151.64"/>
</g>
<!-- mid&#45;&gt;stat -->
<g id="edge1" class="edge">
<title>mid&#45;&gt;stat</title>
<path fill="none" stroke="black" d="M835.43,-423.72C847.9,-431.22 863.48,-441.73 875.32,-453.46 984.21,-561.37 965.07,-626.81 1071.42,-737.21 1098.09,-764.9 1114.35,-761.29 1140.02,-789.91 1160.39,-812.62 1179.14,-842.09 1191.43,-863.11"/>
<polygon fill="black" stroke="black" points="1188.75,-864.47 1196.76,-871.4 1194.82,-860.99 1188.75,-864.47"/>
</g>
<!-- mid&#45;&gt;upstat -->
<g id="edge3" class="edge">
<title>mid&#45;&gt;upstat</title>
<path fill="none" stroke="black" d="M817.91,-429.92C820.21,-440.72 823.3,-454.73 826.36,-467.08 858.33,-596.41 902.04,-749.38 920.05,-811.49"/>
<polygon fill="black" stroke="black" points="916.85,-812.05 923,-820.68 923.58,-810.1 916.85,-812.05"/>
</g>
<!-- mid&#45;&gt;info -->
<g id="edge4" class="edge">
<title>mid&#45;&gt;info</title>
<path fill="none" stroke="black" d="M815.72,-430.43C821.18,-490.67 842.12,-686.82 894.86,-839.66 901.78,-859.7 912.82,-880.9 922.01,-896.92"/>
<polygon fill="black" stroke="black" points="919.35,-898.31 927.44,-905.16 925.39,-894.76 919.35,-898.31"/>
</g>
<!-- mid&#45;&gt;spaceSearch -->
<g id="edge7" class="edge">
<title>mid&#45;&gt;spaceSearch</title>
<path fill="none" stroke="black" d="M816.73,-430.3C818.61,-441.23 821.68,-455.25 826.36,-467.08 829,-473.76 830.89,-474.83 834.59,-480.98 917.63,-618.78 927.27,-660.86 1023.73,-789.61 1037.83,-808.43 1055.6,-828.04 1069.83,-842.92"/>
<polygon fill="black" stroke="black" points="1066.85,-844.91 1076.32,-849.67 1071.88,-840.04 1066.85,-844.91"/>
</g>
<!-- mid&#45;&gt;getAllSubmitVideos -->
<g id="edge10" class="edge">
<title>mid&#45;&gt;getAllSubmitVideos</title>
<path fill="none" stroke="black" d="M834.55,-424.19C846.86,-431.93 862.57,-442.52 875.32,-453.46 1060.63,-612.36 1091.32,-672.53 1226.38,-875.87 1239.74,-895.99 1254.6,-918.9 1265.77,-936.23"/>
<polygon fill="black" stroke="black" points="1263.21,-937.72 1271.57,-944.24 1269.1,-933.93 1263.21,-937.72"/>
</g>
<!-- mid&#45;&gt;getFollowers -->
<g id="edge11" class="edge">
<title>mid&#45;&gt;getFollowers</title>
<path fill="none" stroke="black" d="M816.73,-430.3C818.61,-441.23 821.68,-455.25 826.36,-467.08 829,-473.76 830.51,-475.08 834.59,-480.98 910.64,-590.94 1014.02,-712.21 1059.19,-764.01"/>
<polygon fill="black" stroke="black" points="1056.96,-765.78 1066.18,-771.01 1062.23,-761.17 1056.96,-765.78"/>
</g>
<!-- mid&#45;&gt;getAllFollowers -->
<g id="edge13" class="edge">
<title>mid&#45;&gt;getAllFollowers</title>
<path fill="none" stroke="black" d="M833.79,-424.61C845.96,-432.59 861.79,-443.29 875.32,-453.46 1066.08,-596.85 1115.21,-632.34 1288.23,-796.69 1311.72,-819 1336.58,-846.35 1353.86,-866.04"/>
<polygon fill="black" stroke="black" points="1351.8,-868 1361.01,-873.24 1357.08,-863.4 1351.8,-868"/>
</g>
<!-- mid&#45;&gt;_notice -->
<g id="edge17" class="edge">
<title>mid&#45;&gt;_notice</title>
<path fill="none" stroke="black" d="M834.27,-424.54C846.46,-432.41 862.17,-443.01 875.32,-453.46 1020.73,-568.92 1178.72,-726.32 1237.47,-786.1"/>
<polygon fill="black" stroke="black" points="1234.59,-788.18 1244.09,-792.87 1239.59,-783.28 1234.59,-788.18"/>
</g>
<!-- mid&#45;&gt;topList -->
<g id="edge57" class="edge">
<title>mid&#45;&gt;topList</title>
<path fill="none" stroke="black" d="M805.28,-429.3C781.63,-476.08 716.95,-609.64 686.63,-728.44 683.3,-741.5 681.33,-756.29 680.16,-768.86"/>
<polygon fill="black" stroke="black" points="676.61,-768.41 679.3,-778.66 683.59,-768.97 676.61,-768.41"/>
</g>
<!-- mid&#45;&gt;fullTopList -->
<g id="edge60" class="edge">
<title>mid&#45;&gt;fullTopList</title>
<path fill="none" stroke="black" d="M809.92,-429.94C797.45,-482.35 760.98,-635.73 745.74,-699.8"/>
<polygon fill="black" stroke="black" points="742.14,-698.8 743.23,-709.34 748.95,-700.42 742.14,-698.8"/>
</g>
<!-- mid&#45;&gt;rankdb -->
<g id="edge63" class="edge">
<title>mid&#45;&gt;rankdb</title>
<path fill="none" stroke="black" d="M817.36,-430.36C825.23,-480.95 841.5,-625.52 791.22,-728.47 774.42,-762.88 730.6,-743.05 722.54,-780.49 718.81,-797.85 728.3,-815.13 739.17,-828.4"/>
<polygon fill="black" stroke="black" points="736.12,-830.36 745.38,-835.5 741.35,-825.7 736.12,-830.36"/>
</g>
<!-- dynamicsRaw -->
<g id="node53" class="node">
<title>dynamicsRaw</title>
<ellipse fill="none" stroke="black" cx="1139.62" cy="-217.61" rx="61.19" ry="18"/>
<text text-anchor="middle" x="1139.62" y="-213.91" font-family="Times,serif" font-size="14.00">dynamicsRaw</text>
</g>
<!-- mid&#45;&gt;dynamicsRaw -->
<g id="edge64" class="edge">
<title>mid&#45;&gt;dynamicsRaw</title>
<path fill="none" stroke="black" d="M834.66,-399.74C857.37,-386.13 895.1,-363.53 927.6,-344.1 989.04,-307.38 1060.54,-264.74 1102.84,-239.53"/>
<polygon fill="black" stroke="black" points="1104.37,-242.09 1111.17,-233.97 1100.79,-236.08 1104.37,-242.09"/>
</g>
<!-- aid -->
<g id="node46" class="node">
<title>aid</title>
<ellipse fill="none" stroke="black" cx="854.96" cy="-467.22" rx="27" ry="18"/>
<text text-anchor="middle" x="854.96" y="-463.52" font-family="Times,serif" font-size="14.00">aid</text>
</g>
<!-- aid&#45;&gt;archiveStat -->
<g id="edge2" class="edge">
<title>aid&#45;&gt;archiveStat</title>
<path fill="none" stroke="black" d="M862.99,-484.81C888.59,-540.81 970.52,-719.92 1039.1,-867.84 1042.41,-874.97 1085.13,-966.31 1107.2,-1013.5"/>
<polygon fill="black" stroke="black" points="1104.42,-1014.81 1111.83,-1022.39 1110.76,-1011.85 1104.42,-1014.81"/>
</g>
<!-- aid&#45;&gt;aid -->
<g id="edge51" class="edge">
<title>aid&#45;&gt;aid</title>
<path fill="none" stroke="black" d="M880.4,-473.91C890.99,-474.37 899.96,-472.14 899.96,-467.22 899.96,-464.15 896.45,-462.12 891.24,-461.15"/>
<polygon fill="black" stroke="black" points="891.58,-457.6 881.4,-460.53 891.19,-464.59 891.58,-457.6"/>
</g>
<!-- bvid&#45;&gt;view -->
<g id="edge5" class="edge">
<title>bvid&#45;&gt;view</title>
<path fill="none" stroke="black" d="M954.75,-375.94C978.13,-434.94 1052.98,-623.87 1081.37,-695.52"/>
<polygon fill="black" stroke="black" points="1078.43,-696.59 1085.36,-704.59 1084.93,-694.01 1078.43,-696.59"/>
</g>
<!-- cid&#45;&gt;list -->
<g id="edge6" class="edge">
<title>cid&#45;&gt;list</title>
<path fill="none" stroke="black" d="M936.58,-448.63C973.23,-490.18 1071.93,-607.83 1121.98,-723.54 1134.11,-751.6 1134.02,-759.94 1140.02,-789.91 1146.88,-824.19 1149.2,-832.97 1150.19,-867.91 1150.58,-881.53 1149.67,-896.6 1148.51,-909.3"/>
<polygon fill="black" stroke="black" points="1144.93,-908.88 1147.4,-919.19 1151.9,-909.59 1144.93,-908.88"/>
</g>
<!-- roomid&#45;&gt;topList -->
<g id="edge56" class="edge">
<title>roomid&#45;&gt;topList</title>
<path fill="none" stroke="black" d="M822.42,-329.68C812.64,-349.45 796.86,-382.47 785.58,-411.89 732.78,-549.51 717.33,-584.27 686.63,-728.44 683.84,-741.53 681.95,-756.23 680.69,-768.72"/>
<polygon fill="black" stroke="black" points="677.14,-768.18 679.72,-778.46 684.11,-768.82 677.14,-768.18"/>
</g>
<!-- roomid&#45;&gt;fullTopList -->
<g id="edge59" class="edge">
<title>roomid&#45;&gt;fullTopList</title>
<path fill="none" stroke="black" d="M821.54,-329.38C810.97,-348.88 794.53,-381.68 785.58,-411.89 755.08,-514.82 744.04,-642.75 740.46,-699.28"/>
<polygon fill="black" stroke="black" points="736.91,-699.03 739.81,-709.22 743.9,-699.45 736.91,-699.03"/>
</g>
<!-- roomid&#45;&gt;getInfoByRoom -->
<g id="edge62" class="edge">
<title>roomid&#45;&gt;getInfoByRoom</title>
<path fill="none" stroke="black" d="M835.66,-330C839.87,-350.05 845.34,-383.36 842.78,-412.14 840.52,-437.53 831.4,-442.1 826.36,-467.08 805.47,-570.57 796.77,-696.03 793.75,-751.68"/>
<polygon fill="black" stroke="black" points="790.22,-751.3 793.19,-761.47 797.21,-751.66 790.22,-751.3"/>
</g>
<!-- page -->
<g id="node50" class="node">
<title>page</title>
<ellipse fill="none" stroke="black" cx="757.1" cy="-1057.21" rx="27.1" ry="18"/>
<text text-anchor="middle" x="757.1" y="-1053.51" font-family="Times,serif" font-size="14.00">page</text>
</g>
<!-- page&#45;&gt;spaceSearch -->
<g id="edge8" class="edge">
<title>page&#45;&gt;spaceSearch</title>
<path fill="none" stroke="black" stroke-dasharray="1,5" d="M778.22,-1045.36C834.05,-1014.05 986.12,-928.75 1057.16,-888.91"/>
<polygon fill="black" stroke="black" points="1058.61,-891.54 1065.62,-883.6 1055.19,-885.44 1058.61,-891.54"/>
</g>
<!-- page&#45;&gt;getFollowers -->
<g id="edge12" class="edge">
<title>page&#45;&gt;getFollowers</title>
<path fill="none" stroke="black" stroke-dasharray="1,5" d="M772.54,-1041.88C800.59,-1014.29 862.17,-954.88 917.93,-909.17 961.48,-873.45 1014.62,-835.75 1048.36,-812.49"/>
<polygon fill="black" stroke="black" points="1050.07,-814.87 1056.33,-806.32 1046.11,-809.1 1050.07,-814.87"/>
</g>
<!-- page&#45;&gt;topList -->
<g id="edge58" class="edge">
<title>page&#45;&gt;topList</title>
<path fill="none" stroke="black" stroke-dasharray="1,5" d="M751.7,-1039.38C738.29,-995.15 703.41,-880.08 687.12,-826.33"/>
<polygon fill="black" stroke="black" points="690.19,-825.39 683.94,-816.83 683.49,-827.42 690.19,-825.39"/>
</g>
<!-- SESSDATA -->
<g id="node51" class="node">
<title>SESSDATA</title>
<ellipse fill="none" stroke="black" cx="1627.72" cy="-986.39" rx="53.89" ry="18"/>
<text text-anchor="middle" x="1627.72" y="-982.69" font-family="Times,serif" font-size="14.00">SESSDATA</text>
</g>
<!-- SESSDATA&#45;&gt;getAllFollowers -->
<g id="edge15" class="edge">
<title>SESSDATA&#45;&gt;getAllFollowers</title>
<path fill="none" stroke="black" stroke-dasharray="1,5" d="M1591.42,-972.78C1547.87,-956.46 1474.62,-929.01 1425.86,-910.74"/>
<polygon fill="black" stroke="black" points="1427.44,-907.22 1416.85,-906.98 1424.98,-913.77 1427.44,-907.22"/>
</g>
<!-- p -->
<g id="node52" class="node">
<title>p</title>
<ellipse fill="none" stroke="black" cx="795.56" cy="-156.03" rx="27" ry="18"/>
<text text-anchor="middle" x="795.56" y="-152.33" font-family="Times,serif" font-size="14.00">p</text>
</g>
<!-- p&#45;&gt;cid -->
<g id="edge54" class="edge">
<title>p&#45;&gt;cid</title>
<path fill="none" stroke="black" stroke-dasharray="1,5" d="M803.92,-173.26C817.78,-201.93 846.28,-261.28 869.39,-311.98 883.9,-343.79 899.94,-380.61 910.55,-405.2"/>
<polygon fill="black" stroke="black" points="907.71,-406.45 914.88,-414.25 914.14,-403.68 907.71,-406.45"/>
</g>
<!-- dynamics -->
<g id="node55" class="node">
<title>dynamics</title>
<ellipse fill="none" stroke="black" cx="1331.63" cy="-207.3" rx="44.69" ry="18"/>
<text text-anchor="middle" x="1331.63" y="-203.6" font-family="Times,serif" font-size="14.00">dynamics</text>
</g>
<!-- dynamicsRaw&#45;&gt;dynamics -->
<g id="edge66" class="edge">
<title>dynamicsRaw&#45;&gt;dynamics</title>
<path fill="none" stroke="black" d="M1200.11,-214.36C1224.4,-213.06 1252.23,-211.56 1276.01,-210.29"/>
<polygon fill="black" stroke="black" points="1276.18,-213.73 1285.98,-209.7 1275.8,-206.74 1276.18,-213.73"/>
</g>
<!-- dynamicOffset -->
<g id="node54" class="node">
<title>dynamicOffset</title>
<ellipse fill="none" stroke="black" cx="1210.73" cy="-17.72" rx="63.89" ry="18"/>
<text text-anchor="middle" x="1210.73" y="-14.02" font-family="Times,serif" font-size="14.00">dynamicOffset</text>
</g>
<!-- dynamicOffset&#45;&gt;dynamicsRaw -->
<g id="edge65" class="edge">
<title>dynamicOffset&#45;&gt;dynamicsRaw</title>
<path fill="none" stroke="black" d="M1204.3,-35.81C1191.9,-70.66 1164.62,-147.33 1149.76,-189.1"/>
<polygon fill="black" stroke="black" points="1146.15,-187.82 1146.1,-198.41 1152.74,-190.17 1146.15,-187.82"/>
</g>
</g>
</svg>
