<?xml version="1.0" encoding="UTF-8" standalone="no"?>
<!DOCTYPE svg PUBLIC "-//W3C//DTD SVG 1.1//EN"
 "http://www.w3.org/Graphics/SVG/1.1/DTD/svg11.dtd">
<!-- Generated by graphviz version 2.40.1 (20161225.0304)
 -->
<!-- Title: G Pages: 1 -->
<svg width="1318pt" height="1632pt"
 viewBox="0.00 0.00 1318.00 1632.00" xmlns="http://www.w3.org/2000/svg" xmlns:xlink="http://www.w3.org/1999/xlink">
<g id="graph0" class="graph" transform="scale(1 1) rotate(0) translate(4 1628)">
<title>G</title>
<polygon fill="#ffffff" stroke="transparent" points="-4,4 -4,-1628 1314,-1628 1314,4 -4,4"/>
<g id="clust1" class="cluster">
<title>cluster_api.bilibili.com</title>
<polygon fill="none" stroke="#000000" points="612.9338,-872.6272 612.9338,-1293.6272 1137.9338,-1293.6272 1137.9338,-872.6272 612.9338,-872.6272"/>
<text text-anchor="middle" x="875.4338" y="-1278.4272" font-family="Times,serif" font-size="14.00" fill="#000000">api.bilibili.com</text>
</g>
<g id="clust2" class="cluster">
<title>cluster_api.live.bilibili.com</title>
<polygon fill="none" stroke="#000000" points="751.8022,-602.0209 751.8022,-838.0209 1082.8022,-838.0209 1082.8022,-602.0209 751.8022,-602.0209"/>
<text text-anchor="middle" x="917.3022" y="-822.8209" font-family="Times,serif" font-size="14.00" fill="#000000">api.live.bilibili.com</text>
</g>
<g id="clust3" class="cluster">
<title>cluster_data</title>
<polygon fill="none" stroke="#000000" points="438.7173,.325 438.7173,-567.675 1200.7173,-567.675 1200.7173,.325 438.7173,.325"/>
<text text-anchor="middle" x="819.7173" y="-552.475" font-family="Times,serif" font-size="14.00" fill="#000000">data</text>
</g>
<g id="clust4" class="cluster">
<title>cluster_input</title>
<polygon fill="none" stroke="#000000" points="228.4488,-588.5205 228.4488,-798.5205 465.4488,-798.5205 465.4488,-588.5205 228.4488,-588.5205"/>
<text text-anchor="middle" x="346.9488" y="-783.3205" font-family="Times,serif" font-size="14.00" fill="#000000">input</text>
</g>
<!-- stat -->
<g id="node1" class="node">
<title>stat</title>
<ellipse fill="none" stroke="#000000" cx="1037.1668" cy="-1039.0221" rx="27" ry="18"/>
<text text-anchor="middle" x="1037.1668" y="-1034.8221" font-family="Times,serif" font-size="14.00" fill="#000000">stat</text>
</g>
<!-- follower -->
<g id="node18" class="node">
<title>follower</title>
<ellipse fill="none" stroke="#000000" cx="847.8297" cy="-455.8085" rx="40.1317" ry="18"/>
<text text-anchor="middle" x="847.8297" y="-451.6085" font-family="Times,serif" font-size="14.00" fill="#000000">follower</text>
</g>
<!-- stat&#45;&gt;follower -->
<g id="edge18" class="edge">
<title>stat&#45;&gt;follower</title>
<path fill="none" stroke="#000000" d="M1030.1904,-1021.4933C1019.3957,-994.6784 997.7024,-941.9934 976.7976,-898.3877 950.3527,-843.2261 923.5613,-836.9605 912.1912,-776.8535 905.8321,-743.2361 924.008,-734.4599 921.0008,-700.3788 913.7939,-618.7012 878.7881,-527.345 859.9272,-482.9576"/>
<polygon fill="#000000" stroke="#000000" points="863.1166,-481.5147 855.9439,-473.717 856.6884,-484.2857 863.1166,-481.5147"/>
</g>
<!-- upstat -->
<g id="node2" class="node">
<title>upstat</title>
<ellipse fill="none" stroke="#000000" cx="727.9948" cy="-1037.1172" rx="31.4636" ry="18"/>
<text text-anchor="middle" x="727.9948" y="-1032.9172" font-family="Times,serif" font-size="14.00" fill="#000000">upstat</text>
</g>
<!-- archiveView -->
<g id="node37" class="node">
<title>archiveView</title>
<ellipse fill="none" stroke="#000000" cx="811.2852" cy="-401.7201" rx="54.513" ry="18"/>
<text text-anchor="middle" x="811.2852" y="-397.5201" font-family="Times,serif" font-size="14.00" fill="#000000">archiveView</text>
</g>
<!-- upstat&#45;&gt;archiveView -->
<g id="edge40" class="edge">
<title>upstat&#45;&gt;archiveView</title>
<path fill="none" stroke="#000000" d="M728.4042,-1019.0516C730.1886,-952.1778 738.9718,-712.5765 776.3313,-519.3375 782.3897,-488.0009 793.3295,-453.0566 801.3617,-429.4614"/>
<polygon fill="#000000" stroke="#000000" points="804.749,-430.3753 804.7113,-419.7805 798.1338,-428.0864 804.749,-430.3753"/>
</g>
<!-- articleView -->
<g id="node38" class="node">
<title>articleView</title>
<ellipse fill="none" stroke="#000000" cx="960.6252" cy="-463.7843" rx="50.6536" ry="18"/>
<text text-anchor="middle" x="960.6252" y="-459.5843" font-family="Times,serif" font-size="14.00" fill="#000000">articleView</text>
</g>
<!-- upstat&#45;&gt;articleView -->
<g id="edge41" class="edge">
<title>upstat&#45;&gt;articleView</title>
<path fill="none" stroke="#000000" d="M729.4106,-1018.8521C731.0427,-1003.9996 734.4892,-982.7405 741.6581,-965.4078 796.0165,-833.9804 868.3408,-832.4958 921.0008,-700.3788 949.4811,-628.9254 957.4913,-537.4254 959.744,-491.996"/>
<polygon fill="#000000" stroke="#000000" points="963.2411,-492.1359 960.1824,-481.9923 956.2479,-491.8294 963.2411,-492.1359"/>
</g>
<!-- navnum -->
<g id="node3" class="node">
<title>navnum</title>
<ellipse fill="none" stroke="#000000" cx="790.7883" cy="-1187.4443" rx="38.6955" ry="18"/>
<text text-anchor="middle" x="790.7883" y="-1183.2443" font-family="Times,serif" font-size="14.00" fill="#000000">navnum</text>
</g>
<!-- video -->
<g id="node22" class="node">
<title>video</title>
<ellipse fill="none" stroke="#000000" cx="534.5172" cy="-327.852" rx="29.5104" ry="18"/>
<text text-anchor="middle" x="534.5172" y="-323.652" font-family="Times,serif" font-size="14.00" fill="#000000">video</text>
</g>
<!-- navnum&#45;&gt;video -->
<g id="edge22" class="edge">
<title>navnum&#45;&gt;video</title>
<path fill="none" stroke="#000000" d="M788.256,-1169.1417C784.0559,-1140.5826 774.7115,-1083.8552 760.8254,-1037.2062 682.2984,-773.4026 577.8622,-733.5635 530.0884,-462.498 523.6734,-426.0994 526.8656,-383.3324 530.2487,-355.9282"/>
<polygon fill="#000000" stroke="#000000" points="533.7364,-356.2519 531.584,-345.878 526.7974,-355.3299 533.7364,-356.2519"/>
</g>
<!-- info -->
<g id="node4" class="node">
<title>info</title>
<ellipse fill="none" stroke="#000000" cx="941.5172" cy="-1112.6663" rx="27" ry="18"/>
<text text-anchor="middle" x="941.5172" y="-1108.4663" font-family="Times,serif" font-size="14.00" fill="#000000">info</text>
</g>
<!-- uname -->
<g id="node19" class="node">
<title>uname</title>
<ellipse fill="none" stroke="#000000" cx="679.1832" cy="-345.2313" rx="33.8596" ry="18"/>
<text text-anchor="middle" x="679.1832" y="-341.0313" font-family="Times,serif" font-size="14.00" fill="#000000">uname</text>
</g>
<!-- info&#45;&gt;uname -->
<g id="edge19" class="edge">
<title>info&#45;&gt;uname</title>
<path fill="none" stroke="#000000" d="M926.6356,-1097.5488C915.4641,-1085.211 900.8539,-1066.7541 893.3565,-1047.6692 851.1488,-940.2282 888.5596,-902.0185 860.6447,-790.0105 824.9343,-646.723 800.8187,-615.1534 742.9117,-479.3105 726.7995,-441.5132 706.0404,-398.7949 692.6705,-371.9427"/>
<polygon fill="#000000" stroke="#000000" points="695.7046,-370.1846 688.1013,-362.8061 689.4438,-373.3156 695.7046,-370.1846"/>
</g>
<!-- sign -->
<g id="node20" class="node">
<title>sign</title>
<ellipse fill="none" stroke="#000000" cx="734.5852" cy="-72.1932" rx="27" ry="18"/>
<text text-anchor="middle" x="734.5852" y="-67.9932" font-family="Times,serif" font-size="14.00" fill="#000000">sign</text>
</g>
<!-- info&#45;&gt;sign -->
<g id="edge20" class="edge">
<title>info&#45;&gt;sign</title>
<path fill="none" stroke="#000000" d="M926.6356,-1097.5488C915.4641,-1085.211 900.8539,-1066.7541 893.3565,-1047.6692 851.1488,-940.2282 885.1737,-902.8084 860.6447,-790.0105 822.6371,-615.2303 770.1755,-579.9112 754.9293,-401.6972 750.2065,-346.492 758.7247,-332.3811 756.0856,-277.0371 753.0587,-213.5638 743.8738,-139.5048 738.5388,-100.1424"/>
<polygon fill="#000000" stroke="#000000" points="742.005,-99.656 737.1762,-90.2255 735.0701,-100.6089 742.005,-99.656"/>
</g>
<!-- coins -->
<g id="node21" class="node">
<title>coins</title>
<ellipse fill="none" stroke="#000000" cx="725.7122" cy="-276.9152" rx="28.5497" ry="18"/>
<text text-anchor="middle" x="725.7122" y="-272.7152" font-family="Times,serif" font-size="14.00" fill="#000000">coins</text>
</g>
<!-- info&#45;&gt;coins -->
<g id="edge21" class="edge">
<title>info&#45;&gt;coins</title>
<path fill="none" stroke="#000000" d="M926.6356,-1097.5488C915.4641,-1085.211 900.8539,-1066.7541 893.3565,-1047.6692 851.1488,-940.2282 885.1737,-902.8084 860.6447,-790.0105 833.8705,-666.8877 807.9812,-641.298 776.3313,-519.3375 756.3847,-442.4748 738.872,-350.3372 730.6636,-304.9723"/>
<polygon fill="#000000" stroke="#000000" points="734.0845,-304.2197 728.8723,-294.9956 727.1947,-305.4568 734.0845,-304.2197"/>
</g>
<!-- face -->
<g id="node39" class="node">
<title>face</title>
<ellipse fill="none" stroke="#000000" cx="714.3118" cy="-479.2523" rx="27" ry="18"/>
<text text-anchor="middle" x="714.3118" y="-475.0523" font-family="Times,serif" font-size="14.00" fill="#000000">face</text>
</g>
<!-- info&#45;&gt;face -->
<g id="edge42" class="edge">
<title>info&#45;&gt;face</title>
<path fill="none" stroke="#000000" d="M926.6356,-1097.5488C915.4641,-1085.211 900.8539,-1066.7541 893.3565,-1047.6692 851.1488,-940.2282 892.8989,-900.8469 860.6447,-790.0105 828.1743,-678.4309 760.3454,-556.6551 729.8038,-504.8607"/>
<polygon fill="#000000" stroke="#000000" points="732.6691,-502.8311 724.5519,-496.0222 726.6514,-506.4069 732.6691,-502.8311"/>
</g>
<!-- topPhoto -->
<g id="node40" class="node">
<title>topPhoto</title>
<ellipse fill="none" stroke="#000000" cx="905.5468" cy="-182.3762" rx="42.0956" ry="18"/>
<text text-anchor="middle" x="905.5468" y="-178.1762" font-family="Times,serif" font-size="14.00" fill="#000000">topPhoto</text>
</g>
<!-- info&#45;&gt;topPhoto -->
<g id="edge43" class="edge">
<title>info&#45;&gt;topPhoto</title>
<path fill="none" stroke="#000000" d="M950.4567,-1095.5006C956.25,-1082.6807 962.606,-1064.5569 961.937,-1047.8068 961.7581,-1043.3256 901.9864,-902.5989 901.3262,-898.163 888.3211,-810.7876 921.5947,-788.7148 921.0008,-700.3788 920.2642,-590.8039 909.8656,-563.5183 889.4954,-455.8509 878.229,-396.3025 853.5937,-384.1338 856.3096,-323.5898 857.3209,-301.0448 879.6633,-244.0016 893.9001,-209.7091"/>
<polygon fill="#000000" stroke="#000000" points="897.2169,-210.8497 897.8509,-200.2739 890.7601,-208.146 897.2169,-210.8497"/>
</g>
<!-- view -->
<g id="node5" class="node">
<title>view</title>
<ellipse fill="none" stroke="#000000" cx="971.4723" cy="-998.6784" rx="27.0958" ry="18"/>
<text text-anchor="middle" x="971.4723" y="-994.4784" font-family="Times,serif" font-size="14.00" fill="#000000">view</text>
</g>
<!-- cids -->
<g id="node43" class="node">
<title>cids</title>
<ellipse fill="none" stroke="#000000" cx="645.0013" cy="-247.6222" rx="27" ry="18"/>
<text text-anchor="middle" x="645.0013" y="-243.4222" font-family="Times,serif" font-size="14.00" fill="#000000">cids</text>
</g>
<!-- view&#45;&gt;cids -->
<g id="edge46" class="edge">
<title>view&#45;&gt;cids</title>
<path fill="none" stroke="#000000" d="M958.2914,-982.8648C942.915,-963.7874 917.5375,-930.2647 901.3262,-898.163 872.1003,-840.2901 743.9307,-403.1386 714.4614,-345.3893 700.6115,-318.2485 679.8975,-290.1888 664.6932,-271.1301"/>
<polygon fill="#000000" stroke="#000000" points="667.3591,-268.8606 658.3453,-263.2925 661.9194,-273.2663 667.3591,-268.8606"/>
</g>
<!-- mid -->
<g id="node44" class="node">
<title>mid</title>
<ellipse fill="none" stroke="#000000" cx="376.8514" cy="-614.6829" rx="27" ry="18"/>
<text text-anchor="middle" x="376.8514" y="-610.4829" font-family="Times,serif" font-size="14.00" fill="#000000">mid</text>
</g>
<!-- view&#45;&gt;mid -->
<g id="edge48" class="edge">
<title>view&#45;&gt;mid</title>
<path fill="none" stroke="#000000" stroke-dasharray="5,2" d="M951.6882,-985.9022C863.7608,-929.1203 508.2173,-699.5167 405.0456,-632.8903"/>
<polygon fill="#000000" stroke="#000000" points="406.7074,-629.7971 396.4081,-627.3123 402.9099,-635.6775 406.7074,-629.7971"/>
</g>
<!-- cid -->
<g id="node46" class="node">
<title>cid</title>
<ellipse fill="none" stroke="#000000" cx="430.0107" cy="-679.2518" rx="27" ry="18"/>
<text text-anchor="middle" x="430.0107" y="-675.0518" font-family="Times,serif" font-size="14.00" fill="#000000">cid</text>
</g>
<!-- view&#45;&gt;cid -->
<g id="edge51" class="edge">
<title>view&#45;&gt;cid</title>
<path fill="none" stroke="#000000" d="M950.9075,-986.5466C867.7255,-937.4747 556.0112,-753.5837 459.0092,-696.3589"/>
<polygon fill="#000000" stroke="#000000" points="460.6984,-693.2918 450.307,-691.2252 457.1416,-699.3209 460.6984,-693.2918"/>
</g>
<!-- list -->
<g id="node6" class="node">
<title>list</title>
<ellipse fill="none" stroke="#000000" cx="800.5496" cy="-1076.4312" rx="27" ry="18"/>
<text text-anchor="middle" x="800.5496" y="-1072.2312" font-family="Times,serif" font-size="14.00" fill="#000000">list</text>
</g>
<!-- getSubmitVideos -->
<g id="node7" class="node">
<title>getSubmitVideos</title>
<ellipse fill="none" stroke="#000000" cx="691.5957" cy="-1125.3071" rx="70.984" ry="18"/>
<text text-anchor="middle" x="691.5957" y="-1121.1071" font-family="Times,serif" font-size="14.00" fill="#000000">getSubmitVideos</text>
</g>
<!-- getSubmitVideosPage -->
<g id="node25" class="node">
<title>getSubmitVideosPage</title>
<ellipse fill="none" stroke="#000000" cx="946.0881" cy="-323.7726" rx="88.3651" ry="18"/>
<text text-anchor="middle" x="946.0881" y="-319.5726" font-family="Times,serif" font-size="14.00" fill="#000000">getSubmitVideosPage</text>
</g>
<!-- getSubmitVideos&#45;&gt;getSubmitVideosPage -->
<g id="edge25" class="edge">
<title>getSubmitVideos&#45;&gt;getSubmitVideosPage</title>
<path fill="none" stroke="#000000" d="M691.233,-1107.2842C691.1283,-1089.372 691.655,-1061.1629 695.1642,-1037.0281 711.4852,-924.7764 722.638,-897.4484 757.9036,-789.6377 786.7941,-701.3163 897.9484,-437.3104 934.4211,-351.2373"/>
<polygon fill="#000000" stroke="#000000" points="937.7106,-352.445 938.3924,-341.8722 931.2661,-349.7122 937.7106,-352.445"/>
</g>
<!-- getAllSubmitVideos -->
<g id="node8" class="node">
<title>getAllSubmitVideos</title>
<ellipse fill="none" stroke="#000000" cx="958.5585" cy="-1245.2348" rx="82.0855" ry="18"/>
<text text-anchor="middle" x="958.5585" y="-1241.0348" font-family="Times,serif" font-size="14.00" fill="#000000">getAllSubmitVideos</text>
</g>
<!-- allVideos -->
<g id="node27" class="node">
<title>allVideos</title>
<ellipse fill="none" stroke="#000000" cx="846.8633" cy="-126.4004" rx="43.4456" ry="18"/>
<text text-anchor="middle" x="846.8633" y="-122.2004" font-family="Times,serif" font-size="14.00" fill="#000000">allVideos</text>
</g>
<!-- getAllSubmitVideos&#45;&gt;allVideos -->
<g id="edge27" class="edge">
<title>getAllSubmitVideos&#45;&gt;allVideos</title>
<path fill="none" stroke="#000000" d="M949.9231,-1227.2751C934.1724,-1193.2263 901.636,-1116.5221 893.3565,-1047.6692 885.4121,-981.6036 896.5863,-964.5355 901.3262,-898.163 905.182,-844.1693 906.679,-830.7032 912.1912,-776.8535 915.6753,-742.8178 921.2308,-734.5916 921.0008,-700.3788 920.2642,-590.8039 909.8656,-563.5183 889.4954,-455.8509 878.229,-396.3025 855.6504,-384.1911 856.3096,-323.5898 856.6979,-287.8938 877.2487,-281.8245 877.547,-246.1277 877.5859,-241.4729 863.4707,-188.1059 854.3741,-154.2117"/>
<polygon fill="#000000" stroke="#000000" points="857.7106,-153.1411 851.7334,-144.3934 850.9509,-154.9593 857.7106,-153.1411"/>
</g>
<!-- getFollowers -->
<g id="node9" class="node">
<title>getFollowers</title>
<ellipse fill="none" stroke="#000000" cx="799.541" cy="-965.5548" rx="56.07" ry="18"/>
<text text-anchor="middle" x="799.541" y="-961.3548" font-family="Times,serif" font-size="14.00" fill="#000000">getFollowers</text>
</g>
<!-- getFollowersPage -->
<g id="node28" class="node">
<title>getFollowersPage</title>
<ellipse fill="none" stroke="#000000" cx="605.162" cy="-462.6144" rx="73.4498" ry="18"/>
<text text-anchor="middle" x="605.162" y="-458.4144" font-family="Times,serif" font-size="14.00" fill="#000000">getFollowersPage</text>
</g>
<!-- getFollowers&#45;&gt;getFollowersPage -->
<g id="edge28" class="edge">
<title>getFollowers&#45;&gt;getFollowersPage</title>
<path fill="none" stroke="#000000" d="M792.623,-947.6549C763.5173,-872.3462 650.8929,-580.9394 615.7191,-489.93"/>
<polygon fill="#000000" stroke="#000000" points="618.9681,-488.6276 612.0984,-480.5617 612.4388,-491.1511 618.9681,-488.6276"/>
</g>
<!-- getAllFollowers -->
<g id="node10" class="node">
<title>getAllFollowers</title>
<ellipse fill="none" stroke="#000000" cx="1061.9593" cy="-1100.568" rx="67.6702" ry="18"/>
<text text-anchor="middle" x="1061.9593" y="-1096.368" font-family="Times,serif" font-size="14.00" fill="#000000">getAllFollowers</text>
</g>
<!-- allFollowers -->
<g id="node29" class="node">
<title>allFollowers</title>
<ellipse fill="none" stroke="#000000" cx="1010.7558" cy="-418.3153" rx="54.1403" ry="18"/>
<text text-anchor="middle" x="1010.7558" y="-414.1153" font-family="Times,serif" font-size="14.00" fill="#000000">allFollowers</text>
</g>
<!-- getAllFollowers&#45;&gt;allFollowers -->
<g id="edge29" class="edge">
<title>getAllFollowers&#45;&gt;allFollowers</title>
<path fill="none" stroke="#000000" d="M1063.2061,-1082.5341C1064.0217,-1070.2719 1065.0627,-1053.6779 1065.7668,-1039.0303 1072.4316,-900.3821 1088.6364,-865.169 1076.4684,-726.895 1067.218,-621.7755 1034.6742,-500.1095 1019.1354,-446.3363"/>
<polygon fill="#000000" stroke="#000000" points="1022.4294,-445.1297 1016.2664,-436.5119 1015.71,-447.0921 1022.4294,-445.1297"/>
</g>
<!-- search -->
<g id="node11" class="node">
<title>search</title>
<ellipse fill="none" stroke="#000000" cx="927.6468" cy="-1047.738" rx="32.8821" ry="18"/>
<text text-anchor="middle" x="927.6468" y="-1043.538" font-family="Times,serif" font-size="14.00" fill="#000000">search</text>
</g>
<!-- search&#45;&gt;mid -->
<g id="edge49" class="edge">
<title>search&#45;&gt;mid</title>
<path fill="none" stroke="#000000" stroke-dasharray="5,2" d="M914.6838,-1030.9947C901.1354,-1013.8931 878.8966,-986.9149 857.424,-965.7019 850.5668,-958.9277 848.367,-957.7424 840.7776,-951.8 671.3612,-819.1472 625.6579,-790.2891 450.3756,-665.4902 435.3415,-654.7861 418.4055,-643.0606 404.5806,-633.5736"/>
<polygon fill="#000000" stroke="#000000" points="406.2247,-630.4575 395.9961,-627.6958 402.2699,-636.2334 406.2247,-630.4575"/>
</g>
<!-- _notice -->
<g id="node12" class="node">
<title>_notice</title>
<ellipse fill="none" stroke="#000000" cx="939.0619" cy="-898.2753" rx="36.2732" ry="18"/>
<text text-anchor="middle" x="939.0619" y="-894.0753" font-family="Times,serif" font-size="14.00" fill="#000000">_notice</text>
</g>
<!-- notice -->
<g id="node36" class="node">
<title>notice</title>
<ellipse fill="none" stroke="#000000" cx="809.6446" cy="-519.5108" rx="31.9306" ry="18"/>
<text text-anchor="middle" x="809.6446" y="-515.3108" font-family="Times,serif" font-size="14.00" fill="#000000">notice</text>
</g>
<!-- _notice&#45;&gt;notice -->
<g id="edge39" class="edge">
<title>_notice&#45;&gt;notice</title>
<path fill="none" stroke="#000000" d="M929.3251,-880.8187C910.8362,-846.9899 870.4446,-769.7228 847.4713,-700.3537 830.0621,-647.7856 818.9307,-583.8744 813.5272,-547.8263"/>
<polygon fill="#000000" stroke="#000000" points="816.9392,-546.9676 812.0336,-537.5769 810.0123,-547.9771 816.9392,-546.9676"/>
</g>
<!-- getRoomInfoOld -->
<g id="node13" class="node">
<title>getRoomInfoOld</title>
<ellipse fill="none" stroke="#000000" cx="1004.3385" cy="-726.8691" rx="70.56" ry="18"/>
<text text-anchor="middle" x="1004.3385" y="-722.6691" font-family="Times,serif" font-size="14.00" fill="#000000">getRoomInfoOld</text>
</g>
<!-- roomStatus -->
<g id="node31" class="node">
<title>roomStatus</title>
<ellipse fill="none" stroke="#000000" cx="677.7131" cy="-168.2754" rx="50.2896" ry="18"/>
<text text-anchor="middle" x="677.7131" y="-164.0754" font-family="Times,serif" font-size="14.00" fill="#000000">roomStatus</text>
</g>
<!-- getRoomInfoOld&#45;&gt;roomStatus -->
<g id="edge31" class="edge">
<title>getRoomInfoOld&#45;&gt;roomStatus</title>
<path fill="none" stroke="#000000" d="M997.1556,-708.9575C971.467,-645.0178 884.7724,-430.2922 867.6411,-401.743 817.7584,-318.6137 740.4145,-233.3445 701.6189,-192.7048"/>
<polygon fill="#000000" stroke="#000000" points="704.0681,-190.2021 694.6159,-185.4159 699.0203,-195.0519 704.0681,-190.2021"/>
</g>
<!-- roundStatus -->
<g id="node32" class="node">
<title>roundStatus</title>
<ellipse fill="none" stroke="#000000" cx="823.5877" cy="-246.0829" rx="52.2192" ry="18"/>
<text text-anchor="middle" x="823.5877" y="-241.8829" font-family="Times,serif" font-size="14.00" fill="#000000">roundStatus</text>
</g>
<!-- getRoomInfoOld&#45;&gt;roundStatus -->
<g id="edge33" class="edge">
<title>getRoomInfoOld&#45;&gt;roundStatus</title>
<path fill="none" stroke="#000000" d="M997.1679,-708.7347C989.3814,-688.9852 976.6201,-656.4497 965.8911,-628.3013 915.3658,-495.7441 856.7666,-336.5695 833.6761,-273.6265"/>
<polygon fill="#000000" stroke="#000000" points="836.8862,-272.214 830.1574,-264.0302 830.314,-274.6239 836.8862,-272.214"/>
</g>
<!-- liveStatus -->
<g id="node33" class="node">
<title>liveStatus</title>
<ellipse fill="none" stroke="#000000" cx="984.6149" cy="-81.4405" rx="44.9768" ry="18"/>
<text text-anchor="middle" x="984.6149" y="-77.2405" font-family="Times,serif" font-size="14.00" fill="#000000">liveStatus</text>
</g>
<!-- getRoomInfoOld&#45;&gt;liveStatus -->
<g id="edge35" class="edge">
<title>getRoomInfoOld&#45;&gt;liveStatus</title>
<path fill="none" stroke="#000000" d="M1011.8637,-708.7081C1019.6474,-689.2154 1031.599,-657.1824 1038.4175,-628.5305 1060.2343,-536.8553 1063.3161,-512.5678 1066.6752,-418.3923 1067.9847,-381.6787 1062.3439,-372.6227 1061.5237,-335.8949 1060.6846,-298.3207 1069.9524,-288.284 1063.021,-251.3452 1052.8783,-197.2922 1021.8632,-140.429 1002.0163,-108.1097"/>
<polygon fill="#000000" stroke="#000000" points="1004.7659,-105.9054 996.4962,-99.2825 998.8308,-109.6169 1004.7659,-105.9054"/>
</g>
<!-- title -->
<g id="node34" class="node">
<title>title</title>
<ellipse fill="none" stroke="#000000" cx="1165.4825" cy="-278.0433" rx="27" ry="18"/>
<text text-anchor="middle" x="1165.4825" y="-273.8433" font-family="Times,serif" font-size="14.00" fill="#000000">title</text>
</g>
<!-- getRoomInfoOld&#45;&gt;title -->
<g id="edge36" class="edge">
<title>getRoomInfoOld&#45;&gt;title</title>
<path fill="none" stroke="#000000" d="M1013.8325,-708.787C1041.9547,-654.2644 1125.0679,-485.9865 1160.5818,-335.8974 1162.8247,-326.4185 1164.0726,-315.8523 1164.7571,-306.3702"/>
<polygon fill="#000000" stroke="#000000" points="1168.2597,-306.418 1165.3135,-296.2411 1161.2702,-306.034 1168.2597,-306.418"/>
</g>
<!-- roomid -->
<g id="node47" class="node">
<title>roomid</title>
<ellipse fill="none" stroke="#000000" cx="304.2175" cy="-750.7632" rx="35.806" ry="18"/>
<text text-anchor="middle" x="304.2175" y="-746.5632" font-family="Times,serif" font-size="14.00" fill="#000000">roomid</text>
</g>
<!-- getRoomInfoOld&#45;&gt;roomid -->
<g id="edge53" class="edge">
<title>getRoomInfoOld&#45;&gt;roomid</title>
<path fill="none" stroke="#000000" d="M934.326,-729.2585C791.4529,-734.1345 469.7257,-745.1146 350.1312,-749.1962"/>
<polygon fill="#000000" stroke="#000000" points="349.7403,-745.7074 339.8656,-749.5466 349.9791,-752.7034 349.7403,-745.7074"/>
</g>
<!-- topList -->
<g id="node14" class="node">
<title>topList</title>
<ellipse fill="none" stroke="#000000" cx="884.2361" cy="-700.3663" rx="35.3303" ry="18"/>
<text text-anchor="middle" x="884.2361" y="-696.1663" font-family="Times,serif" font-size="14.00" fill="#000000">topList</text>
</g>
<!-- guardNum -->
<g id="node23" class="node">
<title>guardNum</title>
<ellipse fill="none" stroke="#000000" cx="1111.0528" cy="-335.8962" rx="47.8582" ry="18"/>
<text text-anchor="middle" x="1111.0528" y="-331.6962" font-family="Times,serif" font-size="14.00" fill="#000000">guardNum</text>
</g>
<!-- topList&#45;&gt;guardNum -->
<g id="edge23" class="edge">
<title>topList&#45;&gt;guardNum</title>
<path fill="none" stroke="#000000" d="M896.0483,-683.185C925.842,-639.6251 1005.9958,-521.0353 1066.6752,-418.3923 1077.4678,-400.1359 1088.7804,-379.0724 1097.2826,-362.7989"/>
<polygon fill="#000000" stroke="#000000" points="1100.4383,-364.3164 1101.9386,-353.8283 1094.2253,-361.0916 1100.4383,-364.3164"/>
</g>
<!-- topListPage -->
<g id="node24" class="node">
<title>topListPage</title>
<ellipse fill="none" stroke="#000000" cx="499.2922" cy="-116.48" rx="52.2106" ry="18"/>
<text text-anchor="middle" x="499.2922" y="-112.28" font-family="Times,serif" font-size="14.00" fill="#000000">topListPage</text>
</g>
<!-- topList&#45;&gt;topListPage -->
<g id="edge24" class="edge">
<title>topList&#45;&gt;topListPage</title>
<path fill="none" stroke="#000000" d="M873.8121,-682.9591C850.0808,-643.5685 789.7998,-544.847 734.595,-465.4342 696.3637,-410.438 678.5687,-402.385 643.905,-345.0732 612.5192,-293.1807 615.9821,-273.9381 583.5419,-222.6981 564.98,-193.3792 539.8555,-162.6016 521.8834,-141.7693"/>
<polygon fill="#000000" stroke="#000000" points="524.3446,-139.2661 515.1365,-134.0256 519.0668,-143.8645 524.3446,-139.2661"/>
</g>
<!-- fullTopList -->
<g id="node15" class="node">
<title>fullTopList</title>
<ellipse fill="none" stroke="#000000" cx="809.2741" cy="-789.8241" rx="49.5468" ry="18"/>
<text text-anchor="middle" x="809.2741" y="-785.6241" font-family="Times,serif" font-size="14.00" fill="#000000">fullTopList</text>
</g>
<!-- guards -->
<g id="node26" class="node">
<title>guards</title>
<ellipse fill="none" stroke="#000000" cx="992.2413" cy="-164.6" rx="33.8683" ry="18"/>
<text text-anchor="middle" x="992.2413" y="-160.4" font-family="Times,serif" font-size="14.00" fill="#000000">guards</text>
</g>
<!-- fullTopList&#45;&gt;guards -->
<g id="edge26" class="edge">
<title>fullTopList&#45;&gt;guards</title>
<path fill="none" stroke="#000000" d="M816.8884,-771.7279C837.0279,-722.1496 890.1202,-579.583 889.4954,-455.8509 889.1893,-395.2468 842.4477,-382.5881 856.3096,-323.5898 870.6511,-262.5502 927.4797,-211.5256 962.9613,-184.7724"/>
<polygon fill="#000000" stroke="#000000" points="965.0751,-187.5624 971.0504,-178.8134 960.9233,-181.9266 965.0751,-187.5624"/>
</g>
<!-- getAnchorInRoom -->
<g id="node16" class="node">
<title>getAnchorInRoom</title>
<ellipse fill="none" stroke="#000000" cx="990.211" cy="-776.8836" rx="76.3398" ry="18"/>
<text text-anchor="middle" x="990.211" y="-772.6836" font-family="Times,serif" font-size="14.00" fill="#000000">getAnchorInRoom</text>
</g>
<!-- anchorScore -->
<g id="node41" class="node">
<title>anchorScore</title>
<ellipse fill="none" stroke="#000000" cx="1007.119" cy="-251.2616" rx="54.1058" ry="18"/>
<text text-anchor="middle" x="1007.119" y="-247.0616" font-family="Times,serif" font-size="14.00" fill="#000000">anchorScore</text>
</g>
<!-- getAnchorInRoom&#45;&gt;anchorScore -->
<g id="edge44" class="edge">
<title>getAnchorInRoom&#45;&gt;anchorScore</title>
<path fill="none" stroke="#000000" d="M1035.6218,-762.2693C1051.7497,-754.535 1067.9948,-743.1677 1076.4684,-726.895 1156.858,-572.5158 1060.2141,-353.958 1021.6514,-278.2849"/>
<polygon fill="#000000" stroke="#000000" points="1024.7453,-276.648 1017.0406,-269.3756 1018.5285,-279.8655 1024.7453,-276.648"/>
</g>
<!-- getAnchorInRoom&#45;&gt;mid -->
<g id="edge47" class="edge">
<title>getAnchorInRoom&#45;&gt;mid</title>
<path fill="none" stroke="#000000" stroke-dasharray="5,2" d="M939.2336,-763.4028C818.0585,-731.3585 515.223,-651.2748 411.9776,-623.9719"/>
<polygon fill="#000000" stroke="#000000" points="412.6244,-620.5227 402.0619,-621.3498 410.8347,-627.2901 412.6244,-620.5227"/>
</g>
<!-- rankdb -->
<g id="node17" class="node">
<title>rankdb</title>
<ellipse fill="none" stroke="#000000" cx="1002.1543" cy="-628.4159" rx="34.8285" ry="18"/>
<text text-anchor="middle" x="1002.1543" y="-624.2159" font-family="Times,serif" font-size="14.00" fill="#000000">rankdb</text>
</g>
<!-- areaRank -->
<g id="node42" class="node">
<title>areaRank</title>
<ellipse fill="none" stroke="#000000" cx="538.4481" cy="-222.5999" rx="43.4887" ry="18"/>
<text text-anchor="middle" x="538.4481" y="-218.3999" font-family="Times,serif" font-size="14.00" fill="#000000">areaRank</text>
</g>
<!-- rankdb&#45;&gt;areaRank -->
<g id="edge45" class="edge">
<title>rankdb&#45;&gt;areaRank</title>
<path fill="none" stroke="#000000" d="M981.8903,-613.603C916.6881,-565.8065 713.1293,-415.5039 654.0366,-358.9783 616.8408,-323.3984 579.3277,-276.6825 557.5188,-248.1911"/>
<polygon fill="#000000" stroke="#000000" points="560.1079,-245.8133 551.2724,-239.9666 554.5334,-250.0471 560.1079,-245.8133"/>
</g>
<!-- uname&#45;&gt;search -->
<g id="edge16" class="edge">
<title>uname&#45;&gt;search</title>
<path fill="none" stroke="#000000" d="M688.1013,-362.8061C700.8716,-388.2285 724.8208,-436.8714 742.9117,-479.3105 800.8187,-615.1534 815.8391,-649.3016 860.6447,-790.0105 886.9226,-872.5344 910.6203,-972.2902 921.4427,-1019.8685"/>
<polygon fill="#000000" stroke="#000000" points="918.0548,-1020.7555 923.6728,-1029.7381 924.8827,-1019.2126 918.0548,-1020.7555"/>
</g>
<!-- topListPage&#45;&gt;fullTopList -->
<g id="edge60" class="edge">
<title>topListPage&#45;&gt;fullTopList</title>
<path fill="none" stroke="#000000" d="M515.5952,-133.7472C533.9492,-153.871 563.781,-188.7194 583.5419,-222.6981 641.3622,-322.1191 640.5784,-354.7723 680.2356,-462.7308 682.8945,-469.9691 683.0688,-471.95 685.7119,-479.1941 724.2114,-584.7107 775.1162,-708.2137 797.6685,-762.2077"/>
<polygon fill="#000000" stroke="#000000" points="794.5757,-763.8839 801.6647,-771.7577 801.0332,-761.1817 794.5757,-763.8839"/>
</g>
<!-- getSubmitVideosPage&#45;&gt;getAllSubmitVideos -->
<g id="edge9" class="edge">
<title>getSubmitVideosPage&#45;&gt;getAllSubmitVideos</title>
<path fill="none" stroke="#000000" d="M939.1511,-341.9669C929.57,-368.3172 912.9316,-418.855 908.2002,-463.6371 897.129,-568.4261 924.197,-595.0551 921.0008,-700.3788 919.9631,-734.5766 915.6753,-742.8178 912.1912,-776.8535 906.679,-830.7032 905.182,-844.1693 901.3262,-898.163 896.5863,-964.5355 885.4121,-981.6036 893.3565,-1047.6692 900.9569,-1110.874 928.9977,-1180.6948 945.7308,-1218.0626"/>
<polygon fill="#000000" stroke="#000000" points="942.5954,-1219.6229 949.9231,-1227.2751 948.9667,-1216.7235 942.5954,-1219.6229"/>
</g>
<!-- guardLevel -->
<g id="node30" class="node">
<title>guardLevel</title>
<ellipse fill="none" stroke="#000000" cx="872.7682" cy="-25.2267" rx="50.2465" ry="18"/>
<text text-anchor="middle" x="872.7682" y="-21.0267" font-family="Times,serif" font-size="14.00" fill="#000000">guardLevel</text>
</g>
<!-- guards&#45;&gt;guardLevel -->
<g id="edge30" class="edge">
<title>guards&#45;&gt;guardLevel</title>
<path fill="none" stroke="#000000" d="M978.067,-148.0648C957.3642,-123.9136 918.6858,-78.7927 894.4099,-50.4732"/>
<polygon fill="#000000" stroke="#000000" points="896.8386,-47.9286 887.673,-42.6142 891.524,-52.4844 896.8386,-47.9286"/>
</g>
<!-- getFollowersPage&#45;&gt;getAllFollowers -->
<g id="edge14" class="edge">
<title>getFollowersPage&#45;&gt;getAllFollowers</title>
<path fill="none" stroke="#000000" d="M622.2773,-480.3794C666.8307,-527.4154 787.9833,-660.4772 860.6447,-790.0105 885.7697,-834.8006 876.1423,-853.4059 901.3262,-898.163 905.1746,-905.0024 906.8873,-906.3026 912.2257,-912.0549 944.8905,-947.2524 961.6027,-947.7416 992.0209,-984.8977 996.5838,-990.4713 997.757,-992.0765 1000.369,-998.7893 1006.9851,-1015.7926 1001.9335,-1022.0174 1008.5668,-1039.014 1011.1831,-1045.7179 1012.5806,-1047.1462 1016.9351,-1052.8756 1022.8046,-1060.5984 1029.7533,-1068.4625 1036.4132,-1075.5187"/>
<polygon fill="#000000" stroke="#000000" points="1033.996,-1078.0541 1043.4617,-1082.8135 1039.03,-1073.19 1033.996,-1078.0541"/>
</g>
<!-- roomStatus&#45;&gt;roundStatus -->
<g id="edge32" class="edge">
<title>roomStatus&#45;&gt;roundStatus</title>
<path fill="none" stroke="#000000" d="M705.8392,-183.2775C728.6975,-195.4698 761.143,-212.7757 786.189,-226.1349"/>
<polygon fill="#000000" stroke="#000000" points="784.5797,-229.2433 795.0502,-230.8614 787.8741,-223.0669 784.5797,-229.2433"/>
</g>
<!-- roomStatus&#45;&gt;liveStatus -->
<g id="edge34" class="edge">
<title>roomStatus&#45;&gt;liveStatus</title>
<path fill="none" stroke="#000000" d="M708.2113,-153.779C735.6704,-141.2414 777.4117,-123.4428 815.2773,-112.4182 853.5048,-101.2881 897.803,-93.3531 931.5017,-88.3019"/>
<polygon fill="#000000" stroke="#000000" points="932.2122,-91.7353 941.6012,-86.8265 931.2003,-84.8088 932.2122,-91.7353"/>
</g>
<!-- online -->
<g id="node35" class="node">
<title>online</title>
<ellipse fill="none" stroke="#000000" cx="818.0748" cy="-201.5828" rx="32.4237" ry="18"/>
<text text-anchor="middle" x="818.0748" y="-197.3828" font-family="Times,serif" font-size="14.00" fill="#000000">online</text>
</g>
<!-- liveStatus&#45;&gt;online -->
<g id="edge38" class="edge">
<title>liveStatus&#45;&gt;online</title>
<path fill="none" stroke="#000000" d="M962.4997,-97.3944C932.5286,-119.0157 879.0006,-157.6308 846.2035,-181.2907"/>
<polygon fill="#000000" stroke="#000000" points="844.0016,-178.5634 837.9393,-187.2525 848.097,-184.2404 844.0016,-178.5634"/>
</g>
<!-- mid&#45;&gt;stat -->
<g id="edge1" class="edge">
<title>mid&#45;&gt;stat</title>
<path fill="none" stroke="#000000" d="M399.2734,-624.7768C483.2963,-663.2693 785.2396,-807.6398 992.0209,-984.8977 1002.182,-993.6081 1011.9014,-1004.7553 1019.7017,-1014.6672"/>
<polygon fill="#000000" stroke="#000000" points="1016.9222,-1016.7942 1025.7702,-1022.622 1022.4876,-1012.5485 1016.9222,-1016.7942"/>
</g>
<!-- mid&#45;&gt;upstat -->
<g id="edge2" class="edge">
<title>mid&#45;&gt;upstat</title>
<path fill="none" stroke="#000000" d="M397.5186,-626.4453C413.0353,-635.8481 434.2879,-649.9858 450.3756,-665.4902 568.6519,-779.478 674.6911,-947.74 712.9095,-1011.4288"/>
<polygon fill="#000000" stroke="#000000" points="709.9215,-1013.2518 718.0495,-1020.0478 715.9336,-1009.6664 709.9215,-1013.2518"/>
</g>
<!-- mid&#45;&gt;navnum -->
<g id="edge3" class="edge">
<title>mid&#45;&gt;navnum</title>
<path fill="none" stroke="#000000" d="M381.9156,-632.5779C387.1624,-649.2078 396.4547,-674.1737 409.6459,-693.0133 418.5539,-705.7357 756.1256,-1112.0692 764.1875,-1125.3438 770.76,-1136.166 776.5196,-1148.9039 780.9832,-1160.0173"/>
<polygon fill="#000000" stroke="#000000" points="777.8402,-1161.5946 784.7042,-1169.6653 784.3713,-1159.0757 777.8402,-1161.5946"/>
</g>
<!-- mid&#45;&gt;info -->
<g id="edge4" class="edge">
<title>mid&#45;&gt;info</title>
<path fill="none" stroke="#000000" d="M396.9632,-627.0602C412.189,-636.7851 433.3206,-651.0566 450.3756,-665.4902 599.5348,-791.7233 604.2353,-859.1182 758.3044,-979.3097 812.4935,-1021.5834 878.0425,-1068.2625 914.2128,-1093.6486"/>
<polygon fill="#000000" stroke="#000000" points="912.5521,-1096.7585 922.7508,-1099.6283 916.5677,-1091.0249 912.5521,-1096.7585"/>
</g>
<!-- mid&#45;&gt;getSubmitVideos -->
<g id="edge7" class="edge">
<title>mid&#45;&gt;getSubmitVideos</title>
<path fill="none" stroke="#000000" d="M382.7305,-632.526C387.2763,-645.6543 394.025,-663.8038 401.4114,-679.1141 404.5314,-685.581 405.8539,-686.9162 409.6459,-693.0133 506.5622,-848.8455 628.865,-1032.0211 673.9057,-1099.0525"/>
<polygon fill="#000000" stroke="#000000" points="671.0113,-1101.0206 679.4958,-1107.3659 676.8201,-1097.1145 671.0113,-1101.0206"/>
</g>
<!-- mid&#45;&gt;getAllSubmitVideos -->
<g id="edge10" class="edge">
<title>mid&#45;&gt;getAllSubmitVideos</title>
<path fill="none" stroke="#000000" d="M397.0472,-626.9619C412.317,-636.6354 433.4669,-650.8855 450.3756,-665.4902 633.019,-823.2463 665.583,-877.7435 820.7732,-1062.5722 865.8664,-1116.2774 914.2912,-1182.778 940.0083,-1218.8867"/>
<polygon fill="#000000" stroke="#000000" points="937.3989,-1221.2573 946.0414,-1227.3858 943.1069,-1217.2054 937.3989,-1221.2573"/>
</g>
<!-- mid&#45;&gt;getFollowers -->
<g id="edge11" class="edge">
<title>mid&#45;&gt;getFollowers</title>
<path fill="none" stroke="#000000" d="M396.2876,-627.3027C411.3429,-637.2703 432.5652,-651.7444 450.3756,-665.4902 575.7729,-762.2695 716.2711,-889.0327 773.3411,-941.3581"/>
<polygon fill="#000000" stroke="#000000" points="771.0975,-944.0497 780.8299,-948.2366 775.8327,-938.8943 771.0975,-944.0497"/>
</g>
<!-- mid&#45;&gt;getAllFollowers -->
<g id="edge13" class="edge">
<title>mid&#45;&gt;getAllFollowers</title>
<path fill="none" stroke="#000000" d="M395.9432,-627.7706C410.8134,-637.9897 431.9546,-652.5741 450.3756,-665.4902 673.3679,-821.8441 939.9047,-1012.9012 1030.2436,-1077.7749"/>
<polygon fill="#000000" stroke="#000000" points="1028.2647,-1080.6628 1038.4286,-1083.6537 1032.3482,-1074.9773 1028.2647,-1080.6628"/>
</g>
<!-- mid&#45;&gt;_notice -->
<g id="edge17" class="edge">
<title>mid&#45;&gt;_notice</title>
<path fill="none" stroke="#000000" d="M398.5462,-625.6263C484.1607,-668.8123 799.0182,-827.634 904.4219,-880.8021"/>
<polygon fill="#000000" stroke="#000000" points="903.1631,-884.0872 913.6678,-885.466 906.3157,-877.8373 903.1631,-884.0872"/>
</g>
<!-- mid&#45;&gt;getRoomInfoOld -->
<g id="edge54" class="edge">
<title>mid&#45;&gt;getRoomInfoOld</title>
<path fill="none" stroke="#000000" d="M402.2298,-621.3369C476.02,-640.3821 697.1382,-695.3176 884.2125,-719.9663 897.0854,-721.6624 910.7889,-722.9418 924.1606,-723.9069"/>
<polygon fill="#000000" stroke="#000000" points="924.0908,-727.4099 934.3022,-724.5853 924.5581,-720.4255 924.0908,-727.4099"/>
</g>
<!-- mid&#45;&gt;topList -->
<g id="edge56" class="edge">
<title>mid&#45;&gt;topList</title>
<path fill="none" stroke="#000000" d="M403.0622,-619.1092C485.2651,-632.991 738.5962,-675.7717 840.8094,-693.0327"/>
<polygon fill="#000000" stroke="#000000" points="840.3494,-696.5045 850.7927,-694.7186 841.5151,-689.6022 840.3494,-696.5045"/>
</g>
<!-- mid&#45;&gt;fullTopList -->
<g id="edge59" class="edge">
<title>mid&#45;&gt;fullTopList</title>
<path fill="none" stroke="#000000" d="M400.1003,-624.0993C469.5814,-652.2407 676.42,-736.0151 766.5261,-772.5102"/>
<polygon fill="#000000" stroke="#000000" points="765.316,-775.7962 775.8986,-776.3062 767.9439,-769.3081 765.316,-775.7962"/>
</g>
<!-- mid&#45;&gt;rankdb -->
<g id="edge62" class="edge">
<title>mid&#45;&gt;rankdb</title>
<path fill="none" stroke="#000000" d="M404.122,-615.2819C501.8802,-617.4288 835.3925,-624.7534 957.1719,-627.428"/>
<polygon fill="#000000" stroke="#000000" points="957.1948,-630.9292 967.2693,-627.6497 957.3486,-623.9309 957.1948,-630.9292"/>
</g>
<!-- aid -->
<g id="node45" class="node">
<title>aid</title>
<ellipse fill="none" stroke="#000000" cx="263.4439" cy="-672.5128" rx="27" ry="18"/>
<text text-anchor="middle" x="263.4439" y="-668.3128" font-family="Times,serif" font-size="14.00" fill="#000000">aid</text>
</g>
<!-- aid&#45;&gt;view -->
<g id="edge5" class="edge">
<title>aid&#45;&gt;view</title>
<path fill="none" stroke="#000000" d="M285.8032,-682.813C388.9058,-730.309 818.5722,-928.2423 939.6117,-984.0013"/>
<polygon fill="#000000" stroke="#000000" points="938.2067,-987.2075 948.7537,-988.2127 941.1355,-980.8497 938.2067,-987.2075"/>
</g>
<!-- aid&#45;&gt;aid -->
<g id="edge50" class="edge">
<title>aid&#45;&gt;aid</title>
<path fill="none" stroke="#000000" d="M288.8874,-679.2035C299.4718,-679.6649 308.4439,-677.4347 308.4439,-672.5128 308.4439,-669.2828 304.5799,-667.212 298.9321,-666.3004"/>
<polygon fill="#000000" stroke="#000000" points="299.0426,-662.8018 288.8874,-665.8221 298.7096,-669.7939 299.0426,-662.8018"/>
</g>
<!-- cid&#45;&gt;list -->
<g id="edge6" class="edge">
<title>cid&#45;&gt;list</title>
<path fill="none" stroke="#000000" d="M444.4418,-694.6651C489.7217,-743.0355 633.0102,-896.1696 751.315,-1023.321 760.5486,-1033.245 770.7372,-1044.2299 779.4387,-1053.6219"/>
<polygon fill="#000000" stroke="#000000" points="776.9816,-1056.1199 786.3446,-1061.0783 782.1174,-1051.3633 776.9816,-1056.1199"/>
</g>
<!-- roomid&#45;&gt;topList -->
<g id="edge55" class="edge">
<title>roomid&#45;&gt;topList</title>
<path fill="none" stroke="#000000" d="M339.6271,-747.6865C440.1779,-738.9498 727.3675,-713.9963 839.0427,-704.2931"/>
<polygon fill="#000000" stroke="#000000" points="839.6304,-707.7553 849.2899,-703.4027 839.0244,-700.7815 839.6304,-707.7553"/>
</g>
<!-- roomid&#45;&gt;fullTopList -->
<g id="edge58" class="edge">
<title>roomid&#45;&gt;fullTopList</title>
<path fill="none" stroke="#000000" d="M339.7321,-753.5099C425.4563,-760.1398 644.4168,-777.0741 750.2455,-785.2589"/>
<polygon fill="#000000" stroke="#000000" points="750.1921,-788.7651 760.4323,-786.0467 750.732,-781.7859 750.1921,-788.7651"/>
</g>
<!-- roomid&#45;&gt;getAnchorInRoom -->
<g id="edge61" class="edge">
<title>roomid&#45;&gt;getAnchorInRoom</title>
<path fill="none" stroke="#000000" d="M340.1336,-752.1308C445.0319,-756.1249 753.0605,-767.8537 904.3587,-773.6146"/>
<polygon fill="#000000" stroke="#000000" points="904.4093,-777.119 914.5353,-774.0021 904.6757,-770.124 904.4093,-777.119"/>
</g>
<!-- roomid&#45;&gt;online -->
<g id="edge37" class="edge">
<title>roomid&#45;&gt;online</title>
<path fill="none" stroke="#000000" d="M317.1448,-733.617C351.2148,-688.5719 446.5884,-563.4026 530.0884,-462.498 605.1545,-371.7853 612.3667,-336.4503 704.3686,-262.9699 728.4026,-243.7743 759.3088,-227.5315 782.8317,-216.5849"/>
<polygon fill="#000000" stroke="#000000" points="784.4451,-219.6961 792.0968,-212.368 781.5453,-213.325 784.4451,-219.6961"/>
</g>
<!-- page -->
<g id="node48" class="node">
<title>page</title>
<ellipse fill="none" stroke="#000000" cx="1283.1616" cy="-794.0636" rx="27" ry="18"/>
<text text-anchor="middle" x="1283.1616" y="-789.8636" font-family="Times,serif" font-size="14.00" fill="#000000">page</text>
</g>
<!-- page&#45;&gt;getSubmitVideos -->
<g id="edge8" class="edge">
<title>page&#45;&gt;getSubmitVideos</title>
<path fill="none" stroke="#000000" stroke-dasharray="1,5" d="M1261.0537,-804.6324C1189.7635,-838.9713 960.1294,-951.6032 780.3267,-1062.5717 760.6396,-1074.7219 739.454,-1089.6264 722.7226,-1101.8588"/>
<polygon fill="#000000" stroke="#000000" points="720.3852,-1099.2336 714.4107,-1107.9832 724.5375,-1104.869 720.3852,-1099.2336"/>
</g>
<!-- page&#45;&gt;getFollowers -->
<g id="edge12" class="edge">
<title>page&#45;&gt;getFollowers</title>
<path fill="none" stroke="#000000" stroke-dasharray="1,5" d="M1259.7878,-803.1747C1207.4013,-823.5033 1076.4833,-873.7968 965.592,-912.2139 927.088,-925.5532 883.1776,-939.6087 850.1858,-949.9411"/>
<polygon fill="#000000" stroke="#000000" points="848.8178,-946.7016 840.3156,-953.0233 850.9044,-953.3834 848.8178,-946.7016"/>
</g>
<!-- page&#45;&gt;topList -->
<g id="edge57" class="edge">
<title>page&#45;&gt;topList</title>
<path fill="none" stroke="#000000" stroke-dasharray="1,5" d="M1260.4074,-783.988C1220.0006,-766.5483 1132.6923,-730.8927 1055.4097,-713.0282 1033.1955,-707.8932 1027.1519,-709.2032 1004.4341,-707.2691 979.8024,-705.172 952.2754,-703.5393 929.7857,-702.3894"/>
<polygon fill="#000000" stroke="#000000" points="929.6722,-698.8796 919.511,-701.8796 929.3252,-705.871 929.6722,-698.8796"/>
</g>
<!-- SESSDATA -->
<g id="node49" class="node">
<title>SESSDATA</title>
<ellipse fill="none" stroke="#000000" cx="941.8779" cy="-1605.962" rx="53.2824" ry="18"/>
<text text-anchor="middle" x="941.8779" y="-1601.762" font-family="Times,serif" font-size="14.00" fill="#000000">SESSDATA</text>
</g>
<!-- SESSDATA&#45;&gt;getAllFollowers -->
<g id="edge15" class="edge">
<title>SESSDATA&#45;&gt;getAllFollowers</title>
<path fill="none" stroke="#000000" stroke-dasharray="1,5" d="M947.9107,-1587.7961C965.1257,-1535.3234 1015.0056,-1378.7721 1042.4469,-1245.4289 1050.6927,-1205.3607 1056.2908,-1158.3139 1059.3061,-1128.9652"/>
<polygon fill="#000000" stroke="#000000" points="1062.7903,-1129.297 1060.3003,-1118.999 1055.8249,-1128.6021 1062.7903,-1129.297"/>
</g>
<!-- p -->
<g id="node50" class="node">
<title>p</title>
<ellipse fill="none" stroke="#000000" cx="27.3414" cy="-603.352" rx="27" ry="18"/>
<text text-anchor="middle" x="27.3414" y="-599.152" font-family="Times,serif" font-size="14.00" fill="#000000">p</text>
</g>
<!-- p&#45;&gt;cid -->
<g id="edge52" class="edge">
<title>p&#45;&gt;cid</title>
<path fill="none" stroke="#000000" stroke-dasharray="1,5" d="M53.4514,-608.2735C123.1687,-621.4147 313.8205,-657.3509 393.8679,-672.4391"/>
<polygon fill="#000000" stroke="#000000" points="393.4847,-675.9285 403.9599,-674.3414 394.7813,-669.0496 393.4847,-675.9285"/>
</g>
</g>
</svg>
