<?xml version="1.0" encoding="UTF-8" standalone="no"?>
<!DOCTYPE svg PUBLIC "-//W3C//DTD SVG 1.1//EN"
 "http://www.w3.org/Graphics/SVG/1.1/DTD/svg11.dtd">
<!-- Generated by graphviz version 8.0.1 (20230327.1645)
 -->
<!-- Title: G Pages: 1 -->
<svg width="1422pt" height="1304pt"
 viewBox="0.00 0.00 1422.00 1304.00" xmlns="http://www.w3.org/2000/svg" xmlns:xlink="http://www.w3.org/1999/xlink">
<g id="graph0" class="graph" transform="scale(1 1) rotate(0) translate(4 1300)">
<title>G</title>
<polygon fill="white" stroke="none" points="-4,4 -4,-1300 1418,-1300 1418,4 -4,4"/>
<g id="clust1" class="cluster">
<title>cluster_api.bilibili.com</title>
<polygon fill="none" stroke="black" points="249.89,-851.03 249.89,-1296.03 926.89,-1296.03 926.89,-851.03 249.89,-851.03"/>
<text text-anchor="middle" x="588.39" y="-1280.83" font-family="Times,serif" font-size="14.00">api.bilibili.com</text>
</g>
<g id="clust2" class="cluster">
<title>cluster_api.live.bilibili.com</title>
<polygon fill="none" stroke="black" points="935.93,-806.33 935.93,-988.33 1204.93,-988.33 1204.93,-806.33 935.93,-806.33"/>
<text text-anchor="middle" x="1070.43" y="-973.13" font-family="Times,serif" font-size="14.00">api.live.bilibili.com</text>
</g>
<g id="clust3" class="cluster">
<title>cluster_data</title>
<polygon fill="none" stroke="black" points="88.78,-298.41 88.78,-841.41 829.78,-841.41 829.78,-298.41 88.78,-298.41"/>
<text text-anchor="middle" x="459.28" y="-826.21" font-family="Times,serif" font-size="14.00">data</text>
</g>
<g id="clust4" class="cluster">
<title>cluster_input</title>
<polygon fill="none" stroke="black" points="844.14,-375.72 844.14,-594.72 1099.14,-594.72 1099.14,-375.72 844.14,-375.72"/>
<text text-anchor="middle" x="971.64" y="-579.52" font-family="Times,serif" font-size="14.00">input</text>
</g>
<!-- stat -->
<g id="node1" class="node">
<title>stat</title>
<ellipse fill="none" stroke="black" cx="647.26" cy="-1247.27" rx="27" ry="18"/>
<text text-anchor="middle" x="647.26" y="-1243.57" font-family="Times,serif" font-size="14.00">stat</text>
</g>
<!-- follower -->
<g id="node17" class="node">
<title>follower</title>
<ellipse fill="none" stroke="black" cx="591.25" cy="-405.78" rx="40.09" ry="18"/>
<text text-anchor="middle" x="591.25" y="-402.08" font-family="Times,serif" font-size="14.00">follower</text>
</g>
<!-- stat&#45;&gt;follower -->
<g id="edge18" class="edge">
<title>stat&#45;&gt;follower</title>
<path fill="none" stroke="black" d="M659.34,-1230.97C669.65,-1216.15 683.94,-1193.28 691.26,-1171.08 705.8,-1127.04 696.37,-1113.29 703.12,-1067.4 708.61,-1030.13 716.78,-1021.62 718.16,-983.97 723.43,-839.96 656.87,-803.01 684.17,-661.51 689.56,-633.54 712.09,-633.26 714.11,-604.85 719.27,-532.16 656.84,-463.57 619.04,-429.04"/>
<polygon fill="black" stroke="black" points="621.71,-426.85 611.92,-422.81 617.06,-432.07 621.71,-426.85"/>
</g>
<!-- archiveStat -->
<g id="node2" class="node">
<title>archiveStat</title>
<ellipse fill="none" stroke="black" cx="608.64" cy="-1059.83" rx="50.09" ry="18"/>
<text text-anchor="middle" x="608.64" y="-1056.13" font-family="Times,serif" font-size="14.00">archiveStat</text>
</g>
<!-- bvid -->
<g id="node47" class="node">
<title>bvid</title>
<ellipse fill="none" stroke="black" cx="951.15" cy="-546.16" rx="27" ry="18"/>
<text text-anchor="middle" x="951.15" y="-542.46" font-family="Times,serif" font-size="14.00">bvid</text>
</g>
<!-- archiveStat&#45;&gt;bvid -->
<g id="edge52" class="edge">
<title>archiveStat&#45;&gt;bvid</title>
<path fill="none" stroke="black" d="M617.42,-1041.68C625.16,-1026.07 636.99,-1003.09 648.66,-983.83 747.41,-820.87 883.44,-636.34 932.53,-570.82"/>
<polygon fill="black" stroke="black" points="935.67,-573.48 938.87,-563.38 930.07,-569.28 935.67,-573.48"/>
</g>
<!-- upstat -->
<g id="node3" class="node">
<title>upstat</title>
<ellipse fill="none" stroke="black" cx="781.28" cy="-1018.68" rx="31.7" ry="18"/>
<text text-anchor="middle" x="781.28" y="-1014.98" font-family="Times,serif" font-size="14.00">upstat</text>
</g>
<!-- archiveView -->
<g id="node36" class="node">
<title>archiveView</title>
<ellipse fill="none" stroke="black" cx="367.41" cy="-324.78" rx="55.79" ry="18"/>
<text text-anchor="middle" x="367.41" y="-321.08" font-family="Times,serif" font-size="14.00">archiveView</text>
</g>
<!-- upstat&#45;&gt;archiveView -->
<g id="edge39" class="edge">
<title>upstat&#45;&gt;archiveView</title>
<path fill="none" stroke="black" d="M773.9,-1000.74C753.28,-951.09 692.67,-807.99 632.58,-693.83 590.33,-613.57 558.06,-607.92 507.09,-532.9 471.29,-480.21 469.33,-462.72 435.79,-408.58 422.82,-387.64 405.19,-366.17 391.08,-350.2"/>
<polygon fill="black" stroke="black" points="394.35,-348.48 385.07,-343.38 389.14,-353.16 394.35,-348.48"/>
</g>
<!-- articleView -->
<g id="node37" class="node">
<title>articleView</title>
<ellipse fill="none" stroke="black" cx="762.53" cy="-485.57" rx="51.99" ry="18"/>
<text text-anchor="middle" x="762.53" y="-481.87" font-family="Times,serif" font-size="14.00">articleView</text>
</g>
<!-- upstat&#45;&gt;articleView -->
<g id="edge40" class="edge">
<title>upstat&#45;&gt;articleView</title>
<path fill="none" stroke="black" d="M785.42,-1000.73C798.53,-941.08 836.57,-744.21 807.08,-585.22 802.28,-559.36 789.59,-532.24 778.97,-512.84"/>
<polygon fill="black" stroke="black" points="781.63,-511.43 773.66,-504.44 775.53,-514.87 781.63,-511.43"/>
</g>
<!-- info -->
<g id="node4" class="node">
<title>info</title>
<ellipse fill="none" stroke="black" cx="731.72" cy="-1067.47" rx="27" ry="18"/>
<text text-anchor="middle" x="731.72" y="-1063.77" font-family="Times,serif" font-size="14.00">info</text>
</g>
<!-- uname -->
<g id="node18" class="node">
<title>uname</title>
<ellipse fill="none" stroke="black" cx="488.93" cy="-436.58" rx="34.39" ry="18"/>
<text text-anchor="middle" x="488.93" y="-432.88" font-family="Times,serif" font-size="14.00">uname</text>
</g>
<!-- info&#45;&gt;uname -->
<g id="edge19" class="edge">
<title>info&#45;&gt;uname</title>
<path fill="none" stroke="black" d="M729.42,-1049.1C727.12,-1032.1 723.21,-1006.17 718.16,-983.97 686.75,-846.09 704.85,-796.17 624.27,-679.95 576.65,-611.27 541.9,-608.87 507.09,-532.9 497.31,-511.56 492.8,-485.25 490.71,-465.53"/>
<polygon fill="black" stroke="black" points="494.13,-465.41 489.75,-455.76 487.16,-466.03 494.13,-465.41"/>
</g>
<!-- sign -->
<g id="node19" class="node">
<title>sign</title>
<ellipse fill="none" stroke="black" cx="668.41" cy="-387.72" rx="27" ry="18"/>
<text text-anchor="middle" x="668.41" y="-384.02" font-family="Times,serif" font-size="14.00">sign</text>
</g>
<!-- info&#45;&gt;sign -->
<g id="edge20" class="edge">
<title>info&#45;&gt;sign</title>
<path fill="none" stroke="black" d="M728.93,-1049.19C717.7,-975.21 676.84,-700.07 684.17,-661.51 689.48,-633.53 710.15,-633.06 714.11,-604.85 723.76,-536.04 697.12,-456.4 680.54,-415.35"/>
<polygon fill="black" stroke="black" points="683.44,-414.2 676.37,-406.31 676.98,-416.89 683.44,-414.2"/>
</g>
<!-- coins -->
<g id="node20" class="node">
<title>coins</title>
<ellipse fill="none" stroke="black" cx="776.23" cy="-585.2" rx="29.5" ry="18"/>
<text text-anchor="middle" x="776.23" y="-581.5" font-family="Times,serif" font-size="14.00">coins</text>
</g>
<!-- info&#45;&gt;coins -->
<g id="edge21" class="edge">
<title>info&#45;&gt;coins</title>
<path fill="none" stroke="black" d="M737.66,-1049.63C753.41,-1000.77 795.31,-860.43 798.77,-740.1 800.05,-695.58 790.46,-644.58 783.38,-613.64"/>
<polygon fill="black" stroke="black" points="786.62,-613.13 780.92,-604.2 779.81,-614.74 786.62,-613.13"/>
</g>
<!-- liveRoom -->
<g id="node30" class="node">
<title>liveRoom</title>
<ellipse fill="none" stroke="black" cx="408.15" cy="-584.18" rx="46.29" ry="18"/>
<text text-anchor="middle" x="408.15" y="-580.48" font-family="Times,serif" font-size="14.00">liveRoom</text>
</g>
<!-- info&#45;&gt;liveRoom -->
<g id="edge31" class="edge">
<title>info&#45;&gt;liveRoom</title>
<path fill="none" stroke="black" d="M714,-1053.45C695.54,-1038.07 666.83,-1011.81 648.66,-983.83 584.74,-885.43 562.51,-860.41 531.44,-747.25 519.72,-704.57 542.08,-685.92 518.42,-648.51 503.87,-625.5 477.9,-609.76 454.81,-599.62"/>
<polygon fill="black" stroke="black" points="456.38,-596.06 445.8,-595.47 453.7,-602.53 456.38,-596.06"/>
</g>
<!-- face -->
<g id="node38" class="node">
<title>face</title>
<ellipse fill="none" stroke="black" cx="623.77" cy="-343.5" rx="27" ry="18"/>
<text text-anchor="middle" x="623.77" y="-339.8" font-family="Times,serif" font-size="14.00">face</text>
</g>
<!-- info&#45;&gt;face -->
<g id="edge41" class="edge">
<title>info&#45;&gt;face</title>
<path fill="none" stroke="black" d="M728.93,-1049.19C717.7,-975.21 676.84,-700.07 684.17,-661.51 689.48,-633.53 711.93,-633.25 714.11,-604.85 714.58,-598.77 657.39,-437.7 633.78,-371.51"/>
<polygon fill="black" stroke="black" points="636.82,-370.62 630.16,-362.38 630.23,-372.97 636.82,-370.62"/>
</g>
<!-- topPhoto -->
<g id="node39" class="node">
<title>topPhoto</title>
<ellipse fill="none" stroke="black" cx="728.01" cy="-661.57" rx="42.49" ry="18"/>
<text text-anchor="middle" x="728.01" y="-657.87" font-family="Times,serif" font-size="14.00">topPhoto</text>
</g>
<!-- info&#45;&gt;topPhoto -->
<g id="edge42" class="edge">
<title>info&#45;&gt;topPhoto</title>
<path fill="none" stroke="black" d="M728.97,-1049.11C719.36,-984.6 688.18,-770.54 692.88,-739.82 695.63,-721.88 703.72,-703.29 711.45,-688.73"/>
<polygon fill="black" stroke="black" points="714.87,-690.79 716.67,-680.35 708.75,-687.38 714.87,-690.79"/>
</g>
<!-- view -->
<g id="node5" class="node">
<title>view</title>
<ellipse fill="none" stroke="black" cx="492.74" cy="-1121.84" rx="27.9" ry="18"/>
<text text-anchor="middle" x="492.74" y="-1118.14" font-family="Times,serif" font-size="14.00">view</text>
</g>
<!-- cids -->
<g id="node43" class="node">
<title>cids</title>
<ellipse fill="none" stroke="black" cx="603.98" cy="-693.77" rx="27" ry="18"/>
<text text-anchor="middle" x="603.98" y="-690.07" font-family="Times,serif" font-size="14.00">cids</text>
</g>
<!-- view&#45;&gt;cids -->
<g id="edge46" class="edge">
<title>view&#45;&gt;cids</title>
<path fill="none" stroke="black" d="M489.64,-1103.82C480.79,-1046.8 460.4,-867.02 531.44,-747.25 540.94,-731.25 557.27,-718.57 572.03,-709.58"/>
<polygon fill="black" stroke="black" points="573.48,-712.21 580.42,-704.21 570,-706.14 573.48,-712.21"/>
</g>
<!-- mid -->
<g id="node45" class="node">
<title>mid</title>
<ellipse fill="none" stroke="black" cx="879.1" cy="-446.37" rx="27" ry="18"/>
<text text-anchor="middle" x="879.1" y="-442.67" font-family="Times,serif" font-size="14.00">mid</text>
</g>
<!-- view&#45;&gt;mid -->
<g id="edge49" class="edge">
<title>view&#45;&gt;mid</title>
<path fill="none" stroke="black" stroke-dasharray="5,2" d="M509.12,-1107.11C531.08,-1086.78 570.38,-1048.24 597.04,-1009.81 634.51,-955.81 641.36,-939.53 663.16,-877.52 683.92,-818.46 662.57,-794.6 692.88,-739.82 716.8,-696.61 743.69,-702.2 771.86,-661.63 815.23,-599.16 851.17,-516.61 868.3,-474.19"/>
<polygon fill="black" stroke="black" points="871.88,-475.64 872.34,-465.06 865.38,-473.05 871.88,-475.64"/>
</g>
<!-- cid -->
<g id="node48" class="node">
<title>cid</title>
<ellipse fill="none" stroke="black" cx="1064.35" cy="-484.98" rx="27" ry="18"/>
<text text-anchor="middle" x="1064.35" y="-481.28" font-family="Times,serif" font-size="14.00">cid</text>
</g>
<!-- view&#45;&gt;cid -->
<g id="edge53" class="edge">
<title>view&#45;&gt;cid</title>
<path fill="none" stroke="black" d="M507.36,-1106.35C527.64,-1084.83 565.37,-1044.59 597.04,-1009.81 771.83,-817.85 978.93,-582.38 1043.85,-508.37"/>
<polygon fill="black" stroke="black" points="1046.75,-511.37 1050.71,-501.55 1041.48,-506.76 1046.75,-511.37"/>
</g>
<!-- list -->
<g id="node6" class="node">
<title>list</title>
<ellipse fill="none" stroke="black" cx="520.75" cy="-1202.82" rx="27" ry="18"/>
<text text-anchor="middle" x="520.75" y="-1199.12" font-family="Times,serif" font-size="14.00">list</text>
</g>
<!-- spaceSearch -->
<g id="node7" class="node">
<title>spaceSearch</title>
<ellipse fill="none" stroke="black" cx="635.72" cy="-1171.05" rx="53.89" ry="18"/>
<text text-anchor="middle" x="635.72" y="-1167.35" font-family="Times,serif" font-size="14.00">spaceSearch</text>
</g>
<!-- video -->
<g id="node21" class="node">
<title>video</title>
<ellipse fill="none" stroke="black" cx="403.64" cy="-408.45" rx="30.59" ry="18"/>
<text text-anchor="middle" x="403.64" y="-404.75" font-family="Times,serif" font-size="14.00">video</text>
</g>
<!-- spaceSearch&#45;&gt;video -->
<g id="edge22" class="edge">
<title>spaceSearch&#45;&gt;video</title>
<path fill="none" stroke="black" d="M643.3,-1152.79C651.54,-1130.96 663.17,-1093.19 660.28,-1059.92 657.03,-1022.49 541.14,-783.56 531.44,-747.25 520.02,-704.49 531.02,-690.95 518.42,-648.51 494.15,-566.75 445.19,-478.07 419.77,-434.97"/>
<polygon fill="black" stroke="black" points="422.41,-433.55 414.29,-426.75 416.39,-437.13 422.41,-433.55"/>
</g>
<!-- getSubmitVideosPage -->
<g id="node24" class="node">
<title>getSubmitVideosPage</title>
<ellipse fill="none" stroke="black" cx="597.73" cy="-533.01" rx="89.08" ry="18"/>
<text text-anchor="middle" x="597.73" y="-529.31" font-family="Times,serif" font-size="14.00">getSubmitVideosPage</text>
</g>
<!-- spaceSearch&#45;&gt;getSubmitVideosPage -->
<g id="edge25" class="edge">
<title>spaceSearch&#45;&gt;getSubmitVideosPage</title>
<path fill="none" stroke="black" d="M641.92,-1152.83C648.83,-1131.03 659.18,-1093.29 660.28,-1059.92 661.41,-1025.73 648.94,-1018.04 648.66,-983.83 648.28,-936.15 663.45,-925.21 663.16,-877.52 662.66,-794.76 649.83,-774.78 632.58,-693.83 622.72,-647.59 611.05,-593.93 604.02,-561.76"/>
<polygon fill="black" stroke="black" points="607.3,-561.35 601.74,-552.33 600.46,-562.85 607.3,-561.35"/>
</g>
<!-- getAllSubmitVideos -->
<g id="node8" class="node">
<title>getAllSubmitVideos</title>
<ellipse fill="none" stroke="black" cx="341.3" cy="-999.01" rx="83.39" ry="18"/>
<text text-anchor="middle" x="341.3" y="-995.31" font-family="Times,serif" font-size="14.00">getAllSubmitVideos</text>
</g>
<!-- allVideos -->
<g id="node26" class="node">
<title>allVideos</title>
<ellipse fill="none" stroke="black" cx="777.46" cy="-397.07" rx="44.39" ry="18"/>
<text text-anchor="middle" x="777.46" y="-393.37" font-family="Times,serif" font-size="14.00">allVideos</text>
</g>
<!-- getAllSubmitVideos&#45;&gt;allVideos -->
<g id="edge27" class="edge">
<title>getAllSubmitVideos&#45;&gt;allVideos</title>
<path fill="none" stroke="black" d="M354.91,-980.97C417.4,-898.2 674.19,-557.65 688.37,-533.12 699.9,-513.18 697.22,-505.38 708.93,-485.54 722.23,-463.04 740.47,-439.75 754.8,-422.72"/>
<polygon fill="black" stroke="black" points="758.05,-425.3 761.88,-415.42 752.73,-420.75 758.05,-425.3"/>
</g>
<!-- getFollowers -->
<g id="node9" class="node">
<title>getFollowers</title>
<ellipse fill="none" stroke="black" cx="538.9" cy="-1009.67" rx="56.59" ry="18"/>
<text text-anchor="middle" x="538.9" y="-1005.97" font-family="Times,serif" font-size="14.00">getFollowers</text>
</g>
<!-- getFollowersPage -->
<g id="node27" class="node">
<title>getFollowersPage</title>
<ellipse fill="none" stroke="black" cx="443.38" cy="-648.34" rx="73.39" ry="18"/>
<text text-anchor="middle" x="443.38" y="-644.64" font-family="Times,serif" font-size="14.00">getFollowersPage</text>
</g>
<!-- getFollowers&#45;&gt;getFollowersPage -->
<g id="edge28" class="edge">
<title>getFollowers&#45;&gt;getFollowersPage</title>
<path fill="none" stroke="black" d="M535.41,-991.47C528.1,-953.91 510.13,-865.21 490.07,-792.01 478.95,-751.41 463.42,-705.25 453.38,-676.45"/>
<polygon fill="black" stroke="black" points="456.44,-675.59 449.82,-667.32 449.83,-677.91 456.44,-675.59"/>
</g>
<!-- getAllFollowers -->
<g id="node10" class="node">
<title>getAllFollowers</title>
<ellipse fill="none" stroke="black" cx="851.13" cy="-1081.92" rx="67.69" ry="18"/>
<text text-anchor="middle" x="851.13" y="-1078.22" font-family="Times,serif" font-size="14.00">getAllFollowers</text>
</g>
<!-- allFollowers -->
<g id="node28" class="node">
<title>allFollowers</title>
<ellipse fill="none" stroke="black" cx="360.72" cy="-723.58" rx="54.69" ry="18"/>
<text text-anchor="middle" x="360.72" y="-719.88" font-family="Times,serif" font-size="14.00">allFollowers</text>
</g>
<!-- getAllFollowers&#45;&gt;allFollowers -->
<g id="edge29" class="edge">
<title>getAllFollowers&#45;&gt;allFollowers</title>
<path fill="none" stroke="black" d="M813.82,-1066.59C795.7,-1058.09 774.27,-1046.42 757.43,-1032.42 730.26,-1009.83 733.64,-994.48 708.06,-970.09 664.55,-928.59 644.81,-929.12 598.14,-891.19 540.3,-844.17 536.45,-819.24 474.27,-778.13 453.01,-764.07 427.57,-751.51 406.17,-741.99"/>
<polygon fill="black" stroke="black" points="407.9,-738.49 397.34,-737.7 405.1,-744.91 407.9,-738.49"/>
</g>
<!-- search -->
<g id="node11" class="node">
<title>search</title>
<ellipse fill="none" stroke="black" cx="683.41" cy="-983.9" rx="33.29" ry="18"/>
<text text-anchor="middle" x="683.41" y="-980.2" font-family="Times,serif" font-size="14.00">search</text>
</g>
<!-- search&#45;&gt;mid -->
<g id="edge50" class="edge">
<title>search&#45;&gt;mid</title>
<path fill="none" stroke="black" stroke-dasharray="5,2" d="M693.05,-966.32C714.4,-926.83 766.35,-827.71 798.77,-740.1 833.81,-645.41 861.28,-528.52 872.97,-475.26"/>
<polygon fill="black" stroke="black" points="876.58,-476.11 875.28,-465.6 869.74,-474.63 876.58,-476.11"/>
</g>
<!-- _notice -->
<g id="node12" class="node">
<title>_notice</title>
<ellipse fill="none" stroke="black" cx="625.16" cy="-877.41" rx="36.29" ry="18"/>
<text text-anchor="middle" x="625.16" y="-873.71" font-family="Times,serif" font-size="14.00">_notice</text>
</g>
<!-- notice -->
<g id="node35" class="node">
<title>notice</title>
<ellipse fill="none" stroke="black" cx="294.61" cy="-446.44" rx="32.49" ry="18"/>
<text text-anchor="middle" x="294.61" y="-442.74" font-family="Times,serif" font-size="14.00">notice</text>
</g>
<!-- _notice&#45;&gt;notice -->
<g id="edge38" class="edge">
<title>_notice&#45;&gt;notice</title>
<path fill="none" stroke="black" d="M602.96,-862.74C554.43,-829.7 437.74,-744.75 368.34,-648.16 346.91,-618.34 313.85,-531.41 303.38,-496.21 301.37,-489.48 299.77,-482.09 298.5,-475.11"/>
<polygon fill="black" stroke="black" points="301.86,-474.94 296.8,-465.64 294.95,-476.07 301.86,-474.94"/>
</g>
<!-- topList -->
<g id="node13" class="node">
<title>topList</title>
<ellipse fill="none" stroke="black" cx="1092.39" cy="-939.45" rx="36" ry="18"/>
<text text-anchor="middle" x="1092.39" y="-935.75" font-family="Times,serif" font-size="14.00">topList</text>
</g>
<!-- guardNum -->
<g id="node22" class="node">
<title>guardNum</title>
<ellipse fill="none" stroke="black" cx="145.03" cy="-520.68" rx="48.99" ry="18"/>
<text text-anchor="middle" x="145.03" y="-516.98" font-family="Times,serif" font-size="14.00">guardNum</text>
</g>
<!-- topList&#45;&gt;guardNum -->
<g id="edge23" class="edge">
<title>topList&#45;&gt;guardNum</title>
<path fill="none" stroke="black" d="M1059.24,-931.72C1032.62,-925.08 994.52,-914.61 962.36,-902.02 807.29,-841.3 782.34,-795.26 627.63,-733.61 525.11,-692.76 491.15,-705.86 389.84,-662.07 310.14,-627.62 223.68,-573.26 177.87,-542.96"/>
<polygon fill="black" stroke="black" points="179.99,-539.5 169.72,-536.87 176.11,-545.33 179.99,-539.5"/>
</g>
<!-- topListPage -->
<g id="node23" class="node">
<title>topListPage</title>
<ellipse fill="none" stroke="black" cx="357.62" cy="-496.22" rx="52.79" ry="18"/>
<text text-anchor="middle" x="357.62" y="-492.52" font-family="Times,serif" font-size="14.00">topListPage</text>
</g>
<!-- topList&#45;&gt;topListPage -->
<g id="edge24" class="edge">
<title>topList&#45;&gt;topListPage</title>
<path fill="none" stroke="black" d="M1059.02,-932.26C1032.27,-925.93 994.11,-915.6 962.36,-902.02 842.09,-850.58 814.23,-830.24 708.13,-753.72 667.87,-724.69 663.41,-710.48 624.27,-679.95 543.93,-617.29 443.72,-551.27 392.02,-518.05"/>
<polygon fill="black" stroke="black" points="394.26,-514.68 383.95,-512.24 390.48,-520.58 394.26,-514.68"/>
</g>
<!-- fullTopList -->
<g id="node14" class="node">
<title>fullTopList</title>
<ellipse fill="none" stroke="black" cx="1135.43" cy="-832.02" rx="50.89" ry="18"/>
<text text-anchor="middle" x="1135.43" y="-828.32" font-family="Times,serif" font-size="14.00">fullTopList</text>
</g>
<!-- guards -->
<g id="node25" class="node">
<title>guards</title>
<ellipse fill="none" stroke="black" cx="678.06" cy="-604.67" rx="34.39" ry="18"/>
<text text-anchor="middle" x="678.06" y="-600.97" font-family="Times,serif" font-size="14.00">guards</text>
</g>
<!-- fullTopList&#45;&gt;guards -->
<g id="edge26" class="edge">
<title>fullTopList&#45;&gt;guards</title>
<path fill="none" stroke="black" d="M1105.42,-817.1C1024.08,-776.67 799.69,-665.13 712.93,-622"/>
<polygon fill="black" stroke="black" points="714.81,-618.53 704.29,-617.21 711.69,-624.8 714.81,-618.53"/>
</g>
<!-- getInfoByRoom -->
<g id="node15" class="node">
<title>getInfoByRoom</title>
<ellipse fill="none" stroke="black" cx="1012.21" cy="-888.29" rx="68.49" ry="18"/>
<text text-anchor="middle" x="1012.21" y="-884.59" font-family="Times,serif" font-size="14.00">getInfoByRoom</text>
</g>
<!-- anchorScore -->
<g id="node40" class="node">
<title>anchorScore</title>
<ellipse fill="none" stroke="black" cx="587.64" cy="-747.38" rx="54.69" ry="18"/>
<text text-anchor="middle" x="587.64" y="-743.68" font-family="Times,serif" font-size="14.00">anchorScore</text>
</g>
<!-- getInfoByRoom&#45;&gt;anchorScore -->
<g id="edge43" class="edge">
<title>getInfoByRoom&#45;&gt;anchorScore</title>
<path fill="none" stroke="black" d="M969.17,-874.01C889.81,-847.67 720.93,-791.62 637.05,-763.78"/>
<polygon fill="black" stroke="black" points="638.36,-760.19 627.76,-760.37 636.15,-766.84 638.36,-760.19"/>
</g>
<!-- fansclub -->
<g id="node41" class="node">
<title>fansclub</title>
<ellipse fill="none" stroke="black" cx="511.83" cy="-344.31" rx="40.09" ry="18"/>
<text text-anchor="middle" x="511.83" y="-340.61" font-family="Times,serif" font-size="14.00">fansclub</text>
</g>
<!-- getInfoByRoom&#45;&gt;fansclub -->
<g id="edge44" class="edge">
<title>getInfoByRoom&#45;&gt;fansclub</title>
<path fill="none" stroke="black" d="M996.99,-870.34C951.69,-817.21 813.16,-656.74 688.37,-533.12 634.6,-479.85 614.62,-473.44 561.46,-419.55 547.48,-405.39 535.15,-386.74 526.27,-371.55"/>
<polygon fill="black" stroke="black" points="528.92,-370.13 520.95,-363.15 522.83,-373.57 528.92,-370.13"/>
</g>
<!-- liveStartTime -->
<g id="node44" class="node">
<title>liveStartTime</title>
<ellipse fill="none" stroke="black" cx="251.54" cy="-656.24" rx="59.59" ry="18"/>
<text text-anchor="middle" x="251.54" y="-652.54" font-family="Times,serif" font-size="14.00">liveStartTime</text>
</g>
<!-- getInfoByRoom&#45;&gt;liveStartTime -->
<g id="edge47" class="edge">
<title>getInfoByRoom&#45;&gt;liveStartTime</title>
<path fill="none" stroke="black" d="M961.68,-875.76C875.96,-854.21 696.85,-807.93 547.64,-761.15 523.46,-753.57 378.25,-701.68 300.54,-673.83"/>
<polygon fill="black" stroke="black" points="302.09,-670.31 291.5,-670.23 299.73,-676.9 302.09,-670.31"/>
</g>
<!-- getInfoByRoom&#45;&gt;mid -->
<g id="edge48" class="edge">
<title>getInfoByRoom&#45;&gt;mid</title>
<path fill="none" stroke="black" stroke-dasharray="5,2" d="M1006.66,-869.87C985.92,-801 912.83,-558.38 887.68,-474.87"/>
<polygon fill="black" stroke="black" points="890.76,-473.96 884.52,-465.39 884.06,-475.98 890.76,-473.96"/>
</g>
<!-- rankdb -->
<g id="node16" class="node">
<title>rankdb</title>
<ellipse fill="none" stroke="black" cx="1161.81" cy="-891.61" rx="35.19" ry="18"/>
<text text-anchor="middle" x="1161.81" y="-887.91" font-family="Times,serif" font-size="14.00">rankdb</text>
</g>
<!-- areaRank -->
<g id="node42" class="node">
<title>areaRank</title>
<ellipse fill="none" stroke="black" cx="280.32" cy="-564.65" rx="44.39" ry="18"/>
<text text-anchor="middle" x="280.32" y="-560.95" font-family="Times,serif" font-size="14.00">areaRank</text>
</g>
<!-- rankdb&#45;&gt;areaRank -->
<g id="edge45" class="edge">
<title>rankdb&#45;&gt;areaRank</title>
<path fill="none" stroke="black" d="M1136.05,-879.25C1075.43,-850.39 918.66,-777.18 783.53,-726.2 658.4,-678.99 624.68,-674.09 496.91,-634.6 442.48,-617.78 428.24,-615.6 374.08,-597.91 357.52,-592.51 339.44,-586.19 323.62,-580.53"/>
<polygon fill="black" stroke="black" points="325.19,-577.01 314.59,-576.92 322.82,-583.6 325.19,-577.01"/>
</g>
<!-- uname&#45;&gt;search -->
<g id="edge16" class="edge">
<title>uname&#45;&gt;search</title>
<path fill="none" stroke="black" d="M489.75,-454.76C491.23,-474.74 495.4,-507.37 507.09,-532.9 544.87,-615.35 599.51,-609.37 632.58,-693.83 668.18,-784.75 678.95,-901.46 682.13,-954.87"/>
<polygon fill="black" stroke="black" points="678.67,-954.78 682.71,-964.57 685.66,-954.4 678.67,-954.78"/>
</g>
<!-- topListPage&#45;&gt;fullTopList -->
<g id="edge61" class="edge">
<title>topListPage&#45;&gt;fullTopList</title>
<path fill="none" stroke="black" d="M389.39,-510.93C442.87,-535.34 554.63,-584.86 652.34,-618.4 698.89,-634.38 713.08,-630.33 759.11,-647.75 888.21,-696.61 1032.69,-774.28 1098.81,-811.21"/>
<polygon fill="black" stroke="black" points="1096.93,-814.72 1107.36,-816.56 1100.35,-808.62 1096.93,-814.72"/>
</g>
<!-- getSubmitVideosPage&#45;&gt;getAllSubmitVideos -->
<g id="edge9" class="edge">
<title>getSubmitVideosPage&#45;&gt;getAllSubmitVideos</title>
<path fill="none" stroke="black" d="M591.77,-551.25C577.31,-594.5 537.97,-706.09 490.07,-792.01 451.67,-860.9 394.63,-934.19 363.52,-972.37"/>
<polygon fill="black" stroke="black" points="360.2,-969.9 356.56,-979.85 365.61,-974.34 360.2,-969.9"/>
</g>
<!-- guardLevel -->
<g id="node29" class="node">
<title>guardLevel</title>
<ellipse fill="none" stroke="black" cx="745.83" cy="-323.96" rx="50.89" ry="18"/>
<text text-anchor="middle" x="745.83" y="-320.26" font-family="Times,serif" font-size="14.00">guardLevel</text>
</g>
<!-- guards&#45;&gt;guardLevel -->
<g id="edge30" class="edge">
<title>guards&#45;&gt;guardLevel</title>
<path fill="none" stroke="black" d="M682.4,-586.68C693.85,-539.26 724.93,-410.53 738.88,-352.73"/>
<polygon fill="black" stroke="black" points="742.49,-353.7 741.43,-343.16 735.69,-352.06 742.49,-353.7"/>
</g>
<!-- getFollowersPage&#45;&gt;getAllFollowers -->
<g id="edge14" class="edge">
<title>getFollowersPage&#45;&gt;getAllFollowers</title>
<path fill="none" stroke="black" d="M458.51,-666.27C475.7,-686.42 504.83,-719.89 531.44,-747.25 647.92,-867.02 696.25,-878.22 805.13,-1004.94 817.95,-1019.85 829.32,-1038.79 837.55,-1054.15"/>
<polygon fill="black" stroke="black" points="834.77,-1055.4 842.48,-1062.65 840.98,-1052.17 834.77,-1055.4"/>
</g>
<!-- roomStatus -->
<g id="node31" class="node">
<title>roomStatus</title>
<ellipse fill="none" stroke="black" cx="745.83" cy="-739.96" rx="51.19" ry="18"/>
<text text-anchor="middle" x="745.83" y="-736.26" font-family="Times,serif" font-size="14.00">roomStatus</text>
</g>
<!-- liveRoom&#45;&gt;roomStatus -->
<g id="edge32" class="edge">
<title>liveRoom&#45;&gt;roomStatus</title>
<path fill="none" stroke="black" d="M439.83,-597.73C482.11,-615.93 559.22,-649.5 624.27,-679.95 652.06,-692.96 683.07,-708.28 706.82,-720.19"/>
<polygon fill="black" stroke="black" points="705.01,-723.7 715.52,-725.07 708.15,-717.45 705.01,-723.7"/>
</g>
<!-- roundStatus -->
<g id="node32" class="node">
<title>roundStatus</title>
<ellipse fill="none" stroke="black" cx="435.83" cy="-791.96" rx="52.79" ry="18"/>
<text text-anchor="middle" x="435.83" y="-788.26" font-family="Times,serif" font-size="14.00">roundStatus</text>
</g>
<!-- liveRoom&#45;&gt;roundStatus -->
<g id="edge34" class="edge">
<title>liveRoom&#45;&gt;roundStatus</title>
<path fill="none" stroke="black" d="M390.25,-601.18C379.61,-613.18 368.2,-630.24 368.34,-648.16 368.64,-688.07 400.61,-687.26 416.91,-723.69 422.49,-736.15 426.79,-750.65 429.87,-763.06"/>
<polygon fill="black" stroke="black" points="426.68,-763.82 432.35,-772.77 433.5,-762.23 426.68,-763.82"/>
</g>
<!-- liveStatus -->
<g id="node33" class="node">
<title>liveStatus</title>
<ellipse fill="none" stroke="black" cx="297.83" cy="-791.96" rx="45.49" ry="18"/>
<text text-anchor="middle" x="297.83" y="-788.26" font-family="Times,serif" font-size="14.00">liveStatus</text>
</g>
<!-- liveRoom&#45;&gt;liveStatus -->
<g id="edge36" class="edge">
<title>liveRoom&#45;&gt;liveStatus</title>
<path fill="none" stroke="black" d="M390.53,-601.15C366.4,-625.63 323.85,-673.42 304.53,-723.46 299.75,-735.83 297.85,-750.36 297.24,-762.84"/>
<polygon fill="black" stroke="black" points="293.72,-762.53 296.99,-772.61 300.72,-762.69 293.72,-762.53"/>
</g>
<!-- title -->
<g id="node34" class="node">
<title>title</title>
<ellipse fill="none" stroke="black" cx="253.83" cy="-375.96" rx="27" ry="18"/>
<text text-anchor="middle" x="253.83" y="-372.26" font-family="Times,serif" font-size="14.00">title</text>
</g>
<!-- liveRoom&#45;&gt;title -->
<g id="edge37" class="edge">
<title>liveRoom&#45;&gt;title</title>
<path fill="none" stroke="black" d="M380.56,-569.33C344.19,-547.88 282.24,-504.35 260.52,-446.41 255.61,-433.33 253.74,-417.98 253.18,-404.94"/>
<polygon fill="black" stroke="black" points="256.67,-405.14 252.98,-395.2 249.67,-405.27 256.67,-405.14"/>
</g>
<!-- roomid -->
<g id="node49" class="node">
<title>roomid</title>
<ellipse fill="none" stroke="black" cx="968.6" cy="-401.57" rx="36.29" ry="18"/>
<text text-anchor="middle" x="968.6" y="-397.87" font-family="Times,serif" font-size="14.00">roomid</text>
</g>
<!-- liveRoom&#45;&gt;roomid -->
<g id="edge55" class="edge">
<title>liveRoom&#45;&gt;roomid</title>
<path fill="none" stroke="black" d="M433.89,-568.75C458.81,-554.34 497.98,-533.01 534.01,-519.07 672.19,-465.58 844.05,-426.87 923.93,-410.39"/>
<polygon fill="black" stroke="black" points="924.48,-413.64 933.57,-408.21 923.08,-406.79 924.48,-413.64"/>
</g>
<!-- roomStatus&#45;&gt;roundStatus -->
<g id="edge33" class="edge">
<title>roomStatus&#45;&gt;roundStatus</title>
<path fill="none" stroke="black" d="M699.92,-748.44C677.91,-752.45 651.17,-757.24 627.11,-761.33 582.9,-768.85 532.85,-776.84 495.04,-782.78"/>
<polygon fill="black" stroke="black" points="494.56,-779.47 485.22,-784.48 495.64,-786.39 494.56,-779.47"/>
</g>
<!-- roomStatus&#45;&gt;liveStatus -->
<g id="edge35" class="edge">
<title>roomStatus&#45;&gt;liveStatus</title>
<path fill="none" stroke="black" d="M700.23,-748.58C678.18,-752.64 651.3,-757.44 627.11,-761.33 609.46,-764.17 605.09,-765.4 587.27,-766.98 520.24,-772.91 502.99,-766.43 435.95,-772.36 407.66,-774.86 376.31,-779.19 350.64,-783.13"/>
<polygon fill="black" stroke="black" points="350.35,-779.79 341.01,-784.8 351.43,-786.71 350.35,-779.79"/>
</g>
<!-- mid&#45;&gt;stat -->
<g id="edge1" class="edge">
<title>mid&#45;&gt;stat</title>
<path fill="none" stroke="black" d="M874.31,-464.28C862.03,-510.2 828.27,-635.81 798.77,-740.1 757.53,-885.93 733.1,-918.84 703.12,-1067.4 693.95,-1112.87 705.8,-1127.04 691.26,-1171.08 685.25,-1189.29 674.56,-1207.95 665.22,-1222.25"/>
<polygon fill="black" stroke="black" points="662.03,-1219.72 659.34,-1229.97 667.83,-1223.64 662.03,-1219.72"/>
</g>
<!-- mid&#45;&gt;upstat -->
<g id="edge3" class="edge">
<title>mid&#45;&gt;upstat</title>
<path fill="none" stroke="black" d="M876.01,-464.45C861.92,-546.87 803.71,-887.46 786.25,-989.6"/>
<polygon fill="black" stroke="black" points="782.65,-988.87 784.42,-999.32 789.55,-990.05 782.65,-988.87"/>
</g>
<!-- mid&#45;&gt;info -->
<g id="edge4" class="edge">
<title>mid&#45;&gt;info</title>
<path fill="none" stroke="black" d="M874.77,-464.63C853.94,-552.39 764.06,-931.17 738.52,-1038.83"/>
<polygon fill="black" stroke="black" points="734.96,-1037.68 736.06,-1048.22 741.77,-1039.3 734.96,-1037.68"/>
</g>
<!-- mid&#45;&gt;spaceSearch -->
<g id="edge7" class="edge">
<title>mid&#45;&gt;spaceSearch</title>
<path fill="none" stroke="black" d="M874.78,-464.34C858.08,-532.98 794.75,-784.83 718.16,-983.97 696.07,-1041.41 666.08,-1106.86 649.03,-1143.12"/>
<polygon fill="black" stroke="black" points="645.49,-1141.43 644.38,-1151.97 651.82,-1144.42 645.49,-1141.43"/>
</g>
<!-- mid&#45;&gt;getAllSubmitVideos -->
<g id="edge10" class="edge">
<title>mid&#45;&gt;getAllSubmitVideos</title>
<path fill="none" stroke="black" d="M863.12,-461.18C838.78,-483.99 791.35,-529.51 754.45,-571.32 720.82,-609.42 710.74,-618.19 684.17,-661.51 662.09,-697.49 669.64,-714.1 643.83,-747.51 565.77,-848.52 440.43,-936.1 378.46,-976.01"/>
<polygon fill="black" stroke="black" points="376.97,-973.44 370.43,-981.78 380.74,-979.34 376.97,-973.44"/>
</g>
<!-- mid&#45;&gt;getFollowers -->
<g id="edge11" class="edge">
<title>mid&#45;&gt;getFollowers</title>
<path fill="none" stroke="black" d="M872.34,-464.06C857.37,-502.09 819,-593.72 771.86,-661.63 767.06,-668.54 764.82,-669.45 758.93,-675.47 730.25,-704.75 720.12,-709.2 692.88,-739.82 641.66,-797.42 624.3,-809.75 587.17,-877.3 568.63,-911.02 554.65,-953.29 546.62,-980.86"/>
<polygon fill="black" stroke="black" points="543,-979.78 543.65,-990.36 549.74,-981.69 543,-979.78"/>
</g>
<!-- mid&#45;&gt;getAllFollowers -->
<g id="edge13" class="edge">
<title>mid&#45;&gt;getAllFollowers</title>
<path fill="none" stroke="black" d="M878.29,-464.71C874.37,-553.86 857.28,-942.23 852.42,-1052.58"/>
<polygon fill="black" stroke="black" points="848.89,-1052.36 851.94,-1062.51 855.88,-1052.67 848.89,-1052.36"/>
</g>
<!-- mid&#45;&gt;_notice -->
<g id="edge17" class="edge">
<title>mid&#45;&gt;_notice</title>
<path fill="none" stroke="black" d="M872.34,-464.06C857.37,-502.09 819,-593.72 771.86,-661.63 743.69,-702.2 721.9,-699.85 692.88,-739.82 667.65,-774.6 647.31,-820.21 635.73,-849.17"/>
<polygon fill="black" stroke="black" points="632.12,-847.81 631.73,-858.4 638.64,-850.36 632.12,-847.81"/>
</g>
<!-- mid&#45;&gt;topList -->
<g id="edge57" class="edge">
<title>mid&#45;&gt;topList</title>
<path fill="none" stroke="black" d="M886.66,-464.07C895.22,-484.04 909.67,-517.45 922.55,-546.01 991.56,-699.08 1029.55,-728.99 1082.06,-888.48 1084.38,-895.54 1086.28,-903.33 1087.79,-910.66"/>
<polygon fill="black" stroke="black" points="1084.49,-911.07 1089.77,-920.25 1091.37,-909.78 1084.49,-911.07"/>
</g>
<!-- mid&#45;&gt;fullTopList -->
<g id="edge60" class="edge">
<title>mid&#45;&gt;fullTopList</title>
<path fill="none" stroke="black" d="M886,-463.95C894.08,-484.1 908.2,-517.95 922.55,-546.01 976.5,-651.56 1068.86,-759.24 1111.97,-806.8"/>
<polygon fill="black" stroke="black" points="1108.86,-808.68 1118.19,-813.71 1114.03,-803.96 1108.86,-808.68"/>
</g>
<!-- mid&#45;&gt;rankdb -->
<g id="edge63" class="edge">
<title>mid&#45;&gt;rankdb</title>
<path fill="none" stroke="black" d="M885.76,-464.28C907.75,-521.8 982.33,-705.56 1083.13,-832.01 1095.81,-847.91 1113.65,-861.88 1129.13,-872.29"/>
<polygon fill="black" stroke="black" points="1126.63,-875.49 1136.92,-878 1130.44,-869.62 1126.63,-875.49"/>
</g>
<!-- dynamicsRaw -->
<g id="node53" class="node">
<title>dynamicsRaw</title>
<ellipse fill="none" stroke="black" cx="1188.1" cy="-225.96" rx="61.19" ry="18"/>
<text text-anchor="middle" x="1188.1" y="-222.26" font-family="Times,serif" font-size="14.00">dynamicsRaw</text>
</g>
<!-- mid&#45;&gt;dynamicsRaw -->
<g id="edge64" class="edge">
<title>mid&#45;&gt;dynamicsRaw</title>
<path fill="none" stroke="black" d="M893.9,-431.13C906.22,-418.8 924.47,-401.31 941.82,-387.66 1012.1,-332.36 1101.26,-277.17 1150.73,-247.73"/>
<polygon fill="black" stroke="black" points="1152.26,-250.31 1159.08,-242.2 1148.69,-244.28 1152.26,-250.31"/>
</g>
<!-- aid -->
<g id="node46" class="node">
<title>aid</title>
<ellipse fill="none" stroke="black" cx="962.07" cy="-452.63" rx="27" ry="18"/>
<text text-anchor="middle" x="962.07" y="-448.93" font-family="Times,serif" font-size="14.00">aid</text>
</g>
<!-- aid&#45;&gt;archiveStat -->
<g id="edge2" class="edge">
<title>aid&#45;&gt;archiveStat</title>
<path fill="none" stroke="black" d="M952.52,-469.92C927.69,-514.81 858.84,-638.58 798.77,-740.1 733.98,-849.59 711.7,-873.33 648.66,-983.83 639.6,-999.73 630.03,-1017.84 622.52,-1032.4"/>
<polygon fill="black" stroke="black" points="619.13,-1030.34 617.68,-1040.83 625.36,-1033.53 619.13,-1030.34"/>
</g>
<!-- aid&#45;&gt;aid -->
<g id="edge51" class="edge">
<title>aid&#45;&gt;aid</title>
<path fill="none" stroke="black" d="M987.51,-459.32C998.09,-459.78 1007.07,-457.55 1007.07,-452.63 1007.07,-449.55 1003.56,-447.53 998.35,-446.55"/>
<polygon fill="black" stroke="black" points="998.69,-443.01 988.51,-445.94 998.3,-450 998.69,-443.01"/>
</g>
<!-- bvid&#45;&gt;view -->
<g id="edge5" class="edge">
<title>bvid&#45;&gt;view</title>
<path fill="none" stroke="black" d="M939.47,-562.63C896.1,-623.5 739.45,-841.07 597.04,-1009.81 570.18,-1041.65 537.11,-1076.5 515.51,-1098.73"/>
<polygon fill="black" stroke="black" points="513.58,-1095.72 509.1,-1105.33 518.59,-1100.61 513.58,-1095.72"/>
</g>
<!-- cid&#45;&gt;list -->
<g id="edge6" class="edge">
<title>cid&#45;&gt;list</title>
<path fill="none" stroke="black" d="M1054.24,-501.87C1011.24,-573.17 837.59,-855.18 660.28,-1059.92 621.64,-1104.53 572.71,-1152.99 544.24,-1180.46"/>
<polygon fill="black" stroke="black" points="542.23,-1177.5 537.44,-1186.96 547.08,-1182.55 542.23,-1177.5"/>
</g>
<!-- roomid&#45;&gt;topList -->
<g id="edge56" class="edge">
<title>roomid&#45;&gt;topList</title>
<path fill="none" stroke="black" d="M977.26,-419.24C981.75,-428.95 987.04,-441.32 990.67,-452.76 1044.48,-622.61 1077.65,-834.95 1088.48,-910.85"/>
<polygon fill="black" stroke="black" points="1085.11,-911.02 1089.97,-920.44 1092.04,-910.04 1085.11,-911.02"/>
</g>
<!-- roomid&#45;&gt;fullTopList -->
<g id="edge59" class="edge">
<title>roomid&#45;&gt;fullTopList</title>
<path fill="none" stroke="black" d="M976.55,-419.5C980.83,-429.28 986.15,-441.64 990.67,-452.76 1043.56,-583.01 1101.91,-740.53 1125.1,-803.75"/>
<polygon fill="black" stroke="black" points="1122.04,-804.57 1128.77,-812.76 1128.61,-802.16 1122.04,-804.57"/>
</g>
<!-- roomid&#45;&gt;getInfoByRoom -->
<g id="edge62" class="edge">
<title>roomid&#45;&gt;getInfoByRoom</title>
<path fill="none" stroke="black" d="M977.99,-419.04C982.69,-428.7 987.95,-441.07 990.67,-452.76 1025.46,-602.6 1018.6,-788.96 1014.28,-859.47"/>
<polygon fill="black" stroke="black" points="1010.75,-858.93 1013.6,-869.14 1017.73,-859.39 1010.75,-858.93"/>
</g>
<!-- page -->
<g id="node50" class="node">
<title>page</title>
<ellipse fill="none" stroke="black" cx="1079.76" cy="-1162.82" rx="27.1" ry="18"/>
<text text-anchor="middle" x="1079.76" y="-1159.12" font-family="Times,serif" font-size="14.00">page</text>
</g>
<!-- page&#45;&gt;spaceSearch -->
<g id="edge8" class="edge">
<title>page&#45;&gt;spaceSearch</title>
<path fill="none" stroke="black" stroke-dasharray="1,5" d="M1052.32,-1163.32C982.97,-1164.61 799.21,-1168.02 700.54,-1169.85"/>
<polygon fill="black" stroke="black" points="700.74,-1166.36 690.81,-1170.04 700.87,-1173.36 700.74,-1166.36"/>
</g>
<!-- page&#45;&gt;getFollowers -->
<g id="edge12" class="edge">
<title>page&#45;&gt;getFollowers</title>
<path fill="none" stroke="black" stroke-dasharray="1,5" d="M1052.96,-1159.98C990.93,-1152.76 833.47,-1130.66 711.43,-1081.28 680.56,-1068.79 675.87,-1059.29 645.32,-1046.03 627.88,-1038.46 608.3,-1031.39 590.75,-1025.53"/>
<polygon fill="black" stroke="black" points="592.27,-1022.02 581.67,-1022.23 590.08,-1028.67 592.27,-1022.02"/>
</g>
<!-- page&#45;&gt;topList -->
<g id="edge58" class="edge">
<title>page&#45;&gt;topList</title>
<path fill="none" stroke="black" stroke-dasharray="1,5" d="M1080.8,-1144.54C1082.99,-1105.83 1088.1,-1015.31 1090.75,-968.55"/>
<polygon fill="black" stroke="black" points="1094.29,-968.85 1091.36,-958.66 1087.3,-968.45 1094.29,-968.85"/>
</g>
<!-- SESSDATA -->
<g id="node51" class="node">
<title>SESSDATA</title>
<ellipse fill="none" stroke="black" cx="53.64" cy="-1192.35" rx="53.89" ry="18"/>
<text text-anchor="middle" x="53.64" y="-1188.65" font-family="Times,serif" font-size="14.00">SESSDATA</text>
</g>
<!-- SESSDATA&#45;&gt;getAllFollowers -->
<g id="edge15" class="edge">
<title>SESSDATA&#45;&gt;getAllFollowers</title>
<path fill="none" stroke="black" stroke-dasharray="1,5" d="M105.77,-1187.14C188.1,-1178.72 353.18,-1161.08 492.58,-1141.44 594.51,-1127.07 712.12,-1106.85 784.05,-1094.06"/>
<polygon fill="black" stroke="black" points="784.52,-1097.35 793.75,-1092.15 783.29,-1090.46 784.52,-1097.35"/>
</g>
<!-- p -->
<g id="node52" class="node">
<title>p</title>
<ellipse fill="none" stroke="black" cx="805.26" cy="-269.46" rx="27" ry="18"/>
<text text-anchor="middle" x="805.26" y="-265.76" font-family="Times,serif" font-size="14.00">p</text>
</g>
<!-- p&#45;&gt;cid -->
<g id="edge54" class="edge">
<title>p&#45;&gt;cid</title>
<path fill="none" stroke="black" stroke-dasharray="1,5" d="M817.82,-285.87C840.37,-314.61 890.18,-374.81 941.65,-415.38 943.71,-417.01 998.29,-447.81 1033.96,-467.89"/>
<polygon fill="black" stroke="black" points="1032.02,-471.38 1042.45,-473.23 1035.45,-465.28 1032.02,-471.38"/>
</g>
<!-- dynamics -->
<g id="node55" class="node">
<title>dynamics</title>
<ellipse fill="none" stroke="black" cx="1369.39" cy="-171.94" rx="44.69" ry="18"/>
<text text-anchor="middle" x="1369.39" y="-168.24" font-family="Times,serif" font-size="14.00">dynamics</text>
</g>
<!-- dynamicsRaw&#45;&gt;dynamics -->
<g id="edge66" class="edge">
<title>dynamicsRaw&#45;&gt;dynamics</title>
<path fill="none" stroke="black" d="M1231.52,-213.02C1259.02,-204.83 1294.55,-194.24 1322.66,-185.86"/>
<polygon fill="black" stroke="black" points="1323.46,-188.98 1332.04,-182.77 1321.46,-182.27 1323.46,-188.98"/>
</g>
<!-- dynamicOffset -->
<g id="node54" class="node">
<title>dynamicOffset</title>
<ellipse fill="none" stroke="black" cx="1206.45" cy="-17.6" rx="63.89" ry="18"/>
<text text-anchor="middle" x="1206.45" y="-13.9" font-family="Times,serif" font-size="14.00">dynamicOffset</text>
</g>
<!-- dynamicOffset&#45;&gt;dynamicsRaw -->
<g id="edge65" class="edge">
<title>dynamicOffset&#45;&gt;dynamicsRaw</title>
<path fill="none" stroke="black" d="M1204.82,-36.09C1201.63,-72.39 1194.51,-153.21 1190.67,-196.78"/>
<polygon fill="black" stroke="black" points="1187.11,-196.24 1189.72,-206.51 1194.09,-196.85 1187.11,-196.24"/>
</g>
</g>
</svg>
