<?xml version="1.0" encoding="UTF-8" standalone="no"?>
<!DOCTYPE svg PUBLIC "-//W3C//DTD SVG 1.1//EN"
 "http://www.w3.org/Graphics/SVG/1.1/DTD/svg11.dtd">
<!-- Generated by graphviz version 2.40.1 (20161225.0304)
 -->
<!-- Title: G Pages: 1 -->
<svg width="1457pt" height="1476pt"
 viewBox="0.00 0.00 1457.00 1476.00" xmlns="http://www.w3.org/2000/svg" xmlns:xlink="http://www.w3.org/1999/xlink">
<g id="graph0" class="graph" transform="scale(1 1) rotate(0) translate(4 1472)">
<title>G</title>
<polygon fill="#ffffff" stroke="transparent" points="-4,4 -4,-1472 1453,-1472 1453,4 -4,4"/>
<g id="clust1" class="cluster">
<title>cluster_api.bilibili.com</title>
<polygon fill="none" stroke="#000000" points="706.2695,-836.0074 706.2695,-1175.0074 1140.2695,-1175.0074 1140.2695,-836.0074 706.2695,-836.0074"/>
<text text-anchor="middle" x="923.2695" y="-1159.8074" font-family="Times,serif" font-size="14.00" fill="#000000">api.bilibili.com</text>
</g>
<g id="clust2" class="cluster">
<title>cluster_api.live.bilibili.com</title>
<polygon fill="none" stroke="#000000" points="639.7278,-600.8933 639.7278,-802.8933 1054.7278,-802.8933 1054.7278,-600.8933 639.7278,-600.8933"/>
<text text-anchor="middle" x="847.2278" y="-787.6933" font-family="Times,serif" font-size="14.00" fill="#000000">api.live.bilibili.com</text>
</g>
<g id="clust3" class="cluster">
<title>cluster_data</title>
<polygon fill="none" stroke="#000000" points="735.4049,-.2157 735.4049,-580.2157 1449.4049,-580.2157 1449.4049,-.2157 735.4049,-.2157"/>
<text text-anchor="middle" x="1092.4049" y="-565.0157" font-family="Times,serif" font-size="14.00" fill="#000000">data</text>
</g>
<g id="clust4" class="cluster">
<title>cluster_input</title>
<polygon fill="none" stroke="#000000" points="210.8407,-702.669 210.8407,-866.669 475.8407,-866.669 475.8407,-702.669 210.8407,-702.669"/>
<text text-anchor="middle" x="343.3407" y="-851.469" font-family="Times,serif" font-size="14.00" fill="#000000">input</text>
</g>
<!-- stat -->
<g id="node1" class="node">
<title>stat</title>
<ellipse fill="none" stroke="#000000" cx="741.0209" cy="-911.6033" rx="27" ry="18"/>
<text text-anchor="middle" x="741.0209" y="-907.4033" font-family="Times,serif" font-size="14.00" fill="#000000">stat</text>
</g>
<!-- follower -->
<g id="node18" class="node">
<title>follower</title>
<ellipse fill="none" stroke="#000000" cx="888.0064" cy="-240.8146" rx="40.1317" ry="18"/>
<text text-anchor="middle" x="888.0064" y="-236.6146" font-family="Times,serif" font-size="14.00" fill="#000000">follower</text>
</g>
<!-- stat&#45;&gt;follower -->
<g id="edge18" class="edge">
<title>stat&#45;&gt;follower</title>
<path fill="none" stroke="#000000" d="M748.8609,-894.0081C761.986,-864.7979 789.508,-804.5854 815.2673,-754.8518 827.7776,-730.6983 831.4947,-724.9615 845.3292,-701.5413 865.2622,-667.7967 880.5632,-664.1107 891.6958,-626.533 923.1127,-520.4864 882.501,-487.3526 897.2636,-377.7398 901.7606,-344.3498 918.4752,-337.7798 915.6782,-304.2047 914.6142,-291.4322 909.6272,-278.291 904.1734,-267.3088"/>
<polygon fill="#000000" stroke="#000000" points="907.1472,-265.4474 899.3474,-258.2771 900.9733,-268.7464 907.1472,-265.4474"/>
</g>
<!-- upstat -->
<g id="node2" class="node">
<title>upstat</title>
<ellipse fill="none" stroke="#000000" cx="764.1146" cy="-1115.7763" rx="31.4636" ry="18"/>
<text text-anchor="middle" x="764.1146" y="-1111.5763" font-family="Times,serif" font-size="14.00" fill="#000000">upstat</text>
</g>
<!-- archiveView -->
<g id="node37" class="node">
<title>archiveView</title>
<ellipse fill="none" stroke="#000000" cx="1083.6906" cy="-411.9136" rx="54.513" ry="18"/>
<text text-anchor="middle" x="1083.6906" y="-407.7136" font-family="Times,serif" font-size="14.00" fill="#000000">archiveView</text>
</g>
<!-- upstat&#45;&gt;archiveView -->
<g id="edge40" class="edge">
<title>upstat&#45;&gt;archiveView</title>
<path fill="none" stroke="#000000" d="M770.2513,-1098.0029C776.6071,-1080.0551 787.1028,-1051.6521 797.8826,-1027.7981 811.0683,-998.6204 826.0228,-995.5572 831.3032,-963.9768 838.8579,-918.7936 803.5895,-906.2321 815.7927,-862.0769 840.3857,-773.0907 898.7265,-779.9432 948.0703,-701.914 1005.4209,-611.2231 1053.4009,-492.3906 1073.5275,-439.4386"/>
<polygon fill="#000000" stroke="#000000" points="1076.8156,-440.6384 1077.0669,-430.0466 1070.2653,-438.1699 1076.8156,-440.6384"/>
</g>
<!-- articleView -->
<g id="node38" class="node">
<title>articleView</title>
<ellipse fill="none" stroke="#000000" cx="991.7178" cy="-77.6161" rx="50.6536" ry="18"/>
<text text-anchor="middle" x="991.7178" y="-73.4161" font-family="Times,serif" font-size="14.00" fill="#000000">articleView</text>
</g>
<!-- upstat&#45;&gt;articleView -->
<g id="edge41" class="edge">
<title>upstat&#45;&gt;articleView</title>
<path fill="none" stroke="#000000" d="M772.7192,-1098.1375C780.8681,-1079.5366 791.5485,-1049.2114 789.2817,-1021.9969 786.923,-993.6793 765.3059,-992.1371 762.7226,-963.8392 760.5459,-939.9948 806.3887,-777.0883 815.2673,-754.8518 825.3539,-729.59 831.4947,-724.9615 845.3292,-701.5413 865.2622,-667.7967 880.5632,-664.1107 891.6958,-626.533 923.1127,-520.4864 875.8821,-486.2558 897.2636,-377.7398 918.1609,-271.6814 959.532,-255.8734 984.4693,-150.6916 987.904,-136.2048 989.7134,-119.7282 990.6657,-106.092"/>
<polygon fill="#000000" stroke="#000000" points="994.1743,-106.0434 991.2602,-95.8572 987.1861,-105.6373 994.1743,-106.0434"/>
</g>
<!-- navnum -->
<g id="node3" class="node">
<title>navnum</title>
<ellipse fill="none" stroke="#000000" cx="1059.7506" cy="-924.6162" rx="38.6955" ry="18"/>
<text text-anchor="middle" x="1059.7506" y="-920.4162" font-family="Times,serif" font-size="14.00" fill="#000000">navnum</text>
</g>
<!-- video -->
<g id="node22" class="node">
<title>video</title>
<ellipse fill="none" stroke="#000000" cx="877.03" cy="-47.7836" rx="29.5104" ry="18"/>
<text text-anchor="middle" x="877.03" y="-43.5836" font-family="Times,serif" font-size="14.00" fill="#000000">video</text>
</g>
<!-- navnum&#45;&gt;video -->
<g id="edge22" class="edge">
<title>navnum&#45;&gt;video</title>
<path fill="none" stroke="#000000" d="M1051.9592,-906.869C1036.052,-870.1551 999.3595,-782.9589 975.8335,-707.2413 931.1629,-563.4702 896.4135,-528.2883 897.2636,-377.7398 897.4539,-344.0489 907.9516,-336.9982 915.6782,-304.2047 922.2907,-276.1399 927.7274,-269.6247 929.6721,-240.857 931.6677,-211.3365 928.6701,-136.0248 918.7108,-108.1634 914.042,-95.1026 905.8039,-82.2285 897.8776,-71.7452"/>
<polygon fill="#000000" stroke="#000000" points="900.6126,-69.5612 891.6618,-63.8926 895.124,-73.9058 900.6126,-69.5612"/>
</g>
<!-- info -->
<g id="node4" class="node">
<title>info</title>
<ellipse fill="none" stroke="#000000" cx="826.4825" cy="-1027.864" rx="27" ry="18"/>
<text text-anchor="middle" x="826.4825" y="-1023.664" font-family="Times,serif" font-size="14.00" fill="#000000">info</text>
</g>
<!-- uname -->
<g id="node19" class="node">
<title>uname</title>
<ellipse fill="none" stroke="#000000" cx="1244.1352" cy="-267.588" rx="33.8596" ry="18"/>
<text text-anchor="middle" x="1244.1352" y="-263.388" font-family="Times,serif" font-size="14.00" fill="#000000">uname</text>
</g>
<!-- info&#45;&gt;uname -->
<g id="edge19" class="edge">
<title>info&#45;&gt;uname</title>
<path fill="none" stroke="#000000" d="M831.9803,-1010.1469C835.5022,-999.9649 840.5701,-987.1362 846.7542,-976.5491 850.7436,-969.7192 852.3459,-968.2951 857.9597,-962.723 908.6558,-912.4038 938.2968,-917.7146 983.5694,-862.4652 1143.462,-667.3364 1183.3051,-602.8659 1243.5485,-357.8932 1248.5327,-337.6253 1248.4918,-314.0165 1247.3043,-296.0222"/>
<polygon fill="#000000" stroke="#000000" points="1250.7788,-295.5665 1246.4768,-285.8845 1243.802,-296.1361 1250.7788,-295.5665"/>
</g>
<!-- sign -->
<g id="node20" class="node">
<title>sign</title>
<ellipse fill="none" stroke="#000000" cx="1020.1687" cy="-172.885" rx="27" ry="18"/>
<text text-anchor="middle" x="1020.1687" y="-168.685" font-family="Times,serif" font-size="14.00" fill="#000000">sign</text>
</g>
<!-- info&#45;&gt;sign -->
<g id="edge20" class="edge">
<title>info&#45;&gt;sign</title>
<path fill="none" stroke="#000000" d="M828.9497,-1009.7094C830.417,-996.9339 831.8885,-979.4268 831.3032,-963.9768 829.5687,-918.1992 819.3612,-907.7482 815.7927,-862.0769 812.0804,-814.5656 803.2796,-800.9756 815.2673,-754.8518 831.9649,-690.6061 872.8403,-690.1789 891.6958,-626.533 923.1127,-520.4864 872.2736,-485.4821 897.2636,-377.7398 914.2676,-304.4283 968.9141,-232.1245 999.2982,-196.2315"/>
<polygon fill="#000000" stroke="#000000" points="1002.2369,-198.1823 1006.1061,-188.3192 996.9307,-193.6167 1002.2369,-198.1823"/>
</g>
<!-- coins -->
<g id="node21" class="node">
<title>coins</title>
<ellipse fill="none" stroke="#000000" cx="772.2862" cy="-293.2642" rx="28.5497" ry="18"/>
<text text-anchor="middle" x="772.2862" y="-289.0642" font-family="Times,serif" font-size="14.00" fill="#000000">coins</text>
</g>
<!-- info&#45;&gt;coins -->
<g id="edge21" class="edge">
<title>info&#45;&gt;coins</title>
<path fill="none" stroke="#000000" d="M828.9497,-1009.7094C830.417,-996.9339 831.8885,-979.4268 831.3032,-963.9768 829.5687,-918.1992 821.2965,-907.5556 815.7927,-862.0769 807.4484,-793.128 825.1576,-771.8377 801.7763,-706.4397 787.3112,-665.9806 759.0756,-667.8416 747.4359,-626.4811 716.5071,-516.5779 747.8948,-483.4395 759.8283,-369.8927 761.54,-353.6053 764.4334,-335.5161 767.0011,-321.0048"/>
<polygon fill="#000000" stroke="#000000" points="770.448,-321.6121 768.7917,-311.1475 763.5607,-320.361 770.448,-321.6121"/>
</g>
<!-- face -->
<g id="node39" class="node">
<title>face</title>
<ellipse fill="none" stroke="#000000" cx="955.8695" cy="-150.6334" rx="27" ry="18"/>
<text text-anchor="middle" x="955.8695" y="-146.4334" font-family="Times,serif" font-size="14.00" fill="#000000">face</text>
</g>
<!-- info&#45;&gt;face -->
<g id="edge42" class="edge">
<title>info&#45;&gt;face</title>
<path fill="none" stroke="#000000" d="M828.9497,-1009.7094C830.417,-996.9339 831.8885,-979.4268 831.3032,-963.9768 829.5687,-918.1992 819.3612,-907.7482 815.7927,-862.0769 812.0804,-814.5656 803.2796,-800.9756 815.2673,-754.8518 831.9649,-690.6061 872.8403,-690.1789 891.6958,-626.533 923.1127,-520.4864 882.108,-487.299 897.2636,-377.7398 897.9578,-372.7218 933.0032,-238.2077 948.5617,-178.6066"/>
<polygon fill="#000000" stroke="#000000" points="952.0017,-179.2853 951.1417,-168.7254 945.2288,-177.5168 952.0017,-179.2853"/>
</g>
<!-- topPhoto -->
<g id="node40" class="node">
<title>topPhoto</title>
<ellipse fill="none" stroke="#000000" cx="1139.908" cy="-25.8227" rx="42.0956" ry="18"/>
<text text-anchor="middle" x="1139.908" y="-21.6227" font-family="Times,serif" font-size="14.00" fill="#000000">topPhoto</text>
</g>
<!-- info&#45;&gt;topPhoto -->
<g id="edge43" class="edge">
<title>info&#45;&gt;topPhoto</title>
<path fill="none" stroke="#000000" d="M831.9803,-1010.1469C835.5022,-999.9649 840.5701,-987.1362 846.7542,-976.5491 850.7436,-969.7192 852.3459,-968.2951 857.9597,-962.723 908.6558,-912.4038 940.5375,-919.4771 983.5694,-862.4652 1044.6115,-781.5918 1140.0376,-411.9844 1140.0465,-411.9364 1162.5132,-291.0465 1164.6525,-258.6962 1158.4782,-135.8914 1157.065,-107.7816 1151.2783,-76.1404 1146.5354,-54.0219"/>
<polygon fill="#000000" stroke="#000000" points="1149.8926,-52.9935 1144.3147,-43.9858 1143.0579,-54.5059 1149.8926,-52.9935"/>
</g>
<!-- view -->
<g id="node5" class="node">
<title>view</title>
<ellipse fill="none" stroke="#000000" cx="1071.6588" cy="-1090.9159" rx="27.0958" ry="18"/>
<text text-anchor="middle" x="1071.6588" y="-1086.7159" font-family="Times,serif" font-size="14.00" fill="#000000">view</text>
</g>
<!-- cids -->
<g id="node43" class="node">
<title>cids</title>
<ellipse fill="none" stroke="#000000" cx="1269.892" cy="-438.245" rx="27" ry="18"/>
<text text-anchor="middle" x="1269.892" y="-434.045" font-family="Times,serif" font-size="14.00" fill="#000000">cids</text>
</g>
<!-- view&#45;&gt;cids -->
<g id="edge46" class="edge">
<title>view&#45;&gt;cids</title>
<path fill="none" stroke="#000000" d="M1083.6872,-1074.669C1097.6566,-1055.0899 1120.5093,-1020.7509 1134.0454,-988.1893 1213.3488,-797.422 1253.9751,-549.4287 1266.0006,-466.5797"/>
<polygon fill="#000000" stroke="#000000" points="1269.4998,-466.8336 1267.4483,-456.4393 1262.57,-465.8443 1269.4998,-466.8336"/>
</g>
<!-- mid -->
<g id="node44" class="node">
<title>mid</title>
<ellipse fill="none" stroke="#000000" cx="318.7251" cy="-728.6671" rx="27" ry="18"/>
<text text-anchor="middle" x="318.7251" y="-724.4671" font-family="Times,serif" font-size="14.00" fill="#000000">mid</text>
</g>
<!-- view&#45;&gt;mid -->
<g id="edge48" class="edge">
<title>view&#45;&gt;mid</title>
<path fill="none" stroke="#000000" stroke-dasharray="5,2" d="M1044.9387,-1086.9863C1015.7296,-1082.1886 967.858,-1072.8416 928.629,-1058.0937 889.9594,-1043.5561 883.5163,-1032.9363 846.7735,-1014.0513 814.1538,-997.2854 805.3264,-994.4341 772.6809,-977.7185 614.9154,-896.9376 575.1628,-877.1421 420.9084,-789.8434 395.7848,-775.625 367.6718,-758.7192 347.3027,-746.2865"/>
<polygon fill="#000000" stroke="#000000" points="348.8837,-743.1506 338.5275,-740.9146 345.2289,-749.1208 348.8837,-743.1506"/>
</g>
<!-- cid -->
<g id="node46" class="node">
<title>cid</title>
<ellipse fill="none" stroke="#000000" cx="245.771" cy="-801.153" rx="27" ry="18"/>
<text text-anchor="middle" x="245.771" y="-796.953" font-family="Times,serif" font-size="14.00" fill="#000000">cid</text>
</g>
<!-- view&#45;&gt;cid -->
<g id="edge51" class="edge">
<title>view&#45;&gt;cid</title>
<path fill="none" stroke="#000000" d="M1044.9387,-1086.9863C1015.7296,-1082.1886 967.858,-1072.8416 928.629,-1058.0937 889.9594,-1043.5561 884.5611,-1030.7478 846.7735,-1014.0513 624.9797,-916.0516 560.3214,-914.9518 332.1516,-832.8848 314.5975,-826.5711 295.086,-819.4154 279.0548,-813.4993"/>
<polygon fill="#000000" stroke="#000000" points="280.1647,-810.1782 269.5714,-809.9945 277.738,-816.7441 280.1647,-810.1782"/>
</g>
<!-- list -->
<g id="node6" class="node">
<title>list</title>
<ellipse fill="none" stroke="#000000" cx="760.6817" cy="-1021.9965" rx="27" ry="18"/>
<text text-anchor="middle" x="760.6817" y="-1017.7965" font-family="Times,serif" font-size="14.00" fill="#000000">list</text>
</g>
<!-- getSubmitVideos -->
<g id="node7" class="node">
<title>getSubmitVideos</title>
<ellipse fill="none" stroke="#000000" cx="944.8418" cy="-1126.8696" rx="70.984" ry="18"/>
<text text-anchor="middle" x="944.8418" y="-1122.6696" font-family="Times,serif" font-size="14.00" fill="#000000">getSubmitVideos</text>
</g>
<!-- getSubmitVideosPage -->
<g id="node25" class="node">
<title>getSubmitVideosPage</title>
<ellipse fill="none" stroke="#000000" cx="1018.3607" cy="-310.2509" rx="88.3651" ry="18"/>
<text text-anchor="middle" x="1018.3607" y="-306.0509" font-family="Times,serif" font-size="14.00" fill="#000000">getSubmitVideosPage</text>
</g>
<!-- getSubmitVideos&#45;&gt;getSubmitVideosPage -->
<g id="edge25" class="edge">
<title>getSubmitVideos&#45;&gt;getSubmitVideosPage</title>
<path fill="none" stroke="#000000" d="M933.1818,-1108.9645C923.7485,-1092.7402 912.0185,-1067.8239 911.9826,-1044.1917 911.8509,-957.3837 969.5052,-948.1264 983.5694,-862.4652 994.7604,-794.3037 968.9767,-775.9741 975.8335,-707.2413 985.2373,-612.9786 1018.994,-594.9265 1028.2892,-500.6531 1031.3112,-470.0043 1024.6941,-383.311 1020.8542,-338.2424"/>
<polygon fill="#000000" stroke="#000000" points="1024.3392,-337.9172 1019.9906,-328.256 1017.3652,-338.5204 1024.3392,-337.9172"/>
</g>
<!-- getAllSubmitVideos -->
<g id="node8" class="node">
<title>getAllSubmitVideos</title>
<ellipse fill="none" stroke="#000000" cx="899.681" cy="-862.271" rx="82.0855" ry="18"/>
<text text-anchor="middle" x="899.681" y="-858.071" font-family="Times,serif" font-size="14.00" fill="#000000">getAllSubmitVideos</text>
</g>
<!-- allVideos -->
<g id="node27" class="node">
<title>allVideos</title>
<ellipse fill="none" stroke="#000000" cx="983.2183" cy="-500.4784" rx="43.4456" ry="18"/>
<text text-anchor="middle" x="983.2183" y="-496.2784" font-family="Times,serif" font-size="14.00" fill="#000000">allVideos</text>
</g>
<!-- getAllSubmitVideos&#45;&gt;allVideos -->
<g id="edge27" class="edge">
<title>getAllSubmitVideos&#45;&gt;allVideos</title>
<path fill="none" stroke="#000000" d="M905.9174,-844.1881C915.9123,-814.6926 935.6533,-754.2588 948.0703,-701.914 962.5625,-640.8204 973.8071,-567.9917 979.3738,-528.8063"/>
<polygon fill="#000000" stroke="#000000" points="982.8706,-529.0727 980.7913,-518.6839 975.9382,-528.1019 982.8706,-529.0727"/>
</g>
<!-- getFollowers -->
<g id="node9" class="node">
<title>getFollowers</title>
<ellipse fill="none" stroke="#000000" cx="969.8656" cy="-1044.3388" rx="56.07" ry="18"/>
<text text-anchor="middle" x="969.8656" y="-1040.1388" font-family="Times,serif" font-size="14.00" fill="#000000">getFollowers</text>
</g>
<!-- getFollowersPage -->
<g id="node28" class="node">
<title>getFollowersPage</title>
<ellipse fill="none" stroke="#000000" cx="1251.7112" cy="-184.2042" rx="73.4498" ry="18"/>
<text text-anchor="middle" x="1251.7112" y="-180.0042" font-family="Times,serif" font-size="14.00" fill="#000000">getFollowersPage</text>
</g>
<!-- getFollowers&#45;&gt;getFollowersPage -->
<g id="edge28" class="edge">
<title>getFollowers&#45;&gt;getFollowersPage</title>
<path fill="none" stroke="#000000" d="M974.8862,-1026.2668C995.7323,-951.1107 1077.3022,-655.8361 1140.0465,-411.9364 1146.2307,-387.897 1144.195,-380.7647 1153.3609,-357.6969 1175.2143,-302.6979 1211.7311,-243.7982 1233.5873,-210.7261"/>
<polygon fill="#000000" stroke="#000000" points="1236.6991,-212.3685 1239.3387,-202.1077 1230.8765,-208.4828 1236.6991,-212.3685"/>
</g>
<!-- getAllFollowers -->
<g id="node10" class="node">
<title>getAllFollowers</title>
<ellipse fill="none" stroke="#000000" cx="1064.8608" cy="-988.1175" rx="67.6702" ry="18"/>
<text text-anchor="middle" x="1064.8608" y="-983.9175" font-family="Times,serif" font-size="14.00" fill="#000000">getAllFollowers</text>
</g>
<!-- allFollowers -->
<g id="node29" class="node">
<title>allFollowers</title>
<ellipse fill="none" stroke="#000000" cx="1372.3867" cy="-232.7444" rx="54.1403" ry="18"/>
<text text-anchor="middle" x="1372.3867" y="-228.5444" font-family="Times,serif" font-size="14.00" fill="#000000">allFollowers</text>
</g>
<!-- getAllFollowers&#45;&gt;allFollowers -->
<g id="edge29" class="edge">
<title>getAllFollowers&#45;&gt;allFollowers</title>
<path fill="none" stroke="#000000" d="M1076.1047,-970.361C1083.6079,-957.9501 1093.2828,-940.7962 1099.9468,-924.7798 1201.2034,-681.4168 1143.4204,-585.3243 1279.3643,-359.4976 1301.4982,-322.7293 1331.5324,-283.3134 1351.4138,-258.371"/>
<polygon fill="#000000" stroke="#000000" points="1354.2085,-260.4805 1357.7408,-250.4919 1348.7505,-256.0976 1354.2085,-260.4805"/>
</g>
<!-- search -->
<g id="node11" class="node">
<title>search</title>
<ellipse fill="none" stroke="#000000" cx="797.0129" cy="-963.908" rx="32.8821" ry="18"/>
<text text-anchor="middle" x="797.0129" y="-959.708" font-family="Times,serif" font-size="14.00" fill="#000000">search</text>
</g>
<!-- search&#45;&gt;mid -->
<g id="edge49" class="edge">
<title>search&#45;&gt;mid</title>
<path fill="none" stroke="#000000" stroke-dasharray="5,2" d="M770.5585,-952.8154C708.489,-926.5418 549.069,-857.6205 420.9084,-789.8434 395.3893,-776.3478 367.3121,-759.3764 347.0575,-746.7346"/>
<polygon fill="#000000" stroke="#000000" points="348.6689,-743.6137 338.339,-741.2589 344.9458,-749.5415 348.6689,-743.6137"/>
</g>
<!-- _notice -->
<g id="node12" class="node">
<title>_notice</title>
<ellipse fill="none" stroke="#000000" cx="884.4899" cy="-976.6615" rx="36.2732" ry="18"/>
<text text-anchor="middle" x="884.4899" y="-972.4615" font-family="Times,serif" font-size="14.00" fill="#000000">_notice</text>
</g>
<!-- notice -->
<g id="node36" class="node">
<title>notice</title>
<ellipse fill="none" stroke="#000000" cx="793.1415" cy="-370.066" rx="31.9306" ry="18"/>
<text text-anchor="middle" x="793.1415" y="-365.866" font-family="Times,serif" font-size="14.00" fill="#000000">notice</text>
</g>
<!-- _notice&#45;&gt;notice -->
<g id="edge39" class="edge">
<title>_notice&#45;&gt;notice</title>
<path fill="none" stroke="#000000" d="M870.8621,-959.6257C854.6029,-938.2454 828.0787,-899.7885 815.7927,-862.0769 794.2788,-796.041 825.1576,-771.8377 801.7763,-706.4397 787.3112,-665.9806 756.4036,-668.5019 747.4359,-626.4811 729.6754,-543.2584 762.7268,-443.8254 781.482,-396.9892"/>
<polygon fill="#000000" stroke="#000000" points="784.7945,-398.1361 785.3538,-387.5561 778.3188,-395.4781 784.7945,-398.1361"/>
</g>
<!-- getRoomInfoOld -->
<g id="node13" class="node">
<title>getRoomInfoOld</title>
<ellipse fill="none" stroke="#000000" cx="819.5659" cy="-626.507" rx="70.56" ry="18"/>
<text text-anchor="middle" x="819.5659" y="-622.307" font-family="Times,serif" font-size="14.00" fill="#000000">getRoomInfoOld</text>
</g>
<!-- roomStatus -->
<g id="node31" class="node">
<title>roomStatus</title>
<ellipse fill="none" stroke="#000000" cx="1287.2089" cy="-99.1228" rx="50.2896" ry="18"/>
<text text-anchor="middle" x="1287.2089" y="-94.9228" font-family="Times,serif" font-size="14.00" fill="#000000">roomStatus</text>
</g>
<!-- getRoomInfoOld&#45;&gt;roomStatus -->
<g id="edge31" class="edge">
<title>getRoomInfoOld&#45;&gt;roomStatus</title>
<path fill="none" stroke="#000000" d="M836.3912,-608.5949C894.5529,-546.6063 1084.8249,-343.2035 1108.1391,-310.4337 1145.1683,-258.3866 1135.1857,-232.6862 1176.6376,-184.0878 1198.3699,-158.6089 1228.9,-135.8574 1252.3751,-120.3249"/>
<polygon fill="#000000" stroke="#000000" points="1254.5085,-123.1129 1260.9936,-114.7347 1250.6993,-117.2401 1254.5085,-123.1129"/>
</g>
<!-- roundStatus -->
<g id="node32" class="node">
<title>roundStatus</title>
<ellipse fill="none" stroke="#000000" cx="1291.2384" cy="-55.0325" rx="52.2192" ry="18"/>
<text text-anchor="middle" x="1291.2384" y="-50.8325" font-family="Times,serif" font-size="14.00" fill="#000000">roundStatus</text>
</g>
<!-- getRoomInfoOld&#45;&gt;roundStatus -->
<g id="edge33" class="edge">
<title>getRoomInfoOld&#45;&gt;roundStatus</title>
<path fill="none" stroke="#000000" d="M836.3912,-608.5949C894.5529,-546.6063 1084.8249,-343.2035 1108.1391,-310.4337 1145.1683,-258.3866 1143.2604,-238.549 1176.6376,-184.0878 1205.3362,-137.2608 1208.1304,-119.8697 1250.6995,-85.1675 1253.7476,-82.6827 1256.9718,-80.1437 1260.2168,-77.6458"/>
<polygon fill="#000000" stroke="#000000" points="1262.3759,-80.4012 1268.2376,-71.5755 1258.1516,-74.8195 1262.3759,-80.4012"/>
</g>
<!-- liveStatus -->
<g id="node33" class="node">
<title>liveStatus</title>
<ellipse fill="none" stroke="#000000" cx="869.092" cy="-304.0161" rx="44.9768" ry="18"/>
<text text-anchor="middle" x="869.092" y="-299.8161" font-family="Times,serif" font-size="14.00" fill="#000000">liveStatus</text>
</g>
<!-- getRoomInfoOld&#45;&gt;liveStatus -->
<g id="edge35" class="edge">
<title>getRoomInfoOld&#45;&gt;liveStatus</title>
<path fill="none" stroke="#000000" d="M822.3705,-608.2445C830.6109,-554.5867 854.7919,-397.1314 864.7403,-332.3524"/>
<polygon fill="#000000" stroke="#000000" points="868.2595,-332.4937 866.3181,-322.0783 861.3406,-331.4311 868.2595,-332.4937"/>
</g>
<!-- title -->
<g id="node34" class="node">
<title>title</title>
<ellipse fill="none" stroke="#000000" cx="1129.8782" cy="-135.889" rx="27" ry="18"/>
<text text-anchor="middle" x="1129.8782" y="-131.689" font-family="Times,serif" font-size="14.00" fill="#000000">title</text>
</g>
<!-- getRoomInfoOld&#45;&gt;title -->
<g id="edge36" class="edge">
<title>getRoomInfoOld&#45;&gt;title</title>
<path fill="none" stroke="#000000" d="M822.0165,-608.3559C829.6895,-557.0412 857.144,-408.2754 928.5822,-310.0681 978.0735,-242.0316 1058.973,-182.6767 1101.5812,-154.0628"/>
<polygon fill="#000000" stroke="#000000" points="1103.6702,-156.8771 1110.0671,-148.4314 1099.7996,-151.0446 1103.6702,-156.8771"/>
</g>
<!-- online -->
<g id="node35" class="node">
<title>online</title>
<ellipse fill="none" stroke="#000000" cx="884.8996" cy="-108.1417" rx="32.4237" ry="18"/>
<text text-anchor="middle" x="884.8996" y="-103.9417" font-family="Times,serif" font-size="14.00" fill="#000000">online</text>
</g>
<!-- getRoomInfoOld&#45;&gt;online -->
<g id="edge38" class="edge">
<title>getRoomInfoOld&#45;&gt;online</title>
<path fill="none" stroke="#000000" d="M820.5846,-608.4895C822.833,-566.6551 827.9093,-459.6865 826.4548,-370.2393 825.9741,-340.6747 821.8608,-333.3889 822.5057,-303.8274 823.653,-251.2396 817.2515,-235.7344 834.6765,-186.1042 841.4982,-166.6746 854.0394,-147.1995 864.8825,-132.574"/>
<polygon fill="#000000" stroke="#000000" points="867.7173,-134.6289 871.0145,-124.5601 862.158,-130.3751 867.7173,-134.6289"/>
</g>
<!-- roomid -->
<g id="node47" class="node">
<title>roomid</title>
<ellipse fill="none" stroke="#000000" cx="358.6965" cy="-819.1333" rx="35.806" ry="18"/>
<text text-anchor="middle" x="358.6965" y="-814.9333" font-family="Times,serif" font-size="14.00" fill="#000000">roomid</text>
</g>
<!-- getRoomInfoOld&#45;&gt;roomid -->
<g id="edge53" class="edge">
<title>getRoomInfoOld&#45;&gt;roomid</title>
<path fill="none" stroke="#000000" d="M783.4682,-641.9745C752.8229,-655.1838 707.731,-674.8042 668.6729,-692.5291 575.9516,-734.6068 556.723,-754.3538 461.354,-790.0264 441.7928,-797.3432 419.5513,-803.8605 400.7839,-808.8635"/>
<polygon fill="#000000" stroke="#000000" points="399.8278,-805.4958 391.0374,-811.4101 401.5974,-812.2684 399.8278,-805.4958"/>
</g>
<!-- topList -->
<g id="node14" class="node">
<title>topList</title>
<ellipse fill="none" stroke="#000000" cx="852.0321" cy="-754.8644" rx="35.3303" ry="18"/>
<text text-anchor="middle" x="852.0321" y="-750.6644" font-family="Times,serif" font-size="14.00" fill="#000000">topList</text>
</g>
<!-- guardNum -->
<g id="node23" class="node">
<title>guardNum</title>
<ellipse fill="none" stroke="#000000" cx="1328.8933" cy="-359.4989" rx="47.8582" ry="18"/>
<text text-anchor="middle" x="1328.8933" y="-355.2989" font-family="Times,serif" font-size="14.00" fill="#000000">guardNum</text>
</g>
<!-- topList&#45;&gt;guardNum -->
<g id="edge23" class="edge">
<title>topList&#45;&gt;guardNum</title>
<path fill="none" stroke="#000000" d="M879.9528,-743.6223C895.9803,-736.6127 916.142,-726.8262 932.6788,-715.7181 940.3065,-710.5944 941.2689,-708.0926 948.0703,-701.914 1082.9262,-579.4061 1112.1675,-543.8001 1249.7325,-424.3422 1266.1433,-410.0914 1284.9483,-394.6519 1300.111,-382.4146"/>
<polygon fill="#000000" stroke="#000000" points="1302.5217,-384.9674 1308.1217,-375.9735 1298.1352,-379.5122 1302.5217,-384.9674"/>
</g>
<!-- topListPage -->
<g id="node24" class="node">
<title>topListPage</title>
<ellipse fill="none" stroke="#000000" cx="1069.6421" cy="-229.6077" rx="52.2106" ry="18"/>
<text text-anchor="middle" x="1069.6421" y="-225.4077" font-family="Times,serif" font-size="14.00" fill="#000000">topListPage</text>
</g>
<!-- topList&#45;&gt;topListPage -->
<g id="edge24" class="edge">
<title>topList&#45;&gt;topListPage</title>
<path fill="none" stroke="#000000" d="M846.7757,-736.9551C844.465,-726.5417 842.7893,-713.2109 845.3292,-701.5413 853.6642,-663.2457 874.5379,-661.7698 891.6958,-626.533 917.8667,-572.7862 907.3397,-551.534 938.1473,-500.3038 967.3331,-451.7704 1100.0763,-366.4899 1108.1391,-310.4337 1110.9693,-290.7574 1101.3626,-270.5673 1091.0395,-255.2881"/>
<polygon fill="#000000" stroke="#000000" points="1093.6665,-252.9482 1084.9673,-246.9004 1087.9964,-257.0531 1093.6665,-252.9482"/>
</g>
<!-- fullTopList -->
<g id="node15" class="node">
<title>fullTopList</title>
<ellipse fill="none" stroke="#000000" cx="896.6997" cy="-701.7276" rx="49.5468" ry="18"/>
<text text-anchor="middle" x="896.6997" y="-697.5276" font-family="Times,serif" font-size="14.00" fill="#000000">fullTopList</text>
</g>
<!-- guards -->
<g id="node26" class="node">
<title>guards</title>
<ellipse fill="none" stroke="#000000" cx="869.9599" cy="-186.1709" rx="33.8683" ry="18"/>
<text text-anchor="middle" x="869.9599" y="-181.9709" font-family="Times,serif" font-size="14.00" fill="#000000">guards</text>
</g>
<!-- fullTopList&#45;&gt;guards -->
<g id="edge26" class="edge">
<title>fullTopList&#45;&gt;guards</title>
<path fill="none" stroke="#000000" d="M896.2333,-683.7249C895.6628,-668.4448 894.4116,-645.9694 891.6958,-626.533 881.5465,-553.8965 817.0032,-376.9629 822.5057,-303.8274 825.0183,-270.4321 841.2868,-235.2007 854.0843,-212.0954"/>
<polygon fill="#000000" stroke="#000000" points="857.2041,-213.6903 859.1312,-203.2722 851.1279,-210.2147 857.2041,-213.6903"/>
</g>
<!-- getAnchorInRoom -->
<g id="node16" class="node">
<title>getAnchorInRoom</title>
<ellipse fill="none" stroke="#000000" cx="723.7565" cy="-706.4096" rx="76.3398" ry="18"/>
<text text-anchor="middle" x="723.7565" y="-702.2096" font-family="Times,serif" font-size="14.00" fill="#000000">getAnchorInRoom</text>
</g>
<!-- anchorScore -->
<g id="node41" class="node">
<title>anchorScore</title>
<ellipse fill="none" stroke="#000000" cx="953.1657" cy="-377.8234" rx="54.1058" ry="18"/>
<text text-anchor="middle" x="953.1657" y="-373.6234" font-family="Times,serif" font-size="14.00" fill="#000000">anchorScore</text>
</g>
<!-- getAnchorInRoom&#45;&gt;anchorScore -->
<g id="edge44" class="edge">
<title>getAnchorInRoom&#45;&gt;anchorScore</title>
<path fill="none" stroke="#000000" d="M726.9793,-688.1473C730.4309,-671.4034 736.8863,-646.2782 747.4359,-626.4811 796.7778,-533.888 884.0112,-443.7088 927.3026,-401.9542"/>
<polygon fill="#000000" stroke="#000000" points="929.8004,-404.4083 934.6075,-394.9668 924.9617,-399.3499 929.8004,-404.4083"/>
</g>
<!-- getAnchorInRoom&#45;&gt;mid -->
<g id="edge47" class="edge">
<title>getAnchorInRoom&#45;&gt;mid</title>
<path fill="none" stroke="#000000" stroke-dasharray="5,2" d="M648.9955,-710.5179C562.1697,-715.2892 422.3896,-722.9705 356.0194,-726.6177"/>
<polygon fill="#000000" stroke="#000000" points="355.4321,-723.1446 345.6392,-727.1881 355.8162,-730.134 355.4321,-723.1446"/>
</g>
<!-- rankdb -->
<g id="node17" class="node">
<title>rankdb</title>
<ellipse fill="none" stroke="#000000" cx="1012.0968" cy="-707.3558" rx="34.8285" ry="18"/>
<text text-anchor="middle" x="1012.0968" y="-703.1558" font-family="Times,serif" font-size="14.00" fill="#000000">rankdb</text>
</g>
<!-- areaRank -->
<g id="node42" class="node">
<title>areaRank</title>
<ellipse fill="none" stroke="#000000" cx="1198.4547" cy="-357.7951" rx="43.4887" ry="18"/>
<text text-anchor="middle" x="1198.4547" y="-353.5951" font-family="Times,serif" font-size="14.00" fill="#000000">areaRank</text>
</g>
<!-- rankdb&#45;&gt;areaRank -->
<g id="edge45" class="edge">
<title>rankdb&#45;&gt;areaRank</title>
<path fill="none" stroke="#000000" d="M1021.5945,-689.5405C1052.1266,-632.2699 1147.8843,-452.6525 1184.2516,-384.4364"/>
<polygon fill="#000000" stroke="#000000" points="1187.3601,-386.0454 1188.9761,-375.5745 1181.1831,-382.7523 1187.3601,-386.0454"/>
</g>
<!-- uname&#45;&gt;search -->
<g id="edge16" class="edge">
<title>uname&#45;&gt;search</title>
<path fill="none" stroke="#000000" d="M1223.8274,-282.0789C1202.8745,-298.1446 1170.858,-326.0118 1153.3609,-357.6969 1141.3616,-379.426 1150.0035,-389.1989 1140.0465,-411.9364 1078.0462,-553.5193 1040.0721,-577.7149 948.0703,-701.914 893.1167,-776.0993 854.8113,-778.4055 815.7927,-862.0769 804.9231,-885.3856 800.3373,-914.4446 798.4065,-935.5476"/>
<polygon fill="#000000" stroke="#000000" points="794.8964,-935.5464 797.6197,-945.7853 801.8758,-936.0829 794.8964,-935.5464"/>
</g>
<!-- topListPage&#45;&gt;fullTopList -->
<g id="edge60" class="edge">
<title>topListPage&#45;&gt;fullTopList</title>
<path fill="none" stroke="#000000" d="M1084.6372,-246.8578C1096.5656,-262.5518 1110.845,-286.8079 1108.1391,-310.4337 1101.5799,-367.7051 1046.0638,-357.3723 1027.3346,-411.8907 1014.5166,-449.2026 1039.3575,-462.7852 1028.2892,-500.6531 1007.3969,-572.1321 951.6635,-641.6897 919.8334,-677.2537"/>
<polygon fill="#000000" stroke="#000000" points="917.1794,-674.97 913.047,-684.7257 922.3612,-679.6763 917.1794,-674.97"/>
</g>
<!-- getSubmitVideosPage&#45;&gt;getAllSubmitVideos -->
<g id="edge9" class="edge">
<title>getSubmitVideosPage&#45;&gt;getAllSubmitVideos</title>
<path fill="none" stroke="#000000" d="M1020.2033,-328.2819C1024.2311,-369.1312 1033.0894,-467.7349 1028.2892,-500.6531 1009.2541,-631.1918 942.7433,-776.1003 913.5722,-835.0807"/>
<polygon fill="#000000" stroke="#000000" points="910.3973,-833.6044 909.0622,-844.1148 916.6603,-836.7311 910.3973,-833.6044"/>
</g>
<!-- guardLevel -->
<g id="node30" class="node">
<title>guardLevel</title>
<ellipse fill="none" stroke="#000000" cx="1391.4558" cy="-531.7675" rx="50.2465" ry="18"/>
<text text-anchor="middle" x="1391.4558" y="-527.5675" font-family="Times,serif" font-size="14.00" fill="#000000">guardLevel</text>
</g>
<!-- guards&#45;&gt;guardLevel -->
<g id="edge30" class="edge">
<title>guards&#45;&gt;guardLevel</title>
<path fill="none" stroke="#000000" d="M894.5693,-198.779C934.2261,-219.1353 1014.6817,-260.5943 1082.4357,-296.5215 1093.9119,-302.6068 1097.8204,-302.5434 1108.1391,-310.4337 1111.8669,-313.2842 1163.1031,-368.2541 1166.4088,-371.5848 1202.6487,-408.0976 1208.353,-421.3235 1249.6052,-452.0606 1281.9,-476.1235 1322.2195,-498.1059 1351.6091,-512.8618"/>
<polygon fill="#000000" stroke="#000000" points="1350.2293,-516.0843 1360.7431,-517.3923 1353.3398,-509.8133 1350.2293,-516.0843"/>
</g>
<!-- getFollowersPage&#45;&gt;getAllFollowers -->
<g id="edge14" class="edge">
<title>getFollowersPage&#45;&gt;getAllFollowers</title>
<path fill="none" stroke="#000000" d="M1238.0075,-202.2462C1215.849,-232.5163 1172.6882,-296.2661 1153.3609,-357.6969 1115.3734,-478.4383 1137.3396,-803.8529 1099.9468,-924.7798 1096.0011,-937.5399 1089.2869,-950.6185 1082.7818,-961.5532"/>
<polygon fill="#000000" stroke="#000000" points="1079.7278,-959.8369 1077.4322,-970.1801 1085.6768,-963.5261 1079.7278,-959.8369"/>
</g>
<!-- roomStatus&#45;&gt;roundStatus -->
<g id="edge32" class="edge">
<title>roomStatus&#45;&gt;roundStatus</title>
<path fill="none" stroke="#000000" d="M1288.8711,-80.935C1288.8858,-80.7749 1288.9004,-80.6145 1288.9151,-80.4539"/>
<polygon fill="#000000" stroke="#000000" points="1292.1552,-83.4556 1289.58,-73.1785 1285.1843,-82.8184 1292.1552,-83.4556"/>
</g>
<!-- roomStatus&#45;&gt;liveStatus -->
<g id="edge34" class="edge">
<title>roomStatus&#45;&gt;liveStatus</title>
<path fill="none" stroke="#000000" d="M1254.6014,-113.1264C1205.6987,-134.3232 1110.6716,-176.2704 1031.7095,-215.6692 986.9039,-238.0252 936.3837,-265.904 903.7122,-284.2957"/>
<polygon fill="#000000" stroke="#000000" points="901.978,-281.2555 894.9901,-289.2191 905.419,-287.3514 901.978,-281.2555"/>
</g>
<!-- liveStatus&#45;&gt;online -->
<g id="edge37" class="edge">
<title>liveStatus&#45;&gt;online</title>
<path fill="none" stroke="#000000" d="M858.4901,-286.3132C846.0862,-263.4835 828.0341,-222.3934 834.6765,-186.1042 838.3841,-165.8484 850.9229,-146.3726 862.5433,-131.9533"/>
<polygon fill="#000000" stroke="#000000" points="865.4177,-133.9748 869.2054,-124.0802 860.074,-129.4531 865.4177,-133.9748"/>
</g>
<!-- mid&#45;&gt;stat -->
<g id="edge1" class="edge">
<title>mid&#45;&gt;stat</title>
<path fill="none" stroke="#000000" d="M337.7477,-741.4435C357.8549,-754.6134 390.7685,-775.2298 420.9084,-789.8434 521.5555,-838.6431 647.1391,-881.4714 706.6636,-900.7534"/>
<polygon fill="#000000" stroke="#000000" points="705.7219,-904.1271 716.3134,-903.8601 707.8671,-897.4639 705.7219,-904.1271"/>
</g>
<!-- mid&#45;&gt;upstat -->
<g id="edge2" class="edge">
<title>mid&#45;&gt;upstat</title>
<path fill="none" stroke="#000000" d="M335.372,-743.1357C403.0089,-801.9221 657.4977,-1023.1105 738.9046,-1093.8651"/>
<polygon fill="#000000" stroke="#000000" points="736.8213,-1096.6916 746.665,-1100.61 741.4133,-1091.4083 736.8213,-1096.6916"/>
</g>
<!-- mid&#45;&gt;navnum -->
<g id="edge3" class="edge">
<title>mid&#45;&gt;navnum</title>
<path fill="none" stroke="#000000" d="M344.6897,-734.0876C369.6037,-739.3979 408.2382,-747.9184 441.4534,-756.4763 450.489,-758.8043 452.6714,-759.6692 461.621,-762.3084 629.9534,-811.9489 669.942,-831.7594 839.7755,-875.9924 899.645,-891.5854 969.5122,-906.4727 1014.165,-915.5733"/>
<polygon fill="#000000" stroke="#000000" points="1013.628,-919.0356 1024.1241,-917.5922 1015.0188,-912.1751 1013.628,-919.0356"/>
</g>
<!-- mid&#45;&gt;info -->
<g id="edge4" class="edge">
<title>mid&#45;&gt;info</title>
<path fill="none" stroke="#000000" d="M339.0507,-740.907C359.6493,-753.2946 392.4501,-772.9743 420.9084,-789.8434 561.4324,-873.1415 730.0529,-971.6338 797.0043,-1010.6825"/>
<polygon fill="#000000" stroke="#000000" points="795.3615,-1013.7762 805.7632,-1015.7902 798.8878,-1007.7292 795.3615,-1013.7762"/>
</g>
<!-- mid&#45;&gt;getSubmitVideos -->
<g id="edge7" class="edge">
<title>mid&#45;&gt;getSubmitVideos</title>
<path fill="none" stroke="#000000" d="M338.9457,-740.824C427.3922,-794.0079 776.044,-1003.749 780.9053,-1008.1375 794.7623,-1020.6466 792.379,-1029.1182 806.1914,-1041.6766 835.145,-1068.0015 873.3561,-1090.7794 902.3312,-1106.1421"/>
<polygon fill="#000000" stroke="#000000" points="900.9053,-1109.3458 911.3907,-1110.8646 904.141,-1103.1385 900.9053,-1109.3458"/>
</g>
<!-- mid&#45;&gt;getAllSubmitVideos -->
<g id="edge10" class="edge">
<title>mid&#45;&gt;getAllSubmitVideos</title>
<path fill="none" stroke="#000000" d="M344.5905,-734.4958C369.4326,-740.1016 408.017,-748.8283 441.4534,-756.4763 580.7413,-788.3362 743.7338,-826.0773 832.928,-846.7695"/>
<polygon fill="#000000" stroke="#000000" points="832.3737,-850.2338 842.9061,-849.0847 833.9559,-843.415 832.3737,-850.2338"/>
</g>
<!-- mid&#45;&gt;getFollowers -->
<g id="edge11" class="edge">
<title>mid&#45;&gt;getFollowers</title>
<path fill="none" stroke="#000000" d="M338.4053,-741.2283C400.307,-780.3462 597.3508,-901.8941 772.6809,-977.7185 820.785,-998.522 877.6766,-1017.1373 917.9569,-1029.3661"/>
<polygon fill="#000000" stroke="#000000" points="916.9831,-1032.728 927.5675,-1032.2583 919.0004,-1026.025 916.9831,-1032.728"/>
</g>
<!-- mid&#45;&gt;getAllFollowers -->
<g id="edge13" class="edge">
<title>mid&#45;&gt;getAllFollowers</title>
<path fill="none" stroke="#000000" d="M344.9238,-733.3854C373.8784,-738.933 421.7009,-749.0863 461.621,-762.3084 671.6666,-831.8782 917.3933,-928.8035 1018.162,-969.2359"/>
<polygon fill="#000000" stroke="#000000" points="1016.8713,-972.4892 1027.4553,-972.9696 1019.4809,-965.9938 1016.8713,-972.4892"/>
</g>
<!-- mid&#45;&gt;_notice -->
<g id="edge17" class="edge">
<title>mid&#45;&gt;_notice</title>
<path fill="none" stroke="#000000" d="M338.311,-741.3122C358.6016,-754.1921 391.4131,-774.4098 420.9084,-789.8434 558.7059,-861.9469 590.4435,-892.2532 741.009,-931.2033 776.5191,-940.3895 786.4872,-938.6828 821.3449,-950.0975 830.3093,-953.033 839.7801,-956.6993 848.583,-960.3619"/>
<polygon fill="#000000" stroke="#000000" points="847.246,-963.5966 857.8175,-964.2999 849.9919,-957.1577 847.246,-963.5966"/>
</g>
<!-- mid&#45;&gt;getRoomInfoOld -->
<g id="edge54" class="edge">
<title>mid&#45;&gt;getRoomInfoOld</title>
<path fill="none" stroke="#000000" d="M344.5979,-723.3896C420.2562,-707.9571 642.773,-662.5687 754.295,-639.8208"/>
<polygon fill="#000000" stroke="#000000" points="755.3086,-643.1862 764.4073,-637.7581 753.9096,-636.3274 755.3086,-643.1862"/>
</g>
<!-- mid&#45;&gt;topList -->
<g id="edge56" class="edge">
<title>mid&#45;&gt;topList</title>
<path fill="none" stroke="#000000" d="M345.9051,-730.0022C431.9763,-734.2303 699.1774,-747.3558 806.616,-752.6335"/>
<polygon fill="#000000" stroke="#000000" points="806.6453,-756.139 816.805,-753.134 806.9888,-749.1475 806.6453,-756.139"/>
</g>
<!-- mid&#45;&gt;fullTopList -->
<g id="edge59" class="edge">
<title>mid&#45;&gt;fullTopList</title>
<path fill="none" stroke="#000000" d="M345.8482,-730.2698C417.1558,-734.0311 615.6407,-741.5809 778.8401,-720.2902 799.3046,-717.6204 821.692,-714.2171 841.4059,-711.0556"/>
<polygon fill="#000000" stroke="#000000" points="842.135,-714.4832 851.4469,-709.4295 841.016,-707.5732 842.135,-714.4832"/>
</g>
<!-- mid&#45;&gt;rankdb -->
<g id="edge62" class="edge">
<title>mid&#45;&gt;rankdb</title>
<path fill="none" stroke="#000000" d="M345.8358,-729.4915C428.5167,-731.7548 684.7218,-736.9107 896.2112,-721.3267 920.2879,-719.5526 947.0522,-716.4041 968.7886,-713.5447"/>
<polygon fill="#000000" stroke="#000000" points="969.261,-717.0128 978.7069,-712.2145 968.3304,-710.0749 969.261,-717.0128"/>
</g>
<!-- aid -->
<g id="node45" class="node">
<title>aid</title>
<ellipse fill="none" stroke="#000000" cx="441.2647" cy="-776.0759" rx="27" ry="18"/>
<text text-anchor="middle" x="441.2647" y="-771.8759" font-family="Times,serif" font-size="14.00" fill="#000000">aid</text>
</g>
<!-- aid&#45;&gt;view -->
<g id="edge5" class="edge">
<title>aid&#45;&gt;view</title>
<path fill="none" stroke="#000000" d="M460.6966,-788.756C511.2344,-821.5444 651.3021,-911.2114 772.6809,-977.7185 804.8452,-995.3424 814.1538,-997.2854 846.7735,-1014.0513 883.5163,-1032.9363 889.9594,-1043.5561 928.629,-1058.0937 963.5673,-1071.2285 1005.361,-1080.0794 1034.7204,-1085.2477"/>
<polygon fill="#000000" stroke="#000000" points="1034.4933,-1088.7592 1044.9387,-1086.9863 1035.6675,-1081.8584 1034.4933,-1088.7592"/>
</g>
<!-- aid&#45;&gt;aid -->
<g id="edge50" class="edge">
<title>aid&#45;&gt;aid</title>
<path fill="none" stroke="#000000" d="M466.7081,-782.7666C477.2925,-783.228 486.2647,-780.9978 486.2647,-776.0759 486.2647,-772.8459 482.4007,-770.7751 476.7528,-769.8635"/>
<polygon fill="#000000" stroke="#000000" points="476.8633,-766.3649 466.7081,-769.3852 476.5303,-773.357 476.8633,-766.3649"/>
</g>
<!-- cid&#45;&gt;list -->
<g id="edge6" class="edge">
<title>cid&#45;&gt;list</title>
<path fill="none" stroke="#000000" d="M268.5605,-810.9273C350.8008,-846.1999 632.4798,-967.0111 728.3959,-1008.1493"/>
<polygon fill="#000000" stroke="#000000" points="727.2941,-1011.485 737.8641,-1012.2102 730.0534,-1005.0517 727.2941,-1011.485"/>
</g>
<!-- roomid&#45;&gt;topList -->
<g id="edge55" class="edge">
<title>roomid&#45;&gt;topList</title>
<path fill="none" stroke="#000000" d="M393.3869,-814.6141C480.8888,-803.2148 710.5085,-773.3013 807.6324,-760.6485"/>
<polygon fill="#000000" stroke="#000000" points="808.2441,-764.0985 817.7082,-759.3359 807.3398,-757.1572 808.2441,-764.0985"/>
</g>
<!-- roomid&#45;&gt;fullTopList -->
<g id="edge58" class="edge">
<title>roomid&#45;&gt;fullTopList</title>
<path fill="none" stroke="#000000" d="M391.5411,-811.9658C481.6943,-792.2921 733.5998,-737.3201 843.873,-713.2557"/>
<polygon fill="#000000" stroke="#000000" points="844.7535,-716.646 853.7773,-711.0944 843.261,-709.807 844.7535,-716.646"/>
</g>
<!-- roomid&#45;&gt;getAnchorInRoom -->
<g id="edge61" class="edge">
<title>roomid&#45;&gt;getAnchorInRoom</title>
<path fill="none" stroke="#000000" d="M390.2235,-810.4774C410.5714,-804.8209 437.584,-797.1814 461.354,-790.0264 533.5485,-768.295 616.3622,-741.6102 669.3222,-724.3193"/>
<polygon fill="#000000" stroke="#000000" points="670.4368,-727.6373 678.8543,-721.2033 668.2617,-720.9837 670.4368,-727.6373"/>
</g>
<!-- page -->
<g id="node48" class="node">
<title>page</title>
<ellipse fill="none" stroke="#000000" cx="1250.7058" cy="-729.9469" rx="27" ry="18"/>
<text text-anchor="middle" x="1250.7058" y="-725.7469" font-family="Times,serif" font-size="14.00" fill="#000000">page</text>
</g>
<!-- page&#45;&gt;getSubmitVideos -->
<g id="edge8" class="edge">
<title>page&#45;&gt;getSubmitVideos</title>
<path fill="none" stroke="#000000" stroke-dasharray="1,5" d="M1246.0448,-747.9341C1233.8037,-792.5334 1197.2524,-910.2336 1134.0454,-988.1893 1092.227,-1039.7656 1026.9337,-1081.8959 985.0275,-1105.6927"/>
<polygon fill="#000000" stroke="#000000" points="983.2177,-1102.6946 976.1991,-1110.6313 986.6352,-1108.8037 983.2177,-1102.6946"/>
</g>
<!-- page&#45;&gt;getFollowers -->
<g id="edge12" class="edge">
<title>page&#45;&gt;getFollowers</title>
<path fill="none" stroke="#000000" stroke-dasharray="1,5" d="M1241.5145,-746.8837C1219.6805,-785.7125 1161.0165,-882.1415 1087.9363,-938.5907 1059.74,-960.3704 1046.9004,-956.266 1016.1192,-974.2075 1006.6402,-979.7326 1002.768,-979.6741 995.6763,-988.0457 988.5879,-996.4134 983.0506,-1007.0497 978.9536,-1016.8185"/>
<polygon fill="#000000" stroke="#000000" points="975.6751,-1015.5926 975.3326,-1026.182 982.2039,-1018.1175 975.6751,-1015.5926"/>
</g>
<!-- page&#45;&gt;topList -->
<g id="edge57" class="edge">
<title>page&#45;&gt;topList</title>
<path fill="none" stroke="#000000" stroke-dasharray="1,5" d="M1223.6168,-731.64C1156.2218,-735.8522 980.4462,-746.8384 897.1139,-752.0468"/>
<polygon fill="#000000" stroke="#000000" points="896.7067,-748.5653 886.9446,-752.6823 897.1434,-755.5516 896.7067,-748.5653"/>
</g>
<!-- SESSDATA -->
<g id="node49" class="node">
<title>SESSDATA</title>
<ellipse fill="none" stroke="#000000" cx="1080.4259" cy="-1449.8839" rx="53.2824" ry="18"/>
<text text-anchor="middle" x="1080.4259" y="-1445.6839" font-family="Times,serif" font-size="14.00" fill="#000000">SESSDATA</text>
</g>
<!-- SESSDATA&#45;&gt;getAllFollowers -->
<g id="edge15" class="edge">
<title>SESSDATA&#45;&gt;getAllFollowers</title>
<path fill="none" stroke="#000000" stroke-dasharray="1,5" d="M1076.4513,-1431.6253C1065.4239,-1378.9213 1035.7095,-1221.9344 1042.762,-1090.805 1044.1528,-1064.9461 1050.8007,-1036.1778 1056.4453,-1015.685"/>
<polygon fill="#000000" stroke="#000000" points="1059.8132,-1016.6373 1059.1901,-1006.0608 1053.0816,-1014.7174 1059.8132,-1016.6373"/>
</g>
<!-- p -->
<g id="node50" class="node">
<title>p</title>
<ellipse fill="none" stroke="#000000" cx="26.6623" cy="-698.4588" rx="27" ry="18"/>
<text text-anchor="middle" x="26.6623" y="-694.2588" font-family="Times,serif" font-size="14.00" fill="#000000">p</text>
</g>
<!-- p&#45;&gt;cid -->
<g id="edge52" class="edge">
<title>p&#45;&gt;cid</title>
<path fill="none" stroke="#000000" stroke-dasharray="1,5" d="M48.8774,-708.8708C88.0021,-727.2082 169.299,-765.3112 214.226,-786.3681"/>
<polygon fill="#000000" stroke="#000000" points="212.9569,-789.6386 223.4971,-790.7134 215.9277,-783.3003 212.9569,-789.6386"/>
</g>
</g>
</svg>
