<?xml version="1.0" encoding="UTF-8" standalone="no"?>
<!DOCTYPE svg PUBLIC "-//W3C//DTD SVG 1.1//EN"
 "http://www.w3.org/Graphics/SVG/1.1/DTD/svg11.dtd">
<!-- Generated by graphviz version 2.40.1 (20161225.0304)
 -->
<!-- Title: G Pages: 1 -->
<svg width="753pt" height="680pt"
 viewBox="0.00 0.00 753.00 680.00" xmlns="http://www.w3.org/2000/svg" xmlns:xlink="http://www.w3.org/1999/xlink">
<g id="graph0" class="graph" transform="scale(1 1) rotate(0) translate(4 676)">
<title>G</title>
<polygon fill="#ffffff" stroke="transparent" points="-4,4 -4,-676 749,-676 749,4 -4,4"/>
<g id="clust1" class="cluster">
<title>cluster_api.bilibili.com</title>
<polygon fill="none" stroke="#000000" points="167.1469,-366.2127 167.1469,-605.2127 422.1469,-605.2127 422.1469,-366.2127 167.1469,-366.2127"/>
<text text-anchor="middle" x="294.6469" y="-590.0127" font-family="Times,serif" font-size="14.00" fill="#000000">api.bilibili.com</text>
</g>
<g id="clust2" class="cluster">
<title>cluster_api.live.bilibili.com</title>
<polygon fill="none" stroke="#000000" points="480.0306,-180.36 480.0306,-362.36 745.0306,-362.36 745.0306,-180.36 480.0306,-180.36"/>
<text text-anchor="middle" x="612.5306" y="-347.16" font-family="Times,serif" font-size="14.00" fill="#000000">api.live.bilibili.com</text>
</g>
<g id="clust3" class="cluster">
<title>cluster_data</title>
<polygon fill="none" stroke="#000000" points="-.1733,.3078 -.1733,-356.6922 467.8267,-356.6922 467.8267,.3078 -.1733,.3078"/>
<text text-anchor="middle" x="233.8267" y="-341.4922" font-family="Times,serif" font-size="14.00" fill="#000000">data</text>
</g>
<g id="clust4" class="cluster">
<title>cluster_input</title>
<polygon fill="none" stroke="#000000" points="434.2667,-394.2517 434.2667,-530.2517 582.2667,-530.2517 582.2667,-394.2517 434.2667,-394.2517"/>
<text text-anchor="middle" x="508.2667" y="-515.0517" font-family="Times,serif" font-size="14.00" fill="#000000">input</text>
</g>
<!-- stat -->
<g id="node1" class="node">
<title>stat</title>
<ellipse fill="none" stroke="#000000" cx="354.0742" cy="-557.162" rx="27" ry="18"/>
<text text-anchor="middle" x="354.0742" y="-552.962" font-family="Times,serif" font-size="14.00" fill="#000000">stat</text>
</g>
<!-- follower -->
<g id="node13" class="node">
<title>follower</title>
<ellipse fill="none" stroke="#000000" cx="245.9543" cy="-25.6905" rx="40.1317" ry="18"/>
<text text-anchor="middle" x="245.9543" y="-21.4905" font-family="Times,serif" font-size="14.00" fill="#000000">follower</text>
</g>
<!-- stat&#45;&gt;follower -->
<g id="edge9" class="edge">
<title>stat&#45;&gt;follower</title>
<path fill="none" stroke="#000000" d="M339.1679,-541.6712C331.1444,-532.2848 321.98,-519.6164 317.4168,-506.4885 300.6849,-458.353 321.338,-442.0963 312.3161,-391.9407 299.0937,-318.4325 196.0395,-145.5115 209.3236,-72.0145 210.811,-63.7852 215.0689,-56.0975 220.181,-49.4415"/>
<polygon fill="#000000" stroke="#000000" points="223.0707,-51.4509 226.9689,-41.5993 217.778,-46.8698 223.0707,-51.4509"/>
</g>
<!-- upstat -->
<g id="node2" class="node">
<title>upstat</title>
<ellipse fill="none" stroke="#000000" cx="205.9194" cy="-509.8486" rx="31.4636" ry="18"/>
<text text-anchor="middle" x="205.9194" y="-505.6486" font-family="Times,serif" font-size="14.00" fill="#000000">upstat</text>
</g>
<!-- archiveView -->
<g id="node24" class="node">
<title>archiveView</title>
<ellipse fill="none" stroke="#000000" cx="187.0528" cy="-245.7594" rx="54.513" ry="18"/>
<text text-anchor="middle" x="187.0528" y="-241.5594" font-family="Times,serif" font-size="14.00" fill="#000000">archiveView</text>
</g>
<!-- upstat&#45;&gt;archiveView -->
<g id="edge23" class="edge">
<title>upstat&#45;&gt;archiveView</title>
<path fill="none" stroke="#000000" d="M200.1108,-491.9543C196.4538,-479.5217 192.1875,-462.484 190.8884,-447.0737 185.5718,-384.006 205.2895,-368.0878 200.3962,-304.9858 199.5858,-294.5347 197.3912,-283.2652 195.0103,-273.3905"/>
<polygon fill="#000000" stroke="#000000" points="198.3972,-272.5076 192.5118,-263.6977 191.6187,-274.2549 198.3972,-272.5076"/>
</g>
<!-- articleView -->
<g id="node25" class="node">
<title>articleView</title>
<ellipse fill="none" stroke="#000000" cx="169.0576" cy="-188.0238" rx="50.6536" ry="18"/>
<text text-anchor="middle" x="169.0576" y="-183.8238" font-family="Times,serif" font-size="14.00" fill="#000000">articleView</text>
</g>
<!-- upstat&#45;&gt;articleView -->
<g id="edge24" class="edge">
<title>upstat&#45;&gt;articleView</title>
<path fill="none" stroke="#000000" d="M192.2487,-493.5963C165.8035,-460.4994 109.9826,-381.8821 107.2195,-304.9307 105.9647,-269.9846 128.0885,-235.2427 146.2186,-212.83"/>
<polygon fill="#000000" stroke="#000000" points="148.9152,-215.0614 152.6668,-205.153 143.5551,-210.5592 148.9152,-215.0614"/>
</g>
<!-- navnum -->
<g id="node3" class="node">
<title>navnum</title>
<ellipse fill="none" stroke="#000000" cx="375.5186" cy="-433.0756" rx="38.6955" ry="18"/>
<text text-anchor="middle" x="375.5186" y="-428.8756" font-family="Times,serif" font-size="14.00" fill="#000000">navnum</text>
</g>
<!-- video -->
<g id="node16" class="node">
<title>video</title>
<ellipse fill="none" stroke="#000000" cx="78.1095" cy="-166.2899" rx="29.5104" ry="18"/>
<text text-anchor="middle" x="78.1095" y="-162.0899" font-family="Times,serif" font-size="14.00" fill="#000000">video</text>
</g>
<!-- navnum&#45;&gt;video -->
<g id="edge12" class="edge">
<title>navnum&#45;&gt;video</title>
<path fill="none" stroke="#000000" d="M354.8936,-417.6514C306.397,-381.3455 186.2625,-291.1769 146.9753,-259.539 139.5677,-253.5736 137.0032,-252.7674 130.6978,-245.647 116.2255,-229.3042 102.6885,-208.7013 92.9739,-192.5844"/>
<polygon fill="#000000" stroke="#000000" points="95.815,-190.512 87.7176,-183.6794 89.7868,-194.0702 95.815,-190.512"/>
</g>
<!-- info -->
<g id="node4" class="node">
<title>info</title>
<ellipse fill="none" stroke="#000000" cx="280.3716" cy="-555.8997" rx="27" ry="18"/>
<text text-anchor="middle" x="280.3716" y="-551.6997" font-family="Times,serif" font-size="14.00" fill="#000000">info</text>
</g>
<!-- uname -->
<g id="node14" class="node">
<title>uname</title>
<ellipse fill="none" stroke="#000000" cx="176.2492" cy="-138.2087" rx="33.8596" ry="18"/>
<text text-anchor="middle" x="176.2492" y="-134.0087" font-family="Times,serif" font-size="14.00" fill="#000000">uname</text>
</g>
<!-- info&#45;&gt;uname -->
<g id="edge10" class="edge">
<title>info&#45;&gt;uname</title>
<path fill="none" stroke="#000000" d="M270.2598,-539.0439C263.9363,-527.6181 256.2676,-511.9443 252.3269,-497.0694 246.6467,-475.628 251.8023,-469.2558 248.6818,-447.2954 239.8432,-385.0941 219.31,-370.7583 224.0024,-308.1077 226.1665,-279.2148 244.2928,-274.8321 243.4078,-245.8717 242.398,-212.8251 219.4911,-181.5235 200.7081,-161.2784"/>
<polygon fill="#000000" stroke="#000000" points="202.9717,-158.5839 193.507,-153.8224 197.9366,-163.4468 202.9717,-158.5839"/>
</g>
<!-- sign -->
<g id="node15" class="node">
<title>sign</title>
<ellipse fill="none" stroke="#000000" cx="252.6011" cy="-308.2941" rx="27" ry="18"/>
<text text-anchor="middle" x="252.6011" y="-304.0941" font-family="Times,serif" font-size="14.00" fill="#000000">sign</text>
</g>
<!-- info&#45;&gt;sign -->
<g id="edge11" class="edge">
<title>info&#45;&gt;sign</title>
<path fill="none" stroke="#000000" d="M270.2598,-539.0439C263.9363,-527.6181 256.2676,-511.9443 252.3269,-497.0694 246.6467,-475.628 251.8023,-469.2558 248.6818,-447.2954 245.1187,-422.2204 237.1283,-416.8777 236.8472,-391.5524 236.6383,-372.728 240.5748,-351.919 244.5645,-335.8133"/>
<polygon fill="#000000" stroke="#000000" points="247.9928,-336.5382 247.151,-325.9769 241.223,-334.758 247.9928,-336.5382"/>
</g>
<!-- face -->
<g id="node26" class="node">
<title>face</title>
<ellipse fill="none" stroke="#000000" cx="433.2058" cy="-185.2926" rx="27" ry="18"/>
<text text-anchor="middle" x="433.2058" y="-181.0926" font-family="Times,serif" font-size="14.00" fill="#000000">face</text>
</g>
<!-- info&#45;&gt;face -->
<g id="edge25" class="edge">
<title>info&#45;&gt;face</title>
<path fill="none" stroke="#000000" d="M289.2968,-538.8302C295.2718,-527.1817 303.1751,-511.3365 309.5269,-497.0701 312.6161,-490.1318 392.8546,-287.3264 422.4093,-212.5961"/>
<polygon fill="#000000" stroke="#000000" points="425.8071,-213.5215 426.23,-202.9351 419.2976,-210.9471 425.8071,-213.5215"/>
</g>
<!-- view -->
<g id="node5" class="node">
<title>view</title>
<ellipse fill="none" stroke="#000000" cx="219.7851" cy="-447.1845" rx="27.0958" ry="18"/>
<text text-anchor="middle" x="219.7851" y="-442.9845" font-family="Times,serif" font-size="14.00" fill="#000000">view</text>
</g>
<!-- mid -->
<g id="node29" class="node">
<title>mid</title>
<ellipse fill="none" stroke="#000000" cx="481.1345" cy="-420.5171" rx="27" ry="18"/>
<text text-anchor="middle" x="481.1345" y="-416.3171" font-family="Times,serif" font-size="14.00" fill="#000000">mid</text>
</g>
<!-- view&#45;&gt;mid -->
<g id="edge29" class="edge">
<title>view&#45;&gt;mid</title>
<path fill="none" stroke="#000000" stroke-dasharray="5,2" d="M244.5995,-439.4271C275.1201,-430.4466 328.688,-416.4976 375.8541,-413.4763 398.5828,-412.0204 424.0665,-413.6392 444.2684,-415.6897"/>
<polygon fill="#000000" stroke="#000000" points="443.9875,-419.1798 454.3087,-416.7874 444.7483,-412.2213 443.9875,-419.1798"/>
</g>
<!-- cid -->
<g id="node30" class="node">
<title>cid</title>
<ellipse fill="none" stroke="#000000" cx="547.5884" cy="-436.2086" rx="27" ry="18"/>
<text text-anchor="middle" x="547.5884" y="-432.0086" font-family="Times,serif" font-size="14.00" fill="#000000">cid</text>
</g>
<!-- view&#45;&gt;cid -->
<g id="edge31" class="edge">
<title>view&#45;&gt;cid</title>
<path fill="none" stroke="#000000" d="M247.0116,-449.2221C278.0342,-451.2936 330.2554,-454.021 375.183,-452.6749 422.1662,-451.2672 476.0584,-445.4385 510.9015,-441.1131"/>
<polygon fill="#000000" stroke="#000000" points="511.5932,-444.5535 521.0745,-439.8255 510.7142,-437.6089 511.5932,-444.5535"/>
</g>
<!-- list -->
<g id="node6" class="node">
<title>list</title>
<ellipse fill="none" stroke="#000000" cx="280.9269" cy="-497.0698" rx="27" ry="18"/>
<text text-anchor="middle" x="280.9269" y="-492.8698" font-family="Times,serif" font-size="14.00" fill="#000000">list</text>
</g>
<!-- search -->
<g id="node7" class="node">
<title>search</title>
<ellipse fill="none" stroke="#000000" cx="351.7072" cy="-506.5253" rx="32.8821" ry="18"/>
<text text-anchor="middle" x="351.7072" y="-502.3253" font-family="Times,serif" font-size="14.00" fill="#000000">search</text>
</g>
<!-- search&#45;&gt;mid -->
<g id="edge30" class="edge">
<title>search&#45;&gt;mid</title>
<path fill="none" stroke="#000000" stroke-dasharray="5,2" d="M372.79,-492.5152C394.7358,-477.9316 429.2121,-455.021 453.3647,-438.9709"/>
<polygon fill="#000000" stroke="#000000" points="455.362,-441.846 461.7536,-433.3963 451.4877,-436.0159 455.362,-441.846"/>
</g>
<!-- _notice -->
<g id="node8" class="node">
<title>_notice</title>
<ellipse fill="none" stroke="#000000" cx="274.5817" cy="-391.7465" rx="36.2732" ry="18"/>
<text text-anchor="middle" x="274.5817" y="-387.5465" font-family="Times,serif" font-size="14.00" fill="#000000">_notice</text>
</g>
<!-- notice -->
<g id="node23" class="node">
<title>notice</title>
<ellipse fill="none" stroke="#000000" cx="109.6578" cy="-62.7871" rx="31.9306" ry="18"/>
<text text-anchor="middle" x="109.6578" y="-58.5871" font-family="Times,serif" font-size="14.00" fill="#000000">notice</text>
</g>
<!-- _notice&#45;&gt;notice -->
<g id="edge22" class="edge">
<title>_notice&#45;&gt;notice</title>
<path fill="none" stroke="#000000" d="M261.7207,-374.6035C245.5329,-353.6281 216.2641,-317.6388 186.7971,-291.1184 162.9412,-269.6481 147.514,-272.9837 130.6978,-245.647 115.191,-220.439 111.1092,-135.9789 110.0374,-91.2067"/>
<polygon fill="#000000" stroke="#000000" points="113.5324,-90.9233 109.8289,-80.9968 106.5339,-91.0662 113.5324,-90.9233"/>
</g>
<!-- getRoomInfoOld -->
<g id="node9" class="node">
<title>getRoomInfoOld</title>
<ellipse fill="none" stroke="#000000" cx="615.6377" cy="-206.3554" rx="70.56" ry="18"/>
<text text-anchor="middle" x="615.6377" y="-202.1554" font-family="Times,serif" font-size="14.00" fill="#000000">getRoomInfoOld</text>
</g>
<!-- roomStatus -->
<g id="node18" class="node">
<title>roomStatus</title>
<ellipse fill="none" stroke="#000000" cx="58.6597" cy="-224.2381" rx="50.2896" ry="18"/>
<text text-anchor="middle" x="58.6597" y="-220.0381" font-family="Times,serif" font-size="14.00" fill="#000000">roomStatus</text>
</g>
<!-- getRoomInfoOld&#45;&gt;roomStatus -->
<g id="edge14" class="edge">
<title>getRoomInfoOld&#45;&gt;roomStatus</title>
<path fill="none" stroke="#000000" d="M545.3783,-208.6112C434.9985,-212.1551 222.863,-218.9661 118.9773,-222.3015"/>
<polygon fill="#000000" stroke="#000000" points="118.8496,-218.8037 108.9671,-222.6229 119.0743,-225.8001 118.8496,-218.8037"/>
</g>
<!-- roundStatus -->
<g id="node19" class="node">
<title>roundStatus</title>
<ellipse fill="none" stroke="#000000" cx="394.5797" cy="-86.4558" rx="52.2192" ry="18"/>
<text text-anchor="middle" x="394.5797" y="-82.2558" font-family="Times,serif" font-size="14.00" fill="#000000">roundStatus</text>
</g>
<!-- getRoomInfoOld&#45;&gt;roundStatus -->
<g id="edge16" class="edge">
<title>getRoomInfoOld&#45;&gt;roundStatus</title>
<path fill="none" stroke="#000000" d="M585.3641,-189.9352C545.3748,-168.2455 474.9765,-130.0622 431.7874,-106.6369"/>
<polygon fill="#000000" stroke="#000000" points="433.2016,-103.4222 422.7426,-101.731 429.8641,-109.5754 433.2016,-103.4222"/>
</g>
<!-- liveStatus -->
<g id="node20" class="node">
<title>liveStatus</title>
<ellipse fill="none" stroke="#000000" cx="153.8079" cy="-304.9583" rx="44.9768" ry="18"/>
<text text-anchor="middle" x="153.8079" y="-300.7583" font-family="Times,serif" font-size="14.00" fill="#000000">liveStatus</text>
</g>
<!-- getRoomInfoOld&#45;&gt;liveStatus -->
<g id="edge18" class="edge">
<title>getRoomInfoOld&#45;&gt;liveStatus</title>
<path fill="none" stroke="#000000" d="M568.1336,-219.7934C521.212,-232.772 447.2747,-252.4347 382.486,-266.2148 365.5105,-269.8254 267.6867,-286.1442 205.6075,-296.4172"/>
<polygon fill="#000000" stroke="#000000" points="204.8871,-292.9887 195.5921,-298.0734 206.0292,-299.8949 204.8871,-292.9887"/>
</g>
<!-- title -->
<g id="node21" class="node">
<title>title</title>
<ellipse fill="none" stroke="#000000" cx="282.8917" cy="-136.3153" rx="27" ry="18"/>
<text text-anchor="middle" x="282.8917" y="-132.1153" font-family="Times,serif" font-size="14.00" fill="#000000">title</text>
</g>
<!-- getRoomInfoOld&#45;&gt;title -->
<g id="edge19" class="edge">
<title>getRoomInfoOld&#45;&gt;title</title>
<path fill="none" stroke="#000000" d="M564.363,-193.8759C527.936,-185.2666 477.7905,-173.9326 433.3032,-165.6927 402.3047,-159.9513 394.0943,-161.2562 363.134,-155.3127 348.2003,-152.4458 331.8449,-148.6874 317.8185,-145.2709"/>
<polygon fill="#000000" stroke="#000000" points="318.6181,-141.8633 308.0704,-142.8613 316.9382,-148.6588 318.6181,-141.8633"/>
</g>
<!-- roomid -->
<g id="node31" class="node">
<title>roomid</title>
<ellipse fill="none" stroke="#000000" cx="477.4993" cy="-482.2002" rx="35.806" ry="18"/>
<text text-anchor="middle" x="477.4993" y="-478.0002" font-family="Times,serif" font-size="14.00" fill="#000000">roomid</text>
</g>
<!-- getRoomInfoOld&#45;&gt;roomid -->
<g id="edge33" class="edge">
<title>getRoomInfoOld&#45;&gt;roomid</title>
<path fill="none" stroke="#000000" d="M629.6312,-224.118C637.4952,-236.1587 645.2106,-252.6767 642.3393,-268.3545 638.7849,-287.7626 624.438,-285.389 611.4689,-300.2586 565.594,-352.8558 518.7739,-420.2263 494.4816,-456.4287"/>
<polygon fill="#000000" stroke="#000000" points="491.4456,-454.6727 488.8052,-464.9332 497.2679,-458.5588 491.4456,-454.6727"/>
</g>
<!-- topList -->
<g id="node10" class="node">
<title>topList</title>
<ellipse fill="none" stroke="#000000" cx="637.3701" cy="-314.1686" rx="35.3303" ry="18"/>
<text text-anchor="middle" x="637.3701" y="-309.9686" font-family="Times,serif" font-size="14.00" fill="#000000">topList</text>
</g>
<!-- guardNum -->
<g id="node17" class="node">
<title>guardNum</title>
<ellipse fill="none" stroke="#000000" cx="347.669" cy="-252.2747" rx="47.8582" ry="18"/>
<text text-anchor="middle" x="347.669" y="-248.0747" font-family="Times,serif" font-size="14.00" fill="#000000">guardNum</text>
</g>
<!-- topList&#45;&gt;guardNum -->
<g id="edge13" class="edge">
<title>topList&#45;&gt;guardNum</title>
<path fill="none" stroke="#000000" d="M604.7008,-307.1889C554.7621,-296.5196 458.9866,-276.0574 399.4957,-263.3474"/>
<polygon fill="#000000" stroke="#000000" points="400.0616,-259.8894 389.551,-261.2227 398.5991,-266.7349 400.0616,-259.8894"/>
</g>
<!-- getAnchorInRoom -->
<g id="node11" class="node">
<title>getAnchorInRoom</title>
<ellipse fill="none" stroke="#000000" cx="564.3199" cy="-268.2857" rx="76.3398" ry="18"/>
<text text-anchor="middle" x="564.3199" y="-264.0857" font-family="Times,serif" font-size="14.00" fill="#000000">getAnchorInRoom</text>
</g>
<!-- anchorScore -->
<g id="node27" class="node">
<title>anchorScore</title>
<ellipse fill="none" stroke="#000000" cx="337.7088" cy="-190.5589" rx="54.1058" ry="18"/>
<text text-anchor="middle" x="337.7088" y="-186.3589" font-family="Times,serif" font-size="14.00" fill="#000000">anchorScore</text>
</g>
<!-- getAnchorInRoom&#45;&gt;anchorScore -->
<g id="edge26" class="edge">
<title>getAnchorInRoom&#45;&gt;anchorScore</title>
<path fill="none" stroke="#000000" d="M520.8952,-253.3911C482.0714,-240.0747 425.2893,-220.5987 385.2562,-206.8675"/>
<polygon fill="#000000" stroke="#000000" points="386.3094,-203.5286 375.7147,-203.5948 384.0382,-210.1499 386.3094,-203.5286"/>
</g>
<!-- getAnchorInRoom&#45;&gt;mid -->
<g id="edge28" class="edge">
<title>getAnchorInRoom&#45;&gt;mid</title>
<path fill="none" stroke="#000000" stroke-dasharray="5,2" d="M554.4508,-286.3464C539.786,-313.1835 512.1671,-363.7267 495.3322,-394.535"/>
<polygon fill="#000000" stroke="#000000" points="492.2039,-392.9609 490.48,-403.4146 498.3466,-396.3176 492.2039,-392.9609"/>
</g>
<!-- rankdb -->
<g id="node12" class="node">
<title>rankdb</title>
<ellipse fill="none" stroke="#000000" cx="702.3989" cy="-257.5784" rx="34.8285" ry="18"/>
<text text-anchor="middle" x="702.3989" y="-253.3784" font-family="Times,serif" font-size="14.00" fill="#000000">rankdb</text>
</g>
<!-- areaRank -->
<g id="node28" class="node">
<title>areaRank</title>
<ellipse fill="none" stroke="#000000" cx="254.4172" cy="-72.1308" rx="43.4887" ry="18"/>
<text text-anchor="middle" x="254.4172" y="-67.9308" font-family="Times,serif" font-size="14.00" fill="#000000">areaRank</text>
</g>
<!-- rankdb&#45;&gt;areaRank -->
<g id="edge27" class="edge">
<title>rankdb&#45;&gt;areaRank</title>
<path fill="none" stroke="#000000" d="M669.8532,-251.0862C641.3907,-244.8633 599.251,-234.3183 564.2528,-220.1103 480.8596,-186.2554 468.8793,-159.6073 387.1637,-121.8827 358.1361,-108.4818 324.3865,-95.8704 298.1816,-86.6979"/>
<polygon fill="#000000" stroke="#000000" points="299.1281,-83.3217 288.5333,-83.3563 296.8372,-89.9363 299.1281,-83.3217"/>
</g>
<!-- uname&#45;&gt;search -->
<g id="edge7" class="edge">
<title>uname&#45;&gt;search</title>
<path fill="none" stroke="#000000" d="M192.9707,-154.3645C202.0896,-163.7161 213.1769,-176.0184 221.4818,-188.2066 287.4766,-285.0593 328.8274,-420.5242 344.528,-478.4535"/>
<polygon fill="#000000" stroke="#000000" points="341.2055,-479.5786 347.1613,-488.341 347.9698,-477.7771 341.2055,-479.5786"/>
</g>
<!-- roomStatus&#45;&gt;roundStatus -->
<g id="edge15" class="edge">
<title>roomStatus&#45;&gt;roundStatus</title>
<path fill="none" stroke="#000000" d="M79.2614,-207.8015C93.5127,-197.0493 113.2721,-183.3249 132.3338,-174.0358 161.2049,-159.9664 171.3419,-163.96 201.1794,-152.0769 229.4231,-140.8285 234.3488,-133.0971 262.7946,-122.3701 271.5479,-119.0692 274.0498,-119.1973 283.0696,-116.7157 302.8336,-111.2782 324.5868,-105.3602 343.5921,-100.2116"/>
<polygon fill="#000000" stroke="#000000" points="344.517,-103.5873 353.2551,-97.596 342.688,-96.8305 344.517,-103.5873"/>
</g>
<!-- roomStatus&#45;&gt;liveStatus -->
<g id="edge17" class="edge">
<title>roomStatus&#45;&gt;liveStatus</title>
<path fill="none" stroke="#000000" d="M78.3744,-240.9634C92.373,-252.8392 111.3403,-268.9304 126.7531,-282.006"/>
<polygon fill="#000000" stroke="#000000" points="124.5541,-284.7303 134.4439,-288.5306 129.0826,-279.3924 124.5541,-284.7303"/>
</g>
<!-- online -->
<g id="node22" class="node">
<title>online</title>
<ellipse fill="none" stroke="#000000" cx="363.2053" cy="-135.7127" rx="32.4237" ry="18"/>
<text text-anchor="middle" x="363.2053" y="-131.5127" font-family="Times,serif" font-size="14.00" fill="#000000">online</text>
</g>
<!-- liveStatus&#45;&gt;online -->
<g id="edge21" class="edge">
<title>liveStatus&#45;&gt;online</title>
<path fill="none" stroke="#000000" d="M179.6466,-290.067C193.8306,-281.6074 211.5574,-270.5619 226.6734,-259.6979 234.5076,-254.0674 236.8824,-252.9778 243.4078,-245.8717 263.6928,-223.7817 261.5192,-212.4704 281.8085,-190.3842 288.3295,-183.2857 290.7268,-182.2308 298.5335,-176.5767 309.2059,-168.847 321.3202,-160.9706 332.1555,-154.2224"/>
<polygon fill="#000000" stroke="#000000" points="334.2117,-157.0669 340.8967,-148.8472 330.545,-151.104 334.2117,-157.0669"/>
</g>
<!-- mid&#45;&gt;stat -->
<g id="edge1" class="edge">
<title>mid&#45;&gt;stat</title>
<path fill="none" stroke="#000000" d="M466.8061,-435.9263C444.5003,-459.9147 401.3441,-506.3263 375.3807,-534.2483"/>
<polygon fill="#000000" stroke="#000000" points="372.7917,-531.8927 368.5452,-541.5994 377.918,-536.6595 372.7917,-531.8927"/>
</g>
<!-- mid&#45;&gt;upstat -->
<g id="edge2" class="edge">
<title>mid&#45;&gt;upstat</title>
<path fill="none" stroke="#000000" d="M457.242,-429.3078C442.0246,-434.7562 421.8334,-441.7092 403.7043,-447.0501 340.8204,-465.5762 321.9515,-459.8359 260.704,-483.2102 253.2007,-486.0738 245.3284,-489.5824 237.9661,-493.1014"/>
<polygon fill="#000000" stroke="#000000" points="236.4114,-489.9656 228.9795,-497.5167 239.4982,-496.2483 236.4114,-489.9656"/>
</g>
<!-- mid&#45;&gt;navnum -->
<g id="edge3" class="edge">
<title>mid&#45;&gt;navnum</title>
<path fill="none" stroke="#000000" d="M454.4832,-423.6861C444.9434,-424.8204 433.8802,-426.136 423.1092,-427.4167"/>
<polygon fill="#000000" stroke="#000000" points="422.4481,-423.9706 412.9313,-428.6269 423.2747,-430.9216 422.4481,-423.9706"/>
</g>
<!-- mid&#45;&gt;info -->
<g id="edge4" class="edge">
<title>mid&#45;&gt;info</title>
<path fill="none" stroke="#000000" d="M468.0657,-436.445C449.5612,-458.0978 413.7417,-496.8206 375.9087,-520.4106 357.3275,-531.9964 334.3843,-540.6744 315.6391,-546.5482"/>
<polygon fill="#000000" stroke="#000000" points="314.5607,-543.2176 305.9887,-549.4441 316.5727,-549.9222 314.5607,-543.2176"/>
</g>
<!-- mid&#45;&gt;_notice -->
<g id="edge8" class="edge">
<title>mid&#45;&gt;_notice</title>
<path fill="none" stroke="#000000" d="M454.5542,-416.8147C420.503,-412.0718 360.9686,-403.7793 319.7463,-398.0375"/>
<polygon fill="#000000" stroke="#000000" points="320.0745,-394.5495 309.6873,-396.6364 319.1088,-401.4825 320.0745,-394.5495"/>
</g>
<!-- mid&#45;&gt;getRoomInfoOld -->
<g id="edge34" class="edge">
<title>mid&#45;&gt;getRoomInfoOld</title>
<path fill="none" stroke="#000000" d="M497.066,-405.9262C537.5639,-368.7786 641.3365,-273.207 642.3393,-268.3545 644.8342,-256.2821 640.7708,-243.6633 635.1174,-232.9852"/>
<polygon fill="#000000" stroke="#000000" points="637.9881,-230.9652 629.8648,-224.1635 631.9736,-234.5464 637.9881,-230.9652"/>
</g>
<!-- mid&#45;&gt;topList -->
<g id="edge36" class="edge">
<title>mid&#45;&gt;topList</title>
<path fill="none" stroke="#000000" d="M500.2921,-407.4766C527.1051,-389.2252 576.0746,-355.892 607.6451,-334.4022"/>
<polygon fill="#000000" stroke="#000000" points="609.7582,-337.1977 616.0554,-328.6774 605.8193,-331.4111 609.7582,-337.1977"/>
</g>
<!-- mid&#45;&gt;rankdb -->
<g id="edge39" class="edge">
<title>mid&#45;&gt;rankdb</title>
<path fill="none" stroke="#000000" d="M495.1089,-404.832C517.6955,-380.1668 564.4602,-331.872 611.4689,-300.2586 627.9206,-289.1949 647.6931,-279.5405 664.5925,-272.2256"/>
<polygon fill="#000000" stroke="#000000" points="666.3052,-275.3021 674.1637,-268.1961 663.5891,-268.8506 666.3052,-275.3021"/>
</g>
<!-- cid&#45;&gt;list -->
<g id="edge6" class="edge">
<title>cid&#45;&gt;list</title>
<path fill="none" stroke="#000000" d="M522.0198,-442.0442C474.2584,-452.945 371.3937,-476.4222 316.7472,-488.8944"/>
<polygon fill="#000000" stroke="#000000" points="315.7804,-485.5249 306.81,-491.1624 317.3381,-492.3495 315.7804,-485.5249"/>
</g>
<!-- roomid&#45;&gt;topList -->
<g id="edge35" class="edge">
<title>roomid&#45;&gt;topList</title>
<path fill="none" stroke="#000000" d="M490.8806,-465.2792C500.7245,-453.0541 514.5914,-436.2884 527.5478,-422.2252 555.5951,-391.7821 589.8651,-358.6582 612.5851,-337.2193"/>
<polygon fill="#000000" stroke="#000000" points="615.2204,-339.5457 620.1106,-330.147 610.4266,-334.4448 615.2204,-339.5457"/>
</g>
<!-- roomid&#45;&gt;getAnchorInRoom -->
<g id="edge38" class="edge">
<title>roomid&#45;&gt;getAnchorInRoom</title>
<path fill="none" stroke="#000000" d="M487.4694,-464.7242C494.2022,-452.5611 503.0469,-435.851 509.7343,-420.5941 528.3756,-378.065 545.7036,-326.9505 555.641,-296.0731"/>
<polygon fill="#000000" stroke="#000000" points="559.0159,-297.0097 558.719,-286.419 552.3467,-294.8833 559.0159,-297.0097"/>
</g>
<!-- roomid&#45;&gt;online -->
<g id="edge20" class="edge">
<title>roomid&#45;&gt;online</title>
<path fill="none" stroke="#000000" d="M469.6538,-464.5953C464.3842,-452.3639 457.5191,-435.6016 452.5347,-420.44 419.6181,-320.3146 432.5044,-288.6915 393.6091,-190.7335 389.7232,-180.9469 384.4477,-170.7216 379.3819,-161.7786"/>
<polygon fill="#000000" stroke="#000000" points="382.3151,-159.861 374.2459,-152.9953 376.2724,-163.3946 382.3151,-159.861"/>
</g>
<!-- aid -->
<g id="node32" class="node">
<title>aid</title>
<ellipse fill="none" stroke="#000000" cx="514.9474" cy="-654.249" rx="27" ry="18"/>
<text text-anchor="middle" x="514.9474" y="-650.049" font-family="Times,serif" font-size="14.00" fill="#000000">aid</text>
</g>
<!-- aid&#45;&gt;view -->
<g id="edge5" class="edge">
<title>aid&#45;&gt;view</title>
<path fill="none" stroke="#000000" d="M498.9125,-639.7231C473.6472,-617.2819 422.4783,-573.6123 374.3058,-543.3085 354.666,-530.9536 345.1508,-535.3184 327.4147,-520.3586 311.9587,-507.3219 316.7598,-496.0636 301.1505,-483.2107 287.5521,-472.0136 269.9256,-463.6439 254.557,-457.8043"/>
<polygon fill="#000000" stroke="#000000" points="255.4433,-454.4041 244.8487,-454.3279 253.0834,-460.9943 255.4433,-454.4041"/>
</g>
<!-- p -->
<g id="node33" class="node">
<title>p</title>
<ellipse fill="none" stroke="#000000" cx="420.487" cy="-632.3108" rx="27" ry="18"/>
<text text-anchor="middle" x="420.487" y="-628.1108" font-family="Times,serif" font-size="14.00" fill="#000000">p</text>
</g>
<!-- p&#45;&gt;cid -->
<g id="edge32" class="edge">
<title>p&#45;&gt;cid</title>
<path fill="none" stroke="#000000" stroke-dasharray="1,5" d="M431.3236,-615.5912C453.6482,-581.1471 504.8774,-502.1065 531.2462,-461.4226"/>
<polygon fill="#000000" stroke="#000000" points="534.2773,-463.1811 536.7792,-452.8858 528.4032,-459.3738 534.2773,-463.1811"/>
</g>
<!-- page -->
<g id="node34" class="node">
<title>page</title>
<ellipse fill="none" stroke="#000000" cx="625.6364" cy="-153.4207" rx="27" ry="18"/>
<text text-anchor="middle" x="625.6364" y="-149.2207" font-family="Times,serif" font-size="14.00" fill="#000000">page</text>
</g>
<!-- page&#45;&gt;topList -->
<g id="edge37" class="edge">
<title>page&#45;&gt;topList</title>
<path fill="none" stroke="#000000" stroke-dasharray="1,5" d="M648.427,-163.5453C664.3289,-172.2354 683.4472,-186.5348 687.7657,-206.5025 688.6908,-210.7799 666.2603,-256.6664 651.0215,-287.1384"/>
<polygon fill="#000000" stroke="#000000" points="647.7219,-285.9104 646.3653,-296.418 653.9784,-289.0497 647.7219,-285.9104"/>
</g>
</g>
</svg>
