<?xml version="1.0" encoding="UTF-8" standalone="no"?>
<!DOCTYPE svg PUBLIC "-//W3C//DTD SVG 1.1//EN"
 "http://www.w3.org/Graphics/SVG/1.1/DTD/svg11.dtd">
<!-- Generated by graphviz version 2.40.1 (20161225.0304)
 -->
<!-- Title: G Pages: 1 -->
<svg width="860pt" height="807pt"
 viewBox="0.00 0.00 860.00 807.00" xmlns="http://www.w3.org/2000/svg" xmlns:xlink="http://www.w3.org/1999/xlink">
<g id="graph0" class="graph" transform="scale(1 1) rotate(0) translate(4 803)">
<title>G</title>
<polygon fill="#ffffff" stroke="transparent" points="-4,4 -4,-803 856,-803 856,4 -4,4"/>
<g id="clust1" class="cluster">
<title>cluster_api.bilibili.com</title>
<polygon fill="none" stroke="#000000" points="510.8768,-335.6022 510.8768,-556.6022 767.8768,-556.6022 767.8768,-335.6022 510.8768,-335.6022"/>
<text text-anchor="middle" x="639.3768" y="-541.4022" font-family="Times,serif" font-size="14.00" fill="#000000">api.bilibili.com</text>
</g>
<g id="clust2" class="cluster">
<title>cluster_api.live.bilibili.com</title>
<polygon fill="none" stroke="#000000" points="74.5871,-343.0923 74.5871,-534.0923 351.5871,-534.0923 351.5871,-343.0923 74.5871,-343.0923"/>
<text text-anchor="middle" x="213.0871" y="-518.8923" font-family="Times,serif" font-size="14.00" fill="#000000">api.live.bilibili.com</text>
</g>
<g id="clust3" class="cluster">
<title>cluster_data</title>
<polygon fill="none" stroke="#000000" points="128.6252,-.4549 128.6252,-322.4549 574.6252,-322.4549 574.6252,-.4549 128.6252,-.4549"/>
<text text-anchor="middle" x="351.6252" y="-307.2549" font-family="Times,serif" font-size="14.00" fill="#000000">data</text>
</g>
<g id="clust4" class="cluster">
<title>cluster_input</title>
<polygon fill="none" stroke="#000000" points="375.8456,-570.7948 375.8456,-713.7948 550.8456,-713.7948 550.8456,-570.7948 375.8456,-570.7948"/>
<text text-anchor="middle" x="463.3456" y="-698.5948" font-family="Times,serif" font-size="14.00" fill="#000000">input</text>
</g>
<!-- stat -->
<g id="node1" class="node">
<title>stat</title>
<ellipse fill="none" stroke="#000000" cx="585.1467" cy="-488.7586" rx="27" ry="18"/>
<text text-anchor="middle" x="585.1467" y="-484.5586" font-family="Times,serif" font-size="14.00" fill="#000000">stat</text>
</g>
<!-- follower -->
<g id="node12" class="node">
<title>follower</title>
<ellipse fill="none" stroke="#000000" cx="303.4027" cy="-274.1122" rx="40.1317" ry="18"/>
<text text-anchor="middle" x="303.4027" y="-269.9122" font-family="Times,serif" font-size="14.00" fill="#000000">follower</text>
</g>
<!-- stat&#45;&gt;follower -->
<g id="edge8" class="edge">
<title>stat&#45;&gt;follower</title>
<path fill="none" stroke="#000000" d="M567.0937,-475.005C519.4007,-438.6701 389.7522,-339.8975 331.9176,-295.8363"/>
<polygon fill="#000000" stroke="#000000" points="333.9996,-293.0225 323.924,-289.7464 329.7575,-298.5906 333.9996,-293.0225"/>
</g>
<!-- upstat -->
<g id="node2" class="node">
<title>upstat</title>
<ellipse fill="none" stroke="#000000" cx="631.3925" cy="-421.2008" rx="31.4636" ry="18"/>
<text text-anchor="middle" x="631.3925" y="-417.0008" font-family="Times,serif" font-size="14.00" fill="#000000">upstat</text>
</g>
<!-- archiveView -->
<g id="node22" class="node">
<title>archiveView</title>
<ellipse fill="none" stroke="#000000" cx="196.2514" cy="-100.4506" rx="54.513" ry="18"/>
<text text-anchor="middle" x="196.2514" y="-96.2506" font-family="Times,serif" font-size="14.00" fill="#000000">archiveView</text>
</g>
<!-- upstat&#45;&gt;archiveView -->
<g id="edge20" class="edge">
<title>upstat&#45;&gt;archiveView</title>
<path fill="none" stroke="#000000" d="M615.7158,-405.5914C602.9606,-393.1184 584.3141,-375.3929 567.0853,-360.9332 509.2542,-312.3972 498.3612,-293.4705 431.1842,-259.0113 389.6157,-237.6883 371.2011,-251.1355 330.9017,-227.5014 284.7244,-200.4202 241.6365,-154.7968 217.1652,-126.2226"/>
<polygon fill="#000000" stroke="#000000" points="219.6002,-123.681 210.4774,-118.2934 214.2493,-128.1941 219.6002,-123.681"/>
</g>
<!-- articleView -->
<g id="node23" class="node">
<title>articleView</title>
<ellipse fill="none" stroke="#000000" cx="493.3364" cy="-208.7524" rx="50.6536" ry="18"/>
<text text-anchor="middle" x="493.3364" y="-204.5524" font-family="Times,serif" font-size="14.00" fill="#000000">articleView</text>
</g>
<!-- upstat&#45;&gt;articleView -->
<g id="edge21" class="edge">
<title>upstat&#45;&gt;articleView</title>
<path fill="none" stroke="#000000" d="M620.3282,-404.1744C596.2642,-367.1433 539.0324,-279.0719 510.3437,-234.9242"/>
<polygon fill="#000000" stroke="#000000" points="513.2246,-232.9342 504.8409,-226.4562 507.3551,-236.7484 513.2246,-232.9342"/>
</g>
<!-- info -->
<g id="node3" class="node">
<title>info</title>
<ellipse fill="none" stroke="#000000" cx="629.9699" cy="-361.1115" rx="27" ry="18"/>
<text text-anchor="middle" x="629.9699" y="-356.9115" font-family="Times,serif" font-size="14.00" fill="#000000">info</text>
</g>
<!-- uname -->
<g id="node13" class="node">
<title>uname</title>
<ellipse fill="none" stroke="#000000" cx="364.8389" cy="-26.0721" rx="33.8596" ry="18"/>
<text text-anchor="middle" x="364.8389" y="-21.8721" font-family="Times,serif" font-size="14.00" fill="#000000">uname</text>
</g>
<!-- info&#45;&gt;uname -->
<g id="edge9" class="edge">
<title>info&#45;&gt;uname</title>
<path fill="none" stroke="#000000" d="M621.3948,-343.7399C606.9642,-314.9606 576.3897,-255.891 545.7629,-208.7537 530.7609,-185.6643 489.6941,-130.1633 471.0252,-109.9235 464.7348,-103.1037 462.5829,-101.9569 455.4442,-96.0309 434.9444,-79.0134 411.0675,-60.6337 392.9725,-46.9855"/>
<polygon fill="#000000" stroke="#000000" points="394.6918,-43.8995 384.5941,-40.6922 390.4877,-49.4965 394.6918,-43.8995"/>
</g>
<!-- sign -->
<g id="node14" class="node">
<title>sign</title>
<ellipse fill="none" stroke="#000000" cx="311.1029" cy="-101.143" rx="27" ry="18"/>
<text text-anchor="middle" x="311.1029" y="-96.943" font-family="Times,serif" font-size="14.00" fill="#000000">sign</text>
</g>
<!-- info&#45;&gt;sign -->
<g id="edge10" class="edge">
<title>info&#45;&gt;sign</title>
<path fill="none" stroke="#000000" d="M612.104,-347.0933C580.4946,-322.2412 512.7187,-268.7276 456.2628,-222.6108 413.6435,-187.7966 364.6647,-146.55 335.8856,-122.1855"/>
<polygon fill="#000000" stroke="#000000" points="337.8712,-119.2804 327.9791,-115.4861 333.346,-124.6211 337.8712,-119.2804"/>
</g>
<!-- face -->
<g id="node24" class="node">
<title>face</title>
<ellipse fill="none" stroke="#000000" cx="252.5775" cy="-43.0389" rx="27" ry="18"/>
<text text-anchor="middle" x="252.5775" y="-38.8389" font-family="Times,serif" font-size="14.00" fill="#000000">face</text>
</g>
<!-- info&#45;&gt;face -->
<g id="edge22" class="edge">
<title>info&#45;&gt;face</title>
<path fill="none" stroke="#000000" d="M610.4097,-348.3192C565.9551,-318.5513 455.5855,-240.656 383.2255,-155.4011 358.6011,-126.3885 360.0523,-112.2655 331.3392,-87.2926 317.4224,-75.1887 299.6721,-64.867 284.5465,-57.2442"/>
<polygon fill="#000000" stroke="#000000" points="286.0491,-54.083 275.5257,-52.8548 282.9863,-60.3774 286.0491,-54.083"/>
</g>
<!-- view -->
<g id="node4" class="node">
<title>view</title>
<ellipse fill="none" stroke="#000000" cx="546.5834" cy="-374.7459" rx="27.0958" ry="18"/>
<text text-anchor="middle" x="546.5834" y="-370.5459" font-family="Times,serif" font-size="14.00" fill="#000000">view</text>
</g>
<!-- mid -->
<g id="node27" class="node">
<title>mid</title>
<ellipse fill="none" stroke="#000000" cx="447.6277" cy="-596.5842" rx="27" ry="18"/>
<text text-anchor="middle" x="447.6277" y="-592.3842" font-family="Times,serif" font-size="14.00" fill="#000000">mid</text>
</g>
<!-- view&#45;&gt;mid -->
<g id="edge26" class="edge">
<title>view&#45;&gt;mid</title>
<path fill="none" stroke="#000000" stroke-dasharray="5,2" d="M538.8185,-392.1532C521.5848,-430.7877 480.0452,-523.9109 459.5178,-569.929"/>
<polygon fill="#000000" stroke="#000000" points="456.234,-568.6993 455.3565,-579.2578 462.6268,-571.551 456.234,-568.6993"/>
</g>
<!-- cid -->
<g id="node28" class="node">
<title>cid</title>
<ellipse fill="none" stroke="#000000" cx="411.2859" cy="-654.7641" rx="27" ry="18"/>
<text text-anchor="middle" x="411.2859" y="-650.5641" font-family="Times,serif" font-size="14.00" fill="#000000">cid</text>
</g>
<!-- view&#45;&gt;cid -->
<g id="edge28" class="edge">
<title>view&#45;&gt;cid</title>
<path fill="none" stroke="#000000" d="M534.2568,-390.9044C508.1295,-426.0854 447.27,-513.1572 419.0289,-596.4095 415.774,-606.0045 413.8789,-616.9196 412.7785,-626.6934"/>
<polygon fill="#000000" stroke="#000000" points="409.2854,-626.4597 411.8696,-636.7345 416.2569,-627.0908 409.2854,-626.4597"/>
</g>
<!-- list -->
<g id="node5" class="node">
<title>list</title>
<ellipse fill="none" stroke="#000000" cx="715.5492" cy="-447.1341" rx="27" ry="18"/>
<text text-anchor="middle" x="715.5492" y="-442.9341" font-family="Times,serif" font-size="14.00" fill="#000000">list</text>
</g>
<!-- search -->
<g id="node6" class="node">
<title>search</title>
<ellipse fill="none" stroke="#000000" cx="673.3072" cy="-508.4836" rx="32.8821" ry="18"/>
<text text-anchor="middle" x="673.3072" y="-504.2836" font-family="Times,serif" font-size="14.00" fill="#000000">search</text>
</g>
<!-- search&#45;&gt;mid -->
<g id="edge27" class="edge">
<title>search&#45;&gt;mid</title>
<path fill="none" stroke="#000000" stroke-dasharray="5,2" d="M646.5325,-518.9358C605.067,-535.1231 525.4266,-566.2131 480.5203,-583.7436"/>
<polygon fill="#000000" stroke="#000000" points="479.0016,-580.5792 470.959,-587.4761 481.5472,-587.0999 479.0016,-580.5792"/>
</g>
<!-- _notice -->
<g id="node7" class="node">
<title>_notice</title>
<ellipse fill="none" stroke="#000000" cx="724.0296" cy="-392.4733" rx="36.2732" ry="18"/>
<text text-anchor="middle" x="724.0296" y="-388.2733" font-family="Times,serif" font-size="14.00" fill="#000000">_notice</text>
</g>
<!-- notice -->
<g id="node21" class="node">
<title>notice</title>
<ellipse fill="none" stroke="#000000" cx="534.9122" cy="-146.1716" rx="31.9306" ry="18"/>
<text text-anchor="middle" x="534.9122" y="-141.9716" font-family="Times,serif" font-size="14.00" fill="#000000">notice</text>
</g>
<!-- _notice&#45;&gt;notice -->
<g id="edge19" class="edge">
<title>_notice&#45;&gt;notice</title>
<path fill="none" stroke="#000000" d="M711.0308,-375.544C678.2925,-332.9065 592.3257,-220.9454 553.9203,-170.9272"/>
<polygon fill="#000000" stroke="#000000" points="556.6181,-168.6938 547.7519,-162.8937 551.066,-172.9569 556.6181,-168.6938"/>
</g>
<!-- getRoomInfoOld -->
<g id="node8" class="node">
<title>getRoomInfoOld</title>
<ellipse fill="none" stroke="#000000" cx="229.7668" cy="-368.6864" rx="70.56" ry="18"/>
<text text-anchor="middle" x="229.7668" y="-364.4864" font-family="Times,serif" font-size="14.00" fill="#000000">getRoomInfoOld</text>
</g>
<!-- roomStatus -->
<g id="node16" class="node">
<title>roomStatus</title>
<ellipse fill="none" stroke="#000000" cx="317.9469" cy="-157.0578" rx="50.2896" ry="18"/>
<text text-anchor="middle" x="317.9469" y="-152.8578" font-family="Times,serif" font-size="14.00" fill="#000000">roomStatus</text>
</g>
<!-- getRoomInfoOld&#45;&gt;roomStatus -->
<g id="edge12" class="edge">
<title>getRoomInfoOld&#45;&gt;roomStatus</title>
<path fill="none" stroke="#000000" d="M233.5486,-350.6746C238.206,-330.9178 247.3196,-298.7323 261.7376,-273.9999 277.2097,-247.4593 296.5805,-252.1654 310.0294,-224.5444 315.861,-212.5676 318.0885,-198.0258 318.7567,-185.5123"/>
<polygon fill="#000000" stroke="#000000" points="322.264,-185.2307 318.994,-175.1531 315.2658,-185.0703 322.264,-185.2307"/>
</g>
<!-- roundStatus -->
<g id="node17" class="node">
<title>roundStatus</title>
<ellipse fill="none" stroke="#000000" cx="417.0667" cy="-109.8089" rx="52.2192" ry="18"/>
<text text-anchor="middle" x="417.0667" y="-105.6089" font-family="Times,serif" font-size="14.00" fill="#000000">roundStatus</text>
</g>
<!-- getRoomInfoOld&#45;&gt;roundStatus -->
<g id="edge14" class="edge">
<title>getRoomInfoOld&#45;&gt;roundStatus</title>
<path fill="none" stroke="#000000" d="M233.5486,-350.6746C238.206,-330.9178 247.3196,-298.7323 261.7376,-273.9999 265.8906,-266.8759 268.4308,-266.1524 274.1099,-260.1737 289.5961,-243.8707 295.7264,-241.8948 310.0294,-224.5444 313.7413,-220.0417 313.6702,-218.1769 317.3276,-213.6297 330.1595,-197.6759 367.415,-159.6227 392.5789,-134.2889"/>
<polygon fill="#000000" stroke="#000000" points="395.0688,-136.7488 399.6423,-127.192 390.1073,-131.8108 395.0688,-136.7488"/>
</g>
<!-- liveStatus -->
<g id="node18" class="node">
<title>liveStatus</title>
<ellipse fill="none" stroke="#000000" cx="363.9159" cy="-213.6722" rx="44.9768" ry="18"/>
<text text-anchor="middle" x="363.9159" y="-209.4722" font-family="Times,serif" font-size="14.00" fill="#000000">liveStatus</text>
</g>
<!-- getRoomInfoOld&#45;&gt;liveStatus -->
<g id="edge16" class="edge">
<title>getRoomInfoOld&#45;&gt;liveStatus</title>
<path fill="none" stroke="#000000" d="M260.469,-352.3147C287.4327,-336.2084 325.3458,-309.0026 345.0678,-274.2246 350.7887,-264.1363 354.9928,-252.0981 357.9597,-241.4227"/>
<polygon fill="#000000" stroke="#000000" points="361.3561,-242.2679 360.4343,-231.7132 354.5729,-240.539 361.3561,-242.2679"/>
</g>
<!-- title -->
<g id="node19" class="node">
<title>title</title>
<ellipse fill="none" stroke="#000000" cx="410.7985" cy="-272.7583" rx="27" ry="18"/>
<text text-anchor="middle" x="410.7985" y="-268.5583" font-family="Times,serif" font-size="14.00" fill="#000000">title</text>
</g>
<!-- getRoomInfoOld&#45;&gt;title -->
<g id="edge17" class="edge">
<title>getRoomInfoOld&#45;&gt;title</title>
<path fill="none" stroke="#000000" d="M260.4764,-352.4135C293.8967,-334.7042 347.0055,-306.562 380.3306,-288.9032"/>
<polygon fill="#000000" stroke="#000000" points="382.3857,-291.7752 389.5831,-284.0003 379.1081,-285.59 382.3857,-291.7752"/>
</g>
<!-- online -->
<g id="node20" class="node">
<title>online</title>
<ellipse fill="none" stroke="#000000" cx="506.6801" cy="-65.0131" rx="32.4237" ry="18"/>
<text text-anchor="middle" x="506.6801" y="-60.8131" font-family="Times,serif" font-size="14.00" fill="#000000">online</text>
</g>
<!-- getRoomInfoOld&#45;&gt;online -->
<g id="edge18" class="edge">
<title>getRoomInfoOld&#45;&gt;online</title>
<path fill="none" stroke="#000000" d="M257.8997,-352.0393C308.8695,-320.3966 416.47,-246.5324 473.4137,-155.5345 485.6288,-136.0143 494.3205,-111.3418 499.7491,-92.6868"/>
<polygon fill="#000000" stroke="#000000" points="503.1321,-93.5845 502.4309,-83.0129 496.3865,-91.7145 503.1321,-93.5845"/>
</g>
<!-- roomid -->
<g id="node29" class="node">
<title>roomid</title>
<ellipse fill="none" stroke="#000000" cx="507.0877" cy="-665.774" rx="35.806" ry="18"/>
<text text-anchor="middle" x="507.0877" y="-661.574" font-family="Times,serif" font-size="14.00" fill="#000000">roomid</text>
</g>
<!-- getRoomInfoOld&#45;&gt;roomid -->
<g id="edge30" class="edge">
<title>getRoomInfoOld&#45;&gt;roomid</title>
<path fill="none" stroke="#000000" d="M263.5632,-384.4978C287.8707,-396.807 320.6423,-415.3924 345.6753,-436.9675 415.1424,-496.8388 434.1646,-515.2662 476.2266,-596.7588 483.2304,-610.3282 490.2422,-625.8184 495.8083,-638.6808"/>
<polygon fill="#000000" stroke="#000000" points="492.6119,-640.1079 499.7588,-647.9292 499.0492,-637.3582 492.6119,-640.1079"/>
</g>
<!-- topList -->
<g id="node9" class="node">
<title>topList</title>
<ellipse fill="none" stroke="#000000" cx="118.0927" cy="-422.8655" rx="35.3303" ry="18"/>
<text text-anchor="middle" x="118.0927" y="-418.6655" font-family="Times,serif" font-size="14.00" fill="#000000">topList</text>
</g>
<!-- guardNum -->
<g id="node15" class="node">
<title>guardNum</title>
<ellipse fill="none" stroke="#000000" cx="184.411" cy="-169.2402" rx="47.8582" ry="18"/>
<text text-anchor="middle" x="184.411" y="-165.0402" font-family="Times,serif" font-size="14.00" fill="#000000">guardNum</text>
</g>
<!-- topList&#45;&gt;guardNum -->
<g id="edge11" class="edge">
<title>topList&#45;&gt;guardNum</title>
<path fill="none" stroke="#000000" d="M122.8621,-404.6254C134.3097,-360.8458 163.4036,-249.58 177.0869,-197.2501"/>
<polygon fill="#000000" stroke="#000000" points="180.5411,-197.8752 179.6848,-187.315 173.7688,-196.1043 180.5411,-197.8752"/>
</g>
<!-- getAnchorInRoom -->
<g id="node10" class="node">
<title>getAnchorInRoom</title>
<ellipse fill="none" stroke="#000000" cx="267.6559" cy="-436.8957" rx="76.3398" ry="18"/>
<text text-anchor="middle" x="267.6559" y="-432.6957" font-family="Times,serif" font-size="14.00" fill="#000000">getAnchorInRoom</text>
</g>
<!-- anchorScore -->
<g id="node25" class="node">
<title>anchorScore</title>
<ellipse fill="none" stroke="#000000" cx="254.1293" cy="-224.3616" rx="54.1058" ry="18"/>
<text text-anchor="middle" x="254.1293" y="-220.1616" font-family="Times,serif" font-size="14.00" fill="#000000">anchorScore</text>
</g>
<!-- getAnchorInRoom&#45;&gt;anchorScore -->
<g id="edge23" class="edge">
<title>getAnchorInRoom&#45;&gt;anchorScore</title>
<path fill="none" stroke="#000000" d="M281.9983,-419.0504C291.1006,-405.9855 301.2828,-387.3783 301.8933,-368.8806 303.4037,-323.1151 274.2259,-318.0543 261.7376,-273.9999 259.7886,-267.1244 258.3076,-259.5629 257.1949,-252.4595"/>
<polygon fill="#000000" stroke="#000000" points="260.6562,-251.938 255.8163,-242.5133 253.7224,-252.8991 260.6562,-251.938"/>
</g>
<!-- getAnchorInRoom&#45;&gt;mid -->
<g id="edge25" class="edge">
<title>getAnchorInRoom&#45;&gt;mid</title>
<path fill="none" stroke="#000000" stroke-dasharray="5,2" d="M287.6037,-454.5953C320.9567,-484.1894 387.9048,-543.5922 423.7242,-575.3747"/>
<polygon fill="#000000" stroke="#000000" points="421.4862,-578.068 431.2892,-582.087 426.1321,-572.832 421.4862,-578.068"/>
</g>
<!-- rankdb -->
<g id="node11" class="node">
<title>rankdb</title>
<ellipse fill="none" stroke="#000000" cx="144.645" cy="-486.2998" rx="34.8285" ry="18"/>
<text text-anchor="middle" x="144.645" y="-482.0998" font-family="Times,serif" font-size="14.00" fill="#000000">rankdb</text>
</g>
<!-- areaRank -->
<g id="node26" class="node">
<title>areaRank</title>
<ellipse fill="none" stroke="#000000" cx="428.3196" cy="-155.4678" rx="43.4887" ry="18"/>
<text text-anchor="middle" x="428.3196" y="-151.2678" font-family="Times,serif" font-size="14.00" fill="#000000">areaRank</text>
</g>
<!-- rankdb&#45;&gt;areaRank -->
<g id="edge24" class="edge">
<title>rankdb&#45;&gt;areaRank</title>
<path fill="none" stroke="#000000" d="M157.745,-469.56C166.1937,-459.3907 177.7852,-446.5402 189.6366,-436.8239 234.736,-399.8495 259.7836,-409.227 301.8933,-368.8806 362.6753,-310.6437 373.6046,-289.3744 410.5042,-213.7146 415.1487,-204.1915 418.8867,-193.2003 421.7162,-183.349"/>
<polygon fill="#000000" stroke="#000000" points="425.1195,-184.1708 424.336,-173.6049 418.3596,-182.3532 425.1195,-184.1708"/>
</g>
<!-- uname&#45;&gt;search -->
<g id="edge6" class="edge">
<title>uname&#45;&gt;search</title>
<path fill="none" stroke="#000000" d="M362.2237,-44.2138C360.2877,-61.2871 358.6753,-87.4798 363.1082,-109.6943 367.4516,-131.4599 371.2073,-136.7418 383.2255,-155.4011 449.5926,-258.441 494.1955,-262.3996 567.0853,-360.9332 585.0359,-385.1991 583.264,-395.0919 598.5619,-421.1117 612.6874,-445.1373 633.6375,-468.9446 649.7668,-485.6255"/>
<polygon fill="#000000" stroke="#000000" points="647.2859,-488.0944 656.7965,-492.7634 652.2733,-483.1826 647.2859,-488.0944"/>
</g>
<!-- roomStatus&#45;&gt;roundStatus -->
<g id="edge13" class="edge">
<title>roomStatus&#45;&gt;roundStatus</title>
<path fill="none" stroke="#000000" d="M348.2247,-142.6248C357.3712,-138.2648 367.5558,-133.41 377.2265,-128.8001"/>
<polygon fill="#000000" stroke="#000000" points="378.7695,-131.942 386.2903,-124.4795 375.7573,-125.6232 378.7695,-131.942"/>
</g>
<!-- roomStatus&#45;&gt;liveStatus -->
<g id="edge15" class="edge">
<title>roomStatus&#45;&gt;liveStatus</title>
<path fill="none" stroke="#000000" d="M331.9889,-174.3516C335.6425,-178.8513 339.6533,-183.7908 343.5613,-188.6038"/>
<polygon fill="#000000" stroke="#000000" points="340.9393,-190.9273 349.9599,-196.4843 346.3736,-186.5149 340.9393,-190.9273"/>
</g>
<!-- mid&#45;&gt;stat -->
<g id="edge1" class="edge">
<title>mid&#45;&gt;stat</title>
<path fill="none" stroke="#000000" d="M465.3244,-582.7086C489.2543,-563.9457 532.0877,-530.361 559.5326,-508.8421"/>
<polygon fill="#000000" stroke="#000000" points="561.8081,-511.5055 567.5179,-502.5809 557.4889,-505.9969 561.8081,-511.5055"/>
</g>
<!-- mid&#45;&gt;upstat -->
<g id="edge2" class="edge">
<title>mid&#45;&gt;upstat</title>
<path fill="none" stroke="#000000" d="M461.4945,-581.0015C482.876,-557.2564 525.5519,-510.9697 564.9319,-474.8936 577.3732,-463.496 591.8799,-451.6263 604.1602,-441.9543"/>
<polygon fill="#000000" stroke="#000000" points="606.5206,-444.5521 612.2535,-435.6423 602.2156,-439.0323 606.5206,-444.5521"/>
</g>
<!-- mid&#45;&gt;info -->
<g id="edge3" class="edge">
<title>mid&#45;&gt;info</title>
<path fill="none" stroke="#000000" d="M460.1608,-580.3992C491.5851,-539.8186 573.8732,-433.5536 611.1434,-385.4236"/>
<polygon fill="#000000" stroke="#000000" points="613.9938,-387.4593 617.3491,-377.4098 608.4592,-383.1735 613.9938,-387.4593"/>
</g>
<!-- mid&#45;&gt;_notice -->
<g id="edge7" class="edge">
<title>mid&#45;&gt;_notice</title>
<path fill="none" stroke="#000000" d="M469.1962,-585.6143C500.4408,-569.3142 559.5624,-536.917 605.3615,-502.6237 641.1432,-475.8312 678.2613,-439.8211 701.2485,-416.3834"/>
<polygon fill="#000000" stroke="#000000" points="704.0166,-418.5573 708.48,-408.9485 698.9987,-413.6766 704.0166,-418.5573"/>
</g>
<!-- mid&#45;&gt;getRoomInfoOld -->
<g id="edge31" class="edge">
<title>mid&#45;&gt;getRoomInfoOld</title>
<path fill="none" stroke="#000000" d="M439.6828,-578.9533C424.8245,-547.4567 390.2611,-480.7311 345.6753,-436.9675 325.3129,-416.9806 297.9884,-400.5198 274.984,-388.7714"/>
<polygon fill="#000000" stroke="#000000" points="276.2643,-385.4994 265.7511,-384.1869 273.1511,-391.7691 276.2643,-385.4994"/>
</g>
<!-- mid&#45;&gt;topList -->
<g id="edge33" class="edge">
<title>mid&#45;&gt;topList</title>
<path fill="none" stroke="#000000" d="M426.2599,-585.3199C370.4111,-555.8784 219.7326,-476.4463 151.9453,-440.7114"/>
<polygon fill="#000000" stroke="#000000" points="153.4272,-437.5361 142.9489,-435.9688 150.1628,-443.7283 153.4272,-437.5361"/>
</g>
<!-- mid&#45;&gt;rankdb -->
<g id="edge36" class="edge">
<title>mid&#45;&gt;rankdb</title>
<path fill="none" stroke="#000000" d="M423.8532,-587.9303C371.5479,-568.8915 246.1176,-523.2354 182.7122,-500.1561"/>
<polygon fill="#000000" stroke="#000000" points="183.6833,-496.785 173.0893,-496.6534 181.289,-503.3628 183.6833,-496.785"/>
</g>
<!-- cid&#45;&gt;list -->
<g id="edge5" class="edge">
<title>cid&#45;&gt;list</title>
<path fill="none" stroke="#000000" d="M430.3189,-641.7759C482.3991,-606.2362 627.4033,-507.285 688.1874,-465.8058"/>
<polygon fill="#000000" stroke="#000000" points="690.2362,-468.6451 696.5234,-460.1173 686.2905,-462.863 690.2362,-468.6451"/>
</g>
<!-- roomid&#45;&gt;topList -->
<g id="edge32" class="edge">
<title>roomid&#45;&gt;topList</title>
<path fill="none" stroke="#000000" d="M484.4923,-651.6643C418.4261,-610.4091 225.4815,-489.9246 149.4292,-442.4337"/>
<polygon fill="#000000" stroke="#000000" points="151.0864,-439.3421 140.7504,-437.0142 147.3787,-445.2796 151.0864,-439.3421"/>
</g>
<!-- roomid&#45;&gt;getAnchorInRoom -->
<g id="edge35" class="edge">
<title>roomid&#45;&gt;getAnchorInRoom</title>
<path fill="none" stroke="#000000" d="M484.0801,-651.7242C467.5711,-641.193 445.1661,-625.9587 427.2251,-610.3194 372.6902,-562.7811 317.3625,-498.1747 288.3555,-462.759"/>
<polygon fill="#000000" stroke="#000000" points="290.9276,-460.3746 281.9006,-454.828 285.4984,-464.7932 290.9276,-460.3746"/>
</g>
<!-- aid -->
<g id="node30" class="node">
<title>aid</title>
<ellipse fill="none" stroke="#000000" cx="825.026" cy="-585.5954" rx="27" ry="18"/>
<text text-anchor="middle" x="825.026" y="-581.3954" font-family="Times,serif" font-size="14.00" fill="#000000">aid</text>
</g>
<!-- aid&#45;&gt;view -->
<g id="edge4" class="edge">
<title>aid&#45;&gt;view</title>
<path fill="none" stroke="#000000" d="M806.5802,-572.1501C781.9068,-554.2305 736.7207,-521.6392 697.5546,-494.6245 658.2143,-467.4896 645.1876,-465.1036 608.0723,-434.997 593.8852,-423.4889 579.2285,-409.2352 567.7847,-397.4811"/>
<polygon fill="#000000" stroke="#000000" points="570.2166,-394.9604 560.7656,-390.1718 565.1676,-399.8089 570.2166,-394.9604"/>
</g>
<!-- p -->
<g id="node31" class="node">
<title>p</title>
<ellipse fill="none" stroke="#000000" cx="337.45" cy="-780.873" rx="27" ry="18"/>
<text text-anchor="middle" x="337.45" y="-776.673" font-family="Times,serif" font-size="14.00" fill="#000000">p</text>
</g>
<!-- p&#45;&gt;cid -->
<g id="edge29" class="edge">
<title>p&#45;&gt;cid</title>
<path fill="none" stroke="#000000" stroke-dasharray="1,5" d="M347.4078,-763.8654C359.9035,-742.5232 381.4598,-705.7058 396.0379,-680.807"/>
<polygon fill="#000000" stroke="#000000" points="399.2177,-682.3031 401.25,-671.905 393.1769,-678.7663 399.2177,-682.3031"/>
</g>
<!-- page -->
<g id="node32" class="node">
<title>page</title>
<ellipse fill="none" stroke="#000000" cx="26.6936" cy="-289.1934" rx="27" ry="18"/>
<text text-anchor="middle" x="26.6936" y="-284.9934" font-family="Times,serif" font-size="14.00" fill="#000000">page</text>
</g>
<!-- page&#45;&gt;topList -->
<g id="edge34" class="edge">
<title>page&#45;&gt;topList</title>
<path fill="none" stroke="#000000" stroke-dasharray="1,5" d="M37.9009,-305.5842C53.4899,-328.3834 81.8811,-369.9058 100.3601,-396.9315"/>
<polygon fill="#000000" stroke="#000000" points="97.6806,-399.2137 106.2141,-405.493 103.459,-395.2627 97.6806,-399.2137"/>
</g>
</g>
</svg>
