<?xml version="1.0" encoding="UTF-8" standalone="no"?>
<!DOCTYPE svg PUBLIC "-//W3C//DTD SVG 1.1//EN"
 "http://www.w3.org/Graphics/SVG/1.1/DTD/svg11.dtd">
<!-- Generated by graphviz version 2.40.1 (20161225.0304)
 -->
<!-- Title: G Pages: 1 -->
<svg width="507pt" height="518pt"
 viewBox="0.00 0.00 507.00 518.00" xmlns="http://www.w3.org/2000/svg" xmlns:xlink="http://www.w3.org/1999/xlink">
<g id="graph0" class="graph" transform="scale(1 1) rotate(0) translate(4 514)">
<title>G</title>
<polygon fill="#ffffff" stroke="transparent" points="-4,4 -4,-514 503,-514 503,4 -4,4"/>
<g id="clust1" class="cluster">
<title>cluster_api.bilibili.com</title>
<polygon fill="none" stroke="#000000" points="315.0394,-131.9654 315.0394,-300.9654 499.0394,-300.9654 499.0394,-131.9654 315.0394,-131.9654"/>
<text text-anchor="middle" x="407.0394" y="-285.7654" font-family="Times,serif" font-size="14.00" fill="#000000">api.bilibili.com</text>
</g>
<g id="clust2" class="cluster">
<title>cluster_api.live.bilibili.com</title>
<polygon fill="none" stroke="#000000" points=".0492,-226.7708 .0492,-310.7708 248.0492,-310.7708 248.0492,-226.7708 .0492,-226.7708"/>
<text text-anchor="middle" x="124.0492" y="-295.5708" font-family="Times,serif" font-size="14.00" fill="#000000">api.live.bilibili.com</text>
</g>
<g id="clust3" class="cluster">
<title>cluster_data</title>
<polygon fill="none" stroke="#000000" points="95.3316,.2739 95.3316,-206.7261 285.3316,-206.7261 285.3316,.2739 95.3316,.2739"/>
<text text-anchor="middle" x="190.3316" y="-191.5261" font-family="Times,serif" font-size="14.00" fill="#000000">data</text>
</g>
<g id="clust4" class="cluster">
<title>cluster_input</title>
<polygon fill="none" stroke="#000000" points="136.2322,-323.5348 136.2322,-460.5348 294.2322,-460.5348 294.2322,-323.5348 136.2322,-323.5348"/>
<text text-anchor="middle" x="215.2322" y="-445.3348" font-family="Times,serif" font-size="14.00" fill="#000000">input</text>
</g>
<!-- stat -->
<g id="node1" class="node">
<title>stat</title>
<ellipse fill="none" stroke="#000000" cx="358.2403" cy="-183.9897" rx="27" ry="18"/>
<text text-anchor="middle" x="358.2403" y="-179.7897" font-family="Times,serif" font-size="14.00" fill="#000000">stat</text>
</g>
<!-- follower -->
<g id="node8" class="node">
<title>follower</title>
<ellipse fill="none" stroke="#000000" cx="208.7637" cy="-158.9895" rx="40.1317" ry="18"/>
<text text-anchor="middle" x="208.7637" y="-154.7895" font-family="Times,serif" font-size="14.00" fill="#000000">follower</text>
</g>
<!-- stat&#45;&gt;follower -->
<g id="edge6" class="edge">
<title>stat&#45;&gt;follower</title>
<path fill="none" stroke="#000000" d="M331.861,-179.5777C311.0143,-176.0911 281.371,-171.1332 256.3978,-166.9564"/>
<polygon fill="#000000" stroke="#000000" points="256.817,-163.478 246.3766,-165.2803 255.6623,-170.3821 256.817,-163.478"/>
</g>
<!-- info -->
<g id="node2" class="node">
<title>info</title>
<ellipse fill="none" stroke="#000000" cx="349.8156" cy="-239.7134" rx="27" ry="18"/>
<text text-anchor="middle" x="349.8156" y="-235.5134" font-family="Times,serif" font-size="14.00" fill="#000000">info</text>
</g>
<!-- uname -->
<g id="node9" class="node">
<title>uname</title>
<ellipse fill="none" stroke="#000000" cx="241.3571" cy="-107.8501" rx="33.8596" ry="18"/>
<text text-anchor="middle" x="241.3571" y="-103.6501" font-family="Times,serif" font-size="14.00" fill="#000000">uname</text>
</g>
<!-- info&#45;&gt;uname -->
<g id="edge7" class="edge">
<title>info&#45;&gt;uname</title>
<path fill="none" stroke="#000000" d="M336.733,-223.8076C318.0453,-201.0873 283.5431,-159.1396 261.5593,-132.4118"/>
<polygon fill="#000000" stroke="#000000" points="264.2255,-130.1436 255.17,-124.6438 258.8193,-134.5903 264.2255,-130.1436"/>
</g>
<!-- sign -->
<g id="node10" class="node">
<title>sign</title>
<ellipse fill="none" stroke="#000000" cx="250.468" cy="-25.8688" rx="27" ry="18"/>
<text text-anchor="middle" x="250.468" y="-21.6688" font-family="Times,serif" font-size="14.00" fill="#000000">sign</text>
</g>
<!-- info&#45;&gt;sign -->
<g id="edge8" class="edge">
<title>info&#45;&gt;sign</title>
<path fill="none" stroke="#000000" d="M341.6856,-222.2136C324.3229,-184.8406 283.5257,-97.0252 262.8886,-52.604"/>
<polygon fill="#000000" stroke="#000000" points="265.9585,-50.9049 258.571,-43.3105 259.6102,-53.8542 265.9585,-50.9049"/>
</g>
<!-- view -->
<g id="node3" class="node">
<title>view</title>
<ellipse fill="none" stroke="#000000" cx="433.8189" cy="-253.2068" rx="27.0958" ry="18"/>
<text text-anchor="middle" x="433.8189" y="-249.0068" font-family="Times,serif" font-size="14.00" fill="#000000">view</text>
</g>
<!-- mid -->
<g id="node12" class="node">
<title>mid</title>
<ellipse fill="none" stroke="#000000" cx="258.9944" cy="-349.6279" rx="27" ry="18"/>
<text text-anchor="middle" x="258.9944" y="-345.4279" font-family="Times,serif" font-size="14.00" fill="#000000">mid</text>
</g>
<!-- view&#45;&gt;mid -->
<g id="edge10" class="edge">
<title>view&#45;&gt;mid</title>
<path fill="none" stroke="#000000" stroke-dasharray="5,2" d="M412.731,-264.8374C381.802,-281.8957 323.9983,-313.7763 288.7569,-333.213"/>
<polygon fill="#000000" stroke="#000000" points="286.9511,-330.2118 279.885,-338.1061 290.3318,-336.3414 286.9511,-330.2118"/>
</g>
<!-- cid -->
<g id="node13" class="node">
<title>cid</title>
<ellipse fill="none" stroke="#000000" cx="220.0491" cy="-412.3651" rx="27" ry="18"/>
<text text-anchor="middle" x="220.0491" y="-408.1651" font-family="Times,serif" font-size="14.00" fill="#000000">cid</text>
</g>
<!-- view&#45;&gt;cid -->
<g id="edge12" class="edge">
<title>view&#45;&gt;cid</title>
<path fill="none" stroke="#000000" d="M415.593,-266.7765C377.7301,-294.9667 290.4325,-359.9624 246.4256,-392.727"/>
<polygon fill="#000000" stroke="#000000" points="244.1597,-390.0504 238.2289,-398.8297 248.3401,-395.6651 244.1597,-390.0504"/>
</g>
<!-- list -->
<g id="node4" class="node">
<title>list</title>
<ellipse fill="none" stroke="#000000" cx="431.3431" cy="-204.7602" rx="27" ry="18"/>
<text text-anchor="middle" x="431.3431" y="-200.5602" font-family="Times,serif" font-size="14.00" fill="#000000">list</text>
</g>
<!-- search -->
<g id="node5" class="node">
<title>search</title>
<ellipse fill="none" stroke="#000000" cx="458.7192" cy="-157.5102" rx="32.8821" ry="18"/>
<text text-anchor="middle" x="458.7192" y="-153.3102" font-family="Times,serif" font-size="14.00" fill="#000000">search</text>
</g>
<!-- search&#45;&gt;mid -->
<g id="edge11" class="edge">
<title>search&#45;&gt;mid</title>
<path fill="none" stroke="#000000" stroke-dasharray="5,2" d="M436.0671,-170.8578C427.6997,-176.4153 418.4866,-183.3294 411.1879,-190.8544 387.9446,-214.8185 391.9446,-228.5234 369.9467,-253.6356 344.0869,-283.1564 309.1636,-311.9147 285.4544,-330.1346"/>
<polygon fill="#000000" stroke="#000000" points="283.1128,-327.5178 277.2643,-336.3522 287.3455,-333.0932 283.1128,-327.5178"/>
</g>
<!-- getRoomInfoOld -->
<g id="node6" class="node">
<title>getRoomInfoOld</title>
<ellipse fill="none" stroke="#000000" cx="169.7977" cy="-262.9145" rx="70.56" ry="18"/>
<text text-anchor="middle" x="169.7977" y="-258.7145" font-family="Times,serif" font-size="14.00" fill="#000000">getRoomInfoOld</text>
</g>
<!-- roomid -->
<g id="node14" class="node">
<title>roomid</title>
<ellipse fill="none" stroke="#000000" cx="179.6356" cy="-356.6106" rx="35.806" ry="18"/>
<text text-anchor="middle" x="179.6356" y="-352.4106" font-family="Times,serif" font-size="14.00" fill="#000000">roomid</text>
</g>
<!-- getRoomInfoOld&#45;&gt;roomid -->
<g id="edge14" class="edge">
<title>getRoomInfoOld&#45;&gt;roomid</title>
<path fill="none" stroke="#000000" d="M171.6946,-280.98C173.11,-294.4606 175.0705,-313.1324 176.6893,-328.5503"/>
<polygon fill="#000000" stroke="#000000" points="173.2194,-329.0207 177.7446,-338.6005 180.1811,-328.2897 173.2194,-329.0207"/>
</g>
<!-- topList -->
<g id="node7" class="node">
<title>topList</title>
<ellipse fill="none" stroke="#000000" cx="42.7321" cy="-253.1256" rx="35.3303" ry="18"/>
<text text-anchor="middle" x="42.7321" y="-248.9256" font-family="Times,serif" font-size="14.00" fill="#000000">topList</text>
</g>
<!-- guardNum -->
<g id="node11" class="node">
<title>guardNum</title>
<ellipse fill="none" stroke="#000000" cx="151.547" cy="-62.8481" rx="47.8582" ry="18"/>
<text text-anchor="middle" x="151.547" y="-58.6481" font-family="Times,serif" font-size="14.00" fill="#000000">guardNum</text>
</g>
<!-- topList&#45;&gt;guardNum -->
<g id="edge9" class="edge">
<title>topList&#45;&gt;guardNum</title>
<path fill="none" stroke="#000000" d="M52.7741,-235.5658C71.9165,-202.0927 113.7303,-128.9757 136.3283,-89.4602"/>
<polygon fill="#000000" stroke="#000000" points="139.445,-91.0604 141.3711,-80.6421 133.3685,-87.5853 139.445,-91.0604"/>
</g>
<!-- uname&#45;&gt;search -->
<g id="edge5" class="edge">
<title>uname&#45;&gt;search</title>
<path fill="none" stroke="#000000" d="M272.4998,-114.9652C310.8898,-123.736 376.2128,-138.6602 418.3998,-148.2985"/>
<polygon fill="#000000" stroke="#000000" points="417.8067,-151.7531 428.3351,-150.5684 419.3659,-144.929 417.8067,-151.7531"/>
</g>
<!-- mid&#45;&gt;stat -->
<g id="edge1" class="edge">
<title>mid&#45;&gt;stat</title>
<path fill="none" stroke="#000000" d="M268.0157,-332.4478C280.9207,-308.2052 305.7453,-262.7864 329.6845,-225.7913 333.2566,-220.271 337.1796,-214.4072 340.9434,-208.8722"/>
<polygon fill="#000000" stroke="#000000" points="343.8868,-210.7686 346.6535,-200.5414 338.1129,-206.811 343.8868,-210.7686"/>
</g>
<!-- mid&#45;&gt;info -->
<g id="edge2" class="edge">
<title>mid&#45;&gt;info</title>
<path fill="none" stroke="#000000" d="M272.3954,-333.4097C287.6415,-314.9584 312.682,-284.6536 330.1428,-263.522"/>
<polygon fill="#000000" stroke="#000000" points="332.9832,-265.5792 336.6549,-255.6409 327.587,-261.1203 332.9832,-265.5792"/>
</g>
<!-- mid&#45;&gt;getRoomInfoOld -->
<g id="edge15" class="edge">
<title>mid&#45;&gt;getRoomInfoOld</title>
<path fill="none" stroke="#000000" d="M243.4575,-334.5236C230.1604,-321.5967 210.7584,-302.7348 195.2046,-287.6141"/>
<polygon fill="#000000" stroke="#000000" points="197.5318,-284.9951 187.9219,-280.5341 192.6524,-290.0142 197.5318,-284.9951"/>
</g>
<!-- mid&#45;&gt;topList -->
<g id="edge17" class="edge">
<title>mid&#45;&gt;topList</title>
<path fill="none" stroke="#000000" d="M236.2593,-339.4829C198.776,-322.7568 123.7053,-289.2581 78.8779,-269.2549"/>
<polygon fill="#000000" stroke="#000000" points="80.0839,-265.9604 69.5256,-265.0816 77.2314,-272.3529 80.0839,-265.9604"/>
</g>
<!-- cid&#45;&gt;list -->
<g id="edge4" class="edge">
<title>cid&#45;&gt;list</title>
<path fill="none" stroke="#000000" d="M237.8125,-398.5734C249.7782,-389.0706 265.7517,-375.967 279.1013,-363.5665 328.3736,-317.7974 381.8883,-259.8613 410.5,-228.1475"/>
<polygon fill="#000000" stroke="#000000" points="413.1369,-230.4495 417.2199,-220.673 407.9314,-225.7695 413.1369,-230.4495"/>
</g>
<!-- roomid&#45;&gt;topList -->
<g id="edge16" class="edge">
<title>roomid&#45;&gt;topList</title>
<path fill="none" stroke="#000000" d="M159.7287,-341.563C136.3075,-323.859 97.2646,-294.3466 70.7836,-274.3297"/>
<polygon fill="#000000" stroke="#000000" points="72.751,-271.4294 62.663,-268.1914 68.5299,-277.0136 72.751,-271.4294"/>
</g>
<!-- aid -->
<g id="node15" class="node">
<title>aid</title>
<ellipse fill="none" stroke="#000000" cx="465.1272" cy="-345.952" rx="27" ry="18"/>
<text text-anchor="middle" x="465.1272" y="-341.752" font-family="Times,serif" font-size="14.00" fill="#000000">aid</text>
</g>
<!-- aid&#45;&gt;view -->
<g id="edge3" class="edge">
<title>aid&#45;&gt;view</title>
<path fill="none" stroke="#000000" d="M459.0906,-328.0698C454.5428,-314.5978 448.2269,-295.8879 443.0469,-280.543"/>
<polygon fill="#000000" stroke="#000000" points="446.3516,-279.3894 439.8369,-271.0341 439.7193,-281.6283 446.3516,-279.3894"/>
</g>
<!-- p -->
<g id="node16" class="node">
<title>p</title>
<ellipse fill="none" stroke="#000000" cx="70.8067" cy="-491.6909" rx="27" ry="18"/>
<text text-anchor="middle" x="70.8067" y="-487.4909" font-family="Times,serif" font-size="14.00" fill="#000000">p</text>
</g>
<!-- p&#45;&gt;cid -->
<g id="edge13" class="edge">
<title>p&#45;&gt;cid</title>
<path fill="none" stroke="#000000" stroke-dasharray="1,5" d="M92.1895,-480.3254C117.7899,-466.7182 160.8338,-443.8394 189.8264,-428.4291"/>
<polygon fill="#000000" stroke="#000000" points="191.5185,-431.4935 198.706,-423.7094 188.2331,-425.3123 191.5185,-431.4935"/>
</g>
<!-- page -->
<g id="node17" class="node">
<title>page</title>
<ellipse fill="none" stroke="#000000" cx="44.9286" cy="-189.6317" rx="27" ry="18"/>
<text text-anchor="middle" x="44.9286" y="-185.4317" font-family="Times,serif" font-size="14.00" fill="#000000">page</text>
</g>
<!-- page&#45;&gt;topList -->
<g id="edge18" class="edge">
<title>page&#45;&gt;topList</title>
<path fill="none" stroke="#000000" stroke-dasharray="1,5" d="M44.305,-207.6566C44.1211,-212.9728 43.9152,-218.9247 43.7145,-224.7258"/>
<polygon fill="#000000" stroke="#000000" points="40.2127,-224.72 43.3648,-234.8351 47.2086,-224.9621 40.2127,-224.72"/>
</g>
</g>
</svg>
