<?xml version="1.0" encoding="UTF-8" standalone="no"?>
<!DOCTYPE svg PUBLIC "-//W3C//DTD SVG 1.1//EN"
 "http://www.w3.org/Graphics/SVG/1.1/DTD/svg11.dtd">
<!-- Generated by graphviz version 2.40.1 (20161225.0304)
 -->
<!-- Title: G Pages: 1 -->
<svg width="693pt" height="765pt"
 viewBox="0.00 0.00 693.00 765.00" xmlns="http://www.w3.org/2000/svg" xmlns:xlink="http://www.w3.org/1999/xlink">
<g id="graph0" class="graph" transform="scale(1 1) rotate(0) translate(4 761)">
<title>G</title>
<polygon fill="#ffffff" stroke="transparent" points="-4,4 -4,-761 689,-761 689,4 -4,4"/>
<g id="clust1" class="cluster">
<title>cluster_api.bilibili.com</title>
<polygon fill="none" stroke="#000000" points="119.7596,-344.6427 119.7596,-593.6427 389.7596,-593.6427 389.7596,-344.6427 119.7596,-344.6427"/>
<text text-anchor="middle" x="254.7596" y="-578.4427" font-family="Times,serif" font-size="14.00" fill="#000000">api.bilibili.com</text>
</g>
<g id="clust2" class="cluster">
<title>cluster_api.live.bilibili.com</title>
<polygon fill="none" stroke="#000000" points="420.25,-170.0286 420.25,-352.0286 685.25,-352.0286 685.25,-170.0286 420.25,-170.0286"/>
<text text-anchor="middle" x="552.75" y="-336.8286" font-family="Times,serif" font-size="14.00" fill="#000000">api.live.bilibili.com</text>
</g>
<g id="clust3" class="cluster">
<title>cluster_data</title>
<polygon fill="none" stroke="#000000" points="-.0505,.3756 -.0505,-330.6244 405.9495,-330.6244 405.9495,.3756 -.0505,.3756"/>
<text text-anchor="middle" x="202.9495" y="-315.4244" font-family="Times,serif" font-size="14.00" fill="#000000">data</text>
</g>
<g id="clust4" class="cluster">
<title>cluster_input</title>
<polygon fill="none" stroke="#000000" points="398.6998,-367.5291 398.6998,-512.5291 568.6998,-512.5291 568.6998,-367.5291 398.6998,-367.5291"/>
<text text-anchor="middle" x="483.6998" y="-497.3291" font-family="Times,serif" font-size="14.00" fill="#000000">input</text>
</g>
<!-- stat -->
<g id="node1" class="node">
<title>stat</title>
<ellipse fill="none" stroke="#000000" cx="155.1233" cy="-488.6175" rx="27" ry="18"/>
<text text-anchor="middle" x="155.1233" y="-484.4175" font-family="Times,serif" font-size="14.00" fill="#000000">stat</text>
</g>
<!-- follower -->
<g id="node12" class="node">
<title>follower</title>
<ellipse fill="none" stroke="#000000" cx="209.8472" cy="-102.4727" rx="40.1317" ry="18"/>
<text text-anchor="middle" x="209.8472" y="-98.2727" font-family="Times,serif" font-size="14.00" fill="#000000">follower</text>
</g>
<!-- stat&#45;&gt;follower -->
<g id="edge8" class="edge">
<title>stat&#45;&gt;follower</title>
<path fill="none" stroke="#000000" d="M152.9393,-470.6077C148.1454,-426.7573 138.6694,-311.2077 158.9713,-218.0152 159.9754,-213.4058 182.6451,-162.7256 197.3812,-130.0349"/>
<polygon fill="#000000" stroke="#000000" points="200.7438,-131.0926 201.6671,-120.538 194.3634,-128.2131 200.7438,-131.0926"/>
</g>
<!-- upstat -->
<g id="node2" class="node">
<title>upstat</title>
<ellipse fill="none" stroke="#000000" cx="189.337" cy="-442.7998" rx="31.4636" ry="18"/>
<text text-anchor="middle" x="189.337" y="-438.5998" font-family="Times,serif" font-size="14.00" fill="#000000">upstat</text>
</g>
<!-- archiveView -->
<g id="node22" class="node">
<title>archiveView</title>
<ellipse fill="none" stroke="#000000" cx="87.061" cy="-209.3044" rx="54.513" ry="18"/>
<text text-anchor="middle" x="87.061" y="-205.1044" font-family="Times,serif" font-size="14.00" fill="#000000">archiveView</text>
</g>
<!-- upstat&#45;&gt;archiveView -->
<g id="edge21" class="edge">
<title>upstat&#45;&gt;archiveView</title>
<path fill="none" stroke="#000000" d="M184.9715,-424.9295C174.5842,-382.7176 148.669,-279.311 140.6637,-265.1983 133.9638,-253.3868 124.207,-242.1952 114.8483,-232.9728"/>
<polygon fill="#000000" stroke="#000000" points="117.1667,-230.3481 107.4941,-226.0246 112.3593,-235.4363 117.1667,-230.3481"/>
</g>
<!-- articleView -->
<g id="node23" class="node">
<title>articleView</title>
<ellipse fill="none" stroke="#000000" cx="88.2372" cy="-265.197" rx="50.6536" ry="18"/>
<text text-anchor="middle" x="88.2372" y="-260.997" font-family="Times,serif" font-size="14.00" fill="#000000">articleView</text>
</g>
<!-- upstat&#45;&gt;articleView -->
<g id="edge22" class="edge">
<title>upstat&#45;&gt;articleView</title>
<path fill="none" stroke="#000000" d="M179.4591,-425.4471C161.6869,-394.2267 124.2252,-328.4173 103.2582,-291.5845"/>
<polygon fill="#000000" stroke="#000000" points="106.2939,-289.8423 98.305,-282.8832 100.2105,-293.3053 106.2939,-289.8423"/>
</g>
<!-- info -->
<g id="node3" class="node">
<title>info</title>
<ellipse fill="none" stroke="#000000" cx="208.2243" cy="-545.9141" rx="27" ry="18"/>
<text text-anchor="middle" x="208.2243" y="-541.7141" font-family="Times,serif" font-size="14.00" fill="#000000">info</text>
</g>
<!-- uname -->
<g id="node13" class="node">
<title>uname</title>
<ellipse fill="none" stroke="#000000" cx="194.2506" cy="-218.0412" rx="33.8596" ry="18"/>
<text text-anchor="middle" x="194.2506" y="-213.8412" font-family="Times,serif" font-size="14.00" fill="#000000">uname</text>
</g>
<!-- info&#45;&gt;uname -->
<g id="edge9" class="edge">
<title>info&#45;&gt;uname</title>
<path fill="none" stroke="#000000" d="M214.1056,-528.1802C223.805,-496.4726 241.0255,-428.0615 229.8681,-371.2408 220.8208,-325.1657 185.7292,-324.8316 179.6954,-278.266 178.2854,-267.3851 180.3097,-255.6141 183.2554,-245.3897"/>
<polygon fill="#000000" stroke="#000000" points="186.6193,-246.3638 186.4152,-235.771 179.969,-244.1791 186.6193,-246.3638"/>
</g>
<!-- sign -->
<g id="node14" class="node">
<title>sign</title>
<ellipse fill="none" stroke="#000000" cx="161.7131" cy="-25.7499" rx="27" ry="18"/>
<text text-anchor="middle" x="161.7131" y="-21.5499" font-family="Times,serif" font-size="14.00" fill="#000000">sign</text>
</g>
<!-- info&#45;&gt;sign -->
<g id="edge10" class="edge">
<title>info&#45;&gt;sign</title>
<path fill="none" stroke="#000000" d="M201.4069,-528.3451C196.784,-516.8674 190.3319,-501.6482 183.7233,-488.6257 182.3814,-485.9814 157.2746,-445.5748 156.5064,-442.7107 130.633,-346.2498 138.3662,-315.7372 158.9713,-218.0152 165.4526,-187.2767 185.9725,-184.4446 186.7989,-153.0411 187.4301,-129.053 173.3752,-125.7881 168.1821,-102.3603 164.7063,-86.6798 163.0688,-68.8145 162.3094,-54.2825"/>
<polygon fill="#000000" stroke="#000000" points="165.7909,-53.759 161.8839,-43.9109 158.7968,-54.046 165.7909,-53.759"/>
</g>
<!-- face -->
<g id="node24" class="node">
<title>face</title>
<ellipse fill="none" stroke="#000000" cx="253.6001" cy="-164.2159" rx="27" ry="18"/>
<text text-anchor="middle" x="253.6001" y="-160.0159" font-family="Times,serif" font-size="14.00" fill="#000000">face</text>
</g>
<!-- info&#45;&gt;face -->
<g id="edge23" class="edge">
<title>info&#45;&gt;face</title>
<path fill="none" stroke="#000000" d="M211.5787,-527.961C215.9399,-505.3364 224.0966,-465.3313 233.3074,-431.6278 252.2139,-362.4462 281.5434,-350.0128 283.6846,-278.3262 283.9429,-269.6788 270.7639,-222.7675 261.7667,-191.849"/>
<polygon fill="#000000" stroke="#000000" points="265.0686,-190.6699 258.9013,-182.0551 258.3502,-192.6356 265.0686,-190.6699"/>
</g>
<!-- view -->
<g id="node4" class="node">
<title>view</title>
<ellipse fill="none" stroke="#000000" cx="262.2044" cy="-431.6937" rx="27.0958" ry="18"/>
<text text-anchor="middle" x="262.2044" y="-427.4937" font-family="Times,serif" font-size="14.00" fill="#000000">view</text>
</g>
<!-- mid -->
<g id="node27" class="node">
<title>mid</title>
<ellipse fill="none" stroke="#000000" cx="461.2444" cy="-393.8728" rx="27" ry="18"/>
<text text-anchor="middle" x="461.2444" y="-389.6728" font-family="Times,serif" font-size="14.00" fill="#000000">mid</text>
</g>
<!-- view&#45;&gt;mid -->
<g id="edge27" class="edge">
<title>view&#45;&gt;mid</title>
<path fill="none" stroke="#000000" stroke-dasharray="5,2" d="M288.6353,-426.6714C323.6787,-420.0125 385.6684,-408.2335 425.0427,-400.7517"/>
<polygon fill="#000000" stroke="#000000" points="425.8503,-404.161 435.0212,-398.8556 424.5435,-397.284 425.8503,-404.161"/>
</g>
<!-- cid -->
<g id="node28" class="node">
<title>cid</title>
<ellipse fill="none" stroke="#000000" cx="433.8625" cy="-464.5874" rx="27" ry="18"/>
<text text-anchor="middle" x="433.8625" y="-460.3874" font-family="Times,serif" font-size="14.00" fill="#000000">cid</text>
</g>
<!-- view&#45;&gt;cid -->
<g id="edge29" class="edge">
<title>view&#45;&gt;cid</title>
<path fill="none" stroke="#000000" d="M289.6122,-431.9299C306.6953,-432.3851 329.0906,-433.542 348.7494,-436.3781 359.7102,-437.9595 362.394,-438.9199 372.9962,-442.1191 382.2619,-444.915 392.1643,-448.3651 401.2324,-451.7154"/>
<polygon fill="#000000" stroke="#000000" points="400.0833,-455.0226 410.6751,-455.2759 402.553,-448.4727 400.0833,-455.0226"/>
</g>
<!-- list -->
<g id="node5" class="node">
<title>list</title>
<ellipse fill="none" stroke="#000000" cx="201.2686" cy="-371.1299" rx="27" ry="18"/>
<text text-anchor="middle" x="201.2686" y="-366.9299" font-family="Times,serif" font-size="14.00" fill="#000000">list</text>
</g>
<!-- search -->
<g id="node6" class="node">
<title>search</title>
<ellipse fill="none" stroke="#000000" cx="348.7487" cy="-455.9781" rx="32.8821" ry="18"/>
<text text-anchor="middle" x="348.7487" y="-451.7781" font-family="Times,serif" font-size="14.00" fill="#000000">search</text>
</g>
<!-- search&#45;&gt;mid -->
<g id="edge28" class="edge">
<title>search&#45;&gt;mid</title>
<path fill="none" stroke="#000000" stroke-dasharray="5,2" d="M372.0579,-443.1099C389.2352,-433.6269 412.7403,-420.6504 431.3078,-410.3999"/>
<polygon fill="#000000" stroke="#000000" points="433.1786,-413.365 440.2415,-405.4678 429.7954,-407.2369 433.1786,-413.365"/>
</g>
<!-- _notice -->
<g id="node7" class="node">
<title>_notice</title>
<ellipse fill="none" stroke="#000000" cx="302.8642" cy="-506.0763" rx="36.2732" ry="18"/>
<text text-anchor="middle" x="302.8642" y="-501.8763" font-family="Times,serif" font-size="14.00" fill="#000000">_notice</text>
</g>
<!-- notice -->
<g id="node21" class="node">
<title>notice</title>
<ellipse fill="none" stroke="#000000" cx="39.5878" cy="-154.1422" rx="31.9306" ry="18"/>
<text text-anchor="middle" x="39.5878" y="-149.9422" font-family="Times,serif" font-size="14.00" fill="#000000">notice</text>
</g>
<!-- _notice&#45;&gt;notice -->
<g id="edge20" class="edge">
<title>_notice&#45;&gt;notice</title>
<path fill="none" stroke="#000000" d="M301.9446,-487.8689C300.7114,-472.5141 297.8293,-450.1625 291.1014,-431.7595 262.1579,-352.5903 224.4781,-349.6803 179.6954,-278.266 161.3051,-248.9394 165.1013,-236.3279 143.4169,-209.3457 126.5951,-188.4142 99.6488,-174.4186 77.4231,-165.7573"/>
<polygon fill="#000000" stroke="#000000" points="78.5078,-162.427 67.9143,-162.2574 76.0899,-168.9962 78.5078,-162.427"/>
</g>
<!-- getRoomInfoOld -->
<g id="node8" class="node">
<title>getRoomInfoOld</title>
<ellipse fill="none" stroke="#000000" cx="555.8572" cy="-196.024" rx="70.56" ry="18"/>
<text text-anchor="middle" x="555.8572" y="-191.824" font-family="Times,serif" font-size="14.00" fill="#000000">getRoomInfoOld</text>
</g>
<!-- roomStatus -->
<g id="node16" class="node">
<title>roomStatus</title>
<ellipse fill="none" stroke="#000000" cx="231.69" cy="-278.2961" rx="50.2896" ry="18"/>
<text text-anchor="middle" x="231.69" y="-274.0961" font-family="Times,serif" font-size="14.00" fill="#000000">roomStatus</text>
</g>
<!-- getRoomInfoOld&#45;&gt;roomStatus -->
<g id="edge12" class="edge">
<title>getRoomInfoOld&#45;&gt;roomStatus</title>
<path fill="none" stroke="#000000" d="M506.8628,-209.1421C468.6556,-219.306 414.2336,-233.6386 366.432,-245.688 339.2537,-252.5388 308.9194,-259.9045 283.9245,-265.899"/>
<polygon fill="#000000" stroke="#000000" points="282.8302,-262.562 273.9196,-268.2937 284.4597,-269.3697 282.8302,-262.562"/>
</g>
<!-- roundStatus -->
<g id="node17" class="node">
<title>roundStatus</title>
<ellipse fill="none" stroke="#000000" cx="328.5006" cy="-231.7479" rx="52.2192" ry="18"/>
<text text-anchor="middle" x="328.5006" y="-227.5479" font-family="Times,serif" font-size="14.00" fill="#000000">roundStatus</text>
</g>
<!-- getRoomInfoOld&#45;&gt;roundStatus -->
<g id="edge14" class="edge">
<title>getRoomInfoOld&#45;&gt;roundStatus</title>
<path fill="none" stroke="#000000" d="M495.5267,-205.5036C461.668,-210.8237 419.6436,-217.4268 386.2189,-222.6788"/>
<polygon fill="#000000" stroke="#000000" points="385.4758,-219.2525 376.1404,-224.2624 386.5625,-226.1677 385.4758,-219.2525"/>
</g>
<!-- liveStatus -->
<g id="node18" class="node">
<title>liveStatus</title>
<ellipse fill="none" stroke="#000000" cx="353.3644" cy="-152.9499" rx="44.9768" ry="18"/>
<text text-anchor="middle" x="353.3644" y="-148.7499" font-family="Times,serif" font-size="14.00" fill="#000000">liveStatus</text>
</g>
<!-- getRoomInfoOld&#45;&gt;liveStatus -->
<g id="edge16" class="edge">
<title>getRoomInfoOld&#45;&gt;liveStatus</title>
<path fill="none" stroke="#000000" d="M501.5928,-184.481C470.9645,-177.9657 432.9656,-169.8826 403.1099,-163.5317"/>
<polygon fill="#000000" stroke="#000000" points="403.8289,-160.1064 393.3194,-161.4491 402.3723,-166.9533 403.8289,-160.1064"/>
</g>
<!-- title -->
<g id="node19" class="node">
<title>title</title>
<ellipse fill="none" stroke="#000000" cx="96.9681" cy="-99.3727" rx="27" ry="18"/>
<text text-anchor="middle" x="96.9681" y="-95.1727" font-family="Times,serif" font-size="14.00" fill="#000000">title</text>
</g>
<!-- getRoomInfoOld&#45;&gt;title -->
<g id="edge17" class="edge">
<title>getRoomInfoOld&#45;&gt;title</title>
<path fill="none" stroke="#000000" d="M486.6752,-192.2702C439.2593,-188.5264 375.2535,-181.1539 320.3501,-166.7792 299.1945,-161.2403 294.767,-157.1021 273.939,-150.4363 225.014,-134.7781 167.8052,-118.664 131.9741,-108.8319"/>
<polygon fill="#000000" stroke="#000000" points="132.5856,-105.3707 122.0166,-106.1103 130.74,-112.123 132.5856,-105.3707"/>
</g>
<!-- roomid -->
<g id="node29" class="node">
<title>roomid</title>
<ellipse fill="none" stroke="#000000" cx="525.119" cy="-449.9323" rx="35.806" ry="18"/>
<text text-anchor="middle" x="525.119" y="-445.7323" font-family="Times,serif" font-size="14.00" fill="#000000">roomid</text>
</g>
<!-- getRoomInfoOld&#45;&gt;roomid -->
<g id="edge31" class="edge">
<title>getRoomInfoOld&#45;&gt;roomid</title>
<path fill="none" stroke="#000000" d="M569.8469,-213.7869C577.7093,-225.8279 585.4243,-242.3466 582.5587,-258.0261 577.6158,-285.0721 551.2502,-278.249 540.8258,-303.6902 525.046,-342.2012 522.9924,-390.9523 523.5833,-421.2949"/>
<polygon fill="#000000" stroke="#000000" points="520.094,-421.7002 523.9001,-431.5877 527.0907,-421.4848 520.094,-421.7002"/>
</g>
<!-- topList -->
<g id="node9" class="node">
<title>topList</title>
<ellipse fill="none" stroke="#000000" cx="577.5895" cy="-303.8373" rx="35.3303" ry="18"/>
<text text-anchor="middle" x="577.5895" y="-299.6373" font-family="Times,serif" font-size="14.00" fill="#000000">topList</text>
</g>
<!-- guardNum -->
<g id="node15" class="node">
<title>guardNum</title>
<ellipse fill="none" stroke="#000000" cx="344.8054" cy="-282.835" rx="47.8582" ry="18"/>
<text text-anchor="middle" x="344.8054" y="-278.635" font-family="Times,serif" font-size="14.00" fill="#000000">guardNum</text>
</g>
<!-- topList&#45;&gt;guardNum -->
<g id="edge11" class="edge">
<title>topList&#45;&gt;guardNum</title>
<path fill="none" stroke="#000000" d="M542.7394,-300.693C505.4385,-297.3277 445.6838,-291.9365 401.5769,-287.9571"/>
<polygon fill="#000000" stroke="#000000" points="401.8467,-284.4673 391.5726,-287.0545 401.2176,-291.439 401.8467,-284.4673"/>
</g>
<!-- getAnchorInRoom -->
<g id="node10" class="node">
<title>getAnchorInRoom</title>
<ellipse fill="none" stroke="#000000" cx="504.5394" cy="-257.9543" rx="76.3398" ry="18"/>
<text text-anchor="middle" x="504.5394" y="-253.7543" font-family="Times,serif" font-size="14.00" fill="#000000">getAnchorInRoom</text>
</g>
<!-- anchorScore -->
<g id="node25" class="node">
<title>anchorScore</title>
<ellipse fill="none" stroke="#000000" cx="331.9228" cy="-104.5887" rx="54.1058" ry="18"/>
<text text-anchor="middle" x="331.9228" y="-100.3887" font-family="Times,serif" font-size="14.00" fill="#000000">anchorScore</text>
</g>
<!-- getAnchorInRoom&#45;&gt;anchorScore -->
<g id="edge24" class="edge">
<title>getAnchorInRoom&#45;&gt;anchorScore</title>
<path fill="none" stroke="#000000" d="M489.1971,-240.202C467.644,-215.8311 426.5278,-171.3683 386.3787,-139.1207 380.6182,-134.4939 374.2084,-129.9575 367.867,-125.7725"/>
<polygon fill="#000000" stroke="#000000" points="369.6388,-122.751 359.3295,-120.308 365.8652,-128.6468 369.6388,-122.751"/>
</g>
<!-- getAnchorInRoom&#45;&gt;mid -->
<g id="edge26" class="edge">
<title>getAnchorInRoom&#45;&gt;mid</title>
<path fill="none" stroke="#000000" stroke-dasharray="5,2" d="M498.7901,-276.0033C491.4066,-299.1827 478.5238,-339.6268 469.9391,-366.577"/>
<polygon fill="#000000" stroke="#000000" points="466.5801,-365.5906 466.8799,-376.1812 473.2499,-367.7152 466.5801,-365.5906"/>
</g>
<!-- rankdb -->
<g id="node11" class="node">
<title>rankdb</title>
<ellipse fill="none" stroke="#000000" cx="642.6183" cy="-247.247" rx="34.8285" ry="18"/>
<text text-anchor="middle" x="642.6183" y="-243.047" font-family="Times,serif" font-size="14.00" fill="#000000">rankdb</text>
</g>
<!-- areaRank -->
<g id="node26" class="node">
<title>areaRank</title>
<ellipse fill="none" stroke="#000000" cx="141.7048" cy="-152.9744" rx="43.4887" ry="18"/>
<text text-anchor="middle" x="141.7048" y="-148.7744" font-family="Times,serif" font-size="14.00" fill="#000000">areaRank</text>
</g>
<!-- rankdb&#45;&gt;areaRank -->
<g id="edge25" class="edge">
<title>rankdb&#45;&gt;areaRank</title>
<path fill="none" stroke="#000000" d="M608.8099,-242.986C540.9887,-234.1637 383.6757,-212.3173 253.4362,-183.8155 231.1366,-178.9355 206.661,-172.3246 186.3164,-166.475"/>
<polygon fill="#000000" stroke="#000000" points="187.2681,-163.1068 176.6885,-163.6754 185.3136,-169.8284 187.2681,-163.1068"/>
</g>
<!-- uname&#45;&gt;search -->
<g id="edge6" class="edge">
<title>uname&#45;&gt;search</title>
<path fill="none" stroke="#000000" d="M221.164,-229.2906C241.5113,-239.205 268.4593,-255.62 283.6846,-278.3262 315.6509,-325.9989 334.2934,-391.367 342.907,-428.0583"/>
<polygon fill="#000000" stroke="#000000" points="339.5454,-429.0611 345.1678,-438.041 346.3725,-427.5149 339.5454,-429.0611"/>
</g>
<!-- roomStatus&#45;&gt;roundStatus -->
<g id="edge13" class="edge">
<title>roomStatus&#45;&gt;roundStatus</title>
<path fill="none" stroke="#000000" d="M261.7908,-263.8231C270.2771,-259.7427 279.6437,-255.2391 288.6081,-250.9289"/>
<polygon fill="#000000" stroke="#000000" points="290.255,-254.0207 297.7507,-246.533 287.2216,-247.712 290.255,-254.0207"/>
</g>
<!-- roomStatus&#45;&gt;liveStatus -->
<g id="edge15" class="edge">
<title>roomStatus&#45;&gt;liveStatus</title>
<path fill="none" stroke="#000000" d="M247.3864,-260.8451C255.4188,-252.007 265.4056,-241.1586 274.5421,-231.6333 292.4859,-212.9259 313.2524,-192.2337 328.9643,-176.7657"/>
<polygon fill="#000000" stroke="#000000" points="331.5544,-179.1277 336.2369,-169.6237 326.6497,-174.1333 331.5544,-179.1277"/>
</g>
<!-- online -->
<g id="node20" class="node">
<title>online</title>
<ellipse fill="none" stroke="#000000" cx="240.625" cy="-56.5324" rx="32.4237" ry="18"/>
<text text-anchor="middle" x="240.625" y="-52.3324" font-family="Times,serif" font-size="14.00" fill="#000000">online</text>
</g>
<!-- liveStatus&#45;&gt;online -->
<g id="edge19" class="edge">
<title>liveStatus&#45;&gt;online</title>
<path fill="none" stroke="#000000" d="M323.8992,-139.258C308.2264,-130.8749 289.4715,-118.96 276.0227,-104.4059 269.6697,-97.5307 263.3816,-89.5287 257.9077,-82.0575"/>
<polygon fill="#000000" stroke="#000000" points="260.5551,-79.7416 251.9006,-73.6301 254.855,-83.8047 260.5551,-79.7416"/>
</g>
<!-- mid&#45;&gt;stat -->
<g id="edge1" class="edge">
<title>mid&#45;&gt;stat</title>
<path fill="none" stroke="#000000" d="M436.7107,-401.466C382.4148,-418.2706 251.9676,-458.6441 189.5422,-477.9649"/>
<polygon fill="#000000" stroke="#000000" points="188.2919,-474.6879 179.7739,-480.9882 190.3616,-481.375 188.2919,-474.6879"/>
</g>
<!-- mid&#45;&gt;upstat -->
<g id="edge2" class="edge">
<title>mid&#45;&gt;upstat</title>
<path fill="none" stroke="#000000" d="M434.2653,-392.6127C391.8692,-391.5458 307.6932,-393.1508 241.8397,-417.7879 235.2321,-420.26 228.32,-423.246 221.762,-426.2811"/>
<polygon fill="#000000" stroke="#000000" points="220.0011,-423.2433 212.4837,-430.7091 223.0161,-429.5607 220.0011,-423.2433"/>
</g>
<!-- mid&#45;&gt;info -->
<g id="edge3" class="edge">
<title>mid&#45;&gt;info</title>
<path fill="none" stroke="#000000" d="M435.5056,-399.7481C407.0093,-406.9624 360.3659,-420.914 324.5021,-442.1186 287.042,-464.267 250.7592,-499.5499 228.9577,-522.7243"/>
<polygon fill="#000000" stroke="#000000" points="226.3686,-520.369 222.1386,-530.0828 231.5029,-525.1271 226.3686,-520.369"/>
</g>
<!-- mid&#45;&gt;_notice -->
<g id="edge7" class="edge">
<title>mid&#45;&gt;_notice</title>
<path fill="none" stroke="#000000" d="M445.8903,-409.0664C428.9623,-425.3283 400.4729,-451.2869 372.9953,-469.8377 362.4353,-476.967 350.296,-483.6975 339.1172,-489.3786"/>
<polygon fill="#000000" stroke="#000000" points="337.4166,-486.315 330.0087,-493.8896 340.5232,-492.5879 337.4166,-486.315"/>
</g>
<!-- mid&#45;&gt;getRoomInfoOld -->
<g id="edge32" class="edge">
<title>mid&#45;&gt;getRoomInfoOld</title>
<path fill="none" stroke="#000000" d="M474.496,-378.1462C491.9216,-357.5842 523.6319,-320.5712 551.7887,-289.8743 565.0929,-275.37 579.0202,-277.3874 582.5587,-258.0261 584.7751,-245.899 580.662,-233.2699 575.0468,-222.5987"/>
<polygon fill="#000000" stroke="#000000" points="577.9434,-220.6204 569.8469,-213.7869 571.9148,-224.178 577.9434,-220.6204"/>
</g>
<!-- mid&#45;&gt;topList -->
<g id="edge34" class="edge">
<title>mid&#45;&gt;topList</title>
<path fill="none" stroke="#000000" d="M478.9148,-380.1983C497.7415,-365.6289 527.8042,-342.3644 549.8047,-325.3389"/>
<polygon fill="#000000" stroke="#000000" points="552.0352,-328.0385 557.8017,-319.1504 547.7511,-322.5026 552.0352,-328.0385"/>
</g>
<!-- mid&#45;&gt;rankdb -->
<g id="edge37" class="edge">
<title>mid&#45;&gt;rankdb</title>
<path fill="none" stroke="#000000" d="M472.3928,-377.1891C487.9751,-354.8955 518.1611,-315.2594 551.7887,-289.8743 567.4782,-278.0306 586.9857,-268.3452 603.8962,-261.2169"/>
<polygon fill="#000000" stroke="#000000" points="605.5539,-264.3215 613.5042,-257.3183 602.922,-257.8351 605.5539,-264.3215"/>
</g>
<!-- cid&#45;&gt;list -->
<g id="edge5" class="edge">
<title>cid&#45;&gt;list</title>
<path fill="none" stroke="#000000" d="M410.7102,-455.2847C369.1945,-438.6035 281.9768,-403.5589 234.2311,-384.3745"/>
<polygon fill="#000000" stroke="#000000" points="235.2564,-381.0145 224.6725,-380.5337 232.6465,-387.5098 235.2564,-381.0145"/>
</g>
<!-- roomid&#45;&gt;topList -->
<g id="edge33" class="edge">
<title>roomid&#45;&gt;topList</title>
<path fill="none" stroke="#000000" d="M531.5529,-432.0182C540.5613,-406.9359 557.0164,-361.1195 567.6187,-331.5993"/>
<polygon fill="#000000" stroke="#000000" points="571.0167,-332.4924 571.103,-321.8979 564.4288,-330.1263 571.0167,-332.4924"/>
</g>
<!-- roomid&#45;&gt;getAnchorInRoom -->
<g id="edge36" class="edge">
<title>roomid&#45;&gt;getAnchorInRoom</title>
<path fill="none" stroke="#000000" d="M523.1829,-431.8715C519.59,-398.355 511.8668,-326.3082 507.5738,-286.2609"/>
<polygon fill="#000000" stroke="#000000" points="511.0313,-285.677 506.4853,-276.107 504.0712,-286.4231 511.0313,-285.677"/>
</g>
<!-- roomid&#45;&gt;online -->
<g id="edge18" class="edge">
<title>roomid&#45;&gt;online</title>
<path fill="none" stroke="#000000" d="M514.5549,-432.6245C505.846,-418.441 493.1071,-397.8869 481.6471,-380.1375 438.641,-313.5294 432.1225,-293.6663 382.4591,-231.8625 352.0111,-193.9713 337.4501,-190.616 306.7761,-152.9075 288.23,-130.1082 269.4974,-102.2621 256.7244,-82.3755"/>
<polygon fill="#000000" stroke="#000000" points="259.6182,-80.4036 251.2972,-73.8453 253.7122,-84.1612 259.6182,-80.4036"/>
</g>
<!-- aid -->
<g id="node30" class="node">
<title>aid</title>
<ellipse fill="none" stroke="#000000" cx="228.2941" cy="-738.5517" rx="27" ry="18"/>
<text text-anchor="middle" x="228.2941" y="-734.3517" font-family="Times,serif" font-size="14.00" fill="#000000">aid</text>
</g>
<!-- aid&#45;&gt;view -->
<g id="edge4" class="edge">
<title>aid&#45;&gt;view</title>
<path fill="none" stroke="#000000" d="M230.3138,-720.2753C236.0034,-668.789 252.1956,-522.2645 259.0633,-460.1172"/>
<polygon fill="#000000" stroke="#000000" points="262.5756,-460.1983 260.1953,-449.8743 255.618,-459.4293 262.5756,-460.1983"/>
</g>
<!-- p -->
<g id="node31" class="node">
<title>p</title>
<ellipse fill="none" stroke="#000000" cx="537.4433" cy="-626.0762" rx="27" ry="18"/>
<text text-anchor="middle" x="537.4433" y="-621.8762" font-family="Times,serif" font-size="14.00" fill="#000000">p</text>
</g>
<!-- p&#45;&gt;cid -->
<g id="edge30" class="edge">
<title>p&#45;&gt;cid</title>
<path fill="none" stroke="#000000" stroke-dasharray="1,5" d="M526.7485,-609.4023C508.6057,-581.1166 471.6843,-523.5539 450.2582,-490.1494"/>
<polygon fill="#000000" stroke="#000000" points="452.9994,-487.9402 444.6544,-481.4126 447.1073,-491.7195 452.9994,-487.9402"/>
</g>
<!-- page -->
<g id="node32" class="node">
<title>page</title>
<ellipse fill="none" stroke="#000000" cx="645.5874" cy="-137.5187" rx="27" ry="18"/>
<text text-anchor="middle" x="645.5874" y="-133.3187" font-family="Times,serif" font-size="14.00" fill="#000000">page</text>
</g>
<!-- page&#45;&gt;topList -->
<g id="edge35" class="edge">
<title>page&#45;&gt;topList</title>
<path fill="none" stroke="#000000" stroke-dasharray="1,5" d="M640.9398,-155.4699C637.7211,-167.2095 633.1058,-182.7995 627.9836,-196.2181 617.2009,-224.4656 602.2482,-255.6412 591.4338,-277.1347"/>
<polygon fill="#000000" stroke="#000000" points="588.1949,-275.7827 586.786,-286.2835 594.4357,-278.9532 588.1949,-275.7827"/>
</g>
</g>
</svg>
