<?xml version="1.0" encoding="UTF-8" standalone="no"?>
<!DOCTYPE svg PUBLIC "-//W3C//DTD SVG 1.1//EN"
 "http://www.w3.org/Graphics/SVG/1.1/DTD/svg11.dtd">
<!-- Generated by graphviz version 2.40.1 (20161225.0304)
 -->
<!-- Title: G Pages: 1 -->
<svg width="819pt" height="535pt"
 viewBox="0.00 0.00 819.00 535.00" xmlns="http://www.w3.org/2000/svg" xmlns:xlink="http://www.w3.org/1999/xlink">
<g id="graph0" class="graph" transform="scale(1 1) rotate(0) translate(4 531)">
<title>G</title>
<polygon fill="#ffffff" stroke="transparent" points="-4,4 -4,-531 815,-531 815,4 -4,4"/>
<g id="clust1" class="cluster">
<title>cluster_api.bilibili.com</title>
<polygon fill="none" stroke="#000000" points="447.8524,-144.1186 447.8524,-317.1186 678.8524,-317.1186 678.8524,-144.1186 447.8524,-144.1186"/>
<text text-anchor="middle" x="563.3524" y="-301.9186" font-family="Times,serif" font-size="14.00" fill="#000000">api.bilibili.com</text>
</g>
<g id="clust2" class="cluster">
<title>cluster_api.live.bilibili.com</title>
<polygon fill="none" stroke="#000000" points="99.3271,-170.8999 99.3271,-254.8999 347.3271,-254.8999 347.3271,-170.8999 99.3271,-170.8999"/>
<text text-anchor="middle" x="223.3271" y="-239.6999" font-family="Times,serif" font-size="14.00" fill="#000000">api.live.bilibili.com</text>
</g>
<g id="clust3" class="cluster">
<title>cluster_data</title>
<polygon fill="none" stroke="#000000" points="165.2206,.1042 165.2206,-158.8958 377.2206,-158.8958 377.2206,.1042 165.2206,.1042"/>
<text text-anchor="middle" x="271.2206" y="-143.6958" font-family="Times,serif" font-size="14.00" fill="#000000">data</text>
</g>
<g id="clust4" class="cluster">
<title>cluster_input</title>
<polygon fill="none" stroke="#000000" points="194.6964,-266.1269 194.6964,-403.1269 352.6964,-403.1269 352.6964,-266.1269 194.6964,-266.1269"/>
<text text-anchor="middle" x="273.6964" y="-387.9269" font-family="Times,serif" font-size="14.00" fill="#000000">input</text>
</g>
<!-- stat -->
<g id="node1" class="node">
<title>stat</title>
<ellipse fill="none" stroke="#000000" cx="633.0343" cy="-211.199" rx="27" ry="18"/>
<text text-anchor="middle" x="633.0343" y="-206.999" font-family="Times,serif" font-size="14.00" fill="#000000">stat</text>
</g>
<!-- follower -->
<g id="node8" class="node">
<title>follower</title>
<ellipse fill="none" stroke="#000000" cx="328.6552" cy="-25.7302" rx="40.1317" ry="18"/>
<text text-anchor="middle" x="328.6552" y="-21.5302" font-family="Times,serif" font-size="14.00" fill="#000000">follower</text>
</g>
<!-- stat&#45;&gt;follower -->
<g id="edge6" class="edge">
<title>stat&#45;&gt;follower</title>
<path fill="none" stroke="#000000" d="M620.639,-194.9542C611.149,-183.2691 597.2494,-167.6787 582.6793,-156.5836 513.9415,-104.2401 421.1612,-62.5542 368.8649,-41.2509"/>
<polygon fill="#000000" stroke="#000000" points="370.1696,-38.0031 359.5861,-37.5123 367.5535,-44.4959 370.1696,-38.0031"/>
</g>
<!-- info -->
<g id="node2" class="node">
<title>info</title>
<ellipse fill="none" stroke="#000000" cx="562.3643" cy="-170.3797" rx="27" ry="18"/>
<text text-anchor="middle" x="562.3643" y="-166.1797" font-family="Times,serif" font-size="14.00" fill="#000000">info</text>
</g>
<!-- uname -->
<g id="node9" class="node">
<title>uname</title>
<ellipse fill="none" stroke="#000000" cx="310.4275" cy="-111.1223" rx="33.8596" ry="18"/>
<text text-anchor="middle" x="310.4275" y="-106.9223" font-family="Times,serif" font-size="14.00" fill="#000000">uname</text>
</g>
<!-- info&#45;&gt;uname -->
<g id="edge7" class="edge">
<title>info&#45;&gt;uname</title>
<path fill="none" stroke="#000000" d="M536.8208,-164.3717C493.1933,-154.1102 403.9604,-133.1219 351.4923,-120.781"/>
<polygon fill="#000000" stroke="#000000" points="352.0491,-117.3166 341.5133,-118.4339 350.4463,-124.1306 352.0491,-117.3166"/>
</g>
<!-- view -->
<g id="node3" class="node">
<title>view</title>
<ellipse fill="none" stroke="#000000" cx="643.4421" cy="-259.3087" rx="27.0958" ry="18"/>
<text text-anchor="middle" x="643.4421" y="-255.1087" font-family="Times,serif" font-size="14.00" fill="#000000">view</text>
</g>
<!-- mid -->
<g id="node11" class="node">
<title>mid</title>
<ellipse fill="none" stroke="#000000" cx="317.4586" cy="-292.22" rx="27" ry="18"/>
<text text-anchor="middle" x="317.4586" y="-288.02" font-family="Times,serif" font-size="14.00" fill="#000000">mid</text>
</g>
<!-- view&#45;&gt;mid -->
<g id="edge9" class="edge">
<title>view&#45;&gt;mid</title>
<path fill="none" stroke="#000000" stroke-dasharray="5,2" d="M617.2822,-253.5557C604.3866,-251.2193 588.5644,-249.0936 574.2392,-249.2471 494.0669,-250.1063 401.714,-270.4067 352.5522,-282.794"/>
<polygon fill="#000000" stroke="#000000" points="351.5562,-279.4361 342.7371,-285.3074 353.2928,-286.2173 351.5562,-279.4361"/>
</g>
<!-- cid -->
<g id="node12" class="node">
<title>cid</title>
<ellipse fill="none" stroke="#000000" cx="278.5133" cy="-354.9571" rx="27" ry="18"/>
<text text-anchor="middle" x="278.5133" y="-350.7571" font-family="Times,serif" font-size="14.00" fill="#000000">cid</text>
</g>
<!-- view&#45;&gt;cid -->
<g id="edge11" class="edge">
<title>view&#45;&gt;cid</title>
<path fill="none" stroke="#000000" d="M622.7424,-271.4206C615.1906,-275.4651 606.4629,-279.7179 598.1548,-282.7842 587.75,-286.6244 584.6621,-285.9698 573.8513,-288.4465 480.2403,-309.8916 369.799,-334.6077 314.2441,-346.9999"/>
<polygon fill="#000000" stroke="#000000" points="313.2044,-343.6457 304.2059,-349.2382 314.7279,-350.4779 313.2044,-343.6457"/>
</g>
<!-- list -->
<g id="node4" class="node">
<title>list</title>
<ellipse fill="none" stroke="#000000" cx="483.0495" cy="-212.7146" rx="27" ry="18"/>
<text text-anchor="middle" x="483.0495" y="-208.5146" font-family="Times,serif" font-size="14.00" fill="#000000">list</text>
</g>
<!-- search -->
<g id="node5" class="node">
<title>search</title>
<ellipse fill="none" stroke="#000000" cx="574.0452" cy="-268.8468" rx="32.8821" ry="18"/>
<text text-anchor="middle" x="574.0452" y="-264.6468" font-family="Times,serif" font-size="14.00" fill="#000000">search</text>
</g>
<!-- search&#45;&gt;mid -->
<g id="edge10" class="edge">
<title>search&#45;&gt;mid</title>
<path fill="none" stroke="#000000" stroke-dasharray="5,2" d="M541.5484,-271.807C493.7078,-276.1649 404.5765,-284.2842 354.3442,-288.86"/>
<polygon fill="#000000" stroke="#000000" points="353.8856,-285.3872 344.2444,-289.78 354.5207,-292.3583 353.8856,-285.3872"/>
</g>
<!-- getRoomInfoOld -->
<g id="node6" class="node">
<title>getRoomInfoOld</title>
<ellipse fill="none" stroke="#000000" cx="269.0756" cy="-207.0435" rx="70.56" ry="18"/>
<text text-anchor="middle" x="269.0756" y="-202.8435" font-family="Times,serif" font-size="14.00" fill="#000000">getRoomInfoOld</text>
</g>
<!-- roomid -->
<g id="node13" class="node">
<title>roomid</title>
<ellipse fill="none" stroke="#000000" cx="238.0998" cy="-299.2027" rx="35.806" ry="18"/>
<text text-anchor="middle" x="238.0998" y="-295.0027" font-family="Times,serif" font-size="14.00" fill="#000000">roomid</text>
</g>
<!-- getRoomInfoOld&#45;&gt;roomid -->
<g id="edge13" class="edge">
<title>getRoomInfoOld&#45;&gt;roomid</title>
<path fill="none" stroke="#000000" d="M262.9558,-225.2512C258.5149,-238.4638 252.428,-256.5736 247.3893,-271.5647"/>
<polygon fill="#000000" stroke="#000000" points="243.97,-270.7524 244.1015,-281.3464 250.6052,-272.9826 243.97,-270.7524"/>
</g>
<!-- topList -->
<g id="node7" class="node">
<title>topList</title>
<ellipse fill="none" stroke="#000000" cx="142.01" cy="-197.2547" rx="35.3303" ry="18"/>
<text text-anchor="middle" x="142.01" y="-193.0547" font-family="Times,serif" font-size="14.00" fill="#000000">topList</text>
</g>
<!-- guardNum -->
<g id="node10" class="node">
<title>guardNum</title>
<ellipse fill="none" stroke="#000000" cx="221.3843" cy="-65.2474" rx="47.8582" ry="18"/>
<text text-anchor="middle" x="221.3843" y="-61.0474" font-family="Times,serif" font-size="14.00" fill="#000000">guardNum</text>
</g>
<!-- topList&#45;&gt;guardNum -->
<g id="edge8" class="edge">
<title>topList&#45;&gt;guardNum</title>
<path fill="none" stroke="#000000" d="M152.3868,-179.997C165.9192,-157.4912 189.7241,-117.9013 205.526,-91.6213"/>
<polygon fill="#000000" stroke="#000000" points="208.598,-93.3043 210.7516,-82.9306 202.599,-89.6971 208.598,-93.3043"/>
</g>
<!-- uname&#45;&gt;search -->
<g id="edge5" class="edge">
<title>uname&#45;&gt;search</title>
<path fill="none" stroke="#000000" d="M327.5668,-126.7455C354.6262,-150.7758 409.6457,-197.1059 462.7584,-226.5273 485.8082,-239.2955 513.4971,-249.8413 535.4895,-257.2119"/>
<polygon fill="#000000" stroke="#000000" points="534.5636,-260.5914 545.1562,-260.3716 536.7385,-253.9378 534.5636,-260.5914"/>
</g>
<!-- mid&#45;&gt;stat -->
<g id="edge1" class="edge">
<title>mid&#45;&gt;stat</title>
<path fill="none" stroke="#000000" d="M342.75,-285.7267C398.7229,-271.3562 533.199,-236.8307 597.5524,-220.3086"/>
<polygon fill="#000000" stroke="#000000" points="598.807,-223.6001 607.6225,-217.7232 597.0662,-216.82 598.807,-223.6001"/>
</g>
<!-- mid&#45;&gt;info -->
<g id="edge2" class="edge">
<title>mid&#45;&gt;info</title>
<path fill="none" stroke="#000000" d="M335.2883,-278.2942C361.7699,-258.2038 413.6763,-221.0638 462.8943,-198.8089 483.1477,-189.6509 507.0654,-182.7034 526.3713,-177.9694"/>
<polygon fill="#000000" stroke="#000000" points="527.3558,-181.3333 536.2855,-175.6315 525.7491,-174.5202 527.3558,-181.3333"/>
</g>
<!-- mid&#45;&gt;getRoomInfoOld -->
<g id="edge14" class="edge">
<title>mid&#45;&gt;getRoomInfoOld</title>
<path fill="none" stroke="#000000" d="M307.6676,-274.9833C300.9819,-263.2133 291.989,-247.3817 284.3663,-233.9621"/>
<polygon fill="#000000" stroke="#000000" points="287.3355,-232.103 279.3531,-225.1366 281.2489,-235.5604 287.3355,-232.103"/>
</g>
<!-- mid&#45;&gt;topList -->
<g id="edge16" class="edge">
<title>mid&#45;&gt;topList</title>
<path fill="none" stroke="#000000" d="M296.2954,-280.765C266.2599,-264.5076 210.9704,-234.581 175.38,-215.3169"/>
<polygon fill="#000000" stroke="#000000" points="176.8031,-212.1074 166.3427,-210.4253 173.471,-218.2635 176.8031,-212.1074"/>
</g>
<!-- cid&#45;&gt;list -->
<g id="edge4" class="edge">
<title>cid&#45;&gt;list</title>
<path fill="none" stroke="#000000" d="M297.389,-341.8302C333.7664,-316.5319 413.7016,-260.9419 455.8323,-231.6425"/>
<polygon fill="#000000" stroke="#000000" points="458.0079,-234.3927 464.2195,-225.8098 454.0113,-228.6458 458.0079,-234.3927"/>
</g>
<!-- roomid&#45;&gt;topList -->
<g id="edge15" class="edge">
<title>roomid&#45;&gt;topList</title>
<path fill="none" stroke="#000000" d="M222.6613,-282.823C206.9013,-266.1021 182.2784,-239.9781 164.383,-220.9917"/>
<polygon fill="#000000" stroke="#000000" points="166.8161,-218.4702 157.4101,-213.5937 161.7221,-223.2714 166.8161,-218.4702"/>
</g>
<!-- aid -->
<g id="node14" class="node">
<title>aid</title>
<ellipse fill="none" stroke="#000000" cx="784.4718" cy="-286.1468" rx="27" ry="18"/>
<text text-anchor="middle" x="784.4718" y="-281.9468" font-family="Times,serif" font-size="14.00" fill="#000000">aid</text>
</g>
<!-- aid&#45;&gt;view -->
<g id="edge3" class="edge">
<title>aid&#45;&gt;view</title>
<path fill="none" stroke="#000000" d="M758.2757,-281.1617C736.2503,-276.9702 704.5237,-270.9326 679.9975,-266.2653"/>
<polygon fill="#000000" stroke="#000000" points="680.4545,-262.7895 669.9764,-264.3582 679.1458,-269.6661 680.4545,-262.7895"/>
</g>
<!-- p -->
<g id="node15" class="node">
<title>p</title>
<ellipse fill="none" stroke="#000000" cx="206.0474" cy="-509.2459" rx="27" ry="18"/>
<text text-anchor="middle" x="206.0474" y="-505.0459" font-family="Times,serif" font-size="14.00" fill="#000000">p</text>
</g>
<!-- p&#45;&gt;cid -->
<g id="edge12" class="edge">
<title>p&#45;&gt;cid</title>
<path fill="none" stroke="#000000" stroke-dasharray="1,5" d="M214.2193,-491.847C226.8321,-464.9926 251.1341,-413.2507 265.9798,-381.6425"/>
<polygon fill="#000000" stroke="#000000" points="269.1768,-383.0685 270.2601,-372.5292 262.8409,-380.0926 269.1768,-383.0685"/>
</g>
<!-- page -->
<g id="node16" class="node">
<title>page</title>
<ellipse fill="none" stroke="#000000" cx="26.6537" cy="-128.2446" rx="27" ry="18"/>
<text text-anchor="middle" x="26.6537" y="-124.0446" font-family="Times,serif" font-size="14.00" fill="#000000">page</text>
</g>
<!-- page&#45;&gt;topList -->
<g id="edge17" class="edge">
<title>page&#45;&gt;topList</title>
<path fill="none" stroke="#000000" stroke-dasharray="1,5" d="M47.0116,-140.4234C64.5117,-150.8926 90.0447,-166.1673 110.2337,-178.245"/>
<polygon fill="#000000" stroke="#000000" points="108.7072,-181.4103 119.0857,-183.5406 112.3009,-175.4032 108.7072,-181.4103"/>
</g>
</g>
</svg>
