<?xml version="1.0" encoding="UTF-8" standalone="no"?>
<!DOCTYPE svg PUBLIC "-//W3C//DTD SVG 1.1//EN"
 "http://www.w3.org/Graphics/SVG/1.1/DTD/svg11.dtd">
<!-- Generated by graphviz version 2.40.1 (20161225.0304)
 -->
<!-- Title: G Pages: 1 -->
<svg width="862pt" height="719pt"
 viewBox="0.00 0.00 862.00 719.00" xmlns="http://www.w3.org/2000/svg" xmlns:xlink="http://www.w3.org/1999/xlink">
<g id="graph0" class="graph" transform="scale(1 1) rotate(0) translate(4 715)">
<title>G</title>
<polygon fill="#ffffff" stroke="transparent" points="-4,4 -4,-715 858,-715 858,4 -4,4"/>
<g id="clust1" class="cluster">
<title>cluster_api.bilibili.com</title>
<polygon fill="none" stroke="#000000" points="527.8052,-250.7778 527.8052,-452.7778 782.8052,-452.7778 782.8052,-250.7778 527.8052,-250.7778"/>
<text text-anchor="middle" x="655.3052" y="-437.5778" font-family="Times,serif" font-size="14.00" fill="#000000">api.bilibili.com</text>
</g>
<g id="clust2" class="cluster">
<title>cluster_api.live.bilibili.com</title>
<polygon fill="none" stroke="#000000" points="93.2107,-261.316 93.2107,-408.316 353.2107,-408.316 353.2107,-261.316 93.2107,-261.316"/>
<text text-anchor="middle" x="223.2107" y="-393.116" font-family="Times,serif" font-size="14.00" fill="#000000">api.live.bilibili.com</text>
</g>
<g id="clust3" class="cluster">
<title>cluster_data</title>
<polygon fill="none" stroke="#000000" points="139.4228,-.0239 139.4228,-247.0239 512.4228,-247.0239 512.4228,-.0239 139.4228,-.0239"/>
<text text-anchor="middle" x="325.9228" y="-231.8239" font-family="Times,serif" font-size="14.00" fill="#000000">data</text>
</g>
<g id="clust4" class="cluster">
<title>cluster_input</title>
<polygon fill="none" stroke="#000000" points="366.5707,-474.2703 366.5707,-613.2703 526.5707,-613.2703 526.5707,-474.2703 366.5707,-474.2703"/>
<text text-anchor="middle" x="446.5707" y="-598.0703" font-family="Times,serif" font-size="14.00" fill="#000000">input</text>
</g>
<!-- stat -->
<g id="node1" class="node">
<title>stat</title>
<ellipse fill="none" stroke="#000000" cx="598.8084" cy="-276.4771" rx="27" ry="18"/>
<text text-anchor="middle" x="598.8084" y="-272.2771" font-family="Times,serif" font-size="14.00" fill="#000000">stat</text>
</g>
<!-- follower -->
<g id="node11" class="node">
<title>follower</title>
<ellipse fill="none" stroke="#000000" cx="213.7054" cy="-79.4999" rx="40.1317" ry="18"/>
<text text-anchor="middle" x="213.7054" y="-75.2999" font-family="Times,serif" font-size="14.00" fill="#000000">follower</text>
</g>
<!-- stat&#45;&gt;follower -->
<g id="edge8" class="edge">
<title>stat&#45;&gt;follower</title>
<path fill="none" stroke="#000000" d="M574.7079,-267.9859C531.2387,-252.3547 437.2229,-217.0958 361.8818,-178.7433 328.5081,-161.7543 321.2276,-155.4412 290.069,-134.6667 274.1796,-124.0727 256.8982,-111.6659 242.8003,-101.3039"/>
<polygon fill="#000000" stroke="#000000" points="244.597,-98.2797 234.4746,-95.1509 240.4365,-103.9092 244.597,-98.2797"/>
</g>
<!-- upstat -->
<g id="node2" class="node">
<title>upstat</title>
<ellipse fill="none" stroke="#000000" cx="649.1262" cy="-342.0496" rx="31.4636" ry="18"/>
<text text-anchor="middle" x="649.1262" y="-337.8496" font-family="Times,serif" font-size="14.00" fill="#000000">upstat</text>
</g>
<!-- archiveView -->
<g id="node19" class="node">
<title>archiveView</title>
<ellipse fill="none" stroke="#000000" cx="202.6014" cy="-131.3598" rx="54.513" ry="18"/>
<text text-anchor="middle" x="202.6014" y="-127.1598" font-family="Times,serif" font-size="14.00" fill="#000000">archiveView</text>
</g>
<!-- upstat&#45;&gt;archiveView -->
<g id="edge16" class="edge">
<title>upstat&#45;&gt;archiveView</title>
<path fill="none" stroke="#000000" d="M624.9868,-330.5712C570.2633,-304.5609 432.5589,-239.172 317.1552,-184.8914 292.7568,-173.4155 265.4009,-160.629 243.5418,-150.4311"/>
<polygon fill="#000000" stroke="#000000" points="244.7683,-147.1412 234.2261,-146.0865 241.8096,-153.4852 244.7683,-147.1412"/>
</g>
<!-- articleView -->
<g id="node20" class="node">
<title>articleView</title>
<ellipse fill="none" stroke="#000000" cx="453.9015" cy="-98.4451" rx="50.6536" ry="18"/>
<text text-anchor="middle" x="453.9015" y="-94.2451" font-family="Times,serif" font-size="14.00" fill="#000000">articleView</text>
</g>
<!-- upstat&#45;&gt;articleView -->
<g id="edge17" class="edge">
<title>upstat&#45;&gt;articleView</title>
<path fill="none" stroke="#000000" d="M627.1525,-328.9227C612.3486,-319.401 592.9724,-305.562 578.5767,-290.3306 529.5213,-238.4275 487.8831,-164.7997 467.4344,-125.5511"/>
<polygon fill="#000000" stroke="#000000" points="470.3869,-123.6393 462.7005,-116.3476 464.1621,-126.8411 470.3869,-123.6393"/>
</g>
<!-- info -->
<g id="node3" class="node">
<title>info</title>
<ellipse fill="none" stroke="#000000" cx="562.818" cy="-350.0061" rx="27" ry="18"/>
<text text-anchor="middle" x="562.818" y="-345.8061" font-family="Times,serif" font-size="14.00" fill="#000000">info</text>
</g>
<!-- uname -->
<g id="node12" class="node">
<title>uname</title>
<ellipse fill="none" stroke="#000000" cx="339.9339" cy="-26.3126" rx="33.8596" ry="18"/>
<text text-anchor="middle" x="339.9339" y="-22.1126" font-family="Times,serif" font-size="14.00" fill="#000000">uname</text>
</g>
<!-- info&#45;&gt;uname -->
<g id="edge9" class="edge">
<title>info&#45;&gt;uname</title>
<path fill="none" stroke="#000000" d="M552.7841,-333.1542C533.1069,-300.3115 487.7652,-225.6362 446.4557,-164.9055 417.3844,-122.1667 409.5556,-111.8075 377.6168,-71.167 372.3143,-64.4198 366.4136,-57.2477 360.8851,-50.6637"/>
<polygon fill="#000000" stroke="#000000" points="363.2875,-48.0847 354.1543,-42.7149 357.9454,-52.6082 363.2875,-48.0847"/>
</g>
<!-- sign -->
<g id="node13" class="node">
<title>sign</title>
<ellipse fill="none" stroke="#000000" cx="427.14" cy="-27.4033" rx="27" ry="18"/>
<text text-anchor="middle" x="427.14" y="-23.2033" font-family="Times,serif" font-size="14.00" fill="#000000">sign</text>
</g>
<!-- info&#45;&gt;sign -->
<g id="edge10" class="edge">
<title>info&#45;&gt;sign</title>
<path fill="none" stroke="#000000" d="M562.4278,-331.9003C560.7509,-288.586 551.9696,-176.7738 506.3279,-98.4727 493.8906,-77.1357 472.8461,-58.7015 455.5768,-45.9576"/>
<polygon fill="#000000" stroke="#000000" points="457.1336,-42.7699 446.9557,-39.8268 453.0768,-48.4746 457.1336,-42.7699"/>
</g>
<!-- view -->
<g id="node4" class="node">
<title>view</title>
<ellipse fill="none" stroke="#000000" cx="668.276" cy="-405.0675" rx="27.0958" ry="18"/>
<text text-anchor="middle" x="668.276" y="-400.8675" font-family="Times,serif" font-size="14.00" fill="#000000">view</text>
</g>
<!-- mid -->
<g id="node21" class="node">
<title>mid</title>
<ellipse fill="none" stroke="#000000" cx="491.2352" cy="-505.8179" rx="27" ry="18"/>
<text text-anchor="middle" x="491.2352" y="-501.6179" font-family="Times,serif" font-size="14.00" fill="#000000">mid</text>
</g>
<!-- view&#45;&gt;mid -->
<g id="edge19" class="edge">
<title>view&#45;&gt;mid</title>
<path fill="none" stroke="#000000" stroke-dasharray="5,2" d="M647.2718,-417.0205C615.9097,-434.8681 556.7101,-468.5575 520.932,-488.9181"/>
<polygon fill="#000000" stroke="#000000" points="518.8982,-486.0484 511.9381,-494.0363 522.3604,-492.1322 518.8982,-486.0484"/>
</g>
<!-- cid -->
<g id="node22" class="node">
<title>cid</title>
<ellipse fill="none" stroke="#000000" cx="436.0651" cy="-565.2625" rx="27" ry="18"/>
<text text-anchor="middle" x="436.0651" y="-561.0625" font-family="Times,serif" font-size="14.00" fill="#000000">cid</text>
</g>
<!-- view&#45;&gt;cid -->
<g id="edge21" class="edge">
<title>view&#45;&gt;cid</title>
<path fill="none" stroke="#000000" d="M650.2812,-419.0153C621.4837,-441.1532 563.0195,-485.3489 511.3323,-519.7632 496.5274,-529.6205 479.6121,-539.9275 465.5722,-548.2341"/>
<polygon fill="#000000" stroke="#000000" points="463.6625,-545.2967 456.8122,-553.3791 467.2076,-551.3326 463.6625,-545.2967"/>
</g>
<!-- list -->
<g id="node5" class="node">
<title>list</title>
<ellipse fill="none" stroke="#000000" cx="747.4535" cy="-337.4875" rx="27" ry="18"/>
<text text-anchor="middle" x="747.4535" y="-333.2875" font-family="Times,serif" font-size="14.00" fill="#000000">list</text>
</g>
<!-- search -->
<g id="node6" class="node">
<title>search</title>
<ellipse fill="none" stroke="#000000" cx="579.6524" cy="-395.4572" rx="32.8821" ry="18"/>
<text text-anchor="middle" x="579.6524" y="-391.2572" font-family="Times,serif" font-size="14.00" fill="#000000">search</text>
</g>
<!-- search&#45;&gt;mid -->
<g id="edge20" class="edge">
<title>search&#45;&gt;mid</title>
<path fill="none" stroke="#000000" stroke-dasharray="5,2" d="M566.2237,-412.2186C551.3822,-430.7436 527.3524,-460.7371 510.5046,-481.7663"/>
<polygon fill="#000000" stroke="#000000" points="507.7342,-479.6264 504.2132,-489.619 513.1972,-484.0031 507.7342,-479.6264"/>
</g>
<!-- _notice -->
<g id="node7" class="node">
<title>_notice</title>
<ellipse fill="none" stroke="#000000" cx="692.8177" cy="-286.4681" rx="36.2732" ry="18"/>
<text text-anchor="middle" x="692.8177" y="-282.2681" font-family="Times,serif" font-size="14.00" fill="#000000">_notice</text>
</g>
<!-- notice -->
<g id="node18" class="node">
<title>notice</title>
<ellipse fill="none" stroke="#000000" cx="293.5473" cy="-198.7206" rx="31.9306" ry="18"/>
<text text-anchor="middle" x="293.5473" y="-194.5206" font-family="Times,serif" font-size="14.00" fill="#000000">notice</text>
</g>
<!-- _notice&#45;&gt;notice -->
<g id="edge15" class="edge">
<title>_notice&#45;&gt;notice</title>
<path fill="none" stroke="#000000" d="M663.0698,-275.8874C644.7317,-269.6703 620.629,-262.0428 598.8203,-256.8771 504.969,-234.6474 393.3306,-215.105 334.5118,-205.3367"/>
<polygon fill="#000000" stroke="#000000" points="334.9402,-201.8602 324.5037,-203.6845 333.8,-208.7667 334.9402,-201.8602"/>
</g>
<!-- getRoomInfoOld -->
<g id="node8" class="node">
<title>getRoomInfoOld</title>
<ellipse fill="none" stroke="#000000" cx="225.4136" cy="-287.1385" rx="70.56" ry="18"/>
<text text-anchor="middle" x="225.4136" y="-282.9385" font-family="Times,serif" font-size="14.00" fill="#000000">getRoomInfoOld</text>
</g>
<!-- liveStatus -->
<g id="node15" class="node">
<title>liveStatus</title>
<ellipse fill="none" stroke="#000000" cx="331.0305" cy="-70.9806" rx="44.9768" ry="18"/>
<text text-anchor="middle" x="331.0305" y="-66.7806" font-family="Times,serif" font-size="14.00" fill="#000000">liveStatus</text>
</g>
<!-- getRoomInfoOld&#45;&gt;liveStatus -->
<g id="edge12" class="edge">
<title>getRoomInfoOld&#45;&gt;liveStatus</title>
<path fill="none" stroke="#000000" d="M227.715,-268.977C232.9839,-233.9654 248.8178,-156.2441 290.1311,-106.9481 293.9442,-102.3983 298.3469,-97.9169 302.8206,-93.7439"/>
<polygon fill="#000000" stroke="#000000" points="305.1889,-96.3215 310.325,-87.0549 300.5311,-91.096 305.1889,-96.3215"/>
</g>
<!-- title -->
<g id="node16" class="node">
<title>title</title>
<ellipse fill="none" stroke="#000000" cx="310.3233" cy="-120.8287" rx="27" ry="18"/>
<text text-anchor="middle" x="310.3233" y="-116.6287" font-family="Times,serif" font-size="14.00" fill="#000000">title</text>
</g>
<!-- getRoomInfoOld&#45;&gt;title -->
<g id="edge13" class="edge">
<title>getRoomInfoOld&#45;&gt;title</title>
<path fill="none" stroke="#000000" d="M231.3518,-269.0647C237.6025,-250.8607 248.1941,-222.1817 260.2328,-198.6782 269.6374,-180.3173 282.204,-160.797 292.3974,-145.896"/>
<polygon fill="#000000" stroke="#000000" points="295.5604,-147.4772 298.3881,-137.2667 289.8102,-143.4853 295.5604,-147.4772"/>
</g>
<!-- online -->
<g id="node17" class="node">
<title>online</title>
<ellipse fill="none" stroke="#000000" cx="258.0068" cy="-26.1928" rx="32.4237" ry="18"/>
<text text-anchor="middle" x="258.0068" y="-21.9928" font-family="Times,serif" font-size="14.00" fill="#000000">online</text>
</g>
<!-- getRoomInfoOld&#45;&gt;online -->
<g id="edge14" class="edge">
<title>getRoomInfoOld&#45;&gt;online</title>
<path fill="none" stroke="#000000" d="M230.6563,-269.1389C238.7252,-240.3694 253.7956,-182.1091 258.9555,-131.5178 261.5941,-105.6469 261.0084,-76.0166 259.9664,-54.7873"/>
<polygon fill="#000000" stroke="#000000" points="263.4451,-54.3058 259.3946,-44.5159 256.456,-54.695 263.4451,-54.3058"/>
</g>
<!-- roomid -->
<g id="node23" class="node">
<title>roomid</title>
<ellipse fill="none" stroke="#000000" cx="410.203" cy="-500.1277" rx="35.806" ry="18"/>
<text text-anchor="middle" x="410.203" y="-495.9277" font-family="Times,serif" font-size="14.00" fill="#000000">roomid</text>
</g>
<!-- getRoomInfoOld&#45;&gt;roomid -->
<g id="edge23" class="edge">
<title>getRoomInfoOld&#45;&gt;roomid</title>
<path fill="none" stroke="#000000" d="M263.2928,-302.4572C289.6223,-314.7216 323.957,-334.1564 346.8119,-360.0579 375.8796,-393.0006 393.7739,-441.4844 402.8466,-471.9073"/>
<polygon fill="#000000" stroke="#000000" points="399.5779,-473.2072 405.6917,-481.86 406.3083,-471.2831 399.5779,-473.2072"/>
</g>
<!-- topList -->
<g id="node9" class="node">
<title>topList</title>
<ellipse fill="none" stroke="#000000" cx="136.6321" cy="-340.8338" rx="35.3303" ry="18"/>
<text text-anchor="middle" x="136.6321" y="-336.6338" font-family="Times,serif" font-size="14.00" fill="#000000">topList</text>
</g>
<!-- guardNum -->
<g id="node14" class="node">
<title>guardNum</title>
<ellipse fill="none" stroke="#000000" cx="396.9266" cy="-164.8929" rx="47.8582" ry="18"/>
<text text-anchor="middle" x="396.9266" y="-160.6929" font-family="Times,serif" font-size="14.00" fill="#000000">guardNum</text>
</g>
<!-- topList&#45;&gt;guardNum -->
<g id="edge11" class="edge">
<title>topList&#45;&gt;guardNum</title>
<path fill="none" stroke="#000000" d="M171.3896,-337.3327C206.9694,-332.0727 261.9523,-319.0813 297.54,-287.3327 330.3956,-258.0214 361.1932,-217.2173 379.5523,-190.9275"/>
<polygon fill="#000000" stroke="#000000" points="382.4944,-192.8262 385.2865,-182.6059 376.7304,-188.8543 382.4944,-192.8262"/>
</g>
<!-- getAnchorInRoom -->
<g id="node10" class="node">
<title>getAnchorInRoom</title>
<ellipse fill="none" stroke="#000000" cx="268.7925" cy="-359.9862" rx="76.3398" ry="18"/>
<text text-anchor="middle" x="268.7925" y="-355.7862" font-family="Times,serif" font-size="14.00" fill="#000000">getAnchorInRoom</text>
</g>
<!-- getAnchorInRoom&#45;&gt;mid -->
<g id="edge18" class="edge">
<title>getAnchorInRoom&#45;&gt;mid</title>
<path fill="none" stroke="#000000" stroke-dasharray="5,2" d="M294.7449,-377.0003C336.9009,-404.6375 419.9014,-459.052 463.3001,-487.5039"/>
<polygon fill="#000000" stroke="#000000" points="461.6489,-490.6065 471.9309,-493.1622 465.4869,-484.7524 461.6489,-490.6065"/>
</g>
<!-- uname&#45;&gt;search -->
<g id="edge6" class="edge">
<title>uname&#45;&gt;search</title>
<path fill="none" stroke="#000000" d="M354.1543,-42.7149C361.3242,-51.1155 370.0755,-61.571 377.6168,-71.167 409.5556,-111.8075 419.9579,-120.5252 446.4557,-164.9055 493.0955,-243.0212 491.5515,-269.488 534.219,-349.8425 537.5848,-356.1813 537.8074,-358.2564 542.4266,-363.7492 545.396,-367.2801 548.7822,-370.7408 552.2744,-374.0019"/>
<polygon fill="#000000" stroke="#000000" points="550.1488,-376.7936 559.9683,-380.7722 554.7731,-371.5385 550.1488,-376.7936"/>
</g>
<!-- mid&#45;&gt;stat -->
<g id="edge1" class="edge">
<title>mid&#45;&gt;stat</title>
<path fill="none" stroke="#000000" d="M492.5606,-487.8271C495.8327,-454.6215 506.8503,-382.8297 542.7643,-336.0316 552.7801,-322.9804 565.2112,-309.5426 575.819,-298.7421"/>
<polygon fill="#000000" stroke="#000000" points="578.5731,-300.9373 583.1603,-291.387 573.6187,-295.9921 578.5731,-300.9373"/>
</g>
<!-- mid&#45;&gt;upstat -->
<g id="edge2" class="edge">
<title>mid&#45;&gt;upstat</title>
<path fill="none" stroke="#000000" d="M509.5608,-492.2937C532.8645,-474.6277 573.6984,-442.0736 603.899,-409.3167 609.0554,-403.7239 609.6174,-401.7152 613.9429,-395.4575 620.1932,-386.4152 626.871,-376.3793 632.7109,-367.4706"/>
<polygon fill="#000000" stroke="#000000" points="635.6936,-369.3043 638.2247,-359.0162 629.8303,-365.4804 635.6936,-369.3043"/>
</g>
<!-- mid&#45;&gt;info -->
<g id="edge3" class="edge">
<title>mid&#45;&gt;info</title>
<path fill="none" stroke="#000000" d="M499.1693,-488.548C511.6391,-461.4056 535.915,-408.565 550.6168,-376.5641"/>
<polygon fill="#000000" stroke="#000000" points="553.854,-377.9015 554.8484,-367.3534 547.4932,-374.9791 553.854,-377.9015"/>
</g>
<!-- mid&#45;&gt;_notice -->
<g id="edge7" class="edge">
<title>mid&#45;&gt;_notice</title>
<path fill="none" stroke="#000000" d="M496.308,-487.8485C504.6145,-461.3735 523.4692,-411.7698 555.4058,-381.5976 565.9476,-371.6382 571.1691,-372.5461 582.8717,-363.9806 602.9908,-349.255 605.8048,-342.7251 626.0169,-328.1275 636.9456,-320.2346 649.3692,-312.2396 660.5134,-305.3928"/>
<polygon fill="#000000" stroke="#000000" points="662.3875,-308.3497 669.1236,-300.172 658.758,-302.3641 662.3875,-308.3497"/>
</g>
<!-- mid&#45;&gt;getRoomInfoOld -->
<g id="edge24" class="edge">
<title>mid&#45;&gt;getRoomInfoOld</title>
<path fill="none" stroke="#000000" d="M477.9663,-490.1288C453.7239,-462.0186 399.869,-402.0843 346.8119,-360.0579 337.5572,-352.7273 334.2626,-352.2915 324.1626,-346.1777 303.751,-333.822 280.8876,-320.1425 262.3047,-309.0647"/>
<polygon fill="#000000" stroke="#000000" points="263.9379,-305.9638 253.5555,-303.8528 260.3554,-311.9776 263.9379,-305.9638"/>
</g>
<!-- mid&#45;&gt;topList -->
<g id="edge26" class="edge">
<title>mid&#45;&gt;topList</title>
<path fill="none" stroke="#000000" d="M469.0532,-495.4974C409.4136,-467.7493 245.2158,-391.3539 172.3108,-357.4338"/>
<polygon fill="#000000" stroke="#000000" points="173.6039,-354.1752 163.0608,-353.1301 170.651,-360.5219 173.6039,-354.1752"/>
</g>
<!-- cid&#45;&gt;list -->
<g id="edge5" class="edge">
<title>cid&#45;&gt;list</title>
<path fill="none" stroke="#000000" d="M457.2766,-554.0317C472.7956,-545.4416 494.0651,-532.8768 511.3323,-519.7632 577.7305,-469.3368 580.2928,-439.9395 647.9113,-391.1617 669.218,-375.7918 695.4465,-361.8252 715.6305,-351.9941"/>
<polygon fill="#000000" stroke="#000000" points="717.2112,-355.1179 724.7219,-347.6452 714.1905,-348.8032 717.2112,-355.1179"/>
</g>
<!-- roomid&#45;&gt;topList -->
<g id="edge25" class="edge">
<title>roomid&#45;&gt;topList</title>
<path fill="none" stroke="#000000" d="M386.4039,-486.2701C337.2706,-457.6609 224.567,-392.0362 168.9231,-359.6361"/>
<polygon fill="#000000" stroke="#000000" points="170.5843,-356.5532 160.1813,-354.5459 167.0619,-362.6025 170.5843,-356.5532"/>
</g>
<!-- roomid&#45;&gt;getAnchorInRoom -->
<g id="edge28" class="edge">
<title>roomid&#45;&gt;getAnchorInRoom</title>
<path fill="none" stroke="#000000" d="M393.9814,-484.0517C369.4742,-459.7644 322.8086,-413.5176 293.893,-384.8614"/>
<polygon fill="#000000" stroke="#000000" points="296.1614,-382.1819 286.5948,-377.6287 291.234,-387.1539 296.1614,-382.1819"/>
</g>
<!-- aid -->
<g id="node24" class="node">
<title>aid</title>
<ellipse fill="none" stroke="#000000" cx="827.4654" cy="-494.7626" rx="27" ry="18"/>
<text text-anchor="middle" x="827.4654" y="-490.5626" font-family="Times,serif" font-size="14.00" fill="#000000">aid</text>
</g>
<!-- aid&#45;&gt;view -->
<g id="edge4" class="edge">
<title>aid&#45;&gt;view</title>
<path fill="none" stroke="#000000" d="M806.6541,-483.0365C778.8866,-467.3909 729.5535,-439.5942 697.9087,-421.764"/>
<polygon fill="#000000" stroke="#000000" points="699.5227,-418.6561 689.0923,-416.7964 696.0864,-424.7546 699.5227,-418.6561"/>
</g>
<!-- p -->
<g id="node25" class="node">
<title>p</title>
<ellipse fill="none" stroke="#000000" cx="349.1247" cy="-692.7574" rx="27" ry="18"/>
<text text-anchor="middle" x="349.1247" y="-688.5574" font-family="Times,serif" font-size="14.00" fill="#000000">p</text>
</g>
<!-- p&#45;&gt;cid -->
<g id="edge22" class="edge">
<title>p&#45;&gt;cid</title>
<path fill="none" stroke="#000000" stroke-dasharray="1,5" d="M360.3127,-676.3507C375.1636,-654.5723 401.5308,-615.9057 418.9066,-590.4248"/>
<polygon fill="#000000" stroke="#000000" points="421.9018,-592.2449 424.644,-582.0111 416.1184,-588.3011 421.9018,-592.2449"/>
</g>
<!-- page -->
<g id="node26" class="node">
<title>page</title>
<ellipse fill="none" stroke="#000000" cx="26.5824" cy="-215.5568" rx="27" ry="18"/>
<text text-anchor="middle" x="26.5824" y="-211.3568" font-family="Times,serif" font-size="14.00" fill="#000000">page</text>
</g>
<!-- page&#45;&gt;topList -->
<g id="edge27" class="edge">
<title>page&#45;&gt;topList</title>
<path fill="none" stroke="#000000" stroke-dasharray="1,5" d="M40.2978,-231.1699C59.1188,-252.5952 93.1352,-291.3184 115.2976,-316.5472"/>
<polygon fill="#000000" stroke="#000000" points="112.813,-319.0222 122.0423,-324.2252 118.0721,-314.4024 112.813,-319.0222"/>
</g>
</g>
</svg>
