<?xml version="1.0" encoding="UTF-8" standalone="no"?>
<!DOCTYPE svg PUBLIC "-//W3C//DTD SVG 1.1//EN"
 "http://www.w3.org/Graphics/SVG/1.1/DTD/svg11.dtd">
<!-- Generated by graphviz version 2.40.1 (20161225.0304)
 -->
<!-- Title: G Pages: 1 -->
<svg width="575pt" height="586pt"
 viewBox="0.00 0.00 575.00 586.00" xmlns="http://www.w3.org/2000/svg" xmlns:xlink="http://www.w3.org/1999/xlink">
<g id="graph0" class="graph" transform="scale(1 1) rotate(0) translate(4 582)">
<title>G</title>
<polygon fill="#ffffff" stroke="transparent" points="-4,4 -4,-582 571,-582 571,4 -4,4"/>
<g id="clust1" class="cluster">
<title>cluster_api.bilibili.com</title>
<polygon fill="none" stroke="#000000" points="368.9178,-229.5902 368.9178,-398.5902 552.9178,-398.5902 552.9178,-229.5902 368.9178,-229.5902"/>
<text text-anchor="middle" x="460.9178" y="-383.3902" font-family="Times,serif" font-size="14.00" fill="#000000">api.bilibili.com</text>
</g>
<g id="clust2" class="cluster">
<title>cluster_api.live.bilibili.com</title>
<polygon fill="none" stroke="#000000" points="-.1679,-268.8897 -.1679,-440.8897 256.8321,-440.8897 256.8321,-268.8897 -.1679,-268.8897"/>
<text text-anchor="middle" x="128.3321" y="-425.6897" font-family="Times,serif" font-size="14.00" fill="#000000">api.live.bilibili.com</text>
</g>
<g id="clust3" class="cluster">
<title>cluster_data</title>
<polygon fill="none" stroke="#000000" points="186.3855,-.2849 186.3855,-207.2849 376.3855,-207.2849 376.3855,-.2849 186.3855,-.2849"/>
<text text-anchor="middle" x="281.3855" y="-192.0849" font-family="Times,serif" font-size="14.00" fill="#000000">data</text>
</g>
<g id="clust4" class="cluster">
<title>cluster_input</title>
<polygon fill="none" stroke="#000000" points="273.613,-416.1402 273.613,-555.1402 438.613,-555.1402 438.613,-416.1402 273.613,-416.1402"/>
<text text-anchor="middle" x="356.113" y="-539.9402" font-family="Times,serif" font-size="14.00" fill="#000000">input</text>
</g>
<!-- stat -->
<g id="node1" class="node">
<title>stat</title>
<ellipse fill="none" stroke="#000000" cx="412.1187" cy="-281.6144" rx="27" ry="18"/>
<text text-anchor="middle" x="412.1187" y="-277.4144" font-family="Times,serif" font-size="14.00" fill="#000000">stat</text>
</g>
<!-- follower -->
<g id="node9" class="node">
<title>follower</title>
<ellipse fill="none" stroke="#000000" cx="299.8176" cy="-159.5484" rx="40.1317" ry="18"/>
<text text-anchor="middle" x="299.8176" y="-155.3484" font-family="Times,serif" font-size="14.00" fill="#000000">follower</text>
</g>
<!-- stat&#45;&gt;follower -->
<g id="edge6" class="edge">
<title>stat&#45;&gt;follower</title>
<path fill="none" stroke="#000000" d="M397.8957,-266.1547C378.8297,-245.4308 344.7796,-208.42 322.2432,-183.924"/>
<polygon fill="#000000" stroke="#000000" points="324.7108,-181.4366 315.3644,-176.447 319.5592,-186.176 324.7108,-181.4366"/>
</g>
<!-- info -->
<g id="node2" class="node">
<title>info</title>
<ellipse fill="none" stroke="#000000" cx="403.694" cy="-337.3382" rx="27" ry="18"/>
<text text-anchor="middle" x="403.694" y="-333.1382" font-family="Times,serif" font-size="14.00" fill="#000000">info</text>
</g>
<!-- uname -->
<g id="node10" class="node">
<title>uname</title>
<ellipse fill="none" stroke="#000000" cx="332.411" cy="-108.4089" rx="33.8596" ry="18"/>
<text text-anchor="middle" x="332.411" y="-104.2089" font-family="Times,serif" font-size="14.00" fill="#000000">uname</text>
</g>
<!-- info&#45;&gt;uname -->
<g id="edge7" class="edge">
<title>info&#45;&gt;uname</title>
<path fill="none" stroke="#000000" d="M397.0605,-319.8618C392.9861,-308.926 387.7545,-294.5119 383.5187,-281.6063 366.7732,-230.586 349.557,-170.3058 339.9961,-135.9959"/>
<polygon fill="#000000" stroke="#000000" points="343.3302,-134.9208 337.2837,-126.2208 336.585,-136.7925 343.3302,-134.9208"/>
</g>
<!-- sign -->
<g id="node11" class="node">
<title>sign</title>
<ellipse fill="none" stroke="#000000" cx="341.5219" cy="-26.4276" rx="27" ry="18"/>
<text text-anchor="middle" x="341.5219" y="-22.2276" font-family="Times,serif" font-size="14.00" fill="#000000">sign</text>
</g>
<!-- info&#45;&gt;sign -->
<g id="edge8" class="edge">
<title>info&#45;&gt;sign</title>
<path fill="none" stroke="#000000" d="M395.9573,-319.6144C391.5855,-308.831 386.4282,-294.6632 383.5187,-281.6063 366.7134,-206.1904 383.0365,-184.207 367.6901,-108.4807 363.9141,-89.8479 357.4337,-69.4827 351.8667,-53.7024"/>
<polygon fill="#000000" stroke="#000000" points="355.0712,-52.2717 348.378,-44.0589 348.4887,-54.6531 355.0712,-52.2717"/>
</g>
<!-- view -->
<g id="node3" class="node">
<title>view</title>
<ellipse fill="none" stroke="#000000" cx="487.6973" cy="-350.8316" rx="27.0958" ry="18"/>
<text text-anchor="middle" x="487.6973" y="-346.6316" font-family="Times,serif" font-size="14.00" fill="#000000">view</text>
</g>
<!-- mid -->
<g id="node13" class="node">
<title>mid</title>
<ellipse fill="none" stroke="#000000" cx="392.4956" cy="-441.7907" rx="27" ry="18"/>
<text text-anchor="middle" x="392.4956" y="-437.5907" font-family="Times,serif" font-size="14.00" fill="#000000">mid</text>
</g>
<!-- view&#45;&gt;mid -->
<g id="edge11" class="edge">
<title>view&#45;&gt;mid</title>
<path fill="none" stroke="#000000" stroke-dasharray="5,2" d="M471.9767,-365.8516C456.6801,-380.4666 433.2545,-402.8482 415.7924,-419.5321"/>
<polygon fill="#000000" stroke="#000000" points="413.0521,-417.3095 408.2396,-426.7483 417.8878,-422.3708 413.0521,-417.3095"/>
</g>
<!-- cid -->
<g id="node14" class="node">
<title>cid</title>
<ellipse fill="none" stroke="#000000" cx="403.2124" cy="-506.6433" rx="27" ry="18"/>
<text text-anchor="middle" x="403.2124" y="-502.4433" font-family="Times,serif" font-size="14.00" fill="#000000">cid</text>
</g>
<!-- view&#45;&gt;cid -->
<g id="edge13" class="edge">
<title>view&#45;&gt;cid</title>
<path fill="none" stroke="#000000" d="M478.4951,-367.8028C463.7038,-395.0817 434.5435,-448.8607 417.1764,-480.8901"/>
<polygon fill="#000000" stroke="#000000" points="414.0931,-479.2338 412.4032,-489.693 420.2467,-482.5705 414.0931,-479.2338"/>
</g>
<!-- list -->
<g id="node4" class="node">
<title>list</title>
<ellipse fill="none" stroke="#000000" cx="485.2215" cy="-302.385" rx="27" ry="18"/>
<text text-anchor="middle" x="485.2215" y="-298.185" font-family="Times,serif" font-size="14.00" fill="#000000">list</text>
</g>
<!-- search -->
<g id="node5" class="node">
<title>search</title>
<ellipse fill="none" stroke="#000000" cx="512.5976" cy="-255.135" rx="32.8821" ry="18"/>
<text text-anchor="middle" x="512.5976" y="-250.935" font-family="Times,serif" font-size="14.00" fill="#000000">search</text>
</g>
<!-- search&#45;&gt;mid -->
<g id="edge12" class="edge">
<title>search&#45;&gt;mid</title>
<path fill="none" stroke="#000000" stroke-dasharray="5,2" d="M489.8117,-268.3549C481.4278,-273.8968 472.2385,-280.8335 465.0663,-288.4792 446.8955,-307.8496 418.3016,-376.0387 402.9945,-414.6329"/>
<polygon fill="#000000" stroke="#000000" points="399.6291,-413.6273 399.2261,-424.2145 406.1434,-416.1894 399.6291,-413.6273"/>
</g>
<!-- getRoomInfoOld -->
<g id="node6" class="node">
<title>getRoomInfoOld</title>
<ellipse fill="none" stroke="#000000" cx="178.2972" cy="-340.5424" rx="70.56" ry="18"/>
<text text-anchor="middle" x="178.2972" y="-336.3424" font-family="Times,serif" font-size="14.00" fill="#000000">getRoomInfoOld</text>
</g>
<!-- roomid -->
<g id="node15" class="node">
<title>roomid</title>
<ellipse fill="none" stroke="#000000" cx="317.4834" cy="-482.2969" rx="35.806" ry="18"/>
<text text-anchor="middle" x="317.4834" y="-478.0969" font-family="Times,serif" font-size="14.00" fill="#000000">roomid</text>
</g>
<!-- getRoomInfoOld&#45;&gt;roomid -->
<g id="edge15" class="edge">
<title>getRoomInfoOld&#45;&gt;roomid</title>
<path fill="none" stroke="#000000" d="M195.6438,-358.2091C220.5564,-383.5813 266.5189,-430.3921 294.3152,-458.7012"/>
<polygon fill="#000000" stroke="#000000" points="292.1373,-461.4788 301.6408,-466.1621 297.1321,-456.5745 292.1373,-461.4788"/>
</g>
<!-- topList -->
<g id="node7" class="node">
<title>topList</title>
<ellipse fill="none" stroke="#000000" cx="100.2502" cy="-295.0738" rx="35.3303" ry="18"/>
<text text-anchor="middle" x="100.2502" y="-290.8738" font-family="Times,serif" font-size="14.00" fill="#000000">topList</text>
</g>
<!-- guardNum -->
<g id="node12" class="node">
<title>guardNum</title>
<ellipse fill="none" stroke="#000000" cx="242.601" cy="-63.4069" rx="47.8582" ry="18"/>
<text text-anchor="middle" x="242.601" y="-59.2069" font-family="Times,serif" font-size="14.00" fill="#000000">guardNum</text>
</g>
<!-- topList&#45;&gt;guardNum -->
<g id="edge9" class="edge">
<title>topList&#45;&gt;guardNum</title>
<path fill="none" stroke="#000000" d="M110.9496,-277.6612C135.7331,-237.3276 197.1924,-137.3065 226.5248,-89.5699"/>
<polygon fill="#000000" stroke="#000000" points="229.5241,-91.3741 231.7774,-81.0217 223.56,-87.7094 229.5241,-91.3741"/>
</g>
<!-- getAnchorInRoom -->
<g id="node8" class="node">
<title>getAnchorInRoom</title>
<ellipse fill="none" stroke="#000000" cx="84.4481" cy="-393.0924" rx="76.3398" ry="18"/>
<text text-anchor="middle" x="84.4481" y="-388.8924" font-family="Times,serif" font-size="14.00" fill="#000000">getAnchorInRoom</text>
</g>
<!-- getAnchorInRoom&#45;&gt;mid -->
<g id="edge10" class="edge">
<title>getAnchorInRoom&#45;&gt;mid</title>
<path fill="none" stroke="#000000" stroke-dasharray="5,2" d="M147.9022,-403.1236C210.8461,-413.0743 305.0884,-427.9727 356.2692,-436.0638"/>
<polygon fill="#000000" stroke="#000000" points="355.7859,-439.5307 366.2098,-437.6352 356.879,-432.6166 355.7859,-439.5307"/>
</g>
<!-- uname&#45;&gt;search -->
<g id="edge5" class="edge">
<title>uname&#45;&gt;search</title>
<path fill="none" stroke="#000000" d="M351.0155,-123.5585C383.1994,-149.7659 449.3525,-203.6345 486.2516,-233.6814"/>
<polygon fill="#000000" stroke="#000000" points="484.13,-236.4674 494.0944,-240.0678 488.5501,-231.0394 484.13,-236.4674"/>
</g>
<!-- mid&#45;&gt;stat -->
<g id="edge1" class="edge">
<title>mid&#45;&gt;stat</title>
<path fill="none" stroke="#000000" d="M403.0616,-425.1775C414.755,-405.183 432.0077,-370.1974 432.2937,-337.4273 432.3809,-327.4398 429.5092,-317.0134 425.9071,-307.9125"/>
<polygon fill="#000000" stroke="#000000" points="429.0554,-306.3775 421.8171,-298.6408 422.6509,-309.2028 429.0554,-306.3775"/>
</g>
<!-- mid&#45;&gt;info -->
<g id="edge2" class="edge">
<title>mid&#45;&gt;info</title>
<path fill="none" stroke="#000000" d="M394.4462,-423.5965C396.1644,-407.5702 398.6944,-383.9713 400.6741,-365.5064"/>
<polygon fill="#000000" stroke="#000000" points="404.1797,-365.6401 401.7657,-355.3239 397.2196,-364.8938 404.1797,-365.6401"/>
</g>
<!-- mid&#45;&gt;getRoomInfoOld -->
<g id="edge16" class="edge">
<title>mid&#45;&gt;getRoomInfoOld</title>
<path fill="none" stroke="#000000" d="M370.3794,-431.3367C335.2529,-414.7329 266.0867,-382.0391 221.0482,-360.7501"/>
<polygon fill="#000000" stroke="#000000" points="222.3612,-357.4995 211.8246,-356.3903 219.3697,-363.8281 222.3612,-357.4995"/>
</g>
<!-- mid&#45;&gt;topList -->
<g id="edge18" class="edge">
<title>mid&#45;&gt;topList</title>
<path fill="none" stroke="#000000" d="M376.2765,-426.8496C348.427,-402.0474 288.7523,-352.5516 229.3017,-326.6833 202.1601,-314.8734 169.8034,-306.961 144.2792,-302.0061"/>
<polygon fill="#000000" stroke="#000000" points="144.621,-298.5098 134.1499,-300.124 143.3422,-305.392 144.621,-298.5098"/>
</g>
<!-- cid&#45;&gt;list -->
<g id="edge4" class="edge">
<title>cid&#45;&gt;list</title>
<path fill="none" stroke="#000000" d="M408.501,-488.9787C417.492,-459.6881 436.9237,-399.4577 458.8012,-350.668 462.0803,-343.3549 466.0469,-335.651 469.8983,-328.5973"/>
<polygon fill="#000000" stroke="#000000" points="473.172,-329.9147 475.0037,-319.4794 467.0642,-326.4948 473.172,-329.9147"/>
</g>
<!-- roomid&#45;&gt;topList -->
<g id="edge17" class="edge">
<title>roomid&#45;&gt;topList</title>
<path fill="none" stroke="#000000" d="M292.6361,-469.0736C241.8675,-441.5364 129.0844,-377.5323 106.1673,-340.542 103.0754,-335.5515 101.2739,-329.6627 100.2759,-323.8076"/>
<polygon fill="#000000" stroke="#000000" points="103.7231,-323.1062 99.2421,-313.5057 96.7581,-323.8052 103.7231,-323.1062"/>
</g>
<!-- roomid&#45;&gt;getAnchorInRoom -->
<g id="edge20" class="edge">
<title>roomid&#45;&gt;getAnchorInRoom</title>
<path fill="none" stroke="#000000" d="M288.9087,-471.3587C250.363,-456.6037 181.1191,-430.0975 133.9979,-412.0597"/>
<polygon fill="#000000" stroke="#000000" points="135.1815,-408.7652 124.5911,-408.4589 132.679,-415.3026 135.1815,-408.7652"/>
</g>
<!-- aid -->
<g id="node16" class="node">
<title>aid</title>
<ellipse fill="none" stroke="#000000" cx="539.5163" cy="-426.277" rx="27" ry="18"/>
<text text-anchor="middle" x="539.5163" y="-422.077" font-family="Times,serif" font-size="14.00" fill="#000000">aid</text>
</g>
<!-- aid&#45;&gt;view -->
<g id="edge3" class="edge">
<title>aid&#45;&gt;view</title>
<path fill="none" stroke="#000000" d="M528.2724,-409.9064C521.461,-399.9895 512.6333,-387.1369 504.9522,-375.9536"/>
<polygon fill="#000000" stroke="#000000" points="507.645,-373.6921 499.0983,-367.4307 501.8749,-377.6552 507.645,-373.6921"/>
</g>
<!-- p -->
<g id="node17" class="node">
<title>p</title>
<ellipse fill="none" stroke="#000000" cx="184.9152" cy="-560.2958" rx="27" ry="18"/>
<text text-anchor="middle" x="184.9152" y="-556.0958" font-family="Times,serif" font-size="14.00" fill="#000000">p</text>
</g>
<!-- p&#45;&gt;cid -->
<g id="edge14" class="edge">
<title>p&#45;&gt;cid</title>
<path fill="none" stroke="#000000" stroke-dasharray="1,5" d="M210.3839,-554.0362C249.3034,-544.4707 323.6978,-526.1862 367.8359,-515.338"/>
<polygon fill="#000000" stroke="#000000" points="368.6928,-518.7317 377.5684,-512.946 367.0221,-511.934 368.6928,-518.7317"/>
</g>
<!-- page -->
<g id="node18" class="node">
<title>page</title>
<ellipse fill="none" stroke="#000000" cx="99.6124" cy="-233.5692" rx="27" ry="18"/>
<text text-anchor="middle" x="99.6124" y="-229.3692" font-family="Times,serif" font-size="14.00" fill="#000000">page</text>
</g>
<!-- page&#45;&gt;topList -->
<g id="edge19" class="edge">
<title>page&#45;&gt;topList</title>
<path fill="none" stroke="#000000" stroke-dasharray="1,5" d="M99.8003,-251.6899C99.8492,-256.4027 99.903,-261.5945 99.956,-266.6985"/>
<polygon fill="#000000" stroke="#000000" points="96.4578,-266.9069 100.0614,-276.8701 103.4575,-266.8343 96.4578,-266.9069"/>
</g>
</g>
</svg>
