<?xml version="1.0" encoding="UTF-8" standalone="no"?>
<!DOCTYPE svg PUBLIC "-//W3C//DTD SVG 1.1//EN"
 "http://www.w3.org/Graphics/SVG/1.1/DTD/svg11.dtd">
<!-- Generated by graphviz version 2.40.1 (20161225.0304)
 -->
<!-- Title: G Pages: 1 -->
<svg width="532pt" height="545pt"
 viewBox="0.00 0.00 532.00 545.00" xmlns="http://www.w3.org/2000/svg" xmlns:xlink="http://www.w3.org/1999/xlink">
<g id="graph0" class="graph" transform="scale(1 1) rotate(0) translate(4 541)">
<title>G</title>
<polygon fill="#ffffff" stroke="transparent" points="-4,4 -4,-541 528,-541 528,4 -4,4"/>
<g id="clust1" class="cluster">
<title>cluster_api.bilibili.com</title>
<polygon fill="none" stroke="#000000" points=".4142,-137.9592 .4142,-285.9592 209.4142,-285.9592 209.4142,-137.9592 .4142,-137.9592"/>
<text text-anchor="middle" x="104.9142" y="-270.7592" font-family="Times,serif" font-size="14.00" fill="#000000">api.bilibili.com</text>
</g>
<g id="clust2" class="cluster">
<title>cluster_api.live.bilibili.com</title>
<polygon fill="none" stroke="#000000" points="367.1518,-206.1781 367.1518,-331.1781 524.1518,-331.1781 524.1518,-206.1781 367.1518,-206.1781"/>
<text text-anchor="middle" x="445.6518" y="-315.9781" font-family="Times,serif" font-size="14.00" fill="#000000">api.live.bilibili.com</text>
</g>
<g id="clust3" class="cluster">
<title>cluster_data</title>
<polygon fill="none" stroke="#000000" points="238.1074,-.2695 238.1074,-190.2695 453.1074,-190.2695 453.1074,-.2695 238.1074,-.2695"/>
<text text-anchor="middle" x="345.6074" y="-175.0695" font-family="Times,serif" font-size="14.00" fill="#000000">data</text>
</g>
<g id="clust4" class="cluster">
<title>cluster_input</title>
<polygon fill="none" stroke="#000000" points="143.0997,-308.5292 143.0997,-536.5292 330.0997,-536.5292 330.0997,-308.5292 143.0997,-308.5292"/>
<text text-anchor="middle" x="236.5997" y="-521.3292" font-family="Times,serif" font-size="14.00" fill="#000000">input</text>
</g>
<!-- stat -->
<g id="node1" class="node">
<title>stat</title>
<ellipse fill="none" stroke="#000000" cx="110.5119" cy="-163.9384" rx="27" ry="18"/>
<text text-anchor="middle" x="110.5119" y="-159.7384" font-family="Times,serif" font-size="14.00" fill="#000000">stat</text>
</g>
<!-- follower -->
<g id="node7" class="node">
<title>follower</title>
<ellipse fill="none" stroke="#000000" cx="286.5056" cy="-26.3685" rx="40.1317" ry="18"/>
<text text-anchor="middle" x="286.5056" y="-22.1685" font-family="Times,serif" font-size="14.00" fill="#000000">follower</text>
</g>
<!-- stat&#45;&gt;follower -->
<g id="edge5" class="edge">
<title>stat&#45;&gt;follower</title>
<path fill="none" stroke="#000000" d="M128.3556,-149.9904C158.9367,-126.0859 221.5947,-77.1077 258.1952,-48.498"/>
<polygon fill="#000000" stroke="#000000" points="260.7423,-50.9494 266.4655,-42.0334 256.4313,-45.4344 260.7423,-50.9494"/>
</g>
<!-- info -->
<g id="node2" class="node">
<title>info</title>
<ellipse fill="none" stroke="#000000" cx="174.8077" cy="-206.7831" rx="27" ry="18"/>
<text text-anchor="middle" x="174.8077" y="-202.5831" font-family="Times,serif" font-size="14.00" fill="#000000">info</text>
</g>
<!-- uname -->
<g id="node8" class="node">
<title>uname</title>
<ellipse fill="none" stroke="#000000" cx="352.1056" cy="-142.4492" rx="33.8596" ry="18"/>
<text text-anchor="middle" x="352.1056" y="-138.2492" font-family="Times,serif" font-size="14.00" fill="#000000">uname</text>
</g>
<!-- info&#45;&gt;uname -->
<g id="edge6" class="edge">
<title>info&#45;&gt;uname</title>
<path fill="none" stroke="#000000" d="M198.7188,-198.1068C228.5262,-187.2909 279.8042,-168.6843 314.7967,-155.987"/>
<polygon fill="#000000" stroke="#000000" points="315.9967,-159.2749 324.2031,-152.5738 313.609,-152.6947 315.9967,-159.2749"/>
</g>
<!-- view -->
<g id="node3" class="node">
<title>view</title>
<ellipse fill="none" stroke="#000000" cx="101.382" cy="-238.2708" rx="27.0958" ry="18"/>
<text text-anchor="middle" x="101.382" y="-234.0708" font-family="Times,serif" font-size="14.00" fill="#000000">view</text>
</g>
<!-- cid -->
<g id="node12" class="node">
<title>cid</title>
<ellipse fill="none" stroke="#000000" cx="262.1014" cy="-334.2546" rx="27" ry="18"/>
<text text-anchor="middle" x="262.1014" y="-330.0546" font-family="Times,serif" font-size="14.00" fill="#000000">cid</text>
</g>
<!-- view&#45;&gt;cid -->
<g id="edge8" class="edge">
<title>view&#45;&gt;cid</title>
<path fill="none" stroke="#000000" d="M121.7372,-250.4273C149.8748,-267.2314 200.8156,-297.6539 232.9764,-316.8608"/>
<polygon fill="#000000" stroke="#000000" points="231.5313,-320.0744 241.9114,-322.1969 235.1205,-314.0646 231.5313,-320.0744"/>
</g>
<!-- list -->
<g id="node4" class="node">
<title>list</title>
<ellipse fill="none" stroke="#000000" cx="35.1176" cy="-173.926" rx="27" ry="18"/>
<text text-anchor="middle" x="35.1176" y="-169.726" font-family="Times,serif" font-size="14.00" fill="#000000">list</text>
</g>
<!-- getRoomInfoOld -->
<g id="node5" class="node">
<title>getRoomInfoOld</title>
<ellipse fill="none" stroke="#000000" cx="445.4321" cy="-283.2409" rx="70.56" ry="18"/>
<text text-anchor="middle" x="445.4321" y="-279.0409" font-family="Times,serif" font-size="14.00" fill="#000000">getRoomInfoOld</text>
</g>
<!-- roomid -->
<g id="node15" class="node">
<title>roomid</title>
<ellipse fill="none" stroke="#000000" cx="205.2616" cy="-422.4623" rx="35.806" ry="18"/>
<text text-anchor="middle" x="205.2616" y="-418.2623" font-family="Times,serif" font-size="14.00" fill="#000000">roomid</text>
</g>
<!-- getRoomInfoOld&#45;&gt;roomid -->
<g id="edge10" class="edge">
<title>getRoomInfoOld&#45;&gt;roomid</title>
<path fill="none" stroke="#000000" d="M408.4048,-298.6806C372.8138,-314.1588 318.0736,-339.66 273.9432,-367.6637 258.8346,-377.2512 243.1513,-389.5581 230.5923,-400.0793"/>
<polygon fill="#000000" stroke="#000000" points="228.1738,-397.5416 222.8278,-406.6888 232.7112,-402.8719 228.1738,-397.5416"/>
</g>
<!-- topList -->
<g id="node6" class="node">
<title>topList</title>
<ellipse fill="none" stroke="#000000" cx="413.7461" cy="-231.8681" rx="35.3303" ry="18"/>
<text text-anchor="middle" x="413.7461" y="-227.6681" font-family="Times,serif" font-size="14.00" fill="#000000">topList</text>
</g>
<!-- guardNum -->
<g id="node9" class="node">
<title>guardNum</title>
<ellipse fill="none" stroke="#000000" cx="397.6621" cy="-60.4345" rx="47.8582" ry="18"/>
<text text-anchor="middle" x="397.6621" y="-56.2345" font-family="Times,serif" font-size="14.00" fill="#000000">guardNum</text>
</g>
<!-- topList&#45;&gt;guardNum -->
<g id="edge7" class="edge">
<title>topList&#45;&gt;guardNum</title>
<path fill="none" stroke="#000000" d="M412.0552,-213.8457C409.2558,-184.0072 403.6372,-124.1212 400.3084,-88.6402"/>
<polygon fill="#000000" stroke="#000000" points="403.7733,-88.1019 399.3544,-78.4726 396.8039,-88.7558 403.7733,-88.1019"/>
</g>
<!-- mid -->
<g id="node10" class="node">
<title>mid</title>
<ellipse fill="none" stroke="#000000" cx="294.0502" cy="-381.6022" rx="27" ry="18"/>
<text text-anchor="middle" x="294.0502" y="-377.4022" font-family="Times,serif" font-size="14.00" fill="#000000">mid</text>
</g>
<!-- mid&#45;&gt;stat -->
<g id="edge1" class="edge">
<title>mid&#45;&gt;stat</title>
<path fill="none" stroke="#000000" d="M272.6701,-370.3825C262.6711,-364.5346 250.9869,-356.7913 241.8651,-348.105 190.6079,-299.2947 146.4192,-227.9317 124.7511,-189.9626"/>
<polygon fill="#000000" stroke="#000000" points="127.6949,-188.0572 119.7369,-181.063 121.5963,-191.4934 127.6949,-188.0572"/>
</g>
<!-- mid&#45;&gt;info -->
<g id="edge2" class="edge">
<title>mid&#45;&gt;info</title>
<path fill="none" stroke="#000000" d="M272.3697,-370.6861C262.3021,-364.9074 250.6472,-357.1346 241.8651,-348.105 210.2244,-315.5722 191.3181,-265.2937 182.0034,-234.2998"/>
<polygon fill="#000000" stroke="#000000" points="185.3359,-233.2242 179.2076,-224.5816 178.6088,-235.1595 185.3359,-233.2242"/>
</g>
<!-- mid&#45;&gt;getRoomInfoOld -->
<g id="edge11" class="edge">
<title>mid&#45;&gt;getRoomInfoOld</title>
<path fill="none" stroke="#000000" d="M313.5308,-368.9446C338.0969,-352.9826 380.7605,-325.2617 410.9053,-305.6749"/>
<polygon fill="#000000" stroke="#000000" points="412.9585,-308.5148 419.4369,-300.1314 409.1445,-302.645 412.9585,-308.5148"/>
</g>
<!-- mid&#45;&gt;topList -->
<g id="edge13" class="edge">
<title>mid&#45;&gt;topList</title>
<path fill="none" stroke="#000000" d="M306.8597,-365.5781C327.6975,-339.511 369.0875,-287.734 393.8014,-256.818"/>
<polygon fill="#000000" stroke="#000000" points="396.7886,-258.6865 400.2988,-248.69 391.3209,-254.3156 396.7886,-258.6865"/>
</g>
<!-- aid -->
<g id="node11" class="node">
<title>aid</title>
<ellipse fill="none" stroke="#000000" cx="178.2821" cy="-356.8484" rx="27" ry="18"/>
<text text-anchor="middle" x="178.2821" y="-352.6484" font-family="Times,serif" font-size="14.00" fill="#000000">aid</text>
</g>
<!-- aid&#45;&gt;view -->
<g id="edge3" class="edge">
<title>aid&#45;&gt;view</title>
<path fill="none" stroke="#000000" d="M167.4273,-340.1107C154.4887,-320.1597 132.7388,-286.6221 117.7546,-263.517"/>
<polygon fill="#000000" stroke="#000000" points="120.5593,-261.4092 112.1816,-254.9235 114.6862,-265.218 120.5593,-261.4092"/>
</g>
<!-- cid&#45;&gt;list -->
<g id="edge4" class="edge">
<title>cid&#45;&gt;list</title>
<path fill="none" stroke="#000000" d="M245.4067,-319.9562C219.6942,-298.2209 168.4894,-256.0617 121.9306,-224.4901 103.6602,-212.101 82.2365,-199.6032 65.243,-190.1322"/>
<polygon fill="#000000" stroke="#000000" points="66.7527,-186.9678 56.3061,-185.2019 63.3713,-193.097 66.7527,-186.9678"/>
</g>
<!-- p -->
<g id="node13" class="node">
<title>p</title>
<ellipse fill="none" stroke="#000000" cx="220.4966" cy="-488.5973" rx="27" ry="18"/>
<text text-anchor="middle" x="220.4966" y="-484.3973" font-family="Times,serif" font-size="14.00" fill="#000000">p</text>
</g>
<!-- p&#45;&gt;cid -->
<g id="edge9" class="edge">
<title>p&#45;&gt;cid</title>
<path fill="none" stroke="#000000" stroke-dasharray="5,2" d="M226.8844,-471.0963C231.5742,-457.8773 237.9039,-439.2285 242.5136,-422.5769 248.0312,-402.6457 253.0548,-379.8519 256.6329,-362.413"/>
<polygon fill="#000000" stroke="#000000" points="260.1223,-362.8145 258.6655,-352.3203 253.2601,-361.4324 260.1223,-362.8145"/>
</g>
<!-- page -->
<g id="node14" class="node">
<title>page</title>
<ellipse fill="none" stroke="#000000" cx="294.6831" cy="-458.9396" rx="27" ry="18"/>
<text text-anchor="middle" x="294.6831" y="-454.7396" font-family="Times,serif" font-size="14.00" fill="#000000">page</text>
</g>
<!-- page&#45;&gt;topList -->
<g id="edge14" class="edge">
<title>page&#45;&gt;topList</title>
<path fill="none" stroke="#000000" stroke-dasharray="5,2" d="M300.9247,-441.2693C312.7608,-408.7674 340.2632,-337.8287 373.3023,-283.2041 378.8513,-274.0296 385.8147,-264.6332 392.3921,-256.4288"/>
<polygon fill="#000000" stroke="#000000" points="395.1219,-258.6197 398.7741,-248.6742 389.717,-254.1714 395.1219,-258.6197"/>
</g>
<!-- roomid&#45;&gt;topList -->
<g id="edge12" class="edge">
<title>roomid&#45;&gt;topList</title>
<path fill="none" stroke="#000000" d="M222.6782,-406.5402C259.715,-372.6816 346.3891,-293.4451 389.0867,-254.4114"/>
<polygon fill="#000000" stroke="#000000" points="391.5065,-256.9414 396.5256,-247.6108 386.7834,-251.7749 391.5065,-256.9414"/>
</g>
</g>
</svg>
