<?xml version="1.0" encoding="UTF-8" standalone="no"?>
<!DOCTYPE svg PUBLIC "-//W3C//DTD SVG 1.1//EN"
 "http://www.w3.org/Graphics/SVG/1.1/DTD/svg11.dtd">
<!-- Generated by graphviz version 2.40.1 (20161225.0304)
 -->
<!-- Title: G Pages: 1 -->
<svg width="555pt" height="254pt"
 viewBox="0.00 0.00 555.00 254.00" xmlns="http://www.w3.org/2000/svg" xmlns:xlink="http://www.w3.org/1999/xlink">
<g id="graph0" class="graph" transform="scale(1 1) rotate(0) translate(4 250)">
<title>G</title>
<polygon fill="#ffffff" stroke="transparent" points="-4,4 -4,-250 551,-250 551,4 -4,4"/>
<g id="clust1" class="cluster">
<title>cluster_api.bilibili.com</title>
<polygon fill="none" stroke="#000000" points="230,-90 230,-164 516,-164 516,-90 230,-90"/>
<text text-anchor="middle" x="373" y="-148.8" font-family="Times,serif" font-size="14.00" fill="#000000">api.bilibili.com</text>
</g>
<g id="clust2" class="cluster">
<title>cluster_data</title>
<polygon fill="none" stroke="#000000" points="357,-8 357,-82 539,-82 539,-8 357,-8"/>
<text text-anchor="middle" x="448" y="-66.8" font-family="Times,serif" font-size="14.00" fill="#000000">data</text>
</g>
<g id="clust3" class="cluster">
<title>cluster_input</title>
<polygon fill="none" stroke="#000000" points="8,-90 8,-238 222,-238 222,-90 8,-90"/>
<text text-anchor="middle" x="115" y="-222.8" font-family="Times,serif" font-size="14.00" fill="#000000">input</text>
</g>
<!-- stat -->
<g id="node1" class="node">
<title>stat</title>
<ellipse fill="none" stroke="#000000" cx="481" cy="-116" rx="27" ry="18"/>
<text text-anchor="middle" x="481" y="-111.8" font-family="Times,serif" font-size="14.00" fill="#000000">stat</text>
</g>
<!-- follower -->
<g id="node5" class="node">
<title>follower</title>
<ellipse fill="none" stroke="#000000" cx="491" cy="-34" rx="40.1317" ry="18"/>
<text text-anchor="middle" x="491" y="-29.8" font-family="Times,serif" font-size="14.00" fill="#000000">follower</text>
</g>
<!-- stat&#45;&gt;follower -->
<g id="edge5" class="edge">
<title>stat&#45;&gt;follower</title>
<path fill="none" stroke="#000000" d="M483.2193,-97.8015C484.4881,-87.3976 486.1071,-74.1215 487.5394,-62.3768"/>
<polygon fill="#000000" stroke="#000000" points="491.0505,-62.4978 488.7869,-52.1476 484.102,-61.6503 491.0505,-62.4978"/>
</g>
<!-- info -->
<g id="node2" class="node">
<title>info</title>
<ellipse fill="none" stroke="#000000" cx="409" cy="-116" rx="27" ry="18"/>
<text text-anchor="middle" x="409" y="-111.8" font-family="Times,serif" font-size="14.00" fill="#000000">info</text>
</g>
<!-- uname -->
<g id="node6" class="node">
<title>uname</title>
<ellipse fill="none" stroke="#000000" cx="399" cy="-34" rx="33.8596" ry="18"/>
<text text-anchor="middle" x="399" y="-29.8" font-family="Times,serif" font-size="14.00" fill="#000000">uname</text>
</g>
<!-- info&#45;&gt;uname -->
<g id="edge6" class="edge">
<title>info&#45;&gt;uname</title>
<path fill="none" stroke="#000000" d="M406.7807,-97.8015C405.5119,-87.3976 403.8929,-74.1215 402.4606,-62.3768"/>
<polygon fill="#000000" stroke="#000000" points="405.898,-61.6503 401.2131,-52.1476 398.9495,-62.4978 405.898,-61.6503"/>
</g>
<!-- view -->
<g id="node3" class="node">
<title>view</title>
<ellipse fill="none" stroke="#000000" cx="337" cy="-116" rx="27.0958" ry="18"/>
<text text-anchor="middle" x="337" y="-111.8" font-family="Times,serif" font-size="14.00" fill="#000000">view</text>
</g>
<!-- cid -->
<g id="node9" class="node">
<title>cid</title>
<ellipse fill="none" stroke="#000000" cx="187" cy="-116" rx="27" ry="18"/>
<text text-anchor="middle" x="187" y="-111.8" font-family="Times,serif" font-size="14.00" fill="#000000">cid</text>
</g>
<!-- view&#45;&gt;cid -->
<g id="edge7" class="edge">
<title>view&#45;&gt;cid</title>
<path fill="none" stroke="#000000" d="M327.1188,-133.3049C320.709,-143.3155 311.591,-155.5616 301,-164 289.5081,-173.1563 249.3735,-171.0503 235,-168 220.5386,-164.9311 209.0672,-153.2588 200.9699,-141.7489"/>
<polygon fill="#000000" stroke="#000000" points="203.7848,-139.6545 195.442,-133.124 197.8914,-143.4318 203.7848,-139.6545"/>
</g>
<!-- list -->
<g id="node4" class="node">
<title>list</title>
<ellipse fill="none" stroke="#000000" cx="265" cy="-116" rx="27" ry="18"/>
<text text-anchor="middle" x="265" y="-111.8" font-family="Times,serif" font-size="14.00" fill="#000000">list</text>
</g>
<!-- mid -->
<g id="node7" class="node">
<title>mid</title>
<ellipse fill="none" stroke="#000000" cx="187" cy="-190" rx="27" ry="18"/>
<text text-anchor="middle" x="187" y="-185.8" font-family="Times,serif" font-size="14.00" fill="#000000">mid</text>
</g>
<!-- mid&#45;&gt;stat -->
<g id="edge1" class="edge">
<title>mid&#45;&gt;stat</title>
<path fill="none" stroke="#000000" d="M213.9531,-188.5092C276.0118,-184.9026 425.2018,-175.175 445,-164 454.1564,-158.8317 461.689,-150.2768 467.4547,-141.8094"/>
<polygon fill="#000000" stroke="#000000" points="470.5211,-143.5056 472.8176,-133.1627 464.5724,-139.816 470.5211,-143.5056"/>
</g>
<!-- mid&#45;&gt;info -->
<g id="edge2" class="edge">
<title>mid&#45;&gt;info</title>
<path fill="none" stroke="#000000" d="M214.1702,-188.7483C259.1332,-186.2608 346.6738,-179.5345 373,-164 381.9222,-158.7352 389.3453,-150.3167 395.0875,-141.9895"/>
<polygon fill="#000000" stroke="#000000" points="398.0799,-143.8057 400.4554,-133.4806 392.1596,-140.0708 398.0799,-143.8057"/>
</g>
<!-- aid -->
<g id="node8" class="node">
<title>aid</title>
<ellipse fill="none" stroke="#000000" cx="115" cy="-190" rx="27" ry="18"/>
<text text-anchor="middle" x="115" y="-185.8" font-family="Times,serif" font-size="14.00" fill="#000000">aid</text>
</g>
<!-- aid&#45;&gt;view -->
<g id="edge3" class="edge">
<title>aid&#45;&gt;view</title>
<path fill="none" stroke="#000000" d="M135.3679,-178.0153C140.3302,-175.6083 145.7306,-173.3931 151,-172 183.2719,-163.468 271.5516,-179.7183 301,-164 310.2757,-159.049 317.8335,-150.54 323.586,-142.0485"/>
<polygon fill="#000000" stroke="#000000" points="326.6736,-143.7089 328.9236,-133.3557 320.7084,-140.046 326.6736,-143.7089"/>
</g>
<!-- cid&#45;&gt;list -->
<g id="edge4" class="edge">
<title>cid&#45;&gt;list</title>
<path fill="none" stroke="#000000" d="M214.1172,-116C218.7135,-116 223.3099,-116 227.9062,-116"/>
<polygon fill="#000000" stroke="#000000" points="227.9685,-119.5001 237.9685,-116 227.9685,-112.5001 227.9685,-119.5001"/>
</g>
<!-- p -->
<g id="node10" class="node">
<title>p</title>
<ellipse fill="none" stroke="#000000" cx="43" cy="-190" rx="27" ry="18"/>
<text text-anchor="middle" x="43" y="-185.8" font-family="Times,serif" font-size="14.00" fill="#000000">p</text>
</g>
<!-- p&#45;&gt;cid -->
<g id="edge8" class="edge">
<title>p&#45;&gt;cid</title>
<path fill="none" stroke="#000000" stroke-dasharray="5,2" d="M64.5583,-178.9215C88.842,-166.4423 128.5102,-146.0573 156.0887,-131.885"/>
<polygon fill="#000000" stroke="#000000" points="157.9998,-134.838 165.2944,-127.1543 154.8003,-128.612 157.9998,-134.838"/>
</g>
</g>
</svg>
