<?xml version="1.0" encoding="UTF-8" standalone="no"?>
<!DOCTYPE svg PUBLIC "-//W3C//DTD SVG 1.1//EN"
 "http://www.w3.org/Graphics/SVG/1.1/DTD/svg11.dtd">
<!-- Generated by graphviz version 2.40.1 (20161225.0304)
 -->
<!-- Title: G Pages: 1 -->
<svg width="495pt" height="498pt"
 viewBox="0.00 0.00 495.00 498.00" xmlns="http://www.w3.org/2000/svg" xmlns:xlink="http://www.w3.org/1999/xlink">
<g id="graph0" class="graph" transform="scale(1 1) rotate(0) translate(4 494)">
<title>G</title>
<polygon fill="#ffffff" stroke="transparent" points="-4,4 -4,-494 491,-494 491,4 -4,4"/>
<g id="clust1" class="cluster">
<title>cluster_api.bilibili.com</title>
<polygon fill="none" stroke="#000000" points=".4577,-115.9565 .4577,-283.9565 156.4577,-283.9565 156.4577,-115.9565 .4577,-115.9565"/>
<text text-anchor="middle" x="78.4577" y="-268.7565" font-family="Times,serif" font-size="14.00" fill="#000000">api.bilibili.com</text>
</g>
<g id="clust2" class="cluster">
<title>cluster_api.live.bilibili.com</title>
<polygon fill="none" stroke="#000000" points="328.2828,-161.9888 328.2828,-287.9888 487.2828,-287.9888 487.2828,-161.9888 328.2828,-161.9888"/>
<text text-anchor="middle" x="407.7828" y="-272.7888" font-family="Times,serif" font-size="14.00" fill="#000000">api.live.bilibili.com</text>
</g>
<g id="clust3" class="cluster">
<title>cluster_data</title>
<polygon fill="none" stroke="#000000" points="188.2177,.4581 188.2177,-150.5419 394.2177,-150.5419 394.2177,.4581 188.2177,.4581"/>
<text text-anchor="middle" x="291.2177" y="-135.3419" font-family="Times,serif" font-size="14.00" fill="#000000">data</text>
</g>
<g id="clust4" class="cluster">
<title>cluster_input</title>
<polygon fill="none" stroke="#000000" points="86.6504,-296.069 86.6504,-490.069 324.6504,-490.069 324.6504,-296.069 86.6504,-296.069"/>
<text text-anchor="middle" x="205.6504" y="-474.869" font-family="Times,serif" font-size="14.00" fill="#000000">input</text>
</g>
<!-- stat -->
<g id="node1" class="node">
<title>stat</title>
<ellipse fill="none" stroke="#000000" cx="75.4626" cy="-142.3444" rx="27" ry="18"/>
<text text-anchor="middle" x="75.4626" y="-138.1444" font-family="Times,serif" font-size="14.00" fill="#000000">stat</text>
</g>
<!-- follower -->
<g id="node7" class="node">
<title>follower</title>
<ellipse fill="none" stroke="#000000" cx="236.7406" cy="-25.6751" rx="40.1317" ry="18"/>
<text text-anchor="middle" x="236.7406" y="-21.4751" font-family="Times,serif" font-size="14.00" fill="#000000">follower</text>
</g>
<!-- stat&#45;&gt;follower -->
<g id="edge5" class="edge">
<title>stat&#45;&gt;follower</title>
<path fill="none" stroke="#000000" d="M93.9633,-128.9609C121.6098,-108.9613 173.9815,-71.0753 207.0312,-47.167"/>
<polygon fill="#000000" stroke="#000000" points="209.3462,-49.8122 215.397,-41.1152 205.2433,-44.1406 209.3462,-49.8122"/>
</g>
<!-- info -->
<g id="node2" class="node">
<title>info</title>
<ellipse fill="none" stroke="#000000" cx="121.6641" cy="-187.3031" rx="27" ry="18"/>
<text text-anchor="middle" x="121.6641" y="-183.1031" font-family="Times,serif" font-size="14.00" fill="#000000">info</text>
</g>
<!-- uname -->
<g id="node8" class="node">
<title>uname</title>
<ellipse fill="none" stroke="#000000" cx="234.3598" cy="-102.1043" rx="33.8596" ry="18"/>
<text text-anchor="middle" x="234.3598" y="-97.9043" font-family="Times,serif" font-size="14.00" fill="#000000">uname</text>
</g>
<!-- info&#45;&gt;uname -->
<g id="edge6" class="edge">
<title>info&#45;&gt;uname</title>
<path fill="none" stroke="#000000" d="M139.7706,-173.6144C157.8167,-159.9714 185.7711,-138.8377 206.617,-123.078"/>
<polygon fill="#000000" stroke="#000000" points="208.9178,-125.7263 214.784,-116.9037 204.6963,-120.1425 208.9178,-125.7263"/>
</g>
<!-- view -->
<g id="node3" class="node">
<title>view</title>
<ellipse fill="none" stroke="#000000" cx="78.045" cy="-235.7418" rx="27.0958" ry="18"/>
<text text-anchor="middle" x="78.045" y="-231.5418" font-family="Times,serif" font-size="14.00" fill="#000000">view</text>
</g>
<!-- cid -->
<g id="node12" class="node">
<title>cid</title>
<ellipse fill="none" stroke="#000000" cx="217.9928" cy="-441.8017" rx="27" ry="18"/>
<text text-anchor="middle" x="217.9928" y="-437.6017" font-family="Times,serif" font-size="14.00" fill="#000000">cid</text>
</g>
<!-- view&#45;&gt;cid -->
<g id="edge8" class="edge">
<title>view&#45;&gt;cid</title>
<path fill="none" stroke="#000000" d="M90.3058,-252.1087C108.6384,-276.7517 144.0475,-325.0142 172.183,-367.375 182.7877,-383.3415 194.0814,-401.6739 202.8018,-416.1491"/>
<polygon fill="#000000" stroke="#000000" points="199.9865,-418.2603 208.1276,-425.0407 205.9917,-414.6634 199.9865,-418.2603"/>
</g>
<!-- list -->
<g id="node4" class="node">
<title>list</title>
<ellipse fill="none" stroke="#000000" cx="35.7837" cy="-186.8186" rx="27" ry="18"/>
<text text-anchor="middle" x="35.7837" y="-182.6186" font-family="Times,serif" font-size="14.00" fill="#000000">list</text>
</g>
<!-- getRoomInfoOld -->
<g id="node5" class="node">
<title>getRoomInfoOld</title>
<ellipse fill="none" stroke="#000000" cx="408.604" cy="-239.695" rx="70.56" ry="18"/>
<text text-anchor="middle" x="408.604" y="-235.495" font-family="Times,serif" font-size="14.00" fill="#000000">getRoomInfoOld</text>
</g>
<!-- roomid -->
<g id="node15" class="node">
<title>roomid</title>
<ellipse fill="none" stroke="#000000" cx="130.7174" cy="-436.4688" rx="35.806" ry="18"/>
<text text-anchor="middle" x="130.7174" y="-432.2688" font-family="Times,serif" font-size="14.00" fill="#000000">roomid</text>
</g>
<!-- getRoomInfoOld&#45;&gt;roomid -->
<g id="edge10" class="edge">
<title>getRoomInfoOld&#45;&gt;roomid</title>
<path fill="none" stroke="#000000" d="M368.7479,-254.6583C339.7704,-266.6069 300.4422,-285.1055 269.9379,-307.9331 250.377,-322.5713 250.5853,-331.7202 232.7405,-348.4075 219.8926,-360.422 215.3074,-361.824 201.8719,-373.1774 186.2486,-386.3795 169.1075,-401.6032 155.5645,-413.811"/>
<polygon fill="#000000" stroke="#000000" points="153.1137,-411.3084 148.0451,-420.6122 157.8093,-416.4999 153.1137,-411.3084"/>
</g>
<!-- topList -->
<g id="node6" class="node">
<title>topList</title>
<ellipse fill="none" stroke="#000000" cx="371.7845" cy="-187.6325" rx="35.3303" ry="18"/>
<text text-anchor="middle" x="371.7845" y="-183.4325" font-family="Times,serif" font-size="14.00" fill="#000000">topList</text>
</g>
<!-- guardNum -->
<g id="node9" class="node">
<title>guardNum</title>
<ellipse fill="none" stroke="#000000" cx="337.9082" cy="-59.8819" rx="47.8582" ry="18"/>
<text text-anchor="middle" x="337.9082" y="-55.6819" font-family="Times,serif" font-size="14.00" fill="#000000">guardNum</text>
</g>
<!-- topList&#45;&gt;guardNum -->
<g id="edge7" class="edge">
<title>topList&#45;&gt;guardNum</title>
<path fill="none" stroke="#000000" d="M367.0027,-169.5999C361.3534,-148.2958 351.8909,-112.6119 345.2967,-87.7445"/>
<polygon fill="#000000" stroke="#000000" points="348.612,-86.5916 342.6657,-77.8228 341.8459,-88.3859 348.612,-86.5916"/>
</g>
<!-- mid -->
<g id="node10" class="node">
<title>mid</title>
<ellipse fill="none" stroke="#000000" cx="151.8441" cy="-381.1546" rx="27" ry="18"/>
<text text-anchor="middle" x="151.8441" y="-376.9546" font-family="Times,serif" font-size="14.00" fill="#000000">mid</text>
</g>
<!-- mid&#45;&gt;stat -->
<g id="edge1" class="edge">
<title>mid&#45;&gt;stat</title>
<path fill="none" stroke="#000000" d="M146.4575,-363.2139C138.1704,-335.7308 121.7026,-281.583 106.9417,-235.8527 99.7496,-213.571 91.2635,-188.4253 84.9155,-169.8262"/>
<polygon fill="#000000" stroke="#000000" points="88.1798,-168.5548 81.6307,-160.2266 81.5568,-170.8212 88.1798,-168.5548"/>
</g>
<!-- mid&#45;&gt;info -->
<g id="edge2" class="edge">
<title>mid&#45;&gt;info</title>
<path fill="none" stroke="#000000" d="M149.0048,-362.9175C143.7111,-328.9153 132.3033,-255.641 126.0258,-215.3192"/>
<polygon fill="#000000" stroke="#000000" points="129.4706,-214.693 124.4738,-205.3505 122.5539,-215.7699 129.4706,-214.693"/>
</g>
<!-- mid&#45;&gt;getRoomInfoOld -->
<g id="edge11" class="edge">
<title>mid&#45;&gt;getRoomInfoOld</title>
<path fill="none" stroke="#000000" d="M176.9742,-374.1705C193.7117,-368.7796 215.6803,-360.2325 232.7405,-348.4075 252.8202,-334.4896 250.377,-322.5713 269.9379,-307.9331 297.225,-287.5131 331.5727,-270.5571 359.2563,-258.6549"/>
<polygon fill="#000000" stroke="#000000" points="360.8898,-261.7648 368.7479,-254.6583 358.1733,-255.3133 360.8898,-261.7648"/>
</g>
<!-- mid&#45;&gt;topList -->
<g id="edge13" class="edge">
<title>mid&#45;&gt;topList</title>
<path fill="none" stroke="#000000" d="M161.1095,-364.1103C168.5476,-351.3218 179.7958,-333.8238 192.3561,-320.6464 237.8065,-272.9631 301.9487,-229.9907 339.9605,-206.4747"/>
<polygon fill="#000000" stroke="#000000" points="341.8736,-209.4074 348.5756,-201.2017 338.2192,-203.4369 341.8736,-209.4074"/>
</g>
<!-- aid -->
<g id="node11" class="node">
<title>aid</title>
<ellipse fill="none" stroke="#000000" cx="222.0683" cy="-387.0551" rx="27" ry="18"/>
<text text-anchor="middle" x="222.0683" y="-382.8551" font-family="Times,serif" font-size="14.00" fill="#000000">aid</text>
</g>
<!-- aid&#45;&gt;view -->
<g id="edge3" class="edge">
<title>aid&#45;&gt;view</title>
<path fill="none" stroke="#000000" d="M207.466,-371.7136C182.0183,-344.9779 129.4284,-289.7261 99.7164,-258.5102"/>
<polygon fill="#000000" stroke="#000000" points="102.1156,-255.9542 92.6859,-251.1239 97.0452,-260.7803 102.1156,-255.9542"/>
</g>
<!-- cid&#45;&gt;list -->
<g id="edge4" class="edge">
<title>cid&#45;&gt;list</title>
<path fill="none" stroke="#000000" d="M208.8091,-424.55C200.2025,-408.9977 186.5416,-385.8087 172.183,-367.375 127.2705,-309.7161 102.1019,-307.4192 57.4964,-249.5225 49.6657,-239.3585 44.5389,-226.17 41.2455,-214.5125"/>
<polygon fill="#000000" stroke="#000000" points="44.631,-213.6234 38.8014,-204.7766 37.8417,-215.3279 44.631,-213.6234"/>
</g>
<!-- p -->
<g id="node13" class="node">
<title>p</title>
<ellipse fill="none" stroke="#000000" cx="289.9679" cy="-321.9235" rx="27" ry="18"/>
<text text-anchor="middle" x="289.9679" y="-317.7235" font-family="Times,serif" font-size="14.00" fill="#000000">p</text>
</g>
<!-- p&#45;&gt;cid -->
<g id="edge9" class="edge">
<title>p&#45;&gt;cid</title>
<path fill="none" stroke="#000000" stroke-dasharray="5,2" d="M279.8083,-338.8449C267.6983,-359.0147 247.3414,-392.9201 233.3169,-416.2787"/>
<polygon fill="#000000" stroke="#000000" points="230.2476,-414.5914 228.1007,-424.9664 236.249,-418.1946 230.2476,-414.5914"/>
</g>
<!-- page -->
<g id="node14" class="node">
<title>page</title>
<ellipse fill="none" stroke="#000000" cx="212.5483" cy="-334.527" rx="27" ry="18"/>
<text text-anchor="middle" x="212.5483" y="-330.327" font-family="Times,serif" font-size="14.00" fill="#000000">page</text>
</g>
<!-- page&#45;&gt;topList -->
<g id="edge14" class="edge">
<title>page&#45;&gt;topList</title>
<path fill="none" stroke="#000000" stroke-dasharray="5,2" d="M228.3986,-319.9051C256.2187,-294.2413 314.0155,-240.9241 347.1053,-210.399"/>
<polygon fill="#000000" stroke="#000000" points="349.582,-212.8761 354.559,-203.523 344.8356,-207.7309 349.582,-212.8761"/>
</g>
<!-- roomid&#45;&gt;topList -->
<g id="edge12" class="edge">
<title>roomid&#45;&gt;topList</title>
<path fill="none" stroke="#000000" d="M148.0451,-420.6122C162.3207,-407.6567 183.1823,-388.9706 201.8719,-373.1774 215.3074,-361.824 220.0754,-360.6146 232.7405,-348.4075 245.3198,-336.2831 315.3764,-254.1167 350.9894,-212.1696"/>
<polygon fill="#000000" stroke="#000000" points="353.8241,-214.2385 357.6255,-204.3491 348.4867,-209.7095 353.8241,-214.2385"/>
</g>
</g>
</svg>
