<?xml version="1.0" encoding="UTF-8" standalone="no"?>
<!DOCTYPE svg PUBLIC "-//W3C//DTD SVG 1.1//EN"
 "http://www.w3.org/Graphics/SVG/1.1/DTD/svg11.dtd">
<!-- Generated by graphviz version 2.40.1 (20161225.0304)
 -->
<!-- Title: G Pages: 1 -->
<svg width="874pt" height="791pt"
 viewBox="0.00 0.00 874.00 791.00" xmlns="http://www.w3.org/2000/svg" xmlns:xlink="http://www.w3.org/1999/xlink">
<g id="graph0" class="graph" transform="scale(1 1) rotate(0) translate(4 787)">
<title>G</title>
<polygon fill="#ffffff" stroke="transparent" points="-4,4 -4,-787 870,-787 870,4 -4,4"/>
<g id="clust1" class="cluster">
<title>cluster_api.bilibili.com</title>
<polygon fill="none" stroke="#000000" points="516.9833,-318.8666 516.9833,-539.8666 773.9833,-539.8666 773.9833,-318.8666 516.9833,-318.8666"/>
<text text-anchor="middle" x="645.4833" y="-524.6666" font-family="Times,serif" font-size="14.00" fill="#000000">api.bilibili.com</text>
</g>
<g id="clust2" class="cluster">
<title>cluster_api.live.bilibili.com</title>
<polygon fill="none" stroke="#000000" points="85.1691,-327.4212 85.1691,-504.4212 356.1691,-504.4212 356.1691,-327.4212 85.1691,-327.4212"/>
<text text-anchor="middle" x="220.6691" y="-489.2212" font-family="Times,serif" font-size="14.00" fill="#000000">api.live.bilibili.com</text>
</g>
<g id="clust3" class="cluster">
<title>cluster_data</title>
<polygon fill="none" stroke="#000000" points="132.2713,.4474 132.2713,-307.5526 549.2713,-307.5526 549.2713,.4474 132.2713,.4474"/>
<text text-anchor="middle" x="340.7713" y="-292.3526" font-family="Times,serif" font-size="14.00" fill="#000000">data</text>
</g>
<g id="clust4" class="cluster">
<title>cluster_input</title>
<polygon fill="none" stroke="#000000" points="380.2163,-552.3067 380.2163,-695.3067 555.2163,-695.3067 555.2163,-552.3067 380.2163,-552.3067"/>
<text text-anchor="middle" x="467.7163" y="-680.1067" font-family="Times,serif" font-size="14.00" fill="#000000">input</text>
</g>
<!-- stat -->
<g id="node1" class="node">
<title>stat</title>
<ellipse fill="none" stroke="#000000" cx="591.2533" cy="-472.023" rx="27" ry="18"/>
<text text-anchor="middle" x="591.2533" y="-467.823" font-family="Times,serif" font-size="14.00" fill="#000000">stat</text>
</g>
<!-- follower -->
<g id="node12" class="node">
<title>follower</title>
<ellipse fill="none" stroke="#000000" cx="179.9109" cy="-131.3108" rx="40.1317" ry="18"/>
<text text-anchor="middle" x="179.9109" y="-127.1108" font-family="Times,serif" font-size="14.00" fill="#000000">follower</text>
</g>
<!-- stat&#45;&gt;follower -->
<g id="edge8" class="edge">
<title>stat&#45;&gt;follower</title>
<path fill="none" stroke="#000000" d="M573.779,-458.0651C525.4691,-419.2402 386.6017,-306.0309 279.4984,-202.8168 270.9367,-194.566 270.4111,-190.8405 261.2768,-183.2286 246.8853,-171.2357 229.546,-159.8162 214.5783,-150.7564"/>
<polygon fill="#000000" stroke="#000000" points="215.9987,-147.5296 205.6127,-145.4364 212.4265,-153.5495 215.9987,-147.5296"/>
</g>
<!-- upstat -->
<g id="node2" class="node">
<title>upstat</title>
<ellipse fill="none" stroke="#000000" cx="637.4991" cy="-404.4652" rx="31.4636" ry="18"/>
<text text-anchor="middle" x="637.4991" y="-400.2652" font-family="Times,serif" font-size="14.00" fill="#000000">upstat</text>
</g>
<!-- archiveView -->
<g id="node20" class="node">
<title>archiveView</title>
<ellipse fill="none" stroke="#000000" cx="258.3321" cy="-250.6523" rx="54.513" ry="18"/>
<text text-anchor="middle" x="258.3321" y="-246.4523" font-family="Times,serif" font-size="14.00" fill="#000000">archiveView</text>
</g>
<!-- upstat&#45;&gt;archiveView -->
<g id="edge16" class="edge">
<title>upstat&#45;&gt;archiveView</title>
<path fill="none" stroke="#000000" d="M609.039,-396.6146C587.6755,-390.4883 557.8193,-381.4287 532.1881,-371.8229 447.2242,-339.9811 350.8301,-295.2401 298.0772,-269.9857"/>
<polygon fill="#000000" stroke="#000000" points="299.5886,-266.8289 289.059,-265.6546 296.558,-273.1389 299.5886,-266.8289"/>
</g>
<!-- articleView -->
<g id="node21" class="node">
<title>articleView</title>
<ellipse fill="none" stroke="#000000" cx="428.2185" cy="-259.646" rx="50.6536" ry="18"/>
<text text-anchor="middle" x="428.2185" y="-255.446" font-family="Times,serif" font-size="14.00" fill="#000000">articleView</text>
</g>
<!-- upstat&#45;&gt;articleView -->
<g id="edge17" class="edge">
<title>upstat&#45;&gt;articleView</title>
<path fill="none" stroke="#000000" d="M622.515,-388.5621C610.0054,-375.7589 591.3492,-357.7303 573.1919,-344.1976 539.1052,-318.7928 496.7807,-294.8811 466.6813,-279.013"/>
<polygon fill="#000000" stroke="#000000" points="468.2398,-275.8784 457.7552,-274.3539 465.0007,-282.084 468.2398,-275.8784"/>
</g>
<!-- info -->
<g id="node3" class="node">
<title>info</title>
<ellipse fill="none" stroke="#000000" cx="636.0765" cy="-344.3759" rx="27" ry="18"/>
<text text-anchor="middle" x="636.0765" y="-340.1759" font-family="Times,serif" font-size="14.00" fill="#000000">info</text>
</g>
<!-- uname -->
<g id="node13" class="node">
<title>uname</title>
<ellipse fill="none" stroke="#000000" cx="279.5898" cy="-25.3727" rx="33.8596" ry="18"/>
<text text-anchor="middle" x="279.5898" y="-21.1727" font-family="Times,serif" font-size="14.00" fill="#000000">uname</text>
</g>
<!-- info&#45;&gt;uname -->
<g id="edge9" class="edge">
<title>info&#45;&gt;uname</title>
<path fill="none" stroke="#000000" d="M619.2696,-330.2391C587.4614,-303.6157 516.0649,-244.4829 453.8259,-197.395 416.1262,-168.8726 401.3525,-168.4117 367.0539,-135.8787 339.5074,-109.7502 313.2194,-74.695 296.7854,-51.1352"/>
<polygon fill="#000000" stroke="#000000" points="299.5401,-48.9642 290.9873,-42.7111 293.7739,-52.933 299.5401,-48.9642"/>
</g>
<!-- sign -->
<g id="node14" class="node">
<title>sign</title>
<ellipse fill="none" stroke="#000000" cx="452.0272" cy="-150.0752" rx="27" ry="18"/>
<text text-anchor="middle" x="452.0272" y="-145.8752" font-family="Times,serif" font-size="14.00" fill="#000000">sign</text>
</g>
<!-- info&#45;&gt;sign -->
<g id="edge10" class="edge">
<title>info&#45;&gt;sign</title>
<path fill="none" stroke="#000000" d="M621.6344,-329.1295C589.459,-295.1618 511.7315,-213.105 473.7071,-172.9626"/>
<polygon fill="#000000" stroke="#000000" points="476.0748,-170.3728 466.6568,-165.5197 470.9928,-175.1867 476.0748,-170.3728"/>
</g>
<!-- face -->
<g id="node22" class="node">
<title>face</title>
<ellipse fill="none" stroke="#000000" cx="387.3197" cy="-122.0486" rx="27" ry="18"/>
<text text-anchor="middle" x="387.3197" y="-117.8486" font-family="Times,serif" font-size="14.00" fill="#000000">face</text>
</g>
<!-- info&#45;&gt;face -->
<g id="edge18" class="edge">
<title>info&#45;&gt;face</title>
<path fill="none" stroke="#000000" d="M619.501,-330.0499C584.5125,-299.7409 500.6682,-226.7465 431.791,-163.9256 424.8076,-157.5563 417.2966,-150.5462 410.4717,-144.1135"/>
<polygon fill="#000000" stroke="#000000" points="412.5173,-141.2305 402.8478,-136.9002 407.7063,-146.3154 412.5173,-141.2305"/>
</g>
<!-- view -->
<g id="node4" class="node">
<title>view</title>
<ellipse fill="none" stroke="#000000" cx="552.69" cy="-358.0103" rx="27.0958" ry="18"/>
<text text-anchor="middle" x="552.69" y="-353.8103" font-family="Times,serif" font-size="14.00" fill="#000000">view</text>
</g>
<!-- mid -->
<g id="node25" class="node">
<title>mid</title>
<ellipse fill="none" stroke="#000000" cx="451.9984" cy="-578.096" rx="27" ry="18"/>
<text text-anchor="middle" x="451.9984" y="-573.896" font-family="Times,serif" font-size="14.00" fill="#000000">mid</text>
</g>
<!-- view&#45;&gt;mid -->
<g id="edge22" class="edge">
<title>view&#45;&gt;mid</title>
<path fill="none" stroke="#000000" stroke-dasharray="5,2" d="M544.7889,-375.28C527.296,-413.5149 485.1926,-505.5421 464.2518,-551.3132"/>
<polygon fill="#000000" stroke="#000000" points="460.9798,-550.0523 460.0021,-560.6019 467.3452,-552.9646 460.9798,-550.0523"/>
</g>
<!-- cid -->
<g id="node26" class="node">
<title>cid</title>
<ellipse fill="none" stroke="#000000" cx="415.6565" cy="-636.2759" rx="27" ry="18"/>
<text text-anchor="middle" x="415.6565" y="-632.0759" font-family="Times,serif" font-size="14.00" fill="#000000">cid</text>
</g>
<!-- view&#45;&gt;cid -->
<g id="edge24" class="edge">
<title>view&#45;&gt;cid</title>
<path fill="none" stroke="#000000" d="M539.9835,-374.2561C513.3699,-409.2334 451.8838,-495.2138 423.3996,-577.9132 420.0996,-587.4942 418.1943,-598.4074 417.0984,-608.184"/>
<polygon fill="#000000" stroke="#000000" points="413.6047,-607.9576 416.1991,-618.2298 420.5769,-608.5818 413.6047,-607.9576"/>
</g>
<!-- list -->
<g id="node5" class="node">
<title>list</title>
<ellipse fill="none" stroke="#000000" cx="721.6558" cy="-430.3984" rx="27" ry="18"/>
<text text-anchor="middle" x="721.6558" y="-426.1984" font-family="Times,serif" font-size="14.00" fill="#000000">list</text>
</g>
<!-- search -->
<g id="node6" class="node">
<title>search</title>
<ellipse fill="none" stroke="#000000" cx="679.4137" cy="-491.7479" rx="32.8821" ry="18"/>
<text text-anchor="middle" x="679.4137" y="-487.5479" font-family="Times,serif" font-size="14.00" fill="#000000">search</text>
</g>
<!-- search&#45;&gt;mid -->
<g id="edge23" class="edge">
<title>search&#45;&gt;mid</title>
<path fill="none" stroke="#000000" stroke-dasharray="5,2" d="M652.4331,-501.9923C610.5609,-517.8909 530.0583,-548.4572 484.8592,-565.619"/>
<polygon fill="#000000" stroke="#000000" points="483.6155,-562.3473 475.5091,-569.1691 486.1003,-568.8915 483.6155,-562.3473"/>
</g>
<!-- _notice -->
<g id="node7" class="node">
<title>_notice</title>
<ellipse fill="none" stroke="#000000" cx="730.1361" cy="-375.7377" rx="36.2732" ry="18"/>
<text text-anchor="middle" x="730.1361" y="-371.5377" font-family="Times,serif" font-size="14.00" fill="#000000">_notice</text>
</g>
<!-- notice -->
<g id="node19" class="node">
<title>notice</title>
<ellipse fill="none" stroke="#000000" cx="430.0797" cy="-211.142" rx="31.9306" ry="18"/>
<text text-anchor="middle" x="430.0797" y="-206.942" font-family="Times,serif" font-size="14.00" fill="#000000">notice</text>
</g>
<!-- _notice&#45;&gt;notice -->
<g id="edge15" class="edge">
<title>_notice&#45;&gt;notice</title>
<path fill="none" stroke="#000000" d="M707.7887,-361.5434C693.2972,-352.4666 673.9316,-340.5745 656.4679,-330.6328 588.8212,-292.1232 507.7678,-250.3753 463.3178,-227.8462"/>
<polygon fill="#000000" stroke="#000000" points="464.6474,-224.5965 454.1441,-223.2063 461.4879,-230.843 464.6474,-224.5965"/>
</g>
<!-- getRoomInfoOld -->
<g id="node8" class="node">
<title>getRoomInfoOld</title>
<ellipse fill="none" stroke="#000000" cx="198.4164" cy="-456.1895" rx="70.56" ry="18"/>
<text text-anchor="middle" x="198.4164" y="-451.9895" font-family="Times,serif" font-size="14.00" fill="#000000">getRoomInfoOld</text>
</g>
<!-- liveStatus -->
<g id="node16" class="node">
<title>liveStatus</title>
<ellipse fill="none" stroke="#000000" cx="247.8839" cy="-86.8755" rx="44.9768" ry="18"/>
<text text-anchor="middle" x="247.8839" y="-82.6755" font-family="Times,serif" font-size="14.00" fill="#000000">liveStatus</text>
</g>
<!-- getRoomInfoOld&#45;&gt;liveStatus -->
<g id="edge12" class="edge">
<title>getRoomInfoOld&#45;&gt;liveStatus</title>
<path fill="none" stroke="#000000" d="M190.2091,-438.0563C181.8237,-417.8554 170.0122,-384.0142 169.9188,-353.4812 169.6413,-262.7626 211.872,-161.4068 234.2873,-114.0343"/>
<polygon fill="#000000" stroke="#000000" points="237.564,-115.2967 238.7473,-104.7682 231.2565,-112.2608 237.564,-115.2967"/>
</g>
<!-- title -->
<g id="node17" class="node">
<title>title</title>
<ellipse fill="none" stroke="#000000" cx="240.9357" cy="-197.0066" rx="27" ry="18"/>
<text text-anchor="middle" x="240.9357" y="-192.8066" font-family="Times,serif" font-size="14.00" fill="#000000">title</text>
</g>
<!-- getRoomInfoOld&#45;&gt;title -->
<g id="edge13" class="edge">
<title>getRoomInfoOld&#45;&gt;title</title>
<path fill="none" stroke="#000000" d="M189.9915,-438.0549C181.4156,-417.8528 169.4383,-384.0106 169.9188,-353.4812 170.6724,-305.6043 180.4939,-293.4182 201.9762,-250.6247 207.1402,-240.338 214.217,-229.9037 220.9233,-221.0077"/>
<polygon fill="#000000" stroke="#000000" points="223.7747,-223.0428 227.165,-213.0051 218.2551,-218.7377 223.7747,-223.0428"/>
</g>
<!-- online -->
<g id="node18" class="node">
<title>online</title>
<ellipse fill="none" stroke="#000000" cx="311.1229" cy="-134.4346" rx="32.4237" ry="18"/>
<text text-anchor="middle" x="311.1229" y="-130.2346" font-family="Times,serif" font-size="14.00" fill="#000000">online</text>
</g>
<!-- getRoomInfoOld&#45;&gt;online -->
<g id="edge14" class="edge">
<title>getRoomInfoOld&#45;&gt;online</title>
<path fill="none" stroke="#000000" d="M189.9915,-438.0549C181.4156,-417.8528 169.4383,-384.0106 169.9188,-353.4812 170.6724,-305.6043 175.4071,-290.46 201.9762,-250.6247 211.4026,-236.4917 257.6992,-214.1776 261.0403,-210.9467 276.1141,-196.3703 288.965,-176.4684 297.8744,-160.6162"/>
<polygon fill="#000000" stroke="#000000" points="300.9539,-162.2794 302.6516,-151.8215 294.8028,-158.9382 300.9539,-162.2794"/>
</g>
<!-- roomid -->
<g id="node27" class="node">
<title>roomid</title>
<ellipse fill="none" stroke="#000000" cx="511.4583" cy="-647.2858" rx="35.806" ry="18"/>
<text text-anchor="middle" x="511.4583" y="-643.0858" font-family="Times,serif" font-size="14.00" fill="#000000">roomid</text>
</g>
<!-- getRoomInfoOld&#45;&gt;roomid -->
<g id="edge26" class="edge">
<title>getRoomInfoOld&#45;&gt;roomid</title>
<path fill="none" stroke="#000000" d="M225.6492,-472.8137C283.3767,-508.0535 417.7938,-590.1084 479.4794,-627.7643"/>
<polygon fill="#000000" stroke="#000000" points="478.025,-630.9771 488.384,-633.2001 481.6723,-625.0023 478.025,-630.9771"/>
</g>
<!-- topList -->
<g id="node9" class="node">
<title>topList</title>
<ellipse fill="none" stroke="#000000" cx="128.4262" cy="-403.8278" rx="35.3303" ry="18"/>
<text text-anchor="middle" x="128.4262" y="-399.6278" font-family="Times,serif" font-size="14.00" fill="#000000">topList</text>
</g>
<!-- guardNum -->
<g id="node15" class="node">
<title>guardNum</title>
<ellipse fill="none" stroke="#000000" cx="370.8395" cy="-59.6284" rx="47.8582" ry="18"/>
<text text-anchor="middle" x="370.8395" y="-55.4284" font-family="Times,serif" font-size="14.00" fill="#000000">guardNum</text>
</g>
<!-- topList&#45;&gt;guardNum -->
<g id="edge11" class="edge">
<title>topList&#45;&gt;guardNum</title>
<path fill="none" stroke="#000000" d="M132.2946,-385.7074C141.6117,-345.5081 168.4947,-247.344 220.831,-183.0665 255.0403,-141.0519 305.3859,-103.1598 338.1452,-80.7608"/>
<polygon fill="#000000" stroke="#000000" points="340.1505,-83.63 346.4821,-75.1353 336.235,-77.8275 340.1505,-83.63"/>
</g>
<!-- getAnchorInRoom -->
<g id="node10" class="node">
<title>getAnchorInRoom</title>
<ellipse fill="none" stroke="#000000" cx="272.0056" cy="-406.6916" rx="76.3398" ry="18"/>
<text text-anchor="middle" x="272.0056" y="-402.4916" font-family="Times,serif" font-size="14.00" fill="#000000">getAnchorInRoom</text>
</g>
<!-- anchorScore -->
<g id="node23" class="node">
<title>anchorScore</title>
<ellipse fill="none" stroke="#000000" cx="335.401" cy="-202.8181" rx="54.1058" ry="18"/>
<text text-anchor="middle" x="335.401" y="-198.6181" font-family="Times,serif" font-size="14.00" fill="#000000">anchorScore</text>
</g>
<!-- getAnchorInRoom&#45;&gt;anchorScore -->
<g id="edge19" class="edge">
<title>getAnchorInRoom&#45;&gt;anchorScore</title>
<path fill="none" stroke="#000000" d="M277.6315,-388.5992C288.7455,-352.8577 313.5799,-272.9924 326.7753,-230.5574"/>
<polygon fill="#000000" stroke="#000000" points="330.1604,-231.4582 329.7877,-220.8699 323.4761,-229.3797 330.1604,-231.4582"/>
</g>
<!-- getAnchorInRoom&#45;&gt;mid -->
<g id="edge21" class="edge">
<title>getAnchorInRoom&#45;&gt;mid</title>
<path fill="none" stroke="#000000" stroke-dasharray="5,2" d="M290.5901,-424.3893C323.6579,-455.8793 392.6251,-521.5557 428.7671,-555.9732"/>
<polygon fill="#000000" stroke="#000000" points="426.7189,-558.8559 436.3743,-563.2175 431.5463,-553.7866 426.7189,-558.8559"/>
</g>
<!-- rankdb -->
<g id="node11" class="node">
<title>rankdb</title>
<ellipse fill="none" stroke="#000000" cx="206.1824" cy="-353.5501" rx="34.8285" ry="18"/>
<text text-anchor="middle" x="206.1824" y="-349.3501" font-family="Times,serif" font-size="14.00" fill="#000000">rankdb</text>
</g>
<!-- areaRank -->
<g id="node24" class="node">
<title>areaRank</title>
<ellipse fill="none" stroke="#000000" cx="497.5572" cy="-82.9283" rx="43.4887" ry="18"/>
<text text-anchor="middle" x="497.5572" y="-78.7283" font-family="Times,serif" font-size="14.00" fill="#000000">areaRank</text>
</g>
<!-- rankdb&#45;&gt;areaRank -->
<g id="edge20" class="edge">
<title>rankdb&#45;&gt;areaRank</title>
<path fill="none" stroke="#000000" d="M228.301,-339.4401C265.374,-314.9999 340.9351,-261.7235 391.3035,-202.8194 413.823,-176.4836 409.0188,-162.3019 431.8169,-136.207 441.9281,-124.6338 454.753,-113.6225 466.3855,-104.6463"/>
<polygon fill="#000000" stroke="#000000" points="468.6909,-107.2923 474.5892,-98.4911 464.4898,-101.6931 468.6909,-107.2923"/>
</g>
<!-- uname&#45;&gt;search -->
<g id="edge6" class="edge">
<title>uname&#45;&gt;search</title>
<path fill="none" stroke="#000000" d="M290.9873,-42.7111C306.5231,-65.5925 335.9882,-106.4123 367.0539,-135.8787 401.3525,-168.4117 419.314,-165.0882 453.8259,-197.395 520.4331,-259.7463 537.5865,-278.1501 581.587,-358.0761 592.6757,-378.2186 593.015,-384.555 604.6685,-404.3761 618.7939,-428.4017 639.7441,-452.209 655.8733,-468.8899"/>
<polygon fill="#000000" stroke="#000000" points="653.3924,-471.3588 662.903,-476.0278 658.3799,-466.447 653.3924,-471.3588"/>
</g>
<!-- mid&#45;&gt;stat -->
<g id="edge1" class="edge">
<title>mid&#45;&gt;stat</title>
<path fill="none" stroke="#000000" d="M469.9184,-564.446C494.1504,-545.988 537.5245,-512.9492 565.3158,-491.78"/>
<polygon fill="#000000" stroke="#000000" points="567.5678,-494.4644 573.402,-485.6206 563.3261,-488.8959 567.5678,-494.4644"/>
</g>
<!-- mid&#45;&gt;upstat -->
<g id="edge2" class="edge">
<title>mid&#45;&gt;upstat</title>
<path fill="none" stroke="#000000" d="M466.5144,-562.4071C488.4362,-538.9636 531.6232,-493.7409 571.0384,-458.1579 583.5626,-446.8514 598.0786,-434.9919 610.3435,-425.3031"/>
<polygon fill="#000000" stroke="#000000" points="612.7079,-427.8971 618.4228,-418.9757 608.3918,-422.386 612.7079,-427.8971"/>
</g>
<!-- mid&#45;&gt;info -->
<g id="edge3" class="edge">
<title>mid&#45;&gt;info</title>
<path fill="none" stroke="#000000" d="M464.6508,-562.0315C496.3743,-521.7529 579.4457,-416.2788 617.0708,-368.5071"/>
<polygon fill="#000000" stroke="#000000" points="619.8977,-370.5745 623.3355,-360.5529 614.3985,-366.2433 619.8977,-370.5745"/>
</g>
<!-- mid&#45;&gt;_notice -->
<g id="edge7" class="edge">
<title>mid&#45;&gt;_notice</title>
<path fill="none" stroke="#000000" d="M473.8389,-567.4524C505.47,-551.6061 565.2942,-519.9959 611.4681,-485.8881 647.4231,-459.3287 684.4992,-423.262 707.4296,-399.7482"/>
<polygon fill="#000000" stroke="#000000" points="710.2082,-401.9096 714.6417,-392.287 705.1751,-397.0446 710.2082,-401.9096"/>
</g>
<!-- mid&#45;&gt;getRoomInfoOld -->
<g id="edge27" class="edge">
<title>mid&#45;&gt;getRoomInfoOld</title>
<path fill="none" stroke="#000000" d="M429.9382,-567.4909C387.7922,-547.2296 295.1837,-502.7092 240.7267,-476.5296"/>
<polygon fill="#000000" stroke="#000000" points="242.2048,-473.3568 231.6756,-472.1785 239.1718,-479.6657 242.2048,-473.3568"/>
</g>
<!-- mid&#45;&gt;topList -->
<g id="edge29" class="edge">
<title>mid&#45;&gt;topList</title>
<path fill="none" stroke="#000000" d="M434.9126,-564.1437C401.328,-537.3023 323.558,-477.9944 249.9226,-442.4681 224.5425,-430.2232 194.3575,-420.6008 170.4237,-414.021"/>
<polygon fill="#000000" stroke="#000000" points="171.1461,-410.5912 160.5813,-411.3885 169.3374,-417.3535 171.1461,-410.5912"/>
</g>
<!-- mid&#45;&gt;rankdb -->
<g id="edge32" class="edge">
<title>mid&#45;&gt;rankdb</title>
<path fill="none" stroke="#000000" d="M444.9291,-560.4538C430.9071,-527.1659 396.8365,-454.1845 350.025,-406.7634 323.2717,-379.6618 281.5151,-366.2333 249.8695,-359.6592"/>
<polygon fill="#000000" stroke="#000000" points="250.4632,-356.2093 239.982,-357.757 249.1407,-363.0833 250.4632,-356.2093"/>
</g>
<!-- cid&#45;&gt;list -->
<g id="edge5" class="edge">
<title>cid&#45;&gt;list</title>
<path fill="none" stroke="#000000" d="M434.7981,-623.3974C487.1755,-588.1577 633.007,-490.0417 694.1379,-448.9126"/>
<polygon fill="#000000" stroke="#000000" points="696.1783,-451.7583 702.5214,-443.2721 692.2707,-445.9504 696.1783,-451.7583"/>
</g>
<!-- roomid&#45;&gt;topList -->
<g id="edge28" class="edge">
<title>roomid&#45;&gt;topList</title>
<path fill="none" stroke="#000000" d="M489.7174,-632.9821C473.4351,-622.0806 450.76,-606.4945 431.5874,-591.8254 348.5736,-528.311 344.0058,-488.0063 249.9226,-442.4681 224.558,-430.1911 194.373,-420.5686 170.4354,-413.9967"/>
<polygon fill="#000000" stroke="#000000" points="171.1557,-410.5664 160.5912,-411.3681 169.3498,-417.3295 171.1557,-410.5664"/>
</g>
<!-- roomid&#45;&gt;getAnchorInRoom -->
<g id="edge31" class="edge">
<title>roomid&#45;&gt;getAnchorInRoom</title>
<path fill="none" stroke="#000000" d="M488.2935,-633.4093C471.7078,-622.9616 449.2745,-607.755 431.5874,-591.8254 375.1032,-540.954 319.5283,-470.6247 291.2484,-432.9792"/>
<polygon fill="#000000" stroke="#000000" points="293.7705,-430.5065 284.9867,-424.5822 288.1589,-434.691 293.7705,-430.5065"/>
</g>
<!-- aid -->
<g id="node28" class="node">
<title>aid</title>
<ellipse fill="none" stroke="#000000" cx="839.1661" cy="-560.3706" rx="27" ry="18"/>
<text text-anchor="middle" x="839.1661" y="-556.1706" font-family="Times,serif" font-size="14.00" fill="#000000">aid</text>
</g>
<!-- aid&#45;&gt;view -->
<g id="edge4" class="edge">
<title>aid&#45;&gt;view</title>
<path fill="none" stroke="#000000" d="M819.2817,-548.1456C767.8047,-516.45 632.8839,-433.0589 614.1788,-418.2613 599.8522,-406.9275 585.1892,-392.6817 573.7769,-380.8881"/>
<polygon fill="#000000" stroke="#000000" points="576.2151,-378.3732 566.7831,-373.5475 571.1471,-383.2018 576.2151,-378.3732"/>
</g>
<!-- p -->
<g id="node29" class="node">
<title>p</title>
<ellipse fill="none" stroke="#000000" cx="347.6975" cy="-765.0633" rx="27" ry="18"/>
<text text-anchor="middle" x="347.6975" y="-760.8633" font-family="Times,serif" font-size="14.00" fill="#000000">p</text>
</g>
<!-- p&#45;&gt;cid -->
<g id="edge25" class="edge">
<title>p&#45;&gt;cid</title>
<path fill="none" stroke="#000000" stroke-dasharray="1,5" d="M356.7219,-747.9613C368.2476,-726.1194 388.3104,-688.0988 401.7847,-662.564"/>
<polygon fill="#000000" stroke="#000000" points="405.0232,-663.9263 406.5947,-653.4486 398.8323,-660.6594 405.0232,-663.9263"/>
</g>
<!-- page -->
<g id="node30" class="node">
<title>page</title>
<ellipse fill="none" stroke="#000000" cx="27.3634" cy="-274.1138" rx="27" ry="18"/>
<text text-anchor="middle" x="27.3634" y="-269.9138" font-family="Times,serif" font-size="14.00" fill="#000000">page</text>
</g>
<!-- page&#45;&gt;topList -->
<g id="edge30" class="edge">
<title>page&#45;&gt;topList</title>
<path fill="none" stroke="#000000" stroke-dasharray="1,5" d="M39.9587,-290.2799C57.3383,-312.5866 88.827,-353.0023 109.1702,-379.1128"/>
<polygon fill="#000000" stroke="#000000" points="106.4446,-381.3092 115.3515,-387.0465 111.9664,-377.0069 106.4446,-381.3092"/>
</g>
</g>
</svg>
