<?xml version="1.0" encoding="UTF-8" standalone="no"?>
<!DOCTYPE svg PUBLIC "-//W3C//DTD SVG 1.1//EN"
 "http://www.w3.org/Graphics/SVG/1.1/DTD/svg11.dtd">
<!-- Generated by graphviz version 2.40.1 (20161225.0304)
 -->
<!-- Title: G Pages: 1 -->
<svg width="897pt" height="820pt"
 viewBox="0.00 0.00 897.00 820.00" xmlns="http://www.w3.org/2000/svg" xmlns:xlink="http://www.w3.org/1999/xlink">
<g id="graph0" class="graph" transform="scale(1 1) rotate(0) translate(4 816)">
<title>G</title>
<polygon fill="#ffffff" stroke="transparent" points="-4,4 -4,-816 893,-816 893,4 -4,4"/>
<g id="clust1" class="cluster">
<title>cluster_api.bilibili.com</title>
<polygon fill="none" stroke="#000000" points="535.4497,-288.2752 535.4497,-509.2752 792.4497,-509.2752 792.4497,-288.2752 535.4497,-288.2752"/>
<text text-anchor="middle" x="663.9497" y="-494.0752" font-family="Times,serif" font-size="14.00" fill="#000000">api.bilibili.com</text>
</g>
<g id="clust2" class="cluster">
<title>cluster_api.live.bilibili.com</title>
<polygon fill="none" stroke="#000000" points="97.4274,-321.2251 97.4274,-468.2251 357.4274,-468.2251 357.4274,-321.2251 97.4274,-321.2251"/>
<text text-anchor="middle" x="227.4274" y="-453.0251" font-family="Times,serif" font-size="14.00" fill="#000000">api.live.bilibili.com</text>
</g>
<g id="clust3" class="cluster">
<title>cluster_data</title>
<polygon fill="none" stroke="#000000" points="140.2207,.4855 140.2207,-307.5145 522.2207,-307.5145 522.2207,.4855 140.2207,.4855"/>
<text text-anchor="middle" x="331.2207" y="-292.3145" font-family="Times,serif" font-size="14.00" fill="#000000">data</text>
</g>
<g id="clust4" class="cluster">
<title>cluster_input</title>
<polygon fill="none" stroke="#000000" points="346.2906,-559.8481 346.2906,-698.8481 506.2906,-698.8481 506.2906,-559.8481 346.2906,-559.8481"/>
<text text-anchor="middle" x="426.2906" y="-683.6481" font-family="Times,serif" font-size="14.00" fill="#000000">input</text>
</g>
<!-- stat -->
<g id="node1" class="node">
<title>stat</title>
<ellipse fill="none" stroke="#000000" cx="609.7197" cy="-441.4316" rx="27" ry="18"/>
<text text-anchor="middle" x="609.7197" y="-437.2316" font-family="Times,serif" font-size="14.00" fill="#000000">stat</text>
</g>
<!-- follower -->
<g id="node11" class="node">
<title>follower</title>
<ellipse fill="none" stroke="#000000" cx="286.433" cy="-138.8312" rx="40.1317" ry="18"/>
<text text-anchor="middle" x="286.433" y="-134.6312" font-family="Times,serif" font-size="14.00" fill="#000000">follower</text>
</g>
<!-- stat&#45;&gt;follower -->
<g id="edge8" class="edge">
<title>stat&#45;&gt;follower</title>
<path fill="none" stroke="#000000" d="M598.182,-424.7975C568.2192,-382.572 483.7954,-269.6466 391.2053,-199.8992 369.5252,-183.5677 343.1096,-168.1976 322.2265,-156.9625"/>
<polygon fill="#000000" stroke="#000000" points="323.8267,-153.8494 313.3523,-152.2566 320.5473,-160.0337 323.8267,-153.8494"/>
</g>
<!-- upstat -->
<g id="node2" class="node">
<title>upstat</title>
<ellipse fill="none" stroke="#000000" cx="655.9655" cy="-373.8738" rx="31.4636" ry="18"/>
<text text-anchor="middle" x="655.9655" y="-369.6738" font-family="Times,serif" font-size="14.00" fill="#000000">upstat</text>
</g>
<!-- archiveView -->
<g id="node19" class="node">
<title>archiveView</title>
<ellipse fill="none" stroke="#000000" cx="278.8061" cy="-259.693" rx="54.513" ry="18"/>
<text text-anchor="middle" x="278.8061" y="-255.493" font-family="Times,serif" font-size="14.00" fill="#000000">archiveView</text>
</g>
<!-- upstat&#45;&gt;archiveView -->
<g id="edge16" class="edge">
<title>upstat&#45;&gt;archiveView</title>
<path fill="none" stroke="#000000" d="M628.2321,-365.4778C565.0968,-346.3643 409.8949,-299.3787 329.2691,-274.9701"/>
<polygon fill="#000000" stroke="#000000" points="329.9316,-271.5139 319.3464,-271.9661 327.9032,-278.2136 329.9316,-271.5139"/>
</g>
<!-- articleView -->
<g id="node20" class="node">
<title>articleView</title>
<ellipse fill="none" stroke="#000000" cx="387.4629" cy="-144.9027" rx="50.6536" ry="18"/>
<text text-anchor="middle" x="387.4629" y="-140.7027" font-family="Times,serif" font-size="14.00" fill="#000000">articleView</text>
</g>
<!-- upstat&#45;&gt;articleView -->
<g id="edge17" class="edge">
<title>upstat&#45;&gt;articleView</title>
<path fill="none" stroke="#000000" d="M639.838,-358.2297C626.9857,-345.8927 608.4276,-328.3658 591.6583,-313.6062 530.5895,-259.856 456.4059,-199.826 416.3999,-167.8664"/>
<polygon fill="#000000" stroke="#000000" points="418.3992,-164.9841 408.3989,-161.485 414.0344,-170.4567 418.3992,-164.9841"/>
</g>
<!-- info -->
<g id="node3" class="node">
<title>info</title>
<ellipse fill="none" stroke="#000000" cx="654.5429" cy="-313.7845" rx="27" ry="18"/>
<text text-anchor="middle" x="654.5429" y="-309.5845" font-family="Times,serif" font-size="14.00" fill="#000000">info</text>
</g>
<!-- uname -->
<g id="node12" class="node">
<title>uname</title>
<ellipse fill="none" stroke="#000000" cx="237.2882" cy="-76.7232" rx="33.8596" ry="18"/>
<text text-anchor="middle" x="237.2882" y="-72.5232" font-family="Times,serif" font-size="14.00" fill="#000000">uname</text>
</g>
<!-- info&#45;&gt;uname -->
<g id="edge9" class="edge">
<title>info&#45;&gt;uname</title>
<path fill="none" stroke="#000000" d="M631.2515,-304.436C578.7074,-282.8208 447.9325,-226.0525 350.3398,-158.7425 332.7308,-146.5975 332.6534,-138.4442 315.9985,-125.0207 301.8365,-113.6063 284.7679,-102.8232 270.1505,-94.3537"/>
<polygon fill="#000000" stroke="#000000" points="271.8381,-91.2871 261.4137,-89.3942 268.3824,-97.3747 271.8381,-91.2871"/>
</g>
<!-- sign -->
<g id="node13" class="node">
<title>sign</title>
<ellipse fill="none" stroke="#000000" cx="487.0629" cy="-143.884" rx="27" ry="18"/>
<text text-anchor="middle" x="487.0629" y="-139.684" font-family="Times,serif" font-size="14.00" fill="#000000">sign</text>
</g>
<!-- info&#45;&gt;sign -->
<g id="edge10" class="edge">
<title>info&#45;&gt;sign</title>
<path fill="none" stroke="#000000" d="M639.6802,-298.707C610.2071,-268.8079 544.2102,-201.8573 509.4536,-166.5983"/>
<polygon fill="#000000" stroke="#000000" points="511.6458,-163.8365 502.133,-159.172 506.6606,-168.7507 511.6458,-163.8365"/>
</g>
<!-- face -->
<g id="node21" class="node">
<title>face</title>
<ellipse fill="none" stroke="#000000" cx="358.0361" cy="-86.4146" rx="27" ry="18"/>
<text text-anchor="middle" x="358.0361" y="-82.2146" font-family="Times,serif" font-size="14.00" fill="#000000">face</text>
</g>
<!-- info&#45;&gt;face -->
<g id="edge18" class="edge">
<title>info&#45;&gt;face</title>
<path fill="none" stroke="#000000" d="M637.6029,-299.5484C600.0219,-268.1399 506.5091,-190.9423 424.5861,-131.0628 412.2338,-122.0343 398.2135,-112.5237 386.2376,-104.6111"/>
<polygon fill="#000000" stroke="#000000" points="387.821,-101.464 377.5395,-98.9063 383.9819,-107.3174 387.821,-101.464"/>
</g>
<!-- view -->
<g id="node4" class="node">
<title>view</title>
<ellipse fill="none" stroke="#000000" cx="571.1564" cy="-327.4189" rx="27.0958" ry="18"/>
<text text-anchor="middle" x="571.1564" y="-323.2189" font-family="Times,serif" font-size="14.00" fill="#000000">view</text>
</g>
<!-- mid -->
<g id="node22" class="node">
<title>mid</title>
<ellipse fill="none" stroke="#000000" cx="470.9552" cy="-591.3958" rx="27" ry="18"/>
<text text-anchor="middle" x="470.9552" y="-587.1958" font-family="Times,serif" font-size="14.00" fill="#000000">mid</text>
</g>
<!-- view&#45;&gt;mid -->
<g id="edge20" class="edge">
<title>view&#45;&gt;mid</title>
<path fill="none" stroke="#000000" stroke-dasharray="5,2" d="M564.4263,-345.149C547.2776,-390.3267 501.8487,-510.0078 481.3039,-564.1324"/>
<polygon fill="#000000" stroke="#000000" points="477.9326,-563.1516 477.6559,-573.7428 484.477,-565.6358 477.9326,-563.1516"/>
</g>
<!-- cid -->
<g id="node23" class="node">
<title>cid</title>
<ellipse fill="none" stroke="#000000" cx="415.785" cy="-650.8403" rx="27" ry="18"/>
<text text-anchor="middle" x="415.785" y="-646.6403" font-family="Times,serif" font-size="14.00" fill="#000000">cid</text>
</g>
<!-- view&#45;&gt;cid -->
<g id="edge22" class="edge">
<title>view&#45;&gt;cid</title>
<path fill="none" stroke="#000000" d="M562.5135,-344.6148C541.485,-386.563 486.1643,-497.5789 442.3552,-591.3545 437.3849,-601.9936 432.0761,-613.787 427.5207,-624.0486"/>
<polygon fill="#000000" stroke="#000000" points="424.2599,-622.7685 423.4197,-633.33 430.6627,-625.5977 424.2599,-622.7685"/>
</g>
<!-- list -->
<g id="node5" class="node">
<title>list</title>
<ellipse fill="none" stroke="#000000" cx="740.1222" cy="-399.807" rx="27" ry="18"/>
<text text-anchor="middle" x="740.1222" y="-395.607" font-family="Times,serif" font-size="14.00" fill="#000000">list</text>
</g>
<!-- search -->
<g id="node6" class="node">
<title>search</title>
<ellipse fill="none" stroke="#000000" cx="697.8801" cy="-461.1565" rx="32.8821" ry="18"/>
<text text-anchor="middle" x="697.8801" y="-456.9565" font-family="Times,serif" font-size="14.00" fill="#000000">search</text>
</g>
<!-- search&#45;&gt;mid -->
<g id="edge21" class="edge">
<title>search&#45;&gt;mid</title>
<path fill="none" stroke="#000000" stroke-dasharray="5,2" d="M674.8726,-474.3613C633.4444,-498.1382 546.3607,-548.1183 500.5558,-574.4071"/>
<polygon fill="#000000" stroke="#000000" points="498.6359,-571.4734 491.7051,-579.4868 502.1204,-577.5446 498.6359,-571.4734"/>
</g>
<!-- _notice -->
<g id="node7" class="node">
<title>_notice</title>
<ellipse fill="none" stroke="#000000" cx="748.6026" cy="-345.1463" rx="36.2732" ry="18"/>
<text text-anchor="middle" x="748.6026" y="-340.9463" font-family="Times,serif" font-size="14.00" fill="#000000">_notice</text>
</g>
<!-- notice -->
<g id="node18" class="node">
<title>notice</title>
<ellipse fill="none" stroke="#000000" cx="413.1179" cy="-27.5537" rx="31.9306" ry="18"/>
<text text-anchor="middle" x="413.1179" y="-23.3537" font-family="Times,serif" font-size="14.00" fill="#000000">notice</text>
</g>
<!-- _notice&#45;&gt;notice -->
<g id="edge15" class="edge">
<title>_notice&#45;&gt;notice</title>
<path fill="none" stroke="#000000" d="M731.5046,-328.9602C676.0747,-276.4864 501.2272,-110.9639 437.0462,-50.2058"/>
<polygon fill="#000000" stroke="#000000" points="439.4516,-47.6633 429.7833,-43.3303 434.6392,-52.7468 439.4516,-47.6633"/>
</g>
<!-- getRoomInfoOld -->
<g id="node8" class="node">
<title>getRoomInfoOld</title>
<ellipse fill="none" stroke="#000000" cx="229.6303" cy="-347.0476" rx="70.56" ry="18"/>
<text text-anchor="middle" x="229.6303" y="-342.8476" font-family="Times,serif" font-size="14.00" fill="#000000">getRoomInfoOld</text>
</g>
<!-- liveStatus -->
<g id="node15" class="node">
<title>liveStatus</title>
<ellipse fill="none" stroke="#000000" cx="265.6264" cy="-25.2506" rx="44.9768" ry="18"/>
<text text-anchor="middle" x="265.6264" y="-21.0506" font-family="Times,serif" font-size="14.00" fill="#000000">liveStatus</text>
</g>
<!-- getRoomInfoOld&#45;&gt;liveStatus -->
<g id="edge12" class="edge">
<title>getRoomInfoOld&#45;&gt;liveStatus</title>
<path fill="none" stroke="#000000" d="M226.746,-328.9682C224.2567,-311.2876 221.2377,-283.5902 222.452,-259.5349 225.2038,-205.019 228.515,-190.872 244.7675,-138.7624 253.7502,-109.9616 268.2346,-106.6919 272.567,-76.8355 273.6732,-69.2118 273.273,-60.9452 272.247,-53.3092"/>
<polygon fill="#000000" stroke="#000000" points="275.6883,-52.6684 270.5428,-43.407 268.7897,-53.8558 275.6883,-52.6684"/>
</g>
<!-- title -->
<g id="node16" class="node">
<title>title</title>
<ellipse fill="none" stroke="#000000" cx="266.7865" cy="-185.8454" rx="27" ry="18"/>
<text text-anchor="middle" x="266.7865" y="-181.6454" font-family="Times,serif" font-size="14.00" fill="#000000">title</text>
</g>
<!-- getRoomInfoOld&#45;&gt;title -->
<g id="edge13" class="edge">
<title>getRoomInfoOld&#45;&gt;title</title>
<path fill="none" stroke="#000000" d="M224.9406,-329.0414C221.0355,-311.1784 216.9288,-283.1355 222.452,-259.5349 226.6941,-241.4086 237.3212,-223.4583 247.1073,-209.8126"/>
<polygon fill="#000000" stroke="#000000" points="250.1367,-211.6071 253.3412,-201.5085 244.5385,-207.4046 250.1367,-211.6071"/>
</g>
<!-- online -->
<g id="node17" class="node">
<title>online</title>
<ellipse fill="none" stroke="#000000" cx="180.6178" cy="-134.3905" rx="32.4237" ry="18"/>
<text text-anchor="middle" x="180.6178" y="-130.1905" font-family="Times,serif" font-size="14.00" fill="#000000">online</text>
</g>
<!-- getRoomInfoOld&#45;&gt;online -->
<g id="edge14" class="edge">
<title>getRoomInfoOld&#45;&gt;online</title>
<path fill="none" stroke="#000000" d="M225.4515,-328.9166C216.8789,-291.7216 197.2537,-206.571 187.0483,-162.2914"/>
<polygon fill="#000000" stroke="#000000" points="190.4426,-161.4341 184.786,-152.4757 183.6214,-163.0063 190.4426,-161.4341"/>
</g>
<!-- roomid -->
<g id="node24" class="node">
<title>roomid</title>
<ellipse fill="none" stroke="#000000" cx="389.9229" cy="-585.7056" rx="35.806" ry="18"/>
<text text-anchor="middle" x="389.9229" y="-581.5056" font-family="Times,serif" font-size="14.00" fill="#000000">roomid</text>
</g>
<!-- getRoomInfoOld&#45;&gt;roomid -->
<g id="edge24" class="edge">
<title>getRoomInfoOld&#45;&gt;roomid</title>
<path fill="none" stroke="#000000" d="M270.5644,-361.7152C297.4321,-373.426 331.1565,-392.467 351.0286,-419.967 380.9143,-461.3243 388.18,-522.2761 389.7431,-557.5856"/>
<polygon fill="#000000" stroke="#000000" points="386.2476,-557.7868 390.0638,-567.6704 393.2441,-557.5642 386.2476,-557.7868"/>
</g>
<!-- topList -->
<g id="node9" class="node">
<title>topList</title>
<ellipse fill="none" stroke="#000000" cx="140.8488" cy="-400.7428" rx="35.3303" ry="18"/>
<text text-anchor="middle" x="140.8488" y="-396.5428" font-family="Times,serif" font-size="14.00" fill="#000000">topList</text>
</g>
<!-- guardNum -->
<g id="node14" class="node">
<title>guardNum</title>
<ellipse fill="none" stroke="#000000" cx="356.1605" cy="-213.7496" rx="47.8582" ry="18"/>
<text text-anchor="middle" x="356.1605" y="-209.5496" font-family="Times,serif" font-size="14.00" fill="#000000">guardNum</text>
</g>
<!-- topList&#45;&gt;guardNum -->
<g id="edge11" class="edge">
<title>topList&#45;&gt;guardNum</title>
<path fill="none" stroke="#000000" d="M143.2207,-382.5495C145.4215,-371.3522 149.6085,-357.2114 157.5038,-346.8535 164.4171,-337.7841 169.0488,-338.3744 179.1343,-333.0517 238.6199,-301.6581 260.8263,-308.55 318.3331,-273.6636 326.6055,-268.6452 329.2628,-267.5216 335.1602,-259.8511 339.4823,-254.2296 343.165,-247.5762 346.1823,-241.0986"/>
<polygon fill="#000000" stroke="#000000" points="349.4129,-242.4454 350.1239,-231.8744 342.9759,-239.6948 349.4129,-242.4454"/>
</g>
<!-- getAnchorInRoom -->
<g id="node10" class="node">
<title>getAnchorInRoom</title>
<ellipse fill="none" stroke="#000000" cx="273.0093" cy="-419.8952" rx="76.3398" ry="18"/>
<text text-anchor="middle" x="273.0093" y="-415.6952" font-family="Times,serif" font-size="14.00" fill="#000000">getAnchorInRoom</text>
</g>
<!-- getAnchorInRoom&#45;&gt;mid -->
<g id="edge19" class="edge">
<title>getAnchorInRoom&#45;&gt;mid</title>
<path fill="none" stroke="#000000" stroke-dasharray="5,2" d="M293.0787,-437.2834C329.5997,-468.9253 406.7954,-535.8077 446.3939,-570.1159"/>
<polygon fill="#000000" stroke="#000000" points="444.3952,-573.0152 454.245,-576.9181 448.979,-567.7246 444.3952,-573.0152"/>
</g>
<!-- uname&#45;&gt;search -->
<g id="edge6" class="edge">
<title>uname&#45;&gt;search</title>
<path fill="none" stroke="#000000" d="M261.4137,-89.3942C277.5576,-98.3744 298.8972,-111.2373 315.9985,-125.0207 325.5171,-132.6925 326.2813,-136.3424 335.0365,-144.8751 427.8578,-235.3384 452.4559,-256.6358 550.6545,-341.2315 591.9771,-376.83 641.3796,-416.5045 671.1594,-440.1184"/>
<polygon fill="#000000" stroke="#000000" points="669.0021,-442.8745 679.0155,-446.3361 673.3463,-437.3856 669.0021,-442.8745"/>
</g>
<!-- mid&#45;&gt;stat -->
<g id="edge1" class="edge">
<title>mid&#45;&gt;stat</title>
<path fill="none" stroke="#000000" d="M485.2828,-575.9118C509.6921,-549.5324 559.474,-495.7326 588.1216,-464.7728"/>
<polygon fill="#000000" stroke="#000000" points="591.0394,-466.773 595.2621,-457.056 585.9015,-462.0188 591.0394,-466.773"/>
</g>
<!-- mid&#45;&gt;upstat -->
<g id="edge2" class="edge">
<title>mid&#45;&gt;upstat</title>
<path fill="none" stroke="#000000" d="M481.0785,-574.4847C500.083,-543.4726 543.3649,-476.2254 589.5048,-427.5665 601.0317,-415.4104 615.323,-403.53 627.6961,-394.048"/>
<polygon fill="#000000" stroke="#000000" points="630.0007,-396.6945 635.8982,-387.8927 625.7991,-391.0957 630.0007,-396.6945"/>
</g>
<!-- mid&#45;&gt;info -->
<g id="edge3" class="edge">
<title>mid&#45;&gt;info</title>
<path fill="none" stroke="#000000" d="M481.8896,-574.8613C512.7474,-528.1999 600.666,-395.2543 637.7342,-339.2017"/>
<polygon fill="#000000" stroke="#000000" points="640.8369,-340.8551 643.4336,-330.5834 634.9982,-336.9938 640.8369,-340.8551"/>
</g>
<!-- mid&#45;&gt;_notice -->
<g id="edge7" class="edge">
<title>mid&#45;&gt;_notice</title>
<path fill="none" stroke="#000000" d="M487.855,-577.3105C517.1094,-552.8436 578.9482,-500.7513 629.9345,-455.2967 662.9239,-425.8864 700.153,-391.053 723.9704,-368.5514"/>
<polygon fill="#000000" stroke="#000000" points="726.65,-370.8343 731.5079,-361.4188 721.8387,-365.7499 726.65,-370.8343"/>
</g>
<!-- mid&#45;&gt;getRoomInfoOld -->
<g id="edge25" class="edge">
<title>mid&#45;&gt;getRoomInfoOld</title>
<path fill="none" stroke="#000000" d="M462.1528,-574.3443C444.5361,-541.4278 402.2095,-468.135 351.0286,-419.967 328.1676,-398.4518 297.9102,-380.2583 273.3221,-367.4255"/>
<polygon fill="#000000" stroke="#000000" points="274.7018,-364.2003 264.2034,-362.774 271.5209,-370.4358 274.7018,-364.2003"/>
</g>
<!-- mid&#45;&gt;topList -->
<g id="edge27" class="edge">
<title>mid&#45;&gt;topList</title>
<path fill="none" stroke="#000000" d="M450.3055,-579.4696C394.6297,-547.314 241.0698,-458.6255 173.4915,-419.5956"/>
<polygon fill="#000000" stroke="#000000" points="174.9557,-416.3995 164.5457,-414.429 171.4548,-422.4612 174.9557,-416.3995"/>
</g>
<!-- cid&#45;&gt;list -->
<g id="edge5" class="edge">
<title>cid&#45;&gt;list</title>
<path fill="none" stroke="#000000" d="M436.859,-639.3785C452.3152,-630.6698 473.5786,-618.0494 491.1357,-605.2843 577.9064,-542.1964 589.3371,-513.6546 673.6335,-447.297 686.1903,-437.4124 700.5715,-427.0308 712.7396,-418.5038"/>
<polygon fill="#000000" stroke="#000000" points="714.9381,-421.2382 721.1511,-412.6563 710.9424,-415.4906 714.9381,-421.2382"/>
</g>
<!-- roomid&#45;&gt;topList -->
<g id="edge26" class="edge">
<title>roomid&#45;&gt;topList</title>
<path fill="none" stroke="#000000" d="M369.5401,-570.5693C325.1688,-537.6191 219.7516,-459.3362 169.0456,-421.6818"/>
<polygon fill="#000000" stroke="#000000" points="170.9322,-418.7233 160.8171,-415.5713 166.7588,-424.3432 170.9322,-418.7233"/>
</g>
<!-- roomid&#45;&gt;getAnchorInRoom -->
<g id="edge29" class="edge">
<title>roomid&#45;&gt;getAnchorInRoom</title>
<path fill="none" stroke="#000000" d="M377.8514,-568.5855C357.3929,-539.5706 315.7792,-480.5528 291.5849,-446.2397"/>
<polygon fill="#000000" stroke="#000000" points="294.1667,-443.8276 285.5436,-437.6718 288.4458,-447.8614 294.1667,-443.8276"/>
</g>
<!-- aid -->
<g id="node25" class="node">
<title>aid</title>
<ellipse fill="none" stroke="#000000" cx="862.0827" cy="-529.931" rx="27" ry="18"/>
<text text-anchor="middle" x="862.0827" y="-525.731" font-family="Times,serif" font-size="14.00" fill="#000000">aid</text>
</g>
<!-- aid&#45;&gt;view -->
<g id="edge4" class="edge">
<title>aid&#45;&gt;view</title>
<path fill="none" stroke="#000000" d="M841.4654,-517.9382C792.4142,-489.2802 670.0763,-417.0292 632.6452,-387.6699 618.2715,-376.3958 603.6065,-362.1527 592.2048,-350.3457"/>
<polygon fill="#000000" stroke="#000000" points="594.645,-347.8326 585.2194,-342.9943 589.5705,-352.6544 594.645,-347.8326"/>
</g>
<!-- p -->
<g id="node26" class="node">
<title>p</title>
<ellipse fill="none" stroke="#000000" cx="336.725" cy="-793.5104" rx="27" ry="18"/>
<text text-anchor="middle" x="336.725" y="-789.3104" font-family="Times,serif" font-size="14.00" fill="#000000">p</text>
</g>
<!-- p&#45;&gt;cid -->
<g id="edge23" class="edge">
<title>p&#45;&gt;cid</title>
<path fill="none" stroke="#000000" stroke-dasharray="1,5" d="M346.1047,-776.584C359.8346,-751.8073 385.5118,-705.4707 401.5694,-676.4935"/>
<polygon fill="#000000" stroke="#000000" points="404.6319,-678.188 406.4176,-667.7447 398.5091,-674.795 404.6319,-678.188"/>
</g>
<!-- page -->
<g id="node27" class="node">
<title>page</title>
<ellipse fill="none" stroke="#000000" cx="26.9613" cy="-280.6004" rx="27" ry="18"/>
<text text-anchor="middle" x="26.9613" y="-276.4004" font-family="Times,serif" font-size="14.00" fill="#000000">page</text>
</g>
<!-- page&#45;&gt;topList -->
<g id="edge28" class="edge">
<title>page&#45;&gt;topList</title>
<path fill="none" stroke="#000000" stroke-dasharray="1,5" d="M41.8501,-296.307C61.3274,-316.854 95.6362,-353.0472 118.3076,-376.9636"/>
<polygon fill="#000000" stroke="#000000" points="115.8062,-379.4124 125.226,-384.262 120.8864,-374.5966 115.8062,-379.4124"/>
</g>
</g>
</svg>
